<svg xmlns="http://www.w3.org/2000/svg" xmlns:xlink="http://www.w3.org/1999/xlink" width="300" zoomAndPan="magnify" viewBox="0 0 224.87999 74.999997" height="100" preserveAspectRatio="xMidYMid meet" version="1.0"><defs><g/><clipPath id="7e360790f8"><path d="M 52.589844 22.574219 L 224.761719 22.574219 L 224.761719 64.601562 L 52.589844 64.601562 Z M 52.589844 22.574219 " clip-rule="nonzero"/></clipPath><clipPath id="faa439d44e"><path d="M 67.582031 22.574219 L 209.886719 22.574219 C 218.167969 22.574219 224.878906 29.285156 224.878906 37.566406 L 224.878906 49.609375 C 224.878906 57.886719 218.167969 64.601562 209.886719 64.601562 L 67.582031 64.601562 C 59.300781 64.601562 52.589844 57.886719 52.589844 49.609375 L 52.589844 37.566406 C 52.589844 29.285156 59.300781 22.574219 67.582031 22.574219 Z M 67.582031 22.574219 " clip-rule="nonzero"/></clipPath><clipPath id="a78d3dc1e6"><path d="M 52.589844 22.574219 L 224.761719 22.574219 L 224.761719 64.550781 L 52.589844 64.550781 Z M 52.589844 22.574219 " clip-rule="nonzero"/></clipPath><clipPath id="4b811ab9cb"><path d="M 67.582031 22.574219 L 209.878906 22.574219 C 218.15625 22.574219 224.871094 29.289062 224.871094 37.566406 L 224.871094 49.609375 C 224.871094 57.886719 218.15625 64.597656 209.878906 64.597656 L 67.582031 64.597656 C 59.300781 64.597656 52.589844 57.886719 52.589844 49.609375 L 52.589844 37.566406 C 52.589844 29.289062 59.300781 22.574219 67.582031 22.574219 Z M 67.582031 22.574219 " clip-rule="nonzero"/></clipPath><clipPath id="0a79c34a9b"><path d="M 36 61 L 59 61 L 59 71.230469 L 36 71.230469 Z M 36 61 " clip-rule="nonzero"/></clipPath><clipPath id="c4ad63bab2"><path d="M 36 0.0195312 L 68 0.0195312 L 68 26 L 36 26 Z M 36 0.0195312 " clip-rule="nonzero"/></clipPath><clipPath id="2b62357e28"><path d="M 55 0.0195312 L 68 0.0195312 L 68 13 L 55 13 Z M 55 0.0195312 " clip-rule="nonzero"/></clipPath><clipPath id="3da9bd3241"><path d="M 47 35 L 69 35 L 69 71.230469 L 47 71.230469 Z M 47 35 " clip-rule="nonzero"/></clipPath></defs><g clip-path="url(#7e360790f8)"><g clip-path="url(#faa439d44e)"><path fill="#ff3d00" d="M 52.589844 22.574219 L 224.960938 22.574219 L 224.960938 64.601562 L 52.589844 64.601562 Z M 52.589844 22.574219 " fill-opacity="1" fill-rule="nonzero"/></g></g><g clip-path="url(#a78d3dc1e6)"><g clip-path="url(#4b811ab9cb)"><path stroke-linecap="butt" transform="matrix(0.7496, 0, 0, 0.7496, 52.590485, 22.575685)" fill="none" stroke-linejoin="miter" d="M 19.999396 -0.00195544 L 209.829822 -0.00195544 C 220.872171 -0.00195544 229.830074 8.955948 229.830074 19.998296 L 229.830074 36.064158 C 229.830074 47.106506 220.872171 56.059199 209.829822 56.059199 L 19.999396 56.059199 C 8.951837 56.059199 -0.000855512 47.106506 -0.000855512 36.064158 L -0.000855512 19.998296 C -0.000855512 8.955948 8.951837 -0.00195544 19.999396 -0.00195544 Z M 19.999396 -0.00195544 " stroke="#d9d9d9" stroke-width="2" stroke-opacity="1" stroke-miterlimit="4"/></g></g><g fill="#000000" fill-opacity="1"><g transform="translate(71.836505, 46.904446)"><g><path d="M 4.011719 0.132812 L 5.191406 0.164062 L 5.488281 0.132812 L 5.789062 0.0585938 L 6.085938 0.015625 L 6.382812 -0.105469 L 6.652344 -0.132812 L 6.9375 -0.269531 L 7.949219 -0.878906 L 8.382812 -1.328125 L 8.53125 -1.535156 L 8.695312 -1.863281 L 8.785156 -2.132812 L 8.875 -2.386719 L 8.964844 -3.132812 L 8.933594 -3.609375 L 8.710938 -4.476562 L 8.546875 -4.714844 L 8.160156 -5.160156 L 7.890625 -5.398438 L 7.652344 -5.519531 L 7.382812 -5.683594 L 6.21875 -6.042969 L 5.921875 -6.085938 L 5.625 -6.101562 L 5.308594 -6.160156 L 4.878906 -6.160156 L 4.085938 -6.324219 L 3.535156 -6.59375 L 3.3125 -6.800781 L 3.25 -7.25 L 3.328125 -7.652344 L 3.503906 -7.847656 L 3.730469 -8.011719 L 3.96875 -8.144531 L 4.238281 -8.203125 L 4.714844 -8.21875 L 5.191406 -8.160156 L 5.460938 -8.085938 L 5.726562 -7.90625 L 5.980469 -7.695312 L 6.207031 -7.398438 L 6.535156 -7.203125 L 7.234375 -7.265625 L 7.636719 -7.234375 L 7.9375 -7.234375 L 8.203125 -7.203125 L 8.488281 -7.414062 L 8.605469 -7.667969 L 8.546875 -7.949219 L 8.515625 -8.234375 L 8.101562 -9.007812 L 7.773438 -9.457031 L 6.789062 -10.144531 L 5.953125 -10.425781 L 5.371094 -10.546875 L 4.222656 -10.574219 L 3.894531 -10.488281 L 3.59375 -10.472656 L 3.328125 -10.425781 L 2.757812 -10.246094 L 2.253906 -9.949219 L 1.535156 -9.457031 L 1.015625 -8.757812 L 0.746094 -7.9375 L 0.699219 -7.203125 L 0.714844 -6.742188 L 0.820312 -6.144531 L 1.058594 -5.625 L 1.609375 -4.9375 L 2.625 -4.386719 L 3.164062 -4.207031 L 5.503906 -3.9375 L 6.042969 -3.683594 L 6.234375 -3.503906 L 6.324219 -3.132812 L 6.207031 -2.757812 L 6.011719 -2.535156 L 5.503906 -2.3125 L 5.042969 -2.28125 L 4.773438 -2.238281 L 4.011719 -2.3125 L 3.757812 -2.445312 L 3.503906 -2.609375 L 3.011719 -3.148438 L 2.714844 -3.265625 L 2.445312 -3.238281 L 2.164062 -3.28125 L 1.015625 -3.222656 L 0.746094 -3.101562 L 0.625 -2.789062 L 0.671875 -2.492188 L 0.730469 -2.191406 L 0.820312 -1.925781 L 1.105469 -1.371094 L 1.3125 -1.179688 L 1.507812 -0.953125 L 2.027344 -0.625 L 2.238281 -0.402344 L 2.519531 -0.269531 L 2.820312 -0.179688 L 3.402344 0.03125 Z M 4.011719 0.132812 "/></g></g></g><g fill="#000000" fill-opacity="1"><g transform="translate(81.351343, 46.904446)"><g><path d="M 5.980469 0.195312 L 7.308594 0.0585938 L 7.875 -0.121094 L 9.203125 -0.714844 L 10.246094 -1.714844 L 10.441406 -1.984375 L 11.023438 -3.011719 L 11.128906 -3.296875 L 11.171875 -3.59375 L 11.261719 -3.832031 L 11.320312 -4.160156 L 11.394531 -5.207031 L 11.320312 -6.234375 L 11.203125 -6.789062 L 11.082031 -7.101562 L 11.007812 -7.445312 L 10.738281 -7.9375 L 10.636719 -8.203125 L 10.441406 -8.457031 L 10.261719 -8.636719 L 10.070312 -8.90625 L 9.425781 -9.488281 L 8.667969 -9.964844 L 6.710938 -10.574219 L 6.011719 -10.589844 L 4.96875 -10.53125 L 4.667969 -10.472656 L 4.371094 -10.382812 L 4.101562 -10.261719 L 3.535156 -10.113281 L 2.773438 -9.636719 L 2.566406 -9.457031 L 2.089844 -9.128906 L 1.6875 -8.679688 L 1.179688 -7.9375 L 1.042969 -7.683594 L 0.761719 -6.863281 L 0.640625 -6.21875 L 0.582031 -4.488281 L 0.746094 -3.550781 L 0.96875 -3.042969 L 1.058594 -2.730469 L 1.207031 -2.460938 L 1.910156 -1.507812 L 2.328125 -1.105469 L 2.519531 -0.878906 L 3.535156 -0.34375 L 3.820312 -0.222656 L 5.085938 0.148438 Z M 5.5625 -2.429688 L 5.265625 -2.535156 L 4.996094 -2.566406 L 4.488281 -2.835938 L 4.027344 -3.238281 L 3.878906 -3.445312 L 3.683594 -3.65625 L 3.402344 -4.488281 L 3.328125 -5.234375 L 3.339844 -5.683594 L 3.445312 -6.234375 L 3.535156 -6.503906 L 3.714844 -6.710938 L 3.847656 -6.964844 L 4.042969 -7.203125 L 4.265625 -7.398438 L 4.699219 -7.695312 L 4.96875 -7.832031 L 5.28125 -7.90625 L 5.964844 -7.964844 L 6.683594 -7.921875 L 7.472656 -7.578125 L 7.9375 -7.234375 L 8.277344 -6.726562 L 8.398438 -6.457031 L 8.488281 -6.160156 L 8.59375 -5.890625 L 8.652344 -5.25 L 8.5625 -4.503906 L 8.429688 -3.894531 L 8.265625 -3.667969 L 8.128906 -3.445312 L 7.949219 -3.175781 L 7.488281 -2.820312 L 7.21875 -2.699219 L 6.980469 -2.566406 L 6.710938 -2.535156 L 6.429688 -2.460938 Z M 5.5625 -2.429688 "/></g></g></g><g fill="#000000" fill-opacity="1"><g transform="translate(93.312006, 46.904446)"><g><path d="M 5.132812 0.195312 L 5.578125 0.148438 L 5.863281 0.164062 L 7.027344 -0.132812 L 7.5625 -0.417969 L 8.054688 -0.746094 L 8.472656 -1.164062 L 8.816406 -1.6875 L 8.90625 -1.984375 L 9.054688 -2.238281 L 9.1875 -2.863281 L 9.261719 -3.578125 L 9.261719 -7.609375 L 9.234375 -7.890625 L 9.261719 -8.21875 L 9.234375 -8.457031 L 9.234375 -9.695312 L 9.277344 -9.996094 L 9.085938 -10.308594 L 8.757812 -10.410156 L 7.816406 -10.382812 L 7.191406 -10.425781 L 6.875 -10.277344 L 6.710938 -9.949219 L 6.742188 -4.074219 L 6.636719 -3.148438 L 6.546875 -2.921875 L 6.382812 -2.625 L 6.128906 -2.445312 L 5.609375 -2.253906 L 4.714844 -2.253906 L 4.371094 -2.328125 L 4.117188 -2.476562 L 3.878906 -2.65625 L 3.699219 -2.894531 L 3.609375 -3.175781 L 3.519531 -4.042969 L 3.566406 -8.84375 L 3.535156 -9.070312 L 3.566406 -9.546875 L 3.535156 -9.980469 L 3.355469 -10.308594 L 3.042969 -10.441406 L 2.757812 -10.441406 L 2.460938 -10.398438 L 1.820312 -10.457031 L 1.507812 -10.410156 L 1.191406 -10.292969 L 1 -10.007812 L 1.027344 -9.710938 L 1.027344 -9.351562 L 1 -9.113281 L 1.042969 -7.027344 L 1 -6.726562 L 1.027344 -6.445312 L 0.984375 -4.042969 L 1.074219 -2.847656 L 1.222656 -2.238281 L 1.460938 -1.730469 L 1.804688 -1.191406 L 1.984375 -0.984375 L 2.207031 -0.789062 L 2.683594 -0.476562 L 2.984375 -0.34375 L 3.207031 -0.207031 L 3.773438 0.0429688 L 4.355469 0.164062 L 4.652344 0.164062 Z M 5.132812 0.195312 "/></g></g></g><g fill="#000000" fill-opacity="1"><g transform="translate(103.602349, 46.904446)"><g/></g></g><g fill="#000000" fill-opacity="1"><g transform="translate(107.643918, 46.904446)"><g><path d="M 2 0.0429688 L 2.730469 0.015625 L 3 0.03125 L 3.339844 0 L 3.65625 -0.121094 L 3.789062 -0.433594 L 3.773438 -0.730469 L 3.789062 -1.058594 L 3.757812 -1.609375 L 3.789062 -1.894531 L 3.773438 -2.238281 L 3.910156 -2.507812 L 4.25 -2.671875 L 4.578125 -2.699219 L 4.894531 -2.640625 L 6.429688 -2.757812 L 7.847656 -3.328125 L 8.070312 -3.503906 L 8.277344 -3.742188 L 8.472656 -3.9375 L 8.667969 -4.160156 L 8.980469 -4.640625 L 9.234375 -5.222656 L 9.277344 -5.550781 L 9.367188 -5.789062 L 9.398438 -7.011719 L 9.339844 -7.265625 L 9.292969 -7.59375 L 9.113281 -8.144531 L 8.832031 -8.652344 L 8.472656 -9.144531 L 7.800781 -9.726562 L 7.308594 -10.054688 L 6.710938 -10.234375 L 6.457031 -10.335938 L 6.160156 -10.335938 L 5.863281 -10.441406 L 5.414062 -10.457031 L 4.9375 -10.441406 L 4.609375 -10.398438 L 3.699219 -10.410156 L 3.402344 -10.457031 L 2.476562 -10.398438 L 2.148438 -10.410156 L 1.878906 -10.457031 L 1.566406 -10.398438 L 1.253906 -10.234375 L 1.117188 -9.996094 L 1.132812 -8.1875 L 1.074219 -7.59375 L 1.105469 -7.308594 L 1.089844 -3.445312 L 1.117188 -3.164062 L 1.105469 -0.402344 L 1.269531 -0.121094 L 1.730469 0.03125 Z M 4.238281 -5.058594 L 3.9375 -5.234375 L 3.804688 -5.488281 L 3.757812 -6.699219 L 3.789062 -7.011719 L 3.789062 -7.621094 L 3.9375 -7.90625 L 4.25 -8.054688 L 5.800781 -8.011719 L 6.101562 -7.875 L 6.339844 -7.710938 L 6.535156 -7.519531 L 6.683594 -7.21875 L 6.726562 -6.953125 L 6.757812 -6.535156 L 6.726562 -6.128906 L 6.625 -5.863281 L 6.488281 -5.625 L 6.292969 -5.386719 L 6.054688 -5.207031 L 5.816406 -5.132812 L 5.355469 -5.070312 L 4.59375 -5.085938 Z M 4.238281 -5.058594 "/></g></g></g><g fill="#000000" fill-opacity="1"><g transform="translate(117.457028, 46.904446)"><g><path d="M 1.117188 -0.613281 L 1.269531 -0.148438 L 1.699219 0.0429688 L 2 0 L 2.476562 0.0429688 L 2.714844 0.015625 L 3.164062 0.015625 L 3.640625 -0.132812 L 3.773438 -0.566406 L 3.773438 -1.074219 L 3.804688 -1.34375 L 3.757812 -1.65625 L 3.789062 -2.609375 L 3.921875 -2.910156 L 4.207031 -3.074219 L 5.070312 -2.953125 L 5.371094 -2.699219 L 5.550781 -2.402344 L 5.667969 -2.132812 L 5.980469 -1.6875 L 6.265625 -1.148438 L 6.429688 -0.925781 L 6.546875 -0.625 L 6.710938 -0.371094 L 7.039062 -0.105469 L 7.546875 0.03125 L 8.726562 0.015625 L 9.007812 0.0429688 L 9.503906 0.03125 L 9.785156 -0.105469 L 9.875 -0.433594 L 9.710938 -0.761719 L 9.53125 -0.96875 L 9.414062 -1.253906 L 8.90625 -2.015625 L 8.769531 -2.28125 L 8.292969 -3.058594 L 8.113281 -3.28125 L 8.101562 -3.640625 L 8.234375 -3.96875 L 8.441406 -4.191406 L 8.652344 -4.371094 L 9.234375 -5.414062 L 9.425781 -6.28125 L 9.398438 -7.21875 L 9.351562 -7.519531 L 9.085938 -8.367188 L 8.964844 -8.621094 L 8.800781 -8.859375 L 7.949219 -9.753906 L 7.429688 -10.039062 L 6.863281 -10.234375 L 6.011719 -10.425781 L 5.535156 -10.441406 L 5.101562 -10.410156 L 4.207031 -10.410156 L 3.910156 -10.472656 L 3.609375 -10.472656 L 3.339844 -10.398438 L 3.042969 -10.398438 L 2.746094 -10.457031 L 2.417969 -10.472656 L 1.535156 -10.398438 L 1.269531 -10.246094 L 1.089844 -9.832031 L 1.105469 -6.414062 L 1.132812 -6.117188 L 1.089844 -5.519531 L 1.105469 -5.191406 L 1.105469 -4.894531 L 1.132812 -4.609375 L 1.105469 -4.324219 L 1.089844 -3.117188 L 1.117188 -2.820312 Z M 4.207031 -5.460938 L 3.910156 -5.625 L 3.789062 -5.863281 L 3.789062 -6.757812 L 3.757812 -7.011719 L 3.789062 -7.636719 L 3.921875 -7.921875 L 4.238281 -8.039062 L 4.535156 -8.023438 L 5.132812 -8.085938 L 5.550781 -7.996094 L 5.9375 -7.964844 L 6.21875 -7.890625 L 6.59375 -7.429688 L 6.683594 -7.191406 L 6.742188 -6.800781 L 6.699219 -6.355469 L 6.5625 -6.054688 L 6.398438 -5.832031 L 6.234375 -5.699219 L 5.964844 -5.578125 L 5.535156 -5.472656 L 5.25 -5.460938 L 4.535156 -5.488281 Z M 4.207031 -5.460938 "/></g></g></g><g fill="#000000" fill-opacity="1"><g transform="translate(127.807025, 46.904446)"><g><path d="M 5.980469 0.195312 L 7.308594 0.0585938 L 7.875 -0.121094 L 9.203125 -0.714844 L 10.246094 -1.714844 L 10.441406 -1.984375 L 11.023438 -3.011719 L 11.128906 -3.296875 L 11.171875 -3.59375 L 11.261719 -3.832031 L 11.320312 -4.160156 L 11.394531 -5.207031 L 11.320312 -6.234375 L 11.203125 -6.789062 L 11.082031 -7.101562 L 11.007812 -7.445312 L 10.738281 -7.9375 L 10.636719 -8.203125 L 10.441406 -8.457031 L 10.261719 -8.636719 L 10.070312 -8.90625 L 9.425781 -9.488281 L 8.667969 -9.964844 L 6.710938 -10.574219 L 6.011719 -10.589844 L 4.96875 -10.53125 L 4.667969 -10.472656 L 4.371094 -10.382812 L 4.101562 -10.261719 L 3.535156 -10.113281 L 2.773438 -9.636719 L 2.566406 -9.457031 L 2.089844 -9.128906 L 1.6875 -8.679688 L 1.179688 -7.9375 L 1.042969 -7.683594 L 0.761719 -6.863281 L 0.640625 -6.21875 L 0.582031 -4.488281 L 0.746094 -3.550781 L 0.96875 -3.042969 L 1.058594 -2.730469 L 1.207031 -2.460938 L 1.910156 -1.507812 L 2.328125 -1.105469 L 2.519531 -0.878906 L 3.535156 -0.34375 L 3.820312 -0.222656 L 5.085938 0.148438 Z M 5.5625 -2.429688 L 5.265625 -2.535156 L 4.996094 -2.566406 L 4.488281 -2.835938 L 4.027344 -3.238281 L 3.878906 -3.445312 L 3.683594 -3.65625 L 3.402344 -4.488281 L 3.328125 -5.234375 L 3.339844 -5.683594 L 3.445312 -6.234375 L 3.535156 -6.503906 L 3.714844 -6.710938 L 3.847656 -6.964844 L 4.042969 -7.203125 L 4.265625 -7.398438 L 4.699219 -7.695312 L 4.96875 -7.832031 L 5.28125 -7.90625 L 5.964844 -7.964844 L 6.683594 -7.921875 L 7.472656 -7.578125 L 7.9375 -7.234375 L 8.277344 -6.726562 L 8.398438 -6.457031 L 8.488281 -6.160156 L 8.59375 -5.890625 L 8.652344 -5.25 L 8.5625 -4.503906 L 8.429688 -3.894531 L 8.265625 -3.667969 L 8.128906 -3.445312 L 7.949219 -3.175781 L 7.488281 -2.820312 L 7.21875 -2.699219 L 6.980469 -2.566406 L 6.710938 -2.535156 L 6.429688 -2.460938 Z M 5.5625 -2.429688 "/></g></g></g><g fill="#000000" fill-opacity="1"><g transform="translate(139.767688, 46.904446)"><g><path d="M 1.089844 -0.433594 L 1.238281 -0.148438 L 1.566406 0 L 2.609375 0.0429688 L 3.355469 -0.015625 L 3.667969 -0.148438 L 3.847656 -0.597656 L 3.804688 -1.074219 L 3.832031 -1.359375 L 3.820312 -2.9375 L 3.953125 -3.238281 L 4.25 -3.371094 L 4.578125 -3.402344 L 4.894531 -3.339844 L 5.191406 -3.402344 L 5.488281 -3.371094 L 5.800781 -3.386719 L 6.101562 -3.355469 L 6.710938 -3.386719 L 7.027344 -3.535156 L 7.175781 -3.996094 L 7.160156 -5.324219 L 7.011719 -5.625 L 6.699219 -5.742188 L 5.964844 -5.773438 L 5.175781 -5.714844 L 4.59375 -5.789062 L 4.265625 -5.773438 L 3.96875 -5.890625 L 3.804688 -6.207031 L 3.804688 -6.625 L 3.832031 -6.90625 L 3.804688 -7.578125 L 3.953125 -7.875 L 4.238281 -8.070312 L 4.714844 -8.070312 L 5.144531 -8.039062 L 5.414062 -8.054688 L 5.714844 -8.039062 L 6.027344 -8.070312 L 7.160156 -8.039062 L 7.457031 -8.1875 L 7.609375 -8.488281 L 7.578125 -9.25 L 7.609375 -9.816406 L 7.429688 -10.261719 L 7.175781 -10.425781 L 6.28125 -10.410156 L 5.953125 -10.457031 L 5.371094 -10.425781 L 5.101562 -10.457031 L 4.652344 -10.425781 L 4.355469 -10.441406 L 3.894531 -10.410156 L 3.3125 -10.410156 L 3.042969 -10.441406 L 2.28125 -10.441406 L 1.96875 -10.410156 L 1.550781 -10.425781 L 1.222656 -10.261719 L 1.132812 -9.996094 L 1.089844 -9.382812 L 1.132812 -8.933594 L 1.074219 -7.265625 L 1.105469 -7.011719 L 1.117188 -6.699219 L 1.089844 -6.429688 L 1.117188 -6.085938 L 1.089844 -5.816406 L 1.074219 -5.535156 L 1.105469 -5.25 L 1.074219 -4.90625 Z M 1.089844 -0.433594 "/></g></g></g><g fill="#000000" fill-opacity="1"><g transform="translate(147.895566, 46.904446)"><g><path d="M 5.191406 0.0429688 L 7.324219 0.015625 L 7.636719 -0.121094 L 7.800781 -0.433594 L 7.800781 -1.9375 L 7.636719 -2.238281 L 7.324219 -2.371094 L 6.980469 -2.34375 L 6.699219 -2.386719 L 5.9375 -2.402344 L 5.445312 -2.34375 L 5.144531 -2.371094 L 4.816406 -2.355469 L 4.535156 -2.402344 L 4.207031 -2.371094 L 3.894531 -2.519531 L 3.773438 -2.789062 L 3.773438 -3.730469 L 3.910156 -4.042969 L 4.175781 -4.207031 L 4.625 -4.222656 L 5.101562 -4.175781 L 5.667969 -4.207031 L 6.28125 -4.191406 L 6.578125 -4.222656 L 6.921875 -4.207031 L 7.21875 -4.324219 L 7.324219 -4.625 L 7.367188 -5.964844 L 7.21875 -6.382812 L 6.875 -6.578125 L 5.996094 -6.578125 L 5.683594 -6.546875 L 5.058594 -6.59375 L 4.191406 -6.5625 L 3.878906 -6.699219 L 3.757812 -7.160156 L 3.757812 -7.621094 L 3.894531 -7.90625 L 4.222656 -8.023438 L 4.503906 -8.011719 L 4.789062 -8.070312 L 6.921875 -8.039062 L 7.203125 -8.054688 L 7.519531 -8.234375 L 7.667969 -8.503906 L 7.652344 -8.800781 L 7.667969 -9.097656 L 7.636719 -9.996094 L 7.503906 -10.277344 L 7.203125 -10.398438 L 6.890625 -10.398438 L 6.625 -10.457031 L 5.414062 -10.441406 L 5.085938 -10.410156 L 4.789062 -10.441406 L 4.535156 -10.425781 L 4.238281 -10.457031 L 3.011719 -10.425781 L 2.714844 -10.472656 L 2.429688 -10.410156 L 2.164062 -10.441406 L 1.863281 -10.410156 L 1.566406 -10.425781 L 1.253906 -10.308594 L 1.089844 -9.996094 L 1.117188 -9.425781 L 1.074219 -8.816406 L 1.117188 -8.488281 L 1.089844 -7.027344 L 1.132812 -6.710938 L 1.105469 -6.429688 L 1.089844 -5.207031 L 1.132812 -4.9375 L 1.117188 -2.519531 L 1.089844 -2.238281 L 1.132812 -1.9375 L 1.089844 -0.910156 L 1.117188 -0.582031 L 1.238281 -0.179688 L 1.6875 0.015625 L 2.757812 0.03125 L 3.085938 0 L 3.355469 0.015625 L 3.96875 -0.03125 L 4.25 0.03125 L 4.59375 0.0429688 L 4.894531 0.015625 Z M 5.191406 0.0429688 "/></g></g></g><g fill="#000000" fill-opacity="1"><g transform="translate(156.441025, 46.904446)"><g><path d="M 4.011719 0.132812 L 5.191406 0.164062 L 5.488281 0.132812 L 5.789062 0.0585938 L 6.085938 0.015625 L 6.382812 -0.105469 L 6.652344 -0.132812 L 6.9375 -0.269531 L 7.949219 -0.878906 L 8.382812 -1.328125 L 8.53125 -1.535156 L 8.695312 -1.863281 L 8.785156 -2.132812 L 8.875 -2.386719 L 8.964844 -3.132812 L 8.933594 -3.609375 L 8.710938 -4.476562 L 8.546875 -4.714844 L 8.160156 -5.160156 L 7.890625 -5.398438 L 7.652344 -5.519531 L 7.382812 -5.683594 L 6.21875 -6.042969 L 5.921875 -6.085938 L 5.625 -6.101562 L 5.308594 -6.160156 L 4.878906 -6.160156 L 4.085938 -6.324219 L 3.535156 -6.59375 L 3.3125 -6.800781 L 3.25 -7.25 L 3.328125 -7.652344 L 3.503906 -7.847656 L 3.730469 -8.011719 L 3.96875 -8.144531 L 4.238281 -8.203125 L 4.714844 -8.21875 L 5.191406 -8.160156 L 5.460938 -8.085938 L 5.726562 -7.90625 L 5.980469 -7.695312 L 6.207031 -7.398438 L 6.535156 -7.203125 L 7.234375 -7.265625 L 7.636719 -7.234375 L 7.9375 -7.234375 L 8.203125 -7.203125 L 8.488281 -7.414062 L 8.605469 -7.667969 L 8.546875 -7.949219 L 8.515625 -8.234375 L 8.101562 -9.007812 L 7.773438 -9.457031 L 6.789062 -10.144531 L 5.953125 -10.425781 L 5.371094 -10.546875 L 4.222656 -10.574219 L 3.894531 -10.488281 L 3.59375 -10.472656 L 3.328125 -10.425781 L 2.757812 -10.246094 L 2.253906 -9.949219 L 1.535156 -9.457031 L 1.015625 -8.757812 L 0.746094 -7.9375 L 0.699219 -7.203125 L 0.714844 -6.742188 L 0.820312 -6.144531 L 1.058594 -5.625 L 1.609375 -4.9375 L 2.625 -4.386719 L 3.164062 -4.207031 L 5.503906 -3.9375 L 6.042969 -3.683594 L 6.234375 -3.503906 L 6.324219 -3.132812 L 6.207031 -2.757812 L 6.011719 -2.535156 L 5.503906 -2.3125 L 5.042969 -2.28125 L 4.773438 -2.238281 L 4.011719 -2.3125 L 3.757812 -2.445312 L 3.503906 -2.609375 L 3.011719 -3.148438 L 2.714844 -3.265625 L 2.445312 -3.238281 L 2.164062 -3.28125 L 1.015625 -3.222656 L 0.746094 -3.101562 L 0.625 -2.789062 L 0.671875 -2.492188 L 0.730469 -2.191406 L 0.820312 -1.925781 L 1.105469 -1.371094 L 1.3125 -1.179688 L 1.507812 -0.953125 L 2.027344 -0.625 L 2.238281 -0.402344 L 2.519531 -0.269531 L 2.820312 -0.179688 L 3.402344 0.03125 Z M 4.011719 0.132812 "/></g></g></g><g fill="#000000" fill-opacity="1"><g transform="translate(165.955858, 46.904446)"><g><path d="M 4.011719 0.132812 L 5.191406 0.164062 L 5.488281 0.132812 L 5.789062 0.0585938 L 6.085938 0.015625 L 6.382812 -0.105469 L 6.652344 -0.132812 L 6.9375 -0.269531 L 7.949219 -0.878906 L 8.382812 -1.328125 L 8.53125 -1.535156 L 8.695312 -1.863281 L 8.785156 -2.132812 L 8.875 -2.386719 L 8.964844 -3.132812 L 8.933594 -3.609375 L 8.710938 -4.476562 L 8.546875 -4.714844 L 8.160156 -5.160156 L 7.890625 -5.398438 L 7.652344 -5.519531 L 7.382812 -5.683594 L 6.21875 -6.042969 L 5.921875 -6.085938 L 5.625 -6.101562 L 5.308594 -6.160156 L 4.878906 -6.160156 L 4.085938 -6.324219 L 3.535156 -6.59375 L 3.3125 -6.800781 L 3.25 -7.25 L 3.328125 -7.652344 L 3.503906 -7.847656 L 3.730469 -8.011719 L 3.96875 -8.144531 L 4.238281 -8.203125 L 4.714844 -8.21875 L 5.191406 -8.160156 L 5.460938 -8.085938 L 5.726562 -7.90625 L 5.980469 -7.695312 L 6.207031 -7.398438 L 6.535156 -7.203125 L 7.234375 -7.265625 L 7.636719 -7.234375 L 7.9375 -7.234375 L 8.203125 -7.203125 L 8.488281 -7.414062 L 8.605469 -7.667969 L 8.546875 -7.949219 L 8.515625 -8.234375 L 8.101562 -9.007812 L 7.773438 -9.457031 L 6.789062 -10.144531 L 5.953125 -10.425781 L 5.371094 -10.546875 L 4.222656 -10.574219 L 3.894531 -10.488281 L 3.59375 -10.472656 L 3.328125 -10.425781 L 2.757812 -10.246094 L 2.253906 -9.949219 L 1.535156 -9.457031 L 1.015625 -8.757812 L 0.746094 -7.9375 L 0.699219 -7.203125 L 0.714844 -6.742188 L 0.820312 -6.144531 L 1.058594 -5.625 L 1.609375 -4.9375 L 2.625 -4.386719 L 3.164062 -4.207031 L 5.503906 -3.9375 L 6.042969 -3.683594 L 6.234375 -3.503906 L 6.324219 -3.132812 L 6.207031 -2.757812 L 6.011719 -2.535156 L 5.503906 -2.3125 L 5.042969 -2.28125 L 4.773438 -2.238281 L 4.011719 -2.3125 L 3.757812 -2.445312 L 3.503906 -2.609375 L 3.011719 -3.148438 L 2.714844 -3.265625 L 2.445312 -3.238281 L 2.164062 -3.28125 L 1.015625 -3.222656 L 0.746094 -3.101562 L 0.625 -2.789062 L 0.671875 -2.492188 L 0.730469 -2.191406 L 0.820312 -1.925781 L 1.105469 -1.371094 L 1.3125 -1.179688 L 1.507812 -0.953125 L 2.027344 -0.625 L 2.238281 -0.402344 L 2.519531 -0.269531 L 2.820312 -0.179688 L 3.402344 0.03125 Z M 4.011719 0.132812 "/></g></g></g><g fill="#000000" fill-opacity="1"><g transform="translate(175.47069, 46.904446)"><g><path d="M 5.980469 0.195312 L 7.308594 0.0585938 L 7.875 -0.121094 L 9.203125 -0.714844 L 10.246094 -1.714844 L 10.441406 -1.984375 L 11.023438 -3.011719 L 11.128906 -3.296875 L 11.171875 -3.59375 L 11.261719 -3.832031 L 11.320312 -4.160156 L 11.394531 -5.207031 L 11.320312 -6.234375 L 11.203125 -6.789062 L 11.082031 -7.101562 L 11.007812 -7.445312 L 10.738281 -7.9375 L 10.636719 -8.203125 L 10.441406 -8.457031 L 10.261719 -8.636719 L 10.070312 -8.90625 L 9.425781 -9.488281 L 8.667969 -9.964844 L 6.710938 -10.574219 L 6.011719 -10.589844 L 4.96875 -10.53125 L 4.667969 -10.472656 L 4.371094 -10.382812 L 4.101562 -10.261719 L 3.535156 -10.113281 L 2.773438 -9.636719 L 2.566406 -9.457031 L 2.089844 -9.128906 L 1.6875 -8.679688 L 1.179688 -7.9375 L 1.042969 -7.683594 L 0.761719 -6.863281 L 0.640625 -6.21875 L 0.582031 -4.488281 L 0.746094 -3.550781 L 0.96875 -3.042969 L 1.058594 -2.730469 L 1.207031 -2.460938 L 1.910156 -1.507812 L 2.328125 -1.105469 L 2.519531 -0.878906 L 3.535156 -0.34375 L 3.820312 -0.222656 L 5.085938 0.148438 Z M 5.5625 -2.429688 L 5.265625 -2.535156 L 4.996094 -2.566406 L 4.488281 -2.835938 L 4.027344 -3.238281 L 3.878906 -3.445312 L 3.683594 -3.65625 L 3.402344 -4.488281 L 3.328125 -5.234375 L 3.339844 -5.683594 L 3.445312 -6.234375 L 3.535156 -6.503906 L 3.714844 -6.710938 L 3.847656 -6.964844 L 4.042969 -7.203125 L 4.265625 -7.398438 L 4.699219 -7.695312 L 4.96875 -7.832031 L 5.28125 -7.90625 L 5.964844 -7.964844 L 6.683594 -7.921875 L 7.472656 -7.578125 L 7.9375 -7.234375 L 8.277344 -6.726562 L 8.398438 -6.457031 L 8.488281 -6.160156 L 8.59375 -5.890625 L 8.652344 -5.25 L 8.5625 -4.503906 L 8.429688 -3.894531 L 8.265625 -3.667969 L 8.128906 -3.445312 L 7.949219 -3.175781 L 7.488281 -2.820312 L 7.21875 -2.699219 L 6.980469 -2.566406 L 6.710938 -2.535156 L 6.429688 -2.460938 Z M 5.5625 -2.429688 "/></g></g></g><g fill="#000000" fill-opacity="1"><g transform="translate(187.431353, 46.904446)"><g><path d="M 1.117188 -0.613281 L 1.269531 -0.148438 L 1.699219 0.0429688 L 2 0 L 2.476562 0.0429688 L 2.714844 0.015625 L 3.164062 0.015625 L 3.640625 -0.132812 L 3.773438 -0.566406 L 3.773438 -1.074219 L 3.804688 -1.34375 L 3.757812 -1.65625 L 3.789062 -2.609375 L 3.921875 -2.910156 L 4.207031 -3.074219 L 5.070312 -2.953125 L 5.371094 -2.699219 L 5.550781 -2.402344 L 5.667969 -2.132812 L 5.980469 -1.6875 L 6.265625 -1.148438 L 6.429688 -0.925781 L 6.546875 -0.625 L 6.710938 -0.371094 L 7.039062 -0.105469 L 7.546875 0.03125 L 8.726562 0.015625 L 9.007812 0.0429688 L 9.503906 0.03125 L 9.785156 -0.105469 L 9.875 -0.433594 L 9.710938 -0.761719 L 9.53125 -0.96875 L 9.414062 -1.253906 L 8.90625 -2.015625 L 8.769531 -2.28125 L 8.292969 -3.058594 L 8.113281 -3.28125 L 8.101562 -3.640625 L 8.234375 -3.96875 L 8.441406 -4.191406 L 8.652344 -4.371094 L 9.234375 -5.414062 L 9.425781 -6.28125 L 9.398438 -7.21875 L 9.351562 -7.519531 L 9.085938 -8.367188 L 8.964844 -8.621094 L 8.800781 -8.859375 L 7.949219 -9.753906 L 7.429688 -10.039062 L 6.863281 -10.234375 L 6.011719 -10.425781 L 5.535156 -10.441406 L 5.101562 -10.410156 L 4.207031 -10.410156 L 3.910156 -10.472656 L 3.609375 -10.472656 L 3.339844 -10.398438 L 3.042969 -10.398438 L 2.746094 -10.457031 L 2.417969 -10.472656 L 1.535156 -10.398438 L 1.269531 -10.246094 L 1.089844 -9.832031 L 1.105469 -6.414062 L 1.132812 -6.117188 L 1.089844 -5.519531 L 1.105469 -5.191406 L 1.105469 -4.894531 L 1.132812 -4.609375 L 1.105469 -4.324219 L 1.089844 -3.117188 L 1.117188 -2.820312 Z M 4.207031 -5.460938 L 3.910156 -5.625 L 3.789062 -5.863281 L 3.789062 -6.757812 L 3.757812 -7.011719 L 3.789062 -7.636719 L 3.921875 -7.921875 L 4.238281 -8.039062 L 4.535156 -8.023438 L 5.132812 -8.085938 L 5.550781 -7.996094 L 5.9375 -7.964844 L 6.21875 -7.890625 L 6.59375 -7.429688 L 6.683594 -7.191406 L 6.742188 -6.800781 L 6.699219 -6.355469 L 6.5625 -6.054688 L 6.398438 -5.832031 L 6.234375 -5.699219 L 5.964844 -5.578125 L 5.535156 -5.472656 L 5.25 -5.460938 L 4.535156 -5.488281 Z M 4.207031 -5.460938 "/></g></g></g><g clip-path="url(#0a79c34a9b)"><path fill="#a02321" d="M 58.371094 63.433594 C 58.164062 63.023438 57.953125 62.625 57.734375 62.242188 C 57.628906 61.613281 39.238281 61.742188 39.136719 61.960938 C 38.933594 62.414062 38.738281 62.878906 38.550781 63.355469 C 37.890625 65.023438 37.316406 66.839844 36.816406 68.753906 C 37.648438 69.0625 38.5 69.335938 39.359375 69.585938 C 41.929688 70.34375 44.613281 70.84375 47.375 71.070312 C 48.457031 71.15625 49.550781 71.214844 50.660156 71.214844 C 54.164062 71.214844 59.324219 65.339844 58.371094 63.433594 Z M 58.371094 63.433594 " fill-opacity="1" fill-rule="nonzero"/></g><g clip-path="url(#c4ad63bab2)"><path fill="#8f1e0a" d="M 38.007812 19.554688 C 37.308594 20.082031 31.429688 0.976562 55.574219 5.015625 C 55.574219 5.015625 56.117188 2.359375 57.855469 1.15625 C 59.203125 0.222656 63.539062 0.0351562 65.800781 3.222656 C 69.71875 8.734375 64.535156 12.757812 61.648438 12.066406 C 61.648438 12.066406 64.710938 22.882812 59.425781 25.101562 C 59.425781 25.101562 54.699219 7.078125 38.007812 19.554688 Z M 38.007812 19.554688 " fill-opacity="1" fill-rule="nonzero"/></g><g clip-path="url(#2b62357e28)"><path fill="#7f180a" d="M 65.800781 3.222656 C 63.539062 0.0351562 59.203125 0.222656 57.855469 1.15625 C 56.117188 2.359375 55.574219 5.015625 55.574219 5.015625 C 55.15625 4.945312 58.308594 6.527344 59.691406 8.328125 C 60.863281 9.855469 61.648438 12.070312 61.648438 12.070312 C 64.535156 12.757812 69.71875 8.738281 65.800781 3.226562 Z M 65.800781 3.222656 " fill-opacity="1" fill-rule="nonzero"/></g><path fill="#fcc7ad" d="M 9.925781 28.867188 C 9.921875 28.894531 9.851562 28.945312 9.757812 29.007812 C 9.441406 29.210938 9.253906 29.5625 9.242188 29.933594 C 9.222656 30.726562 9.480469 31.265625 11.246094 33.082031 C 13.027344 34.90625 14.78125 34.652344 17.171875 36.738281 C 17.1875 36.75 17.199219 36.761719 17.210938 36.777344 C 17.75 37.332031 18.59375 36.488281 18.058594 35.933594 C 17.710938 35.574219 17.265625 35.195312 16.789062 34.800781 C 17.132812 34.949219 17.480469 35.050781 17.828125 35.097656 C 17.867188 35.136719 17.902344 35.179688 17.941406 35.21875 C 18.265625 35.582031 18.71875 35.378906 18.882812 35.039062 C 19.117188 34.980469 19.34375 34.886719 19.554688 34.75 C 20.746094 33.964844 20.496094 32.679688 19.671875 31.957031 C 18.953125 29.863281 17.867188 27.175781 16.703125 25.300781 C 15.609375 23.535156 12.9375 22.554688 11.261719 21.402344 C 8.925781 19.800781 8.699219 21.605469 10.4375 23.417969 C 10.65625 23.644531 10.917969 23.628906 11.125 23.503906 C 11.441406 23.898438 11.769531 24.28125 12.101562 24.660156 C 12.371094 25.042969 12.660156 25.402344 12.875 25.699219 C 12.496094 25.78125 12.183594 26.320312 12.511719 26.738281 C 12.714844 27 12.914062 27.265625 13.109375 27.535156 C 12.953125 27.40625 12.75 27.34375 12.570312 27.390625 C 12.320312 27.167969 12.054688 26.96875 11.777344 26.8125 C 11.464844 26.640625 10.808594 26.859375 10.761719 27.839844 C 10.484375 27.859375 9.777344 28.179688 9.925781 28.867188 Z M 9.925781 28.867188 " fill-opacity="1" fill-rule="nonzero"/><path fill="#ea8872" d="M 12.136719 30.054688 C 12.710938 29.96875 13.214844 29.535156 13.667969 29.207031 C 14.125 28.871094 14.574219 28.621094 15.097656 28.398438 C 15.511719 28.222656 15.964844 27.992188 16.277344 27.65625 C 16.367188 27.558594 16.492188 27.414062 16.449219 27.269531 C 16.398438 27.085938 16.148438 26.980469 15.992188 26.910156 C 15.285156 26.59375 14.488281 26.578125 13.730469 26.578125 C 13.316406 26.578125 12.90625 26.636719 12.496094 26.714844 C 12.503906 26.726562 12.503906 26.734375 12.511719 26.742188 C 12.714844 27.003906 12.914062 27.269531 13.109375 27.539062 C 12.953125 27.40625 12.75 27.347656 12.570312 27.394531 C 12.332031 27.183594 12.085938 27 11.828125 26.847656 C 11.6875 26.878906 11.542969 26.910156 11.40625 26.933594 C 11.394531 27.113281 11.429688 27.300781 11.425781 27.496094 C 11.425781 27.757812 11.367188 28.011719 11.308594 28.261719 C 11.207031 28.667969 11.027344 29.132812 11.105469 29.554688 C 11.1875 30 11.753906 30.113281 12.140625 30.054688 Z M 12.136719 30.054688 " fill-opacity="1" fill-rule="nonzero"/><path fill="#7f4c2e" d="M 0.175781 9.1875 C 0.355469 9.015625 0.648438 9.042969 0.796875 9.242188 L 16.253906 29.890625 C 16.4375 30.140625 16.410156 30.484375 16.191406 30.703125 C 15.917969 30.976562 15.464844 30.9375 15.242188 30.621094 L 0.117188 9.734375 C 0 9.566406 0.0195312 9.332031 0.171875 9.191406 Z M 0.175781 9.1875 " fill-opacity="1" fill-rule="nonzero"/><path fill="#fcc7ad" d="M 11.351562 28.746094 C 11.628906 28.167969 11.703125 27.609375 11.648438 26.976562 C 11.625 26.699219 11.851562 26.484375 12.089844 26.398438 C 12.835938 26.132812 13.585938 25.867188 14.332031 25.597656 C 14.378906 25.628906 16.492188 25.609375 16.800781 25.984375 C 17.078125 26.316406 17.882812 27.796875 16.40625 28.175781 C 16.132812 28.199219 15.847656 28.179688 15.550781 28.179688 C 15.042969 28.179688 14.535156 28.179688 14.027344 28.183594 C 13.957031 28.257812 13.882812 28.332031 13.816406 28.402344 C 13.289062 28.941406 12.738281 29.367188 12.027344 29.621094 C 11.484375 29.816406 11.144531 29.171875 11.351562 28.746094 Z M 11.351562 28.746094 " fill-opacity="1" fill-rule="nonzero"/><path fill="#fcc7ad" d="M 43.972656 30.984375 C 44.035156 30.5625 44.246094 30.273438 44.53125 30.105469 C 44.980469 29.625 45.660156 29.578125 46.207031 29.863281 C 46.808594 29.828125 47.398438 30.125 47.605469 30.777344 C 47.800781 30.660156 48.019531 30.59375 48.242188 30.574219 C 48.246094 30.410156 48.246094 30.25 48.25 30.089844 C 48.289062 28.433594 50.71875 28.058594 51.171875 29.695312 C 51.214844 29.867188 51.742188 29.4375 51.789062 29.609375 C 52.359375 29.46875 51.039062 31.753906 51.691406 34.359375 C 51.890625 35.152344 57.480469 36.554688 57.480469 36.554688 C 57.429688 37.445312 54.128906 43.054688 53.484375 43.117188 C 53.484375 43.199219 44.296875 45.613281 44.300781 45.695312 C 42.507812 45.726562 39.375 39.492188 37.882812 38.929688 C 37.59375 38.824219 37.535156 38.441406 37.769531 38.242188 C 39.351562 36.890625 44.113281 34.898438 44.109375 34.550781 C 43.976562 34.355469 43.953125 31.117188 43.972656 30.984375 Z M 43.972656 30.984375 " fill-opacity="1" fill-rule="nonzero"/><path fill="#ee7854" d="M 51.007812 34.457031 C 51.234375 34.421875 51.464844 34.390625 51.691406 34.355469 C 51.046875 31.753906 52.363281 29.472656 51.789062 29.609375 C 51.742188 29.4375 51.21875 29.867188 51.171875 29.699219 C 50.71875 28.058594 48.289062 28.4375 48.253906 30.089844 C 48.25 30.25 48.246094 30.414062 48.242188 30.574219 C 48.019531 30.597656 47.800781 30.660156 47.609375 30.78125 C 47.402344 30.125 46.8125 29.828125 46.210938 29.867188 C 45.660156 29.578125 44.980469 29.625 44.53125 30.105469 C 44.25 30.273438 44.035156 30.5625 43.976562 30.984375 C 43.964844 31.054688 43.964844 31.96875 43.988281 32.855469 C 45.667969 34.617188 48.761719 34.769531 51.007812 34.457031 Z M 51.007812 34.457031 " fill-opacity="1" fill-rule="nonzero"/><path fill="#fbc6af" d="M 38.390625 15.570312 C 38.21875 16.804688 38.152344 18.035156 38.144531 19.15625 C 38.128906 21.796875 37.570312 23.140625 37.609375 24.523438 C 37.800781 31.539062 43.457031 33.546875 46.730469 33.582031 C 56.933594 33.691406 58.847656 21.800781 59.066406 15.765625 C 57.171875 14.351562 56.078125 10.851562 53.824219 9.773438 C 48.503906 7.222656 41.699219 8.78125 38.390625 15.570312 Z M 38.390625 15.570312 " fill-opacity="1" fill-rule="nonzero"/><path fill="#ea8872" d="M 45.253906 25.25 C 45.214844 25.25 45.171875 25.234375 45.144531 25.203125 C 44.761719 24.789062 44.621094 23.863281 45.101562 22.902344 C 45.136719 22.824219 45.230469 22.796875 45.300781 22.832031 C 45.378906 22.871094 45.40625 22.960938 45.371094 23.035156 C 44.957031 23.867188 45.058594 24.667969 45.363281 24.996094 C 45.421875 25.058594 45.417969 25.15625 45.355469 25.210938 C 45.328125 25.238281 45.289062 25.253906 45.25 25.25 Z M 45.253906 25.25 " fill-opacity="1" fill-rule="nonzero"/><path fill="#081b1c" d="M 40.199219 21.632812 C 40.203125 22.363281 40.558594 22.957031 40.992188 22.953125 C 41.429688 22.953125 41.777344 22.355469 41.773438 21.625 C 41.773438 20.894531 41.417969 20.304688 40.980469 20.304688 C 40.546875 20.308594 40.195312 20.902344 40.199219 21.632812 Z M 40.199219 21.632812 " fill-opacity="1" fill-rule="nonzero"/><path fill="#081b1c" d="M 42.511719 18.976562 C 42.511719 18.976562 41.089844 16.664062 39.6875 18.90625 C 39.6875 18.90625 40.929688 17.824219 42.511719 18.976562 Z M 42.511719 18.976562 " fill-opacity="1" fill-rule="nonzero"/><path fill="#081b1c" d="M 51.234375 21.585938 C 51.238281 22.316406 50.886719 22.910156 50.453125 22.914062 C 50.015625 22.914062 49.660156 22.324219 49.65625 21.59375 C 49.65625 20.863281 50.003906 20.265625 50.441406 20.265625 C 50.875 20.265625 51.230469 20.855469 51.234375 21.585938 Z M 51.234375 21.585938 " fill-opacity="1" fill-rule="nonzero"/><path fill="#081b1c" d="M 48.898438 18.949219 C 48.898438 18.949219 50.296875 16.625 51.71875 18.855469 C 51.71875 18.855469 50.46875 17.785156 48.898438 18.949219 Z M 48.898438 18.949219 " fill-opacity="1" fill-rule="nonzero"/><path fill="#e77238" d="M 28.589844 39.839844 C 28.679688 39.890625 28.769531 39.9375 28.859375 39.980469 C 28.769531 39.9375 28.675781 39.890625 28.589844 39.839844 Z M 28.589844 39.839844 " fill-opacity="1" fill-rule="nonzero"/><path fill="#e77238" d="M 23.992188 35.515625 C 24.394531 35.941406 24.792969 36.363281 25.183594 36.765625 C 24.792969 36.363281 24.394531 35.941406 23.992188 35.515625 Z M 23.992188 35.515625 " fill-opacity="1" fill-rule="nonzero"/><path fill="#e77238" d="M 29.558594 52.457031 C 28.125 52.285156 26.476562 51.691406 24.625 50.398438 C 26.480469 51.695312 28.128906 52.289062 29.558594 52.457031 Z M 29.558594 52.457031 " fill-opacity="1" fill-rule="nonzero"/><path fill="#e77238" d="M 28.058594 39.503906 C 28.1875 39.601562 28.320312 39.691406 28.453125 39.769531 C 28.320312 39.691406 28.1875 39.601562 28.058594 39.503906 Z M 28.058594 39.503906 " fill-opacity="1" fill-rule="nonzero"/><path fill="#e77238" d="M 19.878906 31.175781 C 20.441406 31.726562 21.28125 32.617188 22.226562 33.628906 C 21.28125 32.621094 20.441406 31.726562 19.878906 31.175781 C 19.839844 31.132812 19.75 31.128906 19.625 31.15625 C 19.75 31.128906 19.839844 31.132812 19.878906 31.175781 Z M 19.878906 31.175781 " fill-opacity="1" fill-rule="nonzero"/><path fill="#e77238" d="M 26.300781 37.902344 C 26.65625 38.253906 26.984375 38.574219 27.28125 38.847656 C 26.984375 38.574219 26.652344 38.253906 26.300781 37.902344 Z M 26.300781 37.902344 " fill-opacity="1" fill-rule="nonzero"/><path fill="#faa11b" d="M 28.453125 39.769531 C 28.5 39.796875 28.542969 39.816406 28.589844 39.839844 C 28.542969 39.816406 28.5 39.792969 28.453125 39.769531 Z M 28.453125 39.769531 " fill-opacity="1" fill-rule="nonzero"/><path fill="#faa11b" d="M 32.015625 40.179688 C 32.035156 40.175781 32.050781 40.171875 32.066406 40.167969 C 32.050781 40.171875 32.035156 40.175781 32.015625 40.179688 Z M 32.015625 40.179688 " fill-opacity="1" fill-rule="nonzero"/><path fill="#faa11b" d="M 28.863281 39.980469 C 28.914062 40.003906 28.96875 40.023438 29.023438 40.046875 C 28.96875 40.027344 28.914062 40.007812 28.863281 39.980469 Z M 28.863281 39.980469 " fill-opacity="1" fill-rule="nonzero"/><path fill="#faa11b" d="M 31.476562 40.285156 C 31.527344 40.277344 31.574219 40.273438 31.621094 40.265625 C 31.574219 40.273438 31.527344 40.277344 31.476562 40.285156 Z M 31.476562 40.285156 " fill-opacity="1" fill-rule="nonzero"/><path fill="#faa11b" d="M 29.273438 40.140625 C 29.332031 40.160156 29.390625 40.175781 29.445312 40.191406 C 29.390625 40.175781 29.332031 40.160156 29.273438 40.140625 Z M 29.273438 40.140625 " fill-opacity="1" fill-rule="nonzero"/><path fill="#faa11b" d="M 16.648438 33.148438 C 16.902344 32.914062 17.160156 32.695312 17.417969 32.492188 C 17.160156 32.695312 16.902344 32.914062 16.648438 33.148438 Z M 16.648438 33.148438 " fill-opacity="1" fill-rule="nonzero"/><path fill="#faa11b" d="M 30.125 40.324219 C 30.183594 40.332031 30.246094 40.335938 30.304688 40.339844 C 30.246094 40.335938 30.183594 40.332031 30.125 40.324219 Z M 30.125 40.324219 " fill-opacity="1" fill-rule="nonzero"/><path fill="#faa11b" d="M 17.804688 32.195312 C 18.054688 32.011719 18.300781 31.839844 18.53125 31.699219 C 18.300781 31.839844 18.054688 32.011719 17.804688 32.195312 Z M 17.804688 32.195312 " fill-opacity="1" fill-rule="nonzero"/><path fill="#faa11b" d="M 41.128906 35.597656 C 41.082031 35.613281 41.03125 35.632812 40.984375 35.648438 C 41.035156 35.632812 41.082031 35.613281 41.132812 35.597656 Z M 41.128906 35.597656 " fill-opacity="1" fill-rule="nonzero"/><path fill="#faa11b" d="M 35.835938 38.480469 C 35.847656 38.476562 35.859375 38.46875 35.871094 38.464844 C 35.859375 38.46875 35.847656 38.476562 35.835938 38.480469 Z M 35.835938 38.480469 " fill-opacity="1" fill-rule="nonzero"/><path fill="#e77238" d="M 54.238281 35.566406 C 54.179688 38.980469 54.171875 38.972656 54.226562 35.5625 C 54.175781 35.558594 54.125 35.550781 54.074219 35.550781 C 52.882812 35.105469 50.878906 40 46.007812 40 C 42.441406 40 42.433594 35.605469 42.3125 35.558594 C 40.042969 34.664062 33.371094 40.871094 30.199219 40.507812 C 28.382812 40.300781 26.65625 38.257812 26.300781 37.90625 C 25.949219 37.554688 25.570312 37.171875 25.183594 36.765625 C 24.792969 36.363281 24.394531 35.941406 23.992188 35.515625 C 23.390625 34.878906 22.789062 34.234375 22.226562 33.628906 C 21.28125 32.621094 20.441406 31.726562 19.878906 31.175781 C 19.839844 31.132812 19.75 31.128906 19.625 31.160156 C 19.378906 31.21875 18.988281 31.410156 18.53125 31.699219 C 18.300781 31.84375 18.054688 32.011719 17.804688 32.199219 C 17.675781 32.292969 17.546875 32.386719 17.421875 32.492188 C 17.164062 32.695312 16.902344 32.917969 16.648438 33.148438 C 16.015625 33.730469 15.429688 34.382812 15.03125 35.035156 C 14.738281 35.511719 19.363281 46.71875 24.625 50.402344 C 26.476562 51.695312 28.128906 52.289062 29.5625 52.460938 C 33.546875 52.9375 35.824219 50.148438 36.085938 50.207031 C 36.113281 50.203125 36.125 50.21875 36.113281 50.269531 C 35.707031 54.691406 37.921875 57.390625 38.445312 63.277344 C 38.445312 63.296875 38.480469 63.324219 38.550781 63.355469 C 38.6875 63.425781 38.980469 63.484375 39.359375 63.644531 C 44.453125 65.777344 54.621094 64.53125 58.328125 63.558594 C 58.339844 63.554688 58.355469 63.511719 58.371094 63.4375 C 58.8125 61.476562 60.824219 36.050781 54.238281 35.570312 Z M 39.144531 61.941406 C 39.144531 61.941406 39.140625 61.953125 39.136719 61.960938 C 38.765625 59.390625 38.773438 59.382812 39.144531 61.941406 Z M 39.144531 61.941406 " fill-opacity="1" fill-rule="nonzero"/><g clip-path="url(#3da9bd3241)"><path fill="#faa11b" d="M 68.90625 66.804688 C 67.742188 61.402344 66.023438 53.699219 64.824219 49.566406 C 63.324219 44.382812 61.171875 35.773438 54.238281 35.558594 L 54.238281 35.566406 C 54.179688 38.976562 51.976562 41.832031 50.828125 45.046875 C 47.140625 55.382812 47.535156 69.269531 47.371094 71.066406 C 48.453125 71.15625 49.546875 71.214844 50.65625 71.214844 C 54.164062 71.214844 62.257812 70.78125 68.90625 66.804688 Z M 68.90625 66.804688 " fill-opacity="1" fill-rule="nonzero"/></g><path fill="#faa11b" d="M 39.335938 44.417969 C 40.304688 41.613281 41.253906 35.464844 41.070312 35.515625 C 41.019531 35.53125 39.269531 35.898438 33.878906 39.230469 C 32.527344 40.066406 31.074219 40.445312 30.125 40.328125 C 28.632812 40.140625 26.21875 38.207031 23.992188 35.515625 C 23.433594 34.839844 22.789062 34.234375 22.222656 33.628906 C 21.28125 32.621094 20.441406 31.726562 19.878906 31.175781 C 19.835938 31.132812 19.746094 31.128906 19.625 31.160156 C 19.375 31.21875 18.988281 31.410156 18.527344 31.699219 C 18.300781 31.84375 18.054688 32.011719 17.800781 32.199219 C 17.675781 32.292969 17.546875 32.386719 17.417969 32.492188 C 17.160156 32.695312 16.902344 32.917969 16.648438 33.148438 C 16.015625 33.730469 15.425781 34.382812 15.03125 35.035156 C 14.738281 35.511719 19.359375 46.71875 24.625 50.402344 C 26.476562 51.695312 28.125 52.289062 29.5625 52.460938 C 33.546875 52.9375 35.824219 50.148438 36.085938 50.207031 C 36.113281 50.203125 36.125 50.21875 36.113281 50.269531 C 35.234375 54.433594 36.972656 60.902344 35.445312 68.214844 C 35.898438 68.402344 36.355469 68.585938 36.816406 68.753906 C 37.648438 69.0625 38.5 69.335938 39.359375 69.589844 C 39.460938 67.640625 39.539062 65.644531 39.496094 65.097656 C 39.460938 64.613281 39.414062 64.128906 39.359375 63.644531 C 39.292969 63.082031 39.21875 62.523438 39.136719 61.960938 C 38.765625 59.390625 38.269531 56.828125 38.0625 54.257812 C 37.929688 52.566406 37.84375 50.84375 38.097656 49.15625 C 38.339844 47.535156 38.800781 45.964844 39.335938 44.417969 Z M 39.335938 44.417969 " fill-opacity="1" fill-rule="nonzero"/><path fill="#052523" d="M 44.125 27.113281 L 48.121094 26.566406 C 48.121094 26.566406 48.609375 28.753906 46.53125 29.210938 C 44.675781 29.621094 44.125 27.113281 44.125 27.113281 Z M 44.125 27.113281 " fill-opacity="1" fill-rule="nonzero"/><path fill="#f15f60" d="M 45.789062 29.21875 C 46.011719 29.269531 46.257812 29.273438 46.53125 29.210938 C 47.640625 28.96875 48.019531 28.226562 48.128906 27.59375 C 46.972656 27.605469 46.15625 28.011719 45.789062 29.21875 Z M 45.789062 29.21875 " fill-opacity="1" fill-rule="nonzero"/><path fill="#c16c29" d="M 36.269531 50.230469 C 36.640625 48.476562 37.253906 46.820312 38.125 45.246094 C 38.230469 45.054688 37.9375 44.882812 37.832031 45.074219 C 36.949219 46.671875 36.320312 48.355469 35.945312 50.140625 C 35.898438 50.351562 36.226562 50.441406 36.269531 50.230469 Z M 36.269531 50.230469 " fill-opacity="1" fill-rule="nonzero"/><path fill="#8f1e0a" d="M 53.621094 10.761719 C 53.621094 10.761719 48.410156 16.875 37.375 17.792969 C 37.375 17.792969 33.695312 9.234375 47.492188 7.703125 C 61.285156 6.175781 60.671875 21.460938 60.671875 21.460938 C 60.671875 21.460938 52.089844 24.515625 53.625 10.761719 Z M 53.621094 10.761719 " fill-opacity="1" fill-rule="nonzero"/><path fill="#fcc7ad" d="M 57.128906 21.464844 C 57.128906 21.464844 60.667969 18.839844 60.453125 22.234375 C 60.191406 26.3125 56.613281 26.566406 56.613281 26.566406 Z M 57.128906 21.464844 " fill-opacity="1" fill-rule="nonzero"/><path fill="#ee7854" d="M 58.078125 21.125 C 57.542969 21.898438 57.277344 22.785156 57.285156 23.722656 C 57.289062 23.941406 57.628906 23.941406 57.625 23.722656 C 57.617188 22.835938 57.867188 22.023438 58.371094 21.292969 C 58.492188 21.113281 58.199219 20.945312 58.078125 21.125 Z M 58.078125 21.125 " fill-opacity="1" fill-rule="nonzero"/><path fill="#ee7854" d="M 57.847656 22.578125 L 58.261719 23.429688 C 58.355469 23.628906 58.648438 23.453125 58.554688 23.261719 L 58.140625 22.40625 C 58.042969 22.210938 57.753906 22.382812 57.847656 22.578125 Z M 57.847656 22.578125 " fill-opacity="1" fill-rule="nonzero"/><path fill="#c16c29" d="M 61.609375 69.699219 C 61.515625 69.363281 59.320312 61.457031 59.207031 59.296875 L 59.605469 59.277344 C 59.71875 61.390625 61.972656 69.507812 61.996094 69.589844 Z M 61.609375 69.699219 " fill-opacity="1" fill-rule="nonzero"/><path fill="#77150b" d="M 42.296875 13.875 C 41.792969 13.875 41.277344 13.832031 40.757812 13.726562 L 40.808594 13.46875 C 43.1875 13.9375 45.46875 13.15625 46.960938 12.417969 C 48.882812 11.472656 50.578125 10.105469 52.21875 8.785156 L 52.386719 8.992188 C 50.734375 10.320312 49.027344 11.695312 47.078125 12.65625 C 45.875 13.253906 44.167969 13.875 42.296875 13.875 Z M 42.296875 13.875 " fill-opacity="1" fill-rule="nonzero"/><path fill="#77150b" d="M 42.46875 11.105469 L 42.34375 10.871094 C 44.617188 9.667969 46.976562 8.566406 49.363281 7.59375 L 49.464844 7.839844 C 47.089844 8.808594 44.734375 9.90625 42.46875 11.105469 Z M 42.46875 11.105469 " fill-opacity="1" fill-rule="nonzero"/><path fill="#77150b" d="M 57.0625 18.234375 C 56.132812 17.550781 55.542969 16.34375 55.449219 14.933594 C 55.367188 13.683594 55.644531 12.449219 55.914062 11.261719 L 56.171875 11.320312 C 55.90625 12.492188 55.632812 13.703125 55.714844 14.914062 C 55.804688 16.25 56.355469 17.382812 57.222656 18.023438 Z M 57.0625 18.234375 " fill-opacity="1" fill-rule="nonzero"/><path fill="#77150b" d="M 60.296875 19.347656 C 60.011719 16.476562 59.464844 13.621094 58.671875 10.847656 L 58.929688 10.777344 C 59.722656 13.5625 60.273438 16.4375 60.5625 19.320312 Z M 60.296875 19.347656 " fill-opacity="1" fill-rule="nonzero"/></svg>