<svg xmlns="http://www.w3.org/2000/svg" xmlns:xlink="http://www.w3.org/1999/xlink" width="200" zoomAndPan="magnify" viewBox="0 0 150 202.499994" height="270" preserveAspectRatio="xMidYMid meet" version="1.0"><defs><g/><clipPath id="0329890d86"><path d="M 4.480469 6.925781 L 149.8125 6.925781 L 149.8125 199.949219 L 4.480469 199.949219 Z M 4.480469 6.925781 " clip-rule="nonzero"/></clipPath><clipPath id="d90abf9f92"><path d="M 37.398438 6.925781 L 116.898438 6.925781 C 125.628906 6.925781 134 10.394531 140.171875 16.566406 C 146.347656 22.742188 149.816406 31.113281 149.816406 39.84375 L 149.816406 166.59375 C 149.816406 175.324219 146.347656 183.695312 140.171875 189.871094 C 134 196.042969 125.628906 199.511719 116.898438 199.511719 L 37.398438 199.511719 C 28.667969 199.511719 20.296875 196.042969 14.121094 189.871094 C 7.949219 183.695312 4.480469 175.324219 4.480469 166.59375 L 4.480469 39.84375 C 4.480469 31.113281 7.949219 22.742188 14.121094 16.566406 C 20.296875 10.394531 28.667969 6.925781 37.398438 6.925781 Z M 37.398438 6.925781 " clip-rule="nonzero"/></clipPath><clipPath id="59942db59b"><path d="M 0.183594 2.488281 L 145.519531 2.488281 L 145.519531 195 L 0.183594 195 Z M 0.183594 2.488281 " clip-rule="nonzero"/></clipPath><clipPath id="2be2a17757"><path d="M 33.101562 2.488281 L 112.601562 2.488281 C 121.332031 2.488281 129.703125 5.957031 135.878906 12.132812 C 142.050781 18.304688 145.519531 26.675781 145.519531 35.40625 L 145.519531 162.15625 C 145.519531 170.886719 142.050781 179.261719 135.878906 185.433594 C 129.703125 191.605469 121.332031 195.074219 112.601562 195.074219 L 33.101562 195.074219 C 24.371094 195.074219 16 191.605469 9.828125 185.433594 C 3.652344 179.261719 0.183594 170.886719 0.183594 162.15625 L 0.183594 35.40625 C 0.183594 26.675781 3.652344 18.304688 9.828125 12.132812 C 16 5.957031 24.371094 2.488281 33.101562 2.488281 Z M 33.101562 2.488281 " clip-rule="nonzero"/></clipPath><clipPath id="a0b7d11273"><path d="M 0.183594 2.492188 L 145.328125 2.492188 L 145.328125 194.765625 L 0.183594 194.765625 Z M 0.183594 2.492188 " clip-rule="nonzero"/></clipPath><clipPath id="badc686c37"><path d="M 33.101562 2.492188 L 112.597656 2.492188 C 121.328125 2.492188 129.699219 5.957031 135.871094 12.132812 C 142.046875 18.304688 145.511719 26.675781 145.511719 35.40625 L 145.511719 162.148438 C 145.511719 170.878906 142.046875 179.253906 135.871094 185.425781 C 129.699219 191.597656 121.328125 195.066406 112.597656 195.066406 L 33.101562 195.066406 C 24.371094 195.066406 16 191.597656 9.824219 185.425781 C 3.652344 179.253906 0.183594 170.878906 0.183594 162.148438 L 0.183594 35.40625 C 0.183594 26.675781 3.652344 18.304688 9.824219 12.132812 C 16 5.957031 24.371094 2.492188 33.101562 2.492188 Z M 33.101562 2.492188 " clip-rule="nonzero"/></clipPath><clipPath id="8b02a3b9cf"><path d="M 57 32.796875 L 125 32.796875 L 125 100 L 57 100 Z M 57 32.796875 " clip-rule="nonzero"/></clipPath><clipPath id="d22babdf60"><path d="M 57 32.796875 L 125 32.796875 L 125 99 L 57 99 Z M 57 32.796875 " clip-rule="nonzero"/></clipPath><clipPath id="56c67df555"><path d="M 103 129 L 132.96875 129 L 132.96875 148.761719 L 103 148.761719 Z M 103 129 " clip-rule="nonzero"/></clipPath></defs><g clip-path="url(#0329890d86)"><g clip-path="url(#d90abf9f92)"><path fill="#d9d9d9" d="M 4.480469 6.925781 L 149.816406 6.925781 L 149.816406 199.382812 L 4.480469 199.382812 Z M 4.480469 6.925781 " fill-opacity="1" fill-rule="nonzero"/></g></g><g clip-path="url(#59942db59b)"><g clip-path="url(#2be2a17757)"><path fill="#dfe3e8" d="M 0.183594 2.488281 L 145.519531 2.488281 L 145.519531 194.945312 L 0.183594 194.945312 Z M 0.183594 2.488281 " fill-opacity="1" fill-rule="nonzero"/></g></g><g clip-path="url(#a0b7d11273)"><g clip-path="url(#badc686c37)"><path stroke-linecap="butt" transform="matrix(0.748153, 0, 0, 0.748153, 0.184731, 2.490475)" fill="none" stroke-linejoin="miter" d="M 43.997482 0.00228864 L 150.254004 0.00228864 C 161.923373 0.00228864 173.112392 4.633488 181.361879 12.888196 C 189.616586 21.137682 194.247786 32.326701 194.247786 43.99607 L 194.247786 213.402935 C 194.247786 225.072304 189.616586 236.266544 181.361879 244.516031 C 173.112392 252.765517 161.923373 257.401938 150.254004 257.401938 L 43.997482 257.401938 C 32.328114 257.401938 21.139095 252.765517 12.884387 244.516031 C 4.6349 236.266544 -0.00152045 225.072304 -0.00152045 213.402935 L -0.00152045 43.99607 C -0.00152045 32.326701 4.6349 21.137682 12.884387 12.888196 C 21.139095 4.633488 32.328114 0.00228864 43.997482 0.00228864 Z M 43.997482 0.00228864 " stroke="#d9d9d9" stroke-width="2" stroke-opacity="1" stroke-miterlimit="4"/></g></g><path fill="#5ec08f" d="M 49.59375 55.65625 C 49.59375 63.882812 43.066406 70.421875 34.859375 70.421875 C 26.648438 70.421875 20.121094 63.882812 20.121094 55.65625 C 20.121094 47.433594 26.648438 40.894531 34.859375 40.894531 C 43.066406 40.894531 49.59375 47.433594 49.59375 55.65625 Z M 49.59375 55.65625 " fill-opacity="1" fill-rule="nonzero"/><path fill="#bbffd6" d="M 49.382812 53.339844 C 46.222656 53.339844 43.066406 52.074219 40.753906 49.753906 C 38.4375 47.433594 37.171875 44.269531 37.171875 41.105469 C 35.699219 40.894531 34.4375 40.894531 32.964844 41.105469 C 32.964844 45.324219 34.648438 49.542969 37.804688 52.707031 C 40.960938 55.867188 45.175781 57.554688 49.382812 57.554688 C 49.59375 56.292969 49.59375 54.816406 49.382812 53.339844 Z M 31.910156 58.609375 C 28.753906 55.445312 24.542969 53.761719 20.335938 53.761719 C 20.121094 55.238281 20.121094 56.5 20.335938 57.976562 C 23.492188 57.976562 26.441406 59.242188 28.964844 61.773438 C 31.492188 64.304688 32.542969 67.257812 32.753906 70.417969 C 34.226562 70.632812 35.488281 70.632812 36.960938 70.417969 C 36.753906 65.992188 35.070312 61.777344 31.910156 58.609375 Z M 31.910156 58.609375 " fill-opacity="1" fill-rule="nonzero"/><g clip-path="url(#8b02a3b9cf)"><path fill="#e0dddc" d="M 124.613281 66.351562 C 124.613281 84.808594 109.542969 99.90625 91.121094 99.90625 C 72.703125 99.90625 57.632812 84.808594 57.632812 66.351562 C 57.632812 47.898438 72.703125 32.796875 91.121094 32.796875 C 109.542969 32.796875 124.613281 47.898438 124.613281 66.351562 Z M 124.613281 66.351562 " fill-opacity="1" fill-rule="nonzero"/></g><path fill="#bfbfbf" d="M 65.5 59.003906 L 66.558594 55.820312 L 79.746094 60.226562 L 78.6875 63.410156 Z M 65.5 59.003906 " fill-opacity="1" fill-rule="nonzero"/><path fill="#bfbfbf" d="M 89.449219 39.507812 L 92.796875 39.507812 L 92.796875 52.929688 L 89.449219 52.929688 Z M 89.449219 39.507812 " fill-opacity="1" fill-rule="nonzero"/><path fill="#bfbfbf" d="M 73.738281 86.9375 L 82.28125 74.097656 L 85.066406 75.957031 L 76.523438 88.796875 Z M 73.738281 86.9375 " fill-opacity="1" fill-rule="nonzero"/><path fill="#bfbfbf" d="M 97.179688 75.960938 L 99.964844 74.097656 L 108.507812 86.941406 L 105.722656 88.800781 Z M 97.179688 75.960938 " fill-opacity="1" fill-rule="nonzero"/><path fill="#bfbfbf" d="M 97.445312 61.914062 L 115.714844 55.820312 L 116.773438 59.003906 L 98.503906 65.097656 Z M 97.445312 61.914062 " fill-opacity="1" fill-rule="nonzero"/><g clip-path="url(#d22babdf60)"><path fill="#546e7a" d="M 77.726562 61.320312 L 91.121094 51.253906 L 104.519531 61.320312 L 99.496094 76.417969 L 82.75 76.417969 Z M 101.171875 34.308594 C 97.988281 33.300781 94.640625 32.796875 91.121094 32.796875 C 87.605469 32.796875 84.257812 33.300781 81.074219 34.308594 L 78.398438 39.175781 L 91.121094 42.863281 L 102.84375 39.507812 Z M 121.265625 69.707031 L 124.613281 66.351562 C 124.613281 57.964844 121.597656 50.414062 116.574219 44.542969 L 112.890625 45.046875 L 112.890625 58.636719 Z M 104.855469 84.472656 L 97.652344 95.878906 L 101.503906 98.230469 C 109.042969 95.710938 115.40625 90.679688 119.425781 84.136719 L 118.085938 79.269531 Z M 69.523438 58.636719 L 69.355469 45.042969 L 65.671875 44.542969 C 60.648438 50.414062 57.632812 57.964844 57.632812 66.351562 L 60.980469 69.707031 Z M 64.164062 79.4375 L 62.824219 84.304688 C 67.011719 90.851562 73.207031 95.882812 80.742188 98.398438 L 84.425781 95.714844 L 77.5625 84.640625 Z M 64.164062 79.4375 " fill-opacity="1" fill-rule="nonzero"/></g><path fill="#d6d1d0" d="M 19.816406 97.554688 L 21.976562 92.699219 L 83.238281 120.042969 L 81.078125 124.898438 Z M 26.558594 88.925781 L 28.71875 84.070312 L 85.039062 109 L 82.878906 113.855469 Z M 76.5 128.671875 L 74.339844 133.527344 L 17.921875 108.347656 L 20.082031 103.492188 Z M 76.5 128.671875 " fill-opacity="1" fill-rule="nonzero"/><path fill="#d6d1d0" d="M 33.902344 127.769531 L 53.480469 83.726562 L 58.328125 85.890625 L 38.746094 129.929688 Z M 33.902344 127.769531 " fill-opacity="1" fill-rule="nonzero"/><path fill="#d6d1d0" d="M 23.183594 125.085938 L 42.765625 81.042969 L 47.609375 83.207031 L 28.03125 127.246094 Z M 23.183594 125.085938 " fill-opacity="1" fill-rule="nonzero"/><path fill="#d6d1d0" d="M 43.59375 132.09375 L 63.171875 88.050781 L 68.019531 90.214844 L 48.4375 134.257812 Z M 43.59375 132.09375 " fill-opacity="1" fill-rule="nonzero"/><path fill="#d6d1d0" d="M 77.960938 94.445312 L 58.128906 138.582031 L 53.28125 136.421875 L 72.863281 92.378906 Z M 77.960938 94.445312 " fill-opacity="1" fill-rule="nonzero"/><path fill="#c93d18" d="M 108.003906 131.511719 L 105.84375 136.367188 C 91.652344 130.035156 87.605469 120.953125 83.496094 112.46875 C 79.289062 103.734375 75.238281 94.652344 60.375 86.566406 L 62.882812 81.863281 C 79.222656 90.824219 84.003906 101.058594 88.308594 110.046875 C 92.511719 118.777344 95.890625 126.105469 108.003906 131.511719 Z M 108.003906 131.511719 " fill-opacity="1" fill-rule="nonzero"/><path fill="#c93d18" d="M 108.003906 131.511719 L 105.84375 136.367188 C 93.382812 130.804688 85.691406 133.191406 76.992188 135.957031 C 67.449219 138.761719 56.40625 142.144531 39.078125 135.867188 L 40.890625 130.855469 C 56.832031 136.519531 66.375 133.714844 75.574219 130.753906 C 84.617188 128.136719 94.066406 125.082031 108.003906 131.511719 Z M 108.003906 131.511719 " fill-opacity="1" fill-rule="nonzero"/><path fill="#ff754c" d="M 22.136719 109.601562 C 20.886719 106.34375 19.71875 101.042969 22.125 96.09375 C 24.285156 91.234375 29.214844 87.617188 35.753906 85.96875 C 43.144531 84.277344 51.585938 85.34375 59.546875 88.898438 C 68.890625 93.070312 76.15625 100.050781 79.128906 107.820312 C 80.378906 111.078125 81.546875 116.378906 79.140625 121.332031 C 76.980469 126.1875 72.050781 129.804688 65.511719 131.457031 C 58.125 133.144531 49.679688 132.078125 41.71875 128.523438 C 32.472656 124.605469 25.109375 117.371094 22.136719 109.601562 M 14.628906 112.484375 C 18.277344 122.007812 26.808594 130.804688 38.328125 136.152344 C 58.054688 144.957031 79.625 139.832031 86.253906 124.917969 C 89.03125 118.679688 88.726562 111.890625 86.234375 105.378906 C 82.585938 95.851562 74.054688 87.058594 62.535156 81.710938 C 42.808594 72.90625 21.238281 78.03125 14.609375 92.945312 C 11.988281 98.839844 12.136719 105.96875 14.628906 112.484375 Z M 14.628906 112.484375 " fill-opacity="1" fill-rule="nonzero"/><g clip-path="url(#56c67df555)"><path fill="#37474f" d="M 130.699219 138.3125 L 132.617188 143.324219 L 131.074219 146.792969 L 126.074219 148.714844 L 105.308594 139.445312 L 103.867188 135.6875 L 106.179688 130.488281 L 109.929688 129.046875 Z M 130.699219 138.3125 " fill-opacity="1" fill-rule="nonzero"/></g><path fill="#546e7a" d="M 108.421875 140.839844 L 113.265625 143.003906 L 117.890625 132.601562 L 113.042969 130.4375 Z M 127.679688 137.175781 L 122.832031 135.011719 L 118.207031 145.414062 L 123.054688 147.578125 Z M 127.679688 137.175781 " fill-opacity="1" fill-rule="nonzero"/><g fill="#000000" fill-opacity="1"><g transform="translate(28.771439, 175.988068)"><g><path d="M 5.972656 0.0507812 L 8.429688 0.015625 L 8.789062 -0.136719 L 8.980469 -0.496094 L 8.980469 -2.230469 L 8.789062 -2.574219 L 8.429688 -2.730469 L 8.035156 -2.695312 L 7.707031 -2.746094 L 6.832031 -2.765625 L 6.265625 -2.695312 L 5.921875 -2.730469 L 5.546875 -2.710938 L 5.21875 -2.765625 L 4.839844 -2.730469 L 4.480469 -2.902344 L 4.34375 -3.210938 L 4.34375 -4.292969 L 4.496094 -4.652344 L 4.808594 -4.839844 L 5.320312 -4.859375 L 5.871094 -4.808594 L 6.523438 -4.839844 L 7.226562 -4.824219 L 7.570312 -4.859375 L 7.964844 -4.839844 L 8.308594 -4.980469 L 8.429688 -5.320312 L 8.480469 -6.867188 L 8.308594 -7.347656 L 7.914062 -7.570312 L 6.902344 -7.570312 L 6.539062 -7.535156 L 5.820312 -7.589844 L 4.824219 -7.554688 L 4.464844 -7.707031 L 4.328125 -8.242188 L 4.328125 -8.773438 L 4.480469 -9.097656 L 4.859375 -9.234375 L 5.183594 -9.21875 L 5.511719 -9.289062 L 7.964844 -9.253906 L 8.292969 -9.269531 L 8.652344 -9.476562 L 8.824219 -9.785156 L 8.808594 -10.128906 L 8.824219 -10.472656 L 8.789062 -11.503906 L 8.636719 -11.828125 L 8.292969 -11.964844 L 7.929688 -11.964844 L 7.621094 -12.035156 L 6.230469 -12.015625 L 5.855469 -11.984375 L 5.511719 -12.015625 L 5.21875 -12 L 4.875 -12.035156 L 3.46875 -12 L 3.125 -12.050781 L 2.796875 -11.984375 L 2.488281 -12.015625 L 2.144531 -11.984375 L 1.800781 -12 L 1.441406 -11.863281 L 1.253906 -11.503906 L 1.289062 -10.851562 L 1.234375 -10.144531 L 1.289062 -9.769531 L 1.253906 -8.085938 L 1.304688 -7.726562 L 1.269531 -7.398438 L 1.253906 -5.992188 L 1.304688 -5.683594 L 1.289062 -2.902344 L 1.253906 -2.574219 L 1.304688 -2.230469 L 1.253906 -1.046875 L 1.289062 -0.667969 L 1.425781 -0.207031 L 1.941406 0.015625 L 3.175781 0.0351562 L 3.554688 0 L 3.863281 0.015625 L 4.566406 -0.0351562 L 4.894531 0.0351562 L 5.289062 0.0507812 L 5.632812 0.015625 Z M 5.972656 0.0507812 "/></g></g></g><g fill="#000000" fill-opacity="1"><g transform="translate(38.607188, 175.988068)"><g><path d="M 4.617188 0.15625 L 5.972656 0.1875 L 6.316406 0.15625 L 6.660156 0.0703125 L 7.003906 0.015625 L 7.347656 -0.121094 L 7.65625 -0.15625 L 7.984375 -0.308594 L 9.152344 -1.011719 L 9.648438 -1.527344 L 9.820312 -1.769531 L 10.007812 -2.144531 L 10.113281 -2.453125 L 10.214844 -2.746094 L 10.316406 -3.605469 L 10.285156 -4.15625 L 10.027344 -5.148438 L 9.835938 -5.425781 L 9.390625 -5.941406 L 9.082031 -6.214844 L 8.808594 -6.351562 L 8.5 -6.539062 L 7.160156 -6.953125 L 6.816406 -7.003906 L 6.472656 -7.023438 L 6.113281 -7.089844 L 5.613281 -7.089844 L 4.703125 -7.277344 L 4.070312 -7.589844 L 3.8125 -7.828125 L 3.742188 -8.34375 L 3.828125 -8.808594 L 4.035156 -9.03125 L 4.292969 -9.21875 L 4.566406 -9.375 L 4.875 -9.441406 L 5.425781 -9.460938 L 5.972656 -9.390625 L 6.285156 -9.304688 L 6.59375 -9.097656 L 6.882812 -8.859375 L 7.140625 -8.515625 L 7.519531 -8.292969 L 8.328125 -8.359375 L 8.789062 -8.328125 L 9.132812 -8.328125 L 9.441406 -8.292969 L 9.769531 -8.53125 L 9.90625 -8.824219 L 9.835938 -9.152344 L 9.804688 -9.476562 L 9.320312 -10.371094 L 8.945312 -10.882812 L 7.8125 -11.675781 L 6.851562 -12 L 6.179688 -12.136719 L 4.859375 -12.171875 L 4.480469 -12.070312 L 4.136719 -12.050781 L 3.828125 -12 L 3.175781 -11.792969 L 2.59375 -11.449219 L 1.769531 -10.882812 L 1.167969 -10.078125 L 0.859375 -9.132812 L 0.808594 -8.292969 L 0.824219 -7.761719 L 0.945312 -7.074219 L 1.21875 -6.472656 L 1.855469 -5.683594 L 3.023438 -5.046875 L 3.640625 -4.839844 L 6.335938 -4.53125 L 6.953125 -4.242188 L 7.175781 -4.035156 L 7.277344 -3.605469 L 7.140625 -3.175781 L 6.917969 -2.917969 L 6.335938 -2.660156 L 5.800781 -2.625 L 5.492188 -2.574219 L 4.617188 -2.660156 L 4.328125 -2.816406 L 4.035156 -3.003906 L 3.46875 -3.621094 L 3.125 -3.757812 L 2.816406 -3.726562 L 2.488281 -3.777344 L 1.167969 -3.707031 L 0.859375 -3.570312 L 0.722656 -3.210938 L 0.773438 -2.867188 L 0.839844 -2.523438 L 0.945312 -2.214844 L 1.269531 -1.578125 L 1.511719 -1.355469 L 1.734375 -1.097656 L 2.335938 -0.722656 L 2.574219 -0.464844 L 2.902344 -0.308594 L 3.246094 -0.207031 L 3.914062 0.0351562 Z M 4.617188 0.15625 "/></g></g></g><g fill="#000000" fill-opacity="1"><g transform="translate(49.558686, 175.988068)"><g><path d="M 2.300781 0.0507812 L 3.140625 0.015625 L 3.449219 0.0351562 L 3.84375 0 L 4.207031 -0.136719 L 4.359375 -0.496094 L 4.34375 -0.839844 L 4.359375 -1.21875 L 4.328125 -1.855469 L 4.359375 -2.179688 L 4.34375 -2.574219 L 4.496094 -2.882812 L 4.894531 -3.074219 L 5.269531 -3.105469 L 5.632812 -3.039062 L 7.398438 -3.175781 L 9.03125 -3.828125 L 9.289062 -4.035156 L 9.527344 -4.308594 L 9.75 -4.53125 L 9.972656 -4.789062 L 10.335938 -5.339844 L 10.625 -6.007812 L 10.679688 -6.386719 L 10.78125 -6.660156 L 10.816406 -8.070312 L 10.746094 -8.359375 L 10.695312 -8.738281 L 10.488281 -9.375 L 10.164062 -9.957031 L 9.75 -10.523438 L 8.980469 -11.195312 L 8.414062 -11.570312 L 7.726562 -11.777344 L 7.433594 -11.898438 L 7.089844 -11.898438 L 6.746094 -12.015625 L 6.230469 -12.035156 L 5.683594 -12.015625 L 5.304688 -11.964844 L 4.257812 -11.984375 L 3.914062 -12.035156 L 2.851562 -11.964844 L 2.472656 -11.984375 L 2.164062 -12.035156 L 1.800781 -11.964844 L 1.441406 -11.777344 L 1.289062 -11.503906 L 1.304688 -9.425781 L 1.234375 -8.738281 L 1.269531 -8.414062 L 1.253906 -3.964844 L 1.289062 -3.640625 L 1.269531 -0.464844 L 1.460938 -0.136719 L 1.992188 0.0351562 Z M 4.875 -5.820312 L 4.53125 -6.027344 L 4.378906 -6.316406 L 4.328125 -7.707031 L 4.359375 -8.070312 L 4.359375 -8.773438 L 4.53125 -9.097656 L 4.894531 -9.269531 L 6.679688 -9.21875 L 7.023438 -9.066406 L 7.296875 -8.875 L 7.519531 -8.652344 L 7.691406 -8.308594 L 7.742188 -8 L 7.777344 -7.519531 L 7.742188 -7.054688 L 7.621094 -6.746094 L 7.46875 -6.472656 L 7.246094 -6.199219 L 6.96875 -5.992188 L 6.695312 -5.90625 L 6.164062 -5.835938 L 5.289062 -5.855469 Z M 4.875 -5.820312 "/></g></g></g><g fill="#000000" fill-opacity="1"><g transform="translate(60.853493, 175.988068)"><g><path d="M 6.882812 0.222656 L 8.414062 0.0703125 L 9.066406 -0.136719 L 10.59375 -0.824219 L 11.792969 -1.972656 L 12.015625 -2.285156 L 12.6875 -3.46875 L 12.808594 -3.792969 L 12.859375 -4.136719 L 12.960938 -4.414062 L 13.03125 -4.789062 L 13.117188 -5.992188 L 13.03125 -7.175781 L 12.894531 -7.8125 L 12.753906 -8.171875 L 12.667969 -8.566406 L 12.359375 -9.132812 L 12.242188 -9.441406 L 12.015625 -9.734375 L 11.8125 -9.941406 L 11.589844 -10.25 L 10.851562 -10.917969 L 9.972656 -11.46875 L 7.726562 -12.171875 L 6.917969 -12.1875 L 5.71875 -12.121094 L 5.375 -12.050781 L 5.03125 -11.949219 L 4.722656 -11.8125 L 4.070312 -11.640625 L 3.191406 -11.089844 L 2.953125 -10.882812 L 2.402344 -10.507812 L 1.941406 -9.992188 L 1.355469 -9.132812 L 1.203125 -8.839844 L 0.875 -7.898438 L 0.738281 -7.160156 L 0.667969 -5.167969 L 0.859375 -4.085938 L 1.117188 -3.503906 L 1.21875 -3.140625 L 1.390625 -2.832031 L 2.199219 -1.734375 L 2.679688 -1.269531 L 2.902344 -1.011719 L 4.070312 -0.394531 L 4.394531 -0.257812 L 5.855469 0.171875 Z M 6.402344 -2.796875 L 6.058594 -2.917969 L 5.75 -2.953125 L 5.167969 -3.261719 L 4.636719 -3.726562 L 4.464844 -3.964844 L 4.242188 -4.207031 L 3.914062 -5.167969 L 3.828125 -6.027344 L 3.84375 -6.539062 L 3.964844 -7.175781 L 4.070312 -7.484375 L 4.273438 -7.726562 L 4.429688 -8.015625 L 4.652344 -8.292969 L 4.910156 -8.515625 L 5.40625 -8.859375 L 5.71875 -9.011719 L 6.078125 -9.097656 L 6.867188 -9.167969 L 7.691406 -9.117188 L 8.601562 -8.722656 L 9.132812 -8.328125 L 9.527344 -7.742188 L 9.664062 -7.433594 L 9.769531 -7.089844 L 9.890625 -6.78125 L 9.957031 -6.042969 L 9.855469 -5.183594 L 9.699219 -4.480469 L 9.511719 -4.222656 L 9.355469 -3.964844 L 9.152344 -3.65625 L 8.617188 -3.246094 L 8.308594 -3.105469 L 8.035156 -2.953125 L 7.726562 -2.917969 L 7.398438 -2.832031 Z M 6.402344 -2.796875 "/></g></g></g><g fill="#000000" fill-opacity="1"><g transform="translate(74.620113, 175.988068)"><g><path d="M 1.289062 -0.703125 L 1.460938 -0.171875 L 1.957031 0.0507812 L 2.300781 0 L 2.851562 0.0507812 L 3.125 0.015625 L 3.640625 0.015625 L 4.1875 -0.15625 L 4.34375 -0.652344 L 4.34375 -1.234375 L 4.378906 -1.546875 L 4.328125 -1.90625 L 4.359375 -3.003906 L 4.515625 -3.347656 L 4.839844 -3.535156 L 5.835938 -3.398438 L 6.179688 -3.105469 L 6.386719 -2.765625 L 6.523438 -2.453125 L 6.882812 -1.941406 L 7.210938 -1.320312 L 7.398438 -1.0625 L 7.535156 -0.722656 L 7.726562 -0.429688 L 8.101562 -0.121094 L 8.6875 0.0351562 L 10.042969 0.015625 L 10.371094 0.0507812 L 10.9375 0.0351562 L 11.261719 -0.121094 L 11.363281 -0.496094 L 11.175781 -0.875 L 10.96875 -1.117188 L 10.832031 -1.441406 L 10.25 -2.316406 L 10.09375 -2.625 L 9.546875 -3.519531 L 9.339844 -3.777344 L 9.320312 -4.1875 L 9.476562 -4.566406 L 9.71875 -4.824219 L 9.957031 -5.03125 L 10.625 -6.230469 L 10.851562 -7.226562 L 10.816406 -8.308594 L 10.765625 -8.652344 L 10.457031 -9.632812 L 10.316406 -9.921875 L 10.128906 -10.199219 L 9.152344 -11.226562 L 8.550781 -11.554688 L 7.898438 -11.777344 L 6.917969 -12 L 6.371094 -12.015625 L 5.871094 -11.984375 L 4.839844 -11.984375 L 4.496094 -12.050781 L 4.15625 -12.050781 L 3.84375 -11.964844 L 3.503906 -11.964844 L 3.160156 -12.035156 L 2.78125 -12.050781 L 1.769531 -11.964844 L 1.460938 -11.792969 L 1.253906 -11.3125 L 1.269531 -7.382812 L 1.304688 -7.039062 L 1.253906 -6.351562 L 1.269531 -5.972656 L 1.269531 -5.632812 L 1.304688 -5.304688 L 1.269531 -4.980469 L 1.253906 -3.589844 L 1.289062 -3.246094 Z M 4.839844 -6.285156 L 4.496094 -6.472656 L 4.359375 -6.746094 L 4.359375 -7.777344 L 4.328125 -8.070312 L 4.359375 -8.789062 L 4.515625 -9.117188 L 4.875 -9.253906 L 5.21875 -9.234375 L 5.90625 -9.304688 L 6.386719 -9.203125 L 6.832031 -9.167969 L 7.160156 -9.082031 L 7.589844 -8.550781 L 7.691406 -8.273438 L 7.761719 -7.828125 L 7.707031 -7.3125 L 7.554688 -6.96875 L 7.363281 -6.710938 L 7.175781 -6.558594 L 6.867188 -6.421875 L 6.371094 -6.300781 L 6.042969 -6.285156 L 5.21875 -6.316406 Z M 4.839844 -6.285156 "/></g></g></g><g fill="#000000" fill-opacity="1"><g transform="translate(86.532876, 175.988068)"><g><path d="M 4.480469 0.0351562 L 5.632812 0 L 6.128906 -0.171875 L 6.300781 -0.652344 L 6.351562 -1.546875 L 6.300781 -2.199219 L 6.335938 -2.558594 L 6.316406 -3.246094 L 6.351562 -3.554688 L 6.300781 -3.929688 L 6.335938 -6.695312 L 6.285156 -7.054688 L 6.335938 -8.550781 L 6.472656 -9.066406 L 6.796875 -9.269531 L 7.46875 -9.304688 L 8.101562 -9.21875 L 8.464844 -9.269531 L 8.773438 -9.253906 L 9.066406 -9.441406 L 9.269531 -9.820312 L 9.289062 -11.449219 L 9.097656 -11.792969 L 8.773438 -12.015625 L 7.707031 -12.015625 L 7.382812 -12.050781 L 7.023438 -12 L 6.695312 -12.035156 L 5.304688 -11.964844 L 4.960938 -12.035156 L 4.636719 -12.050781 L 4.273438 -12 L 3.898438 -12.035156 L 3.589844 -11.964844 L 2.574219 -12.015625 L 2.042969 -11.964844 L 0.839844 -12.035156 L 0.515625 -11.863281 L 0.308594 -11.46875 L 0.328125 -11.125 L 0.292969 -10.265625 L 0.328125 -9.734375 L 0.480469 -9.425781 L 0.789062 -9.253906 L 1.132812 -9.289062 L 2.765625 -9.253906 L 3.089844 -9.082031 L 3.277344 -8.738281 L 3.246094 -8.1875 L 3.277344 -7.707031 L 3.261719 -7.332031 L 3.277344 -6.988281 L 3.246094 -6.507812 L 3.296875 -3.949219 L 3.261719 -3.605469 L 3.246094 -2.214844 L 3.277344 -1.855469 L 3.261719 -0.859375 L 3.226562 -0.53125 L 3.449219 -0.15625 L 3.949219 0.015625 Z M 4.480469 0.0351562 "/></g></g></g><g fill="#000000" fill-opacity="1"><g transform="translate(96.128311, 175.988068)"><g><path d="M 5.972656 0.0507812 L 8.429688 0.015625 L 8.789062 -0.136719 L 8.980469 -0.496094 L 8.980469 -2.230469 L 8.789062 -2.574219 L 8.429688 -2.730469 L 8.035156 -2.695312 L 7.707031 -2.746094 L 6.832031 -2.765625 L 6.265625 -2.695312 L 5.921875 -2.730469 L 5.546875 -2.710938 L 5.21875 -2.765625 L 4.839844 -2.730469 L 4.480469 -2.902344 L 4.34375 -3.210938 L 4.34375 -4.292969 L 4.496094 -4.652344 L 4.808594 -4.839844 L 5.320312 -4.859375 L 5.871094 -4.808594 L 6.523438 -4.839844 L 7.226562 -4.824219 L 7.570312 -4.859375 L 7.964844 -4.839844 L 8.308594 -4.980469 L 8.429688 -5.320312 L 8.480469 -6.867188 L 8.308594 -7.347656 L 7.914062 -7.570312 L 6.902344 -7.570312 L 6.539062 -7.535156 L 5.820312 -7.589844 L 4.824219 -7.554688 L 4.464844 -7.707031 L 4.328125 -8.242188 L 4.328125 -8.773438 L 4.480469 -9.097656 L 4.859375 -9.234375 L 5.183594 -9.21875 L 5.511719 -9.289062 L 7.964844 -9.253906 L 8.292969 -9.269531 L 8.652344 -9.476562 L 8.824219 -9.785156 L 8.808594 -10.128906 L 8.824219 -10.472656 L 8.789062 -11.503906 L 8.636719 -11.828125 L 8.292969 -11.964844 L 7.929688 -11.964844 L 7.621094 -12.035156 L 6.230469 -12.015625 L 5.855469 -11.984375 L 5.511719 -12.015625 L 5.21875 -12 L 4.875 -12.035156 L 3.46875 -12 L 3.125 -12.050781 L 2.796875 -11.984375 L 2.488281 -12.015625 L 2.144531 -11.984375 L 1.800781 -12 L 1.441406 -11.863281 L 1.253906 -11.503906 L 1.289062 -10.851562 L 1.234375 -10.144531 L 1.289062 -9.769531 L 1.253906 -8.085938 L 1.304688 -7.726562 L 1.269531 -7.398438 L 1.253906 -5.992188 L 1.304688 -5.683594 L 1.289062 -2.902344 L 1.253906 -2.574219 L 1.304688 -2.230469 L 1.253906 -1.046875 L 1.289062 -0.667969 L 1.425781 -0.207031 L 1.941406 0.015625 L 3.175781 0.0351562 L 3.554688 0 L 3.863281 0.015625 L 4.566406 -0.0351562 L 4.894531 0.0351562 L 5.289062 0.0507812 L 5.632812 0.015625 Z M 5.972656 0.0507812 "/></g></g></g><g fill="#000000" fill-opacity="1"><g transform="translate(105.96406, 175.988068)"><g><path d="M 4.617188 0.15625 L 5.972656 0.1875 L 6.316406 0.15625 L 6.660156 0.0703125 L 7.003906 0.015625 L 7.347656 -0.121094 L 7.65625 -0.15625 L 7.984375 -0.308594 L 9.152344 -1.011719 L 9.648438 -1.527344 L 9.820312 -1.769531 L 10.007812 -2.144531 L 10.113281 -2.453125 L 10.214844 -2.746094 L 10.316406 -3.605469 L 10.285156 -4.15625 L 10.027344 -5.148438 L 9.835938 -5.425781 L 9.390625 -5.941406 L 9.082031 -6.214844 L 8.808594 -6.351562 L 8.5 -6.539062 L 7.160156 -6.953125 L 6.816406 -7.003906 L 6.472656 -7.023438 L 6.113281 -7.089844 L 5.613281 -7.089844 L 4.703125 -7.277344 L 4.070312 -7.589844 L 3.8125 -7.828125 L 3.742188 -8.34375 L 3.828125 -8.808594 L 4.035156 -9.03125 L 4.292969 -9.21875 L 4.566406 -9.375 L 4.875 -9.441406 L 5.425781 -9.460938 L 5.972656 -9.390625 L 6.285156 -9.304688 L 6.59375 -9.097656 L 6.882812 -8.859375 L 7.140625 -8.515625 L 7.519531 -8.292969 L 8.328125 -8.359375 L 8.789062 -8.328125 L 9.132812 -8.328125 L 9.441406 -8.292969 L 9.769531 -8.53125 L 9.90625 -8.824219 L 9.835938 -9.152344 L 9.804688 -9.476562 L 9.320312 -10.371094 L 8.945312 -10.882812 L 7.8125 -11.675781 L 6.851562 -12 L 6.179688 -12.136719 L 4.859375 -12.171875 L 4.480469 -12.070312 L 4.136719 -12.050781 L 3.828125 -12 L 3.175781 -11.792969 L 2.59375 -11.449219 L 1.769531 -10.882812 L 1.167969 -10.078125 L 0.859375 -9.132812 L 0.808594 -8.292969 L 0.824219 -7.761719 L 0.945312 -7.074219 L 1.21875 -6.472656 L 1.855469 -5.683594 L 3.023438 -5.046875 L 3.640625 -4.839844 L 6.335938 -4.53125 L 6.953125 -4.242188 L 7.175781 -4.035156 L 7.277344 -3.605469 L 7.140625 -3.175781 L 6.917969 -2.917969 L 6.335938 -2.660156 L 5.800781 -2.625 L 5.492188 -2.574219 L 4.617188 -2.660156 L 4.328125 -2.816406 L 4.035156 -3.003906 L 3.46875 -3.621094 L 3.125 -3.757812 L 2.816406 -3.726562 L 2.488281 -3.777344 L 1.167969 -3.707031 L 0.859375 -3.570312 L 0.722656 -3.210938 L 0.773438 -2.867188 L 0.839844 -2.523438 L 0.945312 -2.214844 L 1.269531 -1.578125 L 1.511719 -1.355469 L 1.734375 -1.097656 L 2.335938 -0.722656 L 2.574219 -0.464844 L 2.902344 -0.308594 L 3.246094 -0.207031 L 3.914062 0.0351562 Z M 4.617188 0.15625 "/></g></g></g></svg>