<svg xmlns="http://www.w3.org/2000/svg" xmlns:xlink="http://www.w3.org/1999/xlink" width="300" zoomAndPan="magnify" viewBox="0 0 224.87999 74.999997" height="100" preserveAspectRatio="xMidYMid meet" version="1.0"><defs><g/><clipPath id="bac261012f"><path d="M 0 8.375 L 224.761719 8.375 L 224.761719 66.625 L 0 66.625 Z M 0 8.375 " clip-rule="nonzero"/></clipPath><clipPath id="b580baf496"><path d="M 29.125 8.375 L 195.757812 8.375 C 211.839844 8.375 224.878906 21.414062 224.878906 37.5 C 224.878906 53.585938 211.839844 66.625 195.757812 66.625 L 29.125 66.625 C 13.039062 66.625 0 53.585938 0 37.5 C 0 21.414062 13.039062 8.375 29.125 8.375 Z M 29.125 8.375 " clip-rule="nonzero"/></clipPath><clipPath id="c3ba7f7019"><path d="M 0.00390625 8.375 L 224.761719 8.375 L 224.761719 66.84375 L 0.00390625 66.84375 Z M 0.00390625 8.375 " clip-rule="nonzero"/></clipPath><clipPath id="09b4199037"><path d="M 29.125 8.375 L 195.753906 8.375 C 211.835938 8.375 224.875 21.414062 224.875 37.5 C 224.875 53.582031 211.835938 66.621094 195.753906 66.621094 L 29.125 66.621094 C 13.042969 66.621094 0.00390625 53.582031 0.00390625 37.5 C 0.00390625 21.414062 13.042969 8.375 29.125 8.375 Z M 29.125 8.375 " clip-rule="nonzero"/></clipPath><clipPath id="f2f3808703"><path d="M 175.460938 19.664062 L 206.667969 19.664062 L 206.667969 55.382812 L 175.460938 55.382812 Z M 175.460938 19.664062 " clip-rule="nonzero"/></clipPath><clipPath id="a98252408c"><path d="M 206.667969 37.496094 L 175.460938 55.332031 L 175.460938 19.664062 Z M 206.667969 37.496094 " clip-rule="nonzero"/></clipPath></defs><g clip-path="url(#bac261012f)"><g clip-path="url(#b580baf496)"><path fill="#b0bbc5" d="M 0 8.375 L 224.800781 8.375 L 224.800781 66.625 L 0 66.625 Z M 0 8.375 " fill-opacity="1" fill-rule="nonzero"/></g></g><g clip-path="url(#c3ba7f7019)"><g clip-path="url(#09b4199037)"><path stroke-linecap="butt" transform="matrix(0.7496, 0, 0, 0.7496, 0.00378335, 8.375886)" fill="none" stroke-linejoin="miter" d="M 38.849012 -0.00118239 L 261.139461 -0.00118239 C 282.593613 -0.00118239 299.988308 17.393513 299.988308 38.852876 C 299.988308 60.307029 282.593613 77.701724 261.139461 77.701724 L 38.849012 77.701724 C 17.394859 77.701724 0.000163951 60.307029 0.000163951 38.852876 C 0.000163951 17.393513 17.394859 -0.00118239 38.849012 -0.00118239 Z M 38.849012 -0.00118239 " stroke="#d9d9d9" stroke-width="2" stroke-opacity="1" stroke-miterlimit="4"/></g></g><g fill="#000000" fill-opacity="1"><g transform="translate(28.872286, 48.384245)"><g><path d="M 3.632812 0.0820312 L 4.960938 0.0273438 L 5.449219 0.0546875 L 6.074219 0 L 6.640625 -0.21875 L 6.886719 -0.785156 L 6.859375 -1.328125 L 6.886719 -1.925781 L 6.832031 -2.929688 L 6.886719 -3.441406 L 6.859375 -4.066406 L 7.101562 -4.554688 L 7.726562 -4.851562 L 8.324219 -4.90625 L 8.890625 -4.796875 L 11.683594 -5.015625 L 14.261719 -6.046875 L 14.667969 -6.371094 L 15.046875 -6.804688 L 15.398438 -7.15625 L 15.75 -7.5625 L 16.320312 -8.429688 L 16.78125 -9.488281 L 16.863281 -10.085938 L 17.027344 -10.519531 L 17.082031 -12.742188 L 16.972656 -13.203125 L 16.890625 -13.800781 L 16.566406 -14.804688 L 16.050781 -15.722656 L 15.398438 -16.621094 L 14.179688 -17.675781 L 13.285156 -18.273438 L 12.199219 -18.597656 L 11.738281 -18.789062 L 11.195312 -18.789062 L 10.65625 -18.976562 L 9.839844 -19.003906 L 8.972656 -18.976562 L 8.378906 -18.898438 L 6.722656 -18.921875 L 6.179688 -19.003906 L 4.5 -18.898438 L 3.902344 -18.921875 L 3.417969 -19.003906 L 2.847656 -18.898438 L 2.277344 -18.597656 L 2.035156 -18.164062 L 2.058594 -14.882812 L 1.953125 -13.800781 L 2.007812 -13.285156 L 1.980469 -6.261719 L 2.035156 -5.746094 L 2.007812 -0.730469 L 2.304688 -0.21875 L 3.144531 0.0546875 Z M 7.699219 -9.191406 L 7.15625 -9.515625 L 6.914062 -9.976562 L 6.832031 -12.171875 L 6.886719 -12.742188 L 6.886719 -13.855469 L 7.15625 -14.367188 L 7.726562 -14.640625 L 10.546875 -14.558594 L 11.089844 -14.316406 L 11.523438 -14.015625 L 11.875 -13.664062 L 12.144531 -13.121094 L 12.226562 -12.632812 L 12.28125 -11.875 L 12.226562 -11.144531 L 12.039062 -10.65625 L 11.792969 -10.222656 L 11.441406 -9.789062 L 11.007812 -9.460938 L 10.574219 -9.328125 L 9.734375 -9.21875 L 8.351562 -9.246094 Z M 7.699219 -9.191406 "/></g></g></g><g fill="#000000" fill-opacity="1"><g transform="translate(46.710375, 48.384245)"><g><path d="M 2.035156 -1.113281 L 2.304688 -0.269531 L 3.089844 0.0820312 L 3.632812 0 L 4.5 0.0820312 L 4.933594 0.0273438 L 5.746094 0.0273438 L 6.613281 -0.242188 L 6.859375 -1.03125 L 6.859375 -1.953125 L 6.914062 -2.441406 L 6.832031 -3.007812 L 6.886719 -4.746094 L 7.128906 -5.285156 L 7.644531 -5.585938 L 9.21875 -5.367188 L 9.761719 -4.90625 L 10.085938 -4.363281 L 10.300781 -3.875 L 10.871094 -3.0625 L 11.386719 -2.085938 L 11.683594 -1.679688 L 11.902344 -1.140625 L 12.199219 -0.679688 L 12.796875 -0.191406 L 13.71875 0.0546875 L 15.859375 0.0273438 L 16.375 0.0820312 L 17.269531 0.0546875 L 17.785156 -0.191406 L 17.949219 -0.785156 L 17.648438 -1.382812 L 17.324219 -1.761719 L 17.105469 -2.277344 L 16.183594 -3.660156 L 15.941406 -4.148438 L 15.074219 -5.558594 L 14.75 -5.964844 L 14.722656 -6.613281 L 14.964844 -7.210938 L 15.34375 -7.617188 L 15.722656 -7.945312 L 16.78125 -9.839844 L 17.132812 -11.414062 L 17.082031 -13.121094 L 17 -13.664062 L 16.511719 -15.210938 L 16.292969 -15.671875 L 15.996094 -16.105469 L 14.449219 -17.730469 L 13.5 -18.246094 L 12.472656 -18.597656 L 10.925781 -18.949219 L 10.058594 -18.976562 L 9.273438 -18.921875 L 7.644531 -18.921875 L 7.101562 -19.03125 L 6.5625 -19.03125 L 6.074219 -18.898438 L 5.53125 -18.898438 L 4.988281 -19.003906 L 4.390625 -19.03125 L 2.792969 -18.898438 L 2.304688 -18.625 L 1.980469 -17.867188 L 2.007812 -11.65625 L 2.058594 -11.117188 L 1.980469 -10.03125 L 2.007812 -9.433594 L 2.007812 -8.890625 L 2.058594 -8.378906 L 2.007812 -7.863281 L 1.980469 -5.667969 L 2.035156 -5.125 Z M 7.644531 -9.921875 L 7.101562 -10.222656 L 6.886719 -10.65625 L 6.886719 -12.28125 L 6.832031 -12.742188 L 6.886719 -13.882812 L 7.128906 -14.394531 L 7.699219 -14.613281 L 8.242188 -14.585938 L 9.328125 -14.695312 L 10.085938 -14.53125 L 10.789062 -14.476562 L 11.304688 -14.34375 L 11.984375 -13.5 L 12.144531 -13.066406 L 12.253906 -12.363281 L 12.171875 -11.550781 L 11.929688 -11.007812 L 11.628906 -10.601562 L 11.332031 -10.355469 L 10.84375 -10.140625 L 10.058594 -9.949219 L 9.542969 -9.921875 L 8.242188 -9.976562 Z M 7.644531 -9.921875 "/></g></g></g><g fill="#000000" fill-opacity="1"><g transform="translate(65.524404, 48.384245)"><g><path d="M 10.273438 -21.445312 L 10.84375 -21.363281 L 11.089844 -21.390625 L 11.792969 -21.445312 L 12.363281 -21.636719 L 12.632812 -21.878906 L 12.796875 -22.148438 L 14.558594 -24.128906 L 14.777344 -24.292969 L 14.964844 -24.808594 L 14.640625 -25.132812 L 13.367188 -25.566406 L 13.066406 -25.59375 L 11.167969 -26.296875 L 10.734375 -26.109375 L 9.652344 -23.667969 L 9.460938 -23.398438 L 9.378906 -23.070312 L 9.191406 -22.746094 L 9.109375 -22.421875 L 8.945312 -22.121094 L 8.785156 -21.582031 L 9.460938 -21.390625 L 9.789062 -21.390625 Z M 10.871094 0.351562 L 13.285156 0.109375 L 14.316406 -0.21875 L 16.726562 -1.300781 L 18.625 -3.117188 L 18.976562 -3.605469 L 20.035156 -5.476562 L 20.226562 -5.992188 L 20.304688 -6.535156 L 20.46875 -6.96875 L 20.578125 -7.5625 L 20.714844 -9.460938 L 20.578125 -11.332031 L 20.359375 -12.335938 L 20.144531 -12.90625 L 20.007812 -13.527344 L 19.519531 -14.421875 L 19.332031 -14.910156 L 18.976562 -15.371094 L 18.652344 -15.699219 L 18.300781 -16.183594 L 17.132812 -17.242188 L 15.75 -18.109375 L 12.199219 -19.222656 L 10.925781 -19.25 L 9.027344 -19.140625 L 8.484375 -19.03125 L 7.945312 -18.871094 L 7.457031 -18.652344 L 6.425781 -18.382812 L 5.042969 -17.515625 L 4.664062 -17.1875 L 3.796875 -16.59375 L 3.0625 -15.777344 L 2.140625 -14.421875 L 1.898438 -13.960938 L 1.382812 -12.472656 L 1.164062 -11.304688 L 1.058594 -8.160156 L 1.355469 -6.453125 L 1.761719 -5.53125 L 1.925781 -4.960938 L 2.195312 -4.472656 L 3.46875 -2.738281 L 4.230469 -2.007812 L 4.582031 -1.597656 L 6.425781 -0.625 L 6.941406 -0.40625 L 9.246094 0.269531 Z M 10.113281 -4.417969 L 9.570312 -4.609375 L 9.082031 -4.664062 L 8.160156 -5.152344 L 7.320312 -5.882812 L 7.050781 -6.261719 L 6.695312 -6.640625 L 6.179688 -8.160156 L 6.046875 -9.515625 L 6.074219 -10.328125 L 6.261719 -11.332031 L 6.425781 -11.820312 L 6.75 -12.199219 L 6.996094 -12.660156 L 7.347656 -13.09375 L 7.753906 -13.445312 L 8.539062 -13.988281 L 9.027344 -14.234375 L 9.597656 -14.367188 L 10.84375 -14.476562 L 12.144531 -14.394531 L 13.582031 -13.773438 L 14.421875 -13.148438 L 15.046875 -12.226562 L 15.265625 -11.738281 L 15.425781 -11.195312 L 15.617188 -10.707031 L 15.722656 -9.542969 L 15.5625 -8.1875 L 15.316406 -7.074219 L 15.019531 -6.667969 L 14.777344 -6.261719 L 14.449219 -5.773438 L 13.609375 -5.125 L 13.121094 -4.90625 L 12.6875 -4.664062 L 12.199219 -4.609375 L 11.683594 -4.472656 Z M 10.113281 -4.417969 "/></g></g></g><g fill="#000000" fill-opacity="1"><g transform="translate(87.266267, 48.384245)"><g><path d="M 0.351562 -0.679688 L 0.433594 -0.136719 L 0.921875 0.0546875 L 3.769531 0.0273438 L 4.582031 -0.0546875 L 5.207031 -0.242188 L 5.800781 -0.679688 L 6.019531 -1.113281 L 6.316406 -1.519531 L 6.5625 -2.058594 L 7.347656 -3.390625 L 7.589844 -3.902344 L 7.945312 -4.257812 L 8.457031 -5.285156 L 8.757812 -5.695312 L 9.082031 -5.667969 L 9.40625 -5.257812 L 12.117188 -0.703125 L 12.632812 -0.191406 L 13.285156 0.109375 L 16.402344 -0.0546875 L 16.945312 0.0273438 L 17.488281 -0.109375 L 17.566406 -0.730469 L 17.242188 -1.410156 L 16.644531 -2.277344 L 16.402344 -2.738281 L 15.453125 -4.039062 L 15.265625 -4.390625 L 14.910156 -4.878906 L 14.394531 -5.828125 L 13.582031 -6.886719 L 12.335938 -8.972656 L 12.011719 -9.378906 L 11.847656 -10.058594 L 11.984375 -10.707031 L 12.363281 -11.195312 L 12.90625 -12.039062 L 13.175781 -12.550781 L 15.101562 -15.289062 L 15.34375 -15.777344 L 16.917969 -18.21875 L 16.78125 -18.789062 L 16.183594 -18.976562 L 15.316406 -18.921875 L 13.367188 -19.003906 L 12.851562 -18.949219 L 12.199219 -18.707031 L 11.578125 -18.300781 L 11.359375 -17.785156 L 10.464844 -16.539062 L 10.273438 -15.996094 L 9.054688 -14.289062 L 8.675781 -14.207031 L 8.40625 -14.640625 L 8.132812 -15.183594 L 7.835938 -15.535156 L 7.644531 -16.023438 L 6.261719 -18.246094 L 5.695312 -18.707031 L 5.042969 -19.003906 L 4.445312 -18.921875 L 3.902344 -18.921875 L 3.28125 -19.003906 L 2.441406 -18.898438 L 1.625 -18.921875 L 1.003906 -18.761719 L 0.949219 -18.164062 L 1.21875 -17.566406 L 1.898438 -16.671875 L 2.332031 -15.886719 L 3.089844 -14.828125 L 3.660156 -13.855469 L 3.984375 -13.445312 L 4.285156 -12.933594 L 4.609375 -12.527344 L 5.152344 -11.605469 L 5.53125 -11.117188 L 5.773438 -10.707031 L 5.9375 -9.976562 L 5.828125 -9.378906 L 5.207031 -8.484375 L 4.664062 -7.511719 L 4.390625 -7.183594 L 4.121094 -6.695312 L 3.769531 -6.34375 L 3.226562 -5.367188 L 2.902344 -4.960938 L 2.035156 -3.523438 L 1.4375 -2.710938 L 1.164062 -2.195312 L 0.867188 -1.816406 L 0.597656 -1.300781 Z M 0.351562 -0.679688 "/></g></g></g><g fill="#000000" fill-opacity="1"><g transform="translate(105.239902, 48.384245)"><g><path d="M 9.082031 0.109375 L 10.167969 0.0546875 L 10.65625 -0.21875 L 10.925781 -0.730469 L 10.925781 -3.417969 L 10.601562 -3.929688 L 10.003906 -4.230469 L 9.433594 -4.230469 L 8.785156 -4.445312 L 8.457031 -5.070312 L 8.539062 -5.585938 L 8.511719 -8.566406 L 8.566406 -9.164062 L 8.457031 -11.117188 L 8.566406 -13.855469 L 8.757812 -14.476562 L 9.351562 -14.722656 L 9.894531 -14.804688 L 10.464844 -15.019531 L 10.734375 -15.453125 L 10.761719 -18.136719 L 10.4375 -18.652344 L 9.949219 -18.949219 L 6.667969 -18.949219 L 6.179688 -19.003906 L 5.640625 -18.898438 L 3.417969 -18.898438 L 2.902344 -18.976562 L 2.277344 -18.976562 L 1.734375 -18.707031 L 1.464844 -18.054688 L 1.546875 -16.050781 L 1.492188 -15.535156 L 1.789062 -14.992188 L 2.386719 -14.695312 L 2.929688 -14.695312 L 3.441406 -14.367188 L 3.6875 -13.636719 L 3.769531 -5.3125 L 3.46875 -4.5 L 1.679688 -3.957031 L 1.382812 -3.46875 L 1.300781 -0.976562 L 1.574219 -0.242188 L 2.113281 0 L 2.628906 0 L 3.144531 -0.0546875 L 3.929688 0.0546875 L 4.773438 0.0273438 L 5.3125 -0.0273438 L 6.398438 0.0820312 L 7.210938 -0.0273438 L 8.539062 -0.0273438 Z M 9.082031 0.109375 "/></g></g></g><g fill="#000000" fill-opacity="1"><g transform="translate(117.547644, 48.384245)"><g><path d="M 2.820312 0.0820312 L 3.363281 0 L 4.417969 0.0546875 L 5.015625 -0.0273438 L 5.882812 0.0273438 L 6.640625 -0.296875 L 6.96875 -0.785156 L 6.886719 -3.632812 L 6.96875 -4.472656 L 6.941406 -5.042969 L 6.996094 -6.019531 L 6.941406 -6.613281 L 6.941406 -7.671875 L 7.183594 -7.917969 L 7.457031 -7.808594 L 7.890625 -7.457031 L 8.214844 -7.050781 L 9.328125 -5.9375 L 9.679688 -5.503906 L 10.410156 -4.796875 L 10.980469 -4.390625 L 11.578125 -4.363281 L 12.117188 -4.773438 L 12.5 -5.179688 L 12.824219 -5.503906 L 13.582031 -6.398438 L 13.960938 -6.667969 L 15.074219 -7.808594 L 15.425781 -7.972656 L 15.644531 -7.5625 L 15.589844 -6.074219 L 15.671875 -4.988281 L 15.617188 -3.929688 L 15.671875 -2.929688 L 15.617188 -2.441406 L 15.671875 -1.21875 L 15.671875 -0.8125 L 15.886719 -0.191406 L 16.457031 -0.0273438 L 19.738281 0.0820312 L 20.304688 -0.21875 L 20.632812 -1.003906 L 20.550781 -2.414062 L 20.605469 -2.957031 L 20.550781 -11.089844 L 20.605469 -11.683594 L 20.578125 -14.367188 L 20.605469 -14.882812 L 20.550781 -16.050781 L 20.578125 -16.511719 L 20.550781 -17.621094 L 20.605469 -18.136719 L 20.277344 -18.707031 L 19.710938 -19.003906 L 18.921875 -18.761719 L 18.355469 -18.410156 L 17.214844 -17.214844 L 16.863281 -16.78125 L 16.539062 -16.484375 L 16.160156 -15.996094 L 13.773438 -13.554688 L 13.421875 -13.09375 L 11.765625 -11.414062 L 11.277344 -11.089844 L 10.707031 -11.304688 L 10.382812 -11.765625 L 10.003906 -12.144531 L 9.515625 -12.769531 L 8.917969 -13.3125 L 6.453125 -16.050781 L 6.074219 -16.375 L 5.367188 -17.214844 L 4.933594 -17.59375 L 4.230469 -18.328125 L 3.605469 -18.789062 L 2.847656 -19.003906 L 2.25 -18.734375 L 1.953125 -18.164062 L 2.035156 -16.511719 L 1.953125 -15.453125 L 2.007812 -14.964844 L 1.980469 -10.628906 L 2.035156 -10.085938 L 1.953125 -7.347656 L 2.007812 -6.832031 L 1.980469 -0.839844 L 2.277344 -0.269531 Z M 2.820312 0.0820312 "/></g></g></g><g fill="#000000" fill-opacity="1"><g transform="translate(140.211232, 48.384245)"><g><path d="M 15.996094 0.0546875 L 17.027344 -0.0273438 L 17.542969 0.0273438 L 18.382812 0 L 19.140625 -0.136719 L 19.222656 -0.785156 L 19.03125 -1.410156 L 18.625 -2.414062 L 17.894531 -3.824219 L 17.515625 -4.824219 L 16.972656 -5.800781 L 15.941406 -8.269531 L 15.671875 -8.675781 L 15.398438 -9.191406 L 15.238281 -9.789062 L 14.992188 -10.195312 L 14.828125 -10.628906 L 14.261719 -11.628906 L 14.070312 -12.199219 L 12.28125 -15.96875 L 12.117188 -16.511719 L 11.820312 -17 L 11.65625 -17.488281 L 11.144531 -18.4375 L 10.683594 -18.921875 L 9.789062 -19.195312 L 8.917969 -18.898438 L 8.429688 -18.4375 L 8.1875 -17.976562 L 7.996094 -17.433594 L 7.753906 -17.054688 L 6.667969 -14.558594 L 6.371094 -14.152344 L 6.234375 -13.609375 L 5.9375 -13.09375 L 5.773438 -12.605469 L 3.007812 -6.804688 L 2.847656 -6.207031 L 2.574219 -5.800781 L 2.386719 -5.257812 L 1.898438 -4.390625 L 1.492188 -3.308594 L 1.191406 -2.929688 L 1.058594 -2.441406 L 0.515625 -1.355469 L 0.351562 -0.8125 L 0.488281 -0.136719 L 1.03125 0.0273438 L 2.085938 -0.0273438 L 2.628906 0.0273438 L 4.148438 -0.0273438 L 4.773438 -0.21875 L 5.285156 -0.703125 L 5.773438 -1.597656 L 6.289062 -2.113281 L 6.859375 -2.414062 L 7.375 -2.332031 L 8.511719 -2.441406 L 9 -2.359375 L 11.65625 -2.386719 L 12.144531 -2.332031 L 12.742188 -2.414062 L 13.339844 -2.113281 L 13.855469 -1.679688 L 14.097656 -1.164062 L 14.261719 -0.679688 L 14.804688 -0.269531 L 15.425781 0 Z M 9.839844 -6.695312 L 9.300781 -6.804688 L 8.675781 -6.75 L 8.242188 -6.941406 L 8.214844 -7.457031 L 9.488281 -10.382812 L 9.789062 -10.628906 L 10.167969 -10.410156 L 11.441406 -7.429688 L 11.332031 -6.941406 L 10.925781 -6.722656 Z M 9.839844 -6.695312 "/></g></g></g><g clip-path="url(#f2f3808703)"><g clip-path="url(#a98252408c)"><path fill="#ffffff" d="M 206.667969 19.664062 L 206.667969 55.382812 L 175.460938 55.382812 L 175.460938 19.664062 Z M 206.667969 19.664062 " fill-opacity="1" fill-rule="nonzero"/></g></g></svg>