<svg xmlns="http://www.w3.org/2000/svg" xmlns:xlink="http://www.w3.org/1999/xlink" width="300" zoomAndPan="magnify" viewBox="0 0 224.87999 74.999997" height="100" preserveAspectRatio="xMidYMid meet" version="1.0"><defs><g/><clipPath id="e5b48e6fed"><path d="M 0 8.464844 L 224.761719 8.464844 L 224.761719 66.535156 L 0 66.535156 Z M 0 8.464844 " clip-rule="nonzero"/></clipPath><clipPath id="e7640f4607"><path d="M 29.035156 8.464844 L 195.84375 8.464844 C 203.546875 8.464844 210.929688 11.523438 216.375 16.96875 C 221.820312 22.414062 224.878906 29.800781 224.878906 37.5 C 224.878906 45.199219 221.820312 52.585938 216.375 58.03125 C 210.929688 63.476562 203.546875 66.535156 195.84375 66.535156 L 29.035156 66.535156 C 21.335938 66.535156 13.949219 63.476562 8.503906 58.03125 C 3.058594 52.585938 0 45.199219 0 37.5 C 0 29.800781 3.058594 22.414062 8.503906 16.96875 C 13.949219 11.523438 21.335938 8.464844 29.035156 8.464844 Z M 29.035156 8.464844 " clip-rule="nonzero"/></clipPath><clipPath id="cd7cd4ad22"><path d="M 0.0195312 8.464844 L 224.761719 8.464844 L 224.761719 66.183594 L 0.0195312 66.183594 Z M 0.0195312 8.464844 " clip-rule="nonzero"/></clipPath><clipPath id="66e0aa1f08"><path d="M 29.050781 8.464844 L 195.832031 8.464844 C 203.53125 8.464844 210.914062 11.523438 216.359375 16.96875 C 221.800781 22.410156 224.859375 29.796875 224.859375 37.496094 C 224.859375 45.195312 221.800781 52.578125 216.359375 58.023438 C 210.914062 63.464844 203.53125 66.523438 195.832031 66.523438 L 29.050781 66.523438 C 21.351562 66.523438 13.964844 63.464844 8.523438 58.023438 C 3.078125 52.578125 0.0195312 45.195312 0.0195312 37.496094 C 0.0195312 29.796875 3.078125 22.410156 8.523438 16.96875 C 13.964844 11.523438 21.351562 8.464844 29.050781 8.464844 Z M 29.050781 8.464844 " clip-rule="nonzero"/></clipPath><clipPath id="f9bb7ae111"><path d="M 181.507812 17.570312 L 214.398438 17.570312 L 214.398438 55.210938 L 181.507812 55.210938 Z M 181.507812 17.570312 " clip-rule="nonzero"/></clipPath><clipPath id="699a72a0fa"><path d="M 214.398438 36.363281 L 181.507812 55.15625 L 181.507812 17.570312 Z M 214.398438 36.363281 " clip-rule="nonzero"/></clipPath></defs><g clip-path="url(#e5b48e6fed)"><g clip-path="url(#e7640f4607)"><path fill="#5acd00" d="M 0 8.464844 L 224.789062 8.464844 L 224.789062 66.535156 L 0 66.535156 Z M 0 8.464844 " fill-opacity="1" fill-rule="nonzero"/></g></g><g clip-path="url(#cd7cd4ad22)"><g clip-path="url(#66e0aa1f08)"><path stroke-linecap="butt" transform="matrix(0.7496, 0, 0, 0.7496, 0.0196729, 8.465487)" fill="none" stroke-linejoin="miter" d="M 38.728803 -0.000857985 L 261.222486 -0.000857985 C 271.493589 -0.000857985 281.342593 4.079444 288.606885 11.343735 C 295.865965 18.602816 299.946267 28.45703 299.946267 38.728134 C 299.946267 48.999238 295.865965 58.848242 288.606885 66.112533 C 281.342593 73.371614 271.493589 77.451915 261.222486 77.451915 L 38.728803 77.451915 C 28.457699 77.451915 18.603485 73.371614 11.344404 66.112533 C 4.080113 58.848242 -0.000189004 48.999238 -0.000189004 38.728134 C -0.000189004 28.45703 4.080113 18.602816 11.344404 11.343735 C 18.603485 4.079444 28.457699 -0.000857985 38.728803 -0.000857985 Z M 38.728803 -0.000857985 " stroke="#d9d9d9" stroke-width="2" stroke-opacity="1" stroke-miterlimit="4"/></g></g><g fill="#000000" fill-opacity="1"><g transform="translate(12.883749, 43.696684)"><g><path d="M 6.238281 0.0742188 L 6.984375 0.0390625 L 7.316406 -0.148438 L 7.503906 -0.503906 L 7.503906 -2.347656 L 7.28125 -2.699219 L 6.871094 -2.90625 L 6.480469 -2.90625 L 6.03125 -3.054688 L 5.808594 -3.480469 L 5.867188 -3.835938 L 5.847656 -5.882812 L 5.882812 -6.292969 L 5.808594 -7.632812 L 5.882812 -9.515625 L 6.015625 -9.941406 L 6.425781 -10.109375 L 6.796875 -10.167969 L 7.1875 -10.316406 L 7.375 -10.613281 L 7.390625 -12.457031 L 7.167969 -12.8125 L 6.832031 -13.015625 L 4.582031 -13.015625 L 4.246094 -13.050781 L 3.871094 -12.976562 L 2.347656 -12.976562 L 1.992188 -13.035156 L 1.5625 -13.035156 L 1.191406 -12.847656 L 1.003906 -12.402344 L 1.0625 -11.023438 L 1.023438 -10.667969 L 1.230469 -10.296875 L 1.636719 -10.09375 L 2.011719 -10.09375 L 2.363281 -9.867188 L 2.53125 -9.367188 L 2.589844 -3.648438 L 2.382812 -3.089844 L 1.15625 -2.71875 L 0.949219 -2.382812 L 0.894531 -0.671875 L 1.078125 -0.167969 L 1.453125 0 L 1.804688 0 L 2.160156 -0.0390625 L 2.699219 0.0390625 L 3.277344 0.0195312 L 3.648438 -0.0195312 L 4.394531 0.0546875 L 4.953125 -0.0195312 L 5.867188 -0.0195312 Z M 6.238281 0.0742188 "/></g></g></g><g fill="#000000" fill-opacity="1"><g transform="translate(21.333242, 43.696684)"><g><path d="M 10.984375 -0.316406 L 11.488281 -0.0195312 L 12.011719 0.0390625 L 12.417969 -0.09375 L 12.605469 -0.464844 L 12.644531 -7.261719 L 12.585938 -7.578125 L 12.585938 -9.421875 L 12.644531 -9.867188 L 12.585938 -12.457031 L 12.402344 -12.828125 L 12.027344 -13.035156 L 9.71875 -13.015625 L 9.367188 -12.8125 L 9.160156 -12.417969 L 9.140625 -12.027344 L 9.199219 -11.730469 L 9.140625 -10.949219 L 9.179688 -10.539062 L 9.140625 -7.207031 L 9.03125 -6.890625 L 8.75 -7.019531 L 7.429688 -8.339844 L 6.90625 -8.75 L 3.238281 -12.457031 L 2.960938 -12.679688 L 2.53125 -12.902344 L 1.972656 -13.035156 L 1.546875 -12.847656 L 1.378906 -12.492188 L 1.378906 -6.851562 L 1.359375 -6.535156 L 1.398438 -5.773438 L 1.339844 -5.457031 L 1.378906 -2.402344 L 1.339844 -2.046875 L 1.378906 -0.484375 L 1.546875 -0.128906 L 1.9375 0 L 2.699219 0.0390625 L 3.109375 0 L 3.835938 0.0546875 L 4.226562 0.0390625 L 4.597656 -0.148438 L 4.785156 -0.726562 L 4.804688 -5.4375 L 4.839844 -5.808594 L 4.972656 -6.125 L 5.214844 -6.03125 L 5.457031 -5.714844 L 6.777344 -4.449219 L 7.019531 -4.171875 L 7.335938 -3.964844 L 10.222656 -1.097656 L 10.707031 -0.558594 Z M 10.984375 -0.316406 "/></g></g></g><g fill="#000000" fill-opacity="1"><g transform="translate(35.366097, 43.696684)"><g><path d="M 6.238281 0.0742188 L 6.984375 0.0390625 L 7.316406 -0.148438 L 7.503906 -0.503906 L 7.503906 -2.347656 L 7.28125 -2.699219 L 6.871094 -2.90625 L 6.480469 -2.90625 L 6.03125 -3.054688 L 5.808594 -3.480469 L 5.867188 -3.835938 L 5.847656 -5.882812 L 5.882812 -6.292969 L 5.808594 -7.632812 L 5.882812 -9.515625 L 6.015625 -9.941406 L 6.425781 -10.109375 L 6.796875 -10.167969 L 7.1875 -10.316406 L 7.375 -10.613281 L 7.390625 -12.457031 L 7.167969 -12.8125 L 6.832031 -13.015625 L 4.582031 -13.015625 L 4.246094 -13.050781 L 3.871094 -12.976562 L 2.347656 -12.976562 L 1.992188 -13.035156 L 1.5625 -13.035156 L 1.191406 -12.847656 L 1.003906 -12.402344 L 1.0625 -11.023438 L 1.023438 -10.667969 L 1.230469 -10.296875 L 1.636719 -10.09375 L 2.011719 -10.09375 L 2.363281 -9.867188 L 2.53125 -9.367188 L 2.589844 -3.648438 L 2.382812 -3.089844 L 1.15625 -2.71875 L 0.949219 -2.382812 L 0.894531 -0.671875 L 1.078125 -0.167969 L 1.453125 0 L 1.804688 0 L 2.160156 -0.0390625 L 2.699219 0.0390625 L 3.277344 0.0195312 L 3.648438 -0.0195312 L 4.394531 0.0546875 L 4.953125 -0.0195312 L 5.867188 -0.0195312 Z M 6.238281 0.0742188 "/></g></g></g><g fill="#000000" fill-opacity="1"><g transform="translate(43.815589, 43.696684)"><g><path d="M 6.480469 0.148438 L 7.410156 0.222656 L 8.714844 0.128906 L 9.8125 -0.09375 L 10.148438 -0.28125 L 10.539062 -0.410156 L 10.855469 -0.558594 L 11.769531 -1.210938 L 12.289062 -1.730469 L 12.71875 -2.289062 L 13.109375 -2.960938 L 13.59375 -4.375 L 13.480469 -4.710938 L 13.109375 -4.953125 L 12.066406 -4.878906 L 11.695312 -4.933594 L 11.320312 -4.914062 L 10.949219 -4.933594 L 10.519531 -4.710938 L 10.222656 -4.414062 L 10.035156 -4.058594 L 9.609375 -3.574219 L 9.308594 -3.3125 L 9.03125 -3.203125 L 8.378906 -2.847656 L 7.390625 -2.792969 L 6.851562 -2.847656 L 6.183594 -3.089844 L 5.53125 -3.425781 L 4.988281 -3.910156 L 4.582031 -4.5625 L 4.449219 -4.933594 L 4.320312 -5.195312 L 4.226562 -5.53125 L 4.171875 -5.941406 L 4.171875 -7.074219 L 4.300781 -7.820312 L 4.582031 -8.492188 L 4.765625 -8.84375 L 5.214844 -9.367188 L 5.660156 -9.71875 L 6.164062 -10 L 7.410156 -10.167969 L 8.210938 -10.128906 L 8.789062 -9.960938 L 9.125 -9.832031 L 9.382812 -9.625 L 9.925781 -9.085938 L 10.128906 -8.808594 L 10.484375 -8.453125 L 10.910156 -8.25 L 11.246094 -8.285156 L 11.636719 -8.265625 L 12.011719 -8.285156 L 12.53125 -8.230469 L 13.089844 -8.285156 L 13.40625 -8.433594 L 13.535156 -8.808594 L 13.425781 -9.21875 L 13.292969 -9.550781 L 13.183594 -9.941406 L 12.976562 -10.242188 L 12.8125 -10.539062 L 12.550781 -10.855469 L 12.34375 -11.210938 L 11.824219 -11.75 L 10.558594 -12.550781 L 8.769531 -13.144531 L 8.417969 -13.164062 L 8.042969 -13.21875 L 6.890625 -13.238281 L 5.082031 -12.886719 L 3.707031 -12.234375 L 3.164062 -11.824219 L 2.363281 -11.097656 L 1.863281 -10.464844 L 1.507812 -9.925781 L 1.042969 -8.882812 L 0.855469 -8.117188 L 0.671875 -6.515625 L 0.78125 -5.15625 L 1.042969 -4.097656 L 1.84375 -2.476562 L 2.605469 -1.65625 L 3.445312 -0.929688 L 4.246094 -0.503906 L 5.082031 -0.148438 L 5.417969 -0.0742188 L 5.789062 0.0546875 L 6.125 0.128906 Z M 6.480469 0.148438 "/></g></g></g><g fill="#000000" fill-opacity="1"><g transform="translate(58.015942, 43.696684)"><g><path d="M 6.238281 0.0742188 L 6.984375 0.0390625 L 7.316406 -0.148438 L 7.503906 -0.503906 L 7.503906 -2.347656 L 7.28125 -2.699219 L 6.871094 -2.90625 L 6.480469 -2.90625 L 6.03125 -3.054688 L 5.808594 -3.480469 L 5.867188 -3.835938 L 5.847656 -5.882812 L 5.882812 -6.292969 L 5.808594 -7.632812 L 5.882812 -9.515625 L 6.015625 -9.941406 L 6.425781 -10.109375 L 6.796875 -10.167969 L 7.1875 -10.316406 L 7.375 -10.613281 L 7.390625 -12.457031 L 7.167969 -12.8125 L 6.832031 -13.015625 L 4.582031 -13.015625 L 4.246094 -13.050781 L 3.871094 -12.976562 L 2.347656 -12.976562 L 1.992188 -13.035156 L 1.5625 -13.035156 L 1.191406 -12.847656 L 1.003906 -12.402344 L 1.0625 -11.023438 L 1.023438 -10.667969 L 1.230469 -10.296875 L 1.636719 -10.09375 L 2.011719 -10.09375 L 2.363281 -9.867188 L 2.53125 -9.367188 L 2.589844 -3.648438 L 2.382812 -3.089844 L 1.15625 -2.71875 L 0.949219 -2.382812 L 0.894531 -0.671875 L 1.078125 -0.167969 L 1.453125 0 L 1.804688 0 L 2.160156 -0.0390625 L 2.699219 0.0390625 L 3.277344 0.0195312 L 3.648438 -0.0195312 L 4.394531 0.0546875 L 4.953125 -0.0195312 L 5.867188 -0.0195312 Z M 6.238281 0.0742188 "/></g></g></g><g fill="#000000" fill-opacity="1"><g transform="translate(66.465435, 43.696684)"><g><path d="M 10.984375 0.0390625 L 11.695312 -0.0195312 L 12.046875 0.0195312 L 12.625 0 L 13.144531 -0.09375 L 13.203125 -0.539062 L 13.070312 -0.96875 L 12.792969 -1.65625 L 12.289062 -2.625 L 12.027344 -3.3125 L 11.65625 -3.984375 L 10.949219 -5.679688 L 10.761719 -5.957031 L 10.578125 -6.3125 L 10.464844 -6.722656 L 10.296875 -7 L 10.183594 -7.300781 L 9.792969 -7.988281 L 9.664062 -8.378906 L 8.433594 -10.96875 L 8.324219 -11.339844 L 8.117188 -11.675781 L 8.007812 -12.011719 L 7.652344 -12.660156 L 7.335938 -12.996094 L 6.722656 -13.183594 L 6.125 -12.976562 L 5.789062 -12.660156 L 5.625 -12.34375 L 5.492188 -11.972656 L 5.324219 -11.710938 L 4.582031 -10 L 4.375 -9.71875 L 4.28125 -9.347656 L 4.078125 -8.992188 L 3.964844 -8.660156 L 2.066406 -4.671875 L 1.957031 -4.265625 L 1.769531 -3.984375 L 1.636719 -3.613281 L 1.304688 -3.015625 L 1.023438 -2.273438 L 0.820312 -2.011719 L 0.726562 -1.675781 L 0.355469 -0.929688 L 0.242188 -0.558594 L 0.335938 -0.09375 L 0.707031 0.0195312 L 1.433594 -0.0195312 L 1.804688 0.0195312 L 2.847656 -0.0195312 L 3.277344 -0.148438 L 3.632812 -0.484375 L 3.964844 -1.097656 L 4.320312 -1.453125 L 4.710938 -1.65625 L 5.066406 -1.601562 L 5.847656 -1.675781 L 6.183594 -1.621094 L 8.007812 -1.636719 L 8.339844 -1.601562 L 8.75 -1.65625 L 9.160156 -1.453125 L 9.515625 -1.15625 L 9.683594 -0.800781 L 9.792969 -0.464844 L 10.167969 -0.1875 L 10.59375 0 Z M 6.757812 -4.597656 L 6.386719 -4.671875 L 5.957031 -4.636719 L 5.660156 -4.765625 L 5.640625 -5.121094 L 6.515625 -7.132812 L 6.722656 -7.300781 L 6.984375 -7.148438 L 7.859375 -5.101562 L 7.78125 -4.765625 L 7.503906 -4.617188 Z M 6.757812 -4.597656 "/></g></g></g><g fill="#000000" fill-opacity="1"><g transform="translate(79.977176, 43.696684)"><g><path d="M 1.398438 -0.761719 L 1.582031 -0.1875 L 2.121094 0.0546875 L 2.496094 0 L 3.089844 0.0546875 L 3.390625 0.0195312 L 3.949219 0.0195312 L 4.542969 -0.167969 L 4.710938 -0.707031 L 4.710938 -1.339844 L 4.75 -1.675781 L 4.691406 -2.066406 L 4.730469 -3.257812 L 4.898438 -3.632812 L 5.25 -3.835938 L 6.332031 -3.6875 L 6.703125 -3.371094 L 6.925781 -2.996094 L 7.074219 -2.664062 L 7.464844 -2.105469 L 7.820312 -1.433594 L 8.023438 -1.15625 L 8.175781 -0.78125 L 8.378906 -0.464844 L 8.789062 -0.128906 L 9.421875 0.0390625 L 10.894531 0.0195312 L 11.246094 0.0546875 L 11.859375 0.0390625 L 12.214844 -0.128906 L 12.328125 -0.539062 L 12.121094 -0.949219 L 11.898438 -1.210938 L 11.75 -1.5625 L 11.117188 -2.515625 L 10.949219 -2.847656 L 10.351562 -3.816406 L 10.128906 -4.097656 L 10.109375 -4.542969 L 10.277344 -4.953125 L 10.539062 -5.230469 L 10.800781 -5.457031 L 11.527344 -6.757812 L 11.769531 -7.839844 L 11.730469 -9.011719 L 11.675781 -9.382812 L 11.339844 -10.445312 L 11.191406 -10.761719 L 10.984375 -11.058594 L 9.925781 -12.175781 L 9.273438 -12.53125 L 8.566406 -12.773438 L 7.503906 -13.015625 L 6.90625 -13.035156 L 6.367188 -12.996094 L 5.25 -12.996094 L 4.878906 -13.070312 L 4.507812 -13.070312 L 4.171875 -12.976562 L 3.796875 -12.976562 L 3.425781 -13.050781 L 3.015625 -13.070312 L 1.917969 -12.976562 L 1.582031 -12.792969 L 1.359375 -12.269531 L 1.378906 -8.007812 L 1.414062 -7.632812 L 1.359375 -6.890625 L 1.378906 -6.480469 L 1.378906 -6.105469 L 1.414062 -5.753906 L 1.378906 -5.398438 L 1.359375 -3.890625 L 1.398438 -3.519531 Z M 5.25 -6.816406 L 4.878906 -7.019531 L 4.730469 -7.316406 L 4.730469 -8.433594 L 4.691406 -8.75 L 4.730469 -9.535156 L 4.898438 -9.886719 L 5.289062 -10.035156 L 5.660156 -10.019531 L 6.40625 -10.09375 L 6.925781 -9.980469 L 7.410156 -9.941406 L 7.765625 -9.851562 L 8.230469 -9.273438 L 8.339844 -8.976562 L 8.417969 -8.492188 L 8.359375 -7.933594 L 8.191406 -7.558594 L 7.988281 -7.28125 L 7.78125 -7.113281 L 7.449219 -6.964844 L 6.90625 -6.832031 L 6.554688 -6.816406 L 5.660156 -6.851562 Z M 5.25 -6.816406 "/></g></g></g><g fill="#000000" fill-opacity="1"><g transform="translate(92.893363, 43.696684)"><g/></g></g><g fill="#000000" fill-opacity="1"><g transform="translate(97.937001, 43.696684)"><g><path d="M 7.464844 0.242188 L 9.125 0.0742188 L 9.832031 -0.148438 L 11.488281 -0.894531 L 12.792969 -2.140625 L 13.035156 -2.476562 L 13.761719 -3.761719 L 13.890625 -4.113281 L 13.945312 -4.488281 L 14.058594 -4.785156 L 14.132812 -5.195312 L 14.226562 -6.5 L 14.132812 -7.78125 L 13.984375 -8.472656 L 13.835938 -8.863281 L 13.742188 -9.292969 L 13.40625 -9.90625 L 13.277344 -10.242188 L 13.035156 -10.558594 L 12.8125 -10.78125 L 12.570312 -11.117188 L 11.769531 -11.84375 L 10.816406 -12.4375 L 8.378906 -13.203125 L 7.503906 -13.21875 L 6.199219 -13.144531 L 5.828125 -13.070312 L 5.457031 -12.960938 L 5.121094 -12.8125 L 4.414062 -12.625 L 3.464844 -12.027344 L 3.203125 -11.804688 L 2.605469 -11.394531 L 2.105469 -10.835938 L 1.472656 -9.90625 L 1.304688 -9.589844 L 0.949219 -8.566406 L 0.800781 -7.765625 L 0.726562 -5.605469 L 0.929688 -4.429688 L 1.210938 -3.796875 L 1.320312 -3.40625 L 1.507812 -3.074219 L 2.382812 -1.878906 L 2.90625 -1.378906 L 3.148438 -1.097656 L 4.414062 -0.429688 L 4.765625 -0.28125 L 6.347656 0.1875 Z M 6.945312 -3.035156 L 6.574219 -3.164062 L 6.238281 -3.203125 L 5.605469 -3.539062 L 5.027344 -4.039062 L 4.839844 -4.300781 L 4.597656 -4.5625 L 4.246094 -5.605469 L 4.152344 -6.535156 L 4.171875 -7.09375 L 4.300781 -7.78125 L 4.414062 -8.117188 L 4.636719 -8.378906 L 4.804688 -8.695312 L 5.046875 -8.992188 L 5.324219 -9.234375 L 5.867188 -9.609375 L 6.199219 -9.777344 L 6.589844 -9.867188 L 7.449219 -9.941406 L 8.339844 -9.886719 L 9.328125 -9.460938 L 9.90625 -9.03125 L 10.335938 -8.398438 L 10.484375 -8.0625 L 10.59375 -7.691406 L 10.726562 -7.355469 L 10.800781 -6.554688 L 10.6875 -5.625 L 10.519531 -4.859375 L 10.316406 -4.582031 L 10.148438 -4.300781 L 9.925781 -3.964844 L 9.347656 -3.519531 L 9.011719 -3.371094 L 8.714844 -3.203125 L 8.378906 -3.164062 L 8.023438 -3.074219 Z M 6.945312 -3.035156 "/></g></g></g><g fill="#000000" fill-opacity="1"><g transform="translate(112.863196, 43.696684)"><g/></g></g><g fill="#000000" fill-opacity="1"><g transform="translate(117.906834, 43.696684)"><g><path d="M 12.699219 0.242188 L 14.113281 0.203125 L 14.488281 0.242188 L 14.820312 0.242188 L 15.175781 0.148438 L 15.269531 -0.242188 L 15.027344 -0.597656 L 14.019531 -1.75 L 13.796875 -2.105469 L 13.554688 -2.363281 L 13.445312 -2.847656 L 13.445312 -3.3125 L 13.761719 -4.023438 L 13.851562 -4.414062 L 13.984375 -4.730469 L 14.132812 -5.882812 L 14.167969 -6.515625 L 14.132812 -7.039062 L 14.058594 -7.449219 L 14.058594 -7.765625 L 13.984375 -8.15625 L 13.648438 -9.234375 L 13.164062 -10.203125 L 12.492188 -11.117188 L 12.253906 -11.359375 L 11.675781 -11.859375 L 10.128906 -12.753906 L 8.695312 -13.164062 L 7.96875 -13.238281 L 7.429688 -13.203125 L 6.515625 -13.183594 L 6.125 -13.109375 L 5.773438 -12.996094 L 5.417969 -12.960938 L 4.710938 -12.734375 L 3.109375 -11.84375 L 2.347656 -11.078125 L 1.453125 -9.867188 L 1.304688 -9.570312 L 1.210938 -9.179688 L 1.0625 -8.882812 L 0.839844 -8.136719 L 0.820312 -7.765625 L 0.726562 -7.390625 L 0.6875 -5.941406 L 0.761719 -5.214844 L 1.042969 -4.097656 L 1.339844 -3.464844 L 1.453125 -3.109375 L 1.675781 -2.792969 L 1.84375 -2.4375 L 2.066406 -2.214844 L 2.308594 -1.878906 L 3.148438 -1.136719 L 4.058594 -0.539062 L 4.429688 -0.429688 L 4.730469 -0.222656 L 5.417969 -0.0742188 L 5.789062 0.0390625 L 6.125 0.113281 L 7.429688 0.203125 L 8.007812 0.1875 L 8.378906 0.203125 L 8.789062 0.09375 L 9.105469 -0.0195312 L 10.242188 -0.335938 L 10.726562 -0.335938 L 11.527344 0.09375 L 11.992188 0.203125 L 12.328125 0.203125 Z M 7.390625 -3.054688 L 6.089844 -3.222656 L 5.734375 -3.40625 L 5.4375 -3.59375 L 4.859375 -4.171875 L 4.636719 -4.523438 L 4.320312 -5.15625 L 4.226562 -5.511719 L 4.132812 -6.480469 L 4.152344 -7.058594 L 4.320312 -7.820312 L 4.671875 -8.546875 L 4.878906 -8.863281 L 5.121094 -9.125 L 5.773438 -9.550781 L 6.257812 -9.777344 L 6.832031 -9.980469 L 8.023438 -9.925781 L 8.527344 -9.777344 L 9.03125 -9.589844 L 9.367188 -9.347656 L 9.941406 -8.824219 L 10.183594 -8.472656 L 10.351562 -8.15625 L 10.613281 -7.464844 L 10.667969 -6.5 L 10.632812 -5.882812 L 10.5 -5.195312 L 10.351562 -4.804688 L 10.167969 -4.46875 L 9.925781 -4.152344 L 9.664062 -3.910156 L 9.050781 -3.425781 L 8.324219 -3.128906 Z M 7.390625 -3.054688 "/></g></g></g><g fill="#000000" fill-opacity="1"><g transform="translate(132.75858, 43.696684)"><g><path d="M 6.40625 0.242188 L 6.964844 0.1875 L 7.316406 0.203125 L 8.769531 -0.167969 L 9.441406 -0.519531 L 10.054688 -0.929688 L 10.578125 -1.453125 L 11.003906 -2.105469 L 11.117188 -2.476562 L 11.300781 -2.792969 L 11.46875 -3.574219 L 11.5625 -4.46875 L 11.5625 -9.496094 L 11.527344 -9.851562 L 11.5625 -10.257812 L 11.527344 -10.558594 L 11.527344 -12.101562 L 11.582031 -12.476562 L 11.339844 -12.867188 L 10.929688 -12.996094 L 9.757812 -12.960938 L 8.976562 -13.015625 L 8.582031 -12.828125 L 8.378906 -12.417969 L 8.417969 -5.082031 L 8.285156 -3.929688 L 8.175781 -3.648438 L 7.96875 -3.277344 L 7.652344 -3.054688 L 7 -2.8125 L 5.882812 -2.8125 L 5.457031 -2.90625 L 5.140625 -3.089844 L 4.839844 -3.3125 L 4.617188 -3.613281 L 4.507812 -3.964844 L 4.394531 -5.046875 L 4.449219 -11.042969 L 4.414062 -11.320312 L 4.449219 -11.917969 L 4.414062 -12.457031 L 4.191406 -12.867188 L 3.796875 -13.035156 L 3.445312 -13.035156 L 3.074219 -12.976562 L 2.273438 -13.050781 L 1.878906 -12.996094 L 1.488281 -12.847656 L 1.246094 -12.492188 L 1.285156 -12.121094 L 1.285156 -11.675781 L 1.246094 -11.375 L 1.304688 -8.769531 L 1.246094 -8.398438 L 1.285156 -8.042969 L 1.230469 -5.046875 L 1.339844 -3.554688 L 1.527344 -2.792969 L 1.824219 -2.160156 L 2.253906 -1.488281 L 2.476562 -1.230469 L 2.753906 -0.988281 L 3.351562 -0.597656 L 3.722656 -0.429688 L 4.003906 -0.261719 L 4.710938 0.0546875 L 5.4375 0.203125 L 5.808594 0.203125 Z M 6.40625 0.242188 "/></g></g></g><g fill="#000000" fill-opacity="1"><g transform="translate(145.600317, 43.696684)"><g><path d="M 6.238281 0.0742188 L 6.984375 0.0390625 L 7.316406 -0.148438 L 7.503906 -0.503906 L 7.503906 -2.347656 L 7.28125 -2.699219 L 6.871094 -2.90625 L 6.480469 -2.90625 L 6.03125 -3.054688 L 5.808594 -3.480469 L 5.867188 -3.835938 L 5.847656 -5.882812 L 5.882812 -6.292969 L 5.808594 -7.632812 L 5.882812 -9.515625 L 6.015625 -9.941406 L 6.425781 -10.109375 L 6.796875 -10.167969 L 7.1875 -10.316406 L 7.375 -10.613281 L 7.390625 -12.457031 L 7.167969 -12.8125 L 6.832031 -13.015625 L 4.582031 -13.015625 L 4.246094 -13.050781 L 3.871094 -12.976562 L 2.347656 -12.976562 L 1.992188 -13.035156 L 1.5625 -13.035156 L 1.191406 -12.847656 L 1.003906 -12.402344 L 1.0625 -11.023438 L 1.023438 -10.667969 L 1.230469 -10.296875 L 1.636719 -10.09375 L 2.011719 -10.09375 L 2.363281 -9.867188 L 2.53125 -9.367188 L 2.589844 -3.648438 L 2.382812 -3.089844 L 1.15625 -2.71875 L 0.949219 -2.382812 L 0.894531 -0.671875 L 1.078125 -0.167969 L 1.453125 0 L 1.804688 0 L 2.160156 -0.0390625 L 2.699219 0.0390625 L 3.277344 0.0195312 L 3.648438 -0.0195312 L 4.394531 0.0546875 L 4.953125 -0.0195312 L 5.867188 -0.0195312 Z M 6.238281 0.0742188 "/></g></g></g><g fill="#000000" fill-opacity="1"><g transform="translate(154.04981, 43.696684)"><g><path d="M 0.464844 -0.503906 L 0.539062 -0.113281 L 0.914062 0.0546875 L 5.007812 0.0742188 L 5.417969 0 L 5.773438 0.0195312 L 6.089844 0.0742188 L 6.480469 0.0390625 L 6.871094 0.0390625 L 7.242188 -0.0195312 L 7.597656 0.0546875 L 8.007812 0.0195312 L 9.886719 0.0195312 L 10.222656 -0.0195312 L 10.59375 -0.203125 L 10.78125 -0.519531 L 10.761719 -0.894531 L 10.800781 -1.285156 L 10.800781 -2.066406 L 10.761719 -2.402344 L 10.613281 -2.753906 L 10.222656 -2.941406 L 9.792969 -2.960938 L 9.402344 -2.941406 L 9.050781 -2.980469 L 7.132812 -2.996094 L 6.796875 -2.960938 L 6.40625 -2.980469 L 6.03125 -2.960938 L 5.714844 -3.148438 L 5.679688 -3.464844 L 5.902344 -3.742188 L 6.089844 -4.078125 L 6.238281 -4.46875 L 6.425781 -4.765625 L 6.609375 -5.140625 L 6.890625 -5.566406 L 7.691406 -7.074219 L 7.914062 -7.390625 L 8.472656 -8.453125 L 8.640625 -8.695312 L 8.976562 -9.421875 L 9.199219 -9.738281 L 10.652344 -12.4375 L 10.519531 -12.847656 L 10.148438 -12.976562 L 9.792969 -13.015625 L 8.695312 -12.976562 L 8.210938 -13.035156 L 5.457031 -13.015625 L 5.082031 -13.070312 L 4.691406 -13.015625 L 3.238281 -13.015625 L 2.847656 -13.050781 L 2.515625 -13.015625 L 1.730469 -13.015625 L 1.378906 -13.050781 L 1.078125 -12.867188 L 0.839844 -12.476562 L 0.875 -12.085938 L 0.855469 -10.558594 L 1.0625 -10.203125 L 1.621094 -10.054688 L 2.160156 -10.054688 L 2.53125 -10 L 2.886719 -10.054688 L 5.121094 -10.035156 L 5.363281 -9.867188 L 5.324219 -9.515625 L 3.035156 -5.269531 L 2.8125 -4.933594 L 2.476562 -4.265625 L 2.253906 -3.964844 L 1.917969 -3.257812 L 1.527344 -2.644531 L 1.042969 -1.65625 L 0.800781 -1.320312 L 0.613281 -0.949219 Z M 0.464844 -0.503906 "/></g></g></g><g fill="#000000" fill-opacity="1"><g transform="translate(165.544461, 43.696684)"><g/></g></g><g fill="#000000" fill-opacity="1"><g transform="translate(170.588098, 43.696684)"><g/></g></g><g fill="#000000" fill-opacity="1"><g transform="translate(175.631736, 43.696684)"><g/></g></g><g fill="#000000" fill-opacity="1"><g transform="translate(180.675374, 43.696684)"><g/></g></g><g fill="#000000" fill-opacity="1"><g transform="translate(185.719011, 43.696684)"><g/></g></g><g fill="#000000" fill-opacity="1"><g transform="translate(190.762649, 43.696684)"><g/></g></g><g fill="#000000" fill-opacity="1"><g transform="translate(195.806287, 43.696684)"><g/></g></g><g fill="#000000" fill-opacity="1"><g transform="translate(200.849924, 43.696684)"><g/></g></g><g fill="#000000" fill-opacity="1"><g transform="translate(205.893562, 43.696684)"><g/></g></g><g fill="#000000" fill-opacity="1"><g transform="translate(210.9372, 43.696684)"><g/></g></g><g fill="#000000" fill-opacity="1"><g transform="translate(215.980837, 43.696684)"><g/></g></g><g fill="#000000" fill-opacity="1"><g transform="translate(221.024475, 43.696684)"><g/></g></g><g clip-path="url(#f9bb7ae111)"><g clip-path="url(#699a72a0fa)"><path fill="#ffffff" d="M 214.398438 17.570312 L 214.398438 55.210938 L 181.507812 55.210938 L 181.507812 17.570312 Z M 214.398438 17.570312 " fill-opacity="1" fill-rule="nonzero"/></g></g></svg>