<svg xmlns="http://www.w3.org/2000/svg" xmlns:xlink="http://www.w3.org/1999/xlink" width="300" zoomAndPan="magnify" viewBox="0 0 224.87999 74.999997" height="100" preserveAspectRatio="xMidYMid meet" version="1.0"><defs><g/><clipPath id="5a325a6834"><path d="M 30.539062 6.0625 L 214.738281 6.0625 L 214.738281 68.9375 L 30.539062 68.9375 Z M 30.539062 6.0625 " clip-rule="nonzero"/></clipPath><clipPath id="da3ef1ee3e"><path d="M 59.773438 6.0625 L 185.332031 6.0625 C 201.476562 6.0625 214.566406 19.152344 214.566406 35.296875 L 214.566406 39.703125 C 214.566406 55.847656 201.476562 68.9375 185.332031 68.9375 L 59.773438 68.9375 C 43.628906 68.9375 30.539062 55.847656 30.539062 39.703125 L 30.539062 35.296875 C 30.539062 19.152344 43.628906 6.0625 59.773438 6.0625 Z M 59.773438 6.0625 " clip-rule="nonzero"/></clipPath><clipPath id="1bf02019de"><path d="M 30.539062 6.0625 L 214.578125 6.0625 L 214.578125 69 L 30.539062 69 Z M 30.539062 6.0625 " clip-rule="nonzero"/></clipPath><clipPath id="8e8155cece"><path d="M 59.773438 6.0625 L 185.332031 6.0625 C 201.476562 6.0625 214.566406 19.152344 214.566406 35.296875 L 214.566406 39.703125 C 214.566406 55.847656 201.476562 68.9375 185.332031 68.9375 L 59.773438 68.9375 C 43.628906 68.9375 30.539062 55.847656 30.539062 39.703125 L 30.539062 35.296875 C 30.539062 19.152344 43.628906 6.0625 59.773438 6.0625 Z M 59.773438 6.0625 " clip-rule="nonzero"/></clipPath><clipPath id="6e540493a1"><path d="M 0 0.0195312 L 74.960938 0.0195312 L 74.960938 74.980469 L 0 74.980469 Z M 0 0.0195312 " clip-rule="nonzero"/></clipPath></defs><g clip-path="url(#5a325a6834)"><g clip-path="url(#da3ef1ee3e)"><path fill="#5acd00" d="M 30.539062 6.0625 L 214.492188 6.0625 L 214.492188 68.9375 L 30.539062 68.9375 Z M 30.539062 6.0625 " fill-opacity="1" fill-rule="nonzero"/></g></g><g clip-path="url(#1bf02019de)"><g clip-path="url(#8e8155cece)"><path stroke-linecap="butt" transform="matrix(0.7496, 0, 0, 0.7496, 30.539223, 6.063502)" fill="none" stroke-linejoin="miter" d="M 38.999759 -0.00133699 L 206.500576 -0.00133699 C 228.038107 -0.00133699 245.500548 17.461104 245.500548 38.998636 L 245.500548 44.876771 C 245.500548 66.414303 228.038107 83.876744 206.500576 83.876744 L 38.999759 83.876744 C 17.462227 83.876744 -0.000213916 66.414303 -0.000213916 44.876771 L -0.000213916 38.998636 C -0.000213916 17.461104 17.462227 -0.00133699 38.999759 -0.00133699 Z M 38.999759 -0.00133699 " stroke="#d9d9d9" stroke-width="2" stroke-opacity="1" stroke-miterlimit="4"/></g></g><g clip-path="url(#6e540493a1)"><path fill="#231f20" d="M 74.960938 37.5 C 74.960938 58.199219 58.179688 74.980469 37.480469 74.980469 C 16.78125 74.980469 0 58.199219 0 37.5 C 0 16.800781 16.78125 0.0195312 37.480469 0.0195312 C 58.179688 0.0195312 74.960938 16.800781 74.960938 37.5 Z M 74.960938 37.5 " fill-opacity="1" fill-rule="nonzero"/></g><path fill="#fed19a" d="M 25.070312 34.019531 L 26.226562 34.019531 C 26.777344 34.019531 27.269531 33.6875 27.472656 33.175781 C 27.910156 32.039062 29.375 29.761719 34.210938 26.429688 C 38.152344 23.734375 40.808594 19.53125 41.554688 14.816406 C 41.773438 13.347656 43.03125 12.261719 44.511719 12.257812 L 44.542969 12.257812 C 46.164062 12.257812 47.5 13.535156 47.566406 15.15625 C 47.710938 18.480469 47.371094 23.898438 44.160156 27.257812 L 58.109375 27.257812 C 59.976562 27.257812 61.492188 28.769531 61.492188 30.636719 C 61.492188 31.535156 61.132812 32.394531 60.5 33.027344 C 59.867188 33.664062 59.007812 34.019531 58.109375 34.019531 L 57.132812 34.078125 C 57.058594 34.082031 57.003906 34.140625 57.003906 34.214844 C 57.003906 34.292969 57.066406 34.355469 57.144531 34.355469 L 57.28125 34.355469 C 58.335938 34.351562 59.328125 34.839844 59.964844 35.675781 C 60.601562 36.511719 60.804688 37.597656 60.519531 38.609375 C 60.085938 39.84375 59.023438 40.746094 57.734375 40.972656 C 57.734375 40.972656 60.0625 41.675781 59.925781 44.726562 C 59.835938 46.828125 56.71875 47.195312 56.71875 47.195312 C 56.71875 47.195312 61.261719 52.707031 53.023438 54.980469 C 44.785156 57.253906 36.492188 55.859375 36.492188 55.859375 L 25.414062 54.699219 Z M 25.070312 34.019531 " fill-opacity="1" fill-rule="nonzero"/><path fill="#ffffff" d="M 22.429688 55.25 L 26.03125 55.25 L 26.03125 33.316406 L 22.429688 33.316406 Z M 22.429688 55.25 " fill-opacity="1" fill-rule="nonzero"/><path fill="#575b6d" d="M 14.640625 30.875 L 21.824219 30.875 C 22.476562 30.875 22.996094 31.398438 22.996094 32.046875 L 22.996094 56.886719 C 22.996094 57.535156 22.476562 58.054688 21.824219 58.054688 L 14.640625 58.054688 C 13.992188 58.054688 13.46875 57.535156 13.46875 56.886719 L 13.46875 32.046875 C 13.46875 31.398438 13.992188 30.875 14.640625 30.875 Z M 14.640625 30.875 " fill-opacity="1" fill-rule="nonzero"/><path fill="#eeefee" d="M 20.164062 35.921875 C 20.164062 36.984375 19.300781 37.851562 18.234375 37.851562 C 17.167969 37.851562 16.304688 36.984375 16.304688 35.921875 C 16.304688 34.851562 17.167969 33.988281 18.234375 33.988281 C 19.300781 33.988281 20.164062 34.851562 20.164062 35.921875 Z M 20.164062 35.921875 " fill-opacity="1" fill-rule="nonzero"/><g fill="#000000" fill-opacity="1"><g transform="translate(102.991605, 46.96831)"><g><path d="M 7.394531 0.246094 L 9.566406 0.300781 L 10.117188 0.246094 L 10.664062 0.109375 L 11.214844 0.0273438 L 11.765625 -0.191406 L 12.261719 -0.246094 L 12.78125 -0.496094 L 14.652344 -1.621094 L 15.449219 -2.445312 L 15.722656 -2.832031 L 16.027344 -3.4375 L 16.191406 -3.929688 L 16.355469 -4.398438 L 16.519531 -5.773438 L 16.464844 -6.652344 L 16.054688 -8.246094 L 15.75 -8.6875 L 15.035156 -9.511719 L 14.542969 -9.949219 L 14.101562 -10.171875 L 13.605469 -10.472656 L 11.464844 -11.132812 L 10.914062 -11.214844 L 10.363281 -11.242188 L 9.785156 -11.351562 L 8.988281 -11.351562 L 7.53125 -11.65625 L 6.515625 -12.148438 L 6.101562 -12.535156 L 5.992188 -13.359375 L 6.128906 -14.101562 L 6.460938 -14.460938 L 6.871094 -14.761719 L 7.3125 -15.007812 L 7.808594 -15.117188 L 8.6875 -15.148438 L 9.566406 -15.035156 L 10.0625 -14.898438 L 10.554688 -14.570312 L 11.023438 -14.183594 L 11.433594 -13.632812 L 12.039062 -13.277344 L 13.332031 -13.386719 L 14.074219 -13.332031 L 14.625 -13.332031 L 15.117188 -13.277344 L 15.640625 -13.664062 L 15.859375 -14.128906 L 15.75 -14.652344 L 15.695312 -15.175781 L 14.925781 -16.601562 L 14.320312 -17.429688 L 12.507812 -18.691406 L 10.96875 -19.214844 L 9.894531 -19.433594 L 7.78125 -19.488281 L 7.175781 -19.324219 L 6.625 -19.296875 L 6.128906 -19.214844 L 5.085938 -18.886719 L 4.152344 -18.335938 L 2.832031 -17.429688 L 1.871094 -16.136719 L 1.375 -14.625 L 1.292969 -13.277344 L 1.320312 -12.425781 L 1.511719 -11.324219 L 1.953125 -10.363281 L 2.96875 -9.097656 L 4.839844 -8.082031 L 5.828125 -7.753906 L 10.144531 -7.257812 L 11.132812 -6.789062 L 11.492188 -6.460938 L 11.65625 -5.773438 L 11.433594 -5.085938 L 11.078125 -4.671875 L 10.144531 -4.261719 L 9.292969 -4.207031 L 8.796875 -4.125 L 7.394531 -4.261719 L 6.925781 -4.507812 L 6.460938 -4.8125 L 5.554688 -5.800781 L 5.003906 -6.019531 L 4.507812 -5.964844 L 3.984375 -6.046875 L 1.871094 -5.9375 L 1.375 -5.71875 L 1.15625 -5.140625 L 1.238281 -4.589844 L 1.347656 -4.039062 L 1.511719 -3.546875 L 2.035156 -2.527344 L 2.417969 -2.171875 L 2.777344 -1.757812 L 3.738281 -1.15625 L 4.125 -0.742188 L 4.644531 -0.496094 L 5.195312 -0.328125 L 6.265625 0.0546875 Z M 7.394531 0.246094 "/></g></g></g><g fill="#000000" fill-opacity="1"><g transform="translate(120.52851, 46.96831)"><g><path d="M 9.207031 0.109375 L 10.308594 0.0546875 L 10.804688 -0.21875 L 11.078125 -0.742188 L 11.078125 -3.464844 L 10.75 -3.984375 L 10.144531 -4.289062 L 9.566406 -4.289062 L 8.90625 -4.507812 L 8.578125 -5.140625 L 8.660156 -5.664062 L 8.632812 -8.6875 L 8.6875 -9.292969 L 8.578125 -11.269531 L 8.6875 -14.046875 L 8.878906 -14.679688 L 9.484375 -14.925781 L 10.035156 -15.007812 L 10.609375 -15.230469 L 10.886719 -15.667969 L 10.914062 -18.390625 L 10.582031 -18.914062 L 10.089844 -19.214844 L 6.761719 -19.214844 L 6.265625 -19.269531 L 5.71875 -19.160156 L 3.464844 -19.160156 L 2.941406 -19.242188 L 2.308594 -19.242188 L 1.757812 -18.96875 L 1.484375 -18.308594 L 1.566406 -16.273438 L 1.511719 -15.75 L 1.8125 -15.203125 L 2.417969 -14.898438 L 2.96875 -14.898438 L 3.492188 -14.570312 L 3.738281 -13.828125 L 3.820312 -5.386719 L 3.519531 -4.5625 L 1.703125 -4.011719 L 1.402344 -3.519531 L 1.320312 -0.988281 L 1.59375 -0.246094 L 2.144531 0 L 2.667969 0 L 3.1875 -0.0546875 L 3.984375 0.0546875 L 4.839844 0.0273438 L 5.386719 -0.0273438 L 6.488281 0.0820312 L 7.3125 -0.0273438 L 8.660156 -0.0273438 Z M 9.207031 0.109375 "/></g></g></g><g fill="#000000" fill-opacity="1"><g transform="translate(133.00775, 46.96831)"><g><path d="M 2.859375 0.0820312 L 3.410156 0 L 4.480469 0.0546875 L 5.085938 -0.0273438 L 5.964844 0.0273438 L 6.734375 -0.300781 L 7.066406 -0.796875 L 6.980469 -3.683594 L 7.066406 -4.535156 L 7.039062 -5.113281 L 7.09375 -6.101562 L 7.039062 -6.707031 L 7.039062 -7.78125 L 7.285156 -8.027344 L 7.558594 -7.917969 L 8 -7.558594 L 8.328125 -7.148438 L 9.457031 -6.019531 L 9.8125 -5.582031 L 10.554688 -4.867188 L 11.132812 -4.453125 L 11.738281 -4.425781 L 12.289062 -4.839844 L 12.671875 -5.25 L 13.003906 -5.582031 L 13.773438 -6.488281 L 14.15625 -6.761719 L 15.285156 -7.917969 L 15.640625 -8.082031 L 15.859375 -7.667969 L 15.804688 -6.15625 L 15.890625 -5.058594 L 15.832031 -3.984375 L 15.890625 -2.96875 L 15.832031 -2.472656 L 15.890625 -1.238281 L 15.890625 -0.824219 L 16.109375 -0.191406 L 16.6875 -0.0273438 L 20.011719 0.0820312 L 20.589844 -0.21875 L 20.917969 -1.015625 L 20.835938 -2.445312 L 20.890625 -2.996094 L 20.835938 -11.242188 L 20.890625 -11.847656 L 20.863281 -14.570312 L 20.890625 -15.089844 L 20.835938 -16.273438 L 20.863281 -16.742188 L 20.835938 -17.867188 L 20.890625 -18.390625 L 20.5625 -18.96875 L 19.984375 -19.269531 L 19.1875 -19.023438 L 18.609375 -18.664062 L 17.457031 -17.457031 L 17.097656 -17.015625 L 16.769531 -16.714844 L 16.382812 -16.21875 L 13.964844 -13.746094 L 13.605469 -13.277344 L 11.929688 -11.574219 L 11.433594 -11.242188 L 10.859375 -11.464844 L 10.527344 -11.929688 L 10.144531 -12.316406 L 9.648438 -12.949219 L 9.042969 -13.496094 L 6.542969 -16.273438 L 6.15625 -16.601562 L 5.441406 -17.457031 L 5.003906 -17.839844 L 4.289062 -18.582031 L 3.65625 -19.050781 L 2.886719 -19.269531 L 2.28125 -18.996094 L 1.980469 -18.417969 L 2.0625 -16.742188 L 1.980469 -15.667969 L 2.035156 -15.175781 L 2.007812 -10.777344 L 2.0625 -10.226562 L 1.980469 -7.449219 L 2.035156 -6.925781 L 2.007812 -0.851562 L 2.308594 -0.273438 Z M 2.859375 0.0820312 "/></g></g></g></svg>