<svg xmlns="http://www.w3.org/2000/svg" xmlns:xlink="http://www.w3.org/1999/xlink" width="300" zoomAndPan="magnify" viewBox="0 0 224.87999 74.999997" height="100" preserveAspectRatio="xMidYMid meet" version="1.0"><defs><g/><clipPath id="ec7ed6e5cf"><path d="M 14.234375 11 L 50 11 L 50 64 L 14.234375 64 Z M 14.234375 11 " clip-rule="nonzero"/></clipPath></defs><g clip-path="url(#ec7ed6e5cf)"><path fill="#000000" d="M 14.234375 37.125 L 38.75 61.972656 C 43.488281 66.769531 53.210938 57.894531 47.507812 52.308594 L 31.996094 37.125 L 48.007812 22.191406 C 52.882812 17.644531 43.851562 8.3125 39.003906 13.03125 Z M 14.234375 37.125 " fill-opacity="1" fill-rule="nonzero"/></g><g fill="#000000" fill-opacity="1"><g transform="translate(71.87749, 48.743995)"><g><path d="M 11.6875 0.304688 L 12.503906 0.0351562 L 13.253906 -0.953125 L 13.695312 -1.902344 L 13.898438 -2.617188 L 14.542969 -3.703125 L 14.746094 -4.382812 L 15.085938 -5.097656 L 15.289062 -5.675781 L 15.664062 -6.285156 L 16.988281 -9.378906 L 17.226562 -10.125 L 17.839844 -11.214844 L 20.796875 -18.214844 L 21.136719 -18.824219 L 21.710938 -20.046875 L 21.882812 -20.695312 L 22.527344 -21.882812 L 22.765625 -22.800781 L 22.597656 -23.515625 L 21.984375 -23.648438 L 21.269531 -23.71875 L 20.660156 -23.820312 L 20.015625 -23.75 L 19.335938 -23.71875 L 18.042969 -23.855469 L 17.296875 -23.410156 L 16.71875 -22.835938 L 13.558594 -15.359375 L 13.355469 -14.644531 L 13.046875 -14.066406 L 12.914062 -13.457031 L 12.574219 -12.84375 L 11.894531 -10.941406 L 11.554688 -10.328125 L 11.179688 -10.398438 L 10.328125 -12.234375 L 10.195312 -12.878906 L 9.617188 -14.035156 L 7.917969 -18.449219 L 7.035156 -20.25 L 6.082031 -22.835938 L 5.503906 -23.410156 L 4.722656 -23.75 L 2.785156 -23.820312 L 2.105469 -23.71875 L 0.816406 -23.71875 L 0.273438 -23.480469 L 0 -22.800781 L 1.085938 -19.910156 L 1.425781 -19.402344 L 1.597656 -18.757812 L 1.867188 -18.078125 L 2.242188 -17.566406 L 2.480469 -16.855469 L 5.539062 -9.988281 L 5.742188 -9.308594 L 6.59375 -7.542969 L 6.828125 -6.828125 L 7.40625 -5.675781 L 7.78125 -5.0625 L 7.953125 -4.382812 L 9.308594 -1.15625 L 9.617188 -0.644531 L 10.296875 -0.0664062 L 11.042969 0.203125 Z M 11.6875 0.304688 "/></g></g></g><g fill="#000000" fill-opacity="1"><g transform="translate(94.77864, 48.743995)"><g><path d="M 13.625 0.441406 L 16.648438 0.136719 L 17.941406 -0.273438 L 20.964844 -1.632812 L 23.34375 -3.90625 L 23.785156 -4.519531 L 25.109375 -6.863281 L 25.347656 -7.507812 L 25.449219 -8.1875 L 25.65625 -8.734375 L 25.789062 -9.480469 L 25.960938 -11.859375 L 25.789062 -14.203125 L 25.519531 -15.460938 L 25.246094 -16.175781 L 25.078125 -16.957031 L 24.464844 -18.078125 L 24.226562 -18.6875 L 23.785156 -19.265625 L 23.378906 -19.675781 L 22.9375 -20.285156 L 21.476562 -21.609375 L 19.742188 -22.699219 L 15.289062 -24.089844 L 13.695312 -24.125 L 11.316406 -23.988281 L 10.636719 -23.855469 L 9.957031 -23.648438 L 9.34375 -23.378906 L 8.054688 -23.039062 L 6.320312 -21.949219 L 5.84375 -21.542969 L 4.757812 -20.796875 L 3.839844 -19.777344 L 2.683594 -18.078125 L 2.378906 -17.5 L 1.734375 -15.628906 L 1.460938 -14.167969 L 1.324219 -10.226562 L 1.699219 -8.085938 L 2.207031 -6.933594 L 2.414062 -6.21875 L 2.753906 -5.605469 L 4.347656 -3.433594 L 5.300781 -2.515625 L 5.742188 -2.003906 L 8.054688 -0.78125 L 8.699219 -0.507812 L 11.585938 0.339844 Z M 12.675781 -5.539062 L 11.996094 -5.777344 L 11.382812 -5.84375 L 10.226562 -6.457031 L 9.175781 -7.375 L 8.835938 -7.847656 L 8.394531 -8.324219 L 7.746094 -10.226562 L 7.578125 -11.925781 L 7.613281 -12.945312 L 7.847656 -14.203125 L 8.054688 -14.816406 L 8.460938 -15.289062 L 8.765625 -15.867188 L 9.207031 -16.410156 L 9.71875 -16.855469 L 10.703125 -17.535156 L 11.316406 -17.839844 L 12.027344 -18.007812 L 13.589844 -18.144531 L 15.222656 -18.042969 L 17.023438 -17.261719 L 18.078125 -16.480469 L 18.859375 -15.324219 L 19.128906 -14.714844 L 19.335938 -14.035156 L 19.570312 -13.421875 L 19.707031 -11.960938 L 19.503906 -10.261719 L 19.199219 -8.867188 L 18.824219 -8.359375 L 18.519531 -7.847656 L 18.109375 -7.238281 L 17.058594 -6.421875 L 16.445312 -6.148438 L 15.902344 -5.84375 L 15.289062 -5.777344 L 14.644531 -5.605469 Z M 12.675781 -5.539062 "/></g></g></g><g fill="#000000" fill-opacity="1"><g transform="translate(122.02897, 48.743995)"><g><path d="M 2.582031 -1.222656 L 2.820312 -0.339844 L 3.464844 0 L 4.144531 0.0664062 L 5.574219 -0.0351562 L 6.898438 0.0351562 L 8.1875 -0.0351562 L 8.835938 0.0664062 L 9.582031 0 L 16.308594 0.0351562 L 16.957031 -0.304688 L 17.328125 -1.359375 L 17.296875 -4.113281 L 16.988281 -5.132812 L 16.378906 -5.539062 L 15.664062 -5.46875 L 15.019531 -5.335938 L 14.304688 -5.4375 L 12.914062 -5.402344 L 12.234375 -5.539062 L 11.621094 -5.4375 L 10.296875 -5.503906 L 9.582031 -5.4375 L 8.902344 -5.707031 L 8.628906 -6.386719 L 8.664062 -17.90625 L 8.597656 -18.722656 L 8.664062 -20.082031 L 8.5625 -22.019531 L 8.597656 -22.664062 L 8.257812 -23.410156 L 7.578125 -23.820312 L 6.253906 -23.820312 L 5.574219 -23.683594 L 4.214844 -23.820312 L 3.566406 -23.71875 L 2.855469 -23.445312 L 2.546875 -22.699219 L 2.546875 -17.941406 L 2.480469 -17.296875 L 2.546875 -16.617188 L 2.445312 -15.359375 L 2.480469 -14.609375 L 2.546875 -13.964844 Z M 2.582031 -1.222656 "/></g></g></g><g fill="#000000" fill-opacity="1"><g transform="translate(140.309116, 48.743995)"><g><path d="M 8.867188 0.0664062 L 11.144531 0 L 12.128906 -0.339844 L 12.46875 -1.292969 L 12.574219 -3.058594 L 12.46875 -4.347656 L 12.539062 -5.0625 L 12.503906 -6.421875 L 12.574219 -7.035156 L 12.46875 -7.78125 L 12.539062 -13.253906 L 12.4375 -13.964844 L 12.539062 -16.921875 L 12.808594 -17.941406 L 13.457031 -18.347656 L 14.78125 -18.417969 L 16.039062 -18.246094 L 16.75 -18.347656 L 17.363281 -18.316406 L 17.941406 -18.6875 L 18.347656 -19.4375 L 18.382812 -22.664062 L 18.007812 -23.34375 L 17.363281 -23.785156 L 15.257812 -23.785156 L 14.609375 -23.855469 L 13.898438 -23.75 L 13.253906 -23.820312 L 10.5 -23.683594 L 9.820312 -23.820312 L 9.175781 -23.855469 L 8.460938 -23.75 L 7.714844 -23.820312 L 7.101562 -23.683594 L 5.097656 -23.785156 L 4.042969 -23.683594 L 1.664062 -23.820312 L 1.019531 -23.480469 L 0.613281 -22.699219 L 0.644531 -22.019531 L 0.578125 -20.320312 L 0.644531 -19.265625 L 0.953125 -18.65625 L 1.5625 -18.316406 L 2.242188 -18.382812 L 5.46875 -18.316406 L 6.117188 -17.976562 L 6.488281 -17.296875 L 6.421875 -16.207031 L 6.488281 -15.257812 L 6.457031 -14.507812 L 6.488281 -13.828125 L 6.421875 -12.878906 L 6.523438 -7.816406 L 6.457031 -7.136719 L 6.421875 -4.382812 L 6.488281 -3.667969 L 6.457031 -1.699219 L 6.386719 -1.054688 L 6.828125 -0.304688 L 7.816406 0.0351562 Z M 8.867188 0.0664062 "/></g></g></g><g fill="#000000" fill-opacity="1"><g transform="translate(159.302797, 48.743995)"><g><path d="M 20.046875 0.0664062 L 21.339844 -0.0351562 L 21.984375 0.0351562 L 23.039062 0 L 23.988281 -0.167969 L 24.089844 -0.984375 L 23.855469 -1.765625 L 23.34375 -3.023438 L 22.425781 -4.792969 L 21.949219 -6.046875 L 21.269531 -7.273438 L 19.980469 -10.363281 L 19.640625 -10.875 L 19.300781 -11.519531 L 19.097656 -12.265625 L 18.789062 -12.777344 L 18.585938 -13.320312 L 17.875 -14.578125 L 17.636719 -15.289062 L 15.394531 -20.015625 L 15.1875 -20.695312 L 14.816406 -21.304688 L 14.609375 -21.917969 L 13.964844 -23.105469 L 13.386719 -23.71875 L 12.265625 -24.058594 L 11.179688 -23.683594 L 10.566406 -23.105469 L 10.261719 -22.527344 L 10.023438 -21.847656 L 9.71875 -21.371094 L 8.359375 -18.246094 L 7.984375 -17.738281 L 7.816406 -17.058594 L 7.441406 -16.410156 L 7.238281 -15.800781 L 3.773438 -8.527344 L 3.566406 -7.78125 L 3.226562 -7.273438 L 2.988281 -6.59375 L 2.378906 -5.503906 L 1.867188 -4.144531 L 1.496094 -3.667969 L 1.324219 -3.058594 L 0.644531 -1.699219 L 0.441406 -1.019531 L 0.613281 -0.167969 L 1.292969 0.0351562 L 2.617188 -0.0351562 L 3.296875 0.0351562 L 5.199219 -0.0351562 L 5.980469 -0.273438 L 6.625 -0.882812 L 7.238281 -2.003906 L 7.882812 -2.652344 L 8.597656 -3.023438 L 9.242188 -2.921875 L 10.667969 -3.058594 L 11.28125 -2.957031 L 14.609375 -2.988281 L 15.222656 -2.921875 L 15.96875 -3.023438 L 16.71875 -2.652344 L 17.363281 -2.105469 L 17.667969 -1.460938 L 17.875 -0.847656 L 18.554688 -0.339844 L 19.335938 0 Z M 12.335938 -8.394531 L 11.65625 -8.527344 L 10.875 -8.460938 L 10.328125 -8.699219 L 10.296875 -9.34375 L 11.894531 -13.015625 L 12.265625 -13.320312 L 12.742188 -13.046875 L 14.339844 -9.308594 L 14.203125 -8.699219 L 13.695312 -8.425781 Z M 12.335938 -8.394531 "/></g></g></g><g fill="#000000" fill-opacity="1"><g transform="translate(183.970807, 48.743995)"><g><path d="M 2.546875 -1.394531 L 2.886719 -0.339844 L 3.875 0.101562 L 4.554688 0 L 5.640625 0.101562 L 6.183594 0.0351562 L 7.203125 0.0351562 L 8.289062 -0.304688 L 8.597656 -1.292969 L 8.597656 -2.445312 L 8.664062 -3.058594 L 8.5625 -3.773438 L 8.628906 -5.945312 L 8.9375 -6.625 L 9.582031 -7 L 11.554688 -6.726562 L 12.234375 -6.148438 L 12.640625 -5.46875 L 12.914062 -4.859375 L 13.625 -3.839844 L 14.269531 -2.617188 L 14.644531 -2.105469 L 14.917969 -1.425781 L 15.289062 -0.847656 L 16.039062 -0.238281 L 17.195312 0.0664062 L 19.878906 0.0351562 L 20.523438 0.101562 L 21.644531 0.0664062 L 22.289062 -0.238281 L 22.496094 -0.984375 L 22.121094 -1.734375 L 21.710938 -2.207031 L 21.441406 -2.855469 L 20.285156 -4.585938 L 19.980469 -5.199219 L 18.890625 -6.964844 L 18.484375 -7.476562 L 18.449219 -8.289062 L 18.757812 -9.039062 L 19.230469 -9.546875 L 19.707031 -9.957031 L 21.035156 -12.335938 L 21.476562 -14.304688 L 21.40625 -16.445312 L 21.304688 -17.125 L 20.695312 -19.0625 L 20.421875 -19.640625 L 20.046875 -20.183594 L 18.109375 -22.222656 L 16.921875 -22.867188 L 15.628906 -23.308594 L 13.695312 -23.75 L 12.605469 -23.785156 L 11.621094 -23.71875 L 9.582031 -23.71875 L 8.902344 -23.855469 L 8.222656 -23.855469 L 7.613281 -23.683594 L 6.933594 -23.683594 L 6.253906 -23.820312 L 5.503906 -23.855469 L 3.5 -23.683594 L 2.886719 -23.34375 L 2.480469 -22.390625 L 2.515625 -14.609375 L 2.582031 -13.929688 L 2.480469 -12.574219 L 2.515625 -11.824219 L 2.515625 -11.144531 L 2.582031 -10.5 L 2.515625 -9.855469 L 2.480469 -7.101562 L 2.546875 -6.421875 Z M 9.582031 -12.4375 L 8.902344 -12.808594 L 8.628906 -13.355469 L 8.628906 -15.394531 L 8.5625 -15.96875 L 8.628906 -17.398438 L 8.9375 -18.042969 L 9.648438 -18.316406 L 10.328125 -18.28125 L 11.6875 -18.417969 L 12.640625 -18.214844 L 13.523438 -18.144531 L 14.167969 -17.976562 L 15.019531 -16.921875 L 15.222656 -16.378906 L 15.359375 -15.496094 L 15.257812 -14.476562 L 14.949219 -13.796875 L 14.578125 -13.285156 L 14.203125 -12.980469 L 13.589844 -12.707031 L 12.605469 -12.46875 L 11.960938 -12.4375 L 10.328125 -12.503906 Z M 9.582031 -12.4375 "/></g></g></g></svg>