<svg xmlns="http://www.w3.org/2000/svg" xmlns:xlink="http://www.w3.org/1999/xlink" width="500" zoomAndPan="magnify" viewBox="0 0 375 37.5" height="50" preserveAspectRatio="xMidYMid meet" version="1.0"><defs><g/><clipPath id="92aa7e72ec"><path d="M 2.46875 25 L 372.53125 25 L 372.53125 25.492188 L 2.46875 25.492188 Z M 112.738281 25.492188 L 229.046875 25.492188 L 229.046875 28.832031 L 112.738281 28.832031 Z M 321.125 25.492188 L 372.53125 25.492188 L 372.53125 28.832031 L 321.125 28.832031 Z M 236.347656 25.492188 L 313.824219 25.492188 L 313.824219 28.832031 L 236.347656 28.832031 Z M 2.46875 25.492188 L 105.441406 25.492188 L 105.441406 28.832031 L 2.46875 28.832031 Z M 2.46875 28.832031 L 372.53125 28.832031 L 372.53125 29 L 2.46875 29 Z M 2.46875 28.832031 " clip-rule="nonzero"/></clipPath></defs><g clip-path="url(#92aa7e72ec)"><path fill="#000000" d="M 2.46875 25.890625 L 372.53125 25.890625 L 372.53125 28.273438 L 2.46875 28.273438 Z M 2.46875 25.890625 " fill-opacity="1" fill-rule="nonzero"/></g><g fill="#000000" fill-opacity="1"><g transform="translate(2.467105, 24.298839)"><g><path d="M 7.25 -15.011719 C 6.820312 -15.011719 6.4375 -14.882812 6.105469 -14.679688 C 5.777344 -14.453125 5.546875 -14.148438 5.417969 -13.789062 L 0.839844 -1.527344 C 0.789062 -1.375 0.761719 -1.246094 0.761719 -1.09375 C 0.761719 -0.761719 0.863281 -0.507812 1.070312 -0.304688 C 1.273438 -0.101562 1.527344 0 1.855469 0 C 2.390625 0 2.746094 -0.230469 2.925781 -0.6875 L 3.96875 -3.535156 L 10.558594 -3.535156 L 11.601562 -0.6875 C 11.753906 -0.230469 12.109375 0 12.671875 0 C 12.976562 0 13.257812 -0.101562 13.460938 -0.304688 C 13.664062 -0.507812 13.765625 -0.761719 13.765625 -1.09375 C 13.765625 -1.246094 13.738281 -1.375 13.6875 -1.527344 L 9.109375 -13.789062 C 8.957031 -14.148438 8.726562 -14.453125 8.394531 -14.679688 C 8.039062 -14.882812 7.660156 -15.011719 7.25 -15.011719 Z M 4.757812 -5.625 L 7.25 -12.417969 L 9.769531 -5.625 Z M 4.757812 -5.625 "/></g></g></g><g fill="#000000" fill-opacity="1"><g transform="translate(16.995547, 24.298839)"><g><path d="M 1.703125 -13 C 1.703125 -12.695312 1.804688 -12.46875 2.011719 -12.265625 C 2.214844 -12.058594 2.441406 -11.957031 2.746094 -11.957031 C 3.027344 -11.957031 3.28125 -12.058594 3.484375 -12.265625 C 3.6875 -12.46875 3.816406 -12.695312 3.816406 -13 C 3.816406 -13.28125 3.6875 -13.535156 3.484375 -13.738281 C 3.28125 -13.941406 3.027344 -14.070312 2.746094 -14.070312 C 2.441406 -14.070312 2.214844 -13.941406 2.011719 -13.738281 C 1.804688 -13.535156 1.703125 -13.28125 1.703125 -13 Z M 1.652344 -9.183594 L 1.652344 -1.121094 C 1.652344 -0.8125 1.753906 -0.535156 1.960938 -0.332031 C 2.164062 -0.101562 2.441406 0 2.746094 0 C 3.054688 0 3.308594 -0.101562 3.535156 -0.332031 C 3.742188 -0.535156 3.867188 -0.8125 3.867188 -1.121094 L 3.867188 -9.183594 C 3.867188 -9.492188 3.742188 -9.746094 3.535156 -9.972656 C 3.308594 -10.175781 3.054688 -10.304688 2.746094 -10.304688 C 2.441406 -10.304688 2.164062 -10.175781 1.960938 -9.972656 C 1.753906 -9.746094 1.652344 -9.492188 1.652344 -9.183594 Z M 1.652344 -9.183594 "/></g></g></g><g fill="#000000" fill-opacity="1"><g transform="translate(22.516866, 24.298839)"><g><path d="M 1.527344 -9.183594 L 1.527344 -1.121094 C 1.527344 -0.8125 1.628906 -0.535156 1.832031 -0.332031 C 2.035156 -0.101562 2.316406 0 2.621094 0 C 2.925781 0 3.179688 -0.101562 3.410156 -0.332031 C 3.613281 -0.535156 3.742188 -0.8125 3.742188 -1.121094 L 3.742188 -6.488281 L 3.84375 -6.667969 C 3.894531 -6.792969 4.019531 -6.945312 4.171875 -7.148438 C 4.324219 -7.328125 4.527344 -7.507812 4.734375 -7.710938 C 4.9375 -7.886719 5.214844 -8.039062 5.546875 -8.167969 C 5.878906 -8.292969 6.234375 -8.371094 6.617188 -8.371094 C 7.148438 -8.371094 7.632812 -8.191406 8.066406 -7.886719 C 8.472656 -7.582031 8.703125 -7.074219 8.703125 -6.386719 L 8.703125 -1.121094 C 8.703125 -0.8125 8.804688 -0.535156 9.007812 -0.332031 C 9.210938 -0.101562 9.492188 0 9.796875 0 C 10.101562 0 10.355469 -0.101562 10.585938 -0.332031 C 10.789062 -0.535156 10.914062 -0.8125 10.914062 -1.121094 L 10.914062 -6.667969 C 10.914062 -7.683594 10.535156 -8.574219 9.796875 -9.335938 C 9.03125 -10.074219 8.21875 -10.457031 7.328125 -10.457031 C 5.800781 -10.457031 4.605469 -10 3.742188 -9.132812 C 3.585938 -9.898438 3.207031 -10.304688 2.621094 -10.304688 C 2.316406 -10.304688 2.035156 -10.175781 1.832031 -9.972656 C 1.628906 -9.746094 1.527344 -9.492188 1.527344 -9.183594 Z M 1.527344 -9.183594 "/></g></g></g><g fill="#000000" fill-opacity="1"><g transform="translate(34.831699, 24.298839)"><g><path d="M 8.957031 -1.144531 C 8.980469 -0.789062 9.082031 -0.507812 9.285156 -0.304688 C 9.492188 -0.101562 9.746094 0 10.050781 0 C 10.355469 0 10.609375 -0.101562 10.839844 -0.332031 C 11.042969 -0.535156 11.167969 -0.8125 11.167969 -1.121094 L 11.167969 -13.890625 C 11.167969 -14.199219 11.042969 -14.453125 10.839844 -14.679688 C 10.609375 -14.882812 10.355469 -15.011719 10.050781 -15.011719 C 9.746094 -15.011719 9.464844 -14.882812 9.261719 -14.679688 C 9.058594 -14.453125 8.957031 -14.199219 8.957031 -13.890625 L 8.957031 -9.160156 C 8.242188 -10.023438 7.199219 -10.457031 5.851562 -10.457031 C 4.554688 -10.457031 3.433594 -10 2.519531 -9.132812 C 1.601562 -8.269531 1.144531 -6.996094 1.144531 -5.316406 C 1.144531 -3.382812 1.578125 -2.011719 2.492188 -1.144531 C 3.410156 -0.28125 4.453125 0.152344 5.648438 0.152344 C 7.074219 0.152344 8.167969 -0.28125 8.957031 -1.144531 Z M 8.90625 -6.335938 L 8.90625 -3.96875 L 8.675781 -3.460938 C 8.523438 -3.105469 8.21875 -2.773438 7.785156 -2.441406 C 7.328125 -2.085938 6.820312 -1.933594 6.234375 -1.933594 C 5.980469 -1.933594 5.75 -1.933594 5.597656 -1.960938 C 5.445312 -1.960938 5.191406 -2.035156 4.886719 -2.164062 C 4.554688 -2.265625 4.300781 -2.441406 4.121094 -2.644531 C 3.917969 -2.851562 3.742188 -3.207031 3.585938 -3.664062 C 3.433594 -4.121094 3.359375 -4.65625 3.359375 -5.316406 C 3.359375 -5.953125 3.460938 -6.488281 3.664062 -6.945312 C 3.867188 -7.402344 4.148438 -7.710938 4.503906 -7.914062 C 4.835938 -8.089844 5.140625 -8.21875 5.417969 -8.269531 C 5.675781 -8.320312 5.953125 -8.371094 6.234375 -8.371094 C 6.589844 -8.371094 6.945312 -8.292969 7.277344 -8.140625 C 7.582031 -7.988281 7.835938 -7.835938 8.039062 -7.660156 C 8.21875 -7.480469 8.371094 -7.277344 8.523438 -7.046875 C 8.675781 -6.792969 8.753906 -6.640625 8.804688 -6.539062 C 8.855469 -6.4375 8.878906 -6.386719 8.90625 -6.335938 Z M 8.90625 -6.335938 "/></g></g></g><g fill="#000000" fill-opacity="1"><g transform="translate(47.528186, 24.298839)"><g><path d="M 8.242188 -1.09375 C 8.242188 -0.789062 8.34375 -0.507812 8.550781 -0.304688 C 8.753906 -0.101562 9.03125 0 9.335938 0 C 9.644531 0 9.898438 -0.101562 10.125 -0.304688 C 10.332031 -0.507812 10.457031 -0.789062 10.457031 -1.09375 L 10.457031 -6.234375 C 10.457031 -7.582031 10 -8.625 9.132812 -9.363281 C 8.269531 -10.074219 7.046875 -10.457031 5.46875 -10.457031 C 4.351562 -10.457031 3.433594 -10.355469 2.746094 -10.152344 C 2.265625 -10.023438 2.035156 -9.695312 2.035156 -9.183594 C 2.035156 -8.878906 2.113281 -8.652344 2.316406 -8.472656 C 2.492188 -8.292969 2.722656 -8.21875 3.003906 -8.21875 C 3.5625 -8.320312 4.046875 -8.371094 4.503906 -8.371094 C 5.929688 -8.371094 6.894531 -8.167969 7.429688 -7.785156 C 7.964844 -7.402344 8.242188 -6.871094 8.242188 -6.15625 L 8.242188 -5.316406 C 7.148438 -6.003906 5.878906 -6.359375 4.402344 -6.359375 C 3.28125 -6.359375 2.441406 -6.054688 1.882812 -5.46875 C 1.296875 -4.886719 1.019531 -4.148438 1.019531 -3.257812 C 1.019531 -2.644531 1.121094 -2.136719 1.324219 -1.703125 C 1.527344 -1.246094 1.753906 -0.914062 2.035156 -0.6875 C 2.289062 -0.457031 2.59375 -0.28125 2.953125 -0.152344 C 3.28125 0 3.5625 0.078125 3.765625 0.101562 C 3.96875 0.152344 4.171875 0.152344 4.324219 0.152344 L 4.628906 0.152344 C 6.183594 0.152344 7.378906 -0.253906 8.242188 -1.09375 Z M 8.242188 -3.511719 L 8.242188 -2.902344 L 8.039062 -2.644531 C 7.886719 -2.492188 7.582031 -2.316406 7.125 -2.164062 C 6.667969 -2.011719 6.105469 -1.933594 5.496094 -1.933594 C 3.96875 -1.933594 3.230469 -2.339844 3.230469 -3.179688 C 3.230469 -3.585938 3.382812 -3.894531 3.6875 -4.097656 C 3.996094 -4.300781 4.578125 -4.402344 5.496094 -4.402344 C 6.691406 -4.402344 7.609375 -4.097656 8.242188 -3.511719 Z M 8.242188 -3.511719 "/></g></g></g><g fill="#000000" fill-opacity="1"><g transform="translate(59.512249, 24.298839)"><g/></g></g><g fill="#000000" fill-opacity="1"><g transform="translate(64.575577, 24.298839)"><g><path d="M 1.527344 -9.183594 L 1.527344 -1.121094 C 1.527344 -0.8125 1.628906 -0.535156 1.832031 -0.332031 C 2.035156 -0.101562 2.316406 0 2.621094 0 C 2.925781 0 3.179688 -0.101562 3.410156 -0.332031 C 3.613281 -0.535156 3.742188 -0.8125 3.742188 -1.121094 L 3.742188 -6.488281 L 3.84375 -6.667969 C 3.894531 -6.792969 4.019531 -6.945312 4.171875 -7.148438 C 4.324219 -7.328125 4.527344 -7.507812 4.734375 -7.710938 C 4.9375 -7.886719 5.214844 -8.039062 5.546875 -8.167969 C 5.878906 -8.292969 6.234375 -8.371094 6.617188 -8.371094 C 7.148438 -8.371094 7.632812 -8.191406 8.066406 -7.886719 C 8.472656 -7.582031 8.703125 -7.074219 8.703125 -6.386719 L 8.703125 -1.121094 C 8.703125 -0.8125 8.804688 -0.535156 9.007812 -0.332031 C 9.210938 -0.101562 9.492188 0 9.796875 0 C 10.101562 0 10.355469 -0.101562 10.585938 -0.332031 C 10.789062 -0.535156 10.914062 -0.8125 10.914062 -1.121094 L 10.914062 -6.667969 C 10.914062 -7.683594 10.535156 -8.574219 9.796875 -9.335938 C 9.03125 -10.074219 8.21875 -10.457031 7.328125 -10.457031 C 5.800781 -10.457031 4.605469 -10 3.742188 -9.132812 C 3.585938 -9.898438 3.207031 -10.304688 2.621094 -10.304688 C 2.316406 -10.304688 2.035156 -10.175781 1.832031 -9.972656 C 1.628906 -9.746094 1.527344 -9.492188 1.527344 -9.183594 Z M 1.527344 -9.183594 "/></g></g></g><g fill="#000000" fill-opacity="1"><g transform="translate(76.89041, 24.298839)"><g><path d="M 7.453125 -12.164062 C 7.761719 -12.164062 7.988281 -12.164062 8.117188 -12.1875 C 8.320312 -12.238281 8.523438 -12.367188 8.675781 -12.570312 C 8.828125 -12.746094 8.90625 -12.949219 8.90625 -13.207031 C 8.90625 -13.460938 8.804688 -13.6875 8.601562 -13.890625 C 8.394531 -14.097656 8.167969 -14.199219 7.914062 -14.199219 L 7.558594 -14.199219 C 7.175781 -14.199219 6.667969 -14.351562 6.003906 -14.65625 C 5.34375 -14.960938 4.835938 -15.140625 4.453125 -15.140625 C 4.300781 -15.140625 4.121094 -15.113281 3.894531 -15.089844 C 3.664062 -15.011719 3.484375 -14.882812 3.332031 -14.707031 C 3.179688 -14.503906 3.105469 -14.300781 3.105469 -14.070312 C 3.105469 -13.789062 3.179688 -13.5625 3.382812 -13.359375 C 3.585938 -13.15625 3.816406 -13.078125 4.097656 -13.078125 L 4.453125 -13.078125 C 4.808594 -13.078125 5.292969 -12.925781 5.953125 -12.621094 C 6.589844 -12.316406 7.097656 -12.164062 7.453125 -12.164062 Z M 8.242188 -1.09375 C 8.242188 -0.789062 8.34375 -0.507812 8.550781 -0.304688 C 8.753906 -0.101562 9.03125 0 9.335938 0 C 9.644531 0 9.898438 -0.101562 10.125 -0.304688 C 10.332031 -0.507812 10.457031 -0.789062 10.457031 -1.09375 L 10.457031 -6.234375 C 10.457031 -7.582031 10 -8.625 9.132812 -9.363281 C 8.269531 -10.074219 7.046875 -10.457031 5.46875 -10.457031 C 4.351562 -10.457031 3.433594 -10.355469 2.746094 -10.152344 C 2.265625 -10.023438 2.035156 -9.695312 2.035156 -9.183594 C 2.035156 -8.878906 2.113281 -8.652344 2.316406 -8.472656 C 2.492188 -8.292969 2.722656 -8.21875 3.003906 -8.21875 C 3.5625 -8.320312 4.046875 -8.371094 4.503906 -8.371094 C 5.929688 -8.371094 6.894531 -8.167969 7.429688 -7.785156 C 7.964844 -7.402344 8.242188 -6.871094 8.242188 -6.15625 L 8.242188 -5.316406 C 7.148438 -6.003906 5.878906 -6.359375 4.402344 -6.359375 C 3.28125 -6.359375 2.441406 -6.054688 1.882812 -5.46875 C 1.296875 -4.886719 1.019531 -4.148438 1.019531 -3.257812 C 1.019531 -2.644531 1.121094 -2.136719 1.324219 -1.703125 C 1.527344 -1.246094 1.753906 -0.914062 2.035156 -0.6875 C 2.289062 -0.457031 2.59375 -0.28125 2.953125 -0.152344 C 3.28125 0 3.5625 0.078125 3.765625 0.101562 C 3.96875 0.152344 4.171875 0.152344 4.324219 0.152344 L 4.628906 0.152344 C 6.183594 0.152344 7.378906 -0.253906 8.242188 -1.09375 Z M 8.242188 -3.511719 L 8.242188 -2.902344 L 8.039062 -2.644531 C 7.886719 -2.492188 7.582031 -2.316406 7.125 -2.164062 C 6.667969 -2.011719 6.105469 -1.933594 5.496094 -1.933594 C 3.96875 -1.933594 3.230469 -2.339844 3.230469 -3.179688 C 3.230469 -3.585938 3.382812 -3.894531 3.6875 -4.097656 C 3.996094 -4.300781 4.578125 -4.402344 5.496094 -4.402344 C 6.691406 -4.402344 7.609375 -4.097656 8.242188 -3.511719 Z M 8.242188 -3.511719 "/></g></g></g><g fill="#000000" fill-opacity="1"><g transform="translate(88.874473, 24.298839)"><g><path d="M 6.257812 0.152344 C 6.667969 0.152344 7.097656 0.128906 7.53125 0.0273438 C 7.964844 -0.078125 8.421875 -0.253906 8.878906 -0.507812 C 9.335938 -0.761719 9.769531 -1.070312 10.125 -1.476562 C 10.484375 -1.855469 10.761719 -2.367188 11.015625 -3.027344 C 11.246094 -3.6875 11.375 -4.425781 11.375 -5.265625 C 11.375 -6.945312 10.839844 -8.21875 9.769531 -9.109375 C 8.703125 -10 7.53125 -10.457031 6.257812 -10.457031 C 4.960938 -10.457031 3.792969 -10 2.722656 -9.109375 C 1.652344 -8.21875 1.144531 -6.945312 1.144531 -5.265625 C 1.144531 -4.425781 1.246094 -3.6875 1.5 -3.027344 C 1.730469 -2.367188 2.035156 -1.855469 2.390625 -1.476562 C 2.746094 -1.070312 3.15625 -0.761719 3.613281 -0.507812 C 4.070312 -0.253906 4.527344 -0.078125 4.960938 0.0273438 C 5.394531 0.128906 5.828125 0.152344 6.257812 0.152344 Z M 6.257812 -1.933594 C 4.324219 -1.933594 3.359375 -3.027344 3.359375 -5.214844 C 3.359375 -6.308594 3.636719 -7.097656 4.222656 -7.609375 C 4.808594 -8.117188 5.496094 -8.371094 6.257812 -8.371094 C 7.023438 -8.371094 7.683594 -8.117188 8.269531 -7.609375 C 8.855469 -7.097656 9.160156 -6.308594 9.160156 -5.214844 C 9.160156 -3.027344 8.191406 -1.933594 6.257812 -1.933594 Z M 6.257812 -1.933594 "/></g></g></g><g fill="#000000" fill-opacity="1"><g transform="translate(101.392854, 24.298839)"><g/></g></g><g fill="#000000" fill-opacity="1"><g transform="translate(106.456181, 24.298839)"><g><path d="M 1.527344 -9.183594 L 1.527344 3.84375 C 1.527344 4.148438 1.628906 4.425781 1.832031 4.628906 C 2.035156 4.859375 2.316406 4.960938 2.621094 4.960938 C 2.925781 4.960938 3.179688 4.859375 3.410156 4.628906 C 3.613281 4.425781 3.742188 4.148438 3.742188 3.84375 L 3.742188 -1.144531 C 4.503906 -0.28125 5.625 0.152344 7.046875 0.152344 C 8.21875 0.152344 9.261719 -0.28125 10.175781 -1.144531 C 11.09375 -2.011719 11.550781 -3.382812 11.550781 -5.316406 C 11.550781 -6.996094 11.066406 -8.269531 10.152344 -9.132812 C 9.234375 -10 8.117188 -10.457031 6.84375 -10.457031 C 5.46875 -10.457031 4.453125 -10.023438 3.742188 -9.160156 C 3.585938 -9.921875 3.207031 -10.304688 2.621094 -10.304688 C 2.316406 -10.304688 2.035156 -10.175781 1.832031 -9.972656 C 1.628906 -9.746094 1.527344 -9.492188 1.527344 -9.183594 Z M 3.792969 -3.96875 L 3.792969 -6.335938 L 4.019531 -6.84375 C 4.171875 -7.175781 4.453125 -7.507812 4.910156 -7.863281 C 5.34375 -8.191406 5.851562 -8.371094 6.460938 -8.371094 C 6.71875 -8.371094 6.996094 -8.320312 7.277344 -8.269531 C 7.53125 -8.21875 7.835938 -8.089844 8.191406 -7.914062 C 8.523438 -7.710938 8.804688 -7.402344 9.007812 -6.945312 C 9.210938 -6.488281 9.335938 -5.953125 9.335938 -5.316406 C 9.335938 -4.65625 9.234375 -4.121094 9.082031 -3.664062 C 8.929688 -3.207031 8.753906 -2.851562 8.574219 -2.644531 C 8.371094 -2.441406 8.117188 -2.265625 7.8125 -2.164062 C 7.480469 -2.035156 7.226562 -1.960938 7.074219 -1.960938 C 6.921875 -1.933594 6.71875 -1.933594 6.460938 -1.933594 C 6.082031 -1.933594 5.726562 -1.984375 5.417969 -2.136719 C 5.089844 -2.289062 4.835938 -2.441406 4.65625 -2.621094 C 4.453125 -2.796875 4.300781 -3.003906 4.148438 -3.257812 C 3.996094 -3.484375 3.917969 -3.636719 3.867188 -3.742188 C 3.816406 -3.84375 3.792969 -3.917969 3.792969 -3.96875 Z M 3.792969 -3.96875 "/></g></g></g><g fill="#000000" fill-opacity="1"><g transform="translate(119.152668, 24.298839)"><g><path d="M 6.257812 0.152344 C 6.667969 0.152344 7.097656 0.128906 7.53125 0.0273438 C 7.964844 -0.078125 8.421875 -0.253906 8.878906 -0.507812 C 9.335938 -0.761719 9.769531 -1.070312 10.125 -1.476562 C 10.484375 -1.855469 10.761719 -2.367188 11.015625 -3.027344 C 11.246094 -3.6875 11.375 -4.425781 11.375 -5.265625 C 11.375 -6.945312 10.839844 -8.21875 9.769531 -9.109375 C 8.703125 -10 7.53125 -10.457031 6.257812 -10.457031 C 4.960938 -10.457031 3.792969 -10 2.722656 -9.109375 C 1.652344 -8.21875 1.144531 -6.945312 1.144531 -5.265625 C 1.144531 -4.425781 1.246094 -3.6875 1.5 -3.027344 C 1.730469 -2.367188 2.035156 -1.855469 2.390625 -1.476562 C 2.746094 -1.070312 3.15625 -0.761719 3.613281 -0.507812 C 4.070312 -0.253906 4.527344 -0.078125 4.960938 0.0273438 C 5.394531 0.128906 5.828125 0.152344 6.257812 0.152344 Z M 6.257812 -1.933594 C 4.324219 -1.933594 3.359375 -3.027344 3.359375 -5.214844 C 3.359375 -6.308594 3.636719 -7.097656 4.222656 -7.609375 C 4.808594 -8.117188 5.496094 -8.371094 6.257812 -8.371094 C 7.023438 -8.371094 7.683594 -8.117188 8.269531 -7.609375 C 8.855469 -7.097656 9.160156 -6.308594 9.160156 -5.214844 C 9.160156 -3.027344 8.191406 -1.933594 6.257812 -1.933594 Z M 6.257812 -1.933594 "/></g></g></g><g fill="#000000" fill-opacity="1"><g transform="translate(131.671049, 24.298839)"><g><path d="M 7.9375 -10.152344 C 7.125 -10.355469 6.257812 -10.457031 5.367188 -10.457031 C 4.199219 -10.457031 3.179688 -10.175781 2.316406 -9.644531 C 1.449219 -9.082031 1.019531 -8.320312 1.019531 -7.328125 C 1.019531 -6.589844 1.347656 -5.953125 2.035156 -5.445312 C 2.695312 -4.9375 3.460938 -4.554688 4.273438 -4.351562 C 5.089844 -4.148438 5.828125 -3.894531 6.511719 -3.636719 C 7.175781 -3.382812 7.53125 -3.105469 7.53125 -2.824219 C 7.53125 -2.214844 6.742188 -1.933594 5.191406 -1.933594 C 4.402344 -1.933594 3.511719 -2.113281 2.492188 -2.46875 C 2.214844 -2.46875 1.984375 -2.367188 1.78125 -2.164062 C 1.578125 -1.960938 1.476562 -1.703125 1.476562 -1.449219 C 1.476562 -1.042969 1.730469 -0.710938 2.238281 -0.457031 C 3.15625 -0.0507812 4.199219 0.152344 5.316406 0.152344 C 6.742188 0.152344 7.835938 -0.101562 8.601562 -0.636719 C 9.363281 -1.171875 9.746094 -1.933594 9.746094 -2.953125 C 9.746094 -3.613281 9.390625 -4.171875 8.726562 -4.683594 C 8.039062 -5.191406 7.300781 -5.546875 6.488281 -5.777344 C 5.675781 -6.003906 4.910156 -6.257812 4.25 -6.511719 C 3.5625 -6.769531 3.230469 -7.046875 3.230469 -7.300781 C 3.230469 -7.660156 3.433594 -7.9375 3.84375 -8.117188 C 4.25 -8.269531 4.9375 -8.371094 5.851562 -8.371094 C 6.054688 -8.371094 6.640625 -8.292969 7.609375 -8.191406 C 7.886719 -8.191406 8.117188 -8.292969 8.320312 -8.5 C 8.523438 -8.703125 8.625 -8.929688 8.625 -9.210938 C 8.625 -9.695312 8.394531 -10 7.9375 -10.152344 Z M 7.9375 -10.152344 "/></g></g></g><g fill="#000000" fill-opacity="1"><g transform="translate(142.230253, 24.298839)"><g><path d="M 7.9375 -10.152344 C 7.125 -10.355469 6.257812 -10.457031 5.367188 -10.457031 C 4.199219 -10.457031 3.179688 -10.175781 2.316406 -9.644531 C 1.449219 -9.082031 1.019531 -8.320312 1.019531 -7.328125 C 1.019531 -6.589844 1.347656 -5.953125 2.035156 -5.445312 C 2.695312 -4.9375 3.460938 -4.554688 4.273438 -4.351562 C 5.089844 -4.148438 5.828125 -3.894531 6.511719 -3.636719 C 7.175781 -3.382812 7.53125 -3.105469 7.53125 -2.824219 C 7.53125 -2.214844 6.742188 -1.933594 5.191406 -1.933594 C 4.402344 -1.933594 3.511719 -2.113281 2.492188 -2.46875 C 2.214844 -2.46875 1.984375 -2.367188 1.78125 -2.164062 C 1.578125 -1.960938 1.476562 -1.703125 1.476562 -1.449219 C 1.476562 -1.042969 1.730469 -0.710938 2.238281 -0.457031 C 3.15625 -0.0507812 4.199219 0.152344 5.316406 0.152344 C 6.742188 0.152344 7.835938 -0.101562 8.601562 -0.636719 C 9.363281 -1.171875 9.746094 -1.933594 9.746094 -2.953125 C 9.746094 -3.613281 9.390625 -4.171875 8.726562 -4.683594 C 8.039062 -5.191406 7.300781 -5.546875 6.488281 -5.777344 C 5.675781 -6.003906 4.910156 -6.257812 4.25 -6.511719 C 3.5625 -6.769531 3.230469 -7.046875 3.230469 -7.300781 C 3.230469 -7.660156 3.433594 -7.9375 3.84375 -8.117188 C 4.25 -8.269531 4.9375 -8.371094 5.851562 -8.371094 C 6.054688 -8.371094 6.640625 -8.292969 7.609375 -8.191406 C 7.886719 -8.191406 8.117188 -8.292969 8.320312 -8.5 C 8.523438 -8.703125 8.625 -8.929688 8.625 -9.210938 C 8.625 -9.695312 8.394531 -10 7.9375 -10.152344 Z M 7.9375 -10.152344 "/></g></g></g><g fill="#000000" fill-opacity="1"><g transform="translate(152.789457, 24.298839)"><g><path d="M 10.789062 -1.121094 L 10.789062 -9.183594 C 10.789062 -9.492188 10.660156 -9.746094 10.457031 -9.972656 C 10.253906 -10.175781 10 -10.304688 9.695312 -10.304688 C 9.390625 -10.304688 9.109375 -10.175781 8.90625 -9.972656 C 8.675781 -9.746094 8.574219 -9.492188 8.574219 -9.183594 L 8.574219 -3.816406 L 8.472656 -3.613281 C 8.394531 -3.484375 8.269531 -3.332031 8.117188 -3.15625 C 7.964844 -2.953125 7.761719 -2.773438 7.558594 -2.59375 C 7.351562 -2.390625 7.074219 -2.238281 6.742188 -2.113281 C 6.410156 -1.984375 6.054688 -1.933594 5.699219 -1.933594 C 5.140625 -1.933594 4.65625 -2.085938 4.25 -2.390625 C 3.816406 -2.695312 3.613281 -3.207031 3.613281 -3.917969 L 3.613281 -9.183594 C 3.613281 -9.492188 3.484375 -9.746094 3.28125 -9.972656 C 3.078125 -10.175781 2.824219 -10.304688 2.519531 -10.304688 C 2.214844 -10.304688 1.933594 -10.175781 1.730469 -9.972656 C 1.5 -9.746094 1.398438 -9.492188 1.398438 -9.183594 L 1.398438 -3.636719 C 1.398438 -2.519531 1.703125 -1.628906 2.339844 -0.914062 C 2.953125 -0.203125 3.84375 0.152344 4.988281 0.152344 C 6.511719 0.152344 7.710938 -0.28125 8.574219 -1.171875 C 8.726562 -0.382812 9.082031 0 9.695312 0 C 10 0 10.253906 -0.101562 10.457031 -0.332031 C 10.660156 -0.535156 10.789062 -0.8125 10.789062 -1.121094 Z M 10.789062 -1.121094 "/></g></g></g><g fill="#000000" fill-opacity="1"><g transform="translate(165.10429, 24.298839)"><g><path d="M 6.257812 0.152344 C 6.667969 0.152344 7.097656 0.128906 7.53125 0.0273438 C 7.964844 -0.078125 8.421875 -0.253906 8.878906 -0.507812 C 9.335938 -0.761719 9.769531 -1.070312 10.125 -1.476562 C 10.484375 -1.855469 10.761719 -2.367188 11.015625 -3.027344 C 11.246094 -3.6875 11.375 -4.425781 11.375 -5.265625 C 11.375 -6.945312 10.839844 -8.21875 9.769531 -9.109375 C 8.703125 -10 7.53125 -10.457031 6.257812 -10.457031 C 4.960938 -10.457031 3.792969 -10 2.722656 -9.109375 C 1.652344 -8.21875 1.144531 -6.945312 1.144531 -5.265625 C 1.144531 -4.425781 1.246094 -3.6875 1.5 -3.027344 C 1.730469 -2.367188 2.035156 -1.855469 2.390625 -1.476562 C 2.746094 -1.070312 3.15625 -0.761719 3.613281 -0.507812 C 4.070312 -0.253906 4.527344 -0.078125 4.960938 0.0273438 C 5.394531 0.128906 5.828125 0.152344 6.257812 0.152344 Z M 6.257812 -1.933594 C 4.324219 -1.933594 3.359375 -3.027344 3.359375 -5.214844 C 3.359375 -6.308594 3.636719 -7.097656 4.222656 -7.609375 C 4.808594 -8.117188 5.496094 -8.371094 6.257812 -8.371094 C 7.023438 -8.371094 7.683594 -8.117188 8.269531 -7.609375 C 8.855469 -7.097656 9.160156 -6.308594 9.160156 -5.214844 C 9.160156 -3.027344 8.191406 -1.933594 6.257812 -1.933594 Z M 6.257812 -1.933594 "/></g></g></g><g fill="#000000" fill-opacity="1"><g transform="translate(177.622671, 24.298839)"><g/></g></g><g fill="#000000" fill-opacity="1"><g transform="translate(182.685998, 24.298839)"><g><path d="M 10.789062 -1.121094 L 10.789062 -9.183594 C 10.789062 -9.492188 10.660156 -9.746094 10.457031 -9.972656 C 10.253906 -10.175781 10 -10.304688 9.695312 -10.304688 C 9.390625 -10.304688 9.109375 -10.175781 8.90625 -9.972656 C 8.675781 -9.746094 8.574219 -9.492188 8.574219 -9.183594 L 8.574219 -3.816406 L 8.472656 -3.613281 C 8.394531 -3.484375 8.269531 -3.332031 8.117188 -3.15625 C 7.964844 -2.953125 7.761719 -2.773438 7.558594 -2.59375 C 7.351562 -2.390625 7.074219 -2.238281 6.742188 -2.113281 C 6.410156 -1.984375 6.054688 -1.933594 5.699219 -1.933594 C 5.140625 -1.933594 4.65625 -2.085938 4.25 -2.390625 C 3.816406 -2.695312 3.613281 -3.207031 3.613281 -3.917969 L 3.613281 -9.183594 C 3.613281 -9.492188 3.484375 -9.746094 3.28125 -9.972656 C 3.078125 -10.175781 2.824219 -10.304688 2.519531 -10.304688 C 2.214844 -10.304688 1.933594 -10.175781 1.730469 -9.972656 C 1.5 -9.746094 1.398438 -9.492188 1.398438 -9.183594 L 1.398438 -3.636719 C 1.398438 -2.519531 1.703125 -1.628906 2.339844 -0.914062 C 2.953125 -0.203125 3.84375 0.152344 4.988281 0.152344 C 6.511719 0.152344 7.710938 -0.28125 8.574219 -1.171875 C 8.726562 -0.382812 9.082031 0 9.695312 0 C 10 0 10.253906 -0.101562 10.457031 -0.332031 C 10.660156 -0.535156 10.789062 -0.8125 10.789062 -1.121094 Z M 10.789062 -1.121094 "/></g></g></g><g fill="#000000" fill-opacity="1"><g transform="translate(195.000831, 24.298839)"><g><path d="M 10.125 -1.121094 L 10.125 -6.105469 C 10.125 -6.640625 10.304688 -7.148438 10.660156 -7.632812 C 11.015625 -8.117188 11.578125 -8.371094 12.289062 -8.371094 C 13.6875 -8.371094 14.402344 -7.660156 14.402344 -6.234375 L 14.402344 -1.121094 C 14.402344 -0.8125 14.503906 -0.535156 14.707031 -0.332031 C 14.910156 -0.101562 15.191406 0 15.496094 0 C 15.800781 0 16.054688 -0.101562 16.285156 -0.332031 C 16.488281 -0.535156 16.613281 -0.8125 16.613281 -1.121094 L 16.613281 -6.386719 C 16.613281 -7.609375 16.234375 -8.601562 15.519531 -9.335938 C 14.78125 -10.074219 13.890625 -10.457031 12.824219 -10.457031 C 11.195312 -10.457031 10.125 -9.898438 9.566406 -8.777344 C 8.804688 -9.898438 7.863281 -10.457031 6.71875 -10.457031 C 5.417969 -10.457031 4.425781 -10 3.742188 -9.109375 C 3.664062 -9.441406 3.535156 -9.71875 3.332031 -9.949219 C 3.128906 -10.175781 2.902344 -10.304688 2.621094 -10.304688 C 2.316406 -10.304688 2.035156 -10.175781 1.832031 -9.972656 C 1.628906 -9.746094 1.527344 -9.492188 1.527344 -9.183594 L 1.527344 -1.121094 C 1.527344 -0.8125 1.628906 -0.535156 1.832031 -0.332031 C 2.035156 -0.101562 2.316406 0 2.621094 0 C 2.925781 0 3.179688 -0.101562 3.410156 -0.332031 C 3.613281 -0.535156 3.742188 -0.8125 3.742188 -1.121094 L 3.742188 -6.082031 C 3.742188 -6.132812 3.742188 -6.234375 3.742188 -6.335938 C 3.742188 -6.4375 3.792969 -6.640625 3.867188 -6.894531 C 3.945312 -7.148438 4.046875 -7.378906 4.199219 -7.582031 C 4.351562 -7.785156 4.554688 -7.964844 4.859375 -8.117188 C 5.164062 -8.269531 5.519531 -8.371094 5.929688 -8.371094 C 6.4375 -8.371094 6.894531 -8.191406 7.300781 -7.886719 C 7.710938 -7.582031 7.914062 -7.074219 7.914062 -6.386719 L 7.914062 -1.121094 C 7.914062 -0.8125 8.015625 -0.535156 8.21875 -0.332031 C 8.421875 -0.101562 8.703125 0 9.007812 0 C 9.3125 0 9.566406 -0.101562 9.796875 -0.332031 C 10 -0.535156 10.125 -0.8125 10.125 -1.121094 Z M 10.125 -1.121094 "/></g></g></g><g fill="#000000" fill-opacity="1"><g transform="translate(213.015102, 24.298839)"><g><path d="M 8.242188 -1.09375 C 8.242188 -0.789062 8.34375 -0.507812 8.550781 -0.304688 C 8.753906 -0.101562 9.03125 0 9.335938 0 C 9.644531 0 9.898438 -0.101562 10.125 -0.304688 C 10.332031 -0.507812 10.457031 -0.789062 10.457031 -1.09375 L 10.457031 -6.234375 C 10.457031 -7.582031 10 -8.625 9.132812 -9.363281 C 8.269531 -10.074219 7.046875 -10.457031 5.46875 -10.457031 C 4.351562 -10.457031 3.433594 -10.355469 2.746094 -10.152344 C 2.265625 -10.023438 2.035156 -9.695312 2.035156 -9.183594 C 2.035156 -8.878906 2.113281 -8.652344 2.316406 -8.472656 C 2.492188 -8.292969 2.722656 -8.21875 3.003906 -8.21875 C 3.5625 -8.320312 4.046875 -8.371094 4.503906 -8.371094 C 5.929688 -8.371094 6.894531 -8.167969 7.429688 -7.785156 C 7.964844 -7.402344 8.242188 -6.871094 8.242188 -6.15625 L 8.242188 -5.316406 C 7.148438 -6.003906 5.878906 -6.359375 4.402344 -6.359375 C 3.28125 -6.359375 2.441406 -6.054688 1.882812 -5.46875 C 1.296875 -4.886719 1.019531 -4.148438 1.019531 -3.257812 C 1.019531 -2.644531 1.121094 -2.136719 1.324219 -1.703125 C 1.527344 -1.246094 1.753906 -0.914062 2.035156 -0.6875 C 2.289062 -0.457031 2.59375 -0.28125 2.953125 -0.152344 C 3.28125 0 3.5625 0.078125 3.765625 0.101562 C 3.96875 0.152344 4.171875 0.152344 4.324219 0.152344 L 4.628906 0.152344 C 6.183594 0.152344 7.378906 -0.253906 8.242188 -1.09375 Z M 8.242188 -3.511719 L 8.242188 -2.902344 L 8.039062 -2.644531 C 7.886719 -2.492188 7.582031 -2.316406 7.125 -2.164062 C 6.667969 -2.011719 6.105469 -1.933594 5.496094 -1.933594 C 3.96875 -1.933594 3.230469 -2.339844 3.230469 -3.179688 C 3.230469 -3.585938 3.382812 -3.894531 3.6875 -4.097656 C 3.996094 -4.300781 4.578125 -4.402344 5.496094 -4.402344 C 6.691406 -4.402344 7.609375 -4.097656 8.242188 -3.511719 Z M 8.242188 -3.511719 "/></g></g></g><g fill="#000000" fill-opacity="1"><g transform="translate(230.06248, 24.298839)"><g><path d="M 1.527344 -9.183594 L 1.527344 3.84375 C 1.527344 4.148438 1.628906 4.425781 1.832031 4.628906 C 2.035156 4.859375 2.316406 4.960938 2.621094 4.960938 C 2.925781 4.960938 3.179688 4.859375 3.410156 4.628906 C 3.613281 4.425781 3.742188 4.148438 3.742188 3.84375 L 3.742188 -1.144531 C 4.503906 -0.28125 5.625 0.152344 7.046875 0.152344 C 8.21875 0.152344 9.261719 -0.28125 10.175781 -1.144531 C 11.09375 -2.011719 11.550781 -3.382812 11.550781 -5.316406 C 11.550781 -6.996094 11.066406 -8.269531 10.152344 -9.132812 C 9.234375 -10 8.117188 -10.457031 6.84375 -10.457031 C 5.46875 -10.457031 4.453125 -10.023438 3.742188 -9.160156 C 3.585938 -9.921875 3.207031 -10.304688 2.621094 -10.304688 C 2.316406 -10.304688 2.035156 -10.175781 1.832031 -9.972656 C 1.628906 -9.746094 1.527344 -9.492188 1.527344 -9.183594 Z M 3.792969 -3.96875 L 3.792969 -6.335938 L 4.019531 -6.84375 C 4.171875 -7.175781 4.453125 -7.507812 4.910156 -7.863281 C 5.34375 -8.191406 5.851562 -8.371094 6.460938 -8.371094 C 6.71875 -8.371094 6.996094 -8.320312 7.277344 -8.269531 C 7.53125 -8.21875 7.835938 -8.089844 8.191406 -7.914062 C 8.523438 -7.710938 8.804688 -7.402344 9.007812 -6.945312 C 9.210938 -6.488281 9.335938 -5.953125 9.335938 -5.316406 C 9.335938 -4.65625 9.234375 -4.121094 9.082031 -3.664062 C 8.929688 -3.207031 8.753906 -2.851562 8.574219 -2.644531 C 8.371094 -2.441406 8.117188 -2.265625 7.8125 -2.164062 C 7.480469 -2.035156 7.226562 -1.960938 7.074219 -1.960938 C 6.921875 -1.933594 6.71875 -1.933594 6.460938 -1.933594 C 6.082031 -1.933594 5.726562 -1.984375 5.417969 -2.136719 C 5.089844 -2.289062 4.835938 -2.441406 4.65625 -2.621094 C 4.453125 -2.796875 4.300781 -3.003906 4.148438 -3.257812 C 3.996094 -3.484375 3.917969 -3.636719 3.867188 -3.742188 C 3.816406 -3.84375 3.792969 -3.917969 3.792969 -3.96875 Z M 3.792969 -3.96875 "/></g></g></g><g fill="#000000" fill-opacity="1"><g transform="translate(242.758979, 24.298839)"><g><path d="M 8.242188 -1.09375 C 8.242188 -0.789062 8.34375 -0.507812 8.550781 -0.304688 C 8.753906 -0.101562 9.03125 0 9.335938 0 C 9.644531 0 9.898438 -0.101562 10.125 -0.304688 C 10.332031 -0.507812 10.457031 -0.789062 10.457031 -1.09375 L 10.457031 -6.234375 C 10.457031 -7.582031 10 -8.625 9.132812 -9.363281 C 8.269531 -10.074219 7.046875 -10.457031 5.46875 -10.457031 C 4.351562 -10.457031 3.433594 -10.355469 2.746094 -10.152344 C 2.265625 -10.023438 2.035156 -9.695312 2.035156 -9.183594 C 2.035156 -8.878906 2.113281 -8.652344 2.316406 -8.472656 C 2.492188 -8.292969 2.722656 -8.21875 3.003906 -8.21875 C 3.5625 -8.320312 4.046875 -8.371094 4.503906 -8.371094 C 5.929688 -8.371094 6.894531 -8.167969 7.429688 -7.785156 C 7.964844 -7.402344 8.242188 -6.871094 8.242188 -6.15625 L 8.242188 -5.316406 C 7.148438 -6.003906 5.878906 -6.359375 4.402344 -6.359375 C 3.28125 -6.359375 2.441406 -6.054688 1.882812 -5.46875 C 1.296875 -4.886719 1.019531 -4.148438 1.019531 -3.257812 C 1.019531 -2.644531 1.121094 -2.136719 1.324219 -1.703125 C 1.527344 -1.246094 1.753906 -0.914062 2.035156 -0.6875 C 2.289062 -0.457031 2.59375 -0.28125 2.953125 -0.152344 C 3.28125 0 3.5625 0.078125 3.765625 0.101562 C 3.96875 0.152344 4.171875 0.152344 4.324219 0.152344 L 4.628906 0.152344 C 6.183594 0.152344 7.378906 -0.253906 8.242188 -1.09375 Z M 8.242188 -3.511719 L 8.242188 -2.902344 L 8.039062 -2.644531 C 7.886719 -2.492188 7.582031 -2.316406 7.125 -2.164062 C 6.667969 -2.011719 6.105469 -1.933594 5.496094 -1.933594 C 3.96875 -1.933594 3.230469 -2.339844 3.230469 -3.179688 C 3.230469 -3.585938 3.382812 -3.894531 3.6875 -4.097656 C 3.996094 -4.300781 4.578125 -4.402344 5.496094 -4.402344 C 6.691406 -4.402344 7.609375 -4.097656 8.242188 -3.511719 Z M 8.242188 -3.511719 "/></g></g></g><g fill="#000000" fill-opacity="1"><g transform="translate(254.74303, 24.298839)"><g><path d="M 1.652344 -13.890625 L 1.652344 -1.121094 C 1.652344 -0.8125 1.753906 -0.535156 1.960938 -0.332031 C 2.164062 -0.101562 2.441406 0 2.746094 0 C 3.054688 0 3.308594 -0.101562 3.535156 -0.332031 C 3.742188 -0.535156 3.867188 -0.8125 3.867188 -1.121094 L 3.867188 -13.890625 C 3.867188 -14.199219 3.742188 -14.453125 3.535156 -14.679688 C 3.308594 -14.882812 3.054688 -15.011719 2.746094 -15.011719 C 2.441406 -15.011719 2.164062 -14.882812 1.960938 -14.679688 C 1.753906 -14.453125 1.652344 -14.199219 1.652344 -13.890625 Z M 1.652344 -13.890625 "/></g></g></g><g fill="#000000" fill-opacity="1"><g transform="translate(260.264361, 24.298839)"><g><path d="M 8.242188 -1.09375 C 8.242188 -0.789062 8.34375 -0.507812 8.550781 -0.304688 C 8.753906 -0.101562 9.03125 0 9.335938 0 C 9.644531 0 9.898438 -0.101562 10.125 -0.304688 C 10.332031 -0.507812 10.457031 -0.789062 10.457031 -1.09375 L 10.457031 -6.234375 C 10.457031 -7.582031 10 -8.625 9.132812 -9.363281 C 8.269531 -10.074219 7.046875 -10.457031 5.46875 -10.457031 C 4.351562 -10.457031 3.433594 -10.355469 2.746094 -10.152344 C 2.265625 -10.023438 2.035156 -9.695312 2.035156 -9.183594 C 2.035156 -8.878906 2.113281 -8.652344 2.316406 -8.472656 C 2.492188 -8.292969 2.722656 -8.21875 3.003906 -8.21875 C 3.5625 -8.320312 4.046875 -8.371094 4.503906 -8.371094 C 5.929688 -8.371094 6.894531 -8.167969 7.429688 -7.785156 C 7.964844 -7.402344 8.242188 -6.871094 8.242188 -6.15625 L 8.242188 -5.316406 C 7.148438 -6.003906 5.878906 -6.359375 4.402344 -6.359375 C 3.28125 -6.359375 2.441406 -6.054688 1.882812 -5.46875 C 1.296875 -4.886719 1.019531 -4.148438 1.019531 -3.257812 C 1.019531 -2.644531 1.121094 -2.136719 1.324219 -1.703125 C 1.527344 -1.246094 1.753906 -0.914062 2.035156 -0.6875 C 2.289062 -0.457031 2.59375 -0.28125 2.953125 -0.152344 C 3.28125 0 3.5625 0.078125 3.765625 0.101562 C 3.96875 0.152344 4.171875 0.152344 4.324219 0.152344 L 4.628906 0.152344 C 6.183594 0.152344 7.378906 -0.253906 8.242188 -1.09375 Z M 8.242188 -3.511719 L 8.242188 -2.902344 L 8.039062 -2.644531 C 7.886719 -2.492188 7.582031 -2.316406 7.125 -2.164062 C 6.667969 -2.011719 6.105469 -1.933594 5.496094 -1.933594 C 3.96875 -1.933594 3.230469 -2.339844 3.230469 -3.179688 C 3.230469 -3.585938 3.382812 -3.894531 3.6875 -4.097656 C 3.996094 -4.300781 4.578125 -4.402344 5.496094 -4.402344 C 6.691406 -4.402344 7.609375 -4.097656 8.242188 -3.511719 Z M 8.242188 -3.511719 "/></g></g></g><g fill="#000000" fill-opacity="1"><g transform="translate(272.248412, 24.298839)"><g><path d="M 5.546875 0 C 6.410156 0 7.023438 -0.40625 7.378906 -1.222656 L 10.507812 -8.777344 C 10.558594 -8.878906 10.585938 -9.03125 10.585938 -9.210938 C 10.585938 -9.515625 10.484375 -9.796875 10.28125 -10 C 10.074219 -10.203125 9.796875 -10.304688 9.492188 -10.304688 C 8.929688 -10.304688 8.574219 -10.074219 8.421875 -9.617188 L 5.546875 -2.113281 L 2.671875 -9.617188 C 2.492188 -10.074219 2.136719 -10.304688 1.601562 -10.304688 C 1.273438 -10.304688 1.019531 -10.203125 0.8125 -10 C 0.609375 -9.796875 0.507812 -9.515625 0.507812 -9.210938 C 0.507812 -9.03125 0.535156 -8.878906 0.585938 -8.777344 L 3.714844 -1.222656 C 4.046875 -0.40625 4.65625 0 5.546875 0 Z M 5.546875 0 "/></g></g></g><g fill="#000000" fill-opacity="1"><g transform="translate(283.341934, 24.298839)"><g><path d="M 6.972656 -8.371094 L 7.378906 -8.371094 C 7.632812 -8.371094 7.835938 -8.449219 7.988281 -8.652344 C 8.140625 -8.855469 8.21875 -9.082031 8.21875 -9.390625 C 8.21875 -10.101562 7.9375 -10.457031 7.378906 -10.457031 L 7.097656 -10.457031 C 5.46875 -10.457031 4.375 -9.972656 3.792969 -9.058594 C 3.714844 -9.390625 3.5625 -9.667969 3.359375 -9.921875 C 3.15625 -10.175781 2.902344 -10.304688 2.621094 -10.304688 C 2.316406 -10.304688 2.035156 -10.175781 1.832031 -9.972656 C 1.628906 -9.746094 1.527344 -9.492188 1.527344 -9.183594 L 1.527344 -1.121094 C 1.527344 -0.8125 1.628906 -0.535156 1.832031 -0.332031 C 2.035156 -0.101562 2.316406 0 2.621094 0 C 2.925781 0 3.179688 -0.101562 3.410156 -0.332031 C 3.613281 -0.535156 3.742188 -0.8125 3.742188 -1.121094 L 3.742188 -5.851562 L 3.765625 -6.105469 C 3.765625 -6.257812 3.84375 -6.488281 3.96875 -6.742188 C 4.097656 -6.996094 4.273438 -7.226562 4.476562 -7.480469 C 4.683594 -7.734375 5.011719 -7.9375 5.445312 -8.117188 C 5.878906 -8.269531 6.386719 -8.371094 6.972656 -8.371094 Z M 6.972656 -8.371094 "/></g></g></g><g fill="#000000" fill-opacity="1"><g transform="translate(291.560283, 24.298839)"><g><path d="M 8.242188 -1.09375 C 8.242188 -0.789062 8.34375 -0.507812 8.550781 -0.304688 C 8.753906 -0.101562 9.03125 0 9.335938 0 C 9.644531 0 9.898438 -0.101562 10.125 -0.304688 C 10.332031 -0.507812 10.457031 -0.789062 10.457031 -1.09375 L 10.457031 -6.234375 C 10.457031 -7.582031 10 -8.625 9.132812 -9.363281 C 8.269531 -10.074219 7.046875 -10.457031 5.46875 -10.457031 C 4.351562 -10.457031 3.433594 -10.355469 2.746094 -10.152344 C 2.265625 -10.023438 2.035156 -9.695312 2.035156 -9.183594 C 2.035156 -8.878906 2.113281 -8.652344 2.316406 -8.472656 C 2.492188 -8.292969 2.722656 -8.21875 3.003906 -8.21875 C 3.5625 -8.320312 4.046875 -8.371094 4.503906 -8.371094 C 5.929688 -8.371094 6.894531 -8.167969 7.429688 -7.785156 C 7.964844 -7.402344 8.242188 -6.871094 8.242188 -6.15625 L 8.242188 -5.316406 C 7.148438 -6.003906 5.878906 -6.359375 4.402344 -6.359375 C 3.28125 -6.359375 2.441406 -6.054688 1.882812 -5.46875 C 1.296875 -4.886719 1.019531 -4.148438 1.019531 -3.257812 C 1.019531 -2.644531 1.121094 -2.136719 1.324219 -1.703125 C 1.527344 -1.246094 1.753906 -0.914062 2.035156 -0.6875 C 2.289062 -0.457031 2.59375 -0.28125 2.953125 -0.152344 C 3.28125 0 3.5625 0.078125 3.765625 0.101562 C 3.96875 0.152344 4.171875 0.152344 4.324219 0.152344 L 4.628906 0.152344 C 6.183594 0.152344 7.378906 -0.253906 8.242188 -1.09375 Z M 8.242188 -3.511719 L 8.242188 -2.902344 L 8.039062 -2.644531 C 7.886719 -2.492188 7.582031 -2.316406 7.125 -2.164062 C 6.667969 -2.011719 6.105469 -1.933594 5.496094 -1.933594 C 3.96875 -1.933594 3.230469 -2.339844 3.230469 -3.179688 C 3.230469 -3.585938 3.382812 -3.894531 3.6875 -4.097656 C 3.996094 -4.300781 4.578125 -4.402344 5.496094 -4.402344 C 6.691406 -4.402344 7.609375 -4.097656 8.242188 -3.511719 Z M 8.242188 -3.511719 "/></g></g></g><g fill="#000000" fill-opacity="1"><g transform="translate(303.544335, 24.298839)"><g><path d="M 2.695312 -4.375 L 8.601562 -4.375 C 8.878906 -4.375 9.132812 -4.476562 9.335938 -4.683594 C 9.542969 -4.886719 9.644531 -5.113281 9.644531 -5.417969 C 9.644531 -5.699219 9.542969 -5.953125 9.335938 -6.15625 C 9.132812 -6.359375 8.878906 -6.460938 8.601562 -6.460938 L 2.695312 -6.460938 C 2.390625 -6.460938 2.164062 -6.359375 1.960938 -6.15625 C 1.753906 -5.953125 1.652344 -5.699219 1.652344 -5.417969 C 1.652344 -5.113281 1.753906 -4.886719 1.960938 -4.683594 C 2.164062 -4.476562 2.390625 -4.375 2.695312 -4.375 Z M 2.695312 -4.375 "/></g></g></g><g fill="#000000" fill-opacity="1"><g transform="translate(314.841392, 24.298839)"><g><path d="M 1.527344 -9.183594 L 1.527344 3.84375 C 1.527344 4.148438 1.628906 4.425781 1.832031 4.628906 C 2.035156 4.859375 2.316406 4.960938 2.621094 4.960938 C 2.925781 4.960938 3.179688 4.859375 3.410156 4.628906 C 3.613281 4.425781 3.742188 4.148438 3.742188 3.84375 L 3.742188 -1.144531 C 4.503906 -0.28125 5.625 0.152344 7.046875 0.152344 C 8.21875 0.152344 9.261719 -0.28125 10.175781 -1.144531 C 11.09375 -2.011719 11.550781 -3.382812 11.550781 -5.316406 C 11.550781 -6.996094 11.066406 -8.269531 10.152344 -9.132812 C 9.234375 -10 8.117188 -10.457031 6.84375 -10.457031 C 5.46875 -10.457031 4.453125 -10.023438 3.742188 -9.160156 C 3.585938 -9.921875 3.207031 -10.304688 2.621094 -10.304688 C 2.316406 -10.304688 2.035156 -10.175781 1.832031 -9.972656 C 1.628906 -9.746094 1.527344 -9.492188 1.527344 -9.183594 Z M 3.792969 -3.96875 L 3.792969 -6.335938 L 4.019531 -6.84375 C 4.171875 -7.175781 4.453125 -7.507812 4.910156 -7.863281 C 5.34375 -8.191406 5.851562 -8.371094 6.460938 -8.371094 C 6.71875 -8.371094 6.996094 -8.320312 7.277344 -8.269531 C 7.53125 -8.21875 7.835938 -8.089844 8.191406 -7.914062 C 8.523438 -7.710938 8.804688 -7.402344 9.007812 -6.945312 C 9.210938 -6.488281 9.335938 -5.953125 9.335938 -5.316406 C 9.335938 -4.65625 9.234375 -4.121094 9.082031 -3.664062 C 8.929688 -3.207031 8.753906 -2.851562 8.574219 -2.644531 C 8.371094 -2.441406 8.117188 -2.265625 7.8125 -2.164062 C 7.480469 -2.035156 7.226562 -1.960938 7.074219 -1.960938 C 6.921875 -1.933594 6.71875 -1.933594 6.460938 -1.933594 C 6.082031 -1.933594 5.726562 -1.984375 5.417969 -2.136719 C 5.089844 -2.289062 4.835938 -2.441406 4.65625 -2.621094 C 4.453125 -2.796875 4.300781 -3.003906 4.148438 -3.257812 C 3.996094 -3.484375 3.917969 -3.636719 3.867188 -3.742188 C 3.816406 -3.84375 3.792969 -3.917969 3.792969 -3.96875 Z M 3.792969 -3.96875 "/></g></g></g><g fill="#000000" fill-opacity="1"><g transform="translate(327.537867, 24.298839)"><g><path d="M 8.242188 -1.09375 C 8.242188 -0.789062 8.34375 -0.507812 8.550781 -0.304688 C 8.753906 -0.101562 9.03125 0 9.335938 0 C 9.644531 0 9.898438 -0.101562 10.125 -0.304688 C 10.332031 -0.507812 10.457031 -0.789062 10.457031 -1.09375 L 10.457031 -6.234375 C 10.457031 -7.582031 10 -8.625 9.132812 -9.363281 C 8.269531 -10.074219 7.046875 -10.457031 5.46875 -10.457031 C 4.351562 -10.457031 3.433594 -10.355469 2.746094 -10.152344 C 2.265625 -10.023438 2.035156 -9.695312 2.035156 -9.183594 C 2.035156 -8.878906 2.113281 -8.652344 2.316406 -8.472656 C 2.492188 -8.292969 2.722656 -8.21875 3.003906 -8.21875 C 3.5625 -8.320312 4.046875 -8.371094 4.503906 -8.371094 C 5.929688 -8.371094 6.894531 -8.167969 7.429688 -7.785156 C 7.964844 -7.402344 8.242188 -6.871094 8.242188 -6.15625 L 8.242188 -5.316406 C 7.148438 -6.003906 5.878906 -6.359375 4.402344 -6.359375 C 3.28125 -6.359375 2.441406 -6.054688 1.882812 -5.46875 C 1.296875 -4.886719 1.019531 -4.148438 1.019531 -3.257812 C 1.019531 -2.644531 1.121094 -2.136719 1.324219 -1.703125 C 1.527344 -1.246094 1.753906 -0.914062 2.035156 -0.6875 C 2.289062 -0.457031 2.59375 -0.28125 2.953125 -0.152344 C 3.28125 0 3.5625 0.078125 3.765625 0.101562 C 3.96875 0.152344 4.171875 0.152344 4.324219 0.152344 L 4.628906 0.152344 C 6.183594 0.152344 7.378906 -0.253906 8.242188 -1.09375 Z M 8.242188 -3.511719 L 8.242188 -2.902344 L 8.039062 -2.644531 C 7.886719 -2.492188 7.582031 -2.316406 7.125 -2.164062 C 6.667969 -2.011719 6.105469 -1.933594 5.496094 -1.933594 C 3.96875 -1.933594 3.230469 -2.339844 3.230469 -3.179688 C 3.230469 -3.585938 3.382812 -3.894531 3.6875 -4.097656 C 3.996094 -4.300781 4.578125 -4.402344 5.496094 -4.402344 C 6.691406 -4.402344 7.609375 -4.097656 8.242188 -3.511719 Z M 8.242188 -3.511719 "/></g></g></g><g fill="#000000" fill-opacity="1"><g transform="translate(339.521918, 24.298839)"><g><path d="M 7.9375 -10.152344 C 7.125 -10.355469 6.257812 -10.457031 5.367188 -10.457031 C 4.199219 -10.457031 3.179688 -10.175781 2.316406 -9.644531 C 1.449219 -9.082031 1.019531 -8.320312 1.019531 -7.328125 C 1.019531 -6.589844 1.347656 -5.953125 2.035156 -5.445312 C 2.695312 -4.9375 3.460938 -4.554688 4.273438 -4.351562 C 5.089844 -4.148438 5.828125 -3.894531 6.511719 -3.636719 C 7.175781 -3.382812 7.53125 -3.105469 7.53125 -2.824219 C 7.53125 -2.214844 6.742188 -1.933594 5.191406 -1.933594 C 4.402344 -1.933594 3.511719 -2.113281 2.492188 -2.46875 C 2.214844 -2.46875 1.984375 -2.367188 1.78125 -2.164062 C 1.578125 -1.960938 1.476562 -1.703125 1.476562 -1.449219 C 1.476562 -1.042969 1.730469 -0.710938 2.238281 -0.457031 C 3.15625 -0.0507812 4.199219 0.152344 5.316406 0.152344 C 6.742188 0.152344 7.835938 -0.101562 8.601562 -0.636719 C 9.363281 -1.171875 9.746094 -1.933594 9.746094 -2.953125 C 9.746094 -3.613281 9.390625 -4.171875 8.726562 -4.683594 C 8.039062 -5.191406 7.300781 -5.546875 6.488281 -5.777344 C 5.675781 -6.003906 4.910156 -6.257812 4.25 -6.511719 C 3.5625 -6.769531 3.230469 -7.046875 3.230469 -7.300781 C 3.230469 -7.660156 3.433594 -7.9375 3.84375 -8.117188 C 4.25 -8.269531 4.9375 -8.371094 5.851562 -8.371094 C 6.054688 -8.371094 6.640625 -8.292969 7.609375 -8.191406 C 7.886719 -8.191406 8.117188 -8.292969 8.320312 -8.5 C 8.523438 -8.703125 8.625 -8.929688 8.625 -9.210938 C 8.625 -9.695312 8.394531 -10 7.9375 -10.152344 Z M 7.9375 -10.152344 "/></g></g></g><g fill="#000000" fill-opacity="1"><g transform="translate(350.081122, 24.298839)"><g><path d="M 7.9375 -10.152344 C 7.125 -10.355469 6.257812 -10.457031 5.367188 -10.457031 C 4.199219 -10.457031 3.179688 -10.175781 2.316406 -9.644531 C 1.449219 -9.082031 1.019531 -8.320312 1.019531 -7.328125 C 1.019531 -6.589844 1.347656 -5.953125 2.035156 -5.445312 C 2.695312 -4.9375 3.460938 -4.554688 4.273438 -4.351562 C 5.089844 -4.148438 5.828125 -3.894531 6.511719 -3.636719 C 7.175781 -3.382812 7.53125 -3.105469 7.53125 -2.824219 C 7.53125 -2.214844 6.742188 -1.933594 5.191406 -1.933594 C 4.402344 -1.933594 3.511719 -2.113281 2.492188 -2.46875 C 2.214844 -2.46875 1.984375 -2.367188 1.78125 -2.164062 C 1.578125 -1.960938 1.476562 -1.703125 1.476562 -1.449219 C 1.476562 -1.042969 1.730469 -0.710938 2.238281 -0.457031 C 3.15625 -0.0507812 4.199219 0.152344 5.316406 0.152344 C 6.742188 0.152344 7.835938 -0.101562 8.601562 -0.636719 C 9.363281 -1.171875 9.746094 -1.933594 9.746094 -2.953125 C 9.746094 -3.613281 9.390625 -4.171875 8.726562 -4.683594 C 8.039062 -5.191406 7.300781 -5.546875 6.488281 -5.777344 C 5.675781 -6.003906 4.910156 -6.257812 4.25 -6.511719 C 3.5625 -6.769531 3.230469 -7.046875 3.230469 -7.300781 C 3.230469 -7.660156 3.433594 -7.9375 3.84375 -8.117188 C 4.25 -8.269531 4.9375 -8.371094 5.851562 -8.371094 C 6.054688 -8.371094 6.640625 -8.292969 7.609375 -8.191406 C 7.886719 -8.191406 8.117188 -8.292969 8.320312 -8.5 C 8.523438 -8.703125 8.625 -8.929688 8.625 -9.210938 C 8.625 -9.695312 8.394531 -10 7.9375 -10.152344 Z M 7.9375 -10.152344 "/></g></g></g><g fill="#000000" fill-opacity="1"><g transform="translate(360.640326, 24.298839)"><g><path d="M 8.90625 -2.113281 C 8.015625 -1.984375 7.402344 -1.933594 7.046875 -1.933594 C 5.75 -1.933594 4.859375 -2.085938 4.375 -2.441406 C 3.867188 -2.796875 3.535156 -3.382812 3.359375 -4.25 L 8.980469 -4.25 C 9.414062 -4.25 9.796875 -4.402344 10.125 -4.707031 C 10.433594 -5.011719 10.609375 -5.367188 10.609375 -5.800781 C 10.609375 -7.175781 10.203125 -8.292969 9.390625 -9.160156 C 8.574219 -10.023438 7.429688 -10.457031 5.902344 -10.457031 C 4.375 -10.457031 3.179688 -9.949219 2.367188 -8.957031 C 1.550781 -7.964844 1.144531 -6.691406 1.144531 -5.164062 C 1.144531 -3.585938 1.578125 -2.316406 2.441406 -1.324219 C 3.308594 -0.332031 4.578125 0.152344 6.285156 0.152344 C 7.300781 0.152344 8.242188 0.078125 9.082031 -0.128906 C 9.3125 -0.152344 9.515625 -0.253906 9.667969 -0.433594 C 9.820312 -0.609375 9.898438 -0.839844 9.898438 -1.09375 C 9.898438 -1.347656 9.796875 -1.601562 9.59375 -1.804688 C 9.390625 -2.011719 9.160156 -2.113281 8.90625 -2.113281 Z M 8.421875 -6.15625 L 3.359375 -6.15625 C 3.511719 -6.921875 3.765625 -7.480469 4.171875 -7.835938 C 4.554688 -8.191406 5.113281 -8.371094 5.878906 -8.371094 C 6.589844 -8.371094 7.175781 -8.191406 7.582031 -7.886719 C 7.988281 -7.558594 8.269531 -6.972656 8.421875 -6.15625 Z M 8.421875 -6.15625 "/></g></g></g></svg>