<svg xmlns="http://www.w3.org/2000/svg" xmlns:xlink="http://www.w3.org/1999/xlink" width="200" zoomAndPan="magnify" viewBox="0 0 150 202.499994" height="270" preserveAspectRatio="xMidYMid meet" version="1.0"><defs><g/><clipPath id="f855cbfd3c"><path d="M 4.480469 6.925781 L 149.8125 6.925781 L 149.8125 199.949219 L 4.480469 199.949219 Z M 4.480469 6.925781 " clip-rule="nonzero"/></clipPath><clipPath id="bbf47126a3"><path d="M 37.398438 6.925781 L 116.898438 6.925781 C 125.628906 6.925781 134 10.394531 140.171875 16.566406 C 146.347656 22.742188 149.816406 31.113281 149.816406 39.84375 L 149.816406 166.59375 C 149.816406 175.324219 146.347656 183.695312 140.171875 189.871094 C 134 196.042969 125.628906 199.511719 116.898438 199.511719 L 37.398438 199.511719 C 28.667969 199.511719 20.296875 196.042969 14.121094 189.871094 C 7.949219 183.695312 4.480469 175.324219 4.480469 166.59375 L 4.480469 39.84375 C 4.480469 31.113281 7.949219 22.742188 14.121094 16.566406 C 20.296875 10.394531 28.667969 6.925781 37.398438 6.925781 Z M 37.398438 6.925781 " clip-rule="nonzero"/></clipPath><clipPath id="4dbedac5f8"><path d="M 0.183594 2.488281 L 145.519531 2.488281 L 145.519531 195 L 0.183594 195 Z M 0.183594 2.488281 " clip-rule="nonzero"/></clipPath><clipPath id="bcdf76725c"><path d="M 33.101562 2.488281 L 112.601562 2.488281 C 121.332031 2.488281 129.703125 5.957031 135.878906 12.132812 C 142.050781 18.304688 145.519531 26.675781 145.519531 35.40625 L 145.519531 162.15625 C 145.519531 170.886719 142.050781 179.261719 135.878906 185.433594 C 129.703125 191.605469 121.332031 195.074219 112.601562 195.074219 L 33.101562 195.074219 C 24.371094 195.074219 16 191.605469 9.828125 185.433594 C 3.652344 179.261719 0.183594 170.886719 0.183594 162.15625 L 0.183594 35.40625 C 0.183594 26.675781 3.652344 18.304688 9.828125 12.132812 C 16 5.957031 24.371094 2.488281 33.101562 2.488281 Z M 33.101562 2.488281 " clip-rule="nonzero"/></clipPath><clipPath id="a0fea672d3"><path d="M 0.183594 2.492188 L 145.328125 2.492188 L 145.328125 194.765625 L 0.183594 194.765625 Z M 0.183594 2.492188 " clip-rule="nonzero"/></clipPath><clipPath id="61942c2497"><path d="M 33.101562 2.492188 L 112.597656 2.492188 C 121.328125 2.492188 129.699219 5.957031 135.871094 12.132812 C 142.046875 18.304688 145.511719 26.675781 145.511719 35.40625 L 145.511719 162.148438 C 145.511719 170.878906 142.046875 179.253906 135.871094 185.425781 C 129.699219 191.597656 121.328125 195.066406 112.597656 195.066406 L 33.101562 195.066406 C 24.371094 195.066406 16 191.597656 9.824219 185.425781 C 3.652344 179.253906 0.183594 170.878906 0.183594 162.148438 L 0.183594 35.40625 C 0.183594 26.675781 3.652344 18.304688 9.824219 12.132812 C 16 5.957031 24.371094 2.492188 33.101562 2.492188 Z M 33.101562 2.492188 " clip-rule="nonzero"/></clipPath></defs><g clip-path="url(#f855cbfd3c)"><g clip-path="url(#bbf47126a3)"><path fill="#d9d9d9" d="M 4.480469 6.925781 L 149.816406 6.925781 L 149.816406 199.382812 L 4.480469 199.382812 Z M 4.480469 6.925781 " fill-opacity="1" fill-rule="nonzero"/></g></g><g clip-path="url(#4dbedac5f8)"><g clip-path="url(#bcdf76725c)"><path fill="#dfe3e8" d="M 0.183594 2.488281 L 145.519531 2.488281 L 145.519531 194.945312 L 0.183594 194.945312 Z M 0.183594 2.488281 " fill-opacity="1" fill-rule="nonzero"/></g></g><g clip-path="url(#a0fea672d3)"><g clip-path="url(#61942c2497)"><path stroke-linecap="butt" transform="matrix(0.748153, 0, 0, 0.748153, 0.184731, 2.490446)" fill="none" stroke-linejoin="miter" d="M 43.997482 0.00232768 L 150.254004 0.00232768 C 161.923373 0.00232768 173.112392 4.633527 181.361879 12.888235 C 189.616586 21.137721 194.247786 32.32674 194.247786 43.996109 L 194.247786 213.402974 C 194.247786 225.072343 189.616586 236.266583 181.361879 244.51607 C 173.112392 252.765556 161.923373 257.401977 150.254004 257.401977 L 43.997482 257.401977 C 32.328114 257.401977 21.139095 252.765556 12.884387 244.51607 C 4.6349 236.266583 -0.00152045 225.072343 -0.00152045 213.402974 L -0.00152045 43.996109 C -0.00152045 32.32674 4.6349 21.137721 12.884387 12.888235 C 21.139095 4.633527 32.328114 0.00232768 43.997482 0.00232768 Z M 43.997482 0.00232768 " stroke="#d9d9d9" stroke-width="2" stroke-opacity="1" stroke-miterlimit="4"/></g></g><path fill="#7db4e8" d="M 21.636719 93.886719 C 21.636719 93.886719 21.578125 94.039062 21.480469 94.320312 C 20.875 96.039062 18.769531 102.695312 19.730469 109.800781 C 19.730469 109.800781 20.042969 113.65625 26.265625 111.65625 C 32.703125 109.578125 37.480469 108.136719 40.738281 104.773438 C 43.992188 101.414062 21.636719 93.886719 21.636719 93.886719 Z M 21.636719 93.886719 " fill-opacity="1" fill-rule="nonzero"/><path stroke-linecap="round" transform="matrix(0.653618, 0, 0, 0.657899, 7.258687, 41.011186)" fill="none" stroke-linejoin="round" d="M 67.758512 60.681689 C 67.758512 61.210124 67.579222 61.720746 67.214664 62.213555 C 66.856083 62.700427 66.342117 63.133862 65.672766 63.507922 C 65.003415 63.881982 64.232466 64.172918 63.359919 64.374792 C 62.487372 64.576666 61.572991 64.677602 60.628727 64.677602 C 59.684464 64.677602 58.776059 64.576666 57.903512 64.374792 C 57.024989 64.172918 56.25404 63.881982 55.590665 63.507922 C 54.921314 63.133862 54.407348 62.700427 54.04279 62.213555 C 53.678233 61.720746 53.498942 61.210124 53.498942 60.681689 C 53.498942 60.147318 53.678233 59.636696 54.04279 59.149824 C 54.407348 58.657014 54.921314 58.229517 55.590665 57.849519 C 56.25404 57.475459 57.024989 57.184523 57.903512 56.982649 C 58.776059 56.780776 59.684464 56.679839 60.628727 56.679839 C 61.572991 56.679839 62.487372 56.780776 63.359919 56.982649 C 64.232466 57.184523 65.003415 57.475459 65.672766 57.849519 C 66.342117 58.229517 66.856083 58.657014 67.214664 59.149824 C 67.579222 59.636696 67.758512 60.147318 67.758512 60.681689 Z M 67.758512 60.681689 " stroke="#231f20" stroke-width="2.5" stroke-opacity="1" stroke-miterlimit="4"/><path fill="#dfe3e8" d="M 101.902344 97.722656 C 99.289062 99.117188 96.308594 100.609375 92.863281 102.207031 C 89.292969 103.851562 85.625 105.21875 81.855469 106.3125 C 75.816406 108.054688 69.664062 109.09375 63.390625 109.433594 C 46.816406 110.355469 31.488281 106.144531 22.867188 98.511719 C 19.84375 95.851562 17.1875 92.863281 14.898438 89.542969 C 12.613281 86.222656 10.761719 82.667969 9.351562 78.886719 L 16.539062 69.5 L 91.707031 83.972656 Z M 101.902344 97.722656 " fill-opacity="1" fill-rule="nonzero"/><path fill="#7db4e8" d="M 137.140625 87.964844 C 127.199219 94.957031 117.65625 86.847656 117.65625 86.847656 C 117.65625 86.847656 114.386719 91.011719 101.902344 97.722656 C 89.484375 102.328125 79.738281 101.730469 79.738281 101.730469 C 80.703125 103.144531 81.410156 104.679688 81.855469 106.332031 C 83.371094 111.75 82.019531 117.355469 81.261719 119.800781 C 81.203125 119.980469 81.117188 120.144531 81 120.292969 C 80.886719 120.4375 80.746094 120.558594 80.585938 120.65625 C 80.425781 120.75 80.253906 120.816406 80.066406 120.847656 C 79.882812 120.878906 79.699219 120.875 79.515625 120.839844 C 70.863281 119.089844 66.085938 114.347656 63.390625 109.433594 C 61.132812 105.140625 60.03125 100.566406 60.085938 95.707031 C 55.507812 93.308594 37.265625 80.347656 28.199219 77.464844 C 19.265625 74.644531 9.625 78.761719 9.351562 78.886719 C 6.605469 71.167969 6.492188 63.609375 9.511719 58.195312 C 15.238281 47.953125 31.78125 46.667969 45.460938 48.109375 C 48.796875 48.519531 52.078125 49.195312 55.304688 50.136719 C 58.195312 47.058594 66.085938 40.351562 79.496094 41.070312 C 95.835938 41.972656 80.230469 46.992188 79.496094 59.40625 C 85.789062 62.414062 91.429688 65.609375 95.261719 68.4375 C 106.074219 76.4375 113.863281 76.4375 113.863281 76.4375 C 115.535156 68.039062 121.898438 63.28125 125.949219 61.070312 C 130 58.859375 138.007812 59.128906 134.78125 62.351562 C 132.664062 64.429688 130.925781 66.792969 129.566406 69.4375 C 128.210938 72.082031 127.304688 74.875 126.84375 77.8125 C 128.152344 79.789062 131.695312 82.730469 135.65625 84.769531 C 138.882812 86.445312 137.140625 87.964844 137.140625 87.964844 Z M 137.140625 87.964844 " fill-opacity="1" fill-rule="nonzero"/><path fill="#143f65" d="M 64.066406 90.253906 C 63.910156 90.257812 63.769531 90.214844 63.644531 90.117188 C 63.484375 90.003906 63.386719 89.847656 63.351562 89.652344 C 63.316406 89.457031 63.355469 89.277344 63.46875 89.117188 C 68.175781 82.539062 64.777344 78.425781 64.777344 78.386719 C 64.648438 78.234375 64.59375 78.058594 64.609375 77.859375 C 64.625 77.660156 64.710938 77.496094 64.863281 77.367188 C 65.011719 77.238281 65.1875 77.183594 65.382812 77.199219 C 65.578125 77.214844 65.742188 77.300781 65.867188 77.453125 C 66.039062 77.65625 69.988281 82.511719 64.632812 89.953125 C 64.496094 90.148438 64.304688 90.25 64.066406 90.253906 Z M 64.066406 90.253906 " fill-opacity="1" fill-rule="nonzero"/><path fill="#143f65" d="M 69.777344 90.355469 C 69.625 90.355469 69.484375 90.3125 69.359375 90.222656 C 69.199219 90.105469 69.101562 89.949219 69.070312 89.753906 C 69.039062 89.554688 69.082031 89.378906 69.195312 89.214844 C 69.675781 88.539062 70.054688 87.8125 70.335938 87.035156 C 70.617188 86.253906 70.792969 85.449219 70.855469 84.625 C 70.921875 83.796875 70.875 82.976562 70.714844 82.160156 C 70.558594 81.347656 70.296875 80.570312 69.925781 79.828125 C 69.832031 79.65625 69.808594 79.472656 69.863281 79.28125 C 69.914062 79.089844 70.027344 78.945312 70.199219 78.847656 C 70.371094 78.753906 70.550781 78.730469 70.742188 78.785156 C 70.929688 78.835938 71.074219 78.949219 71.167969 79.125 C 71.613281 79.984375 71.929688 80.890625 72.121094 81.839844 C 72.3125 82.789062 72.375 83.746094 72.304688 84.710938 C 72.230469 85.679688 72.03125 86.617188 71.699219 87.527344 C 71.371094 88.4375 70.921875 89.285156 70.359375 90.070312 C 70.210938 90.265625 70.019531 90.359375 69.777344 90.355469 Z M 69.777344 90.355469 " fill-opacity="1" fill-rule="nonzero"/><path fill="#143f65" d="M 40.878906 77.570312 C 40.878906 77.925781 40.8125 78.265625 40.679688 78.59375 C 40.542969 78.921875 40.351562 79.214844 40.101562 79.464844 C 39.851562 79.714844 39.566406 79.910156 39.238281 80.042969 C 38.914062 80.179688 38.574219 80.25 38.21875 80.25 C 37.867188 80.25 37.527344 80.179688 37.203125 80.042969 C 36.875 79.910156 36.589844 79.714844 36.339844 79.464844 C 36.089844 79.214844 35.898438 78.921875 35.761719 78.59375 C 35.628906 78.265625 35.558594 77.925781 35.558594 77.570312 C 35.558594 77.214844 35.628906 76.875 35.761719 76.546875 C 35.898438 76.21875 36.089844 75.929688 36.339844 75.675781 C 36.589844 75.425781 36.875 75.234375 37.203125 75.097656 C 37.527344 74.960938 37.867188 74.894531 38.21875 74.894531 C 38.574219 74.894531 38.914062 74.960938 39.238281 75.097656 C 39.566406 75.234375 39.851562 75.425781 40.101562 75.675781 C 40.351562 75.929688 40.542969 76.21875 40.679688 76.546875 C 40.8125 76.875 40.878906 77.214844 40.878906 77.570312 Z M 40.878906 77.570312 " fill-opacity="1" fill-rule="nonzero"/><path fill="#143f65" d="M 27.519531 87.867188 C 26.6875 87.875 25.882812 87.734375 25.105469 87.4375 C 24.328125 87.144531 23.628906 86.714844 23.011719 86.15625 C 22.867188 85.988281 22.800781 85.796875 22.8125 85.574219 C 22.820312 85.355469 22.902344 85.167969 23.058594 85.011719 C 23.210938 84.855469 23.398438 84.773438 23.617188 84.769531 C 23.835938 84.761719 24.027344 84.828125 24.195312 84.972656 C 24.917969 85.589844 25.75 85.984375 26.683594 86.148438 C 27.621094 86.308594 28.535156 86.222656 29.421875 85.886719 C 32.179688 85.023438 32.566406 82.957031 32.578125 82.875 C 32.617188 82.644531 32.730469 82.464844 32.917969 82.332031 C 33.101562 82.195312 33.308594 82.148438 33.535156 82.183594 C 33.75 82.222656 33.921875 82.335938 34.050781 82.515625 C 34.179688 82.695312 34.226562 82.898438 34.195312 83.117188 C 34.195312 83.25 33.679688 86.292969 29.878906 87.480469 C 29.113281 87.726562 28.328125 87.855469 27.519531 87.867188 Z M 27.519531 87.867188 " fill-opacity="1" fill-rule="nonzero"/><g fill="#000000" fill-opacity="1"><g transform="translate(35.618049, 176.071885)"><g><path d="M 10.128906 0.0351562 L 10.78125 -0.015625 L 11.109375 0.015625 L 11.640625 0 L 12.121094 -0.0859375 L 12.171875 -0.496094 L 12.050781 -0.894531 L 11.792969 -1.527344 L 11.332031 -2.421875 L 11.089844 -3.054688 L 10.746094 -3.675781 L 10.09375 -5.234375 L 9.921875 -5.492188 L 9.75 -5.820312 L 9.648438 -6.199219 L 9.492188 -6.457031 L 9.390625 -6.730469 L 9.03125 -7.363281 L 8.910156 -7.726562 L 7.777344 -10.113281 L 7.675781 -10.457031 L 7.484375 -10.765625 L 7.382812 -11.074219 L 7.054688 -11.675781 L 6.765625 -11.984375 L 6.199219 -12.15625 L 5.648438 -11.964844 L 5.339844 -11.675781 L 5.183594 -11.382812 L 5.066406 -11.039062 L 4.910156 -10.796875 L 4.222656 -9.21875 L 4.035156 -8.960938 L 3.949219 -8.617188 L 3.757812 -8.292969 L 3.65625 -7.984375 L 1.90625 -4.308594 L 1.800781 -3.929688 L 1.632812 -3.675781 L 1.511719 -3.332031 L 1.203125 -2.78125 L 0.945312 -2.09375 L 0.753906 -1.855469 L 0.667969 -1.546875 L 0.328125 -0.859375 L 0.222656 -0.515625 L 0.308594 -0.0859375 L 0.652344 0.015625 L 1.320312 -0.015625 L 1.664062 0.015625 L 2.625 -0.015625 L 3.023438 -0.136719 L 3.347656 -0.445312 L 3.65625 -1.011719 L 3.984375 -1.339844 L 4.34375 -1.527344 L 4.667969 -1.476562 L 5.390625 -1.546875 L 5.699219 -1.492188 L 7.382812 -1.511719 L 7.691406 -1.476562 L 8.070312 -1.527344 L 8.445312 -1.339844 L 8.773438 -1.0625 L 8.925781 -0.738281 L 9.03125 -0.429688 L 9.375 -0.171875 L 9.769531 0 Z M 6.230469 -4.242188 L 5.886719 -4.308594 L 5.492188 -4.273438 L 5.21875 -4.394531 L 5.203125 -4.722656 L 6.007812 -6.574219 L 6.199219 -6.730469 L 6.4375 -6.59375 L 7.246094 -4.703125 L 7.175781 -4.394531 L 6.917969 -4.257812 Z M 6.230469 -4.242188 "/></g></g></g><g fill="#000000" fill-opacity="1"><g transform="translate(48.080104, 176.071885)"><g><path d="M 10.128906 -0.292969 L 10.59375 -0.015625 L 11.074219 0.0351562 L 11.449219 -0.0859375 L 11.621094 -0.429688 L 11.65625 -6.695312 L 11.605469 -6.988281 L 11.605469 -8.6875 L 11.65625 -9.097656 L 11.605469 -11.484375 L 11.433594 -11.828125 L 11.089844 -12.015625 L 8.960938 -12 L 8.636719 -11.8125 L 8.445312 -11.449219 L 8.429688 -11.089844 L 8.480469 -10.816406 L 8.429688 -10.09375 L 8.464844 -9.71875 L 8.429688 -6.644531 L 8.328125 -6.351562 L 8.070312 -6.472656 L 6.851562 -7.691406 L 6.371094 -8.070312 L 2.988281 -11.484375 L 2.730469 -11.691406 L 2.335938 -11.898438 L 1.820312 -12.015625 L 1.425781 -11.847656 L 1.269531 -11.519531 L 1.269531 -6.316406 L 1.253906 -6.027344 L 1.289062 -5.320312 L 1.234375 -5.03125 L 1.269531 -2.214844 L 1.234375 -1.886719 L 1.269531 -0.445312 L 1.425781 -0.121094 L 1.785156 0 L 2.488281 0.0351562 L 2.867188 0 L 3.535156 0.0507812 L 3.898438 0.0351562 L 4.242188 -0.136719 L 4.414062 -0.667969 L 4.429688 -5.011719 L 4.464844 -5.355469 L 4.582031 -5.648438 L 4.808594 -5.5625 L 5.03125 -5.269531 L 6.25 -4.101562 L 6.472656 -3.84375 L 6.765625 -3.65625 L 9.425781 -1.011719 L 9.871094 -0.515625 Z M 10.128906 -0.292969 "/></g></g></g><g fill="#000000" fill-opacity="1"><g transform="translate(61.022786, 176.071885)"><g><path d="M 5.75 0.0703125 L 6.4375 0.0351562 L 6.746094 -0.136719 L 6.917969 -0.464844 L 6.917969 -2.164062 L 6.710938 -2.488281 L 6.335938 -2.679688 L 5.972656 -2.679688 L 5.5625 -2.816406 L 5.355469 -3.210938 L 5.40625 -3.535156 L 5.390625 -5.425781 L 5.425781 -5.800781 L 5.355469 -7.039062 L 5.425781 -8.773438 L 5.546875 -9.167969 L 5.921875 -9.320312 L 6.265625 -9.375 L 6.625 -9.511719 L 6.796875 -9.785156 L 6.816406 -11.484375 L 6.609375 -11.8125 L 6.300781 -12 L 4.222656 -12 L 3.914062 -12.035156 L 3.570312 -11.964844 L 2.164062 -11.964844 L 1.835938 -12.015625 L 1.441406 -12.015625 L 1.097656 -11.847656 L 0.925781 -11.433594 L 0.980469 -10.164062 L 0.945312 -9.835938 L 1.132812 -9.492188 L 1.511719 -9.304688 L 1.855469 -9.304688 L 2.179688 -9.097656 L 2.335938 -8.636719 L 2.386719 -3.363281 L 2.199219 -2.851562 L 1.0625 -2.507812 L 0.875 -2.199219 L 0.824219 -0.617188 L 0.996094 -0.15625 L 1.339844 0 L 1.664062 0 L 1.992188 -0.0351562 L 2.488281 0.0351562 L 3.023438 0.015625 L 3.363281 -0.015625 L 4.050781 0.0507812 L 4.566406 -0.015625 L 5.40625 -0.015625 Z M 5.75 0.0703125 "/></g></g></g><g fill="#000000" fill-opacity="1"><g transform="translate(68.815863, 176.071885)"><g><path d="M 1.785156 0.0507812 L 2.128906 0 L 2.796875 0.0351562 L 3.175781 -0.015625 L 3.726562 0.015625 L 4.207031 -0.1875 L 4.414062 -0.496094 L 4.359375 -2.300781 L 4.414062 -2.832031 L 4.394531 -3.191406 L 4.429688 -3.8125 L 4.394531 -4.1875 L 4.394531 -4.859375 L 4.550781 -5.011719 L 4.722656 -4.945312 L 4.996094 -4.722656 L 5.203125 -4.464844 L 5.90625 -3.757812 L 6.128906 -3.484375 L 6.59375 -3.039062 L 6.953125 -2.78125 L 7.332031 -2.765625 L 7.675781 -3.023438 L 7.914062 -3.277344 L 8.121094 -3.484375 L 8.601562 -4.050781 L 8.839844 -4.222656 L 9.546875 -4.945312 L 9.769531 -5.046875 L 9.90625 -4.789062 L 9.871094 -3.84375 L 9.921875 -3.160156 L 9.890625 -2.488281 L 9.921875 -1.855469 L 9.890625 -1.546875 L 9.921875 -0.773438 L 9.921875 -0.515625 L 10.058594 -0.121094 L 10.421875 -0.015625 L 12.5 0.0507812 L 12.859375 -0.136719 L 13.066406 -0.636719 L 13.011719 -1.527344 L 13.046875 -1.871094 L 13.011719 -7.023438 L 13.046875 -7.398438 L 13.03125 -9.097656 L 13.046875 -9.425781 L 13.011719 -10.164062 L 13.03125 -10.457031 L 13.011719 -11.160156 L 13.046875 -11.484375 L 12.839844 -11.847656 L 12.480469 -12.035156 L 11.984375 -11.878906 L 11.621094 -11.65625 L 10.902344 -10.902344 L 10.679688 -10.625 L 10.472656 -10.4375 L 10.230469 -10.128906 L 8.722656 -8.582031 L 8.5 -8.292969 L 7.449219 -7.226562 L 7.140625 -7.023438 L 6.78125 -7.160156 L 6.574219 -7.449219 L 6.335938 -7.691406 L 6.027344 -8.085938 L 5.648438 -8.429688 L 4.085938 -10.164062 L 3.84375 -10.371094 L 3.398438 -10.902344 L 3.125 -11.140625 L 2.679688 -11.605469 L 2.285156 -11.898438 L 1.800781 -12.035156 L 1.425781 -11.863281 L 1.234375 -11.503906 L 1.289062 -10.457031 L 1.234375 -9.785156 L 1.269531 -9.476562 L 1.253906 -6.730469 L 1.289062 -6.386719 L 1.234375 -4.652344 L 1.269531 -4.328125 L 1.253906 -0.53125 L 1.441406 -0.171875 Z M 1.785156 0.0507812 "/></g></g></g><g fill="#000000" fill-opacity="1"><g transform="translate(83.166106, 176.071885)"><g><path d="M 10.128906 0.0351562 L 10.78125 -0.015625 L 11.109375 0.015625 L 11.640625 0 L 12.121094 -0.0859375 L 12.171875 -0.496094 L 12.050781 -0.894531 L 11.792969 -1.527344 L 11.332031 -2.421875 L 11.089844 -3.054688 L 10.746094 -3.675781 L 10.09375 -5.234375 L 9.921875 -5.492188 L 9.75 -5.820312 L 9.648438 -6.199219 L 9.492188 -6.457031 L 9.390625 -6.730469 L 9.03125 -7.363281 L 8.910156 -7.726562 L 7.777344 -10.113281 L 7.675781 -10.457031 L 7.484375 -10.765625 L 7.382812 -11.074219 L 7.054688 -11.675781 L 6.765625 -11.984375 L 6.199219 -12.15625 L 5.648438 -11.964844 L 5.339844 -11.675781 L 5.183594 -11.382812 L 5.066406 -11.039062 L 4.910156 -10.796875 L 4.222656 -9.21875 L 4.035156 -8.960938 L 3.949219 -8.617188 L 3.757812 -8.292969 L 3.65625 -7.984375 L 1.90625 -4.308594 L 1.800781 -3.929688 L 1.632812 -3.675781 L 1.511719 -3.332031 L 1.203125 -2.78125 L 0.945312 -2.09375 L 0.753906 -1.855469 L 0.667969 -1.546875 L 0.328125 -0.859375 L 0.222656 -0.515625 L 0.308594 -0.0859375 L 0.652344 0.015625 L 1.320312 -0.015625 L 1.664062 0.015625 L 2.625 -0.015625 L 3.023438 -0.136719 L 3.347656 -0.445312 L 3.65625 -1.011719 L 3.984375 -1.339844 L 4.34375 -1.527344 L 4.667969 -1.476562 L 5.390625 -1.546875 L 5.699219 -1.492188 L 7.382812 -1.511719 L 7.691406 -1.476562 L 8.070312 -1.527344 L 8.445312 -1.339844 L 8.773438 -1.0625 L 8.925781 -0.738281 L 9.03125 -0.429688 L 9.375 -0.171875 L 9.769531 0 Z M 6.230469 -4.242188 L 5.886719 -4.308594 L 5.492188 -4.273438 L 5.21875 -4.394531 L 5.203125 -4.722656 L 6.007812 -6.574219 L 6.199219 -6.730469 L 6.4375 -6.59375 L 7.246094 -4.703125 L 7.175781 -4.394531 L 6.917969 -4.257812 Z M 6.230469 -4.242188 "/></g></g></g><g fill="#000000" fill-opacity="1"><g transform="translate(95.62816, 176.071885)"><g><path d="M 5.75 0.0703125 L 6.4375 0.0351562 L 6.746094 -0.136719 L 6.917969 -0.464844 L 6.917969 -2.164062 L 6.710938 -2.488281 L 6.335938 -2.679688 L 5.972656 -2.679688 L 5.5625 -2.816406 L 5.355469 -3.210938 L 5.40625 -3.535156 L 5.390625 -5.425781 L 5.425781 -5.800781 L 5.355469 -7.039062 L 5.425781 -8.773438 L 5.546875 -9.167969 L 5.921875 -9.320312 L 6.265625 -9.375 L 6.625 -9.511719 L 6.796875 -9.785156 L 6.816406 -11.484375 L 6.609375 -11.8125 L 6.300781 -12 L 4.222656 -12 L 3.914062 -12.035156 L 3.570312 -11.964844 L 2.164062 -11.964844 L 1.835938 -12.015625 L 1.441406 -12.015625 L 1.097656 -11.847656 L 0.925781 -11.433594 L 0.980469 -10.164062 L 0.945312 -9.835938 L 1.132812 -9.492188 L 1.511719 -9.304688 L 1.855469 -9.304688 L 2.179688 -9.097656 L 2.335938 -8.636719 L 2.386719 -3.363281 L 2.199219 -2.851562 L 1.0625 -2.507812 L 0.875 -2.199219 L 0.824219 -0.617188 L 0.996094 -0.15625 L 1.339844 0 L 1.664062 0 L 1.992188 -0.0351562 L 2.488281 0.0351562 L 3.023438 0.015625 L 3.363281 -0.015625 L 4.050781 0.0507812 L 4.566406 -0.015625 L 5.40625 -0.015625 Z M 5.75 0.0703125 "/></g></g></g><g fill="#000000" fill-opacity="1"><g transform="translate(103.421237, 176.071885)"><g><path d="M 4.617188 0.15625 L 5.972656 0.1875 L 6.316406 0.15625 L 6.660156 0.0703125 L 7.003906 0.015625 L 7.347656 -0.121094 L 7.65625 -0.15625 L 7.984375 -0.308594 L 9.152344 -1.011719 L 9.648438 -1.527344 L 9.820312 -1.769531 L 10.007812 -2.144531 L 10.113281 -2.453125 L 10.214844 -2.746094 L 10.316406 -3.605469 L 10.285156 -4.15625 L 10.027344 -5.148438 L 9.835938 -5.425781 L 9.390625 -5.941406 L 9.082031 -6.214844 L 8.808594 -6.351562 L 8.5 -6.539062 L 7.160156 -6.953125 L 6.816406 -7.003906 L 6.472656 -7.023438 L 6.113281 -7.089844 L 5.613281 -7.089844 L 4.703125 -7.277344 L 4.070312 -7.589844 L 3.8125 -7.828125 L 3.742188 -8.34375 L 3.828125 -8.808594 L 4.035156 -9.03125 L 4.292969 -9.21875 L 4.566406 -9.375 L 4.875 -9.441406 L 5.425781 -9.460938 L 5.972656 -9.390625 L 6.285156 -9.304688 L 6.59375 -9.097656 L 6.882812 -8.859375 L 7.140625 -8.515625 L 7.519531 -8.292969 L 8.328125 -8.359375 L 8.789062 -8.328125 L 9.132812 -8.328125 L 9.441406 -8.292969 L 9.769531 -8.53125 L 9.90625 -8.824219 L 9.835938 -9.152344 L 9.804688 -9.476562 L 9.320312 -10.371094 L 8.945312 -10.882812 L 7.8125 -11.675781 L 6.851562 -12 L 6.179688 -12.136719 L 4.859375 -12.171875 L 4.480469 -12.070312 L 4.136719 -12.050781 L 3.828125 -12 L 3.175781 -11.792969 L 2.59375 -11.449219 L 1.769531 -10.882812 L 1.167969 -10.078125 L 0.859375 -9.132812 L 0.808594 -8.292969 L 0.824219 -7.761719 L 0.945312 -7.074219 L 1.21875 -6.472656 L 1.855469 -5.683594 L 3.023438 -5.046875 L 3.640625 -4.839844 L 6.335938 -4.53125 L 6.953125 -4.242188 L 7.175781 -4.035156 L 7.277344 -3.605469 L 7.140625 -3.175781 L 6.917969 -2.917969 L 6.335938 -2.660156 L 5.800781 -2.625 L 5.492188 -2.574219 L 4.617188 -2.660156 L 4.328125 -2.816406 L 4.035156 -3.003906 L 3.46875 -3.621094 L 3.125 -3.757812 L 2.816406 -3.726562 L 2.488281 -3.777344 L 1.167969 -3.707031 L 0.859375 -3.570312 L 0.722656 -3.210938 L 0.773438 -2.867188 L 0.839844 -2.523438 L 0.945312 -2.214844 L 1.269531 -1.578125 L 1.511719 -1.355469 L 1.734375 -1.097656 L 2.335938 -0.722656 L 2.574219 -0.464844 L 2.902344 -0.308594 L 3.246094 -0.207031 L 3.914062 0.0351562 Z M 4.617188 0.15625 "/></g></g></g></svg>