<svg xmlns="http://www.w3.org/2000/svg" xmlns:xlink="http://www.w3.org/1999/xlink" width="200" zoomAndPan="magnify" viewBox="0 0 150 202.499994" height="270" preserveAspectRatio="xMidYMid meet" version="1.0"><defs><g/><clipPath id="b8a484504d"><path d="M 4.480469 6.925781 L 149.8125 6.925781 L 149.8125 199.949219 L 4.480469 199.949219 Z M 4.480469 6.925781 " clip-rule="nonzero"/></clipPath><clipPath id="79df1c705e"><path d="M 37.398438 6.925781 L 116.898438 6.925781 C 125.628906 6.925781 134 10.394531 140.171875 16.566406 C 146.347656 22.742188 149.816406 31.113281 149.816406 39.84375 L 149.816406 166.59375 C 149.816406 175.324219 146.347656 183.695312 140.171875 189.871094 C 134 196.042969 125.628906 199.511719 116.898438 199.511719 L 37.398438 199.511719 C 28.667969 199.511719 20.296875 196.042969 14.121094 189.871094 C 7.949219 183.695312 4.480469 175.324219 4.480469 166.59375 L 4.480469 39.84375 C 4.480469 31.113281 7.949219 22.742188 14.121094 16.566406 C 20.296875 10.394531 28.667969 6.925781 37.398438 6.925781 Z M 37.398438 6.925781 " clip-rule="nonzero"/></clipPath><clipPath id="46874d0ecd"><path d="M 0.183594 2.488281 L 145.519531 2.488281 L 145.519531 195 L 0.183594 195 Z M 0.183594 2.488281 " clip-rule="nonzero"/></clipPath><clipPath id="273835c964"><path d="M 33.101562 2.488281 L 112.601562 2.488281 C 121.332031 2.488281 129.703125 5.957031 135.878906 12.132812 C 142.050781 18.304688 145.519531 26.675781 145.519531 35.40625 L 145.519531 162.15625 C 145.519531 170.886719 142.050781 179.261719 135.878906 185.433594 C 129.703125 191.605469 121.332031 195.074219 112.601562 195.074219 L 33.101562 195.074219 C 24.371094 195.074219 16 191.605469 9.828125 185.433594 C 3.652344 179.261719 0.183594 170.886719 0.183594 162.15625 L 0.183594 35.40625 C 0.183594 26.675781 3.652344 18.304688 9.828125 12.132812 C 16 5.957031 24.371094 2.488281 33.101562 2.488281 Z M 33.101562 2.488281 " clip-rule="nonzero"/></clipPath><clipPath id="dec164d3a1"><path d="M 0.183594 2.492188 L 145.328125 2.492188 L 145.328125 194.765625 L 0.183594 194.765625 Z M 0.183594 2.492188 " clip-rule="nonzero"/></clipPath><clipPath id="e3c33c192c"><path d="M 33.101562 2.492188 L 112.597656 2.492188 C 121.328125 2.492188 129.699219 5.957031 135.871094 12.132812 C 142.046875 18.304688 145.511719 26.675781 145.511719 35.40625 L 145.511719 162.148438 C 145.511719 170.878906 142.046875 179.253906 135.871094 185.425781 C 129.699219 191.597656 121.328125 195.066406 112.597656 195.066406 L 33.101562 195.066406 C 24.371094 195.066406 16 191.597656 9.824219 185.425781 C 3.652344 179.253906 0.183594 170.878906 0.183594 162.148438 L 0.183594 35.40625 C 0.183594 26.675781 3.652344 18.304688 9.824219 12.132812 C 16 5.957031 24.371094 2.492188 33.101562 2.492188 Z M 33.101562 2.492188 " clip-rule="nonzero"/></clipPath><clipPath id="5a6ccbe9cd"><path d="M 16.214844 32 L 129.183594 32 L 129.183594 129 L 16.214844 129 Z M 16.214844 32 " clip-rule="nonzero"/></clipPath></defs><g clip-path="url(#b8a484504d)"><g clip-path="url(#79df1c705e)"><path fill="#d9d9d9" d="M 4.480469 6.925781 L 149.816406 6.925781 L 149.816406 199.382812 L 4.480469 199.382812 Z M 4.480469 6.925781 " fill-opacity="1" fill-rule="nonzero"/></g></g><g clip-path="url(#46874d0ecd)"><g clip-path="url(#273835c964)"><path fill="#dfe3e8" d="M 0.183594 2.488281 L 145.519531 2.488281 L 145.519531 194.945312 L 0.183594 194.945312 Z M 0.183594 2.488281 " fill-opacity="1" fill-rule="nonzero"/></g></g><g clip-path="url(#dec164d3a1)"><g clip-path="url(#e3c33c192c)"><path stroke-linecap="butt" transform="matrix(0.748153, 0, 0, 0.748153, 0.184731, 2.49049)" fill="none" stroke-linejoin="miter" d="M 43.997482 0.00226909 L 150.254004 0.00226909 C 161.923373 0.00226909 173.112392 4.633468 181.361879 12.888176 C 189.616586 21.137663 194.247786 32.326682 194.247786 43.996051 L 194.247786 213.402915 C 194.247786 225.072284 189.616586 236.266524 181.361879 244.516011 C 173.112392 252.765498 161.923373 257.401918 150.254004 257.401918 L 43.997482 257.401918 C 32.328114 257.401918 21.139095 252.765498 12.884387 244.516011 C 4.6349 236.266524 -0.00152045 225.072284 -0.00152045 213.402915 L -0.00152045 43.996051 C -0.00152045 32.326682 4.6349 21.137663 12.884387 12.888176 C 21.139095 4.633468 32.328114 0.00226909 43.997482 0.00226909 Z M 43.997482 0.00226909 " stroke="#d9d9d9" stroke-width="2" stroke-opacity="1" stroke-miterlimit="4"/></g></g><g clip-path="url(#5a6ccbe9cd)"><path fill="#d99e82" d="M 72.699219 32.175781 C 41.503906 32.175781 16.214844 53.847656 16.214844 80.578125 C 16.214844 83.921875 16.609375 87.1875 17.363281 90.339844 C 22.949219 99.941406 26.808594 93.882812 44.457031 85.058594 C 62.425781 76.074219 44.457031 97.609375 38.179688 110.15625 C 36.25 114.015625 37.292969 117.28125 39.9375 119.957031 C 49.183594 125.617188 60.472656 128.980469 72.699219 128.980469 C 103.894531 128.980469 129.183594 107.3125 129.183594 80.578125 C 129.183594 53.847656 103.894531 32.175781 72.699219 32.175781 Z M 81.640625 108.871094 C 80.398438 113.09375 73.917969 114.90625 67.164062 112.921875 C 60.40625 110.9375 55.933594 105.910156 57.175781 101.6875 C 58.414062 97.464844 64.894531 95.648438 71.652344 97.640625 C 78.40625 99.617188 82.878906 104.644531 81.640625 108.871094 Z M 81.640625 108.871094 " fill-opacity="1" fill-rule="nonzero"/></g><path fill="#5c913b" d="M 57.007812 56.824219 C 57.007812 57.445312 56.949219 58.054688 56.828125 58.660156 C 56.707031 59.269531 56.527344 59.855469 56.292969 60.425781 C 56.054688 61 55.765625 61.539062 55.421875 62.054688 C 55.078125 62.566406 54.6875 63.042969 54.25 63.480469 C 53.8125 63.917969 53.339844 64.308594 52.824219 64.652344 C 52.308594 64.992188 51.769531 65.285156 51.195312 65.519531 C 50.625 65.757812 50.035156 65.933594 49.429688 66.054688 C 48.824219 66.175781 48.210938 66.238281 47.59375 66.238281 C 46.976562 66.238281 46.363281 66.175781 45.757812 66.054688 C 45.152344 65.933594 44.5625 65.757812 43.992188 65.519531 C 43.421875 65.285156 42.878906 64.992188 42.363281 64.652344 C 41.851562 64.308594 41.375 63.917969 40.9375 63.480469 C 40.5 63.042969 40.109375 62.566406 39.765625 62.054688 C 39.421875 61.539062 39.132812 61 38.894531 60.425781 C 38.660156 59.855469 38.480469 59.269531 38.359375 58.660156 C 38.238281 58.054688 38.179688 57.445312 38.179688 56.824219 C 38.179688 56.207031 38.238281 55.59375 38.359375 54.988281 C 38.480469 54.382812 38.660156 53.796875 38.894531 53.222656 C 39.132812 52.652344 39.421875 52.109375 39.765625 51.597656 C 40.109375 51.082031 40.5 50.609375 40.9375 50.171875 C 41.375 49.734375 41.851562 49.34375 42.363281 49 C 42.878906 48.65625 43.421875 48.367188 43.992188 48.128906 C 44.5625 47.894531 45.152344 47.714844 45.757812 47.59375 C 46.363281 47.472656 46.976562 47.414062 47.59375 47.414062 C 48.210938 47.414062 48.824219 47.472656 49.429688 47.59375 C 50.035156 47.714844 50.625 47.894531 51.195312 48.128906 C 51.769531 48.367188 52.308594 48.65625 52.824219 49 C 53.339844 49.34375 53.8125 49.734375 54.25 50.171875 C 54.6875 50.609375 55.078125 51.082031 55.421875 51.597656 C 55.765625 52.109375 56.054688 52.652344 56.292969 53.222656 C 56.527344 53.796875 56.707031 54.382812 56.828125 54.988281 C 56.949219 55.59375 57.007812 56.207031 57.007812 56.824219 Z M 57.007812 56.824219 " fill-opacity="1" fill-rule="nonzero"/><path fill="#226699" d="M 88.390625 50.550781 C 88.390625 51.167969 88.328125 51.78125 88.207031 52.386719 C 88.085938 52.992188 87.910156 53.582031 87.671875 54.152344 C 87.4375 54.722656 87.144531 55.265625 86.800781 55.78125 C 86.460938 56.292969 86.070312 56.769531 85.632812 57.207031 C 85.195312 57.644531 84.71875 58.035156 84.207031 58.375 C 83.691406 58.71875 83.148438 59.011719 82.578125 59.246094 C 82.007812 59.484375 81.417969 59.660156 80.8125 59.78125 C 80.207031 59.902344 79.59375 59.960938 78.976562 59.960938 C 78.355469 59.960938 77.746094 59.902344 77.136719 59.78125 C 76.53125 59.660156 75.941406 59.484375 75.371094 59.246094 C 74.800781 59.011719 74.257812 58.71875 73.746094 58.375 C 73.230469 58.035156 72.753906 57.644531 72.316406 57.207031 C 71.882812 56.769531 71.492188 56.292969 71.148438 55.78125 C 70.804688 55.265625 70.515625 54.722656 70.277344 54.152344 C 70.039062 53.582031 69.863281 52.992188 69.742188 52.386719 C 69.621094 51.78125 69.5625 51.167969 69.5625 50.550781 C 69.5625 49.933594 69.621094 49.320312 69.742188 48.714844 C 69.863281 48.109375 70.039062 47.519531 70.277344 46.949219 C 70.515625 46.378906 70.804688 45.835938 71.148438 45.324219 C 71.492188 44.808594 71.882812 44.332031 72.316406 43.898438 C 72.753906 43.460938 73.230469 43.070312 73.746094 42.726562 C 74.257812 42.382812 74.800781 42.09375 75.371094 41.855469 C 75.941406 41.621094 76.53125 41.441406 77.136719 41.320312 C 77.746094 41.199219 78.355469 41.140625 78.976562 41.140625 C 79.59375 41.140625 80.207031 41.199219 80.8125 41.320312 C 81.417969 41.441406 82.007812 41.621094 82.578125 41.855469 C 83.148438 42.09375 83.691406 42.382812 84.207031 42.726562 C 84.71875 43.070312 85.195312 43.460938 85.632812 43.898438 C 86.070312 44.332031 86.460938 44.808594 86.800781 45.324219 C 87.144531 45.835938 87.4375 46.378906 87.671875 46.949219 C 87.910156 47.519531 88.085938 48.109375 88.207031 48.714844 C 88.328125 49.320312 88.390625 49.933594 88.390625 50.550781 Z M 88.390625 50.550781 " fill-opacity="1" fill-rule="nonzero"/><path fill="#dd2e44" d="M 116.632812 69.375 C 116.632812 69.992188 116.570312 70.605469 116.449219 71.210938 C 116.332031 71.816406 116.152344 72.40625 115.914062 72.976562 C 115.679688 73.546875 115.390625 74.089844 115.046875 74.601562 C 114.703125 75.117188 114.3125 75.59375 113.875 76.027344 C 113.4375 76.464844 112.960938 76.855469 112.449219 77.199219 C 111.933594 77.542969 111.390625 77.832031 110.820312 78.070312 C 110.25 78.304688 109.660156 78.484375 109.054688 78.605469 C 108.449219 78.726562 107.835938 78.785156 107.21875 78.785156 C 106.597656 78.785156 105.988281 78.726562 105.382812 78.605469 C 104.773438 78.484375 104.1875 78.304688 103.613281 78.070312 C 103.042969 77.832031 102.5 77.542969 101.988281 77.199219 C 101.472656 76.855469 100.996094 76.464844 100.5625 76.027344 C 100.125 75.59375 99.734375 75.117188 99.390625 74.601562 C 99.046875 74.089844 98.757812 73.546875 98.519531 72.976562 C 98.285156 72.40625 98.105469 71.816406 97.984375 71.210938 C 97.863281 70.605469 97.804688 69.992188 97.804688 69.375 C 97.804688 68.757812 97.863281 68.144531 97.984375 67.539062 C 98.105469 66.933594 98.285156 66.34375 98.519531 65.773438 C 98.757812 65.203125 99.046875 64.660156 99.390625 64.144531 C 99.734375 63.632812 100.125 63.15625 100.5625 62.71875 C 100.996094 62.28125 101.472656 61.890625 101.988281 61.546875 C 102.5 61.207031 103.042969 60.914062 103.613281 60.679688 C 104.1875 60.441406 104.773438 60.265625 105.382812 60.144531 C 105.988281 60.023438 106.597656 59.960938 107.21875 59.960938 C 107.835938 59.960938 108.449219 60.023438 109.054688 60.144531 C 109.660156 60.265625 110.25 60.441406 110.820312 60.679688 C 111.390625 60.914062 111.933594 61.207031 112.449219 61.546875 C 112.960938 61.890625 113.4375 62.28125 113.875 62.71875 C 114.3125 63.15625 114.703125 63.632812 115.046875 64.144531 C 115.390625 64.660156 115.679688 65.203125 115.914062 65.773438 C 116.152344 66.34375 116.332031 66.933594 116.449219 67.539062 C 116.570312 68.144531 116.632812 68.757812 116.632812 69.375 Z M 116.632812 69.375 " fill-opacity="1" fill-rule="nonzero"/><path fill="#ffcc4d" d="M 113.492188 97.609375 C 113.492188 98.226562 113.433594 98.835938 113.3125 99.445312 C 113.191406 100.050781 113.015625 100.636719 112.777344 101.210938 C 112.539062 101.78125 112.25 102.324219 111.90625 102.835938 C 111.5625 103.351562 111.171875 103.824219 110.738281 104.261719 C 110.300781 104.699219 109.824219 105.089844 109.308594 105.433594 C 108.796875 105.777344 108.253906 106.066406 107.683594 106.304688 C 107.109375 106.539062 106.523438 106.71875 105.917969 106.839844 C 105.308594 106.957031 104.699219 107.019531 104.078125 107.019531 C 103.460938 107.019531 102.847656 106.957031 102.242188 106.839844 C 101.636719 106.71875 101.046875 106.539062 100.476562 106.304688 C 99.90625 106.066406 99.363281 105.777344 98.847656 105.433594 C 98.335938 105.089844 97.859375 104.699219 97.421875 104.261719 C 96.984375 103.824219 96.59375 103.351562 96.25 102.835938 C 95.910156 102.324219 95.617188 101.78125 95.382812 101.210938 C 95.144531 100.636719 94.964844 100.050781 94.847656 99.445312 C 94.726562 98.835938 94.664062 98.226562 94.664062 97.609375 C 94.664062 96.988281 94.726562 96.378906 94.847656 95.773438 C 94.964844 95.164062 95.144531 94.578125 95.382812 94.007812 C 95.617188 93.433594 95.910156 92.894531 96.25 92.378906 C 96.59375 91.867188 96.984375 91.390625 97.421875 90.953125 C 97.859375 90.515625 98.335938 90.125 98.847656 89.78125 C 99.363281 89.4375 99.90625 89.148438 100.476562 88.914062 C 101.046875 88.675781 101.636719 88.496094 102.242188 88.378906 C 102.847656 88.257812 103.460938 88.195312 104.078125 88.195312 C 104.699219 88.195312 105.308594 88.257812 105.917969 88.378906 C 106.523438 88.496094 107.109375 88.675781 107.683594 88.914062 C 108.253906 89.148438 108.796875 89.4375 109.308594 89.78125 C 109.824219 90.125 110.300781 90.515625 110.738281 90.953125 C 111.171875 91.390625 111.5625 91.867188 111.90625 92.378906 C 112.25 92.894531 112.539062 93.433594 112.777344 94.007812 C 113.015625 94.578125 113.191406 95.164062 113.3125 95.773438 C 113.433594 96.378906 113.492188 96.988281 113.492188 97.609375 Z M 113.492188 97.609375 " fill-opacity="1" fill-rule="nonzero"/><g fill="#000000" fill-opacity="1"><g transform="translate(45.463958, 176.937022)"><g><path d="M 10.128906 0.0351562 L 10.78125 -0.015625 L 11.109375 0.015625 L 11.640625 0 L 12.121094 -0.0859375 L 12.171875 -0.496094 L 12.050781 -0.894531 L 11.792969 -1.527344 L 11.332031 -2.421875 L 11.089844 -3.054688 L 10.746094 -3.675781 L 10.09375 -5.234375 L 9.921875 -5.492188 L 9.75 -5.820312 L 9.648438 -6.199219 L 9.492188 -6.457031 L 9.390625 -6.730469 L 9.03125 -7.363281 L 8.910156 -7.726562 L 7.777344 -10.113281 L 7.675781 -10.457031 L 7.484375 -10.765625 L 7.382812 -11.074219 L 7.054688 -11.675781 L 6.765625 -11.984375 L 6.199219 -12.15625 L 5.648438 -11.964844 L 5.339844 -11.675781 L 5.183594 -11.382812 L 5.066406 -11.039062 L 4.910156 -10.796875 L 4.222656 -9.21875 L 4.035156 -8.960938 L 3.949219 -8.617188 L 3.757812 -8.292969 L 3.65625 -7.984375 L 1.90625 -4.308594 L 1.800781 -3.929688 L 1.632812 -3.675781 L 1.511719 -3.332031 L 1.203125 -2.78125 L 0.945312 -2.09375 L 0.753906 -1.855469 L 0.667969 -1.546875 L 0.328125 -0.859375 L 0.222656 -0.515625 L 0.308594 -0.0859375 L 0.652344 0.015625 L 1.320312 -0.015625 L 1.664062 0.015625 L 2.625 -0.015625 L 3.023438 -0.136719 L 3.347656 -0.445312 L 3.65625 -1.011719 L 3.984375 -1.339844 L 4.34375 -1.527344 L 4.667969 -1.476562 L 5.390625 -1.546875 L 5.699219 -1.492188 L 7.382812 -1.511719 L 7.691406 -1.476562 L 8.070312 -1.527344 L 8.445312 -1.339844 L 8.773438 -1.0625 L 8.925781 -0.738281 L 9.03125 -0.429688 L 9.375 -0.171875 L 9.769531 0 Z M 6.230469 -4.242188 L 5.886719 -4.308594 L 5.492188 -4.273438 L 5.21875 -4.394531 L 5.203125 -4.722656 L 6.007812 -6.574219 L 6.199219 -6.730469 L 6.4375 -6.59375 L 7.246094 -4.703125 L 7.175781 -4.394531 L 6.917969 -4.257812 Z M 6.230469 -4.242188 "/></g></g></g><g fill="#000000" fill-opacity="1"><g transform="translate(57.926012, 176.937022)"><g><path d="M 1.289062 -0.703125 L 1.460938 -0.171875 L 1.957031 0.0507812 L 2.300781 0 L 2.851562 0.0507812 L 3.125 0.015625 L 3.640625 0.015625 L 4.1875 -0.15625 L 4.34375 -0.652344 L 4.34375 -1.234375 L 4.378906 -1.546875 L 4.328125 -1.90625 L 4.359375 -3.003906 L 4.515625 -3.347656 L 4.839844 -3.535156 L 5.835938 -3.398438 L 6.179688 -3.105469 L 6.386719 -2.765625 L 6.523438 -2.453125 L 6.882812 -1.941406 L 7.210938 -1.320312 L 7.398438 -1.0625 L 7.535156 -0.722656 L 7.726562 -0.429688 L 8.101562 -0.121094 L 8.6875 0.0351562 L 10.042969 0.015625 L 10.371094 0.0507812 L 10.9375 0.0351562 L 11.261719 -0.121094 L 11.363281 -0.496094 L 11.175781 -0.875 L 10.96875 -1.117188 L 10.832031 -1.441406 L 10.25 -2.316406 L 10.09375 -2.625 L 9.546875 -3.519531 L 9.339844 -3.777344 L 9.320312 -4.1875 L 9.476562 -4.566406 L 9.71875 -4.824219 L 9.957031 -5.03125 L 10.625 -6.230469 L 10.851562 -7.226562 L 10.816406 -8.308594 L 10.765625 -8.652344 L 10.457031 -9.632812 L 10.316406 -9.921875 L 10.128906 -10.199219 L 9.152344 -11.226562 L 8.550781 -11.554688 L 7.898438 -11.777344 L 6.917969 -12 L 6.371094 -12.015625 L 5.871094 -11.984375 L 4.839844 -11.984375 L 4.496094 -12.050781 L 4.15625 -12.050781 L 3.84375 -11.964844 L 3.503906 -11.964844 L 3.160156 -12.035156 L 2.78125 -12.050781 L 1.769531 -11.964844 L 1.460938 -11.792969 L 1.253906 -11.3125 L 1.269531 -7.382812 L 1.304688 -7.039062 L 1.253906 -6.351562 L 1.269531 -5.972656 L 1.269531 -5.632812 L 1.304688 -5.304688 L 1.269531 -4.980469 L 1.253906 -3.589844 L 1.289062 -3.246094 Z M 4.839844 -6.285156 L 4.496094 -6.472656 L 4.359375 -6.746094 L 4.359375 -7.777344 L 4.328125 -8.070312 L 4.359375 -8.789062 L 4.515625 -9.117188 L 4.875 -9.253906 L 5.21875 -9.234375 L 5.90625 -9.304688 L 6.386719 -9.203125 L 6.832031 -9.167969 L 7.160156 -9.082031 L 7.589844 -8.550781 L 7.691406 -8.273438 L 7.761719 -7.828125 L 7.707031 -7.3125 L 7.554688 -6.96875 L 7.363281 -6.710938 L 7.175781 -6.558594 L 6.867188 -6.421875 L 6.371094 -6.300781 L 6.042969 -6.285156 L 5.21875 -6.316406 Z M 4.839844 -6.285156 "/></g></g></g><g fill="#000000" fill-opacity="1"><g transform="translate(69.838775, 176.937022)"><g><path d="M 4.480469 0.0351562 L 5.632812 0 L 6.128906 -0.171875 L 6.300781 -0.652344 L 6.351562 -1.546875 L 6.300781 -2.199219 L 6.335938 -2.558594 L 6.316406 -3.246094 L 6.351562 -3.554688 L 6.300781 -3.929688 L 6.335938 -6.695312 L 6.285156 -7.054688 L 6.335938 -8.550781 L 6.472656 -9.066406 L 6.796875 -9.269531 L 7.46875 -9.304688 L 8.101562 -9.21875 L 8.464844 -9.269531 L 8.773438 -9.253906 L 9.066406 -9.441406 L 9.269531 -9.820312 L 9.289062 -11.449219 L 9.097656 -11.792969 L 8.773438 -12.015625 L 7.707031 -12.015625 L 7.382812 -12.050781 L 7.023438 -12 L 6.695312 -12.035156 L 5.304688 -11.964844 L 4.960938 -12.035156 L 4.636719 -12.050781 L 4.273438 -12 L 3.898438 -12.035156 L 3.589844 -11.964844 L 2.574219 -12.015625 L 2.042969 -11.964844 L 0.839844 -12.035156 L 0.515625 -11.863281 L 0.308594 -11.46875 L 0.328125 -11.125 L 0.292969 -10.265625 L 0.328125 -9.734375 L 0.480469 -9.425781 L 0.789062 -9.253906 L 1.132812 -9.289062 L 2.765625 -9.253906 L 3.089844 -9.082031 L 3.277344 -8.738281 L 3.246094 -8.1875 L 3.277344 -7.707031 L 3.261719 -7.332031 L 3.277344 -6.988281 L 3.246094 -6.507812 L 3.296875 -3.949219 L 3.261719 -3.605469 L 3.246094 -2.214844 L 3.277344 -1.855469 L 3.261719 -0.859375 L 3.226562 -0.53125 L 3.449219 -0.15625 L 3.949219 0.015625 Z M 4.480469 0.0351562 "/></g></g></g><g fill="#000000" fill-opacity="1"><g transform="translate(79.43421, 176.937022)"><g><path d="M 5.972656 0.0507812 L 8.429688 0.015625 L 8.789062 -0.136719 L 8.980469 -0.496094 L 8.980469 -2.230469 L 8.789062 -2.574219 L 8.429688 -2.730469 L 8.035156 -2.695312 L 7.707031 -2.746094 L 6.832031 -2.765625 L 6.265625 -2.695312 L 5.921875 -2.730469 L 5.546875 -2.710938 L 5.21875 -2.765625 L 4.839844 -2.730469 L 4.480469 -2.902344 L 4.34375 -3.210938 L 4.34375 -4.292969 L 4.496094 -4.652344 L 4.808594 -4.839844 L 5.320312 -4.859375 L 5.871094 -4.808594 L 6.523438 -4.839844 L 7.226562 -4.824219 L 7.570312 -4.859375 L 7.964844 -4.839844 L 8.308594 -4.980469 L 8.429688 -5.320312 L 8.480469 -6.867188 L 8.308594 -7.347656 L 7.914062 -7.570312 L 6.902344 -7.570312 L 6.539062 -7.535156 L 5.820312 -7.589844 L 4.824219 -7.554688 L 4.464844 -7.707031 L 4.328125 -8.242188 L 4.328125 -8.773438 L 4.480469 -9.097656 L 4.859375 -9.234375 L 5.183594 -9.21875 L 5.511719 -9.289062 L 7.964844 -9.253906 L 8.292969 -9.269531 L 8.652344 -9.476562 L 8.824219 -9.785156 L 8.808594 -10.128906 L 8.824219 -10.472656 L 8.789062 -11.503906 L 8.636719 -11.828125 L 8.292969 -11.964844 L 7.929688 -11.964844 L 7.621094 -12.035156 L 6.230469 -12.015625 L 5.855469 -11.984375 L 5.511719 -12.015625 L 5.21875 -12 L 4.875 -12.035156 L 3.46875 -12 L 3.125 -12.050781 L 2.796875 -11.984375 L 2.488281 -12.015625 L 2.144531 -11.984375 L 1.800781 -12 L 1.441406 -11.863281 L 1.253906 -11.503906 L 1.289062 -10.851562 L 1.234375 -10.144531 L 1.289062 -9.769531 L 1.253906 -8.085938 L 1.304688 -7.726562 L 1.269531 -7.398438 L 1.253906 -5.992188 L 1.304688 -5.683594 L 1.289062 -2.902344 L 1.253906 -2.574219 L 1.304688 -2.230469 L 1.253906 -1.046875 L 1.289062 -0.667969 L 1.425781 -0.207031 L 1.941406 0.015625 L 3.175781 0.0351562 L 3.554688 0 L 3.863281 0.015625 L 4.566406 -0.0351562 L 4.894531 0.0351562 L 5.289062 0.0507812 L 5.632812 0.015625 Z M 5.972656 0.0507812 "/></g></g></g><g fill="#000000" fill-opacity="1"><g transform="translate(89.269959, 176.937022)"><g><path d="M 4.617188 0.15625 L 5.972656 0.1875 L 6.316406 0.15625 L 6.660156 0.0703125 L 7.003906 0.015625 L 7.347656 -0.121094 L 7.65625 -0.15625 L 7.984375 -0.308594 L 9.152344 -1.011719 L 9.648438 -1.527344 L 9.820312 -1.769531 L 10.007812 -2.144531 L 10.113281 -2.453125 L 10.214844 -2.746094 L 10.316406 -3.605469 L 10.285156 -4.15625 L 10.027344 -5.148438 L 9.835938 -5.425781 L 9.390625 -5.941406 L 9.082031 -6.214844 L 8.808594 -6.351562 L 8.5 -6.539062 L 7.160156 -6.953125 L 6.816406 -7.003906 L 6.472656 -7.023438 L 6.113281 -7.089844 L 5.613281 -7.089844 L 4.703125 -7.277344 L 4.070312 -7.589844 L 3.8125 -7.828125 L 3.742188 -8.34375 L 3.828125 -8.808594 L 4.035156 -9.03125 L 4.292969 -9.21875 L 4.566406 -9.375 L 4.875 -9.441406 L 5.425781 -9.460938 L 5.972656 -9.390625 L 6.285156 -9.304688 L 6.59375 -9.097656 L 6.882812 -8.859375 L 7.140625 -8.515625 L 7.519531 -8.292969 L 8.328125 -8.359375 L 8.789062 -8.328125 L 9.132812 -8.328125 L 9.441406 -8.292969 L 9.769531 -8.53125 L 9.90625 -8.824219 L 9.835938 -9.152344 L 9.804688 -9.476562 L 9.320312 -10.371094 L 8.945312 -10.882812 L 7.8125 -11.675781 L 6.851562 -12 L 6.179688 -12.136719 L 4.859375 -12.171875 L 4.480469 -12.070312 L 4.136719 -12.050781 L 3.828125 -12 L 3.175781 -11.792969 L 2.59375 -11.449219 L 1.769531 -10.882812 L 1.167969 -10.078125 L 0.859375 -9.132812 L 0.808594 -8.292969 L 0.824219 -7.761719 L 0.945312 -7.074219 L 1.21875 -6.472656 L 1.855469 -5.683594 L 3.023438 -5.046875 L 3.640625 -4.839844 L 6.335938 -4.53125 L 6.953125 -4.242188 L 7.175781 -4.035156 L 7.277344 -3.605469 L 7.140625 -3.175781 L 6.917969 -2.917969 L 6.335938 -2.660156 L 5.800781 -2.625 L 5.492188 -2.574219 L 4.617188 -2.660156 L 4.328125 -2.816406 L 4.035156 -3.003906 L 3.46875 -3.621094 L 3.125 -3.757812 L 2.816406 -3.726562 L 2.488281 -3.777344 L 1.167969 -3.707031 L 0.859375 -3.570312 L 0.722656 -3.210938 L 0.773438 -2.867188 L 0.839844 -2.523438 L 0.945312 -2.214844 L 1.269531 -1.578125 L 1.511719 -1.355469 L 1.734375 -1.097656 L 2.335938 -0.722656 L 2.574219 -0.464844 L 2.902344 -0.308594 L 3.246094 -0.207031 L 3.914062 0.0351562 Z M 4.617188 0.15625 "/></g></g></g></svg>