<svg xmlns="http://www.w3.org/2000/svg" xmlns:xlink="http://www.w3.org/1999/xlink" width="300" zoomAndPan="magnify" viewBox="0 0 224.87999 74.999997" height="100" preserveAspectRatio="xMidYMid meet" version="1.0"><defs><g/><clipPath id="914f241417"><path d="M 0 0.0195312 L 224.761719 0.0195312 L 224.761719 66.695312 L 0 66.695312 Z M 0 0.0195312 " clip-rule="nonzero"/></clipPath><clipPath id="341fc41823"><path d="M 33.339844 0.0195312 L 191.542969 0.0195312 C 200.382812 0.0195312 208.863281 3.53125 215.117188 9.785156 C 221.367188 16.035156 224.878906 24.515625 224.878906 33.359375 C 224.878906 42.199219 221.367188 50.679688 215.117188 56.933594 C 208.863281 63.183594 200.382812 66.695312 191.542969 66.695312 L 33.339844 66.695312 C 24.496094 66.695312 16.015625 63.183594 9.765625 56.933594 C 3.511719 50.679688 0 42.199219 0 33.359375 C 0 24.515625 3.511719 16.035156 9.765625 9.785156 C 16.015625 3.53125 24.496094 0.0195312 33.339844 0.0195312 Z M 33.339844 0.0195312 " clip-rule="nonzero"/></clipPath><clipPath id="c10ca6b21c"><path d="M 0.015625 0.0195312 L 224.761719 0.0195312 L 224.761719 66.734375 L 0.015625 66.734375 Z M 0.015625 0.0195312 " clip-rule="nonzero"/></clipPath><clipPath id="73f54e5b61"><path d="M 33.347656 0.0195312 L 191.53125 0.0195312 C 200.371094 0.0195312 208.851562 3.53125 215.101562 9.785156 C 221.351562 16.035156 224.863281 24.511719 224.863281 33.355469 C 224.863281 42.195312 221.351562 50.671875 215.101562 56.925781 C 208.851562 63.175781 200.371094 66.6875 191.53125 66.6875 L 33.347656 66.6875 C 24.507812 66.6875 16.03125 63.175781 9.777344 56.925781 C 3.527344 50.671875 0.015625 42.195312 0.015625 33.355469 C 0.015625 24.511719 3.527344 16.035156 9.777344 9.785156 C 16.03125 3.53125 24.507812 0.0195312 33.347656 0.0195312 Z M 33.347656 0.0195312 " clip-rule="nonzero"/></clipPath></defs><g clip-path="url(#914f241417)"><g clip-path="url(#341fc41823)"><path fill="#5acd00" d="M 0 0.0195312 L 224.773438 0.0195312 L 224.773438 66.695312 L 0 66.695312 Z M 0 0.0195312 " fill-opacity="1" fill-rule="nonzero"/></g></g><g clip-path="url(#c10ca6b21c)"><g clip-path="url(#73f54e5b61)"><path stroke-linecap="butt" transform="matrix(0.7496, 0, 0, 0.7496, 0.0148288, 0.0199992)" fill="none" stroke-linejoin="miter" d="M 44.46749 -0.000624223 L 255.491512 -0.000624223 C 267.284261 -0.000624223 278.597588 4.684166 286.935369 13.027158 C 295.273149 21.364939 299.95794 32.673055 299.95794 44.471014 C 299.95794 56.263763 295.273149 67.571879 286.935369 75.914871 C 278.597588 84.252651 267.284261 88.937442 255.491512 88.937442 L 44.46749 88.937442 C 32.674741 88.937442 21.366626 84.252651 13.023634 75.914871 C 4.685853 67.571879 0.00106218 56.263763 0.00106218 44.471014 C 0.00106218 32.673055 4.685853 21.364939 13.023634 13.027158 C 21.366626 4.684166 32.674741 -0.000624223 44.46749 -0.000624223 Z M 44.46749 -0.000624223 " stroke="#5acd00" stroke-width="2" stroke-opacity="1" stroke-miterlimit="4"/></g></g><g fill="#000000" fill-opacity="1"><g transform="translate(56.194878, 41.649364)"><g><path d="M 1.84375 -0.742188 L 2.175781 -0.257812 L 2.664062 0.0273438 L 8.449219 -0.0273438 L 8.90625 0.0507812 L 10.46875 -0.0273438 L 12.03125 0.078125 L 12.515625 0.0273438 L 13.054688 -0.230469 L 13.285156 -0.714844 L 13.335938 -1.203125 L 13.3125 -2.789062 L 13.363281 -3.277344 L 13.03125 -3.789062 L 12.261719 -4.042969 L 8.882812 -4.09375 L 8.394531 -4.019531 L 7.832031 -4.070312 L 7.269531 -4.019531 L 6.730469 -4.324219 L 6.5 -5.121094 L 6.527344 -6.375 L 6.757812 -6.910156 L 7.21875 -7.191406 L 8.21875 -7.191406 L 8.730469 -7.246094 L 10.085938 -7.167969 L 10.777344 -7.21875 L 11.3125 -7.167969 L 11.773438 -7.191406 L 12.285156 -7.472656 L 12.542969 -7.960938 L 12.59375 -9.984375 L 12.542969 -10.496094 L 12.3125 -10.980469 L 11.878906 -11.261719 L 10.855469 -11.289062 L 10.339844 -11.238281 L 9.804688 -11.238281 L 9.214844 -11.289062 L 7.191406 -11.261719 L 6.757812 -11.542969 L 6.449219 -12.003906 L 6.398438 -12.800781 L 6.65625 -13.542969 L 7.449219 -13.773438 L 12.363281 -13.796875 L 12.902344 -14.078125 L 13.183594 -14.539062 L 13.132812 -15.589844 L 13.054688 -16.074219 L 13.082031 -16.640625 L 13.15625 -17.125 L 12.902344 -17.636719 L 12.363281 -17.867188 L 10.316406 -17.894531 L 9.855469 -17.839844 L 9.34375 -17.917969 L 8.21875 -17.867188 L 7.703125 -17.917969 L 6.707031 -17.894531 L 6.246094 -17.945312 L 2.890625 -17.867188 L 2.148438 -17.6875 L 1.894531 -17.125 L 1.945312 -16.101562 L 1.84375 -15.359375 L 1.945312 -14.054688 L 1.894531 -13.515625 L 1.945312 -13.054688 L 1.945312 -8.472656 L 1.867188 -7.933594 L 1.945312 -6.9375 L 1.894531 -5.914062 L 1.972656 -5.375 L 1.917969 -4.8125 L 1.945312 -4.324219 L 1.867188 -3.867188 L 1.917969 -3.277344 L 1.917969 -2.765625 L 1.972656 -1.765625 L 1.945312 -1.253906 Z M 1.84375 -0.742188 "/></g></g></g><g fill="#000000" fill-opacity="1"><g transform="translate(70.86157, 41.649364)"><g><path d="M 15.101562 -0.410156 L 15.84375 -0.078125 L 16.511719 0.128906 L 17.097656 -0.152344 L 17.328125 -0.691406 L 17.457031 -7.652344 L 17.355469 -8.371094 L 17.40625 -8.933594 L 17.304688 -12.003906 L 17.382812 -13.03125 L 17.328125 -13.515625 L 17.328125 -14.539062 L 17.433594 -15.050781 L 17.382812 -15.820312 L 17.433594 -17.152344 L 17.125 -17.613281 L 16.5625 -17.867188 L 16.050781 -17.917969 L 15.5625 -17.917969 L 15 -17.867188 L 14.460938 -17.945312 L 14.003906 -17.894531 L 13.488281 -17.917969 L 12.875 -17.664062 L 12.621094 -17.125 L 12.59375 -12.464844 L 12.695312 -11.929688 L 12.695312 -11.441406 L 12.59375 -10.90625 L 12.621094 -9.878906 L 12.492188 -9.472656 L 12.132812 -9.574219 L 11.007812 -10.726562 L 10.625 -11.03125 L 9.726562 -11.953125 L 9.316406 -12.261719 L 9.035156 -12.621094 L 8.5 -13.183594 L 7.703125 -13.847656 L 7.421875 -14.234375 L 6.9375 -14.566406 L 6.679688 -14.949219 L 6.246094 -15.257812 L 5.914062 -15.691406 L 4.53125 -17.097656 L 3.507812 -17.789062 L 2.816406 -17.996094 L 2.203125 -17.6875 L 1.867188 -17.203125 L 1.917969 -13.617188 L 1.867188 -13.105469 L 1.945312 -12.058594 L 1.894531 -11.597656 L 1.917969 -11.058594 L 1.84375 -10.519531 L 1.945312 -6.859375 L 1.894531 -6.398438 L 1.894531 -5.914062 L 1.84375 -5.351562 L 1.84375 -4.863281 L 1.917969 -4.324219 L 1.894531 -3.277344 L 1.945312 -2.765625 L 1.867188 -1.792969 L 1.945312 -1.28125 L 1.945312 -0.792969 L 2.175781 -0.230469 L 2.664062 0.0507812 L 3.53125 0 L 4.8125 0.078125 L 5.351562 0 L 5.9375 0.0507812 L 6.449219 -0.203125 L 6.679688 -0.714844 L 6.605469 -1.230469 L 6.679688 -7.5 L 6.578125 -8.039062 L 6.835938 -8.34375 L 7.167969 -8.269531 L 10.828125 -4.683594 L 11.238281 -4.351562 L 13.71875 -1.867188 L 14.054688 -1.460938 L 14.460938 -1.125 L 14.769531 -0.742188 Z M 15.101562 -0.410156 "/></g></g></g><g fill="#000000" fill-opacity="1"><g transform="translate(90.161189, 41.649364)"><g><path d="M 4.914062 -0.792969 L 5.121094 -0.257812 L 5.65625 0 L 6.144531 -0.0507812 L 6.65625 0 L 7.140625 -0.0507812 L 8.730469 -0.0507812 L 9.242188 -0.257812 L 9.445312 -0.769531 L 9.421875 -1.253906 L 9.472656 -1.84375 L 9.445312 -2.867188 L 9.367188 -3.300781 L 9.445312 -3.839844 L 9.496094 -5.402344 L 9.445312 -5.863281 L 9.523438 -6.9375 L 9.421875 -12.03125 L 9.496094 -12.542969 L 9.445312 -13.105469 L 9.652344 -13.566406 L 10.214844 -13.796875 L 10.648438 -13.824219 L 11.160156 -13.796875 L 11.621094 -13.847656 L 13.03125 -13.824219 L 13.617188 -14.054688 L 13.875 -14.566406 L 13.824219 -15.101562 L 13.875 -17.203125 L 13.617188 -17.714844 L 13.105469 -17.96875 L 12.492188 -17.917969 L 12.082031 -17.96875 L 11.597656 -17.96875 L 11.03125 -17.894531 L 10.519531 -17.894531 L 10.007812 -17.945312 L 9.496094 -17.945312 L 8.90625 -17.867188 L 1.28125 -17.917969 L 0.714844 -17.664062 L 0.460938 -17.152344 L 0.433594 -14.589844 L 0.714844 -14.027344 L 1.230469 -13.773438 L 1.894531 -13.847656 L 4.171875 -13.824219 L 4.632812 -13.542969 L 4.890625 -13.054688 L 4.964844 -10.238281 L 4.890625 -9.445312 L 4.941406 -8.960938 L 4.890625 -8.449219 L 4.890625 -7.421875 L 4.964844 -6.679688 L 4.863281 -5.914062 L 4.890625 -5.402344 L 4.863281 -4.863281 L 4.941406 -3.300781 L 4.890625 -2.789062 Z M 4.914062 -0.792969 "/></g></g></g><g fill="#000000" fill-opacity="1"><g transform="translate(104.469528, 41.649364)"><g><path d="M 1.84375 -0.742188 L 2.175781 -0.257812 L 2.664062 0.0273438 L 8.449219 -0.0273438 L 8.90625 0.0507812 L 10.46875 -0.0273438 L 12.03125 0.078125 L 12.515625 0.0273438 L 13.054688 -0.230469 L 13.285156 -0.714844 L 13.335938 -1.203125 L 13.3125 -2.789062 L 13.363281 -3.277344 L 13.03125 -3.789062 L 12.261719 -4.042969 L 8.882812 -4.09375 L 8.394531 -4.019531 L 7.832031 -4.070312 L 7.269531 -4.019531 L 6.730469 -4.324219 L 6.5 -5.121094 L 6.527344 -6.375 L 6.757812 -6.910156 L 7.21875 -7.191406 L 8.21875 -7.191406 L 8.730469 -7.246094 L 10.085938 -7.167969 L 10.777344 -7.21875 L 11.3125 -7.167969 L 11.773438 -7.191406 L 12.285156 -7.472656 L 12.542969 -7.960938 L 12.59375 -9.984375 L 12.542969 -10.496094 L 12.3125 -10.980469 L 11.878906 -11.261719 L 10.855469 -11.289062 L 10.339844 -11.238281 L 9.804688 -11.238281 L 9.214844 -11.289062 L 7.191406 -11.261719 L 6.757812 -11.542969 L 6.449219 -12.003906 L 6.398438 -12.800781 L 6.65625 -13.542969 L 7.449219 -13.773438 L 12.363281 -13.796875 L 12.902344 -14.078125 L 13.183594 -14.539062 L 13.132812 -15.589844 L 13.054688 -16.074219 L 13.082031 -16.640625 L 13.15625 -17.125 L 12.902344 -17.636719 L 12.363281 -17.867188 L 10.316406 -17.894531 L 9.855469 -17.839844 L 9.34375 -17.917969 L 8.21875 -17.867188 L 7.703125 -17.917969 L 6.707031 -17.894531 L 6.246094 -17.945312 L 2.890625 -17.867188 L 2.148438 -17.6875 L 1.894531 -17.125 L 1.945312 -16.101562 L 1.84375 -15.359375 L 1.945312 -14.054688 L 1.894531 -13.515625 L 1.945312 -13.054688 L 1.945312 -8.472656 L 1.867188 -7.933594 L 1.945312 -6.9375 L 1.894531 -5.914062 L 1.972656 -5.375 L 1.917969 -4.8125 L 1.945312 -4.324219 L 1.867188 -3.867188 L 1.917969 -3.277344 L 1.917969 -2.765625 L 1.972656 -1.765625 L 1.945312 -1.253906 Z M 1.84375 -0.742188 "/></g></g></g><g fill="#000000" fill-opacity="1"><g transform="translate(119.13622, 41.649364)"><g><path d="M 15.101562 -0.410156 L 15.84375 -0.078125 L 16.511719 0.128906 L 17.097656 -0.152344 L 17.328125 -0.691406 L 17.457031 -7.652344 L 17.355469 -8.371094 L 17.40625 -8.933594 L 17.304688 -12.003906 L 17.382812 -13.03125 L 17.328125 -13.515625 L 17.328125 -14.539062 L 17.433594 -15.050781 L 17.382812 -15.820312 L 17.433594 -17.152344 L 17.125 -17.613281 L 16.5625 -17.867188 L 16.050781 -17.917969 L 15.5625 -17.917969 L 15 -17.867188 L 14.460938 -17.945312 L 14.003906 -17.894531 L 13.488281 -17.917969 L 12.875 -17.664062 L 12.621094 -17.125 L 12.59375 -12.464844 L 12.695312 -11.929688 L 12.695312 -11.441406 L 12.59375 -10.90625 L 12.621094 -9.878906 L 12.492188 -9.472656 L 12.132812 -9.574219 L 11.007812 -10.726562 L 10.625 -11.03125 L 9.726562 -11.953125 L 9.316406 -12.261719 L 9.035156 -12.621094 L 8.5 -13.183594 L 7.703125 -13.847656 L 7.421875 -14.234375 L 6.9375 -14.566406 L 6.679688 -14.949219 L 6.246094 -15.257812 L 5.914062 -15.691406 L 4.53125 -17.097656 L 3.507812 -17.789062 L 2.816406 -17.996094 L 2.203125 -17.6875 L 1.867188 -17.203125 L 1.917969 -13.617188 L 1.867188 -13.105469 L 1.945312 -12.058594 L 1.894531 -11.597656 L 1.917969 -11.058594 L 1.84375 -10.519531 L 1.945312 -6.859375 L 1.894531 -6.398438 L 1.894531 -5.914062 L 1.84375 -5.351562 L 1.84375 -4.863281 L 1.917969 -4.324219 L 1.894531 -3.277344 L 1.945312 -2.765625 L 1.867188 -1.792969 L 1.945312 -1.28125 L 1.945312 -0.792969 L 2.175781 -0.230469 L 2.664062 0.0507812 L 3.53125 0 L 4.8125 0.078125 L 5.351562 0 L 5.9375 0.0507812 L 6.449219 -0.203125 L 6.679688 -0.714844 L 6.605469 -1.230469 L 6.679688 -7.5 L 6.578125 -8.039062 L 6.835938 -8.34375 L 7.167969 -8.269531 L 10.828125 -4.683594 L 11.238281 -4.351562 L 13.71875 -1.867188 L 14.054688 -1.460938 L 14.460938 -1.125 L 14.769531 -0.742188 Z M 15.101562 -0.410156 "/></g></g></g><g fill="#000000" fill-opacity="1"><g transform="translate(138.435839, 41.649364)"><g><path d="M 1.917969 -0.792969 L 2.226562 -0.230469 L 2.636719 0 L 3.226562 0 L 3.761719 0.078125 L 4.273438 0.078125 L 4.8125 0 L 9.421875 -0.0273438 L 11.058594 -0.257812 L 12.542969 -0.714844 L 14.71875 -2.175781 L 15.742188 -3.351562 L 16.535156 -4.632812 L 16.664062 -5.121094 L 16.921875 -5.605469 L 17.023438 -6.117188 L 17.203125 -6.578125 L 17.277344 -7.117188 L 17.40625 -7.652344 L 17.382812 -8.089844 L 17.484375 -9.726562 L 17.097656 -11.1875 L 17.046875 -11.722656 L 16.921875 -12.183594 L 16.535156 -13.207031 L 15.949219 -14.078125 L 15.742188 -14.515625 L 15.078125 -15.308594 L 14.640625 -15.640625 L 13.925781 -16.332031 L 12.976562 -16.921875 L 12.464844 -17.175781 L 11.058594 -17.636719 L 10.007812 -17.839844 L 6.375 -17.867188 L 5.863281 -17.917969 L 4.222656 -17.867188 L 3.710938 -17.917969 L 3.25 -17.894531 L 2.714844 -17.917969 L 2.253906 -17.636719 L 1.867188 -17.152344 L 1.867188 -16.101562 L 1.917969 -15.589844 L 1.894531 -15.078125 L 1.945312 -14.105469 L 1.867188 -13.542969 L 1.945312 -13.03125 L 1.867188 -12.515625 L 1.972656 -10.46875 L 1.894531 -9.496094 L 1.972656 -8.394531 L 1.894531 -7.910156 L 1.972656 -7.371094 L 1.894531 -6.375 L 1.945312 -4.324219 L 1.894531 -3.8125 L 1.972656 -1.765625 Z M 7.347656 -4.121094 L 6.730469 -4.351562 L 6.5 -4.914062 L 6.554688 -5.425781 L 6.449219 -5.886719 L 6.527344 -6.398438 L 6.527344 -12.976562 L 6.835938 -13.4375 L 7.578125 -13.71875 L 8.113281 -13.695312 L 8.652344 -13.71875 L 9.421875 -13.667969 L 10.445312 -13.363281 L 11.3125 -12.800781 L 11.953125 -12.082031 L 12.234375 -11.597656 L 12.570312 -11.1875 L 12.875 -9.675781 L 12.953125 -8.882812 L 12.824219 -7.628906 L 12.671875 -7.140625 L 12.285156 -6.21875 L 11.953125 -5.757812 L 11.621094 -5.402344 L 11.3125 -4.992188 L 10.90625 -4.734375 L 10.394531 -4.480469 L 9.472656 -4.222656 Z M 7.347656 -4.121094 "/></g></g></g><g fill="#000000" fill-opacity="1"><g transform="translate(157.044361, 41.649364)"><g><path d="M 1.230469 -0.742188 L 1.484375 -0.203125 L 1.996094 -0.0273438 L 9.597656 0.0273438 L 10.085938 -0.230469 L 10.367188 -0.691406 L 10.367188 -1.253906 L 10.316406 -1.714844 L 10.394531 -3.277344 L 10.035156 -3.710938 L 8.320312 -4.25 L 8.039062 -4.761719 L 8.089844 -6.859375 L 7.988281 -7.882812 L 8.089844 -8.960938 L 8.039062 -9.726562 L 8.089844 -10.519531 L 8.039062 -11.007812 L 8.089844 -11.519531 L 8.039062 -12.058594 L 8.039062 -13.132812 L 8.320312 -13.59375 L 8.804688 -13.875 L 9.367188 -13.898438 L 9.855469 -14.179688 L 10.136719 -14.667969 L 10.136719 -16.179688 L 10.1875 -16.640625 L 10.136719 -17.152344 L 9.933594 -17.664062 L 9.113281 -17.894531 L 5.863281 -17.917969 L 5.296875 -17.867188 L 3.738281 -17.894531 L 3.25 -17.867188 L 2.253906 -17.917969 L 1.691406 -17.664062 L 1.40625 -17.125 L 1.40625 -16.640625 L 1.355469 -16.203125 L 1.355469 -15.640625 L 1.40625 -15.128906 L 1.40625 -14.640625 L 1.664062 -14.15625 L 3.226562 -13.617188 L 3.558594 -13.15625 L 3.480469 -10.980469 L 3.507812 -10.546875 L 3.582031 -9.957031 L 3.558594 -8.90625 L 3.507812 -8.394531 L 3.609375 -7.398438 L 3.480469 -6.886719 L 3.582031 -5.785156 L 3.53125 -4.785156 L 3.277344 -4.222656 L 1.585938 -3.6875 L 1.28125 -3.199219 L 1.230469 -2.714844 Z M 1.230469 -0.742188 "/></g></g></g></svg>