<svg xmlns="http://www.w3.org/2000/svg" xmlns:xlink="http://www.w3.org/1999/xlink" width="300" zoomAndPan="magnify" viewBox="0 0 224.87999 74.999997" height="100" preserveAspectRatio="xMidYMid meet" version="1.0"><defs><g/><clipPath id="5376470414"><path d="M 8.964844 6.0625 L 221.652344 6.0625 L 221.652344 68.9375 L 8.964844 68.9375 Z M 8.964844 6.0625 " clip-rule="nonzero"/></clipPath><clipPath id="0cae40b315"><path d="M 38.199219 6.0625 L 192.273438 6.0625 C 208.417969 6.0625 221.507812 19.152344 221.507812 35.296875 L 221.507812 39.703125 C 221.507812 55.847656 208.417969 68.9375 192.273438 68.9375 L 38.199219 68.9375 C 22.054688 68.9375 8.964844 55.847656 8.964844 39.703125 L 8.964844 35.296875 C 8.964844 19.152344 22.054688 6.0625 38.199219 6.0625 Z M 38.199219 6.0625 " clip-rule="nonzero"/></clipPath><clipPath id="746beaaf7b"><path d="M 8.964844 6.066406 L 221.851562 6.066406 L 221.851562 69 L 8.964844 69 Z M 8.964844 6.066406 " clip-rule="nonzero"/></clipPath><clipPath id="aa0a4c07d4"><path d="M 38.199219 6.066406 L 192.265625 6.066406 C 208.410156 6.066406 221.5 19.152344 221.5 35.296875 L 221.5 39.703125 C 221.5 55.847656 208.410156 68.933594 192.265625 68.933594 L 38.199219 68.933594 C 22.050781 68.933594 8.964844 55.847656 8.964844 39.703125 L 8.964844 35.296875 C 8.964844 19.152344 22.050781 6.066406 38.199219 6.066406 Z M 38.199219 6.066406 " clip-rule="nonzero"/></clipPath><clipPath id="751faea4c3"><path d="M 0 0.0195312 L 74.960938 0.0195312 L 74.960938 74.980469 L 0 74.980469 Z M 0 0.0195312 " clip-rule="nonzero"/></clipPath></defs><g clip-path="url(#5376470414)"><g clip-path="url(#0cae40b315)"><path fill="#ff3d00" d="M 8.964844 6.0625 L 221.40625 6.0625 L 221.40625 68.9375 L 8.964844 68.9375 Z M 8.964844 6.0625 " fill-opacity="1" fill-rule="nonzero"/></g></g><g clip-path="url(#746beaaf7b)"><g clip-path="url(#aa0a4c07d4)"><path stroke-linecap="butt" transform="matrix(0.7496, 0, 0, 0.7496, 8.964058, 6.06457)" fill="none" stroke-linejoin="miter" d="M 39.001021 0.00244949 L 244.532544 0.00244949 C 266.070075 0.00244949 283.532516 17.459679 283.532516 38.997211 L 283.532516 44.875347 C 283.532516 66.412878 266.070075 83.870108 244.532544 83.870108 L 39.001021 83.870108 C 17.458279 83.870108 0.00104875 66.412878 0.00104875 44.875347 L 0.00104875 38.997211 C 0.00104875 17.459679 17.458279 0.00244949 39.001021 0.00244949 Z M 39.001021 0.00244949 " stroke="#d9d9d9" stroke-width="2" stroke-opacity="1" stroke-miterlimit="4"/></g></g><g clip-path="url(#751faea4c3)"><path fill="#231f20" d="M 0 37.5 C 0 16.800781 16.78125 0.0195312 37.480469 0.0195312 C 58.179688 0.0195312 74.960938 16.800781 74.960938 37.5 C 74.960938 58.199219 58.179688 74.980469 37.480469 74.980469 C 16.78125 74.980469 0 58.199219 0 37.5 Z M 0 37.5 " fill-opacity="1" fill-rule="nonzero"/></g><path fill="#fed19a" d="M 49.886719 40.980469 L 48.730469 40.980469 C 48.183594 40.980469 47.6875 41.3125 47.488281 41.824219 C 47.050781 42.960938 45.585938 45.238281 40.75 48.570312 C 36.808594 51.265625 34.152344 55.46875 33.40625 60.183594 C 33.1875 61.652344 31.929688 62.738281 30.445312 62.742188 L 30.417969 62.742188 C 28.796875 62.742188 27.460938 61.464844 27.390625 59.84375 C 27.246094 56.519531 27.589844 51.101562 30.796875 47.742188 L 16.851562 47.742188 C 14.984375 47.742188 13.46875 46.230469 13.46875 44.363281 C 13.46875 43.464844 13.824219 42.605469 14.460938 41.972656 C 15.09375 41.335938 15.953125 40.980469 16.851562 40.980469 L 17.828125 40.921875 C 17.898438 40.917969 17.957031 40.859375 17.957031 40.785156 C 17.957031 40.707031 17.894531 40.644531 17.816406 40.644531 L 17.675781 40.644531 C 16.625 40.648438 15.632812 40.160156 14.996094 39.324219 C 14.359375 38.488281 14.152344 37.402344 14.441406 36.390625 C 14.875 35.15625 15.9375 34.253906 17.226562 34.027344 C 17.226562 34.027344 14.898438 33.324219 15.03125 30.273438 C 15.125 28.171875 18.242188 27.804688 18.242188 27.804688 C 18.242188 27.804688 13.699219 22.292969 21.933594 20.019531 C 30.171875 17.746094 38.46875 19.140625 38.46875 19.140625 L 49.546875 20.300781 Z M 49.886719 40.980469 " fill-opacity="1" fill-rule="nonzero"/><path fill="#ffffff" d="M 52.53125 19.75 L 48.929688 19.75 L 48.929688 41.683594 L 52.53125 41.683594 Z M 52.53125 19.75 " fill-opacity="1" fill-rule="nonzero"/><path fill="#575b6d" d="M 60.320312 44.125 L 53.132812 44.125 C 52.484375 44.125 51.960938 43.601562 51.960938 42.953125 L 51.960938 18.113281 C 51.960938 17.464844 52.484375 16.945312 53.132812 16.945312 L 60.320312 16.945312 C 60.96875 16.945312 61.492188 17.464844 61.492188 18.113281 L 61.492188 42.953125 C 61.492188 43.601562 60.96875 44.125 60.320312 44.125 Z M 60.320312 44.125 " fill-opacity="1" fill-rule="nonzero"/><path fill="#eeefee" d="M 54.796875 39.078125 C 54.796875 38.015625 55.660156 37.148438 56.726562 37.148438 C 57.792969 37.148438 58.65625 38.015625 58.65625 39.078125 C 58.65625 40.148438 57.792969 41.011719 56.726562 41.011719 C 55.660156 41.011719 54.796875 40.148438 54.796875 39.078125 Z M 54.796875 39.078125 " fill-opacity="1" fill-rule="nonzero"/><g fill="#000000" fill-opacity="1"><g transform="translate(110.298729, 46.968299)"><g><path d="M 16.21875 -0.46875 L 16.960938 -0.0273438 L 17.730469 0.0546875 L 18.335938 -0.136719 L 18.609375 -0.6875 L 18.664062 -10.722656 L 18.582031 -11.1875 L 18.582031 -13.910156 L 18.664062 -14.570312 L 18.582031 -18.390625 L 18.308594 -18.941406 L 17.757812 -19.242188 L 14.347656 -19.214844 L 13.828125 -18.914062 L 13.523438 -18.335938 L 13.496094 -17.757812 L 13.578125 -17.316406 L 13.496094 -16.164062 L 13.550781 -15.558594 L 13.496094 -10.636719 L 13.332031 -10.171875 L 12.921875 -10.363281 L 10.96875 -12.316406 L 10.199219 -12.921875 L 4.78125 -18.390625 L 4.371094 -18.71875 L 3.738281 -19.050781 L 2.914062 -19.242188 L 2.28125 -18.96875 L 2.035156 -18.445312 L 2.035156 -10.117188 L 2.007812 -9.648438 L 2.0625 -8.523438 L 1.980469 -8.054688 L 2.035156 -3.546875 L 1.980469 -3.023438 L 2.035156 -0.714844 L 2.28125 -0.191406 L 2.859375 0 L 3.984375 0.0546875 L 4.589844 0 L 5.664062 0.0820312 L 6.238281 0.0546875 L 6.789062 -0.21875 L 7.066406 -1.070312 L 7.09375 -8.027344 L 7.148438 -8.578125 L 7.339844 -9.042969 L 7.695312 -8.90625 L 8.054688 -8.4375 L 10.007812 -6.570312 L 10.363281 -6.15625 L 10.832031 -5.855469 L 15.089844 -1.621094 L 15.804688 -0.824219 Z M 16.21875 -0.46875 "/></g></g></g><g fill="#000000" fill-opacity="1"><g transform="translate(131.024161, 46.968299)"><g><path d="M 7.285156 -21.496094 L 7.640625 -21.660156 L 7.808594 -21.882812 L 8.328125 -22.210938 L 8.988281 -22.128906 L 9.566406 -21.9375 L 9.894531 -21.714844 L 10.472656 -21.496094 L 10.777344 -21.496094 L 11.464844 -21.332031 L 12.398438 -21.359375 L 12.699219 -21.46875 L 13.03125 -21.523438 L 13.605469 -21.828125 L 14.925781 -23.285156 L 15.175781 -23.886719 L 14.953125 -24.410156 L 14.707031 -24.492188 L 12.808594 -25.675781 L 12.34375 -25.566406 L 12.207031 -25.261719 L 11.984375 -25.097656 L 11.628906 -24.988281 L 11.050781 -25.015625 L 10.691406 -25.179688 L 10.390625 -25.234375 L 9.511719 -25.648438 L 8.851562 -25.8125 L 7.890625 -25.867188 L 7.558594 -25.730469 L 6.980469 -25.648438 L 6.652344 -25.484375 L 6.40625 -25.261719 L 6.101562 -25.125 L 5.691406 -24.628906 L 5.441406 -24.464844 L 4.949219 -23.558594 L 4.867188 -23.285156 L 5.058594 -22.789062 L 5.332031 -22.597656 L 5.636719 -22.484375 L 6.183594 -22.15625 L 6.40625 -21.964844 L 6.734375 -21.800781 L 6.980469 -21.605469 Z M 16.21875 0.0546875 L 17.261719 -0.0273438 L 17.785156 0.0273438 L 18.636719 0 L 19.40625 -0.136719 L 19.488281 -0.796875 L 19.296875 -1.429688 L 18.886719 -2.445312 L 18.144531 -3.875 L 17.757812 -4.894531 L 17.207031 -5.882812 L 16.164062 -8.382812 L 15.890625 -8.796875 L 15.613281 -9.320312 L 15.449219 -9.921875 L 15.203125 -10.335938 L 15.035156 -10.777344 L 14.460938 -11.792969 L 14.265625 -12.371094 L 12.453125 -16.191406 L 12.289062 -16.742188 L 11.984375 -17.234375 L 11.820312 -17.730469 L 11.296875 -18.691406 L 10.832031 -19.1875 L 9.921875 -19.460938 L 9.042969 -19.160156 L 8.550781 -18.691406 L 8.300781 -18.226562 L 8.109375 -17.675781 L 7.863281 -17.289062 L 6.761719 -14.761719 L 6.460938 -14.347656 L 6.324219 -13.800781 L 6.019531 -13.277344 L 5.855469 -12.78125 L 3.050781 -6.898438 L 2.886719 -6.296875 L 2.613281 -5.882812 L 2.417969 -5.332031 L 1.925781 -4.453125 L 1.511719 -3.355469 L 1.210938 -2.96875 L 1.070312 -2.472656 L 0.523438 -1.375 L 0.355469 -0.824219 L 0.496094 -0.136719 L 1.042969 0.0273438 L 2.117188 -0.0273438 L 2.667969 0.0273438 L 4.207031 -0.0273438 L 4.839844 -0.21875 L 5.359375 -0.714844 L 5.855469 -1.621094 L 6.378906 -2.144531 L 6.953125 -2.445312 L 7.476562 -2.363281 L 8.632812 -2.472656 L 9.125 -2.390625 L 11.820312 -2.417969 L 12.316406 -2.363281 L 12.921875 -2.445312 L 13.523438 -2.144531 L 14.046875 -1.703125 L 14.292969 -1.183594 L 14.460938 -0.6875 L 15.007812 -0.273438 L 15.640625 0 Z M 9.980469 -6.789062 L 9.429688 -6.898438 L 8.796875 -6.84375 L 8.355469 -7.039062 L 8.328125 -7.558594 L 9.621094 -10.527344 L 9.921875 -10.777344 L 10.308594 -10.554688 L 11.601562 -7.53125 L 11.492188 -7.039062 L 11.078125 -6.816406 Z M 9.980469 -6.789062 "/></g></g></g><g fill="#000000" fill-opacity="1"><g transform="translate(150.979948, 46.968299)"><g><path d="M 11.023438 0.355469 L 13.46875 0.109375 L 14.515625 -0.21875 L 16.960938 -1.320312 L 18.886719 -3.160156 L 19.242188 -3.65625 L 20.316406 -5.554688 L 20.507812 -6.074219 L 20.589844 -6.625 L 20.753906 -7.066406 L 20.863281 -7.667969 L 21 -9.59375 L 20.863281 -11.492188 L 20.644531 -12.507812 L 20.425781 -13.085938 L 20.285156 -13.71875 L 19.792969 -14.625 L 19.601562 -15.117188 L 19.242188 -15.585938 L 18.914062 -15.917969 L 18.554688 -16.410156 L 17.375 -17.484375 L 15.972656 -18.363281 L 12.371094 -19.488281 L 11.078125 -19.515625 L 9.152344 -19.40625 L 8.605469 -19.296875 L 8.054688 -19.132812 L 7.558594 -18.914062 L 6.515625 -18.636719 L 5.113281 -17.757812 L 4.726562 -17.429688 L 3.847656 -16.824219 L 3.105469 -16 L 2.171875 -14.625 L 1.925781 -14.15625 L 1.402344 -12.644531 L 1.183594 -11.464844 L 1.070312 -8.273438 L 1.375 -6.542969 L 1.785156 -5.609375 L 1.953125 -5.03125 L 2.226562 -4.535156 L 3.519531 -2.777344 L 4.289062 -2.035156 L 4.644531 -1.621094 L 6.515625 -0.632812 L 7.039062 -0.414062 L 9.375 0.273438 Z M 10.253906 -4.480469 L 9.703125 -4.671875 L 9.207031 -4.726562 L 8.273438 -5.222656 L 7.421875 -5.964844 L 7.148438 -6.351562 L 6.789062 -6.734375 L 6.265625 -8.273438 L 6.128906 -9.648438 L 6.15625 -10.472656 L 6.351562 -11.492188 L 6.515625 -11.984375 L 6.84375 -12.371094 L 7.09375 -12.835938 L 7.449219 -13.277344 L 7.863281 -13.632812 L 8.660156 -14.183594 L 9.152344 -14.433594 L 9.730469 -14.570312 L 10.996094 -14.679688 L 12.316406 -14.597656 L 13.773438 -13.964844 L 14.625 -13.332031 L 15.257812 -12.398438 L 15.476562 -11.902344 L 15.640625 -11.351562 L 15.832031 -10.859375 L 15.945312 -9.675781 L 15.777344 -8.300781 L 15.53125 -7.175781 L 15.230469 -6.761719 L 14.980469 -6.351562 L 14.652344 -5.855469 L 13.800781 -5.195312 L 13.304688 -4.976562 L 12.863281 -4.726562 L 12.371094 -4.671875 L 11.847656 -4.535156 Z M 10.253906 -4.480469 "/></g></g></g></svg>