<svg xmlns="http://www.w3.org/2000/svg" xmlns:xlink="http://www.w3.org/1999/xlink" width="100" zoomAndPan="magnify" viewBox="0 0 75 89.999999" height="120" preserveAspectRatio="xMidYMid meet" version="1.0"><defs><g/><clipPath id="44be0e72bb"><path d="M 18.0625 1.15625 L 56.9375 1.15625 L 56.9375 40.035156 L 18.0625 40.035156 Z M 18.0625 1.15625 " clip-rule="nonzero"/></clipPath><clipPath id="ba5214b232"><path d="M 37.5 1.15625 C 26.765625 1.15625 18.0625 9.859375 18.0625 20.59375 C 18.0625 31.332031 26.765625 40.035156 37.5 40.035156 C 48.234375 40.035156 56.9375 31.332031 56.9375 20.59375 C 56.9375 9.859375 48.234375 1.15625 37.5 1.15625 Z M 37.5 1.15625 " clip-rule="nonzero"/></clipPath><clipPath id="903ad3e3f2"><path d="M 26.824219 10 L 47.824219 10 L 47.824219 30.921875 L 26.824219 30.921875 Z M 26.824219 10 " clip-rule="nonzero"/></clipPath></defs><g clip-path="url(#44be0e72bb)"><g clip-path="url(#ba5214b232)"><path fill="#d13aa0" d="M 18.0625 1.15625 L 56.9375 1.15625 L 56.9375 40.035156 L 18.0625 40.035156 Z M 18.0625 1.15625 " fill-opacity="1" fill-rule="nonzero"/></g></g><g clip-path="url(#903ad3e3f2)"><path fill="#000000" d="M 29.8125 30.710938 L 32.613281 29.886719 C 33.078125 29.75 33.476562 29.507812 33.816406 29.167969 L 46.746094 16.238281 C 47.746094 15.238281 47.84375 13.707031 46.960938 12.828125 L 44.980469 10.847656 C 44.101562 9.964844 42.570312 10.0625 41.570312 11.066406 L 28.644531 23.992188 C 28.300781 24.332031 28.0625 24.730469 27.921875 25.195312 L 27.101562 27.996094 C 26.972656 28.382812 26.953125 28.773438 27.042969 29.171875 C 27.132812 29.570312 27.320312 29.914062 27.601562 30.207031 C 28.019531 30.617188 28.519531 30.820312 29.105469 30.8125 C 29.347656 30.8125 29.582031 30.777344 29.8125 30.710938 Z M 42.78125 12.277344 C 42.972656 12.078125 43.203125 11.972656 43.476562 11.957031 C 43.585938 11.949219 43.683594 11.984375 43.769531 12.058594 L 45.75 14.039062 C 45.933594 14.222656 45.878906 14.683594 45.53125 15.027344 L 43.546875 17.011719 L 40.800781 14.261719 Z M 28.746094 28.480469 L 29.566406 25.675781 C 29.625 25.496094 29.71875 25.339844 29.855469 25.203125 L 39.585938 15.472656 L 42.335938 18.222656 L 32.605469 27.953125 C 32.472656 28.089844 32.3125 28.183594 32.132812 28.242188 L 29.328125 29.0625 C 29.144531 29.140625 28.972656 29.117188 28.816406 28.996094 C 28.691406 28.835938 28.667969 28.664062 28.746094 28.480469 Z M 28.746094 28.480469 " fill-opacity="1" fill-rule="nonzero"/></g><g fill="#000000" fill-opacity="1"><g transform="translate(3.274261, 69.652778)"><g><path d="M 1.71875 0.0507812 L 2.050781 0 L 2.695312 0.03125 L 3.058594 -0.015625 L 3.589844 0.015625 L 4.050781 -0.183594 L 4.25 -0.480469 L 4.199219 -2.214844 L 4.25 -2.730469 L 4.234375 -3.074219 L 4.265625 -3.671875 L 4.234375 -4.035156 L 4.234375 -4.679688 L 4.382812 -4.828125 L 4.546875 -4.761719 L 4.8125 -4.546875 L 5.011719 -4.300781 L 5.6875 -3.621094 L 5.902344 -3.355469 L 6.351562 -2.925781 L 6.699219 -2.679688 L 7.0625 -2.664062 L 7.390625 -2.910156 L 7.625 -3.160156 L 7.820312 -3.355469 L 8.285156 -3.902344 L 8.515625 -4.066406 L 9.195312 -4.761719 L 9.410156 -4.863281 L 9.542969 -4.613281 L 9.507812 -3.703125 L 9.558594 -3.042969 L 9.523438 -2.398438 L 9.558594 -1.785156 L 9.523438 -1.488281 L 9.558594 -0.746094 L 9.558594 -0.496094 L 9.691406 -0.117188 L 10.039062 -0.015625 L 12.039062 0.0507812 L 12.386719 -0.132812 L 12.585938 -0.613281 L 12.535156 -1.472656 L 12.566406 -1.800781 L 12.535156 -6.761719 L 12.566406 -7.128906 L 12.550781 -8.765625 L 12.566406 -9.078125 L 12.535156 -9.789062 L 12.550781 -10.070312 L 12.535156 -10.75 L 12.566406 -11.0625 L 12.371094 -11.410156 L 12.023438 -11.59375 L 11.542969 -11.445312 L 11.195312 -11.230469 L 10.5 -10.5 L 10.285156 -10.234375 L 10.085938 -10.054688 L 9.855469 -9.757812 L 8.402344 -8.269531 L 8.1875 -7.988281 L 7.175781 -6.960938 L 6.878906 -6.761719 L 6.53125 -6.894531 L 6.332031 -7.175781 L 6.101562 -7.410156 L 5.804688 -7.789062 L 5.441406 -8.121094 L 3.9375 -9.789062 L 3.703125 -9.988281 L 3.273438 -10.5 L 3.007812 -10.730469 L 2.578125 -11.179688 L 2.199219 -11.460938 L 1.738281 -11.59375 L 1.371094 -11.425781 L 1.191406 -11.078125 L 1.242188 -10.070312 L 1.191406 -9.425781 L 1.222656 -9.128906 L 1.207031 -6.484375 L 1.242188 -6.152344 L 1.191406 -4.480469 L 1.222656 -4.167969 L 1.207031 -0.511719 L 1.390625 -0.164062 Z M 1.71875 0.0507812 "/></g></g></g><g fill="#000000" fill-opacity="1"><g transform="translate(17.096665, 69.652778)"><g><path d="M 5.539062 0.0664062 L 6.203125 0.03125 L 6.5 -0.132812 L 6.664062 -0.445312 L 6.664062 -2.082031 L 6.464844 -2.398438 L 6.101562 -2.578125 L 5.753906 -2.578125 L 5.359375 -2.710938 L 5.160156 -3.09375 L 5.210938 -3.40625 L 5.191406 -5.226562 L 5.226562 -5.589844 L 5.160156 -6.78125 L 5.226562 -8.449219 L 5.339844 -8.832031 L 5.707031 -8.980469 L 6.035156 -9.027344 L 6.382812 -9.160156 L 6.546875 -9.425781 L 6.566406 -11.0625 L 6.367188 -11.378906 L 6.070312 -11.558594 L 4.066406 -11.558594 L 3.769531 -11.59375 L 3.441406 -11.527344 L 2.082031 -11.527344 L 1.769531 -11.574219 L 1.390625 -11.574219 L 1.058594 -11.410156 L 0.894531 -11.011719 L 0.941406 -9.789062 L 0.910156 -9.476562 L 1.089844 -9.144531 L 1.457031 -8.964844 L 1.785156 -8.964844 L 2.101562 -8.765625 L 2.25 -8.316406 L 2.296875 -3.242188 L 2.117188 -2.746094 L 1.023438 -2.414062 L 0.84375 -2.117188 L 0.792969 -0.59375 L 0.960938 -0.148438 L 1.289062 0 L 1.605469 0 L 1.917969 -0.03125 L 2.398438 0.03125 L 2.910156 0.015625 L 3.242188 -0.015625 L 3.902344 0.0507812 L 4.398438 -0.015625 L 5.210938 -0.015625 Z M 5.539062 0.0664062 "/></g></g></g><g fill="#000000" fill-opacity="1"><g transform="translate(24.603088, 69.652778)"><g><path d="M 9.757812 -0.28125 L 10.203125 -0.015625 L 10.667969 0.03125 L 11.03125 -0.0820312 L 11.195312 -0.414062 L 11.230469 -6.449219 L 11.179688 -6.730469 L 11.179688 -8.367188 L 11.230469 -8.765625 L 11.179688 -11.0625 L 11.011719 -11.394531 L 10.683594 -11.574219 L 8.632812 -11.558594 L 8.316406 -11.378906 L 8.136719 -11.03125 L 8.121094 -10.683594 L 8.167969 -10.417969 L 8.121094 -9.722656 L 8.152344 -9.359375 L 8.121094 -6.398438 L 8.019531 -6.117188 L 7.773438 -6.234375 L 6.597656 -7.410156 L 6.136719 -7.773438 L 2.878906 -11.0625 L 2.628906 -11.261719 L 2.25 -11.460938 L 1.753906 -11.574219 L 1.371094 -11.410156 L 1.222656 -11.097656 L 1.222656 -6.085938 L 1.207031 -5.804688 L 1.242188 -5.125 L 1.191406 -4.84375 L 1.222656 -2.132812 L 1.191406 -1.820312 L 1.222656 -0.429688 L 1.371094 -0.117188 L 1.71875 0 L 2.398438 0.03125 L 2.761719 0 L 3.40625 0.0507812 L 3.753906 0.03125 L 4.085938 -0.132812 L 4.25 -0.644531 L 4.265625 -4.828125 L 4.300781 -5.160156 L 4.414062 -5.441406 L 4.628906 -5.359375 L 4.84375 -5.078125 L 6.019531 -3.953125 L 6.234375 -3.703125 L 6.515625 -3.523438 L 9.078125 -0.976562 L 9.507812 -0.496094 Z M 9.757812 -0.28125 "/></g></g></g><g fill="#000000" fill-opacity="1"><g transform="translate(37.069705, 69.652778)"><g><path d="M 1.207031 -0.464844 L 1.40625 -0.148438 L 1.71875 0.03125 L 2.050781 0.015625 L 2.710938 0.0507812 L 3.058594 0.015625 L 3.753906 0.03125 L 4.101562 -0.164062 L 4.234375 -0.480469 L 4.265625 -0.792969 L 4.234375 -1.15625 L 4.234375 -4.085938 L 4.382812 -4.433594 L 4.730469 -4.648438 L 6.679688 -4.664062 L 7.027344 -4.613281 L 7.324219 -4.613281 L 7.640625 -4.433594 L 7.804688 -4.117188 L 7.820312 -0.464844 L 8.003906 -0.199219 L 8.484375 0.015625 L 9.34375 0.015625 L 9.675781 -0.015625 L 10.351562 0.03125 L 10.667969 -0.183594 L 10.863281 -0.464844 L 10.832031 -1.96875 L 10.882812 -2.496094 L 10.832031 -2.761719 L 10.847656 -11.0625 L 10.699219 -11.410156 L 10.367188 -11.542969 L 8.46875 -11.558594 L 7.988281 -11.445312 L 7.820312 -11.046875 L 7.804688 -10.417969 L 7.839844 -10.136719 L 7.804688 -9.460938 L 7.855469 -9.144531 L 7.839844 -7.855469 L 7.65625 -7.523438 L 7.324219 -7.34375 L 7.011719 -7.390625 L 6.367188 -7.324219 L 6.019531 -7.359375 L 5.722656 -7.324219 L 4.746094 -7.34375 L 4.433594 -7.492188 L 4.265625 -7.804688 L 4.25 -8.167969 L 4.25 -8.515625 L 4.234375 -8.8125 L 4.25 -10.105469 L 4.28125 -10.46875 L 4.25 -11.078125 L 4.101562 -11.394531 L 3.753906 -11.574219 L 3.390625 -11.542969 L 1.753906 -11.574219 L 1.390625 -11.410156 L 1.222656 -11.078125 L 1.191406 -10.714844 L 1.222656 -9.425781 L 1.191406 -9.09375 L 1.257812 -8.417969 L 1.222656 -7.789062 L 1.242188 -7.390625 L 1.207031 -7.0625 L 1.207031 -2.117188 L 1.257812 -1.820312 Z M 1.207031 -0.464844 "/></g></g></g><g fill="#000000" fill-opacity="1"><g transform="translate(49.172574, 69.652778)"><g><path d="M 9.757812 0.03125 L 10.386719 -0.015625 L 10.699219 0.015625 L 11.210938 0 L 11.675781 -0.0820312 L 11.726562 -0.480469 L 11.609375 -0.859375 L 11.359375 -1.472656 L 10.914062 -2.332031 L 10.683594 -2.945312 L 10.351562 -3.539062 L 9.722656 -5.042969 L 9.558594 -5.292969 L 9.394531 -5.605469 L 9.292969 -5.96875 L 9.144531 -6.21875 L 9.046875 -6.484375 L 8.699219 -7.09375 L 8.582031 -7.441406 L 7.492188 -9.738281 L 7.390625 -10.070312 L 7.210938 -10.367188 L 7.109375 -10.667969 L 6.796875 -11.246094 L 6.515625 -11.542969 L 5.96875 -11.707031 L 5.441406 -11.527344 L 5.144531 -11.246094 L 4.992188 -10.964844 L 4.878906 -10.632812 L 4.730469 -10.402344 L 4.066406 -8.878906 L 3.886719 -8.632812 L 3.804688 -8.300781 L 3.621094 -7.988281 L 3.523438 -7.691406 L 1.835938 -4.152344 L 1.738281 -3.785156 L 1.570312 -3.539062 L 1.457031 -3.207031 L 1.15625 -2.679688 L 0.910156 -2.015625 L 0.726562 -1.785156 L 0.644531 -1.488281 L 0.3125 -0.828125 L 0.214844 -0.496094 L 0.296875 -0.0820312 L 0.628906 0.015625 L 1.273438 -0.015625 L 1.605469 0.015625 L 2.53125 -0.015625 L 2.910156 -0.132812 L 3.226562 -0.429688 L 3.523438 -0.976562 L 3.835938 -1.289062 L 4.183594 -1.472656 L 4.496094 -1.421875 L 5.191406 -1.488281 L 5.492188 -1.4375 L 7.109375 -1.457031 L 7.410156 -1.421875 L 7.773438 -1.472656 L 8.136719 -1.289062 L 8.449219 -1.023438 L 8.597656 -0.710938 L 8.699219 -0.414062 L 9.027344 -0.164062 L 9.410156 0 Z M 6.003906 -4.085938 L 5.671875 -4.152344 L 5.292969 -4.117188 L 5.027344 -4.234375 L 5.011719 -4.546875 L 5.789062 -6.332031 L 5.96875 -6.484375 L 6.203125 -6.351562 L 6.980469 -4.53125 L 6.914062 -4.234375 L 6.664062 -4.101562 Z M 6.003906 -4.085938 "/></g></g></g><g fill="#000000" fill-opacity="1"><g transform="translate(61.176241, 69.652778)"><g><path d="M 4.449219 0.148438 L 5.753906 0.183594 L 6.085938 0.148438 L 6.417969 0.0664062 L 6.746094 0.015625 L 7.078125 -0.117188 L 7.375 -0.148438 L 7.691406 -0.296875 L 8.8125 -0.976562 L 9.292969 -1.472656 L 9.460938 -1.703125 L 9.640625 -2.066406 L 9.738281 -2.363281 L 9.839844 -2.644531 L 9.9375 -3.472656 L 9.90625 -4 L 9.65625 -4.960938 L 9.476562 -5.226562 L 9.046875 -5.722656 L 8.746094 -5.988281 L 8.484375 -6.117188 L 8.1875 -6.300781 L 6.894531 -6.699219 L 6.566406 -6.746094 L 6.234375 -6.761719 L 5.886719 -6.828125 L 5.40625 -6.828125 L 4.53125 -7.011719 L 3.917969 -7.308594 L 3.671875 -7.539062 L 3.605469 -8.035156 L 3.6875 -8.484375 L 3.886719 -8.699219 L 4.132812 -8.878906 L 4.398438 -9.027344 L 4.695312 -9.09375 L 5.226562 -9.113281 L 5.753906 -9.046875 L 6.050781 -8.964844 L 6.351562 -8.765625 L 6.632812 -8.53125 L 6.878906 -8.203125 L 7.242188 -7.988281 L 8.019531 -8.054688 L 8.46875 -8.019531 L 8.796875 -8.019531 L 9.09375 -7.988281 L 9.410156 -8.21875 L 9.542969 -8.5 L 9.476562 -8.8125 L 9.441406 -9.128906 L 8.980469 -9.988281 L 8.617188 -10.484375 L 7.523438 -11.246094 L 6.597656 -11.558594 L 5.953125 -11.691406 L 4.679688 -11.726562 L 4.316406 -11.625 L 3.984375 -11.609375 L 3.6875 -11.558594 L 3.058594 -11.359375 L 2.496094 -11.03125 L 1.703125 -10.484375 L 1.125 -9.707031 L 0.828125 -8.796875 L 0.777344 -7.988281 L 0.792969 -7.476562 L 0.910156 -6.8125 L 1.175781 -6.234375 L 1.785156 -5.472656 L 2.910156 -4.863281 L 3.503906 -4.664062 L 6.101562 -4.367188 L 6.699219 -4.085938 L 6.914062 -3.886719 L 7.011719 -3.472656 L 6.878906 -3.058594 L 6.664062 -2.8125 L 6.101562 -2.5625 L 5.589844 -2.53125 L 5.292969 -2.480469 L 4.449219 -2.5625 L 4.167969 -2.710938 L 3.886719 -2.894531 L 3.339844 -3.488281 L 3.007812 -3.621094 L 2.710938 -3.589844 L 2.398438 -3.636719 L 1.125 -3.570312 L 0.828125 -3.441406 L 0.695312 -3.09375 L 0.746094 -2.761719 L 0.808594 -2.429688 L 0.910156 -2.132812 L 1.222656 -1.519531 L 1.457031 -1.304688 L 1.671875 -1.058594 L 2.25 -0.695312 L 2.480469 -0.445312 L 2.792969 -0.296875 L 3.125 -0.199219 L 3.769531 0.03125 Z M 4.449219 0.148438 "/></g></g></g><g fill="#000000" fill-opacity="1"><g transform="translate(3.248581, 84.444732)"><g><path d="M 4.316406 0.03125 L 5.425781 0 L 5.902344 -0.164062 L 6.070312 -0.628906 L 6.117188 -1.488281 L 6.070312 -2.117188 L 6.101562 -2.464844 L 6.085938 -3.125 L 6.117188 -3.421875 L 6.070312 -3.785156 L 6.101562 -6.449219 L 6.050781 -6.796875 L 6.101562 -8.234375 L 6.234375 -8.730469 L 6.546875 -8.929688 L 7.195312 -8.964844 L 7.804688 -8.878906 L 8.152344 -8.929688 L 8.449219 -8.914062 L 8.730469 -9.09375 L 8.929688 -9.460938 L 8.945312 -11.03125 L 8.765625 -11.359375 L 8.449219 -11.574219 L 7.425781 -11.574219 L 7.109375 -11.609375 L 6.761719 -11.558594 L 6.449219 -11.59375 L 5.109375 -11.527344 L 4.777344 -11.59375 L 4.464844 -11.609375 L 4.117188 -11.558594 L 3.753906 -11.59375 L 3.457031 -11.527344 L 2.480469 -11.574219 L 1.96875 -11.527344 L 0.808594 -11.59375 L 0.496094 -11.425781 L 0.296875 -11.046875 L 0.3125 -10.714844 L 0.28125 -9.890625 L 0.3125 -9.375 L 0.464844 -9.078125 L 0.761719 -8.914062 L 1.089844 -8.945312 L 2.664062 -8.914062 L 2.976562 -8.746094 L 3.160156 -8.417969 L 3.125 -7.886719 L 3.160156 -7.425781 L 3.140625 -7.0625 L 3.160156 -6.730469 L 3.125 -6.265625 L 3.175781 -3.804688 L 3.140625 -3.472656 L 3.125 -2.132812 L 3.160156 -1.785156 L 3.140625 -0.828125 L 3.109375 -0.511719 L 3.324219 -0.148438 L 3.804688 0.015625 Z M 4.316406 0.03125 "/></g></g></g><g fill="#000000" fill-opacity="1"><g transform="translate(12.491074, 84.444732)"><g><path d="M 5.6875 0.214844 L 6.183594 0.164062 L 6.5 0.183594 L 7.789062 -0.148438 L 8.382812 -0.464844 L 8.929688 -0.828125 L 9.394531 -1.289062 L 9.773438 -1.867188 L 9.871094 -2.199219 L 10.039062 -2.480469 L 10.1875 -3.175781 L 10.269531 -3.96875 L 10.269531 -8.433594 L 10.234375 -8.746094 L 10.269531 -9.113281 L 10.234375 -9.375 L 10.234375 -10.75 L 10.285156 -11.078125 L 10.070312 -11.425781 L 9.707031 -11.542969 L 8.664062 -11.507812 L 7.972656 -11.558594 L 7.625 -11.394531 L 7.441406 -11.03125 L 7.476562 -4.515625 L 7.359375 -3.488281 L 7.257812 -3.242188 L 7.078125 -2.910156 L 6.796875 -2.710938 L 6.21875 -2.496094 L 5.226562 -2.496094 L 4.84375 -2.578125 L 4.5625 -2.746094 L 4.300781 -2.945312 L 4.101562 -3.207031 L 4 -3.523438 L 3.902344 -4.480469 L 3.953125 -9.804688 L 3.917969 -10.054688 L 3.953125 -10.582031 L 3.917969 -11.0625 L 3.722656 -11.425781 L 3.375 -11.574219 L 3.058594 -11.574219 L 2.730469 -11.527344 L 2.015625 -11.59375 L 1.671875 -11.542969 L 1.324219 -11.410156 L 1.109375 -11.097656 L 1.140625 -10.765625 L 1.140625 -10.367188 L 1.109375 -10.105469 L 1.15625 -7.789062 L 1.109375 -7.457031 L 1.140625 -7.144531 L 1.089844 -4.480469 L 1.191406 -3.160156 L 1.355469 -2.480469 L 1.621094 -1.917969 L 2 -1.324219 L 2.199219 -1.089844 L 2.449219 -0.875 L 2.976562 -0.527344 L 3.308594 -0.378906 L 3.554688 -0.230469 L 4.183594 0.0507812 L 4.828125 0.183594 L 5.160156 0.183594 Z M 5.6875 0.214844 "/></g></g></g><g fill="#000000" fill-opacity="1"><g transform="translate(23.899517, 84.444732)"><g><path d="M 1.242188 -0.679688 L 1.40625 -0.164062 L 1.886719 0.0507812 L 2.214844 0 L 2.746094 0.0507812 L 3.007812 0.015625 L 3.503906 0.015625 L 4.035156 -0.148438 L 4.183594 -0.628906 L 4.183594 -1.191406 L 4.21875 -1.488281 L 4.167969 -1.835938 L 4.199219 -2.894531 L 4.347656 -3.226562 L 4.664062 -3.40625 L 5.621094 -3.273438 L 5.953125 -2.992188 L 6.152344 -2.664062 L 6.285156 -2.363281 L 6.632812 -1.867188 L 6.945312 -1.273438 L 7.128906 -1.023438 L 7.257812 -0.695312 L 7.441406 -0.414062 L 7.804688 -0.117188 L 8.367188 0.03125 L 9.675781 0.015625 L 9.988281 0.0507812 L 10.535156 0.03125 L 10.847656 -0.117188 L 10.949219 -0.480469 L 10.765625 -0.84375 L 10.566406 -1.074219 L 10.433594 -1.390625 L 9.871094 -2.234375 L 9.722656 -2.53125 L 9.195312 -3.390625 L 8.996094 -3.636719 L 8.980469 -4.035156 L 9.128906 -4.398438 L 9.359375 -4.648438 L 9.589844 -4.84375 L 10.234375 -6.003906 L 10.453125 -6.960938 L 10.417969 -8.003906 L 10.367188 -8.335938 L 10.070312 -9.277344 L 9.9375 -9.558594 L 9.757812 -9.824219 L 8.8125 -10.816406 L 8.234375 -11.128906 L 7.605469 -11.34375 L 6.664062 -11.558594 L 6.136719 -11.574219 L 5.65625 -11.542969 L 4.664062 -11.542969 L 4.332031 -11.609375 L 4 -11.609375 L 3.703125 -11.527344 L 3.375 -11.527344 L 3.042969 -11.59375 L 2.679688 -11.609375 L 1.703125 -11.527344 L 1.40625 -11.359375 L 1.207031 -10.898438 L 1.222656 -7.109375 L 1.257812 -6.78125 L 1.207031 -6.117188 L 1.222656 -5.753906 L 1.222656 -5.425781 L 1.257812 -5.109375 L 1.222656 -4.796875 L 1.207031 -3.457031 L 1.242188 -3.125 Z M 4.664062 -6.050781 L 4.332031 -6.234375 L 4.199219 -6.5 L 4.199219 -7.492188 L 4.167969 -7.773438 L 4.199219 -8.46875 L 4.347656 -8.78125 L 4.695312 -8.914062 L 5.027344 -8.898438 L 5.6875 -8.964844 L 6.152344 -8.863281 L 6.582031 -8.832031 L 6.894531 -8.746094 L 7.308594 -8.234375 L 7.410156 -7.972656 L 7.476562 -7.539062 L 7.425781 -7.042969 L 7.277344 -6.714844 L 7.09375 -6.464844 L 6.914062 -6.316406 L 6.613281 -6.183594 L 6.136719 -6.070312 L 5.820312 -6.050781 L 5.027344 -6.085938 Z M 4.664062 -6.050781 "/></g></g></g><g fill="#000000" fill-opacity="1"><g transform="translate(35.374096, 84.444732)"><g><path d="M 1.71875 0.0507812 L 2.050781 0 L 2.695312 0.03125 L 3.058594 -0.015625 L 3.589844 0.015625 L 4.050781 -0.183594 L 4.25 -0.480469 L 4.199219 -2.214844 L 4.25 -2.730469 L 4.234375 -3.074219 L 4.265625 -3.671875 L 4.234375 -4.035156 L 4.234375 -4.679688 L 4.382812 -4.828125 L 4.546875 -4.761719 L 4.8125 -4.546875 L 5.011719 -4.300781 L 5.6875 -3.621094 L 5.902344 -3.355469 L 6.351562 -2.925781 L 6.699219 -2.679688 L 7.0625 -2.664062 L 7.390625 -2.910156 L 7.625 -3.160156 L 7.820312 -3.355469 L 8.285156 -3.902344 L 8.515625 -4.066406 L 9.195312 -4.761719 L 9.410156 -4.863281 L 9.542969 -4.613281 L 9.507812 -3.703125 L 9.558594 -3.042969 L 9.523438 -2.398438 L 9.558594 -1.785156 L 9.523438 -1.488281 L 9.558594 -0.746094 L 9.558594 -0.496094 L 9.691406 -0.117188 L 10.039062 -0.015625 L 12.039062 0.0507812 L 12.386719 -0.132812 L 12.585938 -0.613281 L 12.535156 -1.472656 L 12.566406 -1.800781 L 12.535156 -6.761719 L 12.566406 -7.128906 L 12.550781 -8.765625 L 12.566406 -9.078125 L 12.535156 -9.789062 L 12.550781 -10.070312 L 12.535156 -10.75 L 12.566406 -11.0625 L 12.371094 -11.410156 L 12.023438 -11.59375 L 11.542969 -11.445312 L 11.195312 -11.230469 L 10.5 -10.5 L 10.285156 -10.234375 L 10.085938 -10.054688 L 9.855469 -9.757812 L 8.402344 -8.269531 L 8.1875 -7.988281 L 7.175781 -6.960938 L 6.878906 -6.761719 L 6.53125 -6.894531 L 6.332031 -7.175781 L 6.101562 -7.410156 L 5.804688 -7.789062 L 5.441406 -8.121094 L 3.9375 -9.789062 L 3.703125 -9.988281 L 3.273438 -10.5 L 3.007812 -10.730469 L 2.578125 -11.179688 L 2.199219 -11.460938 L 1.738281 -11.59375 L 1.371094 -11.425781 L 1.191406 -11.078125 L 1.242188 -10.070312 L 1.191406 -9.425781 L 1.222656 -9.128906 L 1.207031 -6.484375 L 1.242188 -6.152344 L 1.191406 -4.480469 L 1.222656 -4.167969 L 1.207031 -0.511719 L 1.390625 -0.164062 Z M 1.71875 0.0507812 "/></g></g></g><g fill="#000000" fill-opacity="1"><g transform="translate(49.1965, 84.444732)"><g><path d="M 9.757812 0.03125 L 10.386719 -0.015625 L 10.699219 0.015625 L 11.210938 0 L 11.675781 -0.0820312 L 11.726562 -0.480469 L 11.609375 -0.859375 L 11.359375 -1.472656 L 10.914062 -2.332031 L 10.683594 -2.945312 L 10.351562 -3.539062 L 9.722656 -5.042969 L 9.558594 -5.292969 L 9.394531 -5.605469 L 9.292969 -5.96875 L 9.144531 -6.21875 L 9.046875 -6.484375 L 8.699219 -7.09375 L 8.582031 -7.441406 L 7.492188 -9.738281 L 7.390625 -10.070312 L 7.210938 -10.367188 L 7.109375 -10.667969 L 6.796875 -11.246094 L 6.515625 -11.542969 L 5.96875 -11.707031 L 5.441406 -11.527344 L 5.144531 -11.246094 L 4.992188 -10.964844 L 4.878906 -10.632812 L 4.730469 -10.402344 L 4.066406 -8.878906 L 3.886719 -8.632812 L 3.804688 -8.300781 L 3.621094 -7.988281 L 3.523438 -7.691406 L 1.835938 -4.152344 L 1.738281 -3.785156 L 1.570312 -3.539062 L 1.457031 -3.207031 L 1.15625 -2.679688 L 0.910156 -2.015625 L 0.726562 -1.785156 L 0.644531 -1.488281 L 0.3125 -0.828125 L 0.214844 -0.496094 L 0.296875 -0.0820312 L 0.628906 0.015625 L 1.273438 -0.015625 L 1.605469 0.015625 L 2.53125 -0.015625 L 2.910156 -0.132812 L 3.226562 -0.429688 L 3.523438 -0.976562 L 3.835938 -1.289062 L 4.183594 -1.472656 L 4.496094 -1.421875 L 5.191406 -1.488281 L 5.492188 -1.4375 L 7.109375 -1.457031 L 7.410156 -1.421875 L 7.773438 -1.472656 L 8.136719 -1.289062 L 8.449219 -1.023438 L 8.597656 -0.710938 L 8.699219 -0.414062 L 9.027344 -0.164062 L 9.410156 0 Z M 6.003906 -4.085938 L 5.671875 -4.152344 L 5.292969 -4.117188 L 5.027344 -4.234375 L 5.011719 -4.546875 L 5.789062 -6.332031 L 5.96875 -6.484375 L 6.203125 -6.351562 L 6.980469 -4.53125 L 6.914062 -4.234375 L 6.664062 -4.101562 Z M 6.003906 -4.085938 "/></g></g></g><g fill="#000000" fill-opacity="1"><g transform="translate(61.200166, 84.444732)"><g><path d="M 4.449219 0.148438 L 5.753906 0.183594 L 6.085938 0.148438 L 6.417969 0.0664062 L 6.746094 0.015625 L 7.078125 -0.117188 L 7.375 -0.148438 L 7.691406 -0.296875 L 8.8125 -0.976562 L 9.292969 -1.472656 L 9.460938 -1.703125 L 9.640625 -2.066406 L 9.738281 -2.363281 L 9.839844 -2.644531 L 9.9375 -3.472656 L 9.90625 -4 L 9.65625 -4.960938 L 9.476562 -5.226562 L 9.046875 -5.722656 L 8.746094 -5.988281 L 8.484375 -6.117188 L 8.1875 -6.300781 L 6.894531 -6.699219 L 6.566406 -6.746094 L 6.234375 -6.761719 L 5.886719 -6.828125 L 5.40625 -6.828125 L 4.53125 -7.011719 L 3.917969 -7.308594 L 3.671875 -7.539062 L 3.605469 -8.035156 L 3.6875 -8.484375 L 3.886719 -8.699219 L 4.132812 -8.878906 L 4.398438 -9.027344 L 4.695312 -9.09375 L 5.226562 -9.113281 L 5.753906 -9.046875 L 6.050781 -8.964844 L 6.351562 -8.765625 L 6.632812 -8.53125 L 6.878906 -8.203125 L 7.242188 -7.988281 L 8.019531 -8.054688 L 8.46875 -8.019531 L 8.796875 -8.019531 L 9.09375 -7.988281 L 9.410156 -8.21875 L 9.542969 -8.5 L 9.476562 -8.8125 L 9.441406 -9.128906 L 8.980469 -9.988281 L 8.617188 -10.484375 L 7.523438 -11.246094 L 6.597656 -11.558594 L 5.953125 -11.691406 L 4.679688 -11.726562 L 4.316406 -11.625 L 3.984375 -11.609375 L 3.6875 -11.558594 L 3.058594 -11.359375 L 2.496094 -11.03125 L 1.703125 -10.484375 L 1.125 -9.707031 L 0.828125 -8.796875 L 0.777344 -7.988281 L 0.792969 -7.476562 L 0.910156 -6.8125 L 1.175781 -6.234375 L 1.785156 -5.472656 L 2.910156 -4.863281 L 3.503906 -4.664062 L 6.101562 -4.367188 L 6.699219 -4.085938 L 6.914062 -3.886719 L 7.011719 -3.472656 L 6.878906 -3.058594 L 6.664062 -2.8125 L 6.101562 -2.5625 L 5.589844 -2.53125 L 5.292969 -2.480469 L 4.449219 -2.5625 L 4.167969 -2.710938 L 3.886719 -2.894531 L 3.339844 -3.488281 L 3.007812 -3.621094 L 2.710938 -3.589844 L 2.398438 -3.636719 L 1.125 -3.570312 L 0.828125 -3.441406 L 0.695312 -3.09375 L 0.746094 -2.761719 L 0.808594 -2.429688 L 0.910156 -2.132812 L 1.222656 -1.519531 L 1.457031 -1.304688 L 1.671875 -1.058594 L 2.25 -0.695312 L 2.480469 -0.445312 L 2.792969 -0.296875 L 3.125 -0.199219 L 3.769531 0.03125 Z M 4.449219 0.148438 "/></g></g></g></svg>