<svg xmlns="http://www.w3.org/2000/svg" xmlns:xlink="http://www.w3.org/1999/xlink" width="300" zoomAndPan="magnify" viewBox="0 0 224.87999 74.999997" height="100" preserveAspectRatio="xMidYMid meet" version="1.0"><defs><g/><clipPath id="05ccc2774c"><path d="M 0 7.121094 L 224.761719 7.121094 L 224.761719 67.878906 L 0 67.878906 Z M 0 7.121094 " clip-rule="nonzero"/></clipPath><clipPath id="c29027dd50"><path d="M 27.734375 7.121094 L 197.144531 7.121094 C 212.460938 7.121094 224.878906 19.539062 224.878906 34.855469 L 224.878906 40.144531 C 224.878906 55.460938 212.460938 67.878906 197.144531 67.878906 L 27.734375 67.878906 C 12.417969 67.878906 0 55.460938 0 40.144531 L 0 34.855469 C 0 19.539062 12.417969 7.121094 27.734375 7.121094 Z M 27.734375 7.121094 " clip-rule="nonzero"/></clipPath><clipPath id="e3d175e98b"><path d="M 0.00390625 7.121094 L 224.761719 7.121094 L 224.761719 67.839844 L 0.00390625 67.839844 Z M 0.00390625 7.121094 " clip-rule="nonzero"/></clipPath><clipPath id="1364a240a8"><path d="M 27.738281 7.121094 L 197.140625 7.121094 C 212.457031 7.121094 224.875 19.539062 224.875 34.855469 L 224.875 40.140625 C 224.875 55.457031 212.457031 67.875 197.140625 67.875 L 27.738281 67.875 C 12.421875 67.875 0.00390625 55.457031 0.00390625 40.140625 L 0.00390625 34.855469 C 0.00390625 19.539062 12.421875 7.121094 27.738281 7.121094 Z M 27.738281 7.121094 " clip-rule="nonzero"/></clipPath></defs><g clip-path="url(#05ccc2774c)"><g clip-path="url(#c29027dd50)"><path fill="#ff3d00" d="M 0 7.121094 L 224.988281 7.121094 L 224.988281 67.878906 L 0 67.878906 Z M 0 7.121094 " fill-opacity="1" fill-rule="nonzero"/></g></g><g clip-path="url(#e3d175e98b)"><g clip-path="url(#1364a240a8)"><path stroke-linecap="butt" transform="matrix(0.7496, 0, 0, 0.7496, 0.00574629, 7.122078)" fill="none" stroke-linejoin="miter" d="M 36.99645 -0.00131287 L 262.986804 -0.00131287 C 283.41958 -0.00131287 299.985709 16.564817 299.985709 36.997592 L 299.985709 44.048228 C 299.985709 64.481004 283.41958 81.047133 262.986804 81.047133 L 36.99645 81.047133 C 16.563675 81.047133 -0.0024547 64.481004 -0.0024547 44.048228 L -0.0024547 36.997592 C -0.0024547 16.564817 16.563675 -0.00131287 36.99645 -0.00131287 Z M 36.99645 -0.00131287 " stroke="#d9d9d9" stroke-width="2" stroke-opacity="1" stroke-miterlimit="4"/></g></g><g fill="#000000" fill-opacity="1"><g transform="translate(33.71245, 35.530693)"><g><path d="M 6.375 0.167969 L 6.820312 0.0195312 L 7.230469 -0.519531 L 7.46875 -1.039062 L 7.582031 -1.425781 L 7.933594 -2.019531 L 8.042969 -2.390625 L 8.230469 -2.78125 L 8.339844 -3.09375 L 8.542969 -3.429688 L 9.269531 -5.117188 L 9.398438 -5.523438 L 9.730469 -6.117188 L 11.34375 -9.933594 L 11.527344 -10.269531 L 11.84375 -10.9375 L 11.9375 -11.289062 L 12.289062 -11.9375 L 12.417969 -12.4375 L 12.324219 -12.828125 L 11.992188 -12.902344 L 11.601562 -12.9375 L 11.269531 -12.992188 L 10.917969 -12.957031 L 10.546875 -12.9375 L 9.84375 -13.011719 L 9.433594 -12.769531 L 9.121094 -12.457031 L 7.394531 -8.378906 L 7.285156 -7.988281 L 7.117188 -7.671875 L 7.042969 -7.339844 L 6.859375 -7.007812 L 6.488281 -5.96875 L 6.300781 -5.632812 L 6.097656 -5.671875 L 5.632812 -6.671875 L 5.5625 -7.023438 L 5.246094 -7.65625 L 4.320312 -10.066406 L 3.835938 -11.046875 L 3.316406 -12.457031 L 3.003906 -12.769531 L 2.578125 -12.957031 L 1.519531 -12.992188 L 1.148438 -12.9375 L 0.445312 -12.9375 L 0.148438 -12.808594 L 0 -12.4375 L 0.59375 -10.863281 L 0.777344 -10.582031 L 0.871094 -10.230469 L 1.019531 -9.859375 L 1.222656 -9.582031 L 1.351562 -9.195312 L 3.019531 -5.449219 L 3.132812 -5.078125 L 3.597656 -4.113281 L 3.726562 -3.726562 L 4.039062 -3.09375 L 4.246094 -2.761719 L 4.335938 -2.390625 L 5.078125 -0.628906 L 5.246094 -0.351562 L 5.617188 -0.0351562 L 6.023438 0.109375 Z M 6.375 0.167969 "/></g></g></g><g fill="#000000" fill-opacity="1"><g transform="translate(46.201681, 35.530693)"><g><path d="M 6.449219 0.0546875 L 9.101562 0.0195312 L 9.488281 -0.148438 L 9.695312 -0.539062 L 9.695312 -2.410156 L 9.488281 -2.78125 L 9.101562 -2.945312 L 8.675781 -2.910156 L 8.324219 -2.964844 L 7.378906 -2.984375 L 6.765625 -2.910156 L 6.394531 -2.945312 L 5.988281 -2.929688 L 5.632812 -2.984375 L 5.226562 -2.945312 L 4.835938 -3.132812 L 4.6875 -3.464844 L 4.6875 -4.632812 L 4.855469 -5.023438 L 5.191406 -5.226562 L 5.746094 -5.246094 L 6.339844 -5.191406 L 7.042969 -5.226562 L 7.804688 -5.207031 L 8.175781 -5.246094 L 8.601562 -5.226562 L 8.972656 -5.375 L 9.101562 -5.746094 L 9.15625 -7.414062 L 8.972656 -7.933594 L 8.542969 -8.175781 L 7.449219 -8.175781 L 7.0625 -8.136719 L 6.285156 -8.191406 L 5.207031 -8.15625 L 4.820312 -8.324219 L 4.671875 -8.898438 L 4.671875 -9.472656 L 4.835938 -9.824219 L 5.246094 -9.972656 L 5.597656 -9.953125 L 5.949219 -10.027344 L 8.601562 -9.992188 L 8.953125 -10.007812 L 9.339844 -10.230469 L 9.527344 -10.566406 L 9.507812 -10.9375 L 9.527344 -11.304688 L 9.488281 -12.417969 L 9.324219 -12.769531 L 8.953125 -12.917969 L 8.5625 -12.917969 L 8.230469 -12.992188 L 6.726562 -12.976562 L 6.320312 -12.9375 L 5.949219 -12.976562 L 5.632812 -12.957031 L 5.265625 -12.992188 L 3.742188 -12.957031 L 3.375 -13.011719 L 3.019531 -12.9375 L 2.6875 -12.976562 L 2.316406 -12.9375 L 1.945312 -12.957031 L 1.558594 -12.808594 L 1.351562 -12.417969 L 1.390625 -11.714844 L 1.335938 -10.953125 L 1.390625 -10.546875 L 1.351562 -8.730469 L 1.410156 -8.339844 L 1.371094 -7.988281 L 1.351562 -6.46875 L 1.410156 -6.136719 L 1.390625 -3.132812 L 1.351562 -2.78125 L 1.410156 -2.410156 L 1.351562 -1.128906 L 1.390625 -0.722656 L 1.539062 -0.222656 L 2.09375 0.0195312 L 3.429688 0.0351562 L 3.835938 0 L 4.171875 0.0195312 L 4.929688 -0.0351562 L 5.28125 0.0351562 L 5.707031 0.0546875 L 6.078125 0.0195312 Z M 6.449219 0.0546875 "/></g></g></g><g fill="#000000" fill-opacity="1"><g transform="translate(56.81938, 35.530693)"><g><path d="M 1.390625 -0.761719 L 1.574219 -0.183594 L 2.113281 0.0546875 L 2.484375 0 L 3.078125 0.0546875 L 3.375 0.0195312 L 3.929688 0.0195312 L 4.523438 -0.167969 L 4.6875 -0.703125 L 4.6875 -1.335938 L 4.726562 -1.667969 L 4.671875 -2.058594 L 4.707031 -3.242188 L 4.875 -3.613281 L 5.226562 -3.816406 L 6.300781 -3.671875 L 6.671875 -3.355469 L 6.894531 -2.984375 L 7.042969 -2.652344 L 7.433594 -2.09375 L 7.785156 -1.425781 L 7.988281 -1.148438 L 8.136719 -0.777344 L 8.339844 -0.464844 L 8.75 -0.128906 L 9.378906 0.0351562 L 10.84375 0.0195312 L 11.195312 0.0546875 L 11.808594 0.0351562 L 12.160156 -0.128906 L 12.269531 -0.539062 L 12.066406 -0.945312 L 11.84375 -1.203125 L 11.695312 -1.558594 L 11.066406 -2.503906 L 10.898438 -2.835938 L 10.304688 -3.800781 L 10.082031 -4.078125 L 10.066406 -4.523438 L 10.230469 -4.929688 L 10.492188 -5.207031 L 10.75 -5.429688 L 11.472656 -6.726562 L 11.714844 -7.804688 L 11.675781 -8.972656 L 11.621094 -9.339844 L 11.289062 -10.398438 L 11.140625 -10.714844 L 10.9375 -11.011719 L 9.878906 -12.121094 L 9.230469 -12.472656 L 8.527344 -12.714844 L 7.46875 -12.957031 L 6.875 -12.976562 L 6.339844 -12.9375 L 5.226562 -12.9375 L 4.855469 -13.011719 L 4.484375 -13.011719 L 4.152344 -12.917969 L 3.78125 -12.917969 L 3.410156 -12.992188 L 3.003906 -13.011719 L 1.910156 -12.917969 L 1.574219 -12.734375 L 1.351562 -12.214844 L 1.371094 -7.96875 L 1.410156 -7.597656 L 1.351562 -6.859375 L 1.371094 -6.449219 L 1.371094 -6.078125 L 1.410156 -5.726562 L 1.371094 -5.375 L 1.351562 -3.875 L 1.390625 -3.503906 Z M 5.226562 -6.785156 L 4.855469 -6.988281 L 4.707031 -7.285156 L 4.707031 -8.394531 L 4.671875 -8.710938 L 4.707031 -9.488281 L 4.875 -9.84375 L 5.265625 -9.992188 L 5.632812 -9.972656 L 6.375 -10.046875 L 6.894531 -9.933594 L 7.378906 -9.898438 L 7.730469 -9.804688 L 8.191406 -9.230469 L 8.304688 -8.933594 L 8.378906 -8.453125 L 8.324219 -7.894531 L 8.15625 -7.523438 L 7.953125 -7.246094 L 7.746094 -7.082031 L 7.414062 -6.933594 L 6.875 -6.800781 L 6.523438 -6.785156 L 5.632812 -6.820312 Z M 5.226562 -6.785156 "/></g></g></g><g fill="#000000" fill-opacity="1"><g transform="translate(69.67921, 35.530693)"><g/></g></g><g fill="#000000" fill-opacity="1"><g transform="translate(74.700844, 35.530693)"><g><path d="M 10.9375 0.0351562 L 11.640625 -0.0195312 L 11.992188 0.0195312 L 12.566406 0 L 13.085938 -0.09375 L 13.140625 -0.539062 L 13.011719 -0.964844 L 12.734375 -1.648438 L 12.234375 -2.613281 L 11.972656 -3.300781 L 11.601562 -3.964844 L 10.898438 -5.652344 L 10.714844 -5.929688 L 10.527344 -6.285156 L 10.417969 -6.691406 L 10.25 -6.96875 L 10.140625 -7.265625 L 9.75 -7.953125 L 9.621094 -8.339844 L 8.394531 -10.917969 L 8.285156 -11.289062 L 8.082031 -11.621094 L 7.96875 -11.957031 L 7.617188 -12.605469 L 7.304688 -12.9375 L 6.691406 -13.121094 L 6.097656 -12.917969 L 5.765625 -12.605469 L 5.597656 -12.289062 L 5.46875 -11.917969 L 5.300781 -11.660156 L 4.558594 -9.953125 L 4.355469 -9.675781 L 4.261719 -9.304688 L 4.058594 -8.953125 L 3.949219 -8.617188 L 2.058594 -4.652344 L 1.945312 -4.246094 L 1.761719 -3.964844 L 1.632812 -3.597656 L 1.296875 -3.003906 L 1.019531 -2.261719 L 0.816406 -2 L 0.722656 -1.667969 L 0.351562 -0.925781 L 0.242188 -0.554688 L 0.332031 -0.09375 L 0.703125 0.0195312 L 1.425781 -0.0195312 L 1.796875 0.0195312 L 2.835938 -0.0195312 L 3.261719 -0.148438 L 3.613281 -0.480469 L 3.949219 -1.09375 L 4.300781 -1.445312 L 4.6875 -1.648438 L 5.042969 -1.59375 L 5.820312 -1.667969 L 6.152344 -1.613281 L 7.96875 -1.632812 L 8.304688 -1.59375 L 8.710938 -1.648438 L 9.121094 -1.445312 L 9.472656 -1.148438 L 9.636719 -0.796875 L 9.75 -0.464844 L 10.121094 -0.183594 L 10.546875 0 Z M 6.726562 -4.578125 L 6.359375 -4.652344 L 5.929688 -4.617188 L 5.632812 -4.746094 L 5.617188 -5.097656 L 6.488281 -7.097656 L 6.691406 -7.265625 L 6.949219 -7.117188 L 7.820312 -5.078125 L 7.746094 -4.746094 L 7.46875 -4.597656 Z M 6.726562 -4.578125 "/></g></g></g><g fill="#000000" fill-opacity="1"><g transform="translate(88.153638, 35.530693)"><g/></g></g><g fill="#000000" fill-opacity="1"><g transform="translate(93.175273, 35.530693)"><g><path d="M 1.390625 -0.761719 L 1.574219 -0.183594 L 2.113281 0.0546875 L 2.484375 0 L 3.078125 0.0546875 L 3.375 0.0195312 L 3.929688 0.0195312 L 4.523438 -0.167969 L 4.6875 -0.703125 L 4.6875 -1.335938 L 4.726562 -1.667969 L 4.671875 -2.058594 L 4.707031 -3.242188 L 4.875 -3.613281 L 5.226562 -3.816406 L 6.300781 -3.671875 L 6.671875 -3.355469 L 6.894531 -2.984375 L 7.042969 -2.652344 L 7.433594 -2.09375 L 7.785156 -1.425781 L 7.988281 -1.148438 L 8.136719 -0.777344 L 8.339844 -0.464844 L 8.75 -0.128906 L 9.378906 0.0351562 L 10.84375 0.0195312 L 11.195312 0.0546875 L 11.808594 0.0351562 L 12.160156 -0.128906 L 12.269531 -0.539062 L 12.066406 -0.945312 L 11.84375 -1.203125 L 11.695312 -1.558594 L 11.066406 -2.503906 L 10.898438 -2.835938 L 10.304688 -3.800781 L 10.082031 -4.078125 L 10.066406 -4.523438 L 10.230469 -4.929688 L 10.492188 -5.207031 L 10.75 -5.429688 L 11.472656 -6.726562 L 11.714844 -7.804688 L 11.675781 -8.972656 L 11.621094 -9.339844 L 11.289062 -10.398438 L 11.140625 -10.714844 L 10.9375 -11.011719 L 9.878906 -12.121094 L 9.230469 -12.472656 L 8.527344 -12.714844 L 7.46875 -12.957031 L 6.875 -12.976562 L 6.339844 -12.9375 L 5.226562 -12.9375 L 4.855469 -13.011719 L 4.484375 -13.011719 L 4.152344 -12.917969 L 3.78125 -12.917969 L 3.410156 -12.992188 L 3.003906 -13.011719 L 1.910156 -12.917969 L 1.574219 -12.734375 L 1.351562 -12.214844 L 1.371094 -7.96875 L 1.410156 -7.597656 L 1.351562 -6.859375 L 1.371094 -6.449219 L 1.371094 -6.078125 L 1.410156 -5.726562 L 1.371094 -5.375 L 1.351562 -3.875 L 1.390625 -3.503906 Z M 5.226562 -6.785156 L 4.855469 -6.988281 L 4.707031 -7.285156 L 4.707031 -8.394531 L 4.671875 -8.710938 L 4.707031 -9.488281 L 4.875 -9.84375 L 5.265625 -9.992188 L 5.632812 -9.972656 L 6.375 -10.046875 L 6.894531 -9.933594 L 7.378906 -9.898438 L 7.730469 -9.804688 L 8.191406 -9.230469 L 8.304688 -8.933594 L 8.378906 -8.453125 L 8.324219 -7.894531 L 8.15625 -7.523438 L 7.953125 -7.246094 L 7.746094 -7.082031 L 7.414062 -6.933594 L 6.875 -6.800781 L 6.523438 -6.785156 L 5.632812 -6.820312 Z M 5.226562 -6.785156 "/></g></g></g><g fill="#000000" fill-opacity="1"><g transform="translate(106.035102, 35.530693)"><g><path d="M 6.449219 0.0546875 L 9.101562 0.0195312 L 9.488281 -0.148438 L 9.695312 -0.539062 L 9.695312 -2.410156 L 9.488281 -2.78125 L 9.101562 -2.945312 L 8.675781 -2.910156 L 8.324219 -2.964844 L 7.378906 -2.984375 L 6.765625 -2.910156 L 6.394531 -2.945312 L 5.988281 -2.929688 L 5.632812 -2.984375 L 5.226562 -2.945312 L 4.835938 -3.132812 L 4.6875 -3.464844 L 4.6875 -4.632812 L 4.855469 -5.023438 L 5.191406 -5.226562 L 5.746094 -5.246094 L 6.339844 -5.191406 L 7.042969 -5.226562 L 7.804688 -5.207031 L 8.175781 -5.246094 L 8.601562 -5.226562 L 8.972656 -5.375 L 9.101562 -5.746094 L 9.15625 -7.414062 L 8.972656 -7.933594 L 8.542969 -8.175781 L 7.449219 -8.175781 L 7.0625 -8.136719 L 6.285156 -8.191406 L 5.207031 -8.15625 L 4.820312 -8.324219 L 4.671875 -8.898438 L 4.671875 -9.472656 L 4.835938 -9.824219 L 5.246094 -9.972656 L 5.597656 -9.953125 L 5.949219 -10.027344 L 8.601562 -9.992188 L 8.953125 -10.007812 L 9.339844 -10.230469 L 9.527344 -10.566406 L 9.507812 -10.9375 L 9.527344 -11.304688 L 9.488281 -12.417969 L 9.324219 -12.769531 L 8.953125 -12.917969 L 8.5625 -12.917969 L 8.230469 -12.992188 L 6.726562 -12.976562 L 6.320312 -12.9375 L 5.949219 -12.976562 L 5.632812 -12.957031 L 5.265625 -12.992188 L 3.742188 -12.957031 L 3.375 -13.011719 L 3.019531 -12.9375 L 2.6875 -12.976562 L 2.316406 -12.9375 L 1.945312 -12.957031 L 1.558594 -12.808594 L 1.351562 -12.417969 L 1.390625 -11.714844 L 1.335938 -10.953125 L 1.390625 -10.546875 L 1.351562 -8.730469 L 1.410156 -8.339844 L 1.371094 -7.988281 L 1.351562 -6.46875 L 1.410156 -6.136719 L 1.390625 -3.132812 L 1.351562 -2.78125 L 1.410156 -2.410156 L 1.351562 -1.128906 L 1.390625 -0.722656 L 1.539062 -0.222656 L 2.09375 0.0195312 L 3.429688 0.0351562 L 3.835938 0 L 4.171875 0.0195312 L 4.929688 -0.0351562 L 5.28125 0.0351562 L 5.707031 0.0546875 L 6.078125 0.0195312 Z M 6.449219 0.0546875 "/></g></g></g><g fill="#000000" fill-opacity="1"><g transform="translate(116.652801, 35.530693)"><g><path d="M 4.984375 0.167969 L 6.449219 0.203125 L 6.820312 0.167969 L 7.191406 0.0742188 L 7.5625 0.0195312 L 7.933594 -0.128906 L 8.265625 -0.167969 L 8.617188 -0.332031 L 9.878906 -1.09375 L 10.417969 -1.648438 L 10.601562 -1.910156 L 10.804688 -2.316406 L 10.917969 -2.652344 L 11.027344 -2.964844 L 11.140625 -3.890625 L 11.101562 -4.484375 L 10.824219 -5.5625 L 10.621094 -5.855469 L 10.140625 -6.414062 L 9.804688 -6.710938 L 9.507812 -6.859375 L 9.175781 -7.0625 L 7.730469 -7.507812 L 7.359375 -7.5625 L 6.988281 -7.582031 L 6.597656 -7.65625 L 6.0625 -7.65625 L 5.078125 -7.859375 L 4.394531 -8.191406 L 4.113281 -8.453125 L 4.039062 -9.007812 L 4.132812 -9.507812 L 4.355469 -9.75 L 4.632812 -9.953125 L 4.929688 -10.121094 L 5.265625 -10.195312 L 5.855469 -10.210938 L 6.449219 -10.140625 L 6.785156 -10.046875 L 7.117188 -9.824219 L 7.433594 -9.5625 L 7.710938 -9.195312 L 8.117188 -8.953125 L 8.988281 -9.027344 L 9.488281 -8.988281 L 9.859375 -8.988281 L 10.195312 -8.953125 L 10.546875 -9.210938 L 10.695312 -9.527344 L 10.621094 -9.878906 L 10.582031 -10.230469 L 10.066406 -11.195312 L 9.65625 -11.75 L 8.433594 -12.605469 L 7.394531 -12.957031 L 6.671875 -13.105469 L 5.246094 -13.140625 L 4.835938 -13.03125 L 4.46875 -13.011719 L 4.132812 -12.957031 L 3.429688 -12.734375 L 2.796875 -12.363281 L 1.910156 -11.75 L 1.261719 -10.878906 L 0.925781 -9.859375 L 0.871094 -8.953125 L 0.890625 -8.378906 L 1.019531 -7.636719 L 1.316406 -6.988281 L 2 -6.136719 L 3.261719 -5.449219 L 3.929688 -5.226562 L 6.839844 -4.894531 L 7.507812 -4.578125 L 7.746094 -4.355469 L 7.859375 -3.890625 L 7.710938 -3.429688 L 7.46875 -3.152344 L 6.839844 -2.871094 L 6.265625 -2.835938 L 5.929688 -2.78125 L 4.984375 -2.871094 L 4.671875 -3.039062 L 4.355469 -3.242188 L 3.742188 -3.910156 L 3.375 -4.058594 L 3.039062 -4.023438 L 2.6875 -4.078125 L 1.261719 -4.003906 L 0.925781 -3.855469 L 0.777344 -3.464844 L 0.835938 -3.09375 L 0.910156 -2.726562 L 1.019531 -2.390625 L 1.371094 -1.707031 L 1.632812 -1.464844 L 1.871094 -1.1875 L 2.519531 -0.777344 L 2.78125 -0.5 L 3.132812 -0.332031 L 3.503906 -0.222656 L 4.226562 0.0351562 Z M 4.984375 0.167969 "/></g></g></g><g fill="#000000" fill-opacity="1"><g transform="translate(128.474949, 35.530693)"><g><path d="M 2.484375 0.0546875 L 3.390625 0.0195312 L 3.726562 0.0351562 L 4.152344 0 L 4.542969 -0.148438 L 4.707031 -0.539062 L 4.6875 -0.910156 L 4.707031 -1.316406 L 4.671875 -2 L 4.707031 -2.355469 L 4.6875 -2.78125 L 4.855469 -3.113281 L 5.28125 -3.316406 L 5.691406 -3.355469 L 6.078125 -3.28125 L 7.988281 -3.429688 L 9.75 -4.132812 L 10.027344 -4.355469 L 10.285156 -4.652344 L 10.527344 -4.894531 L 10.769531 -5.171875 L 11.15625 -5.765625 L 11.472656 -6.488281 L 11.527344 -6.894531 L 11.640625 -7.191406 L 11.675781 -8.710938 L 11.601562 -9.027344 L 11.546875 -9.433594 L 11.324219 -10.121094 L 10.972656 -10.75 L 10.527344 -11.363281 L 9.695312 -12.085938 L 9.082031 -12.492188 L 8.339844 -12.714844 L 8.027344 -12.84375 L 7.65625 -12.84375 L 7.285156 -12.976562 L 6.726562 -12.992188 L 6.136719 -12.976562 L 5.726562 -12.917969 L 4.597656 -12.9375 L 4.226562 -12.992188 L 3.078125 -12.917969 L 2.667969 -12.9375 L 2.335938 -12.992188 L 1.945312 -12.917969 L 1.558594 -12.714844 L 1.390625 -12.417969 L 1.410156 -10.175781 L 1.335938 -9.433594 L 1.371094 -9.082031 L 1.351562 -4.28125 L 1.390625 -3.929688 L 1.371094 -0.5 L 1.574219 -0.148438 L 2.148438 0.0351562 Z M 5.265625 -6.285156 L 4.894531 -6.503906 L 4.726562 -6.820312 L 4.671875 -8.324219 L 4.707031 -8.710938 L 4.707031 -9.472656 L 4.894531 -9.824219 L 5.28125 -10.007812 L 7.210938 -9.953125 L 7.582031 -9.785156 L 7.878906 -9.582031 L 8.117188 -9.339844 L 8.304688 -8.972656 L 8.359375 -8.636719 L 8.394531 -8.117188 L 8.359375 -7.617188 L 8.230469 -7.285156 L 8.0625 -6.988281 L 7.820312 -6.691406 L 7.523438 -6.46875 L 7.230469 -6.375 L 6.652344 -6.300781 L 5.707031 -6.320312 Z M 5.265625 -6.285156 "/></g></g></g><g fill="#000000" fill-opacity="1"><g transform="translate(140.667701, 35.530693)"><g><path d="M 7.433594 0.242188 L 9.082031 0.0742188 L 9.785156 -0.148438 L 11.4375 -0.890625 L 12.734375 -2.132812 L 12.976562 -2.464844 L 13.699219 -3.742188 L 13.828125 -4.097656 L 13.882812 -4.46875 L 13.992188 -4.761719 L 14.066406 -5.171875 L 14.160156 -6.46875 L 14.066406 -7.746094 L 13.917969 -8.433594 L 13.773438 -8.824219 L 13.679688 -9.25 L 13.34375 -9.859375 L 13.214844 -10.195312 L 12.976562 -10.507812 L 12.753906 -10.730469 L 12.511719 -11.066406 L 11.714844 -11.789062 L 10.769531 -12.382812 L 8.339844 -13.140625 L 7.46875 -13.160156 L 6.171875 -13.085938 L 5.800781 -13.011719 L 5.429688 -12.902344 L 5.097656 -12.753906 L 4.394531 -12.566406 L 3.449219 -11.972656 L 3.1875 -11.75 L 2.59375 -11.34375 L 2.09375 -10.789062 L 1.464844 -9.859375 L 1.296875 -9.546875 L 0.945312 -8.527344 L 0.796875 -7.730469 L 0.722656 -5.578125 L 0.925781 -4.410156 L 1.203125 -3.78125 L 1.316406 -3.390625 L 1.5 -3.058594 L 2.371094 -1.871094 L 2.890625 -1.371094 L 3.132812 -1.09375 L 4.394531 -0.425781 L 4.746094 -0.277344 L 6.320312 0.183594 Z M 6.914062 -3.019531 L 6.542969 -3.152344 L 6.210938 -3.1875 L 5.578125 -3.523438 L 5.003906 -4.023438 L 4.820312 -4.28125 L 4.578125 -4.542969 L 4.226562 -5.578125 L 4.132812 -6.503906 L 4.152344 -7.0625 L 4.28125 -7.746094 L 4.394531 -8.082031 L 4.617188 -8.339844 L 4.78125 -8.65625 L 5.023438 -8.953125 L 5.300781 -9.195312 L 5.839844 -9.5625 L 6.171875 -9.730469 L 6.5625 -9.824219 L 7.414062 -9.898438 L 8.304688 -9.84375 L 9.285156 -9.414062 L 9.859375 -8.988281 L 10.285156 -8.359375 L 10.433594 -8.027344 L 10.546875 -7.65625 L 10.675781 -7.320312 L 10.75 -6.523438 L 10.640625 -5.597656 L 10.472656 -4.835938 L 10.269531 -4.558594 L 10.101562 -4.28125 L 9.878906 -3.949219 L 9.304688 -3.503906 L 8.972656 -3.355469 L 8.675781 -3.1875 L 8.339844 -3.152344 L 7.988281 -3.058594 Z M 6.914062 -3.019531 "/></g></g></g><g fill="#000000" fill-opacity="1"><g transform="translate(155.528781, 35.530693)"><g><path d="M 4.984375 0.167969 L 6.449219 0.203125 L 6.820312 0.167969 L 7.191406 0.0742188 L 7.5625 0.0195312 L 7.933594 -0.128906 L 8.265625 -0.167969 L 8.617188 -0.332031 L 9.878906 -1.09375 L 10.417969 -1.648438 L 10.601562 -1.910156 L 10.804688 -2.316406 L 10.917969 -2.652344 L 11.027344 -2.964844 L 11.140625 -3.890625 L 11.101562 -4.484375 L 10.824219 -5.5625 L 10.621094 -5.855469 L 10.140625 -6.414062 L 9.804688 -6.710938 L 9.507812 -6.859375 L 9.175781 -7.0625 L 7.730469 -7.507812 L 7.359375 -7.5625 L 6.988281 -7.582031 L 6.597656 -7.65625 L 6.0625 -7.65625 L 5.078125 -7.859375 L 4.394531 -8.191406 L 4.113281 -8.453125 L 4.039062 -9.007812 L 4.132812 -9.507812 L 4.355469 -9.75 L 4.632812 -9.953125 L 4.929688 -10.121094 L 5.265625 -10.195312 L 5.855469 -10.210938 L 6.449219 -10.140625 L 6.785156 -10.046875 L 7.117188 -9.824219 L 7.433594 -9.5625 L 7.710938 -9.195312 L 8.117188 -8.953125 L 8.988281 -9.027344 L 9.488281 -8.988281 L 9.859375 -8.988281 L 10.195312 -8.953125 L 10.546875 -9.210938 L 10.695312 -9.527344 L 10.621094 -9.878906 L 10.582031 -10.230469 L 10.066406 -11.195312 L 9.65625 -11.75 L 8.433594 -12.605469 L 7.394531 -12.957031 L 6.671875 -13.105469 L 5.246094 -13.140625 L 4.835938 -13.03125 L 4.46875 -13.011719 L 4.132812 -12.957031 L 3.429688 -12.734375 L 2.796875 -12.363281 L 1.910156 -11.75 L 1.261719 -10.878906 L 0.925781 -9.859375 L 0.871094 -8.953125 L 0.890625 -8.378906 L 1.019531 -7.636719 L 1.316406 -6.988281 L 2 -6.136719 L 3.261719 -5.449219 L 3.929688 -5.226562 L 6.839844 -4.894531 L 7.507812 -4.578125 L 7.746094 -4.355469 L 7.859375 -3.890625 L 7.710938 -3.429688 L 7.46875 -3.152344 L 6.839844 -2.871094 L 6.265625 -2.835938 L 5.929688 -2.78125 L 4.984375 -2.871094 L 4.671875 -3.039062 L 4.355469 -3.242188 L 3.742188 -3.910156 L 3.375 -4.058594 L 3.039062 -4.023438 L 2.6875 -4.078125 L 1.261719 -4.003906 L 0.925781 -3.855469 L 0.777344 -3.464844 L 0.835938 -3.09375 L 0.910156 -2.726562 L 1.019531 -2.390625 L 1.371094 -1.707031 L 1.632812 -1.464844 L 1.871094 -1.1875 L 2.519531 -0.777344 L 2.78125 -0.5 L 3.132812 -0.332031 L 3.503906 -0.222656 L 4.226562 0.0351562 Z M 4.984375 0.167969 "/></g></g></g><g fill="#000000" fill-opacity="1"><g transform="translate(167.350935, 35.530693)"><g><path d="M 4.835938 0.0351562 L 6.078125 0 L 6.617188 -0.183594 L 6.800781 -0.703125 L 6.859375 -1.667969 L 6.800781 -2.371094 L 6.839844 -2.761719 L 6.820312 -3.503906 L 6.859375 -3.835938 L 6.800781 -4.246094 L 6.839844 -7.230469 L 6.785156 -7.617188 L 6.839844 -9.230469 L 6.988281 -9.785156 L 7.339844 -10.007812 L 8.0625 -10.046875 L 8.75 -9.953125 L 9.136719 -10.007812 L 9.472656 -9.992188 L 9.785156 -10.195312 L 10.007812 -10.601562 L 10.027344 -12.363281 L 9.824219 -12.734375 L 9.472656 -12.976562 L 8.324219 -12.976562 L 7.96875 -13.011719 L 7.582031 -12.957031 L 7.230469 -12.992188 L 5.726562 -12.917969 L 5.355469 -12.992188 L 5.003906 -13.011719 L 4.617188 -12.957031 L 4.207031 -12.992188 L 3.875 -12.917969 L 2.78125 -12.976562 L 2.207031 -12.917969 L 0.910156 -12.992188 L 0.554688 -12.808594 L 0.332031 -12.382812 L 0.351562 -12.011719 L 0.316406 -11.085938 L 0.351562 -10.507812 L 0.519531 -10.175781 L 0.851562 -9.992188 L 1.222656 -10.027344 L 2.984375 -9.992188 L 3.335938 -9.804688 L 3.539062 -9.433594 L 3.503906 -8.839844 L 3.539062 -8.324219 L 3.523438 -7.914062 L 3.539062 -7.542969 L 3.503906 -7.023438 L 3.558594 -4.261719 L 3.523438 -3.890625 L 3.503906 -2.390625 L 3.539062 -2 L 3.523438 -0.925781 L 3.484375 -0.574219 L 3.726562 -0.167969 L 4.261719 0.0195312 Z M 4.835938 0.0351562 "/></g></g></g><g fill="#000000" fill-opacity="1"><g transform="translate(177.709205, 35.530693)"><g><path d="M 10.9375 0.0351562 L 11.640625 -0.0195312 L 11.992188 0.0195312 L 12.566406 0 L 13.085938 -0.09375 L 13.140625 -0.539062 L 13.011719 -0.964844 L 12.734375 -1.648438 L 12.234375 -2.613281 L 11.972656 -3.300781 L 11.601562 -3.964844 L 10.898438 -5.652344 L 10.714844 -5.929688 L 10.527344 -6.285156 L 10.417969 -6.691406 L 10.25 -6.96875 L 10.140625 -7.265625 L 9.75 -7.953125 L 9.621094 -8.339844 L 8.394531 -10.917969 L 8.285156 -11.289062 L 8.082031 -11.621094 L 7.96875 -11.957031 L 7.617188 -12.605469 L 7.304688 -12.9375 L 6.691406 -13.121094 L 6.097656 -12.917969 L 5.765625 -12.605469 L 5.597656 -12.289062 L 5.46875 -11.917969 L 5.300781 -11.660156 L 4.558594 -9.953125 L 4.355469 -9.675781 L 4.261719 -9.304688 L 4.058594 -8.953125 L 3.949219 -8.617188 L 2.058594 -4.652344 L 1.945312 -4.246094 L 1.761719 -3.964844 L 1.632812 -3.597656 L 1.296875 -3.003906 L 1.019531 -2.261719 L 0.816406 -2 L 0.722656 -1.667969 L 0.351562 -0.925781 L 0.242188 -0.554688 L 0.332031 -0.09375 L 0.703125 0.0195312 L 1.425781 -0.0195312 L 1.796875 0.0195312 L 2.835938 -0.0195312 L 3.261719 -0.148438 L 3.613281 -0.480469 L 3.949219 -1.09375 L 4.300781 -1.445312 L 4.6875 -1.648438 L 5.042969 -1.59375 L 5.820312 -1.667969 L 6.152344 -1.613281 L 7.96875 -1.632812 L 8.304688 -1.59375 L 8.710938 -1.648438 L 9.121094 -1.445312 L 9.472656 -1.148438 L 9.636719 -0.796875 L 9.75 -0.464844 L 10.121094 -0.183594 L 10.546875 0 Z M 6.726562 -4.578125 L 6.359375 -4.652344 L 5.929688 -4.617188 L 5.632812 -4.746094 L 5.617188 -5.097656 L 6.488281 -7.097656 L 6.691406 -7.265625 L 6.949219 -7.117188 L 7.820312 -5.078125 L 7.746094 -4.746094 L 7.46875 -4.597656 Z M 6.726562 -4.578125 "/></g></g></g><g fill="#000000" fill-opacity="1"><g transform="translate(81.720618, 52.072925)"><g><path d="M 6.449219 0.148438 L 7.378906 0.222656 L 8.675781 0.128906 L 9.769531 -0.09375 L 10.101562 -0.277344 L 10.492188 -0.40625 L 10.804688 -0.554688 L 11.714844 -1.203125 L 12.234375 -1.722656 L 12.660156 -2.28125 L 13.046875 -2.945312 L 13.53125 -4.355469 L 13.417969 -4.6875 L 13.046875 -4.929688 L 12.011719 -4.855469 L 11.640625 -4.910156 L 11.269531 -4.894531 L 10.898438 -4.910156 L 10.472656 -4.6875 L 10.175781 -4.394531 L 9.992188 -4.039062 L 9.5625 -3.558594 L 9.269531 -3.300781 L 8.988281 -3.1875 L 8.339844 -2.835938 L 7.359375 -2.78125 L 6.820312 -2.835938 L 6.152344 -3.078125 L 5.503906 -3.410156 L 4.96875 -3.890625 L 4.558594 -4.542969 L 4.429688 -4.910156 L 4.300781 -5.171875 L 4.207031 -5.503906 L 4.152344 -5.914062 L 4.152344 -7.042969 L 4.28125 -7.785156 L 4.558594 -8.453125 L 4.746094 -8.804688 L 5.191406 -9.324219 L 5.632812 -9.675781 L 6.136719 -9.953125 L 7.378906 -10.121094 L 8.175781 -10.082031 L 8.75 -9.917969 L 9.082031 -9.785156 L 9.339844 -9.582031 L 9.878906 -9.046875 L 10.082031 -8.765625 L 10.433594 -8.414062 L 10.863281 -8.210938 L 11.195312 -8.25 L 11.585938 -8.230469 L 11.957031 -8.25 L 12.472656 -8.191406 L 13.03125 -8.25 L 13.34375 -8.394531 L 13.476562 -8.765625 L 13.363281 -9.175781 L 13.234375 -9.507812 L 13.121094 -9.898438 L 12.917969 -10.195312 L 12.753906 -10.492188 L 12.492188 -10.804688 L 12.289062 -11.15625 L 11.769531 -11.695312 L 10.507812 -12.492188 L 8.730469 -13.085938 L 8.378906 -13.105469 L 8.007812 -13.160156 L 6.859375 -13.179688 L 5.058594 -12.828125 L 3.6875 -12.175781 L 3.152344 -11.769531 L 2.355469 -11.046875 L 1.855469 -10.417969 L 1.5 -9.878906 L 1.039062 -8.839844 L 0.851562 -8.082031 L 0.667969 -6.488281 L 0.777344 -5.132812 L 1.039062 -4.078125 L 1.835938 -2.464844 L 2.59375 -1.648438 L 3.429688 -0.925781 L 4.226562 -0.5 L 5.058594 -0.148438 L 5.394531 -0.0742188 L 5.765625 0.0546875 L 6.097656 0.128906 Z M 6.449219 0.148438 "/></g></g></g><g fill="#000000" fill-opacity="1"><g transform="translate(95.859023, 52.072925)"><g><path d="M 6.449219 0.0546875 L 9.101562 0.0195312 L 9.488281 -0.148438 L 9.695312 -0.539062 L 9.695312 -2.410156 L 9.488281 -2.78125 L 9.101562 -2.945312 L 8.675781 -2.910156 L 8.324219 -2.964844 L 7.378906 -2.984375 L 6.765625 -2.910156 L 6.394531 -2.945312 L 5.988281 -2.929688 L 5.632812 -2.984375 L 5.226562 -2.945312 L 4.835938 -3.132812 L 4.6875 -3.464844 L 4.6875 -4.632812 L 4.855469 -5.023438 L 5.191406 -5.226562 L 5.746094 -5.246094 L 6.339844 -5.191406 L 7.042969 -5.226562 L 7.804688 -5.207031 L 8.175781 -5.246094 L 8.601562 -5.226562 L 8.972656 -5.375 L 9.101562 -5.746094 L 9.15625 -7.414062 L 8.972656 -7.933594 L 8.542969 -8.175781 L 7.449219 -8.175781 L 7.0625 -8.136719 L 6.285156 -8.191406 L 5.207031 -8.15625 L 4.820312 -8.324219 L 4.671875 -8.898438 L 4.671875 -9.472656 L 4.835938 -9.824219 L 5.246094 -9.972656 L 5.597656 -9.953125 L 5.949219 -10.027344 L 8.601562 -9.992188 L 8.953125 -10.007812 L 9.339844 -10.230469 L 9.527344 -10.566406 L 9.507812 -10.9375 L 9.527344 -11.304688 L 9.488281 -12.417969 L 9.324219 -12.769531 L 8.953125 -12.917969 L 8.5625 -12.917969 L 8.230469 -12.992188 L 6.726562 -12.976562 L 6.320312 -12.9375 L 5.949219 -12.976562 L 5.632812 -12.957031 L 5.265625 -12.992188 L 3.742188 -12.957031 L 3.375 -13.011719 L 3.019531 -12.9375 L 2.6875 -12.976562 L 2.316406 -12.9375 L 1.945312 -12.957031 L 1.558594 -12.808594 L 1.351562 -12.417969 L 1.390625 -11.714844 L 1.335938 -10.953125 L 1.390625 -10.546875 L 1.351562 -8.730469 L 1.410156 -8.339844 L 1.371094 -7.988281 L 1.351562 -6.46875 L 1.410156 -6.136719 L 1.390625 -3.132812 L 1.351562 -2.78125 L 1.410156 -2.410156 L 1.351562 -1.128906 L 1.390625 -0.722656 L 1.539062 -0.222656 L 2.09375 0.0195312 L 3.429688 0.0351562 L 3.835938 0 L 4.171875 0.0195312 L 4.929688 -0.0351562 L 5.28125 0.0351562 L 5.707031 0.0546875 L 6.078125 0.0195312 Z M 6.449219 0.0546875 "/></g></g></g><g fill="#000000" fill-opacity="1"><g transform="translate(106.476722, 52.072925)"><g><path d="M 1.390625 -0.761719 L 1.574219 -0.183594 L 2.113281 0.0546875 L 2.484375 0 L 3.078125 0.0546875 L 3.375 0.0195312 L 3.929688 0.0195312 L 4.523438 -0.167969 L 4.6875 -0.703125 L 4.6875 -1.335938 L 4.726562 -1.667969 L 4.671875 -2.058594 L 4.707031 -3.242188 L 4.875 -3.613281 L 5.226562 -3.816406 L 6.300781 -3.671875 L 6.671875 -3.355469 L 6.894531 -2.984375 L 7.042969 -2.652344 L 7.433594 -2.09375 L 7.785156 -1.425781 L 7.988281 -1.148438 L 8.136719 -0.777344 L 8.339844 -0.464844 L 8.75 -0.128906 L 9.378906 0.0351562 L 10.84375 0.0195312 L 11.195312 0.0546875 L 11.808594 0.0351562 L 12.160156 -0.128906 L 12.269531 -0.539062 L 12.066406 -0.945312 L 11.84375 -1.203125 L 11.695312 -1.558594 L 11.066406 -2.503906 L 10.898438 -2.835938 L 10.304688 -3.800781 L 10.082031 -4.078125 L 10.066406 -4.523438 L 10.230469 -4.929688 L 10.492188 -5.207031 L 10.75 -5.429688 L 11.472656 -6.726562 L 11.714844 -7.804688 L 11.675781 -8.972656 L 11.621094 -9.339844 L 11.289062 -10.398438 L 11.140625 -10.714844 L 10.9375 -11.011719 L 9.878906 -12.121094 L 9.230469 -12.472656 L 8.527344 -12.714844 L 7.46875 -12.957031 L 6.875 -12.976562 L 6.339844 -12.9375 L 5.226562 -12.9375 L 4.855469 -13.011719 L 4.484375 -13.011719 L 4.152344 -12.917969 L 3.78125 -12.917969 L 3.410156 -12.992188 L 3.003906 -13.011719 L 1.910156 -12.917969 L 1.574219 -12.734375 L 1.351562 -12.214844 L 1.371094 -7.96875 L 1.410156 -7.597656 L 1.351562 -6.859375 L 1.371094 -6.449219 L 1.371094 -6.078125 L 1.410156 -5.726562 L 1.371094 -5.375 L 1.351562 -3.875 L 1.390625 -3.503906 Z M 5.226562 -6.785156 L 4.855469 -6.988281 L 4.707031 -7.285156 L 4.707031 -8.394531 L 4.671875 -8.710938 L 4.707031 -9.488281 L 4.875 -9.84375 L 5.265625 -9.992188 L 5.632812 -9.972656 L 6.375 -10.046875 L 6.894531 -9.933594 L 7.378906 -9.898438 L 7.730469 -9.804688 L 8.191406 -9.230469 L 8.304688 -8.933594 L 8.378906 -8.453125 L 8.324219 -7.894531 L 8.15625 -7.523438 L 7.953125 -7.246094 L 7.746094 -7.082031 L 7.414062 -6.933594 L 6.875 -6.800781 L 6.523438 -6.785156 L 5.632812 -6.820312 Z M 5.226562 -6.785156 "/></g></g></g><g fill="#000000" fill-opacity="1"><g transform="translate(119.336551, 52.072925)"><g><path d="M 4.835938 0.0351562 L 6.078125 0 L 6.617188 -0.183594 L 6.800781 -0.703125 L 6.859375 -1.667969 L 6.800781 -2.371094 L 6.839844 -2.761719 L 6.820312 -3.503906 L 6.859375 -3.835938 L 6.800781 -4.246094 L 6.839844 -7.230469 L 6.785156 -7.617188 L 6.839844 -9.230469 L 6.988281 -9.785156 L 7.339844 -10.007812 L 8.0625 -10.046875 L 8.75 -9.953125 L 9.136719 -10.007812 L 9.472656 -9.992188 L 9.785156 -10.195312 L 10.007812 -10.601562 L 10.027344 -12.363281 L 9.824219 -12.734375 L 9.472656 -12.976562 L 8.324219 -12.976562 L 7.96875 -13.011719 L 7.582031 -12.957031 L 7.230469 -12.992188 L 5.726562 -12.917969 L 5.355469 -12.992188 L 5.003906 -13.011719 L 4.617188 -12.957031 L 4.207031 -12.992188 L 3.875 -12.917969 L 2.78125 -12.976562 L 2.207031 -12.917969 L 0.910156 -12.992188 L 0.554688 -12.808594 L 0.332031 -12.382812 L 0.351562 -12.011719 L 0.316406 -11.085938 L 0.351562 -10.507812 L 0.519531 -10.175781 L 0.851562 -9.992188 L 1.222656 -10.027344 L 2.984375 -9.992188 L 3.335938 -9.804688 L 3.539062 -9.433594 L 3.503906 -8.839844 L 3.539062 -8.324219 L 3.523438 -7.914062 L 3.539062 -7.542969 L 3.503906 -7.023438 L 3.558594 -4.261719 L 3.523438 -3.890625 L 3.503906 -2.390625 L 3.539062 -2 L 3.523438 -0.925781 L 3.484375 -0.574219 L 3.726562 -0.167969 L 4.261719 0.0195312 Z M 4.835938 0.0351562 "/></g></g></g><g fill="#000000" fill-opacity="1"><g transform="translate(129.694828, 52.072925)"><g><path d="M 10.9375 0.0351562 L 11.640625 -0.0195312 L 11.992188 0.0195312 L 12.566406 0 L 13.085938 -0.09375 L 13.140625 -0.539062 L 13.011719 -0.964844 L 12.734375 -1.648438 L 12.234375 -2.613281 L 11.972656 -3.300781 L 11.601562 -3.964844 L 10.898438 -5.652344 L 10.714844 -5.929688 L 10.527344 -6.285156 L 10.417969 -6.691406 L 10.25 -6.96875 L 10.140625 -7.265625 L 9.75 -7.953125 L 9.621094 -8.339844 L 8.394531 -10.917969 L 8.285156 -11.289062 L 8.082031 -11.621094 L 7.96875 -11.957031 L 7.617188 -12.605469 L 7.304688 -12.9375 L 6.691406 -13.121094 L 6.097656 -12.917969 L 5.765625 -12.605469 L 5.597656 -12.289062 L 5.46875 -11.917969 L 5.300781 -11.660156 L 4.558594 -9.953125 L 4.355469 -9.675781 L 4.261719 -9.304688 L 4.058594 -8.953125 L 3.949219 -8.617188 L 2.058594 -4.652344 L 1.945312 -4.246094 L 1.761719 -3.964844 L 1.632812 -3.597656 L 1.296875 -3.003906 L 1.019531 -2.261719 L 0.816406 -2 L 0.722656 -1.667969 L 0.351562 -0.925781 L 0.242188 -0.554688 L 0.332031 -0.09375 L 0.703125 0.0195312 L 1.425781 -0.0195312 L 1.796875 0.0195312 L 2.835938 -0.0195312 L 3.261719 -0.148438 L 3.613281 -0.480469 L 3.949219 -1.09375 L 4.300781 -1.445312 L 4.6875 -1.648438 L 5.042969 -1.59375 L 5.820312 -1.667969 L 6.152344 -1.613281 L 7.96875 -1.632812 L 8.304688 -1.59375 L 8.710938 -1.648438 L 9.121094 -1.445312 L 9.472656 -1.148438 L 9.636719 -0.796875 L 9.75 -0.464844 L 10.121094 -0.183594 L 10.546875 0 Z M 6.726562 -4.578125 L 6.359375 -4.652344 L 5.929688 -4.617188 L 5.632812 -4.746094 L 5.617188 -5.097656 L 6.488281 -7.097656 L 6.691406 -7.265625 L 6.949219 -7.117188 L 7.820312 -5.078125 L 7.746094 -4.746094 L 7.46875 -4.597656 Z M 6.726562 -4.578125 "/></g></g></g></svg>