<svg xmlns="http://www.w3.org/2000/svg" xmlns:xlink="http://www.w3.org/1999/xlink" width="300" zoomAndPan="magnify" viewBox="0 0 224.87999 74.999997" height="100" preserveAspectRatio="xMidYMid meet" version="1.0"><defs><g/><clipPath id="50d9e9fc53"><path d="M 24.050781 11.152344 L 224.761719 11.152344 L 224.761719 63.847656 L 24.050781 63.847656 Z M 24.050781 11.152344 " clip-rule="nonzero"/></clipPath><clipPath id="b6dd00571b"><path d="M 45.789062 11.152344 L 203.140625 11.152344 C 208.90625 11.152344 214.4375 13.441406 218.511719 17.519531 C 222.589844 21.59375 224.878906 27.125 224.878906 32.890625 L 224.878906 42.109375 C 224.878906 47.875 222.589844 53.40625 218.511719 57.480469 C 214.4375 61.558594 208.90625 63.847656 203.140625 63.847656 L 45.789062 63.847656 C 40.023438 63.847656 34.496094 61.558594 30.417969 57.480469 C 26.339844 53.40625 24.050781 47.875 24.050781 42.109375 L 24.050781 32.890625 C 24.050781 27.125 26.339844 21.59375 30.417969 17.519531 C 34.496094 13.441406 40.023438 11.152344 45.789062 11.152344 Z M 45.789062 11.152344 " clip-rule="nonzero"/></clipPath><clipPath id="f87ad9e86c"><path d="M 24.054688 11.152344 L 224.761719 11.152344 L 224.761719 63.625 L 24.054688 63.625 Z M 24.054688 11.152344 " clip-rule="nonzero"/></clipPath><clipPath id="486e18ec4c"><path d="M 45.789062 11.152344 L 203.132812 11.152344 C 208.898438 11.152344 214.425781 13.441406 218.503906 17.519531 C 222.582031 21.59375 224.871094 27.125 224.871094 32.886719 L 224.871094 42.109375 C 224.871094 47.875 222.582031 53.402344 218.503906 57.480469 C 214.425781 61.554688 208.898438 63.84375 203.132812 63.84375 L 45.789062 63.84375 C 40.023438 63.84375 34.496094 61.554688 30.417969 57.480469 C 26.34375 53.402344 24.054688 47.875 24.054688 42.109375 L 24.054688 32.886719 C 24.054688 27.125 26.34375 21.59375 30.417969 17.519531 C 34.496094 13.441406 40.023438 11.152344 45.789062 11.152344 Z M 45.789062 11.152344 " clip-rule="nonzero"/></clipPath><clipPath id="ca555cc100"><path d="M 0 1.851562 L 71.128906 1.851562 L 71.128906 73.0625 L 0 73.0625 Z M 0 1.851562 " clip-rule="nonzero"/></clipPath></defs><g clip-path="url(#50d9e9fc53)"><g clip-path="url(#b6dd00571b)"><path fill="#d9d9d9" d="M 24.050781 11.152344 L 224.960938 11.152344 L 224.960938 63.847656 L 24.050781 63.847656 Z M 24.050781 11.152344 " fill-opacity="1" fill-rule="nonzero"/></g></g><g clip-path="url(#f87ad9e86c)"><g clip-path="url(#486e18ec4c)"><path stroke-linecap="butt" transform="matrix(0.7496, 0, 0, 0.7496, 24.053238, 11.151148)" fill="none" stroke-linejoin="miter" d="M 28.996565 0.00159483 L 238.900185 0.00159483 C 246.591787 0.00159483 253.965511 3.055307 259.405913 8.495709 C 264.846315 13.930899 267.900027 21.309835 267.900027 28.996226 L 267.900027 41.299663 C 267.900027 48.991265 264.846315 56.36499 259.405913 61.805392 C 253.965511 67.240582 246.591787 70.294294 238.900185 70.294294 L 28.996565 70.294294 C 21.304962 70.294294 13.931238 67.240582 8.490836 61.805392 C 3.055646 56.36499 0.00193363 48.991265 0.00193363 41.299663 L 0.00193363 28.996226 C 0.00193363 21.309835 3.055646 13.930899 8.490836 8.495709 C 13.931238 3.055307 21.304962 0.00159483 28.996565 0.00159483 Z M 28.996565 0.00159483 " stroke="#d9d9d9" stroke-width="2" stroke-opacity="1" stroke-miterlimit="4"/></g></g><g fill="#000000" fill-opacity="1"><g transform="translate(105.164925, 44.971803)"><g><path d="M 1.664062 -0.660156 L 1.890625 -0.226562 L 2.390625 0 L 3.984375 0.0664062 L 5.125 -0.0234375 L 5.601562 -0.226562 L 5.875 -0.910156 L 5.804688 -1.640625 L 5.851562 -2.070312 L 5.828125 -4.484375 L 6.035156 -4.941406 L 6.488281 -5.144531 L 6.992188 -5.191406 L 7.46875 -5.101562 L 7.925781 -5.191406 L 8.378906 -5.144531 L 8.859375 -5.167969 L 9.3125 -5.125 L 10.246094 -5.167969 L 10.722656 -5.394531 L 10.953125 -6.101562 L 10.929688 -8.128906 L 10.703125 -8.585938 L 10.222656 -8.765625 L 9.109375 -8.8125 L 7.902344 -8.722656 L 7.011719 -8.835938 L 6.511719 -8.8125 L 6.058594 -8.992188 L 5.804688 -9.472656 L 5.804688 -10.109375 L 5.851562 -10.542969 L 5.804688 -11.566406 L 6.035156 -12.023438 L 6.464844 -12.320312 L 7.195312 -12.320312 L 7.855469 -12.273438 L 8.265625 -12.296875 L 8.722656 -12.273438 L 9.199219 -12.320312 L 10.929688 -12.273438 L 11.386719 -12.5 L 11.613281 -12.957031 L 11.566406 -14.117188 L 11.613281 -14.984375 L 11.339844 -15.664062 L 10.953125 -15.917969 L 9.585938 -15.894531 L 9.085938 -15.960938 L 8.195312 -15.917969 L 7.789062 -15.960938 L 7.105469 -15.917969 L 6.648438 -15.9375 L 5.941406 -15.894531 L 5.054688 -15.894531 L 4.644531 -15.9375 L 3.484375 -15.9375 L 3.003906 -15.894531 L 2.367188 -15.917969 L 1.867188 -15.664062 L 1.730469 -15.253906 L 1.664062 -14.320312 L 1.730469 -13.640625 L 1.640625 -11.089844 L 1.683594 -10.703125 L 1.707031 -10.222656 L 1.664062 -9.8125 L 1.707031 -9.289062 L 1.664062 -8.878906 L 1.640625 -8.449219 L 1.683594 -8.015625 L 1.640625 -7.492188 Z M 1.664062 -0.660156 "/></g></g></g><g fill="#000000" fill-opacity="1"><g transform="translate(117.574011, 44.971803)"><g><path d="M 13.433594 0.046875 L 14.300781 -0.0234375 L 14.730469 0.0234375 L 15.4375 0 L 16.074219 -0.113281 L 16.144531 -0.660156 L 15.984375 -1.183594 L 15.644531 -2.027344 L 15.027344 -3.210938 L 14.710938 -4.054688 L 14.253906 -4.871094 L 13.386719 -6.945312 L 13.160156 -7.285156 L 12.933594 -7.71875 L 12.796875 -8.21875 L 12.589844 -8.5625 L 12.457031 -8.925781 L 11.976562 -9.769531 L 11.816406 -10.246094 L 10.316406 -13.410156 L 10.179688 -13.867188 L 9.925781 -14.277344 L 9.789062 -14.6875 L 9.359375 -15.484375 L 8.972656 -15.894531 L 8.21875 -16.121094 L 7.492188 -15.871094 L 7.082031 -15.484375 L 6.875 -15.097656 L 6.71875 -14.640625 L 6.511719 -14.320312 L 5.601562 -12.226562 L 5.351562 -11.886719 L 5.238281 -11.429688 L 4.988281 -10.996094 L 4.851562 -10.589844 L 2.527344 -5.714844 L 2.390625 -5.214844 L 2.164062 -4.871094 L 2.003906 -4.417969 L 1.59375 -3.6875 L 1.253906 -2.777344 L 1 -2.460938 L 0.886719 -2.050781 L 0.433594 -1.136719 L 0.296875 -0.683594 L 0.410156 -0.113281 L 0.867188 0.0234375 L 1.753906 -0.0234375 L 2.207031 0.0234375 L 3.484375 -0.0234375 L 4.007812 -0.183594 L 4.441406 -0.59375 L 4.851562 -1.34375 L 5.28125 -1.777344 L 5.761719 -2.027344 L 6.195312 -1.957031 L 7.148438 -2.050781 L 7.558594 -1.980469 L 9.789062 -2.003906 L 10.199219 -1.957031 L 10.703125 -2.027344 L 11.203125 -1.777344 L 11.636719 -1.410156 L 11.839844 -0.980469 L 11.976562 -0.570312 L 12.433594 -0.226562 L 12.957031 0 Z M 8.265625 -5.625 L 7.808594 -5.714844 L 7.285156 -5.667969 L 6.921875 -5.828125 L 6.898438 -6.261719 L 7.96875 -8.722656 L 8.21875 -8.925781 L 8.539062 -8.742188 L 9.609375 -6.238281 L 9.519531 -5.828125 L 9.175781 -5.648438 Z M 8.265625 -5.625 "/></g></g></g><g fill="#000000" fill-opacity="1"><g transform="translate(134.104278, 44.971803)"><g><path d="M 1.730469 -0.820312 L 1.890625 -0.226562 L 2.324219 0 L 2.777344 0.046875 L 3.734375 -0.0234375 L 4.621094 0.0234375 L 5.488281 -0.0234375 L 5.921875 0.046875 L 6.421875 0 L 10.929688 0.0234375 L 11.363281 -0.203125 L 11.613281 -0.910156 L 11.589844 -2.753906 L 11.386719 -3.4375 L 10.976562 -3.710938 L 10.496094 -3.664062 L 10.0625 -3.574219 L 9.585938 -3.644531 L 8.652344 -3.621094 L 8.195312 -3.710938 L 7.789062 -3.644531 L 6.898438 -3.6875 L 6.421875 -3.644531 L 5.964844 -3.824219 L 5.785156 -4.28125 L 5.804688 -12 L 5.761719 -12.546875 L 5.804688 -13.457031 L 5.738281 -14.753906 L 5.761719 -15.1875 L 5.53125 -15.6875 L 5.078125 -15.960938 L 4.191406 -15.960938 L 3.734375 -15.871094 L 2.824219 -15.960938 L 2.390625 -15.894531 L 1.914062 -15.710938 L 1.707031 -15.210938 L 1.707031 -12.023438 L 1.664062 -11.589844 L 1.707031 -11.132812 L 1.640625 -10.292969 L 1.664062 -9.789062 L 1.707031 -9.359375 Z M 1.730469 -0.820312 "/></g></g></g><g fill="#000000" fill-opacity="1"><g transform="translate(146.353982, 44.971803)"><g><path d="M 6.125 0.203125 L 7.925781 0.25 L 8.378906 0.203125 L 8.835938 0.0898438 L 9.289062 0.0234375 L 9.746094 -0.160156 L 10.15625 -0.203125 L 10.589844 -0.410156 L 12.136719 -1.34375 L 12.796875 -2.027344 L 13.023438 -2.34375 L 13.273438 -2.847656 L 13.410156 -3.257812 L 13.546875 -3.644531 L 13.683594 -4.78125 L 13.640625 -5.511719 L 13.296875 -6.832031 L 13.046875 -7.195312 L 12.457031 -7.878906 L 12.046875 -8.242188 L 11.679688 -8.425781 L 11.269531 -8.675781 L 9.496094 -9.222656 L 9.039062 -9.289062 L 8.585938 -9.3125 L 8.105469 -9.402344 L 7.445312 -9.402344 L 6.238281 -9.65625 L 5.394531 -10.0625 L 5.054688 -10.382812 L 4.964844 -11.066406 L 5.078125 -11.679688 L 5.351562 -11.976562 L 5.691406 -12.226562 L 6.058594 -12.433594 L 6.464844 -12.523438 L 7.195312 -12.546875 L 7.925781 -12.457031 L 8.332031 -12.339844 L 8.742188 -12.066406 L 9.128906 -11.75 L 9.472656 -11.292969 L 9.972656 -10.996094 L 11.042969 -11.089844 L 11.65625 -11.042969 L 12.113281 -11.042969 L 12.523438 -10.996094 L 12.957031 -11.316406 L 13.136719 -11.703125 L 13.046875 -12.136719 L 13 -12.570312 L 12.363281 -13.753906 L 11.863281 -14.4375 L 10.359375 -15.484375 L 9.085938 -15.917969 L 8.195312 -16.097656 L 6.445312 -16.144531 L 5.941406 -16.007812 L 5.488281 -15.984375 L 5.078125 -15.917969 L 4.210938 -15.644531 L 3.4375 -15.1875 L 2.34375 -14.4375 L 1.546875 -13.367188 L 1.136719 -12.113281 L 1.070312 -10.996094 L 1.09375 -10.292969 L 1.253906 -9.382812 L 1.617188 -8.585938 L 2.460938 -7.535156 L 4.007812 -6.695312 L 4.828125 -6.421875 L 8.402344 -6.011719 L 9.222656 -5.625 L 9.519531 -5.351562 L 9.65625 -4.78125 L 9.472656 -4.210938 L 9.175781 -3.871094 L 8.402344 -3.53125 L 7.695312 -3.484375 L 7.285156 -3.414062 L 6.125 -3.53125 L 5.738281 -3.734375 L 5.351562 -3.984375 L 4.597656 -4.804688 L 4.144531 -4.988281 L 3.734375 -4.941406 L 3.300781 -5.007812 L 1.546875 -4.917969 L 1.136719 -4.734375 L 0.957031 -4.257812 L 1.023438 -3.800781 L 1.117188 -3.347656 L 1.253906 -2.9375 L 1.683594 -2.09375 L 2.003906 -1.796875 L 2.300781 -1.457031 L 3.097656 -0.957031 L 3.414062 -0.613281 L 3.847656 -0.410156 L 4.304688 -0.273438 L 5.191406 0.046875 Z M 6.125 0.203125 "/></g></g></g><g fill="#000000" fill-opacity="1"><g transform="translate(160.880579, 44.971803)"><g><path d="M 9.128906 0.296875 L 11.15625 0.0898438 L 12.023438 -0.183594 L 14.050781 -1.09375 L 15.644531 -2.617188 L 15.9375 -3.027344 L 16.828125 -4.597656 L 16.984375 -5.03125 L 17.054688 -5.488281 L 17.191406 -5.851562 L 17.28125 -6.351562 L 17.394531 -7.945312 L 17.28125 -9.519531 L 17.101562 -10.359375 L 16.917969 -10.839844 L 16.804688 -11.363281 L 16.394531 -12.113281 L 16.234375 -12.523438 L 15.9375 -12.910156 L 15.664062 -13.183594 L 15.371094 -13.59375 L 14.390625 -14.480469 L 13.230469 -15.210938 L 10.246094 -16.144531 L 9.175781 -16.167969 L 7.582031 -16.074219 L 7.125 -15.984375 L 6.671875 -15.847656 L 6.261719 -15.664062 L 5.394531 -15.4375 L 4.234375 -14.710938 L 3.917969 -14.4375 L 3.1875 -13.933594 L 2.574219 -13.253906 L 1.796875 -12.113281 L 1.59375 -11.726562 L 1.160156 -10.472656 L 0.980469 -9.496094 L 0.886719 -6.855469 L 1.136719 -5.417969 L 1.480469 -4.644531 L 1.617188 -4.167969 L 1.84375 -3.757812 L 2.914062 -2.300781 L 3.550781 -1.683594 L 3.847656 -1.34375 L 5.394531 -0.523438 L 5.828125 -0.339844 L 7.765625 0.226562 Z M 8.492188 -3.710938 L 8.039062 -3.871094 L 7.628906 -3.917969 L 6.855469 -4.328125 L 6.148438 -4.941406 L 5.921875 -5.261719 L 5.625 -5.578125 L 5.191406 -6.855469 L 5.078125 -7.992188 L 5.101562 -8.675781 L 5.261719 -9.519531 L 5.394531 -9.925781 L 5.667969 -10.246094 L 5.875 -10.632812 L 6.171875 -10.996094 L 6.511719 -11.292969 L 7.171875 -11.75 L 7.582031 -11.953125 L 8.058594 -12.066406 L 9.109375 -12.160156 L 10.199219 -12.089844 L 11.40625 -11.566406 L 12.113281 -11.042969 L 12.636719 -10.269531 L 12.820312 -9.859375 L 12.957031 -9.402344 L 13.117188 -8.992188 L 13.207031 -8.015625 L 13.070312 -6.875 L 12.863281 -5.941406 L 12.613281 -5.601562 L 12.410156 -5.261719 L 12.136719 -4.851562 L 11.429688 -4.304688 L 11.019531 -4.121094 L 10.65625 -3.917969 L 10.246094 -3.871094 L 9.8125 -3.757812 Z M 8.492188 -3.710938 "/></g></g></g><g clip-path="url(#ca555cc100)"><path fill="#231f20" d="M 0 37.496094 C 0 17.855469 15.921875 1.933594 35.566406 1.933594 C 55.207031 1.933594 71.128906 17.855469 71.128906 37.496094 C 71.128906 57.140625 55.207031 73.0625 35.566406 73.0625 C 15.921875 73.0625 0 57.140625 0 37.496094 Z M 0 37.496094 " fill-opacity="1" fill-rule="nonzero"/></g><path fill="#fed19a" d="M 47.339844 40.800781 L 46.242188 40.800781 C 45.722656 40.796875 45.253906 41.117188 45.0625 41.601562 C 44.644531 42.679688 43.257812 44.839844 38.667969 48 C 34.925781 50.5625 32.40625 54.546875 31.699219 59.023438 C 31.492188 60.414062 30.300781 61.445312 28.890625 61.449219 L 28.863281 61.449219 C 27.324219 61.449219 26.058594 60.238281 25.992188 58.699219 C 25.855469 55.546875 26.179688 50.402344 29.226562 47.214844 L 15.988281 47.214844 C 14.21875 47.214844 12.78125 45.78125 12.78125 44.007812 C 12.78125 43.160156 13.117188 42.34375 13.71875 41.742188 C 14.324219 41.140625 15.136719 40.800781 15.988281 40.800781 L 16.914062 40.746094 C 16.984375 40.742188 17.039062 40.683594 17.039062 40.613281 C 17.039062 40.539062 16.980469 40.480469 16.90625 40.480469 L 16.773438 40.480469 C 15.777344 40.484375 14.832031 40.023438 14.230469 39.230469 C 13.625 38.433594 13.429688 37.402344 13.703125 36.445312 C 14.113281 35.273438 15.125 34.417969 16.34375 34.203125 C 16.34375 34.203125 14.136719 33.535156 14.265625 30.640625 C 14.351562 28.648438 17.308594 28.296875 17.308594 28.296875 C 17.308594 28.296875 12.996094 23.066406 20.8125 20.910156 C 28.632812 18.753906 36.503906 20.078125 36.503906 20.078125 L 47.015625 21.175781 Z M 47.339844 40.800781 " fill-opacity="1" fill-rule="nonzero"/><path fill="#ffffff" d="M 49.847656 20.652344 L 46.429688 20.652344 L 46.429688 41.46875 L 49.847656 41.46875 Z M 49.847656 20.652344 " fill-opacity="1" fill-rule="nonzero"/><path fill="#575b6d" d="M 57.238281 43.78125 L 50.417969 43.78125 C 49.804688 43.78125 49.308594 43.289062 49.308594 42.671875 L 49.308594 19.101562 C 49.308594 18.488281 49.804688 17.992188 50.417969 17.992188 L 57.238281 17.992188 C 57.851562 17.992188 58.347656 18.488281 58.347656 19.101562 L 58.347656 42.671875 C 58.347656 43.289062 57.851562 43.78125 57.238281 43.78125 Z M 57.238281 43.78125 " fill-opacity="1" fill-rule="nonzero"/><path fill="#eeefee" d="M 51.996094 38.996094 C 51.996094 37.984375 52.816406 37.164062 53.828125 37.164062 C 54.839844 37.164062 55.660156 37.984375 55.660156 38.996094 C 55.660156 40.007812 54.839844 40.828125 53.828125 40.828125 C 52.816406 40.828125 51.996094 40.007812 51.996094 38.996094 Z M 51.996094 38.996094 " fill-opacity="1" fill-rule="nonzero"/></svg>