<svg xmlns="http://www.w3.org/2000/svg" xmlns:xlink="http://www.w3.org/1999/xlink" width="100" zoomAndPan="magnify" viewBox="0 0 75 89.999999" height="120" preserveAspectRatio="xMidYMid meet" version="1.0"><defs><g/><clipPath id="8bd187f2a5"><path d="M 10.996094 4.628906 L 64.003906 4.628906 L 64.003906 57.632812 L 10.996094 57.632812 Z M 10.996094 4.628906 " clip-rule="nonzero"/></clipPath><clipPath id="9153d8f8c2"><path d="M 37.5 4.628906 C 22.863281 4.628906 10.996094 16.496094 10.996094 31.132812 C 10.996094 45.769531 22.863281 57.632812 37.5 57.632812 C 52.136719 57.632812 64.003906 45.769531 64.003906 31.132812 C 64.003906 16.496094 52.136719 4.628906 37.5 4.628906 Z M 37.5 4.628906 " clip-rule="nonzero"/></clipPath></defs><g clip-path="url(#8bd187f2a5)"><g clip-path="url(#9153d8f8c2)"><path fill="#0097b2" d="M 10.996094 4.628906 L 64.003906 4.628906 L 64.003906 57.632812 L 10.996094 57.632812 Z M 10.996094 4.628906 " fill-opacity="1" fill-rule="nonzero"/></g></g><g fill="#000000" fill-opacity="1"><g transform="translate(23.530237, 47.12843)"><g><path d="M 9.746094 -12.789062 L 10.203125 -11.722656 L 11.066406 -11.269531 L 15.074219 -11.167969 L 16.140625 -11.320312 L 17.105469 -11.371094 L 18.121094 -11.773438 L 18.78125 -12.789062 L 19.640625 -14.667969 L 20.148438 -15.53125 L 20.859375 -16.191406 L 22.230469 -17.714844 L 22.839844 -18.628906 L 23.398438 -19.285156 L 25.074219 -21.976562 L 25.582031 -24.058594 L 25.53125 -27 L 25.378906 -28.015625 L 24.769531 -30.046875 L 24.210938 -31.011719 L 22.992188 -32.585938 L 22.128906 -33.398438 L 21.316406 -33.90625 L 20.453125 -34.3125 L 19.539062 -34.816406 L 17.664062 -35.527344 L 16.546875 -35.628906 L 15.582031 -35.933594 L 14.007812 -36.085938 L 11.371094 -35.78125 L 10.457031 -35.476562 L 9.441406 -35.324219 L 8.425781 -34.816406 L 7.5625 -34.3125 L 6.648438 -33.957031 L 5.988281 -33.296875 L 5.226562 -32.636719 L 4.464844 -31.824219 L 2.792969 -28.015625 L 2.691406 -27 L 2.4375 -25.9375 L 2.84375 -24.972656 L 3.808594 -24.464844 L 4.769531 -24.566406 L 6.191406 -24.464844 L 7.765625 -24.566406 L 8.628906 -24.414062 L 9.695312 -24.921875 L 10.8125 -26.75 L 11.523438 -27.304688 L 12.28125 -27.761719 L 13.703125 -27.863281 L 15.328125 -27.660156 L 16.140625 -27.304688 L 16.75 -26.394531 L 16.851562 -24.972656 L 16.851562 -23.5 L 16.496094 -22.585938 L 11.269531 -16.445312 L 10.710938 -15.53125 L 10.253906 -14.566406 Z M 9.085938 -4.871094 L 9.136719 -3.046875 L 9.289062 -2.488281 L 9.542969 -1.929688 L 9.847656 -1.523438 L 10.40625 -1.066406 L 10.660156 -0.660156 L 11.824219 0 L 12.28125 0.152344 L 12.941406 0.304688 L 14.71875 0.355469 L 15.277344 0.203125 L 15.785156 0.203125 L 16.34375 0 L 17.003906 -0.40625 L 17.410156 -0.609375 L 17.867188 -1.015625 L 18.324219 -1.523438 L 18.679688 -2.03125 L 19.136719 -3.605469 L 19.1875 -4.769531 L 18.984375 -5.378906 L 18.882812 -5.9375 L 18.578125 -6.597656 L 18.222656 -7.105469 L 17.867188 -7.410156 L 17.511719 -7.917969 L 16.953125 -8.222656 L 16.496094 -8.527344 L 15.886719 -8.628906 L 15.226562 -8.882812 L 14.667969 -8.933594 L 13.5 -8.882812 L 12.382812 -8.679688 L 11.722656 -8.476562 L 11.320312 -8.273438 L 10.304688 -7.410156 L 9.492188 -6.546875 L 9.339844 -6.039062 L 9.085938 -5.480469 Z M 9.085938 -4.871094 "/></g></g></g><g fill="#000000" fill-opacity="1"><g transform="translate(7.397879, 84.003601)"><g><path d="M 6.945312 0.0664062 L 7.621094 0.0664062 L 8.320312 -0.0234375 L 8.769531 -0.0234375 L 9.425781 -0.226562 L 10.347656 -0.382812 L 11.410156 -0.835938 L 12.917969 -1.847656 L 14.023438 -3.269531 L 14.25 -3.71875 L 14.519531 -4.082031 L 14.878906 -4.960938 L 14.992188 -5.386719 L 15.082031 -5.863281 L 15.21875 -6.246094 L 15.285156 -6.695312 L 15.285156 -7.167969 L 15.355469 -7.890625 L 15.332031 -8.546875 L 15.015625 -10.328125 L 14.722656 -11.183594 L 14.542969 -11.613281 L 13.777344 -12.804688 L 12.582031 -14.136719 L 11.429688 -14.902344 L 11.003906 -15.152344 L 10.550781 -15.242188 L 10.167969 -15.421875 L 9.695312 -15.535156 L 8.363281 -15.738281 L 3.222656 -15.78125 L 2.816406 -15.714844 L 2.367188 -15.738281 L 1.871094 -15.535156 L 1.667969 -15.0625 L 1.644531 -2.457031 L 1.691406 -2.027344 L 1.691406 -0.878906 L 1.917969 -0.179688 L 2.367188 0.046875 L 2.816406 0 L 5.570312 0.046875 L 6.019531 -0.0234375 Z M 6.875 -3.628906 L 6.449219 -3.675781 L 5.929688 -3.921875 L 5.75 -4.351562 L 5.726562 -4.734375 L 5.75 -5.660156 L 5.660156 -6.765625 L 5.75 -7.890625 L 5.703125 -11.003906 L 5.75 -11.386719 L 5.976562 -11.90625 L 6.695312 -12.0625 L 7.644531 -12.085938 L 8.296875 -12.015625 L 9.175781 -11.769531 L 9.582031 -11.566406 L 9.921875 -11.316406 L 10.257812 -11.003906 L 10.597656 -10.597656 L 10.824219 -10.214844 L 11.023438 -9.808594 L 11.386719 -7.824219 L 11.160156 -6.246094 L 10.777344 -5.410156 L 9.941406 -4.464844 L 9.175781 -3.96875 L 8.523438 -3.765625 L 7.554688 -3.652344 Z M 6.875 -3.628906 "/></g></g></g><g fill="#000000" fill-opacity="1"><g transform="translate(23.786275, 84.003601)"><g><path d="M 7.554688 0.0898438 L 8.453125 0.046875 L 8.859375 -0.179688 L 9.085938 -0.609375 L 9.085938 -2.839844 L 8.816406 -3.269531 L 8.320312 -3.515625 L 7.847656 -3.515625 L 7.304688 -3.699219 L 7.035156 -4.214844 L 7.101562 -4.644531 L 7.078125 -7.125 L 7.125 -7.621094 L 7.035156 -9.242188 L 7.125 -11.519531 L 7.28125 -12.039062 L 7.777344 -12.242188 L 8.230469 -12.308594 L 8.703125 -12.492188 L 8.929688 -12.851562 L 8.949219 -15.082031 L 8.679688 -15.511719 L 8.273438 -15.761719 L 5.546875 -15.761719 L 5.140625 -15.804688 L 4.691406 -15.714844 L 2.839844 -15.714844 L 2.414062 -15.78125 L 1.894531 -15.78125 L 1.441406 -15.558594 L 1.21875 -15.015625 L 1.285156 -13.347656 L 1.238281 -12.917969 L 1.488281 -12.46875 L 1.984375 -12.21875 L 2.433594 -12.21875 L 2.863281 -11.949219 L 3.066406 -11.339844 L 3.132812 -4.417969 L 2.886719 -3.742188 L 1.398438 -3.292969 L 1.148438 -2.886719 L 1.082031 -0.8125 L 1.308594 -0.203125 L 1.757812 0 L 2.1875 0 L 2.617188 -0.046875 L 3.269531 0.046875 L 3.96875 0.0234375 L 4.417969 -0.0234375 L 5.320312 0.0664062 L 5.996094 -0.0234375 L 7.101562 -0.0234375 Z M 7.554688 0.0898438 "/></g></g></g><g fill="#000000" fill-opacity="1"><g transform="translate(34.020565, 84.003601)"><g><path d="M 7.847656 0.179688 L 8.972656 0.269531 L 10.550781 0.15625 L 11.882812 -0.113281 L 12.289062 -0.339844 L 12.761719 -0.496094 L 13.144531 -0.675781 L 14.25 -1.464844 L 14.878906 -2.097656 L 15.398438 -2.773438 L 15.871094 -3.585938 L 16.457031 -5.296875 L 16.324219 -5.703125 L 15.871094 -5.996094 L 14.609375 -5.90625 L 14.160156 -5.976562 L 13.707031 -5.953125 L 13.257812 -5.976562 L 12.738281 -5.703125 L 12.378906 -5.34375 L 12.152344 -4.914062 L 11.632812 -4.328125 L 11.273438 -4.011719 L 10.933594 -3.878906 L 10.144531 -3.449219 L 8.949219 -3.382812 L 8.296875 -3.449219 L 7.484375 -3.742188 L 6.695312 -4.148438 L 6.042969 -4.734375 L 5.546875 -5.523438 L 5.386719 -5.976562 L 5.230469 -6.289062 L 5.117188 -6.695312 L 5.050781 -7.191406 L 5.050781 -8.566406 L 5.207031 -9.46875 L 5.546875 -10.28125 L 5.773438 -10.710938 L 6.3125 -11.339844 L 6.855469 -11.769531 L 7.460938 -12.109375 L 8.972656 -12.308594 L 9.941406 -12.265625 L 10.640625 -12.0625 L 11.046875 -11.90625 L 11.363281 -11.65625 L 12.015625 -11.003906 L 12.265625 -10.664062 L 12.695312 -10.234375 L 13.210938 -9.988281 L 13.617188 -10.03125 L 14.089844 -10.011719 L 14.542969 -10.03125 L 15.171875 -9.964844 L 15.851562 -10.03125 L 16.234375 -10.214844 L 16.390625 -10.664062 L 16.257812 -11.160156 L 16.097656 -11.566406 L 15.960938 -12.039062 L 15.714844 -12.402344 L 15.511719 -12.761719 L 15.195312 -13.144531 L 14.949219 -13.574219 L 14.316406 -14.226562 L 12.785156 -15.195312 L 10.621094 -15.917969 L 10.191406 -15.941406 L 9.738281 -16.007812 L 8.34375 -16.03125 L 6.15625 -15.601562 L 4.488281 -14.8125 L 3.832031 -14.316406 L 2.863281 -13.4375 L 2.253906 -12.671875 L 1.828125 -12.015625 L 1.261719 -10.753906 L 1.039062 -9.832031 L 0.8125 -7.890625 L 0.945312 -6.246094 L 1.261719 -4.960938 L 2.230469 -3 L 3.15625 -2.007812 L 4.171875 -1.128906 L 5.140625 -0.609375 L 6.15625 -0.179688 L 6.5625 -0.0898438 L 7.011719 0.0664062 L 7.417969 0.15625 Z M 7.847656 0.179688 "/></g></g></g><g fill="#000000" fill-opacity="1"><g transform="translate(51.220486, 84.003601)"><g><path d="M 13.300781 0.046875 L 14.160156 -0.0234375 L 14.585938 0.0234375 L 15.285156 0 L 15.917969 -0.113281 L 15.984375 -0.652344 L 15.828125 -1.171875 L 15.488281 -2.007812 L 14.878906 -3.179688 L 14.566406 -4.011719 L 14.113281 -4.824219 L 13.257812 -6.875 L 13.03125 -7.214844 L 12.804688 -7.644531 L 12.671875 -8.140625 L 12.46875 -8.476562 L 12.332031 -8.839844 L 11.859375 -9.671875 L 11.703125 -10.144531 L 10.214844 -13.28125 L 10.078125 -13.730469 L 9.832031 -14.136719 L 9.695312 -14.542969 L 9.265625 -15.332031 L 8.882812 -15.738281 L 8.140625 -15.960938 L 7.417969 -15.714844 L 7.011719 -15.332031 L 6.808594 -14.949219 L 6.652344 -14.496094 L 6.449219 -14.183594 L 5.546875 -12.109375 L 5.296875 -11.769531 L 5.1875 -11.316406 L 4.9375 -10.890625 L 4.800781 -10.484375 L 2.503906 -5.660156 L 2.367188 -5.164062 L 2.140625 -4.824219 L 1.984375 -4.375 L 1.578125 -3.652344 L 1.238281 -2.75 L 0.992188 -2.433594 L 0.878906 -2.027344 L 0.429688 -1.128906 L 0.292969 -0.675781 L 0.40625 -0.113281 L 0.855469 0.0234375 L 1.734375 -0.0234375 L 2.1875 0.0234375 L 3.449219 -0.0234375 L 3.96875 -0.179688 L 4.398438 -0.585938 L 4.800781 -1.332031 L 5.230469 -1.757812 L 5.703125 -2.007812 L 6.132812 -1.9375 L 7.078125 -2.027344 L 7.484375 -1.960938 L 9.695312 -1.984375 L 10.101562 -1.9375 L 10.597656 -2.007812 L 11.09375 -1.757812 L 11.519531 -1.398438 L 11.722656 -0.96875 L 11.859375 -0.5625 L 12.308594 -0.226562 L 12.828125 0 Z M 8.183594 -5.570312 L 7.734375 -5.660156 L 7.214844 -5.613281 L 6.855469 -5.773438 L 6.832031 -6.199219 L 7.890625 -8.636719 L 8.140625 -8.839844 L 8.453125 -8.65625 L 9.515625 -6.175781 L 9.425781 -5.773438 L 9.085938 -5.589844 Z M 8.183594 -5.570312 "/></g></g></g></svg>