<svg xmlns="http://www.w3.org/2000/svg" xmlns:xlink="http://www.w3.org/1999/xlink" width="100" zoomAndPan="magnify" viewBox="0 0 75 89.999999" height="120" preserveAspectRatio="xMidYMid meet" version="1.0"><defs><g/><clipPath id="628b35f59e"><path d="M 17.464844 0 L 57.316406 0 L 57.316406 39.851562 L 17.464844 39.851562 Z M 17.464844 0 " clip-rule="nonzero"/></clipPath><clipPath id="0b01715e84"><path d="M 37.390625 0 C 26.382812 0 17.464844 8.921875 17.464844 19.925781 C 17.464844 30.929688 26.382812 39.851562 37.390625 39.851562 C 48.394531 39.851562 57.316406 30.929688 57.316406 19.925781 C 57.316406 8.921875 48.394531 0 37.390625 0 Z M 37.390625 0 " clip-rule="nonzero"/></clipPath><clipPath id="262fbed0f3"><path d="M 31 10 L 44.914062 10 L 44.914062 30 L 31 30 Z M 31 10 " clip-rule="nonzero"/></clipPath></defs><g clip-path="url(#628b35f59e)"><g clip-path="url(#0b01715e84)"><path fill="#f47208" d="M 17.464844 0 L 57.316406 0 L 57.316406 39.851562 L 17.464844 39.851562 Z M 17.464844 0 " fill-opacity="1" fill-rule="nonzero"/></g></g><g clip-path="url(#262fbed0f3)"><path fill="#000000" d="M 44.914062 20.046875 L 35.621094 10.726562 C 33.828125 8.925781 30.140625 12.257812 32.304688 14.351562 L 38.179688 20.046875 L 32.113281 25.648438 C 30.265625 27.355469 33.6875 30.855469 35.527344 29.085938 Z M 44.914062 20.046875 " fill-opacity="1" fill-rule="nonzero"/></g><g fill="#000000" fill-opacity="1"><g transform="translate(10.34329, 70.328228)"><g><path d="M 4.558594 0.152344 L 5.898438 0.1875 L 6.238281 0.152344 L 6.578125 0.0664062 L 6.917969 0.015625 L 7.253906 -0.117188 L 7.5625 -0.152344 L 7.882812 -0.304688 L 9.035156 -1 L 9.527344 -1.507812 L 9.695312 -1.746094 L 9.882812 -2.117188 L 9.984375 -2.425781 L 10.085938 -2.710938 L 10.1875 -3.558594 L 10.152344 -4.101562 L 9.898438 -5.085938 L 9.714844 -5.355469 L 9.273438 -5.867188 L 8.96875 -6.136719 L 8.695312 -6.273438 L 8.390625 -6.457031 L 7.070312 -6.867188 L 6.730469 -6.917969 L 6.390625 -6.933594 L 6.035156 -7 L 5.542969 -7 L 4.644531 -7.1875 L 4.019531 -7.492188 L 3.761719 -7.730469 L 3.695312 -8.238281 L 3.78125 -8.695312 L 3.984375 -8.917969 L 4.238281 -9.101562 L 4.507812 -9.253906 L 4.8125 -9.324219 L 5.355469 -9.339844 L 5.898438 -9.273438 L 6.203125 -9.1875 L 6.507812 -8.984375 L 6.796875 -8.746094 L 7.050781 -8.40625 L 7.425781 -8.1875 L 8.222656 -8.253906 L 8.679688 -8.222656 L 9.019531 -8.222656 L 9.324219 -8.1875 L 9.644531 -8.425781 L 9.78125 -8.714844 L 9.714844 -9.035156 L 9.679688 -9.359375 L 9.203125 -10.238281 L 8.832031 -10.746094 L 7.714844 -11.527344 L 6.765625 -11.847656 L 6.101562 -11.984375 L 4.796875 -12.019531 L 4.425781 -11.917969 L 4.085938 -11.898438 L 3.78125 -11.847656 L 3.136719 -11.644531 L 2.558594 -11.308594 L 1.746094 -10.746094 L 1.152344 -9.949219 L 0.847656 -9.019531 L 0.796875 -8.1875 L 0.8125 -7.664062 L 0.933594 -6.984375 L 1.203125 -6.390625 L 1.832031 -5.609375 L 2.984375 -4.984375 L 3.59375 -4.78125 L 6.253906 -4.476562 L 6.867188 -4.1875 L 7.085938 -3.984375 L 7.1875 -3.558594 L 7.050781 -3.136719 L 6.832031 -2.882812 L 6.253906 -2.628906 L 5.730469 -2.59375 L 5.425781 -2.542969 L 4.558594 -2.628906 L 4.273438 -2.78125 L 3.984375 -2.964844 L 3.425781 -3.578125 L 3.085938 -3.710938 L 2.78125 -3.679688 L 2.457031 -3.730469 L 1.152344 -3.660156 L 0.847656 -3.527344 L 0.710938 -3.171875 L 0.761719 -2.832031 L 0.832031 -2.492188 L 0.933594 -2.1875 L 1.253906 -1.558594 L 1.492188 -1.339844 L 1.710938 -1.085938 L 2.304688 -0.710938 L 2.542969 -0.457031 L 2.863281 -0.304688 L 3.203125 -0.203125 L 3.863281 0.0351562 Z M 4.558594 0.152344 "/></g></g></g><g fill="#000000" fill-opacity="1"><g transform="translate(21.15676, 70.328228)"><g><path d="M 10 0.0351562 L 10.644531 -0.015625 L 10.96875 0.015625 L 11.492188 0 L 11.96875 -0.0859375 L 12.019531 -0.492188 L 11.898438 -0.882812 L 11.644531 -1.507812 L 11.1875 -2.390625 L 10.949219 -3.015625 L 10.613281 -3.628906 L 9.96875 -5.171875 L 9.796875 -5.425781 L 9.628906 -5.746094 L 9.527344 -6.121094 L 9.375 -6.375 L 9.273438 -6.644531 L 8.917969 -7.273438 L 8.796875 -7.628906 L 7.679688 -9.984375 L 7.578125 -10.324219 L 7.390625 -10.628906 L 7.289062 -10.933594 L 6.96875 -11.527344 L 6.679688 -11.832031 L 6.121094 -12.003906 L 5.578125 -11.816406 L 5.273438 -11.527344 L 5.121094 -11.238281 L 5 -10.898438 L 4.847656 -10.664062 L 4.171875 -9.101562 L 3.984375 -8.847656 L 3.898438 -8.511719 L 3.710938 -8.1875 L 3.609375 -7.882812 L 1.882812 -4.253906 L 1.78125 -3.882812 L 1.609375 -3.628906 L 1.492188 -3.289062 L 1.1875 -2.746094 L 0.933594 -2.066406 L 0.746094 -1.832031 L 0.660156 -1.527344 L 0.320312 -0.847656 L 0.21875 -0.507812 L 0.304688 -0.0859375 L 0.644531 0.015625 L 1.304688 -0.015625 L 1.644531 0.015625 L 2.59375 -0.015625 L 2.984375 -0.136719 L 3.304688 -0.441406 L 3.609375 -1 L 3.933594 -1.320312 L 4.289062 -1.507812 L 4.609375 -1.457031 L 5.324219 -1.527344 L 5.628906 -1.476562 L 7.289062 -1.492188 L 7.59375 -1.457031 L 7.96875 -1.507812 L 8.339844 -1.320312 L 8.664062 -1.050781 L 8.816406 -0.730469 L 8.917969 -0.421875 L 9.253906 -0.167969 L 9.644531 0 Z M 6.152344 -4.1875 L 5.816406 -4.253906 L 5.425781 -4.222656 L 5.152344 -4.339844 L 5.136719 -4.660156 L 5.933594 -6.492188 L 6.121094 -6.644531 L 6.355469 -6.507812 L 7.152344 -4.644531 L 7.085938 -4.339844 L 6.832031 -4.203125 Z M 6.152344 -4.1875 "/></g></g></g><g fill="#000000" fill-opacity="1"><g transform="translate(33.461742, 70.328228)"><g><path d="M 5.679688 0.0664062 L 6.355469 0.0351562 L 6.664062 -0.136719 L 6.832031 -0.457031 L 6.832031 -2.136719 L 6.628906 -2.457031 L 6.253906 -2.644531 L 5.898438 -2.644531 L 5.492188 -2.78125 L 5.289062 -3.171875 L 5.339844 -3.492188 L 5.324219 -5.355469 L 5.355469 -5.730469 L 5.289062 -6.949219 L 5.355469 -8.664062 L 5.476562 -9.050781 L 5.847656 -9.203125 L 6.1875 -9.253906 L 6.542969 -9.390625 L 6.714844 -9.664062 L 6.730469 -11.339844 L 6.527344 -11.664062 L 6.222656 -11.847656 L 4.171875 -11.847656 L 3.863281 -11.882812 L 3.527344 -11.816406 L 2.136719 -11.816406 L 1.8125 -11.867188 L 1.425781 -11.867188 L 1.085938 -11.695312 L 0.914062 -11.289062 L 0.964844 -10.035156 L 0.933594 -9.714844 L 1.117188 -9.375 L 1.492188 -9.1875 L 1.832031 -9.1875 L 2.152344 -8.984375 L 2.304688 -8.527344 L 2.355469 -3.324219 L 2.167969 -2.8125 L 1.050781 -2.476562 L 0.863281 -2.167969 L 0.8125 -0.609375 L 0.984375 -0.152344 L 1.320312 0 L 1.644531 0 L 1.964844 -0.0351562 L 2.457031 0.0351562 L 2.984375 0.015625 L 3.324219 -0.015625 L 4 0.0507812 L 4.507812 -0.015625 L 5.339844 -0.015625 Z M 5.679688 0.0664062 "/></g></g></g><g fill="#000000" fill-opacity="1"><g transform="translate(41.15659, 70.328228)"><g><path d="M 1.269531 -0.527344 L 1.425781 -0.1875 L 1.746094 0.015625 L 2.304688 -0.0351562 L 2.8125 0.015625 L 5.273438 -0.015625 L 5.609375 0.0351562 L 7.355469 -0.0507812 L 7.664062 -0.101562 L 8.613281 -0.371094 L 8.917969 -0.527344 L 9.59375 -1.066406 L 10.050781 -1.695312 L 10.222656 -2.035156 L 10.324219 -2.355469 L 10.460938 -2.679688 L 10.492188 -4.050781 L 10.308594 -4.660156 L 10 -5.355469 L 9.78125 -5.609375 L 9.511719 -5.847656 L 9.339844 -6.238281 L 9.460938 -6.558594 L 9.78125 -7.222656 L 9.984375 -7.832031 L 10 -8.40625 L 9.96875 -8.933594 L 9.832031 -9.542969 L 9.714844 -9.898438 L 9.152344 -10.679688 L 8.898438 -10.917969 L 8.644531 -11.085938 L 8.40625 -11.273438 L 8.121094 -11.441406 L 7.796875 -11.59375 L 7.507812 -11.695312 L 6.847656 -11.847656 L 5.101562 -11.898438 L 4.796875 -11.832031 L 4.136719 -11.917969 L 3.832031 -11.847656 L 1.78125 -11.882812 L 1.40625 -11.714844 L 1.238281 -11.359375 L 1.238281 -10.984375 L 1.269531 -10.679688 L 1.253906 -10.324219 L 1.269531 -10.019531 L 1.238281 -9.019531 L 1.289062 -8.304688 L 1.21875 -5.070312 L 1.269531 -4.558594 L 1.238281 -0.847656 Z M 4.746094 -7.238281 L 4.390625 -7.441406 L 4.203125 -7.917969 L 4.1875 -8.492188 L 4.390625 -8.984375 L 4.710938 -9.1875 L 6.457031 -9.070312 L 6.730469 -8.933594 L 6.867188 -8.664062 L 6.917969 -8.152344 L 6.796875 -7.664062 L 6.542969 -7.457031 L 6.050781 -7.289062 Z M 4.695312 -2.710938 L 4.390625 -2.832031 L 4.171875 -3.171875 L 4.222656 -4.1875 L 4.375 -4.476562 L 4.660156 -4.695312 L 4.984375 -4.644531 L 5.339844 -4.679688 L 6.933594 -4.527344 L 7.222656 -4.40625 L 7.390625 -4.101562 L 7.492188 -3.679688 L 7.40625 -3.1875 L 7.222656 -2.949219 L 6.933594 -2.761719 L 6 -2.679688 Z M 4.695312 -2.710938 "/></g></g></g><g fill="#000000" fill-opacity="1"><g transform="translate(52.342935, 70.328228)"><g><path d="M 10 0.0351562 L 10.644531 -0.015625 L 10.96875 0.015625 L 11.492188 0 L 11.96875 -0.0859375 L 12.019531 -0.492188 L 11.898438 -0.882812 L 11.644531 -1.507812 L 11.1875 -2.390625 L 10.949219 -3.015625 L 10.613281 -3.628906 L 9.96875 -5.171875 L 9.796875 -5.425781 L 9.628906 -5.746094 L 9.527344 -6.121094 L 9.375 -6.375 L 9.273438 -6.644531 L 8.917969 -7.273438 L 8.796875 -7.628906 L 7.679688 -9.984375 L 7.578125 -10.324219 L 7.390625 -10.628906 L 7.289062 -10.933594 L 6.96875 -11.527344 L 6.679688 -11.832031 L 6.121094 -12.003906 L 5.578125 -11.816406 L 5.273438 -11.527344 L 5.121094 -11.238281 L 5 -10.898438 L 4.847656 -10.664062 L 4.171875 -9.101562 L 3.984375 -8.847656 L 3.898438 -8.511719 L 3.710938 -8.1875 L 3.609375 -7.882812 L 1.882812 -4.253906 L 1.78125 -3.882812 L 1.609375 -3.628906 L 1.492188 -3.289062 L 1.1875 -2.746094 L 0.933594 -2.066406 L 0.746094 -1.832031 L 0.660156 -1.527344 L 0.320312 -0.847656 L 0.21875 -0.507812 L 0.304688 -0.0859375 L 0.644531 0.015625 L 1.304688 -0.015625 L 1.644531 0.015625 L 2.59375 -0.015625 L 2.984375 -0.136719 L 3.304688 -0.441406 L 3.609375 -1 L 3.933594 -1.320312 L 4.289062 -1.507812 L 4.609375 -1.457031 L 5.324219 -1.527344 L 5.628906 -1.476562 L 7.289062 -1.492188 L 7.59375 -1.457031 L 7.96875 -1.507812 L 8.339844 -1.320312 L 8.664062 -1.050781 L 8.816406 -0.730469 L 8.917969 -0.421875 L 9.253906 -0.167969 L 9.644531 0 Z M 6.152344 -4.1875 L 5.816406 -4.253906 L 5.425781 -4.222656 L 5.152344 -4.339844 L 5.136719 -4.660156 L 5.933594 -6.492188 L 6.121094 -6.644531 L 6.355469 -6.507812 L 7.152344 -4.644531 L 7.085938 -4.339844 L 6.832031 -4.203125 Z M 6.152344 -4.1875 "/></g></g></g><g fill="#000000" fill-opacity="1"><g transform="translate(15.007221, 85.491489)"><g><path d="M 1.761719 0.0507812 L 2.101562 0 L 2.761719 0.0351562 L 3.136719 -0.015625 L 3.679688 0.015625 L 4.152344 -0.1875 L 4.355469 -0.492188 L 4.304688 -2.273438 L 4.355469 -2.796875 L 4.339844 -3.152344 L 4.375 -3.761719 L 4.339844 -4.136719 L 4.339844 -4.796875 L 4.492188 -4.949219 L 4.660156 -4.882812 L 4.933594 -4.660156 L 5.136719 -4.40625 L 5.832031 -3.710938 L 6.050781 -3.441406 L 6.507812 -3 L 6.867188 -2.746094 L 7.238281 -2.730469 L 7.578125 -2.984375 L 7.816406 -3.238281 L 8.019531 -3.441406 L 8.492188 -4 L 8.730469 -4.171875 L 9.425781 -4.882812 L 9.644531 -4.984375 L 9.78125 -4.730469 L 9.746094 -3.796875 L 9.796875 -3.121094 L 9.765625 -2.457031 L 9.796875 -1.832031 L 9.765625 -1.527344 L 9.796875 -0.761719 L 9.796875 -0.507812 L 9.933594 -0.117188 L 10.289062 -0.015625 L 12.339844 0.0507812 L 12.695312 -0.136719 L 12.902344 -0.628906 L 12.847656 -1.507812 L 12.882812 -1.847656 L 12.847656 -6.933594 L 12.882812 -7.304688 L 12.867188 -8.984375 L 12.882812 -9.304688 L 12.847656 -10.035156 L 12.867188 -10.324219 L 12.847656 -11.019531 L 12.882812 -11.339844 L 12.679688 -11.695312 L 12.324219 -11.882812 L 11.832031 -11.730469 L 11.476562 -11.511719 L 10.765625 -10.765625 L 10.542969 -10.492188 L 10.339844 -10.308594 L 10.101562 -10 L 8.613281 -8.476562 L 8.390625 -8.1875 L 7.355469 -7.136719 L 7.050781 -6.933594 L 6.695312 -7.070312 L 6.492188 -7.355469 L 6.253906 -7.59375 L 5.949219 -7.984375 L 5.578125 -8.324219 L 4.035156 -10.035156 L 3.796875 -10.238281 L 3.355469 -10.765625 L 3.085938 -11 L 2.644531 -11.460938 L 2.253906 -11.746094 L 1.78125 -11.882812 L 1.40625 -11.714844 L 1.21875 -11.359375 L 1.269531 -10.324219 L 1.21875 -9.664062 L 1.253906 -9.359375 L 1.238281 -6.644531 L 1.269531 -6.304688 L 1.21875 -4.59375 L 1.253906 -4.273438 L 1.238281 -0.527344 L 1.425781 -0.167969 Z M 1.761719 0.0507812 "/></g></g></g><g fill="#000000" fill-opacity="1"><g transform="translate(29.176594, 85.491489)"><g><path d="M 10 0.0351562 L 10.644531 -0.015625 L 10.96875 0.015625 L 11.492188 0 L 11.96875 -0.0859375 L 12.019531 -0.492188 L 11.898438 -0.882812 L 11.644531 -1.507812 L 11.1875 -2.390625 L 10.949219 -3.015625 L 10.613281 -3.628906 L 9.96875 -5.171875 L 9.796875 -5.425781 L 9.628906 -5.746094 L 9.527344 -6.121094 L 9.375 -6.375 L 9.273438 -6.644531 L 8.917969 -7.273438 L 8.796875 -7.628906 L 7.679688 -9.984375 L 7.578125 -10.324219 L 7.390625 -10.628906 L 7.289062 -10.933594 L 6.96875 -11.527344 L 6.679688 -11.832031 L 6.121094 -12.003906 L 5.578125 -11.816406 L 5.273438 -11.527344 L 5.121094 -11.238281 L 5 -10.898438 L 4.847656 -10.664062 L 4.171875 -9.101562 L 3.984375 -8.847656 L 3.898438 -8.511719 L 3.710938 -8.1875 L 3.609375 -7.882812 L 1.882812 -4.253906 L 1.78125 -3.882812 L 1.609375 -3.628906 L 1.492188 -3.289062 L 1.1875 -2.746094 L 0.933594 -2.066406 L 0.746094 -1.832031 L 0.660156 -1.527344 L 0.320312 -0.847656 L 0.21875 -0.507812 L 0.304688 -0.0859375 L 0.644531 0.015625 L 1.304688 -0.015625 L 1.644531 0.015625 L 2.59375 -0.015625 L 2.984375 -0.136719 L 3.304688 -0.441406 L 3.609375 -1 L 3.933594 -1.320312 L 4.289062 -1.507812 L 4.609375 -1.457031 L 5.324219 -1.527344 L 5.628906 -1.476562 L 7.289062 -1.492188 L 7.59375 -1.457031 L 7.96875 -1.507812 L 8.339844 -1.320312 L 8.664062 -1.050781 L 8.816406 -0.730469 L 8.917969 -0.421875 L 9.253906 -0.167969 L 9.644531 0 Z M 6.152344 -4.1875 L 5.816406 -4.253906 L 5.425781 -4.222656 L 5.152344 -4.339844 L 5.136719 -4.660156 L 5.933594 -6.492188 L 6.121094 -6.644531 L 6.355469 -6.507812 L 7.152344 -4.644531 L 7.085938 -4.339844 L 6.832031 -4.203125 Z M 6.152344 -4.1875 "/></g></g></g><g fill="#000000" fill-opacity="1"><g transform="translate(41.481575, 85.491489)"><g><path d="M 5.679688 0.0664062 L 6.355469 0.0351562 L 6.664062 -0.136719 L 6.832031 -0.457031 L 6.832031 -2.136719 L 6.628906 -2.457031 L 6.253906 -2.644531 L 5.898438 -2.644531 L 5.492188 -2.78125 L 5.289062 -3.171875 L 5.339844 -3.492188 L 5.324219 -5.355469 L 5.355469 -5.730469 L 5.289062 -6.949219 L 5.355469 -8.664062 L 5.476562 -9.050781 L 5.847656 -9.203125 L 6.1875 -9.253906 L 6.542969 -9.390625 L 6.714844 -9.664062 L 6.730469 -11.339844 L 6.527344 -11.664062 L 6.222656 -11.847656 L 4.171875 -11.847656 L 3.863281 -11.882812 L 3.527344 -11.816406 L 2.136719 -11.816406 L 1.8125 -11.867188 L 1.425781 -11.867188 L 1.085938 -11.695312 L 0.914062 -11.289062 L 0.964844 -10.035156 L 0.933594 -9.714844 L 1.117188 -9.375 L 1.492188 -9.1875 L 1.832031 -9.1875 L 2.152344 -8.984375 L 2.304688 -8.527344 L 2.355469 -3.324219 L 2.167969 -2.8125 L 1.050781 -2.476562 L 0.863281 -2.167969 L 0.8125 -0.609375 L 0.984375 -0.152344 L 1.320312 0 L 1.644531 0 L 1.964844 -0.0351562 L 2.457031 0.0351562 L 2.984375 0.015625 L 3.324219 -0.015625 L 4 0.0507812 L 4.507812 -0.015625 L 5.339844 -0.015625 Z M 5.679688 0.0664062 "/></g></g></g><g fill="#000000" fill-opacity="1"><g transform="translate(49.176424, 85.491489)"><g><path d="M 4.558594 0.152344 L 5.898438 0.1875 L 6.238281 0.152344 L 6.578125 0.0664062 L 6.917969 0.015625 L 7.253906 -0.117188 L 7.5625 -0.152344 L 7.882812 -0.304688 L 9.035156 -1 L 9.527344 -1.507812 L 9.695312 -1.746094 L 9.882812 -2.117188 L 9.984375 -2.425781 L 10.085938 -2.710938 L 10.1875 -3.558594 L 10.152344 -4.101562 L 9.898438 -5.085938 L 9.714844 -5.355469 L 9.273438 -5.867188 L 8.96875 -6.136719 L 8.695312 -6.273438 L 8.390625 -6.457031 L 7.070312 -6.867188 L 6.730469 -6.917969 L 6.390625 -6.933594 L 6.035156 -7 L 5.542969 -7 L 4.644531 -7.1875 L 4.019531 -7.492188 L 3.761719 -7.730469 L 3.695312 -8.238281 L 3.78125 -8.695312 L 3.984375 -8.917969 L 4.238281 -9.101562 L 4.507812 -9.253906 L 4.8125 -9.324219 L 5.355469 -9.339844 L 5.898438 -9.273438 L 6.203125 -9.1875 L 6.507812 -8.984375 L 6.796875 -8.746094 L 7.050781 -8.40625 L 7.425781 -8.1875 L 8.222656 -8.253906 L 8.679688 -8.222656 L 9.019531 -8.222656 L 9.324219 -8.1875 L 9.644531 -8.425781 L 9.78125 -8.714844 L 9.714844 -9.035156 L 9.679688 -9.359375 L 9.203125 -10.238281 L 8.832031 -10.746094 L 7.714844 -11.527344 L 6.765625 -11.847656 L 6.101562 -11.984375 L 4.796875 -12.019531 L 4.425781 -11.917969 L 4.085938 -11.898438 L 3.78125 -11.847656 L 3.136719 -11.644531 L 2.558594 -11.308594 L 1.746094 -10.746094 L 1.152344 -9.949219 L 0.847656 -9.019531 L 0.796875 -8.1875 L 0.8125 -7.664062 L 0.933594 -6.984375 L 1.203125 -6.390625 L 1.832031 -5.609375 L 2.984375 -4.984375 L 3.59375 -4.78125 L 6.253906 -4.476562 L 6.867188 -4.1875 L 7.085938 -3.984375 L 7.1875 -3.558594 L 7.050781 -3.136719 L 6.832031 -2.882812 L 6.253906 -2.628906 L 5.730469 -2.59375 L 5.425781 -2.542969 L 4.558594 -2.628906 L 4.273438 -2.78125 L 3.984375 -2.964844 L 3.425781 -3.578125 L 3.085938 -3.710938 L 2.78125 -3.679688 L 2.457031 -3.730469 L 1.152344 -3.660156 L 0.847656 -3.527344 L 0.710938 -3.171875 L 0.761719 -2.832031 L 0.832031 -2.492188 L 0.933594 -2.1875 L 1.253906 -1.558594 L 1.492188 -1.339844 L 1.710938 -1.085938 L 2.304688 -0.710938 L 2.542969 -0.457031 L 2.863281 -0.304688 L 3.203125 -0.203125 L 3.863281 0.0351562 Z M 4.558594 0.152344 "/></g></g></g></svg>