<svg xmlns="http://www.w3.org/2000/svg" xmlns:xlink="http://www.w3.org/1999/xlink" width="200" zoomAndPan="magnify" viewBox="0 0 150 149.999998" height="200" preserveAspectRatio="xMidYMid meet" version="1.0"><defs><clipPath id="34b47eaba3"><path d="M 75 0 C 33.578125 0 0 33.578125 0 75 C 0 116.421875 33.578125 150 75 150 C 116.421875 150 150 116.421875 150 75 C 150 33.578125 116.421875 0 75 0 Z M 75 0 " clip-rule="nonzero"/></clipPath><clipPath id="bceca818a9"><path d="M 27 28.546875 L 122 28.546875 L 122 120 L 27 120 Z M 27 28.546875 " clip-rule="nonzero"/></clipPath></defs><g clip-path="url(#34b47eaba3)"><rect x="-15" width="180" fill="#226699" y="-15" height="179.999997" fill-opacity="1"/></g><g clip-path="url(#bceca818a9)"><path fill="#ffdc5c" d="M 56.328125 55.675781 C 54.695312 58.027344 27.886719 64.707031 27.4375 69.203125 C 27.003906 73.683594 46.804688 87.492188 49.320312 90.445312 C 52.121094 93.738281 49.773438 117.332031 54.246094 119.4375 C 58.734375 121.546875 77.820312 105.929688 82.3125 105.628906 C 86.632812 105.328125 107.242188 116.410156 109.71875 112.402344 C 113.476562 106.363281 106.246094 86.964844 106.769531 83.542969 C 107.410156 79.363281 122.910156 64.070312 121.199219 58.574219 C 119.246094 52.328125 94.144531 54.304688 91.027344 52.648438 C 88.378906 51.238281 74.457031 29.09375 71.039062 28.886719 C 65.082031 28.546875 58.695312 52.289062 56.328125 55.675781 Z M 56.328125 55.675781 " fill-opacity="1" fill-rule="nonzero"/></g><path fill="#ffdc5c" d="M 106.808594 83.542969 C 107.445312 79.363281 122.945312 64.070312 121.234375 58.574219 C 119.28125 52.328125 94.183594 54.304688 91.066406 52.648438 C 90.371094 52.289062 88.941406 50.558594 87.15625 48.1875 C 82.855469 71.011719 69.515625 90.710938 51.238281 106.625 C 51.578125 112.742188 52.160156 118.460938 54.261719 119.4375 C 58.753906 121.546875 77.839844 105.929688 82.328125 105.628906 C 86.652344 105.328125 107.257812 116.410156 109.738281 112.402344 C 113.496094 106.363281 106.28125 86.964844 106.808594 83.542969 Z M 106.808594 83.542969 " fill-opacity="1" fill-rule="nonzero"/><path fill="#fff7d8" d="M 41.242188 72.589844 C 38.238281 73.457031 36.980469 68.789062 39.964844 67.925781 C 41.339844 67.53125 42.710938 67.136719 44.082031 66.738281 C 47.085938 65.875 48.34375 70.539062 45.359375 71.40625 C 43.988281 71.800781 42.617188 72.195312 41.242188 72.589844 Z M 54.65625 68.566406 C 57.625 67.152344 60.613281 65.742188 63.582031 64.3125 C 66.398438 62.976562 63.9375 58.800781 61.140625 60.136719 C 58.171875 61.546875 55.183594 62.957031 52.214844 64.386719 C 49.417969 65.722656 51.859375 69.902344 54.65625 68.566406 Z M 68.109375 54.265625 C 68.671875 51.558594 69.347656 48.867188 70.136719 46.195312 C 71.019531 43.203125 66.363281 41.921875 65.476562 44.914062 C 64.6875 47.566406 64.011719 50.257812 63.449219 52.988281 C 62.792969 56.015625 67.46875 57.3125 68.109375 54.265625 Z M 68.109375 54.265625 " fill-opacity="1" fill-rule="nonzero"/></svg>