<svg xmlns="http://www.w3.org/2000/svg" xmlns:xlink="http://www.w3.org/1999/xlink" width="200" zoomAndPan="magnify" viewBox="0 0 150 149.999998" height="200" preserveAspectRatio="xMidYMid meet" version="1.0"><defs><clipPath id="c50d8c423f"><path d="M 75 0 C 33.578125 0 0 33.578125 0 75 C 0 116.421875 33.578125 150 75 150 C 116.421875 150 150 116.421875 150 75 C 150 33.578125 116.421875 0 75 0 Z M 75 0 " clip-rule="nonzero"/></clipPath></defs><g clip-path="url(#c50d8c423f)"><rect x="-15" width="180" fill="#dd444c" y="-15" height="179.999997" fill-opacity="1"/></g><path fill="#ff914d" d="M 64.019531 81.582031 C 55.015625 86.511719 24.035156 101.375 27.707031 70.488281 C 31.570312 38.003906 60.484375 62.375 66.21875 67.5625 C 65.363281 68.492188 64.664062 69.523438 64.113281 70.660156 C 63.5625 71.796875 63.191406 72.992188 62.996094 74.238281 C 62.800781 75.484375 62.789062 76.734375 62.964844 77.984375 C 63.136719 79.234375 63.488281 80.433594 64.019531 81.578125 Z M 64.019531 81.582031 " fill-opacity="1" fill-rule="nonzero"/><path fill="#ff914d" d="M 54.078125 119.402344 C 26.296875 104.375 56.390625 87.171875 64.742188 82.925781 C 65.40625 84 66.210938 84.957031 67.160156 85.792969 C 68.105469 86.628906 69.152344 87.308594 70.304688 87.832031 C 71.453125 88.359375 72.652344 88.707031 73.902344 88.875 C 75.15625 89.042969 76.40625 89.03125 77.652344 88.828125 C 78.847656 97.695312 82.304688 134.667969 54.078125 119.402344 Z M 54.078125 119.402344 " fill-opacity="1" fill-rule="nonzero"/><path fill="#ff914d" d="M 80.785156 64.535156 C 79.660156 64.039062 78.484375 63.710938 77.265625 63.550781 C 76.042969 63.390625 74.824219 63.410156 73.609375 63.601562 C 72.390625 63.796875 71.230469 64.15625 70.117188 64.6875 C 69.003906 65.21875 67.992188 65.894531 67.074219 66.714844 C 61.277344 60.300781 37.09375 31.402344 69.203125 28.0625 C 101.066406 24.75 85.03125 56.878906 80.785156 64.535156 Z M 80.785156 64.535156 " fill-opacity="1" fill-rule="nonzero"/><path fill="#ff914d" d="M 110.238281 111.257812 C 86.277344 132.832031 80.40625 96.835938 79.390625 88.429688 C 80.503906 88.085938 81.550781 87.597656 82.527344 86.96875 C 83.507812 86.339844 84.386719 85.589844 85.160156 84.71875 C 85.933594 83.847656 86.578125 82.890625 87.089844 81.84375 C 87.605469 80.796875 87.96875 79.703125 88.179688 78.558594 C 94.003906 79.679688 135.371094 88.617188 110.238281 111.257812 Z M 110.238281 111.257812 " fill-opacity="1" fill-rule="nonzero"/><path fill="#ff914d" d="M 88.351562 77.238281 C 88.371094 77.003906 88.382812 76.761719 88.390625 76.519531 C 88.417969 75.386719 88.296875 74.269531 88.023438 73.171875 C 87.753906 72.070312 87.34375 71.023438 86.796875 70.03125 C 86.246094 69.039062 85.578125 68.136719 84.789062 67.324219 C 84 66.511719 83.117188 65.816406 82.144531 65.238281 C 85.984375 58.6875 107.089844 25.175781 119.960938 55.488281 C 132.5625 85.148438 96.648438 79.011719 88.351562 77.238281 Z M 88.351562 77.238281 " fill-opacity="1" fill-rule="nonzero"/><path fill="#ff5757" d="M 88.390625 76.519531 C 88.390625 76.761719 88.371094 77.003906 88.351562 77.238281 C 88.316406 77.683594 88.257812 78.121094 88.175781 78.558594 C 87.964844 79.703125 87.601562 80.796875 87.089844 81.84375 C 86.574219 82.890625 85.933594 83.847656 85.15625 84.71875 C 84.382812 85.585938 83.507812 86.339844 82.527344 86.96875 C 81.546875 87.597656 80.503906 88.085938 79.390625 88.429688 C 78.820312 88.609375 78.246094 88.742188 77.65625 88.835938 C 76.410156 89.035156 75.160156 89.050781 73.90625 88.882812 C 72.65625 88.710938 71.457031 88.363281 70.308594 87.839844 C 69.15625 87.3125 68.109375 86.632812 67.164062 85.796875 C 66.214844 84.960938 65.410156 84.007812 64.746094 82.933594 C 64.476562 82.5 64.234375 82.050781 64.023438 81.589844 C 63.492188 80.441406 63.140625 79.246094 62.964844 77.992188 C 62.792969 76.742188 62.804688 75.496094 63 74.246094 C 63.195312 73 63.566406 71.808594 64.117188 70.671875 C 64.667969 69.535156 65.367188 68.5 66.222656 67.574219 C 66.5 67.273438 66.785156 66.988281 67.085938 66.722656 C 68.003906 65.898438 69.015625 65.222656 70.128906 64.691406 C 71.238281 64.164062 72.402344 63.800781 73.621094 63.609375 C 74.835938 63.414062 76.054688 63.398438 77.277344 63.554688 C 78.496094 63.714844 79.671875 64.042969 80.796875 64.539062 C 81.265625 64.746094 81.714844 64.980469 82.15625 65.242188 C 83.128906 65.820312 84.007812 66.519531 84.796875 67.332031 C 85.585938 68.144531 86.253906 69.046875 86.800781 70.035156 C 87.347656 71.027344 87.757812 72.074219 88.027344 73.171875 C 88.296875 74.273438 88.417969 75.386719 88.390625 76.519531 Z M 88.390625 76.519531 " fill-opacity="1" fill-rule="nonzero"/></svg>