<svg xmlns="http://www.w3.org/2000/svg" xmlns:xlink="http://www.w3.org/1999/xlink" width="200" zoomAndPan="magnify" viewBox="0 0 150 149.999998" height="200" preserveAspectRatio="xMidYMid meet" version="1.0"><defs><clipPath id="cded2e39cf"><path d="M 75 0 C 33.578125 0 0 33.578125 0 75 C 0 116.421875 33.578125 150 75 150 C 116.421875 150 150 116.421875 150 75 C 150 33.578125 116.421875 0 75 0 Z M 75 0 " clip-rule="nonzero"/></clipPath><clipPath id="6dd5598d0d"><path d="M 34 25 L 119.984375 25 L 119.984375 122 L 34 122 Z M 34 25 " clip-rule="nonzero"/></clipPath></defs><g clip-path="url(#cded2e39cf)"><rect x="-15" width="180" fill="#5c913b" y="-15" height="179.999997" fill-opacity="1"/></g><path fill="#cc956e" d="M 93.539062 113.964844 C 93.585938 108.824219 94.007812 92.996094 93.632812 88.152344 C 92.605469 85.449219 73.890625 84.191406 73.890625 84.191406 L 59.558594 83.820312 L 46.96875 76.859375 C 46.96875 76.859375 30.269531 84.5625 30.394531 108.667969 C 29.988281 116.910156 34.628906 125.070312 46.222656 120.347656 C 51.207031 120.101562 60.167969 122.304688 62.738281 121.886719 C 64.894531 121.535156 66.359375 120.097656 66.25 118.433594 C 66.632812 119.1875 67.113281 119.800781 67.722656 120.164062 C 69.871094 121.4375 79.3125 122.242188 81.898438 119.664062 C 83.675781 119.664062 89.417969 120.773438 93.304688 119.277344 C 96.933594 117.878906 94.988281 114.230469 93.539062 113.964844 Z M 93.539062 113.964844 C 93.585938 108.824219 94.007812 92.996094 93.632812 88.152344 C 92.605469 85.449219 73.890625 84.191406 73.890625 84.191406 L 59.558594 83.820312 L 46.96875 76.859375 C 46.96875 76.859375 30.269531 84.5625 30.394531 108.667969 C 29.988281 116.910156 34.628906 125.070312 46.222656 120.347656 C 51.207031 120.101562 60.167969 122.304688 62.738281 121.886719 C 64.894531 121.535156 66.359375 120.097656 66.25 118.433594 C 66.632812 119.1875 67.113281 119.800781 67.722656 120.164062 C 69.871094 121.4375 79.3125 122.242188 81.898438 119.664062 C 83.675781 119.664062 89.417969 120.773438 93.304688 119.277344 C 96.933594 117.878906 94.988281 114.230469 93.539062 113.964844 Z M 93.539062 113.964844 " fill-opacity="1" fill-rule="nonzero"/><g clip-path="url(#6dd5598d0d)"><path fill="#72412b" d="M 66.613281 119.300781 C 66.59375 119.410156 66.496094 119.484375 66.386719 119.484375 C 66.371094 119.484375 66.355469 119.484375 66.339844 119.480469 C 66.210938 119.453125 66.128906 119.332031 66.15625 119.203125 C 66.421875 117.9375 65.667969 116.96875 65.222656 116.523438 C 63.472656 115.152344 59.792969 114.570312 59.792969 114.570312 C 59.792969 114.570312 60.703125 114.066406 61.734375 113.167969 C 62.914062 111.964844 64.671875 109.375 64.605469 104.671875 C 64.503906 97.328125 58.660156 95.082031 55.222656 94.910156 C 55.09375 94.90625 54.996094 94.796875 55 94.667969 C 55.007812 94.539062 55.121094 94.4375 55.246094 94.445312 C 58.84375 94.625 64.964844 96.976562 65.074219 104.664062 C 65.105469 106.71875 64.804688 108.378906 64.355469 109.710938 C 64.648438 110.59375 64.769531 113.480469 65.40625 116.050781 C 65.875 116.46875 66.964844 117.648438 66.613281 119.300781 Z M 62.5625 117.089844 C 62.433594 117.078125 62.316406 117.167969 62.304688 117.296875 C 62.292969 117.425781 62.386719 117.539062 62.515625 117.554688 C 63.601562 117.664062 64.398438 118.089844 64.882812 118.816406 C 65.300781 119.441406 65.386719 120.148438 65.339844 120.628906 C 65.441406 120.570312 65.792969 120.148438 65.804688 120.058594 C 65.753906 119.574219 65.59375 119.035156 65.273438 118.558594 C 64.886719 117.972656 64.097656 117.246094 62.5625 117.089844 Z M 47.265625 98.957031 C 46.21875 98.375 45.089844 98.355469 44.082031 98.902344 C 41.601562 100.257812 42.792969 103.589844 44.054688 107.117188 C 44.195312 107.511719 44.335938 107.910156 44.476562 108.3125 C 45.203125 110.398438 45.140625 113.578125 43.617188 115.628906 C 42.667969 116.90625 41.320312 117.515625 39.621094 117.453125 C 34.730469 117.261719 34.664062 112.628906 34.664062 112.433594 C 34.664062 112.304688 34.558594 112.199219 34.429688 112.199219 C 34.300781 112.199219 34.195312 112.304688 34.195312 112.433594 C 34.195312 112.488281 34.257812 117.710938 39.605469 117.917969 C 41.441406 117.992188 42.960938 117.296875 43.996094 115.90625 C 45.613281 113.726562 45.6875 110.359375 44.917969 108.160156 C 44.777344 107.753906 44.636719 107.355469 44.492188 106.957031 C 43.25 103.480469 42.175781 100.476562 44.308594 99.3125 C 45.167969 98.84375 46.136719 98.863281 47.035156 99.367188 C 48.054688 99.933594 50.460938 102.027344 50.796875 109.160156 C 51.179688 117.21875 46.914062 119.953125 46.214844 120.34375 C 46.394531 120.34375 46.824219 120.335938 47.089844 120.324219 C 48.5625 119.207031 51.59375 116.050781 51.265625 109.136719 C 51.019531 103.953125 49.5625 100.242188 47.265625 98.957031 Z M 61.453125 118.859375 C 61.324219 118.847656 61.210938 118.945312 61.203125 119.074219 C 61.195312 119.203125 61.289062 119.316406 61.417969 119.324219 C 62.511719 119.402344 63.320312 119.800781 63.828125 120.511719 C 64.03125 120.796875 64.160156 121.105469 64.242188 121.398438 C 64.304688 121.375 64.570312 121.25 64.660156 121.164062 C 64.5625 120.851562 64.417969 120.535156 64.207031 120.242188 C 63.800781 119.671875 62.992188 118.96875 61.453125 118.859375 Z M 87.40625 115.476562 C 87.304688 115.398438 87.15625 115.417969 87.078125 115.519531 C 87.003906 115.625 87.023438 115.769531 87.125 115.847656 C 88 116.503906 88.464844 117.277344 88.5 118.148438 C 88.539062 118.988281 88.167969 119.703125 87.851562 120.0625 C 87.976562 120.066406 88.25 120.070312 88.4375 120.058594 C 88.753906 119.570312 89 118.878906 88.96875 118.128906 C 88.9375 117.429688 88.644531 116.398438 87.40625 115.476562 Z M 91.378906 115.003906 C 91.273438 114.925781 91.128906 114.953125 91.050781 115.054688 C 90.976562 115.160156 91 115.304688 91.105469 115.382812 C 91.996094 116.015625 92.472656 116.78125 92.53125 117.652344 C 92.59375 118.601562 92.136719 119.40625 91.808594 119.710938 C 91.953125 119.683594 92.457031 119.558594 92.535156 119.523438 C 92.828125 119.03125 93.046875 118.347656 93 117.621094 C 92.953125 116.921875 92.632812 115.898438 91.378906 115.003906 Z M 113.496094 43.675781 C 118.746094 46.109375 115.816406 36.496094 104.339844 30.53125 C 92.863281 24.570312 79.863281 25.527344 79.863281 25.527344 C 79.863281 25.527344 66.863281 24.570312 55.386719 30.53125 C 43.914062 36.496094 40.984375 46.109375 46.230469 43.675781 C 40.496094 49.273438 39.761719 59.859375 40.859375 66.796875 C 41.960938 73.734375 44.277344 67.769531 44.277344 67.769531 C 44.277344 67.769531 43.914062 76.257812 50.320312 84.019531 C 52.886719 87.304688 52.246094 79.726562 52.246094 79.726562 C 52.246094 79.726562 53.984375 87.578125 64.878906 93.785156 C 67.808594 95.335938 66.253906 90.773438 66.253906 90.773438 C 66.253906 90.773438 73.085938 97.386719 78.980469 98.019531 C 79.242188 100.765625 80.363281 112.71875 80.578125 115.28125 C 80.582031 115.359375 80.628906 115.429688 80.699219 115.46875 C 81.65625 115.992188 82.226562 116.691406 82.386719 117.550781 C 82.5625 118.484375 82.203125 119.332031 81.914062 119.671875 C 82.023438 119.6875 82.390625 119.703125 82.464844 119.699219 C 82.785156 119.160156 83.007812 118.324219 82.847656 117.464844 C 82.71875 116.792969 82.300781 115.851562 81.03125 115.121094 C 80.796875 112.34375 79.722656 100.910156 79.457031 98.058594 C 79.59375 98.066406 79.730469 98.074219 79.863281 98.074219 C 85.9375 98.074219 93.476562 90.773438 93.476562 90.773438 C 93.476562 90.773438 91.917969 95.335938 94.847656 93.785156 C 105.746094 87.578125 107.484375 79.726562 107.484375 79.726562 C 107.484375 79.726562 106.84375 87.304688 109.40625 84.019531 C 115.816406 76.257812 115.449219 67.769531 115.449219 67.769531 C 115.449219 67.769531 117.769531 73.734375 118.867188 66.796875 C 119.964844 59.859375 119.234375 49.273438 113.496094 43.675781 Z M 78.695312 116.210938 C 78.59375 116.136719 78.445312 116.160156 78.371094 116.265625 C 78.296875 116.367188 78.320312 116.515625 78.425781 116.589844 C 79.3125 117.222656 79.792969 117.988281 79.851562 118.859375 C 79.914062 119.808594 79.40625 120.664062 79.082031 120.96875 C 79.136719 120.964844 79.714844 120.824219 79.824219 120.777344 C 80.132812 120.28125 80.367188 119.578125 80.316406 118.828125 C 80.273438 118.128906 79.953125 117.105469 78.695312 116.210938 Z M 75.054688 116.871094 C 74.949219 116.792969 74.800781 116.816406 74.726562 116.917969 C 74.648438 117.019531 74.667969 117.167969 74.773438 117.242188 C 75.644531 117.898438 76.109375 118.671875 76.148438 119.546875 C 76.179688 120.296875 75.886719 120.945312 75.597656 121.332031 C 75.710938 121.335938 76.101562 121.316406 76.167969 121.316406 C 76.445312 120.835938 76.644531 120.203125 76.613281 119.523438 C 76.582031 118.824219 76.289062 117.796875 75.054688 116.871094 Z M 75.054688 116.871094 " fill-opacity="1" fill-rule="nonzero"/></g><path fill="#cc956e" d="M 100.4375 51.570312 C 105.269531 44.59375 96.101562 39.28125 92.632812 44.53125 C 86.5625 40.207031 72.628906 40.640625 66.992188 44.53125 C 63.523438 39.28125 54.355469 44.59375 59.1875 51.570312 C 59.1875 51.570312 49.773438 79.601562 79.8125 79.601562 C 109.851562 79.601562 100.4375 51.570312 100.4375 51.570312 Z M 83.730469 68.871094 C 83.523438 68.871094 83.308594 68.859375 83.078125 68.835938 C 81.113281 68.628906 80.269531 67.421875 79.914062 66.316406 C 79.558594 67.421875 78.71875 68.628906 76.753906 68.835938 C 76.523438 68.859375 76.304688 68.871094 76.097656 68.871094 C 72.785156 68.871094 72.382812 65.957031 72.378906 65.925781 C 72.359375 65.792969 72.453125 65.675781 72.585938 65.660156 C 72.714844 65.640625 72.835938 65.734375 72.851562 65.867188 C 72.867188 65.980469 73.261719 68.722656 76.703125 68.359375 C 79.117188 68.109375 79.597656 66.164062 79.679688 65.105469 C 79.644531 64.679688 79.667969 64.394531 79.671875 64.382812 C 79.679688 64.269531 79.773438 64.183594 79.882812 64.171875 C 79.890625 64.171875 79.894531 64.167969 79.898438 64.167969 C 79.90625 64.167969 79.910156 64.167969 79.914062 64.167969 C 79.921875 64.167969 79.925781 64.167969 79.929688 64.167969 C 79.933594 64.167969 79.941406 64.171875 79.945312 64.171875 C 80.058594 64.183594 80.148438 64.265625 80.160156 64.382812 C 80.160156 64.394531 80.183594 64.679688 80.148438 65.105469 C 80.230469 66.164062 80.710938 68.109375 83.125 68.359375 C 86.574219 68.722656 86.964844 65.980469 86.976562 65.867188 C 86.996094 65.734375 87.117188 65.644531 87.246094 65.660156 C 87.375 65.675781 87.46875 65.792969 87.453125 65.925781 C 87.449219 65.957031 87.042969 68.871094 83.730469 68.871094 Z M 83.730469 68.871094 " fill-opacity="1" fill-rule="nonzero"/><path fill="#e1d7ce" d="M 94.359375 45.449219 C 95.226562 44.335938 97.03125 43.464844 98.808594 44.796875 C 100.910156 46.367188 100.289062 48.632812 99.222656 49.863281 C 97.546875 47.796875 95.691406 46.339844 94.359375 45.449219 Z M 65.480469 45.46875 C 64.617188 44.355469 62.8125 43.484375 61.035156 44.816406 C 58.933594 46.386719 59.554688 48.652344 60.621094 49.882812 C 62.296875 47.816406 64.152344 46.359375 65.480469 45.46875 Z M 79.875 98.074219 C 79.738281 98.074219 79.601562 98.066406 79.464844 98.058594 C 79.542969 98.875 79.683594 100.394531 79.855469 102.210938 C 80.9375 101.964844 85.777344 100.589844 87.445312 95.40625 C 85.085938 96.851562 82.359375 98.074219 79.875 98.074219 Z M 79.875 98.074219 " fill-opacity="1" fill-rule="nonzero"/><path fill="#f1f1f2" d="M 90.417969 53.101562 C 88.566406 53.175781 86.898438 54.40625 86.957031 57.316406 C 87.015625 60.199219 89.632812 60.964844 91.199219 60.816406 C 92.882812 60.660156 94.601562 59.433594 94.441406 56.453125 C 94.28125 53.480469 92.007812 53.042969 90.417969 53.101562 Z M 68.855469 53.101562 C 67.003906 53.175781 65.335938 54.40625 65.394531 57.316406 C 65.453125 60.199219 68.070312 60.964844 69.636719 60.816406 C 71.320312 60.660156 73.039062 59.433594 72.878906 56.453125 C 72.71875 53.480469 70.445312 53.042969 68.855469 53.101562 Z M 68.855469 53.101562 " fill-opacity="1" fill-rule="nonzero"/><path fill="#231f20" d="M 94.441406 56.453125 C 94.542969 58.320312 93.90625 59.496094 93.003906 60.15625 C 92.945312 60.164062 92.886719 60.175781 92.828125 60.179688 C 91.527344 60.304688 89.113281 59.667969 89.066406 57.277344 C 89.015625 54.855469 90.644531 53.832031 92.179688 53.773438 C 92.570312 53.757812 92.988281 53.8125 93.382812 53.945312 C 93.960938 54.453125 94.375 55.246094 94.441406 56.453125 Z M 71.824219 53.945312 C 71.425781 53.8125 71.011719 53.757812 70.617188 53.773438 C 69.082031 53.832031 67.457031 54.855469 67.503906 57.273438 C 67.554688 59.667969 69.96875 60.304688 71.269531 60.179688 C 71.328125 60.175781 71.382812 60.164062 71.441406 60.15625 C 72.34375 59.496094 72.980469 58.320312 72.878906 56.453125 C 72.8125 55.246094 72.398438 54.453125 71.824219 53.945312 Z M 80.207031 60.527344 C 80.15625 60.523438 80.039062 60.523438 79.921875 60.523438 C 79.804688 60.523438 79.6875 60.523438 79.636719 60.527344 C 77.828125 60.546875 76.203125 61.011719 76.289062 61.390625 C 76.332031 61.585938 79.394531 64.65625 79.90625 64.65625 C 79.90625 64.65625 79.933594 64.65625 79.9375 64.65625 C 80.449219 64.65625 83.511719 61.585938 83.554688 61.390625 C 83.636719 61.011719 82.015625 60.546875 80.207031 60.527344 Z M 80.207031 60.527344 " fill-opacity="1" fill-rule="nonzero"/><path fill="#72412b" d="M 48.710938 79.375 C 48.234375 78.714844 47.308594 78.398438 45.726562 79.4375 C 44.199219 80.4375 44.535156 81.632812 44.910156 82.15625 C 45.335938 82.761719 46.421875 82.984375 47.953125 81.914062 C 49.492188 80.832031 49.121094 79.9375 48.710938 79.375 Z M 43.859375 87.113281 C 44.246094 87.460938 44.855469 87.546875 45.679688 86.710938 C 46.472656 85.90625 46.097656 85.207031 45.792969 84.925781 C 45.445312 84.601562 44.746094 84.59375 43.960938 85.445312 C 43.171875 86.300781 43.527344 86.8125 43.859375 87.113281 Z M 39.402344 86.890625 C 39.710938 87.128906 40.167969 87.15625 40.730469 86.492188 C 41.273438 85.851562 40.957031 85.355469 40.714844 85.164062 C 40.4375 84.945312 39.921875 84.976562 39.386719 85.652344 C 38.847656 86.328125 39.140625 86.6875 39.402344 86.890625 Z M 39.402344 86.890625 " fill-opacity="0.2" fill-rule="nonzero"/></svg>