<svg xmlns="http://www.w3.org/2000/svg" xmlns:xlink="http://www.w3.org/1999/xlink" width="200" zoomAndPan="magnify" viewBox="0 0 150 149.999998" height="200" preserveAspectRatio="xMidYMid meet" version="1.0"><defs><clipPath id="6433ab66fc"><path d="M 75 0 C 33.578125 0 0 33.578125 0 75 C 0 116.421875 33.578125 150 75 150 C 116.421875 150 150 116.421875 150 75 C 150 33.578125 116.421875 0 75 0 Z M 75 0 " clip-rule="nonzero"/></clipPath><clipPath id="64c17fec67"><path d="M 47 26.316406 L 94 26.316406 L 94 106 L 47 106 Z M 47 26.316406 " clip-rule="nonzero"/></clipPath></defs><g clip-path="url(#6433ab66fc)"><rect x="-15" width="180" fill="#7db4e8" y="-15" height="179.999997" fill-opacity="1"/></g><path fill="#e7a65f" d="M 66.125 98.488281 L 56.46875 103.820312 L 48.117188 96.023438 C 47.523438 95.46875 46.644531 96.265625 47.136719 96.917969 L 54.007812 103.988281 L 47.328125 100.921875 C 46.59375 100.574219 46 101.601562 46.660156 102.070312 L 53.777344 105.988281 C 55 106.660156 55.921875 107.78125 56.351562 109.117188 L 57.949219 114.085938 C 58.273438 114.746094 59.269531 114.46875 59.207031 113.730469 L 58.035156 106.125 L 67.605469 101.335938 C 68.511719 100.882812 68.777344 99.703125 68.148438 98.902344 C 67.667969 98.285156 66.808594 98.109375 66.125 98.488281 Z M 66.125 98.488281 " fill-opacity="1" fill-rule="nonzero"/><path fill="#e7a65f" d="M 49.347656 38.445312 C 49.347656 38.445312 30.242188 49.140625 45.4375 65.59375 C 46.429688 66.667969 48.140625 66.601562 49.046875 65.449219 L 55.441406 57.289062 C 55.441406 57.289062 54.167969 57.519531 49.347656 38.445312 Z M 49.347656 38.445312 " fill-opacity="1" fill-rule="nonzero"/><g clip-path="url(#64c17fec67)"><path fill="#ff535e" d="M 66.308594 26.328125 C 58.28125 26.328125 47.011719 30.476562 47.011719 45.125 C 47.011719 66.128906 67.203125 63.089844 67.203125 63.089844 C 67.203125 63.089844 55.347656 72.546875 55.347656 87.132812 C 55.347656 100.953125 66.421875 105.375 77.105469 105.375 C 88.054688 105.375 93.460938 97.082031 93.460938 87.410156 C 93.460938 72.761719 93.53125 48.164062 84.757812 36.832031 C 80.183594 30.921875 75.019531 26.328125 66.308594 26.328125 Z M 66.308594 26.328125 " fill-opacity="1" fill-rule="nonzero"/></g><path fill="#e7a65f" d="M 76.316406 100.859375 L 74.402344 112.480469 L 62.425781 114.375 C 61.570312 114.507812 61.65625 115.773438 62.523438 115.789062 L 72.917969 114.660156 L 65.980469 118.261719 C 65.207031 118.648438 65.667969 119.824219 66.496094 119.578125 L 74.429688 116.171875 C 75.796875 115.585938 77.332031 115.546875 78.722656 116.0625 L 83.90625 117.988281 C 84.667969 118.148438 85.089844 117.128906 84.4375 116.699219 L 77.34375 112.683594 L 79.65625 101.484375 C 79.875 100.425781 79.070312 99.429688 77.992188 99.429688 C 77.160156 99.429688 76.453125 100.035156 76.316406 100.859375 Z M 76.316406 100.859375 " fill-opacity="1" fill-rule="nonzero"/><path fill="#ffb6b8" d="M 67.820312 33.652344 C 58.351562 27.742188 49.007812 38.019531 47.023438 44.34375 C 47.015625 44.601562 47.011719 44.859375 47.011719 45.125 C 47.011719 66.128906 67.203125 63.089844 67.203125 63.089844 C 67.203125 63.089844 85.886719 44.9375 67.820312 33.652344 Z M 67.820312 33.652344 " fill-opacity="1" fill-rule="nonzero"/><path fill="#ff535e" d="M 77.382812 94.386719 L 111.007812 108.667969 C 114.996094 110.359375 114.261719 116.34375 109.972656 116.890625 C 109.421875 116.960938 108.839844 116.929688 108.238281 116.765625 C 108.238281 116.765625 107.363281 121.226562 101.835938 118.96875 C 101.835938 118.96875 101.628906 123.816406 97.5625 121.800781 L 73.292969 99.242188 Z M 77.382812 94.386719 " fill-opacity="1" fill-rule="nonzero"/><path fill="#ffffff" d="M 63.964844 45.222656 C 64.050781 47.003906 63.632812 48.675781 62.832031 50.027344 C 61.726562 51.917969 59.921875 53.199219 57.816406 53.304688 C 54.210938 53.484375 51.113281 50.15625 50.902344 45.875 C 50.691406 41.59375 53.445312 37.972656 57.050781 37.792969 C 59.15625 37.6875 61.078125 38.78125 62.367188 40.550781 C 63.292969 41.820312 63.875 43.441406 63.964844 45.222656 Z M 63.964844 45.222656 " fill-opacity="1" fill-rule="nonzero"/><path fill="#0e0606" d="M 63.964844 45.222656 C 64.050781 47.003906 63.632812 48.675781 62.832031 50.027344 C 61.941406 51.066406 60.746094 51.722656 59.398438 51.789062 C 56.441406 51.9375 53.921875 49.21875 53.75 45.730469 C 53.578125 42.242188 55.820312 39.289062 58.773438 39.144531 C 60.121094 39.074219 61.378906 39.609375 62.367188 40.550781 C 63.292969 41.820312 63.875 43.441406 63.964844 45.222656 Z M 63.964844 45.222656 " fill-opacity="1" fill-rule="nonzero"/><path fill="#fadc56" d="M 70.027344 66.523438 C 66.347656 78.300781 59.507812 105.375 93.132812 109.519531 C 93.132812 109.519531 96.609375 70.851562 92.605469 62.824219 C 88.605469 54.796875 73.539062 55.285156 70.027344 66.527344 Z M 70.027344 66.523438 " fill-opacity="1" fill-rule="nonzero"/><path fill="#6c8dbd" d="M 93.742188 101.496094 C 71.980469 99.15625 68.789062 76.636719 68.453125 73.585938 C 68.4375 73.4375 68.265625 73.367188 68.148438 73.457031 L 68.148438 73.460938 C 65.253906 86.769531 65.523438 106.117188 93.132812 109.519531 C 93.132812 109.519531 93.425781 106.289062 93.742188 101.496094 Z M 93.742188 101.496094 " fill-opacity="1" fill-rule="nonzero"/><path fill="#ee3b47" d="M 86.742188 108.625 C 86.71875 108.625 86.695312 108.621094 86.671875 108.613281 C 81.488281 107.222656 77.203125 105.042969 73.9375 102.136719 C 69.121094 97.84375 66.675781 92.085938 66.675781 85.015625 C 66.675781 65.890625 73.769531 60.054688 74.070312 59.816406 C 74.195312 59.71875 74.371094 59.738281 74.46875 59.863281 C 74.566406 59.988281 74.546875 60.167969 74.421875 60.265625 C 74.351562 60.320312 67.246094 66.207031 67.242188 85.015625 C 67.242188 93.132812 70.640625 103.722656 86.816406 108.0625 C 86.96875 108.105469 87.058594 108.261719 87.015625 108.414062 C 86.984375 108.539062 86.867188 108.625 86.742188 108.625 Z M 86.742188 108.625 " fill-opacity="1" fill-rule="nonzero"/><path fill="#ee3b47" d="M 67.203125 63.375 C 67.132812 63.375 67.0625 63.347656 67.007812 63.296875 C 66.894531 63.1875 66.886719 63.007812 66.996094 62.894531 C 72.390625 57.105469 74.296875 53.578125 75.164062 47.796875 C 76.203125 40.855469 71.054688 33.757812 63.917969 32.300781 C 60.449219 31.59375 57.261719 33.046875 55.203125 34.390625 C 52.953125 35.855469 51.523438 37.503906 51.507812 37.519531 C 51.40625 37.640625 51.226562 37.652344 51.109375 37.550781 C 50.992188 37.445312 50.976562 37.265625 51.078125 37.148438 C 51.140625 37.078125 57.050781 30.316406 64.03125 31.742188 C 71.453125 33.257812 76.808594 40.648438 75.726562 47.882812 C 74.839844 53.796875 72.898438 57.394531 67.410156 63.285156 C 67.351562 63.34375 67.277344 63.375 67.203125 63.375 Z M 67.203125 63.375 " fill-opacity="1" fill-rule="nonzero"/></svg>