<svg xmlns="http://www.w3.org/2000/svg" xmlns:xlink="http://www.w3.org/1999/xlink" width="200" zoomAndPan="magnify" viewBox="0 0 150 149.999998" height="200" preserveAspectRatio="xMidYMid meet" version="1.0"><defs><clipPath id="bba0622006"><path d="M 75 0 C 33.578125 0 0 33.578125 0 75 C 0 116.421875 33.578125 150 75 150 C 116.421875 150 150 116.421875 150 75 C 150 33.578125 116.421875 0 75 0 Z M 75 0 " clip-rule="nonzero"/></clipPath></defs><g clip-path="url(#bba0622006)"><rect x="-15" width="180" fill="#654c9c" y="-15" height="179.999997" fill-opacity="1"/></g><path fill="#f69cab" d="M 116.449219 71.332031 C 116.449219 75.242188 112.78125 78.410156 108.253906 78.410156 L 108.21875 78.410156 C 108.152344 83.320312 103.671875 87.3125 98.039062 87.566406 C 95.976562 91.148438 91.703125 93.609375 86.753906 93.609375 C 86.480469 93.609375 86.210938 93.597656 85.9375 93.582031 C 82.996094 97.507812 77.898438 100.117188 72.089844 100.15625 C 68.976562 103.058594 64.71875 105.027344 59.933594 105.53125 C 55.605469 109.636719 49.363281 112.214844 42.421875 112.214844 C 29.347656 112.214844 18.746094 103.0625 18.746094 91.773438 C 18.746094 80.484375 29.347656 71.332031 42.421875 71.332031 C 45.1875 71.332031 47.839844 71.742188 50.308594 72.492188 C 52.539062 71.742188 54.964844 71.332031 57.5 71.332031 C 60.230469 71.332031 62.835938 71.808594 65.203125 72.664062 C 67.265625 71.871094 69.550781 71.425781 71.960938 71.425781 C 75.011719 71.425781 77.867188 72.136719 80.324219 73.375 C 82.210938 72.410156 84.40625 71.851562 86.753906 71.851562 C 87.683594 71.851562 88.585938 71.941406 89.457031 72.105469 C 91.425781 70.207031 94.285156 69.011719 97.46875 69.011719 C 98.480469 69.011719 99.457031 69.136719 100.382812 69.359375 C 101.371094 66.410156 104.519531 64.253906 108.253906 64.253906 C 112.777344 64.257812 116.449219 67.425781 116.449219 71.332031 Z M 116.449219 71.332031 " fill-opacity="1" fill-rule="nonzero"/><path fill="#000000" d="M 40.875 89.71875 C 40.871094 89.917969 40.757812 90.105469 40.558594 90.242188 C 40.3125 90.417969 40 90.492188 39.699219 90.492188 C 39.398438 90.492188 39.085938 90.417969 38.839844 90.242188 C 38.75 90.179688 38.667969 90.097656 38.613281 90.015625 C 38.554688 89.917969 38.523438 89.820312 38.519531 89.71875 C 38.511719 89.339844 37.925781 89.335938 37.933594 89.71875 C 37.953125 90.613281 38.90625 91.082031 39.699219 91.082031 C 40.492188 91.082031 41.445312 90.613281 41.464844 89.71875 C 41.472656 89.339844 40.886719 89.339844 40.875 89.71875 Z M 40.875 89.71875 " fill-opacity="1" fill-rule="nonzero"/><path fill="#a5d5e5" d="M 65.738281 73.984375 C 65.738281 73.984375 91.539062 132.414062 113.644531 108.414062 C 132.039062 88.433594 65.738281 73.984375 65.738281 73.984375 Z M 65.738281 73.984375 " fill-opacity="1" fill-rule="nonzero"/><path fill="#d2ecf7" d="M 65.328125 73.503906 C 65.328125 73.503906 106.246094 130.921875 124.800781 100.023438 C 140.242188 74.308594 65.328125 73.503906 65.328125 73.503906 Z M 65.328125 73.503906 " fill-opacity="1" fill-rule="nonzero"/><path fill="#a5d5e5" d="M 65.53125 73.503906 C 65.53125 73.503906 44.617188 26.140625 26.703125 45.597656 C 11.789062 61.789062 65.53125 73.503906 65.53125 73.503906 Z M 65.53125 73.503906 " fill-opacity="1" fill-rule="nonzero"/><path fill="#d2ecf7" d="M 65.472656 73.570312 C 65.472656 73.570312 52.898438 17.792969 29.347656 35.039062 C 9.746094 49.398438 65.472656 73.570312 65.472656 73.570312 Z M 65.472656 73.570312 " fill-opacity="1" fill-rule="nonzero"/><path fill="#ffffff" d="M 36.316406 78.542969 C 36.316406 82.84375 33.457031 84.773438 29.160156 84.773438 C 24.867188 84.773438 21.382812 82.535156 21.382812 78.230469 C 21.382812 73.929688 24.867188 70.441406 29.160156 70.441406 C 33.457031 70.441406 36.316406 74.238281 36.316406 78.542969 Z M 36.316406 78.542969 " fill-opacity="1" fill-rule="nonzero"/><path fill="#f69cab" d="M 36.023438 78.542969 C 36.015625 79.894531 35.722656 81.289062 34.847656 82.359375 C 34.042969 83.34375 32.890625 83.917969 31.671875 84.210938 C 28.957031 84.859375 25.507812 84.511719 23.410156 82.511719 C 21.199219 80.402344 21.246094 76.84375 22.757812 74.347656 C 24.347656 71.714844 27.589844 70.199219 30.621094 70.894531 C 33.636719 71.585938 35.574219 74.398438 35.949219 77.359375 C 36 77.75 36.023438 78.148438 36.023438 78.542969 C 36.023438 78.921875 36.613281 78.921875 36.609375 78.542969 C 36.59375 75.304688 34.957031 71.972656 31.863281 70.679688 C 28.769531 69.382812 25.027344 70.527344 22.933594 73.082031 C 20.933594 75.527344 20.316406 79.398438 22.246094 82.070312 C 24.136719 84.6875 27.714844 85.359375 30.742188 84.972656 C 32.160156 84.792969 33.5625 84.335938 34.660156 83.390625 C 35.734375 82.46875 36.332031 81.144531 36.523438 79.757812 C 36.582031 79.355469 36.605469 78.949219 36.605469 78.542969 C 36.613281 78.164062 36.023438 78.164062 36.023438 78.542969 Z M 36.023438 78.542969 " fill-opacity="1" fill-rule="nonzero"/><path fill="#ffffff" d="M 42.269531 78.542969 C 42.269531 82.84375 45.128906 84.773438 49.425781 84.773438 C 53.722656 84.773438 57.203125 82.535156 57.203125 78.230469 C 57.203125 73.929688 53.722656 70.441406 49.425781 70.441406 C 45.128906 70.441406 42.269531 74.238281 42.269531 78.542969 Z M 42.269531 78.542969 " fill-opacity="1" fill-rule="nonzero"/><path fill="#f69cab" d="M 41.976562 78.542969 C 41.980469 80.027344 42.324219 81.515625 43.253906 82.695312 C 44.117188 83.785156 45.390625 84.445312 46.71875 84.769531 C 49.671875 85.492188 53.390625 85.082031 55.648438 82.875 C 57.996094 80.578125 57.964844 76.746094 56.335938 74.050781 C 54.613281 71.199219 51.128906 69.585938 47.847656 70.316406 C 44.585938 71.042969 42.476562 74.074219 42.0625 77.269531 C 42.007812 77.691406 41.976562 78.117188 41.976562 78.542969 C 41.972656 78.921875 42.5625 78.921875 42.5625 78.542969 C 42.578125 75.558594 44.054688 72.441406 46.910156 71.230469 C 49.78125 70.015625 53.214844 71.09375 55.175781 73.433594 C 57.0625 75.6875 57.617188 79.300781 55.828125 81.773438 C 54.089844 84.175781 50.726562 84.726562 47.96875 84.402344 C 46.6875 84.25 45.363281 83.847656 44.367188 83 C 43.371094 82.15625 42.820312 80.964844 42.636719 79.6875 C 42.582031 79.308594 42.566406 78.925781 42.5625 78.542969 C 42.5625 78.164062 41.976562 78.164062 41.976562 78.542969 Z M 41.976562 78.542969 " fill-opacity="1" fill-rule="nonzero"/><path fill="#000000" d="M 29.042969 83.160156 C 26.246094 83.160156 23.980469 80.890625 23.980469 78.09375 L 23.980469 77.230469 C 23.980469 74.429688 26.246094 72.160156 29.039062 72.160156 C 31.832031 72.160156 34.097656 74.429688 34.097656 77.230469 L 34.097656 78.09375 C 34.097656 80.890625 31.832031 83.160156 29.042969 83.160156 Z M 29.042969 83.160156 " fill-opacity="1" fill-rule="nonzero"/><path fill="#000000" d="M 49.328125 83.160156 C 46.53125 83.160156 44.265625 80.890625 44.265625 78.09375 L 44.265625 77.230469 C 44.265625 74.429688 46.53125 72.160156 49.328125 72.160156 C 52.121094 72.160156 54.386719 74.429688 54.386719 77.230469 L 54.386719 78.09375 C 54.386719 80.890625 52.121094 83.160156 49.328125 83.160156 Z M 49.328125 83.160156 " fill-opacity="1" fill-rule="nonzero"/><path fill="#ffffff" d="M 71.882812 75.789062 C 72.628906 76.089844 73.382812 76.378906 74.132812 76.667969 C 76.117188 77.421875 78.109375 78.15625 80.109375 78.863281 C 82.894531 79.851562 85.695312 80.796875 88.511719 81.695312 C 91.714844 82.710938 94.933594 83.664062 98.179688 84.515625 C 101.351562 85.347656 104.550781 86.085938 107.785156 86.632812 C 108.164062 86.695312 108.542969 86.757812 108.921875 86.816406 C 109.292969 86.875 109.453125 86.304688 109.082031 86.246094 C 105.878906 85.753906 102.707031 85.058594 99.566406 84.261719 C 96.292969 83.4375 93.050781 82.496094 89.832031 81.492188 C 86.941406 80.589844 84.066406 79.632812 81.207031 78.628906 C 79.082031 77.878906 76.964844 77.109375 74.855469 76.3125 C 74.21875 76.074219 73.582031 75.828125 72.949219 75.582031 C 72.664062 75.46875 72.371094 75.316406 72.074219 75.238281 L 72.039062 75.222656 C 71.6875 75.082031 71.535156 75.652344 71.882812 75.789062 Z M 71.882812 75.789062 " fill-opacity="1" fill-rule="nonzero"/><path fill="#ffffff" d="M 71.199219 76.835938 C 71.824219 77.359375 72.457031 77.867188 73.09375 78.378906 C 74.753906 79.710938 76.429688 81.023438 78.117188 82.316406 C 80.464844 84.113281 82.835938 85.875 85.238281 87.589844 C 87.972656 89.542969 90.742188 91.4375 93.574219 93.25 C 96.347656 95.027344 99.179688 96.722656 102.105469 98.246094 C 102.445312 98.421875 102.789062 98.597656 103.132812 98.769531 C 103.46875 98.941406 103.765625 98.433594 103.429688 98.261719 C 100.527344 96.808594 97.726562 95.167969 94.980469 93.445312 C 92.136719 91.660156 89.351562 89.777344 86.605469 87.839844 C 84.128906 86.089844 81.683594 84.292969 79.269531 82.457031 C 77.484375 81.101562 75.714844 79.722656 73.960938 78.324219 C 73.1875 77.703125 72.433594 77.042969 71.644531 76.441406 L 71.613281 76.417969 C 71.324219 76.179688 70.90625 76.59375 71.199219 76.835938 Z M 71.199219 76.835938 " fill-opacity="1" fill-rule="nonzero"/><path fill="#ffffff" d="M 62.203125 67.496094 C 60.675781 65.699219 59.199219 63.855469 57.742188 61.996094 C 54.617188 58.011719 51.609375 53.929688 48.832031 49.691406 C 47.21875 47.230469 45.679688 44.710938 44.328125 42.09375 C 44.152344 41.757812 43.648438 42.054688 43.820312 42.390625 C 46.265625 47.128906 49.277344 51.570312 52.398438 55.882812 C 54.898438 59.335938 57.507812 62.710938 60.207031 66.011719 C 60.730469 66.652344 61.253906 67.289062 61.789062 67.914062 C 62.035156 68.203125 62.449219 67.785156 62.203125 67.496094 Z M 62.203125 67.496094 " fill-opacity="1" fill-rule="nonzero"/><path fill="#ffffff" d="M 61.4375 68.164062 C 59.429688 66.921875 57.460938 65.617188 55.503906 64.296875 C 51.308594 61.464844 47.1875 58.511719 43.25 55.332031 C 40.960938 53.488281 38.722656 51.566406 36.632812 49.488281 C 36.363281 49.222656 35.949219 49.640625 36.214844 49.90625 C 39.992188 53.65625 44.214844 56.957031 48.5 60.097656 C 51.941406 62.621094 55.464844 65.03125 59.050781 67.347656 C 59.746094 67.792969 60.4375 68.238281 61.136719 68.671875 C 61.460938 68.871094 61.757812 68.363281 61.4375 68.164062 Z M 61.4375 68.164062 " fill-opacity="1" fill-rule="nonzero"/></svg>