<svg xmlns="http://www.w3.org/2000/svg" xmlns:xlink="http://www.w3.org/1999/xlink" width="200" zoomAndPan="magnify" viewBox="0 0 150 149.999998" height="200" preserveAspectRatio="xMidYMid meet" version="1.0"><defs><clipPath id="633a66f932"><path d="M 75 0 C 33.578125 0 0 33.578125 0 75 C 0 116.421875 33.578125 150 75 150 C 116.421875 150 150 116.421875 150 75 C 150 33.578125 116.421875 0 75 0 Z M 75 0 " clip-rule="nonzero"/></clipPath><clipPath id="9964a6ebee"><path d="M 45 21.40625 L 77 21.40625 L 77 69 L 45 69 Z M 45 21.40625 " clip-rule="nonzero"/></clipPath><clipPath id="187b830e9a"><path d="M 21 23 L 135 23 L 135 128.65625 L 21 128.65625 Z M 21 23 " clip-rule="nonzero"/></clipPath><clipPath id="cff4be6a05"><path d="M 131 93 L 142.59375 93 L 142.59375 102 L 131 102 Z M 131 93 " clip-rule="nonzero"/></clipPath><clipPath id="d71e964261"><path d="M 65 122 L 77 122 L 77 128.65625 L 65 128.65625 Z M 65 122 " clip-rule="nonzero"/></clipPath></defs><g clip-path="url(#633a66f932)"><rect x="-15" width="180" fill="#0097b2" y="-15" height="179.999997" fill-opacity="1"/></g><g clip-path="url(#9964a6ebee)"><path fill="#000000" d="M 49.1875 32.496094 L 46.285156 26.191406 C 45.292969 24.039062 46.828125 21.574219 49.195312 21.519531 C 53.667969 21.410156 60.402344 21.988281 65.753906 25.628906 C 74.585938 31.632812 73.953125 43.285156 73.464844 47.085938 C 73.074219 50.128906 72.445312 56.308594 75.972656 59.914062 C 77.378906 61.351562 77.136719 63.722656 75.503906 64.894531 L 69.914062 68.914062 L 62.816406 50.03125 L 62.246094 39.976562 L 53.878906 32.25 Z M 49.1875 32.496094 " fill-opacity="1" fill-rule="nonzero"/></g><path fill="#838383" d="M 57.589844 88.242188 C 57.589844 88.242188 49.1875 101.472656 49.1875 104.839844 C 49.1875 108.207031 56.03125 114.796875 55.789062 117.203125 C 55.550781 119.609375 54.828125 121.054688 58.191406 120.332031 C 61.554688 119.609375 63.714844 116.480469 63.714844 114.074219 C 63.714844 111.671875 57.84375 107.074219 59.765625 104.574219 C 61.6875 102.078125 68.15625 99.308594 68.15625 99.308594 C 68.15625 99.308594 65.035156 84.871094 57.589844 88.242188 Z M 57.589844 88.242188 " fill-opacity="1" fill-rule="nonzero"/><path fill="#838383" d="M 89.890625 95.699219 C 89.890625 95.699219 92.535156 103.398438 94.933594 105.5625 C 97.335938 107.726562 97.816406 108.929688 97.097656 111.578125 C 96.375 114.222656 95 120.480469 93.648438 121.441406 C 92.292969 122.402344 89.476562 125.289062 93.648438 125.769531 C 97.816406 126.253906 99.976562 125.769531 100.699219 123.847656 C 101.417969 121.921875 107.421875 112.78125 106.941406 108.929688 C 106.460938 105.082031 105.558594 95.699219 105.558594 95.699219 Z M 89.890625 95.699219 " fill-opacity="1" fill-rule="nonzero"/><g clip-path="url(#187b830e9a)"><path fill="#cccccc" d="M 134.667969 95.980469 C 133.492188 95.292969 131.886719 92.167969 131.144531 87.703125 C 130.511719 83.898438 127.203125 81.917969 124.945312 80.996094 C 124.726562 79.675781 124.34375 78.390625 123.753906 77.171875 C 119.671875 68.753906 111.503906 66.105469 97.335938 66.347656 C 83.167969 66.589844 74.761719 67.070312 70.917969 64.183594 C 67.078125 61.296875 65.636719 57.445312 66.359375 49.507812 C 66.898438 43.554688 66.492188 38.144531 63.324219 34.898438 C 66.941406 30.042969 64.617188 25.96875 63.042969 24.074219 C 62.449219 23.363281 61.40625 23.222656 60.652344 23.761719 C 57.171875 26.265625 56.355469 29.273438 56.433594 31.699219 C 50.347656 30.363281 44.296875 31.042969 39.699219 36.273438 C 34.417969 42.289062 27.523438 46.859375 23.851562 48.785156 C 19.609375 51.011719 21.6875 61.777344 30.816406 62.257812 C 39.941406 62.738281 45.703125 61.054688 45.703125 61.054688 C 45.703125 61.054688 49.308594 85.835938 64.195312 94.496094 C 64.195312 94.496094 64.34375 95.15625 64.578125 96.289062 C 64.757812 97.160156 64.992188 98.308594 65.253906 99.644531 C 65.589844 101.355469 65.972656 103.375 66.34375 105.519531 C 66.53125 106.59375 66.714844 107.695312 66.886719 108.804688 C 67.128906 110.351562 67.355469 111.910156 67.546875 113.421875 C 67.6875 114.5625 67.8125 115.679688 67.90625 116.738281 C 68.113281 119.066406 68.183594 121.128906 68.039062 122.644531 C 68.039062 122.644531 64.675781 126.253906 66.117188 127.457031 C 67.558594 128.660156 74.523438 128.660156 76.203125 127.457031 C 76.867188 126.980469 77.230469 122.449219 77.429688 117.144531 C 77.472656 116.023438 77.503906 114.867188 77.53125 113.710938 C 77.566406 112.386719 77.589844 111.0625 77.605469 109.773438 C 77.625 108.523438 77.636719 107.308594 77.644531 106.175781 C 77.648438 105.730469 77.648438 105.300781 77.652344 104.886719 C 77.660156 103.089844 77.65625 101.570312 77.652344 100.535156 C 77.648438 99.605469 77.644531 99.066406 77.644531 99.066406 C 77.644531 99.066406 94.324219 103.15625 105.558594 100.027344 C 105.558594 100.027344 105.851562 100.699219 106.304688 101.703125 C 106.710938 102.597656 107.246094 103.757812 107.820312 104.945312 C 108.203125 105.742188 108.605469 106.554688 108.992188 107.304688 C 109.113281 107.53125 109.226562 107.753906 109.34375 107.96875 C 109.816406 108.847656 110.125 109.621094 110.316406 110.363281 C 110.617188 111.53125 110.632812 112.632812 110.542969 113.980469 C 110.488281 114.820312 110.394531 115.757812 110.304688 116.871094 C 110.289062 117.058594 110.273438 117.246094 110.253906 117.429688 C 109.902344 121.074219 109.105469 123.125 109.105469 123.125 C 109.105469 123.125 104.890625 124.328125 105.558594 126.253906 C 106.222656 128.175781 112.769531 128.457031 113.972656 126.832031 C 114.847656 125.648438 117.863281 120.890625 119.429688 116.625 C 119.855469 115.46875 120.171875 114.347656 120.3125 113.34375 C 120.363281 112.980469 120.390625 112.628906 120.390625 112.296875 C 120.390625 110.40625 120.105469 108.515625 119.886719 106.742188 C 119.738281 105.558594 119.625 104.425781 119.648438 103.378906 C 119.671875 102.214844 119.871094 101.160156 120.390625 100.269531 C 121.023438 99.183594 122.230469 96.839844 123.277344 93.890625 C 123.292969 93.851562 123.304688 93.808594 123.320312 93.769531 C 123.742188 92.566406 124.136719 91.261719 124.453125 89.902344 C 124.855469 88.183594 125.128906 86.375 125.179688 84.566406 C 127.757812 85.628906 128.472656 88.574219 129.105469 90.863281 C 129.988281 94.078125 132.175781 96.367188 133.996094 97.097656 C 134.324219 97.226562 134.691406 97.195312 134.882812 96.898438 C 135.085938 96.585938 134.988281 96.167969 134.667969 95.980469 Z M 134.667969 95.980469 " fill-opacity="1" fill-rule="nonzero"/></g><g clip-path="url(#cff4be6a05)"><path fill="#000000" d="M 132.304688 95.144531 C 132.304688 95.144531 130.476562 98.34375 133.023438 100.378906 C 135.566406 102.414062 142.5625 100.871094 142.5625 100.871094 C 142.5625 100.871094 141.746094 97.6875 140.46875 95.847656 C 138.96875 93.6875 134.910156 91.171875 132.304688 95.144531 Z M 132.304688 95.144531 " fill-opacity="1" fill-rule="nonzero"/></g><path fill="#838383" d="M 58.136719 32.183594 C 58.136719 32.183594 59.878906 32.496094 61.265625 33.722656 C 61.265625 33.722656 63.46875 28.570312 61.265625 26.199219 C 61.265625 26.199219 58.773438 25.417969 58.136719 32.183594 Z M 58.136719 32.183594 " fill-opacity="1" fill-rule="nonzero"/><path fill="#ffffff" d="M 50.96875 42.863281 C 50.78125 44.226562 50.226562 45.429688 49.425781 46.339844 C 48.316406 47.609375 46.761719 48.320312 45.148438 48.09375 C 42.382812 47.714844 40.507812 44.75 40.957031 41.480469 C 41.40625 38.210938 44.015625 35.867188 46.777344 36.246094 C 48.394531 36.472656 49.699219 37.574219 50.421875 39.097656 C 50.949219 40.191406 51.15625 41.5 50.96875 42.863281 Z M 50.96875 42.863281 " fill-opacity="1" fill-rule="nonzero"/><path fill="#0e0606" d="M 50.96875 42.863281 C 50.78125 44.226562 50.226562 45.429688 49.425781 46.339844 C 48.601562 46.996094 47.597656 47.320312 46.566406 47.175781 C 44.300781 46.863281 42.773438 44.445312 43.140625 41.78125 C 43.507812 39.117188 45.628906 37.203125 47.894531 37.515625 C 48.929688 37.660156 49.808594 38.242188 50.421875 39.097656 C 50.949219 40.191406 51.15625 41.5 50.96875 42.863281 Z M 50.96875 42.863281 " fill-opacity="1" fill-rule="nonzero"/><path fill="#e9e9e9" d="M 31.707031 43.65625 C 28.664062 45.992188 25.800781 47.761719 23.851562 48.785156 C 19.609375 51.011719 21.6875 61.777344 30.816406 62.257812 C 34.566406 62.457031 37.75 62.289062 40.199219 62.019531 C 41.691406 51.332031 35.5625 45.941406 31.707031 43.65625 Z M 31.707031 43.65625 " fill-opacity="1" fill-rule="nonzero"/><path fill="#000000" d="M 33.078125 59.152344 C 32.324219 59.152344 31.726562 58.929688 31.300781 58.484375 C 30.554688 57.710938 30.625 56.550781 30.625 56.5 C 30.632812 56.40625 30.710938 56.339844 30.804688 56.34375 C 30.898438 56.351562 30.96875 56.429688 30.964844 56.523438 C 30.960938 56.535156 30.902344 57.585938 31.542969 58.253906 C 31.921875 58.648438 32.476562 58.839844 33.191406 58.8125 C 33.800781 58.792969 34.257812 58.597656 34.554688 58.234375 C 35.121094 57.535156 34.925781 56.421875 34.925781 56.414062 C 34.910156 56.320312 34.96875 56.234375 35.058594 56.214844 C 35.152344 56.199219 35.238281 56.261719 35.257812 56.351562 C 35.265625 56.402344 35.480469 57.625 34.816406 58.445312 C 34.457031 58.890625 33.914062 59.128906 33.199219 59.152344 C 33.160156 59.152344 33.121094 59.152344 33.078125 59.152344 Z M 33.078125 59.152344 " fill-opacity="1" fill-rule="nonzero"/><path fill="#000000" d="M 66.652344 57.753906 C 66.261719 56.113281 66.113281 54.175781 66.203125 51.835938 C 65.09375 53.550781 63.746094 55.214844 62.160156 56.8125 C 59.578125 59.414062 56.375 61.855469 52.640625 64.058594 C 50.644531 65.234375 48.707031 66.21875 46.980469 67.019531 C 47.285156 68.1875 47.652344 69.476562 48.089844 70.851562 C 50.023438 69.972656 52.242188 68.863281 54.558594 67.503906 C 58.597656 65.125 62.082031 62.476562 64.914062 59.628906 C 65.523438 59.011719 66.101562 58.386719 66.652344 57.753906 Z M 66.652344 57.753906 " fill-opacity="1" fill-rule="nonzero"/><path fill="#000000" d="M 69.742188 63.191406 C 68.714844 62.222656 67.917969 61.128906 67.339844 59.820312 C 62.695312 66.226562 57.074219 70.71875 52.894531 73.496094 C 51.78125 74.234375 50.71875 74.886719 49.726562 75.460938 C 50.203125 76.65625 50.730469 77.875 51.308594 79.097656 C 52.4375 78.453125 53.667969 77.707031 54.964844 76.847656 C 59.230469 74.03125 64.890625 69.542969 69.742188 63.191406 Z M 69.742188 63.191406 " fill-opacity="1" fill-rule="nonzero"/><path fill="#000000" d="M 70.917969 64.183594 C 70.90625 64.171875 70.890625 64.160156 70.875 64.148438 C 67.75 71.292969 62.980469 76.871094 59.214844 80.519531 C 57.492188 82.183594 55.84375 83.585938 54.417969 84.707031 C 55.132812 85.808594 55.902344 86.882812 56.726562 87.90625 C 58.246094 86.714844 60.007812 85.222656 61.863281 83.433594 C 64.988281 80.425781 67.722656 77.195312 70 73.832031 C 71.78125 71.207031 73.28125 68.492188 74.484375 65.726562 C 73.023438 65.371094 71.839844 64.875 70.917969 64.183594 Z M 70.917969 64.183594 " fill-opacity="1" fill-rule="nonzero"/><path fill="#000000" d="M 76.53125 66.109375 C 73.65625 74.554688 69.039062 82.175781 65.417969 87.371094 C 64.027344 89.367188 62.6875 91.148438 61.492188 92.660156 C 62.351562 93.332031 63.25 93.945312 64.195312 94.496094 C 64.195312 94.496094 67.570312 91.160156 69.078125 89 C 73 83.382812 77.558594 75.730469 80.5625 66.453125 C 79.074219 66.386719 77.730469 66.277344 76.53125 66.109375 Z M 76.53125 66.109375 " fill-opacity="1" fill-rule="nonzero"/><path fill="#000000" d="M 77.644531 99.066406 C 77.644531 99.066406 79.03125 99.40625 81.269531 99.816406 C 82.605469 94.824219 85.550781 82.355469 86.464844 66.53125 C 85.0625 66.539062 83.75 66.535156 82.523438 66.511719 C 81.351562 86.175781 77.644531 99.066406 77.644531 99.066406 Z M 77.644531 99.066406 " fill-opacity="1" fill-rule="nonzero"/><path fill="#000000" d="M 89.8125 66.488281 C 89.492188 83.992188 85.644531 96.949219 84.527344 100.347656 C 85.753906 100.527344 87.09375 100.699219 88.507812 100.839844 C 89.101562 98.957031 90.0625 95.632812 91.007812 91.125 C 92.207031 85.398438 93.570312 76.730469 93.75 66.414062 C 92.378906 66.441406 91.066406 66.464844 89.8125 66.488281 Z M 89.8125 66.488281 " fill-opacity="1" fill-rule="nonzero"/><path fill="#000000" d="M 97.757812 66.339844 C 97.742188 75.789062 96 84.796875 94.4375 90.992188 C 93.347656 95.296875 92.210938 98.808594 91.417969 101.078125 C 92.761719 101.160156 94.144531 101.207031 95.535156 101.207031 C 96.308594 98.914062 97.285156 95.777344 98.230469 92.03125 C 99.863281 85.597656 101.671875 76.242188 101.691406 66.375 C 100.4375 66.332031 99.125 66.324219 97.757812 66.339844 Z M 97.757812 66.339844 " fill-opacity="1" fill-rule="nonzero"/><path fill="#000000" d="M 108.351562 66.960938 C 106.703125 78.945312 103.730469 87.648438 101.394531 93.042969 C 99.726562 96.898438 98.164062 99.597656 97.148438 101.179688 C 98.78125 101.128906 99.34375 101.140625 100.917969 100.910156 C 101.796875 99.339844 109.519531 86.695312 112.207031 67.800781 C 111.007812 67.457031 109.722656 67.179688 108.351562 66.960938 Z M 108.351562 66.960938 " fill-opacity="1" fill-rule="nonzero"/><path fill="#000000" d="M 119.207031 71.300781 C 114.355469 83.925781 105.960938 95.921875 102.40625 100.707031 C 103.488281 100.53125 104.546875 100.3125 105.558594 100.027344 C 105.558594 100.027344 111.058594 93.816406 113.109375 90.617188 C 116.3125 85.621094 119.074219 82.046875 122.175781 74.488281 C 121.3125 73.273438 120.328125 72.214844 119.207031 71.300781 Z M 119.207031 71.300781 " fill-opacity="1" fill-rule="nonzero"/><g clip-path="url(#d71e964261)"><path fill="#000000" d="M 76.203125 127.457031 C 72.453125 120.886719 68.039062 122.644531 68.039062 122.644531 C 68.039062 122.644531 64.675781 126.253906 66.117188 127.457031 C 67.558594 128.660156 74.523438 128.660156 76.203125 127.457031 Z M 76.203125 127.457031 " fill-opacity="1" fill-rule="nonzero"/></g><path fill="#000000" d="M 109.105469 123.125 C 109.105469 123.125 104.890625 124.328125 105.558594 126.253906 C 106.128906 127.910156 111.0625 128.347656 113.191406 127.402344 C 111.90625 124.195312 109.105469 123.125 109.105469 123.125 Z M 109.105469 123.125 " fill-opacity="1" fill-rule="nonzero"/><path fill="#000000" d="M 77.652344 104.886719 C 74.757812 102.035156 71.132812 100.320312 66.863281 99.78125 C 66.304688 99.710938 65.765625 99.667969 65.253906 99.644531 C 64.992188 98.308594 64.757812 97.160156 64.578125 96.289062 C 65.367188 96.304688 66.230469 96.355469 67.144531 96.464844 C 71.074219 96.941406 74.640625 98.328125 77.652344 100.535156 C 77.65625 101.570312 77.65625 103.089844 77.652344 104.886719 Z M 77.652344 104.886719 " fill-opacity="1" fill-rule="nonzero"/><path fill="#000000" d="M 124.453125 89.90625 C 124.136719 91.261719 123.742188 92.566406 123.320312 93.769531 C 123.304688 93.8125 123.292969 93.851562 123.277344 93.890625 C 120.472656 95.050781 116.945312 97.003906 113.8125 99.453125 C 111.167969 101.523438 109.160156 103.460938 107.820312 104.945312 C 107.246094 103.757812 106.710938 102.597656 106.304688 101.703125 C 107.796875 100.171875 109.582031 98.566406 111.425781 97.101562 C 114.269531 94.84375 119.316406 91.292969 124.453125 89.902344 Z M 124.453125 89.90625 " fill-opacity="1" fill-rule="nonzero"/><path fill="#000000" d="M 119.648438 103.382812 C 115.746094 104.371094 111.839844 105.988281 108.992188 107.304688 C 109.109375 107.53125 109.226562 107.753906 109.34375 107.96875 C 109.816406 108.847656 110.125 109.621094 110.316406 110.363281 C 112.90625 109.160156 116.421875 107.6875 119.882812 106.746094 Z M 119.648438 103.382812 " fill-opacity="1" fill-rule="nonzero"/><path fill="#000000" d="M 120.3125 113.34375 C 120.171875 114.347656 119.855469 115.46875 119.429688 116.625 C 116.011719 116.449219 112.632812 116.941406 110.253906 117.429688 C 110.273438 117.246094 110.289062 117.058594 110.304688 116.871094 C 110.394531 115.757812 110.488281 114.820312 110.542969 113.980469 C 111.40625 113.820312 112.363281 113.667969 113.382812 113.546875 C 115.871094 113.25 118.1875 113.183594 120.3125 113.34375 Z M 120.3125 113.34375 " fill-opacity="1" fill-rule="nonzero"/><path fill="#000000" d="M 77.644531 106.175781 C 74.664062 105.050781 71.769531 104.910156 69.652344 105.042969 C 68.507812 105.113281 67.378906 105.28125 66.34375 105.519531 C 66.53125 106.59375 66.710938 107.695312 66.886719 108.804688 C 67.667969 108.613281 68.613281 108.449219 69.707031 108.375 C 71.785156 108.226562 74.730469 108.378906 77.605469 109.773438 Z M 77.644531 106.175781 " fill-opacity="1" fill-rule="nonzero"/><path fill="#000000" d="M 77.53125 113.710938 C 77.503906 114.867188 77.472656 116.023438 77.429688 117.144531 C 76.074219 116.695312 74.375 116.429688 72.480469 116.378906 C 70.488281 116.328125 68.882812 116.53125 67.90625 116.738281 L 67.546875 113.421875 C 70.117188 112.929688 74.117188 112.8125 77.53125 113.710938 Z M 77.53125 113.710938 " fill-opacity="1" fill-rule="nonzero"/><path fill="#4d4d4d" d="M 105.558594 100.199219 C 105.5 100.199219 105.445312 100.167969 105.414062 100.117188 C 105.3125 99.953125 102.910156 96.046875 102.675781 93.066406 C 102.667969 92.972656 102.734375 92.890625 102.828125 92.882812 C 102.925781 92.878906 103.003906 92.945312 103.011719 93.039062 C 103.242188 95.9375 105.675781 99.902344 105.699219 99.941406 C 105.75 100.019531 105.722656 100.125 105.644531 100.171875 C 105.617188 100.191406 105.585938 100.199219 105.558594 100.199219 Z M 105.558594 100.199219 " fill-opacity="1" fill-rule="nonzero"/><path fill="#4d4d4d" d="M 64.578125 96.460938 C 64.496094 96.460938 64.425781 96.398438 64.410156 96.316406 L 63.429688 89.929688 C 63.417969 89.835938 63.480469 89.75 63.574219 89.738281 C 63.664062 89.722656 63.75 89.785156 63.765625 89.878906 L 64.746094 96.265625 C 64.757812 96.355469 64.695312 96.441406 64.601562 96.457031 C 64.59375 96.457031 64.585938 96.460938 64.578125 96.460938 Z M 64.578125 96.460938 " fill-opacity="1" fill-rule="nonzero"/><path fill="#4d4d4d" d="M 77.652344 100.703125 C 77.558594 100.703125 77.484375 100.628906 77.484375 100.535156 L 77.488281 94.496094 C 77.488281 94.402344 77.5625 94.328125 77.65625 94.328125 C 77.75 94.328125 77.824219 94.402344 77.824219 94.496094 L 77.820312 100.535156 C 77.820312 100.628906 77.746094 100.703125 77.652344 100.703125 Z M 77.652344 100.703125 " fill-opacity="1" fill-rule="nonzero"/><path fill="#4d4d4d" d="M 124.867188 87.980469 C 124.859375 87.980469 124.851562 87.980469 124.839844 87.976562 C 124.75 87.964844 124.6875 87.878906 124.699219 87.785156 C 125.246094 84.082031 124.710938 82.210938 124.703125 82.191406 C 124.679688 82.101562 124.730469 82.007812 124.816406 81.980469 C 124.90625 81.953125 125 82.003906 125.027344 82.09375 C 125.050781 82.171875 125.589844 84.046875 125.03125 87.835938 C 125.019531 87.917969 124.949219 87.980469 124.867188 87.980469 Z M 124.867188 87.980469 " fill-opacity="1" fill-rule="nonzero"/></svg>