<svg xmlns="http://www.w3.org/2000/svg" xmlns:xlink="http://www.w3.org/1999/xlink" width="1920" zoomAndPan="magnify" viewBox="0 0 1440 809.999993" height="1080" preserveAspectRatio="xMidYMid meet" version="1.0"><defs><clipPath id="fd466fe44e"><path d="M 435 489 L 1005 489 L 1005 699.207031 L 435 699.207031 Z M 435 489 " clip-rule="nonzero"/></clipPath><clipPath id="d41c32363a"><path d="M 465 110.457031 L 983 110.457031 L 983 464 L 465 464 Z M 465 110.457031 " clip-rule="nonzero"/></clipPath><clipPath id="34244a3092"><path d="M 484.265625 144.1875 L 956.726562 144.1875 L 956.726562 417 L 484.265625 417 Z M 484.265625 144.1875 " clip-rule="nonzero"/></clipPath><clipPath id="de2fa1747b"><path d="M 512.714844 427.046875 L 927.953125 427.046875 C 943.582031 427.046875 956.25 414.386719 956.25 398.765625 L 956.25 173.238281 C 956.25 157.617188 943.582031 144.957031 927.953125 144.957031 L 512.714844 144.957031 C 497.085938 144.957031 484.417969 157.617188 484.417969 173.238281 L 484.417969 398.765625 C 484.417969 414.386719 497.085938 427.046875 512.714844 427.046875 Z M 512.714844 427.046875 " clip-rule="nonzero"/></clipPath><clipPath id="7cac946307"><path d="M 484.265625 144.1875 L 956.726562 144.1875 L 956.726562 427.886719 L 484.265625 427.886719 Z M 484.265625 144.1875 " clip-rule="nonzero"/></clipPath><clipPath id="56aa67bbb2"><path d="M 512.714844 427.046875 L 927.953125 427.046875 C 943.582031 427.046875 956.25 414.386719 956.25 398.765625 L 956.25 173.238281 C 956.25 157.617188 943.582031 144.957031 927.953125 144.957031 L 512.714844 144.957031 C 497.085938 144.957031 484.417969 157.617188 484.417969 173.238281 L 484.417969 398.765625 C 484.417969 414.386719 497.085938 427.046875 512.714844 427.046875 Z M 512.714844 427.046875 " clip-rule="nonzero"/></clipPath></defs><g clip-path="url(#fd466fe44e)"><path fill="#f7adb1" d="M 437.359375 656.28125 C 430.539062 677.972656 443.558594 695.828125 466.300781 695.972656 L 973.285156 699.152344 C 996.027344 699.296875 1009.277344 681.605469 1002.726562 659.832031 L 964.234375 531.941406 C 957.679688 510.171875 933.710938 492.246094 910.96875 492.105469 L 531.222656 489.714844 C 508.476562 489.570312 484.285156 507.199219 477.460938 528.878906 Z M 437.359375 656.28125 " fill-opacity="1" fill-rule="nonzero"/></g><path fill="#fdbfc0" d="M 437.480469 637.207031 C 430.652344 658.890625 443.679688 676.746094 466.421875 676.898438 L 973.40625 680.078125 C 996.148438 680.222656 1009.398438 662.527344 1002.84375 640.757812 L 964.351562 512.867188 C 957.800781 491.097656 933.832031 473.167969 911.089844 473.023438 L 531.34375 470.640625 C 508.597656 470.496094 484.40625 488.121094 477.582031 509.804688 Z M 437.480469 637.207031 " fill-opacity="1" fill-rule="nonzero"/><path fill="#f7d0d2" d="M 639.289062 658.519531 C 637.222656 665.078125 641.160156 670.472656 648.039062 670.519531 L 801.316406 671.480469 C 808.191406 671.523438 812.199219 666.175781 810.214844 659.59375 L 798.578125 620.929688 C 796.597656 614.347656 789.351562 608.925781 782.476562 608.882812 L 667.664062 608.160156 C 660.789062 608.117188 653.476562 613.445312 651.414062 620.003906 Z M 639.289062 658.519531 " fill-opacity="1" fill-rule="nonzero"/><path fill="#fa6c6a" d="M 917.003906 505.289062 L 895.5 505.15625 C 892.28125 505.136719 889.164062 502.855469 888.597656 500.09375 L 887.292969 493.820312 C 886.722656 491.058594 888.839844 488.816406 891.988281 488.835938 L 913.027344 488.964844 C 916.175781 488.988281 919.332031 491.265625 920.027344 494.027344 L 921.605469 500.304688 C 922.300781 503.066406 920.226562 505.3125 917.003906 505.289062 Z M 917.003906 505.289062 " fill-opacity="1" fill-rule="nonzero"/><path fill="#fa6c6a" d="M 875.957031 505.03125 L 854.457031 504.898438 C 851.230469 504.878906 848.25 502.601562 847.828125 499.839844 L 846.871094 493.566406 C 846.453125 490.808594 848.6875 488.5625 851.84375 488.582031 L 872.875 488.714844 C 876.027344 488.734375 879.054688 491.011719 879.601562 493.773438 L 880.832031 500.046875 C 881.378906 502.808594 879.179688 505.054688 875.957031 505.03125 Z M 875.957031 505.03125 " fill-opacity="1" fill-rule="nonzero"/><path fill="#fa6c6a" d="M 834.910156 504.773438 L 813.410156 504.640625 C 810.1875 504.621094 807.328125 502.34375 807.058594 499.585938 L 806.445312 493.308594 C 806.175781 490.554688 808.539062 488.3125 811.6875 488.328125 L 832.722656 488.460938 C 835.878906 488.484375 838.78125 490.761719 839.171875 493.519531 L 840.0625 499.792969 C 840.453125 502.550781 838.136719 504.792969 834.910156 504.773438 Z M 834.910156 504.773438 " fill-opacity="1" fill-rule="nonzero"/><path fill="#fa6c6a" d="M 793.867188 504.519531 L 772.367188 504.382812 C 769.140625 504.363281 766.40625 502.085938 766.285156 499.328125 L 766.019531 493.058594 C 765.898438 490.300781 768.382812 488.058594 771.542969 488.078125 L 792.574219 488.210938 C 795.722656 488.230469 798.503906 490.503906 798.746094 493.265625 L 799.289062 499.535156 C 799.53125 502.292969 797.089844 504.539062 793.867188 504.519531 Z M 793.867188 504.519531 " fill-opacity="1" fill-rule="nonzero"/><path fill="#fa6c6a" d="M 752.824219 504.257812 L 731.320312 504.125 C 728.097656 504.101562 725.484375 501.828125 725.515625 499.070312 L 725.59375 492.804688 C 725.625 490.046875 728.238281 487.808594 731.390625 487.824219 L 752.425781 487.957031 C 755.578125 487.976562 758.230469 490.253906 758.320312 493.007812 L 758.523438 499.277344 C 758.609375 502.035156 756.046875 504.28125 752.824219 504.257812 Z M 752.824219 504.257812 " fill-opacity="1" fill-rule="nonzero"/><path fill="#fa6c6a" d="M 711.777344 504 L 690.269531 503.867188 C 687.054688 503.84375 684.566406 501.574219 684.746094 498.816406 L 685.167969 492.550781 C 685.351562 489.792969 688.082031 487.554688 691.242188 487.574219 L 712.269531 487.707031 C 715.425781 487.726562 717.957031 490 717.890625 492.753906 L 717.753906 499.023438 C 717.691406 501.78125 715.003906 504.019531 711.777344 504 Z M 711.777344 504 " fill-opacity="1" fill-rule="nonzero"/><path fill="#fa6c6a" d="M 670.726562 503.746094 L 649.230469 503.605469 C 645.996094 503.589844 643.640625 501.316406 643.980469 498.558594 L 644.742188 492.292969 C 645.074219 489.542969 647.925781 487.300781 651.085938 487.324219 L 672.121094 487.453125 C 675.277344 487.472656 677.675781 489.746094 677.457031 492.5 L 676.972656 498.765625 C 676.765625 501.519531 673.957031 503.765625 670.726562 503.746094 Z M 670.726562 503.746094 " fill-opacity="1" fill-rule="nonzero"/><path fill="#fa6c6a" d="M 636.210938 498.511719 C 635.847656 501.265625 632.910156 503.503906 629.675781 503.488281 L 608.183594 503.347656 C 604.957031 503.328125 602.71875 501.058594 603.207031 498.300781 L 604.3125 492.042969 C 604.800781 489.289062 607.777344 487.046875 610.933594 487.070312 L 631.960938 487.203125 C 635.121094 487.222656 637.402344 489.492188 637.042969 492.246094 Z M 636.210938 498.511719 " fill-opacity="1" fill-rule="nonzero"/><path fill="#fa6c6a" d="M 595.441406 498.253906 C 594.921875 501.011719 591.863281 503.246094 588.640625 503.226562 L 567.132812 503.089844 C 563.910156 503.070312 561.796875 500.796875 562.4375 498.046875 L 563.882812 491.789062 C 564.523438 489.035156 567.628906 486.800781 570.789062 486.816406 L 591.8125 486.949219 C 594.972656 486.96875 597.128906 489.238281 596.613281 491.992188 Z M 595.441406 498.253906 " fill-opacity="1" fill-rule="nonzero"/><path fill="#fa6c6a" d="M 554.667969 498 C 554 500.753906 550.816406 502.988281 547.585938 502.964844 L 526.09375 502.832031 C 522.863281 502.816406 520.871094 500.546875 521.667969 497.789062 L 523.457031 491.535156 C 524.25 488.78125 527.476562 486.542969 530.640625 486.5625 L 551.664062 486.695312 C 554.820312 486.714844 556.855469 488.988281 556.1875 491.734375 Z M 554.667969 498 " fill-opacity="1" fill-rule="nonzero"/><path fill="#fa6c6a" d="M 924.859375 537.511719 L 902.425781 537.367188 C 899.066406 537.347656 895.839844 535.066406 895.269531 532.3125 L 891.890625 515.992188 C 891.316406 513.230469 893.511719 510.988281 896.761719 511.011719 L 918.429688 511.148438 C 921.679688 511.167969 924.914062 513.445312 925.605469 516.203125 L 929.710938 532.527344 C 930.40625 535.289062 928.21875 537.527344 924.859375 537.511719 Z M 924.859375 537.511719 " fill-opacity="1" fill-rule="nonzero"/><path fill="#fa6c6a" d="M 882.046875 537.238281 L 859.621094 537.097656 C 856.253906 537.074219 853.15625 534.800781 852.738281 532.042969 L 850.25 515.734375 C 849.832031 512.972656 852.144531 510.730469 855.398438 510.75 L 877.066406 510.890625 C 880.3125 510.910156 883.421875 513.1875 883.964844 515.945312 L 887.171875 532.257812 C 887.71875 535.023438 885.40625 537.261719 882.046875 537.238281 Z M 882.046875 537.238281 " fill-opacity="1" fill-rule="nonzero"/><path fill="#fa6c6a" d="M 839.234375 536.976562 L 816.804688 536.832031 C 813.441406 536.808594 810.472656 534.53125 810.199219 531.777344 L 808.609375 515.46875 C 808.339844 512.714844 810.777344 510.46875 814.027344 510.488281 L 835.695312 510.625 C 838.945312 510.644531 841.925781 512.921875 842.320312 515.679688 L 844.636719 531.992188 C 845.027344 534.75 842.597656 536.992188 839.234375 536.976562 Z M 839.234375 536.976562 " fill-opacity="1" fill-rule="nonzero"/><path fill="#fa6c6a" d="M 796.417969 536.703125 L 773.992188 536.558594 C 770.632812 536.539062 767.785156 534.265625 767.667969 531.507812 L 766.964844 515.207031 C 766.847656 512.457031 769.414062 510.210938 772.664062 510.230469 L 794.332031 510.367188 C 797.578125 510.386719 800.4375 512.664062 800.675781 515.417969 L 802.101562 531.722656 C 802.339844 534.484375 799.785156 536.722656 796.417969 536.703125 Z M 796.417969 536.703125 " fill-opacity="1" fill-rule="nonzero"/><path fill="#fa6c6a" d="M 753.609375 536.433594 L 731.183594 536.289062 C 727.820312 536.273438 725.097656 533.992188 725.125 531.242188 L 725.324219 514.941406 C 725.359375 512.191406 728.046875 509.953125 731.292969 509.964844 L 752.964844 510.101562 C 756.214844 510.128906 758.945312 512.398438 759.035156 515.160156 L 759.5625 531.457031 C 759.652344 534.214844 756.972656 536.449219 753.609375 536.433594 Z M 753.609375 536.433594 " fill-opacity="1" fill-rule="nonzero"/><path fill="#fa6c6a" d="M 689.933594 509.710938 L 711.597656 509.84375 C 714.847656 509.863281 717.460938 512.144531 717.398438 514.894531 L 717.035156 531.191406 C 716.972656 533.945312 714.160156 536.183594 710.800781 536.160156 L 688.375 536.019531 C 685.011719 536.003906 682.40625 533.726562 682.59375 530.980469 L 683.683594 514.683594 C 683.867188 511.933594 686.675781 509.691406 689.933594 509.710938 Z M 689.933594 509.710938 " fill-opacity="1" fill-rule="nonzero"/><path fill="#fa6c6a" d="M 670.226562 509.589844 C 673.484375 509.605469 675.964844 511.878906 675.753906 514.632812 L 674.488281 530.925781 C 674.273438 533.675781 671.351562 535.914062 667.988281 535.890625 L 645.5625 535.753906 C 642.191406 535.730469 639.71875 533.457031 640.054688 530.707031 L 642.039062 514.421875 C 642.375 511.667969 645.308594 509.429688 648.566406 509.449219 Z M 670.226562 509.589844 " fill-opacity="1" fill-rule="nonzero"/><path fill="#fa6c6a" d="M 628.863281 509.324219 C 632.113281 509.34375 634.472656 511.621094 634.105469 514.371094 L 631.953125 530.65625 C 631.585938 533.40625 628.539062 535.648438 625.175781 535.621094 L 602.753906 535.484375 C 599.386719 535.460938 597.035156 533.191406 597.519531 530.441406 L 600.398438 514.160156 C 600.882812 511.410156 603.949219 509.171875 607.195312 509.191406 Z M 628.863281 509.324219 " fill-opacity="1" fill-rule="nonzero"/><path fill="#fa6c6a" d="M 587.496094 509.066406 C 590.746094 509.089844 592.984375 511.359375 592.46875 514.109375 L 589.414062 530.390625 C 588.898438 533.140625 585.726562 535.375 582.363281 535.355469 L 517.875 534.953125 C 514.507812 534.929688 512.394531 532.660156 513.183594 529.910156 L 517.839844 513.640625 C 518.628906 510.894531 521.933594 508.65625 525.1875 508.671875 Z M 587.496094 509.066406 " fill-opacity="1" fill-rule="nonzero"/><path fill="#fa6c6a" d="M 932.996094 569.625 L 881.769531 569.300781 C 878.269531 569.28125 875.007812 567.003906 874.53125 564.242188 L 871.699219 547.925781 C 871.226562 545.175781 873.609375 542.925781 876.996094 542.949219 L 926.558594 543.261719 C 929.949219 543.285156 933.289062 545.5625 933.984375 548.320312 L 938.097656 564.640625 C 938.792969 567.402344 936.5 569.648438 932.996094 569.625 Z M 932.996094 569.625 " fill-opacity="1" fill-rule="nonzero"/><path fill="#fa6c6a" d="M 827.554688 563.960938 L 825.632812 547.652344 C 825.308594 544.902344 827.820312 542.652344 831.207031 542.675781 L 853.800781 542.820312 C 857.1875 542.835938 860.328125 545.117188 860.773438 547.871094 L 863.421875 564.183594 C 863.871094 566.945312 861.371094 569.1875 857.867188 569.164062 L 834.519531 569.023438 C 831.019531 568.996094 827.882812 566.722656 827.554688 563.960938 Z M 827.554688 563.960938 " fill-opacity="1" fill-rule="nonzero"/><path fill="#fa6c6a" d="M 810.671875 542.546875 C 814.0625 542.570312 817.078125 544.851562 817.371094 547.605469 L 819.121094 563.90625 C 819.421875 566.667969 816.800781 568.910156 813.296875 568.886719 L 789.949219 568.738281 C 786.445312 568.71875 783.4375 566.441406 783.265625 563.683594 L 782.238281 547.382812 C 782.0625 544.625 784.695312 542.382812 788.082031 542.40625 Z M 810.671875 542.546875 " fill-opacity="1" fill-rule="nonzero"/><path fill="#fa6c6a" d="M 765.390625 542.273438 C 768.78125 542.292969 771.671875 544.574219 771.816406 547.332031 L 772.675781 563.636719 C 772.820312 566.390625 770.074219 568.628906 766.570312 568.601562 L 743.222656 568.453125 C 739.722656 568.441406 736.835938 566.160156 736.8125 563.402344 L 736.679688 547.109375 C 736.65625 544.355469 739.417969 542.117188 742.800781 542.132812 Z M 765.390625 542.273438 " fill-opacity="1" fill-rule="nonzero"/><path fill="#fa6c6a" d="M 697.511719 541.867188 L 720.109375 542.003906 C 723.503906 542.023438 726.265625 544.304688 726.257812 547.054688 L 726.21875 563.351562 C 726.210938 566.109375 723.347656 568.347656 719.84375 568.324219 L 696.492188 568.175781 C 692.992188 568.15625 690.234375 565.882812 690.363281 563.125 L 691.121094 546.835938 C 691.253906 544.078125 694.128906 541.835938 697.511719 541.867188 Z M 697.511719 541.867188 " fill-opacity="1" fill-rule="nonzero"/><path fill="#fa6c6a" d="M 654.390625 541.597656 L 676.980469 541.734375 C 680.371094 541.757812 683.015625 544.03125 682.855469 546.789062 L 681.925781 563.070312 C 681.765625 565.832031 678.773438 568.066406 675.273438 568.046875 L 651.925781 567.898438 C 648.429688 567.875 645.78125 565.597656 646.0625 562.847656 L 647.722656 546.5625 C 648 543.8125 651.007812 541.566406 654.390625 541.597656 Z M 654.390625 541.597656 " fill-opacity="1" fill-rule="nonzero"/><path fill="#fa6c6a" d="M 609.109375 541.324219 L 631.707031 541.460938 C 635.089844 541.484375 637.613281 543.761719 637.308594 546.511719 L 635.480469 562.792969 C 635.171875 565.550781 632.050781 567.785156 628.546875 567.765625 L 605.195312 567.621094 C 601.699219 567.59375 599.1875 565.320312 599.617188 562.566406 L 602.167969 546.292969 C 602.601562 543.539062 605.722656 541.300781 609.109375 541.324219 Z M 609.109375 541.324219 " fill-opacity="1" fill-rule="nonzero"/><path fill="#fa6c6a" d="M 589.585938 546.242188 L 586.871094 562.515625 C 586.40625 565.269531 583.164062 567.503906 579.664062 567.484375 L 556.320312 567.34375 C 552.8125 567.316406 550.421875 565.042969 551.007812 562.292969 L 554.449219 546.015625 C 555.03125 543.265625 558.28125 541.027344 561.679688 541.046875 L 584.265625 541.191406 C 587.652344 541.210938 590.046875 543.488281 589.585938 546.242188 Z M 589.585938 546.242188 " fill-opacity="1" fill-rule="nonzero"/><path fill="#fa6c6a" d="M 544.339844 546.242188 L 541.628906 562.515625 C 541.160156 565.269531 537.917969 567.503906 534.417969 567.484375 L 511.074219 567.34375 C 507.566406 567.316406 505.179688 565.042969 505.765625 562.292969 L 509.207031 546.015625 C 509.789062 543.265625 513.039062 541.027344 516.4375 541.046875 L 539.019531 541.191406 C 542.40625 541.210938 544.800781 543.488281 544.339844 546.242188 Z M 544.339844 546.242188 " fill-opacity="1" fill-rule="nonzero"/><path fill="#fa6c6a" d="M 537.878906 578.542969 L 535.164062 594.816406 C 534.699219 597.570312 531.457031 599.804688 527.957031 599.785156 L 504.613281 599.640625 C 501.105469 599.617188 498.714844 597.34375 499.300781 594.59375 L 502.742188 578.316406 C 503.324219 575.566406 506.574219 573.328125 509.972656 573.347656 L 532.558594 573.492188 C 535.945312 573.511719 538.339844 575.789062 537.878906 578.542969 Z M 537.878906 578.542969 " fill-opacity="1" fill-rule="nonzero"/><path fill="#fa6c6a" d="M 911.519531 574.925781 L 935.019531 575.074219 C 938.546875 575.09375 942.003906 577.371094 942.699219 580.132812 L 946.828125 596.457031 C 947.523438 599.21875 945.121094 601.453125 941.476562 601.429688 L 917.21875 601.277344 C 913.574219 601.257812 910.128906 598.984375 909.554688 596.222656 L 906.152344 579.902344 C 905.578125 577.144531 907.992188 574.90625 911.519531 574.925781 Z M 911.519531 574.925781 " fill-opacity="1" fill-rule="nonzero"/><path fill="#fa6c6a" d="M 866.648438 574.640625 L 890.152344 574.792969 C 893.679688 574.816406 897.007812 577.085938 897.554688 579.847656 L 900.785156 596.164062 C 901.332031 598.925781 898.804688 601.164062 895.164062 601.144531 L 870.902344 600.984375 C 867.269531 600.964844 863.941406 598.691406 863.515625 595.9375 L 861.007812 579.613281 C 860.585938 576.859375 863.128906 574.621094 866.648438 574.640625 Z M 866.648438 574.640625 " fill-opacity="1" fill-rule="nonzero"/><path fill="#fa6c6a" d="M 642.738281 573.238281 L 844.941406 574.507812 C 848.46875 574.527344 851.675781 576.800781 852.070312 579.558594 L 854.402344 595.871094 C 854.792969 598.628906 852.136719 600.871094 848.496094 600.847656 L 639.785156 599.53125 C 636.144531 599.511719 633.441406 597.238281 633.769531 594.484375 L 635.726562 578.203125 C 636.058594 575.449219 639.210938 573.210938 642.738281 573.238281 Z M 642.738281 573.238281 " fill-opacity="1" fill-rule="nonzero"/><path fill="#fa6c6a" d="M 593.425781 577.902344 C 593.914062 575.152344 597.199219 572.921875 600.722656 572.945312 L 624.222656 573.09375 C 627.753906 573.117188 630.335938 575.386719 629.972656 578.136719 L 627.8125 594.421875 C 627.445312 597.179688 624.175781 599.410156 620.535156 599.386719 L 596.277344 599.234375 C 592.640625 599.210938 590.054688 596.945312 590.546875 594.1875 Z M 593.425781 577.902344 " fill-opacity="1" fill-rule="nonzero"/><path fill="#fa6c6a" d="M 548.277344 577.621094 C 548.917969 574.875 552.324219 572.644531 555.847656 572.664062 L 579.359375 572.8125 C 582.878906 572.832031 585.339844 575.101562 584.824219 577.855469 L 581.773438 594.136719 C 581.257812 596.886719 577.859375 599.121094 574.222656 599.089844 L 549.957031 598.941406 C 546.316406 598.917969 543.867188 596.652344 544.503906 593.894531 Z M 548.277344 577.621094 " fill-opacity="1" fill-rule="nonzero"/><g clip-path="url(#d41c32363a)"><path fill="#fdbfc0" d="M 491.386719 463.65625 L 955.746094 463.65625 C 970.304688 463.65625 982.105469 451.859375 982.105469 437.3125 L 982.105469 136.84375 C 982.105469 122.296875 970.304688 110.5 955.746094 110.5 L 491.386719 110.5 C 476.828125 110.5 465.027344 122.296875 465.027344 136.84375 L 465.027344 437.3125 C 465.027344 451.859375 476.828125 463.65625 491.386719 463.65625 Z M 491.386719 463.65625 " fill-opacity="1" fill-rule="nonzero"/></g><path fill="#ffffff" d="M 512.714844 427.046875 L 927.953125 427.046875 C 943.582031 427.046875 956.25 414.386719 956.25 398.765625 L 956.25 173.238281 C 956.25 157.617188 943.582031 144.957031 927.953125 144.957031 L 512.714844 144.957031 C 497.085938 144.957031 484.417969 157.617188 484.417969 173.238281 L 484.417969 398.765625 C 484.417969 414.386719 497.085938 427.046875 512.714844 427.046875 Z M 512.714844 427.046875 " fill-opacity="1" fill-rule="nonzero"/><g clip-path="url(#34244a3092)"><g clip-path="url(#de2fa1747b)"><path fill="#4674b9" d="M 999.65625 381.964844 L 978.441406 416.320312 L 422 73.058594 L 443.214844 38.703125 Z M 999.65625 381.964844 " fill-opacity="0.03" fill-rule="nonzero"/></g></g><g clip-path="url(#7cac946307)"><g clip-path="url(#56aa67bbb2)"><path fill="#4674b9" d="M 991.855469 468.414062 L 955.453125 527.363281 L 399.011719 184.105469 L 435.414062 125.152344 Z M 991.855469 468.414062 " fill-opacity="0.03" fill-rule="nonzero"/></g></g><path fill="#f7d0d2" d="M 730.03125 126.652344 C 730.03125 127.429688 729.953125 128.199219 729.800781 128.960938 C 729.652344 129.726562 729.425781 130.464844 729.128906 131.183594 C 728.832031 131.902344 728.464844 132.585938 728.03125 133.230469 C 727.601562 133.878906 727.109375 134.476562 726.558594 135.027344 C 726.007812 135.578125 725.410156 136.066406 724.761719 136.5 C 724.117188 136.933594 723.433594 137.296875 722.714844 137.59375 C 721.996094 137.890625 721.253906 138.117188 720.492188 138.269531 C 719.730469 138.417969 718.957031 138.496094 718.179688 138.496094 C 717.402344 138.496094 716.632812 138.417969 715.867188 138.269531 C 715.105469 138.117188 714.363281 137.890625 713.644531 137.59375 C 712.925781 137.296875 712.242188 136.933594 711.597656 136.5 C 710.949219 136.066406 710.351562 135.578125 709.800781 135.027344 C 709.25 134.476562 708.761719 133.878906 708.328125 133.230469 C 707.894531 132.585938 707.53125 131.902344 707.234375 131.183594 C 706.933594 130.464844 706.710938 129.726562 706.558594 128.960938 C 706.40625 128.199219 706.332031 127.429688 706.332031 126.652344 C 706.332031 125.875 706.40625 125.105469 706.558594 124.339844 C 706.710938 123.578125 706.933594 122.839844 707.234375 122.121094 C 707.53125 121.402344 707.894531 120.71875 708.328125 120.074219 C 708.761719 119.425781 709.25 118.828125 709.800781 118.277344 C 710.351562 117.726562 710.949219 117.238281 711.597656 116.804688 C 712.242188 116.371094 712.925781 116.007812 713.644531 115.710938 C 714.363281 115.414062 715.105469 115.1875 715.867188 115.035156 C 716.632812 114.882812 717.402344 114.808594 718.179688 114.808594 C 718.957031 114.808594 719.730469 114.882812 720.492188 115.035156 C 721.253906 115.1875 721.996094 115.414062 722.714844 115.710938 C 723.433594 116.007812 724.117188 116.371094 724.761719 116.804688 C 725.410156 117.238281 726.007812 117.726562 726.558594 118.277344 C 727.109375 118.828125 727.601562 119.425781 728.03125 120.074219 C 728.464844 120.71875 728.832031 121.402344 729.128906 122.121094 C 729.425781 122.839844 729.652344 123.578125 729.800781 124.339844 C 729.953125 125.105469 730.03125 125.875 730.03125 126.652344 Z M 730.03125 126.652344 " fill-opacity="1" fill-rule="nonzero"/><path fill="#fa6c6a" d="M 853.917969 478.726562 L 896.996094 478.726562 C 898.785156 478.726562 900.234375 477.28125 900.234375 475.492188 L 900.234375 462.582031 C 900.234375 460.796875 898.785156 459.347656 896.996094 459.347656 L 853.917969 459.347656 C 852.128906 459.347656 850.679688 460.796875 850.679688 462.582031 L 850.679688 475.492188 C 850.679688 477.28125 852.128906 478.726562 853.917969 478.726562 Z M 853.917969 478.726562 " fill-opacity="1" fill-rule="nonzero"/><path fill="#fa6c6a" d="M 547.980469 478.726562 L 591.0625 478.726562 C 592.847656 478.726562 594.296875 477.28125 594.296875 475.492188 L 594.296875 462.582031 C 594.296875 460.796875 592.847656 459.347656 591.0625 459.347656 L 547.980469 459.347656 C 546.191406 459.347656 544.746094 460.796875 544.746094 462.582031 L 544.746094 475.492188 C 544.746094 477.28125 546.191406 478.726562 547.980469 478.726562 Z M 547.980469 478.726562 " fill-opacity="1" fill-rule="nonzero"/></svg>