<svg xmlns="http://www.w3.org/2000/svg" xmlns:xlink="http://www.w3.org/1999/xlink" width="1920" zoomAndPan="magnify" viewBox="0 0 1440 809.999993" height="1080" preserveAspectRatio="xMidYMid meet" version="1.0"><defs><clipPath id="cc63b82f05"><path d="M 788 255 L 1119.429688 255 L 1119.429688 654 L 788 654 Z M 788 255 " clip-rule="nonzero"/></clipPath></defs><path fill="#ff3d00" d="M 652.511719 568.132812 L 561.449219 298.0625 C 552.683594 270.722656 536.59375 239.367188 489.628906 239.367188 C 441.585938 239.367188 425.3125 272.945312 417.308594 297.996094 L 327.359375 568 C 321.308594 585.507812 323.53125 604.128906 333.273438 617.839844 C 342.074219 630.210938 356.226562 637.308594 372.117188 637.308594 C 397.375 637.308594 414.507812 622.914062 423.058594 594.363281 L 434.675781 554.402344 L 544.082031 554.402344 L 556.394531 594.941406 C 565.675781 623.0625 582.578125 637.308594 606.605469 637.308594 C 622.679688 637.308594 636.46875 630.675781 645.433594 618.621094 C 655.359375 605.273438 658.0625 586.601562 652.511719 568.132812 Z M 461.40625 471.5 L 489.644531 381.5625 L 518.363281 471.5 Z M 461.40625 471.5 " fill-opacity="1" fill-rule="nonzero"/><g clip-path="url(#cc63b82f05)"><path fill="#689f38" d="M 983.113281 653.886719 C 870.0625 653.886719 788 570.089844 788 454.652344 C 788 339.515625 870.0625 255.949219 983.113281 255.949219 C 1024.542969 255.949219 1059.890625 265.546875 1089.816406 286.175781 C 1109.753906 299.953125 1119.429688 315.640625 1119.429688 334.125 C 1119.429688 359.164062 1100.820312 378.015625 1076.128906 378.015625 C 1059.324219 378.015625 1046.945312 370.4375 1037.003906 364.335938 C 1021.773438 354.636719 1006.59375 349.097656 984.171875 349.097656 C 926.289062 349.097656 887.414062 391.53125 887.414062 454.652344 C 887.414062 518.089844 926.304688 560.71875 984.171875 560.71875 C 1008.601562 560.71875 1021.558594 555.5625 1036.9375 546.0625 C 1046.566406 539.8125 1058.929688 531.804688 1075.597656 531.804688 C 1100.175781 531.804688 1119.429688 551.320312 1119.429688 576.238281 C 1119.429688 594.941406 1109.503906 610.660156 1089.070312 624.308594 C 1061.496094 643.589844 1024.757812 653.886719 983.113281 653.886719 Z M 983.113281 653.886719 " fill-opacity="1" fill-rule="nonzero"/></g><path fill="#ffc107" d="M 710.777344 554.402344 L 622.765625 554.402344 C 593.679688 554.402344 572.570312 533.695312 572.570312 505.15625 L 572.570312 205.160156 C 572.570312 176.941406 593.679688 156.464844 622.765625 156.464844 L 701.808594 156.464844 C 823.925781 156.464844 849.5625 220.265625 849.5625 273.773438 C 849.5625 301.378906 839.1875 325.984375 819.867188 345.203125 C 852.578125 365.164062 870.855469 395.773438 870.855469 432.101562 C 870.855469 513.265625 817 554.402344 710.777344 554.402344 Z M 672.976562 463.125 L 715.828125 463.125 C 765.230469 463.125 769.324219 447.40625 769.324219 429.882812 C 769.324219 420.265625 769.324219 397.746094 715.265625 397.746094 L 672.976562 397.746094 Z M 672 305.691406 L 705.324219 305.691406 C 743.472656 305.691406 749.703125 289.789062 749.703125 272.527344 C 749.703125 255.601562 744.980469 239.367188 699.722656 239.367188 L 672 239.367188 Z M 672 305.691406 " fill-opacity="1" fill-rule="nonzero"/></svg>