<svg xmlns="http://www.w3.org/2000/svg" xmlns:xlink="http://www.w3.org/1999/xlink" width="1920" zoomAndPan="magnify" viewBox="0 0 1440 809.999993" height="1080" preserveAspectRatio="xMidYMid meet" version="1.0"><path fill="#7db4e8" d="M 397.539062 487.800781 C 397.539062 487.800781 397.167969 488.75 396.550781 490.523438 C 392.710938 501.296875 379.421875 543.070312 385.488281 587.652344 C 385.488281 587.652344 387.46875 611.84375 426.765625 599.292969 C 467.421875 586.25 497.59375 577.210938 518.148438 556.117188 C 538.703125 535.023438 397.539062 487.800781 397.539062 487.800781 Z M 397.539062 487.800781 " fill-opacity="1" fill-rule="nonzero"/><path stroke-linecap="round" transform="matrix(4.127591, 0, 0, 4.127848, 306.733642, 156.045144)" fill="none" stroke-linejoin="round" d="M 67.759702 60.68011 C 67.759702 60.810702 67.748346 60.941294 67.725633 61.071885 C 67.70292 61.202477 67.66885 61.332122 67.623424 61.460821 C 67.577052 61.588574 67.521216 61.71538 67.453077 61.84124 C 67.384938 61.966154 67.306389 62.090122 67.217429 62.210304 C 67.127524 62.331432 67.028154 62.449722 66.918375 62.565172 C 66.807649 62.681569 66.688406 62.793235 66.558752 62.902061 C 66.429099 63.010887 66.289982 63.115928 66.141401 63.217184 C 65.993766 63.31844 65.836668 63.415911 65.671999 63.50865 C 65.506383 63.601389 65.334143 63.689396 65.153385 63.771726 C 64.972627 63.855001 64.785245 63.933546 64.591238 64.005466 C 64.397231 64.078332 64.196599 64.14552 63.991236 64.207977 C 63.784926 64.269488 63.573885 64.325321 63.358111 64.375475 C 63.142337 64.42563 62.922778 64.470107 62.699434 64.50796 C 62.476089 64.545812 62.249906 64.577987 62.020883 64.603538 C 61.79186 64.629088 61.560944 64.648014 61.329082 64.660316 C 61.096274 64.673565 60.863466 64.680189 60.629711 64.680189 C 60.396903 64.680189 60.163148 64.673565 59.931286 64.660316 C 59.698478 64.648014 59.467562 64.629088 59.238539 64.603538 C 59.009516 64.577987 58.783333 64.545812 58.559988 64.50796 C 58.336644 64.470107 58.117085 64.42563 57.901311 64.375475 C 57.685537 64.325321 57.474496 64.269488 57.269132 64.207977 C 57.062822 64.14552 56.863137 64.078332 56.66913 64.005466 C 56.474177 63.933546 56.287741 63.855001 56.106983 63.771726 C 55.926226 63.689396 55.753039 63.601389 55.58837 63.50865 C 55.422754 63.415911 55.266602 63.31844 55.118021 63.217184 C 54.970387 63.115928 54.83127 63.010887 54.701616 62.902061 C 54.571963 62.793235 54.451773 62.681569 54.341994 62.565172 C 54.232214 62.449722 54.131898 62.331432 54.042939 62.210304 C 53.953033 62.090122 53.874484 61.966154 53.807291 61.84124 C 53.739152 61.71538 53.68237 61.588574 53.636944 61.460821 C 53.591518 61.332122 53.557448 61.202477 53.534735 61.071885 C 53.511076 60.941294 53.49972 60.810702 53.49972 60.68011 C 53.49972 60.548572 53.511076 60.417981 53.534735 60.288335 C 53.557448 60.157744 53.591518 60.028098 53.636944 59.899399 C 53.68237 59.7707 53.739152 59.643894 53.807291 59.51898 C 53.874484 59.39312 53.953033 59.270099 54.042939 59.148971 C 54.131898 59.027842 54.232214 58.909553 54.341994 58.794102 C 54.451773 58.678651 54.571963 58.566986 54.701616 58.45816 C 54.83127 58.348387 54.970387 58.243346 55.118021 58.14209 C 55.266602 58.040834 55.422754 57.94431 55.58837 57.851571 C 55.753039 57.758832 55.926226 57.670825 56.106983 57.587549 C 56.287741 57.505219 56.474177 57.426675 56.66913 57.353809 C 56.863137 57.280942 57.062822 57.213754 57.269132 57.152243 C 57.474496 57.090733 57.685537 57.0349 57.901311 56.984745 C 58.117085 56.934591 58.336644 56.890114 58.559988 56.852261 C 58.783333 56.814408 59.009516 56.782234 59.238539 56.756683 C 59.467562 56.731133 59.698478 56.712206 59.931286 56.698958 C 60.163148 56.686656 60.396903 56.680031 60.629711 56.680031 C 60.863466 56.680031 61.096274 56.686656 61.329082 56.698958 C 61.560944 56.712206 61.79186 56.731133 62.020883 56.756683 C 62.249906 56.782234 62.476089 56.814408 62.699434 56.852261 C 62.922778 56.890114 63.142337 56.934591 63.358111 56.984745 C 63.573885 57.0349 63.784926 57.090733 63.991236 57.152243 C 64.196599 57.213754 64.397231 57.280942 64.591238 57.353809 C 64.785245 57.426675 64.972627 57.505219 65.153385 57.587549 C 65.334143 57.670825 65.506383 57.758832 65.671999 57.851571 C 65.836668 57.94431 65.993766 58.040834 66.141401 58.14209 C 66.289982 58.243346 66.429099 58.348387 66.558752 58.45816 C 66.688406 58.566986 66.807649 58.678651 66.918375 58.794102 C 67.028154 58.909553 67.127524 59.027842 67.217429 59.148971 C 67.306389 59.270099 67.384938 59.39312 67.453077 59.51898 C 67.521216 59.643894 67.577052 59.7707 67.623424 59.899399 C 67.66885 60.028098 67.70292 60.157744 67.725633 60.288335 C 67.748346 60.417981 67.759702 60.548572 67.759702 60.68011 Z M 67.759702 60.68011 " stroke="#231f20" stroke-width="2.5" stroke-opacity="1" stroke-miterlimit="4"/><path fill="#dfe3e8" d="M 904.410156 511.867188 C 887.898438 520.617188 869.078125 529.988281 847.324219 540.019531 C 824.789062 550.320312 801.621094 558.90625 777.816406 565.773438 C 739.6875 576.699219 700.816406 583.222656 661.210938 585.339844 C 556.535156 591.121094 459.742188 564.703125 405.300781 516.820312 C 395.789062 508.511719 386.824219 499.652344 378.40625 490.238281 C 369.988281 480.820312 362.179688 470.925781 354.984375 460.546875 C 347.789062 450.167969 341.261719 439.382812 335.398438 428.199219 C 329.535156 417.011719 324.382812 405.507812 319.941406 393.683594 L 365.34375 334.78125 L 840.019531 425.59375 Z M 904.410156 511.867188 " fill-opacity="1" fill-rule="nonzero"/><path fill="#7db4e8" d="M 1126.925781 450.648438 C 1064.148438 494.527344 1003.882812 443.632812 1003.882812 443.632812 C 1003.882812 443.632812 983.246094 469.761719 904.410156 511.867188 C 825.984375 540.761719 764.441406 537.003906 764.441406 537.003906 C 770.539062 545.878906 774.996094 555.507812 777.816406 565.898438 C 787.390625 599.871094 778.847656 635.039062 774.058594 650.394531 C 773.882812 650.953125 773.65625 651.492188 773.378906 652.007812 C 773.105469 652.523438 772.785156 653.011719 772.417969 653.46875 C 772.054688 653.929688 771.652344 654.351562 771.210938 654.734375 C 770.769531 655.117188 770.296875 655.460938 769.792969 655.757812 C 769.289062 656.054688 768.761719 656.304688 768.210938 656.507812 C 767.664062 656.710938 767.097656 656.859375 766.523438 656.960938 C 765.945312 657.058594 765.363281 657.105469 764.777344 657.097656 C 764.191406 657.089844 763.613281 657.03125 763.039062 656.917969 C 708.390625 645.9375 678.21875 616.175781 661.210938 585.339844 C 657.714844 578.738281 654.644531 571.945312 651.992188 564.960938 C 649.34375 557.976562 647.140625 550.855469 645.378906 543.59375 C 643.617188 536.335938 642.316406 528.996094 641.46875 521.574219 C 640.625 514.148438 640.242188 506.703125 640.324219 499.234375 C 611.433594 484.167969 496.230469 402.847656 438.980469 384.769531 C 382.558594 367.0625 321.675781 392.902344 319.941406 393.683594 C 302.605469 345.265625 301.90625 297.835938 320.972656 263.863281 C 357.132812 199.59375 461.601562 191.542969 547.992188 200.585938 C 569.054688 203.15625 589.773438 207.394531 610.152344 213.296875 C 628.398438 193.980469 678.21875 151.917969 762.914062 156.417969 C 866.105469 162.070312 767.539062 193.566406 762.914062 271.460938 C 802.664062 290.324219 838.285156 310.386719 862.472656 328.136719 C 930.742188 378.328125 979.945312 378.328125 979.945312 378.328125 C 990.511719 325.617188 1030.671875 295.773438 1056.261719 281.902344 C 1081.855469 268.035156 1132.417969 269.726562 1112.027344 289.953125 C 1105.386719 296.429688 1099.304688 303.394531 1093.785156 310.851562 C 1088.265625 318.304688 1083.375 326.15625 1079.117188 334.398438 C 1074.859375 342.640625 1071.289062 351.167969 1068.402344 359.984375 C 1065.519531 368.800781 1063.355469 377.792969 1061.917969 386.957031 C 1070.171875 399.339844 1092.542969 417.792969 1117.558594 430.589844 C 1137.949219 441.113281 1126.925781 450.648438 1126.925781 450.648438 Z M 1126.925781 450.648438 " fill-opacity="1" fill-rule="nonzero"/><path fill="#143f65" d="M 665.460938 465.015625 C 664.480469 465.039062 663.597656 464.75 662.820312 464.148438 C 662.578125 463.980469 662.355469 463.789062 662.148438 463.574219 C 661.945312 463.359375 661.761719 463.128906 661.601562 462.878906 C 661.441406 462.628906 661.308594 462.367188 661.199219 462.09375 C 661.09375 461.816406 661.011719 461.535156 660.960938 461.242188 C 660.910156 460.949219 660.886719 460.65625 660.894531 460.359375 C 660.898438 460.066406 660.933594 459.773438 661 459.484375 C 661.0625 459.195312 661.152344 458.914062 661.273438 458.644531 C 661.390625 458.371094 661.535156 458.117188 661.707031 457.875 C 691.425781 416.59375 669.960938 390.796875 669.960938 390.546875 C 669.769531 390.320312 669.601562 390.078125 669.457031 389.816406 C 669.3125 389.554688 669.195312 389.28125 669.105469 389 C 669.011719 388.714844 668.953125 388.425781 668.917969 388.128906 C 668.882812 387.832031 668.878906 387.535156 668.90625 387.238281 C 668.929688 386.941406 668.984375 386.648438 669.066406 386.363281 C 669.148438 386.078125 669.257812 385.800781 669.394531 385.535156 C 669.53125 385.269531 669.691406 385.023438 669.878906 384.789062 C 670.0625 384.554688 670.269531 384.34375 670.5 384.148438 C 670.722656 383.957031 670.964844 383.789062 671.226562 383.648438 C 671.484375 383.503906 671.753906 383.386719 672.039062 383.296875 C 672.320312 383.203125 672.609375 383.144531 672.902344 383.109375 C 673.199219 383.078125 673.492188 383.070312 673.789062 383.097656 C 674.082031 383.121094 674.375 383.175781 674.65625 383.257812 C 674.941406 383.339844 675.21875 383.449219 675.480469 383.585938 C 675.742188 383.722656 675.992188 383.882812 676.222656 384.066406 C 676.453125 384.253906 676.664062 384.460938 676.855469 384.6875 C 677.929688 385.964844 702.859375 416.429688 669.054688 463.117188 C 668.640625 463.699219 668.117188 464.160156 667.484375 464.492188 C 666.851562 464.828125 666.179688 465 665.460938 465.015625 Z M 665.460938 465.015625 " fill-opacity="1" fill-rule="nonzero"/><path fill="#143f65" d="M 701.539062 465.632812 C 700.566406 465.644531 699.6875 465.371094 698.894531 464.808594 C 698.65625 464.632812 698.433594 464.4375 698.234375 464.222656 C 698.03125 464.003906 697.851562 463.769531 697.695312 463.515625 C 697.539062 463.261719 697.410156 462.996094 697.304688 462.71875 C 697.203125 462.441406 697.125 462.15625 697.078125 461.863281 C 697.03125 461.570312 697.011719 461.273438 697.023438 460.980469 C 697.03125 460.683594 697.070312 460.390625 697.136719 460.101562 C 697.207031 459.8125 697.300781 459.53125 697.421875 459.261719 C 697.542969 458.988281 697.691406 458.734375 697.863281 458.492188 C 699.367188 456.382812 700.722656 454.183594 701.929688 451.890625 C 703.136719 449.597656 704.179688 447.234375 705.066406 444.800781 C 705.953125 442.367188 706.671875 439.882812 707.21875 437.351562 C 707.769531 434.820312 708.144531 432.265625 708.347656 429.683594 C 708.550781 427.097656 708.578125 424.515625 708.429688 421.929688 C 708.28125 419.34375 707.960938 416.777344 707.464844 414.234375 C 706.96875 411.695312 706.304688 409.195312 705.472656 406.742188 C 704.640625 404.289062 703.644531 401.90625 702.488281 399.589844 C 702.339844 399.332031 702.222656 399.0625 702.128906 398.78125 C 702.039062 398.5 701.972656 398.210938 701.9375 397.917969 C 701.902344 397.625 701.894531 397.332031 701.917969 397.035156 C 701.941406 396.742188 701.992188 396.453125 702.070312 396.167969 C 702.152344 395.882812 702.257812 395.609375 702.390625 395.34375 C 702.523438 395.078125 702.683594 394.832031 702.863281 394.597656 C 703.046875 394.367188 703.25 394.152344 703.476562 393.960938 C 703.699219 393.769531 703.941406 393.597656 704.199219 393.453125 C 704.457031 393.308594 704.726562 393.191406 705.003906 393.097656 C 705.285156 393.007812 705.574219 392.941406 705.867188 392.90625 C 706.160156 392.871094 706.457031 392.867188 706.75 392.886719 C 707.042969 392.910156 707.335938 392.960938 707.621094 393.042969 C 707.902344 393.121094 708.179688 393.226562 708.441406 393.363281 C 708.707031 393.496094 708.953125 393.652344 709.1875 393.835938 C 709.417969 394.019531 709.632812 394.222656 709.824219 394.449219 C 710.015625 394.671875 710.183594 394.914062 710.328125 395.171875 C 711.71875 397.859375 712.917969 400.628906 713.925781 403.480469 C 714.929688 406.335938 715.738281 409.242188 716.34375 412.207031 C 716.949219 415.171875 717.347656 418.164062 717.539062 421.183594 C 717.730469 424.203125 717.714844 427.222656 717.488281 430.238281 C 717.265625 433.257812 716.832031 436.242188 716.195312 439.203125 C 715.558594 442.160156 714.722656 445.058594 713.683594 447.902344 C 712.644531 450.742188 711.417969 453.5 710 456.171875 C 708.578125 458.84375 706.984375 461.40625 705.210938 463.859375 C 704.777344 464.429688 704.234375 464.875 703.585938 465.1875 C 702.941406 465.5 702.257812 465.648438 701.539062 465.632812 Z M 701.539062 465.632812 " fill-opacity="1" fill-rule="nonzero"/><path fill="#143f65" d="M 519.058594 385.429688 C 519.058594 385.980469 519.03125 386.527344 518.976562 387.078125 C 518.921875 387.625 518.839844 388.167969 518.734375 388.707031 C 518.625 389.246094 518.492188 389.78125 518.332031 390.304688 C 518.171875 390.832031 517.988281 391.351562 517.777344 391.859375 C 517.566406 392.367188 517.332031 392.863281 517.074219 393.347656 C 516.8125 393.835938 516.53125 394.304688 516.226562 394.761719 C 515.921875 395.222656 515.59375 395.664062 515.242188 396.085938 C 514.894531 396.511719 514.527344 396.921875 514.136719 397.308594 C 513.746094 397.699219 513.339844 398.066406 512.914062 398.417969 C 512.488281 398.765625 512.046875 399.09375 511.589844 399.398438 C 511.132812 399.703125 510.660156 399.988281 510.175781 400.246094 C 509.691406 400.503906 509.195312 400.742188 508.6875 400.949219 C 508.179688 401.160156 507.660156 401.347656 507.132812 401.507812 C 506.609375 401.667969 506.074219 401.800781 505.535156 401.90625 C 504.996094 402.015625 504.453125 402.09375 503.902344 402.148438 C 503.355469 402.203125 502.808594 402.230469 502.257812 402.230469 C 501.707031 402.230469 501.160156 402.203125 500.609375 402.148438 C 500.0625 402.09375 499.519531 402.015625 498.980469 401.90625 C 498.441406 401.800781 497.90625 401.667969 497.382812 401.507812 C 496.855469 401.347656 496.335938 401.160156 495.828125 400.949219 C 495.320312 400.742188 494.824219 400.503906 494.339844 400.246094 C 493.851562 399.988281 493.382812 399.703125 492.925781 399.398438 C 492.46875 399.09375 492.027344 398.765625 491.601562 398.417969 C 491.175781 398.066406 490.769531 397.699219 490.378906 397.308594 C 489.988281 396.921875 489.621094 396.511719 489.273438 396.085938 C 488.921875 395.664062 488.59375 395.222656 488.289062 394.761719 C 487.984375 394.304688 487.703125 393.835938 487.441406 393.347656 C 487.183594 392.863281 486.949219 392.367188 486.738281 391.859375 C 486.527344 391.351562 486.339844 390.832031 486.183594 390.304688 C 486.023438 389.78125 485.886719 389.246094 485.78125 388.707031 C 485.671875 388.167969 485.59375 387.625 485.539062 387.078125 C 485.484375 386.527344 485.457031 385.980469 485.457031 385.429688 C 485.457031 384.878906 485.484375 384.332031 485.539062 383.78125 C 485.59375 383.234375 485.671875 382.691406 485.78125 382.152344 C 485.886719 381.613281 486.023438 381.078125 486.183594 380.554688 C 486.339844 380.027344 486.527344 379.507812 486.738281 379 C 486.949219 378.492188 487.183594 377.996094 487.441406 377.511719 C 487.703125 377.023438 487.984375 376.554688 488.289062 376.097656 C 488.59375 375.636719 488.921875 375.195312 489.273438 374.773438 C 489.621094 374.347656 489.988281 373.9375 490.378906 373.550781 C 490.769531 373.160156 491.175781 372.792969 491.601562 372.441406 C 492.027344 372.09375 492.46875 371.765625 492.925781 371.460938 C 493.382812 371.15625 493.851562 370.871094 494.339844 370.613281 C 494.824219 370.355469 495.320312 370.117188 495.828125 369.90625 C 496.335938 369.699219 496.855469 369.511719 497.382812 369.351562 C 497.90625 369.191406 498.441406 369.058594 498.980469 368.953125 C 499.519531 368.84375 500.0625 368.765625 500.609375 368.710938 C 501.160156 368.65625 501.707031 368.628906 502.257812 368.628906 C 502.808594 368.628906 503.355469 368.65625 503.902344 368.710938 C 504.453125 368.765625 504.996094 368.84375 505.535156 368.953125 C 506.074219 369.058594 506.609375 369.191406 507.132812 369.351562 C 507.660156 369.511719 508.179688 369.699219 508.6875 369.90625 C 509.195312 370.117188 509.691406 370.355469 510.175781 370.613281 C 510.660156 370.871094 511.132812 371.15625 511.589844 371.460938 C 512.046875 371.765625 512.488281 372.09375 512.914062 372.441406 C 513.339844 372.792969 513.746094 373.160156 514.136719 373.550781 C 514.527344 373.9375 514.894531 374.347656 515.242188 374.773438 C 515.59375 375.195312 515.921875 375.636719 516.226562 376.097656 C 516.53125 376.554688 516.8125 377.023438 517.074219 377.511719 C 517.332031 377.996094 517.566406 378.492188 517.777344 379 C 517.988281 379.507812 518.171875 380.027344 518.332031 380.554688 C 518.492188 381.078125 518.625 381.613281 518.734375 382.152344 C 518.839844 382.691406 518.921875 383.234375 518.976562 383.78125 C 519.03125 384.332031 519.058594 384.878906 519.058594 385.429688 Z M 519.058594 385.429688 " fill-opacity="1" fill-rule="nonzero"/><path fill="#143f65" d="M 434.6875 450.03125 C 432.085938 450.058594 429.503906 449.847656 426.9375 449.398438 C 424.375 448.945312 421.875 448.261719 419.441406 447.34375 C 417.003906 446.425781 414.671875 445.289062 412.449219 443.9375 C 410.226562 442.585938 408.144531 441.039062 406.207031 439.296875 C 405.996094 439.046875 405.804688 438.777344 405.640625 438.492188 C 405.476562 438.207031 405.339844 437.90625 405.234375 437.59375 C 405.125 437.28125 405.046875 436.964844 405 436.636719 C 404.949219 436.308594 404.933594 435.980469 404.945312 435.652344 C 404.960938 435.320312 405.003906 434.996094 405.078125 434.675781 C 405.152344 434.351562 405.257812 434.042969 405.390625 433.738281 C 405.523438 433.4375 405.683594 433.148438 405.867188 432.878906 C 406.054688 432.605469 406.265625 432.351562 406.5 432.121094 C 406.734375 431.886719 406.988281 431.679688 407.261719 431.492188 C 407.535156 431.308594 407.824219 431.148438 408.125 431.019531 C 408.429688 430.886719 408.742188 430.785156 409.0625 430.710938 C 409.382812 430.640625 409.710938 430.597656 410.039062 430.585938 C 410.371094 430.574219 410.699219 430.59375 411.023438 430.644531 C 411.351562 430.695312 411.667969 430.773438 411.980469 430.882812 C 412.292969 430.992188 412.589844 431.128906 412.875 431.296875 C 413.160156 431.460938 413.429688 431.652344 413.679688 431.867188 C 414.796875 432.816406 415.972656 433.6875 417.207031 434.480469 C 418.441406 435.277344 419.722656 435.984375 421.050781 436.605469 C 422.378906 437.226562 423.742188 437.757812 425.140625 438.199219 C 426.539062 438.640625 427.960938 438.988281 429.40625 439.238281 C 430.851562 439.488281 432.308594 439.644531 433.773438 439.699219 C 435.238281 439.757812 436.703125 439.71875 438.164062 439.578125 C 439.625 439.441406 441.070312 439.207031 442.496094 438.875 C 443.925781 438.546875 445.328125 438.121094 446.699219 437.605469 C 464.117188 432.199219 466.554688 419.238281 466.636719 418.699219 C 466.695312 418.359375 466.785156 418.03125 466.90625 417.707031 C 467.027344 417.386719 467.179688 417.082031 467.363281 416.789062 C 467.542969 416.496094 467.753906 416.226562 467.988281 415.972656 C 468.222656 415.722656 468.480469 415.496094 468.761719 415.296875 C 469.039062 415.09375 469.335938 414.921875 469.648438 414.78125 C 469.960938 414.636719 470.285156 414.527344 470.621094 414.445312 C 470.953125 414.367188 471.292969 414.320312 471.636719 414.304688 C 471.980469 414.292969 472.324219 414.3125 472.664062 414.367188 C 472.988281 414.429688 473.304688 414.519531 473.613281 414.644531 C 473.921875 414.765625 474.214844 414.917969 474.496094 415.097656 C 474.773438 415.277344 475.035156 415.480469 475.273438 415.710938 C 475.515625 415.9375 475.730469 416.1875 475.921875 416.460938 C 476.117188 416.730469 476.28125 417.015625 476.417969 417.320312 C 476.554688 417.621094 476.664062 417.933594 476.742188 418.257812 C 476.820312 418.578125 476.867188 418.90625 476.882812 419.238281 C 476.894531 419.570312 476.878906 419.898438 476.832031 420.226562 C 476.832031 421.054688 473.570312 440.164062 449.589844 447.59375 C 444.742188 449.140625 439.777344 449.953125 434.6875 450.03125 Z M 434.6875 450.03125 " fill-opacity="1" fill-rule="nonzero"/></svg>