<svg xmlns="http://www.w3.org/2000/svg" xmlns:xlink="http://www.w3.org/1999/xlink" width="1920" zoomAndPan="magnify" viewBox="0 0 1440 809.999993" height="1080" preserveAspectRatio="xMidYMid meet" version="1.0"><path fill="#ae2c36" d="M 577.089844 257.1875 C 575.066406 264.742188 574.1875 272.515625 574.460938 280.289062 C 567.835938 278.867188 559.402344 275.636719 553.703125 268.027344 C 548.9375 261.621094 544.886719 250.5625 549.105469 246.347656 C 553.375 242.074219 564.496094 246.183594 570.902344 250.890625 C 573.367188 252.75 575.449219 254.941406 577.089844 257.1875 Z M 577.089844 257.1875 " fill-opacity="1" fill-rule="nonzero"/><path fill="#ae2c36" d="M 577.421875 299.394531 C 578.625 303.828125 580.214844 308.101562 582.238281 312.316406 C 580.488281 318.171875 577.144531 324.632812 570.902344 329.285156 C 564.496094 334.050781 553.375 338.101562 549.105469 333.886719 C 544.886719 329.613281 548.9375 318.554688 553.703125 312.207031 C 560.277344 303.390625 570.464844 300.378906 577.367188 299.394531 Z M 577.421875 299.394531 " fill-opacity="1" fill-rule="nonzero"/><path fill="#c84242" d="M 646.429688 286.476562 C 646.429688 289.648438 646.101562 307.222656 633.066406 316.914062 C 626.660156 321.621094 615.539062 325.726562 611.269531 321.457031 C 607.050781 317.242188 611.105469 306.183594 615.867188 299.832031 C 625.617188 286.804688 643.253906 286.476562 646.429688 286.476562 Z M 646.429688 286.476562 " fill-opacity="1" fill-rule="nonzero"/><path fill="#c84242" d="M 694.574219 299.832031 C 699.339844 306.183594 703.445312 317.242188 699.175781 321.457031 C 694.957031 325.726562 683.839844 321.621094 677.429688 316.914062 C 664.339844 307.222656 664.011719 289.648438 664.011719 286.476562 C 667.1875 286.476562 684.878906 286.804688 694.574219 299.832031 Z M 694.574219 299.832031 " fill-opacity="1" fill-rule="nonzero"/><path fill="#c84242" d="M 699.175781 233.972656 C 703.445312 238.1875 699.339844 249.246094 694.574219 255.597656 C 684.878906 268.628906 667.1875 268.957031 664.011719 268.957031 C 664.011719 265.78125 664.339844 248.207031 677.429688 238.519531 C 683.839844 233.808594 694.957031 229.703125 699.175781 233.972656 Z M 699.175781 233.972656 " fill-opacity="1" fill-rule="nonzero"/><path fill="#c84242" d="M 633.066406 238.519531 C 646.101562 248.207031 646.429688 265.78125 646.429688 268.957031 C 643.253906 268.957031 625.617188 268.628906 615.867188 255.597656 C 611.105469 249.246094 607.050781 238.1875 611.269531 233.972656 C 615.539062 229.703125 626.660156 233.808594 633.066406 238.519531 Z M 633.066406 238.519531 " fill-opacity="1" fill-rule="nonzero"/><path fill="#e58e1a" d="M 630.382812 531.464844 C 637.230469 531.464844 642.816406 537.046875 642.816406 543.890625 C 642.816406 550.679688 637.230469 556.261719 630.382812 556.261719 C 623.480469 556.261719 617.949219 550.679688 617.949219 543.890625 C 617.949219 537.046875 623.480469 531.464844 630.382812 531.464844 Z M 630.382812 531.464844 " fill-opacity="1" fill-rule="nonzero"/><path fill="#ef9d26" d="M 605.515625 457.226562 C 643.253906 457.226562 673.871094 487.722656 673.871094 525.277344 C 673.871094 562.886719 643.253906 593.378906 605.515625 593.378906 C 567.726562 593.378906 537.109375 562.886719 537.109375 525.277344 C 537.109375 487.722656 567.726562 457.226562 605.515625 457.226562 Z M 642.816406 543.890625 C 642.816406 537.046875 637.230469 531.464844 630.382812 531.464844 C 623.480469 531.464844 617.949219 537.046875 617.949219 543.890625 C 617.949219 550.679688 623.480469 556.261719 630.382812 556.261719 C 637.230469 556.261719 642.816406 550.679688 642.816406 543.890625 Z M 642.816406 543.890625 " fill-opacity="1" fill-rule="nonzero"/><path fill="#f9eac7" d="M 779.578125 531.464844 C 779.796875 534.800781 784.070312 615.167969 723.601562 655.296875 C 707.335938 666.082031 690.300781 671.339844 674.035156 673.417969 L 673.980469 673.417969 C 646.15625 676.976562 620.6875 671.175781 605.515625 667.671875 C 539.902344 652.617188 460.867188 598.417969 456.324219 525.277344 C 455.0625 504.582031 459.9375 486.296875 467.277344 469.601562 C 473.082031 456.296875 480.421875 444.035156 487.378906 432.484375 C 489.128906 429.582031 490.9375 426.570312 492.855469 423.449219 C 506.765625 400.675781 525.277344 373.628906 552.5 359.671875 C 559.234375 356.222656 566.519531 353.59375 574.40625 352.007812 C 591.550781 348.558594 607.761719 350.910156 623.152344 356.714844 C 648.347656 366.074219 671.351562 384.523438 692.546875 401.496094 C 711.664062 416.824219 734.613281 435.21875 752.191406 459.144531 C 766.761719 478.960938 777.660156 502.667969 779.578125 531.464844 Z M 673.871094 525.277344 C 673.871094 487.722656 643.253906 457.226562 605.515625 457.226562 C 567.726562 457.226562 537.109375 487.722656 537.109375 525.277344 C 537.109375 562.886719 567.726562 593.378906 605.515625 593.378906 C 643.253906 593.378906 673.871094 562.886719 673.871094 525.277344 Z M 673.871094 525.277344 " fill-opacity="1" fill-rule="nonzero"/><path fill="#349370" d="M 755.09375 445.292969 C 751.535156 448.46875 751.261719 453.941406 754.4375 457.5 L 752.191406 459.144531 C 734.613281 435.21875 711.664062 416.824219 692.546875 401.496094 C 671.351562 384.523438 648.347656 366.074219 623.152344 356.714844 L 624.796875 352.28125 C 654.042969 364.050781 688.714844 358.136719 712.375 334.597656 C 726.175781 320.855469 733.953125 303.390625 735.652344 285.433594 L 736.199219 285.488281 C 736.144531 285.871094 736.144531 286.257812 736.089844 286.640625 C 735.652344 291.566406 739.375 295.835938 744.304688 296.109375 L 763.476562 297.097656 C 768.296875 297.316406 771.964844 301.421875 771.691406 306.183594 L 765.117188 436.261719 Z M 755.09375 445.292969 " fill-opacity="1" fill-rule="nonzero"/><path fill="#349370" d="M 755.863281 232.167969 C 745.128906 247.878906 738.117188 266 736.199219 285.488281 L 735.652344 285.433594 C 737.898438 262.332031 730.121094 238.519531 712.375 220.835938 C 706.242188 214.703125 699.339844 209.777344 692 206.054688 C 683.183594 201.5625 673.707031 198.828125 664.066406 197.785156 L 664.066406 197.730469 C 659.574219 188.535156 654.976562 177.148438 651.578125 163.734375 C 649.058594 154.042969 647.636719 144.957031 646.867188 136.691406 C 645.28125 119.828125 627.425781 108.824219 611.816406 115.503906 C 611.652344 115.558594 611.488281 115.613281 611.324219 115.722656 C 602.285156 119.664062 595.988281 125.742188 591.769531 131.597656 C 585.636719 139.976562 575.449219 144.191406 565.207031 142.21875 C 553.539062 139.921875 537.546875 138.878906 520.789062 144.136719 C 526.375 141.78125 531.742188 140.359375 536.289062 139.480469 C 544.285156 137.949219 550.964844 132.476562 554.363281 125.085938 C 561.316406 110.136719 576.707031 86.488281 607.433594 77.070312 C 635.476562 68.476562 659.683594 76.851562 674.636719 85.011719 C 683.730469 89.992188 694.738281 89.007812 703.117188 82.875 C 708.980469 78.605469 716.8125 74.71875 726.613281 73.675781 C 726.78125 73.621094 727 73.621094 727.164062 73.621094 C 734.117188 72.964844 740.582031 75.265625 745.457031 79.371094 C 752.410156 85.175781 756.246094 94.644531 754.109375 104.390625 C 752.355469 112.492188 750.933594 121.582031 750.386719 131.542969 C 750.277344 133.734375 750.277344 137.183594 750.386719 141.507812 C 750.933594 163.460938 754.328125 208.515625 755.808594 232.167969 Z M 755.863281 232.167969 " fill-opacity="1" fill-rule="nonzero"/><path fill="#a7d276" d="M 596.917969 209.722656 C 574.957031 208.679688 552.664062 216.507812 535.902344 233.207031 C 534.097656 235.015625 532.34375 236.929688 530.753906 238.902344 C 504.957031 269.886719 506.109375 315.546875 534.207031 345.21875 C 534.753906 345.820312 535.355469 346.421875 535.902344 346.96875 C 540.996094 352.0625 546.585938 356.277344 552.5 359.671875 C 525.277344 373.628906 506.765625 400.675781 492.855469 423.449219 L 492.800781 423.449219 C 483.925781 419.453125 473.847656 415.402344 462.675781 411.734375 C 457.417969 409.980469 451.886719 408.285156 446.136719 406.695312 C 430.964844 402.589844 416.832031 399.910156 404.179688 398.265625 C 403.796875 398.210938 403.414062 398.15625 403.03125 398.046875 C 394.597656 396.570312 387.203125 391.148438 383.914062 383.210938 C 381.449219 377.351562 379.699219 369.851562 380.902344 361.367188 C 382.546875 349.378906 389.503906 338.703125 399.636719 331.640625 C 407.304688 326.328125 411.464844 317.40625 410.699219 308.101562 C 409.765625 296.929688 410.863281 281.710938 419.296875 266.164062 C 427.898438 250.234375 440.492188 240.980469 449.96875 235.835938 C 457.144531 231.949219 461.800781 224.722656 462.785156 216.675781 C 464.867188 200.304688 472.316406 173.152344 498.769531 154.921875 C 506.054688 149.882812 513.503906 146.433594 520.789062 144.136719 C 537.546875 138.878906 553.539062 139.921875 565.207031 142.21875 C 575.449219 144.191406 585.636719 139.976562 591.769531 131.597656 C 595.988281 125.742188 602.285156 119.664062 611.324219 115.722656 C 611.488281 115.613281 611.652344 115.558594 611.816406 115.503906 C 627.425781 108.824219 645.28125 119.828125 646.867188 136.691406 C 647.636719 144.957031 649.058594 154.042969 651.578125 163.734375 C 654.976562 177.148438 659.574219 188.535156 664.066406 197.730469 L 664.066406 197.785156 C 645.226562 195.707031 625.835938 200.25 609.570312 211.363281 L 609.515625 211.308594 C 605.351562 210.433594 601.136719 209.941406 596.917969 209.722656 Z M 596.917969 209.722656 " fill-opacity="1" fill-rule="nonzero"/><path fill="#c84242" d="M 598.070312 220.835938 C 587.605469 231.292969 580.597656 243.882812 577.089844 257.1875 C 575.449219 254.941406 573.367188 252.75 570.902344 250.890625 C 564.496094 246.183594 553.375 242.074219 549.105469 246.347656 C 544.886719 250.5625 548.9375 261.621094 553.703125 268.027344 C 559.402344 275.636719 567.835938 278.867188 574.460938 280.289062 C 574.679688 286.75 575.613281 293.152344 577.421875 299.394531 L 577.367188 299.394531 C 570.464844 300.378906 560.277344 303.390625 553.703125 312.207031 C 548.9375 318.554688 544.886719 329.613281 549.105469 333.886719 C 553.375 338.101562 564.496094 334.050781 570.902344 329.285156 C 577.144531 324.632812 580.488281 318.171875 582.238281 312.316406 C 586.074219 320.363281 591.386719 327.917969 598.070312 334.597656 C 605.957031 342.480469 615.046875 348.339844 624.796875 352.28125 L 623.152344 356.714844 C 607.761719 350.910156 591.550781 348.558594 574.40625 352.007812 C 566.519531 353.59375 559.234375 356.222656 552.5 359.671875 C 546.585938 356.277344 540.996094 352.0625 535.902344 346.96875 C 535.355469 346.421875 534.753906 345.820312 534.207031 345.21875 C 506.109375 315.546875 504.957031 269.886719 530.753906 238.902344 C 532.34375 236.929688 534.097656 235.015625 535.902344 233.207031 C 552.664062 216.511719 574.957031 208.679688 596.917969 209.722656 C 601.136719 209.941406 605.351562 210.433594 609.515625 211.308594 L 609.570312 211.363281 C 605.515625 214.101562 601.683594 217.277344 598.070312 220.835938 Z M 598.070312 220.835938 " fill-opacity="1" fill-rule="nonzero"/><path fill="#ae2c36" d="M 712.375 220.835938 C 730.121094 238.519531 737.898438 262.332031 735.652344 285.433594 C 733.953125 303.390625 726.175781 320.855469 712.375 334.597656 C 688.714844 358.136719 654.042969 364.050781 624.796875 352.28125 C 615.046875 348.339844 605.957031 342.480469 598.070312 334.597656 C 591.386719 327.917969 586.074219 320.363281 582.238281 312.316406 C 580.214844 308.101562 578.625 303.828125 577.421875 299.394531 C 575.613281 293.152344 574.679688 286.75 574.460938 280.289062 C 574.1875 272.515625 575.066406 264.742188 577.089844 257.1875 C 580.597656 243.882812 587.609375 231.292969 598.070312 220.835938 C 601.683594 217.277344 605.515625 214.101562 609.570312 211.363281 C 625.835938 200.25 645.226562 195.707031 664.066406 197.785156 C 673.707031 198.828125 683.183594 201.5625 692 206.054688 C 699.339844 209.777344 706.242188 214.703125 712.375 220.835938 Z M 694.574219 255.597656 C 699.339844 249.246094 703.445312 238.1875 699.175781 233.972656 C 694.957031 229.703125 683.839844 233.808594 677.429688 238.519531 C 664.339844 248.207031 664.011719 265.78125 664.011719 268.957031 C 667.1875 268.957031 684.878906 268.628906 694.574219 255.597656 Z M 699.175781 321.457031 C 703.445312 317.242188 699.339844 306.183594 694.574219 299.832031 C 684.878906 286.804688 667.1875 286.476562 664.011719 286.476562 C 664.011719 289.648438 664.339844 307.222656 677.429688 316.914062 C 683.839844 321.621094 694.957031 325.726562 699.175781 321.457031 Z M 646.429688 268.957031 C 646.429688 265.78125 646.101562 248.207031 633.066406 238.519531 C 626.660156 233.808594 615.539062 229.703125 611.269531 233.972656 C 607.050781 238.1875 611.105469 249.246094 615.867188 255.597656 C 625.617188 268.628906 643.253906 268.957031 646.429688 268.957031 Z M 633.066406 316.914062 C 646.101562 307.222656 646.429688 289.648438 646.429688 286.476562 C 643.253906 286.476562 625.617188 286.804688 615.867188 299.832031 C 611.105469 306.183594 607.050781 317.242188 611.269531 321.457031 C 615.539062 325.726562 626.660156 321.621094 633.066406 316.914062 Z M 633.066406 316.914062 " fill-opacity="1" fill-rule="nonzero"/><path fill="#fbe2ae" d="M 991.648438 296.710938 C 1004.738281 303.445312 1016.679688 312.480469 1026.757812 323.59375 C 1048.445312 347.515625 1059.566406 378.996094 1059.675781 410.199219 C 1059.675781 412.390625 1059.675781 414.582031 1059.566406 416.769531 C 1058.195312 446.769531 1046.585938 476.003906 1024.402344 497.464844 C 1020.84375 500.914062 1015.144531 500.75 1011.859375 497.082031 L 998.988281 482.902344 C 996.414062 480.113281 992.472656 479.34375 989.183594 480.714844 C 988.308594 481.042969 987.488281 481.589844 986.71875 482.246094 L 877.617188 580.351562 C 874.058594 583.582031 868.582031 583.308594 865.347656 579.75 L 809.921875 518.597656 L 754.4375 457.5 C 751.261719 453.941406 751.535156 448.46875 755.097656 445.292969 L 765.117188 436.261719 L 805.648438 399.800781 L 824.324219 383.046875 L 843.496094 365.800781 L 864.199219 347.1875 C 867.757812 343.957031 868.03125 338.484375 864.800781 334.980469 L 851.929688 320.800781 C 848.644531 317.132812 849.027344 311.4375 852.804688 308.320312 C 862.9375 299.832031 874.332031 293.425781 886.433594 288.992188 C 920.175781 276.621094 959.28125 279.796875 991.648438 296.710938 Z M 991.648438 296.710938 " fill-opacity="1" fill-rule="nonzero"/><path fill="#ffc05a" d="M 991.648438 296.710938 C 959.28125 279.796875 920.175781 276.621094 886.433594 288.992188 C 874.332031 293.429688 862.9375 299.832031 852.804688 308.320312 C 849.027344 311.4375 848.644531 317.132812 851.929688 320.800781 L 864.800781 334.980469 C 868.03125 338.484375 867.757812 343.957031 864.199219 347.1875 L 843.496094 365.800781 L 824.324219 383.046875 L 805.648438 399.800781 L 765.117188 436.261719 L 771.691406 306.183594 C 771.964844 301.421875 768.296875 297.316406 763.476562 297.097656 L 744.304688 296.109375 C 739.375 295.835938 735.652344 291.566406 736.089844 286.640625 C 736.144531 286.257812 736.144531 285.871094 736.199219 285.488281 C 738.117188 266 745.128906 247.878906 755.863281 232.167969 C 778.921875 198.28125 818.957031 175.667969 861.40625 174.902344 C 864.199219 174.847656 866.992188 174.847656 869.839844 175.011719 C 934.46875 178.351562 990.71875 232.933594 991.648438 296.710938 Z M 991.648438 296.710938 " fill-opacity="1" fill-rule="nonzero"/><path fill="#d6ebf2" d="M 462.675781 411.734375 C 473.847656 415.402344 483.925781 419.453125 492.800781 423.449219 L 492.855469 423.449219 C 490.9375 426.570312 489.128906 429.582031 487.378906 432.484375 C 480.421875 444.035156 473.082031 456.296875 467.277344 469.601562 C 464.15625 453.558594 462.511719 437.027344 462.511719 420.054688 C 462.511719 417.261719 462.566406 414.527344 462.675781 411.734375 Z M 462.675781 411.734375 " fill-opacity="1" fill-rule="nonzero"/><path fill="#c2e6f9" d="M 404.179688 398.265625 C 416.832031 399.910156 430.964844 402.589844 446.136719 406.695312 C 451.886719 408.285156 457.417969 409.980469 462.675781 411.734375 C 462.566406 414.527344 462.511719 417.261719 462.511719 420.054688 C 462.511719 437.027344 464.15625 453.558594 467.277344 469.601562 C 459.9375 486.296875 455.0625 504.582031 456.324219 525.277344 C 460.867188 598.417969 539.902344 652.617188 605.515625 667.671875 C 620.6875 671.175781 646.15625 676.976562 673.980469 673.417969 L 674.035156 673.417969 C 692.492188 677.46875 711.609375 679.605469 731.214844 679.605469 C 854.613281 679.605469 958.457031 595.296875 989.183594 480.714844 C 992.472656 479.34375 996.414062 480.113281 998.988281 482.902344 L 1011.859375 497.082031 C 1015.144531 500.75 1020.84375 500.914062 1024.402344 497.464844 C 1046.585938 476.003906 1058.195312 446.769531 1059.566406 416.769531 C 1056.113281 596.664062 910.425781 741.359375 731.214844 741.359375 C 549.816406 741.359375 402.8125 593.105469 402.8125 410.199219 C 402.8125 406.148438 402.867188 402.097656 403.03125 398.101562 L 403.03125 398.046875 C 403.414062 398.15625 403.796875 398.210938 404.179688 398.265625 Z M 404.179688 398.265625 " fill-opacity="1" fill-rule="nonzero"/><path fill="#c2e6f9" d="M 861.40625 174.847656 C 828.050781 156.125 790.53125 144.355469 750.386719 141.507812 C 750.277344 137.183594 750.277344 133.734375 750.386719 131.542969 C 750.933594 121.582031 752.355469 112.492188 754.109375 104.390625 C 756.246094 94.644531 752.410156 85.175781 745.457031 79.371094 C 920.285156 86.871094 1059.675781 232.167969 1059.675781 410.199219 C 1059.566406 378.996094 1048.445312 347.515625 1026.757812 323.59375 C 1016.679688 312.480469 1004.738281 303.445312 991.648438 296.710938 C 990.71875 232.933594 934.46875 178.351562 869.839844 175.011719 C 866.992188 174.847656 864.199219 174.847656 861.40625 174.902344 Z M 861.40625 174.847656 " fill-opacity="1" fill-rule="nonzero"/><path fill="#d6ebf2" d="M 986.71875 482.246094 C 987.488281 481.589844 988.308594 481.042969 989.183594 480.714844 C 958.457031 595.296875 854.613281 679.605469 731.214844 679.605469 C 711.609375 679.605469 692.492188 677.46875 674.035156 673.417969 C 690.300781 671.339844 707.335938 666.082031 723.601562 655.296875 C 784.070312 615.167969 779.796875 534.800781 779.578125 531.464844 C 777.660156 502.667969 766.761719 478.960938 752.191406 459.144531 L 754.4375 457.5 L 809.921875 518.597656 L 865.347656 579.75 C 868.582031 583.308594 874.058594 583.582031 877.617188 580.351562 Z M 986.71875 482.246094 " fill-opacity="1" fill-rule="nonzero"/><path fill="#d6ebf2" d="M 861.40625 174.847656 L 861.40625 174.902344 C 818.957031 175.667969 778.921875 198.28125 755.863281 232.167969 L 755.808594 232.167969 C 754.328125 208.515625 750.933594 163.460938 750.386719 141.507812 C 790.53125 144.355469 828.050781 156.125 861.40625 174.847656 Z M 861.40625 174.847656 " fill-opacity="1" fill-rule="nonzero"/><path fill="#fbc88e" d="M 1008.847656 426.953125 C 1006.671875 426.953125 1004.609375 425.644531 1003.753906 423.492188 L 984.644531 375.257812 C 983.53125 372.441406 984.90625 369.261719 987.722656 368.152344 C 990.53125 367.042969 993.71875 368.414062 994.832031 371.226562 L 1013.941406 419.464844 C 1015.054688 422.277344 1013.679688 425.457031 1010.863281 426.570312 C 1010.199219 426.832031 1009.519531 426.953125 1008.847656 426.953125 Z M 1008.847656 426.953125 " fill-opacity="1" fill-rule="nonzero"/><path fill="#fbc88e" d="M 990.773438 443.210938 C 988.597656 443.210938 986.535156 441.902344 985.679688 439.753906 L 966.566406 391.523438 C 965.453125 388.714844 966.828125 385.53125 969.644531 384.414062 C 972.453125 383.308594 975.640625 384.671875 976.753906 387.492188 L 995.867188 435.722656 C 996.980469 438.539062 995.605469 441.71875 992.789062 442.828125 C 992.125 443.085938 991.445312 443.210938 990.773438 443.210938 Z M 990.773438 443.210938 " fill-opacity="1" fill-rule="nonzero"/><path fill="#fbc88e" d="M 972.753906 459.417969 C 970.578125 459.417969 968.519531 458.113281 967.660156 455.964844 L 948.492188 407.792969 C 947.375 404.984375 948.746094 401.796875 951.5625 400.679688 C 954.371094 399.5625 957.558594 400.933594 958.675781 403.746094 L 977.847656 451.921875 C 978.964844 454.730469 977.589844 457.910156 974.773438 459.035156 C 974.113281 459.292969 973.425781 459.417969 972.753906 459.417969 Z M 972.753906 459.417969 " fill-opacity="1" fill-rule="nonzero"/><path fill="#fbc88e" d="M 868.203125 479.835938 C 867.972656 479.835938 867.738281 479.820312 867.5 479.792969 C 864.5 479.410156 862.375 476.667969 862.761719 473.667969 L 869.882812 418.203125 C 870.273438 415.203125 873.003906 413.136719 876.011719 413.46875 C 879.015625 413.851562 881.140625 416.59375 880.75 419.59375 L 873.628906 475.058594 C 873.273438 477.824219 870.917969 479.835938 868.203125 479.835938 Z M 868.203125 479.835938 " fill-opacity="1" fill-rule="nonzero"/><path fill="#fbc88e" d="M 842.40625 478.523438 C 842.175781 478.523438 841.941406 478.507812 841.703125 478.480469 C 838.703125 478.097656 836.578125 475.355469 836.964844 472.355469 L 844.085938 416.894531 C 844.476562 413.894531 847.203125 411.765625 850.214844 412.160156 C 853.21875 412.542969 855.34375 415.285156 854.953125 418.285156 L 847.832031 473.746094 C 847.476562 476.507812 845.121094 478.523438 842.40625 478.523438 Z M 842.40625 478.523438 " fill-opacity="1" fill-rule="nonzero"/><path fill="#fbc88e" d="M 816.171875 485.746094 C 815.941406 485.746094 815.703125 485.726562 815.46875 485.699219 C 812.46875 485.316406 810.34375 482.574219 810.730469 479.574219 L 817.851562 424.117188 C 818.242188 421.117188 820.984375 419.058594 823.980469 419.382812 C 826.980469 419.765625 829.105469 422.507812 828.71875 425.507812 L 821.597656 480.964844 C 821.242188 483.730469 818.886719 485.746094 816.171875 485.746094 Z M 816.171875 485.746094 " fill-opacity="1" fill-rule="nonzero"/><path fill="#fbe2ae" d="M 926.6875 262.332031 C 925.964844 262.332031 925.222656 262.183594 924.515625 261.878906 L 876.757812 241.238281 C 873.980469 240.039062 872.703125 236.816406 873.902344 234.039062 C 875.101562 231.269531 878.324219 229.984375 881.101562 231.1875 L 928.859375 251.828125 C 931.636719 253.023438 932.914062 256.25 931.714844 259.027344 C 930.828125 261.09375 928.8125 262.332031 926.6875 262.332031 Z M 926.6875 262.332031 " fill-opacity="1" fill-rule="nonzero"/><path fill="#fbe2ae" d="M 925.425781 286.585938 C 924.699219 286.585938 923.957031 286.4375 923.253906 286.128906 L 875.546875 265.4375 C 872.777344 264.230469 871.5 261.007812 872.703125 258.238281 C 873.902344 255.460938 877.125 254.1875 879.90625 255.390625 L 927.613281 276.085938 C 930.382812 277.289062 931.660156 280.511719 930.453125 283.285156 C 929.5625 285.351562 927.546875 286.585938 925.425781 286.585938 Z M 925.425781 286.585938 " fill-opacity="1" fill-rule="nonzero"/><path fill="#fbe2ae" d="M 886.429688 294.46875 C 885.703125 294.46875 884.960938 294.320312 884.253906 294.011719 L 874.289062 289.6875 C 871.515625 288.484375 870.238281 285.257812 871.445312 282.488281 C 872.644531 279.714844 875.863281 278.433594 878.648438 279.644531 L 888.617188 283.96875 C 891.386719 285.171875 892.664062 288.398438 891.457031 291.167969 C 890.566406 293.234375 888.550781 294.46875 886.429688 294.46875 Z M 886.429688 294.46875 " fill-opacity="1" fill-rule="nonzero"/><path fill="#fbe2ae" d="M 843.5 371.277344 C 841.863281 371.277344 840.246094 370.546875 839.167969 369.164062 L 826.1875 352.464844 C 824.332031 350.078125 824.765625 346.640625 827.15625 344.785156 C 829.539062 342.929688 832.992188 343.367188 834.839844 345.75 L 847.820312 362.445312 C 849.679688 364.832031 849.246094 368.269531 846.851562 370.125 C 845.863281 370.898438 844.671875 371.277344 843.5 371.277344 Z M 843.5 371.277344 " fill-opacity="1" fill-rule="nonzero"/><path fill="#fbe2ae" d="M 824.332031 388.519531 C 822.695312 388.519531 821.078125 387.792969 820 386.410156 L 807.019531 369.710938 C 805.160156 367.324219 805.59375 363.886719 807.988281 362.03125 C 810.375 360.175781 813.820312 360.613281 815.671875 362.992188 L 828.652344 379.691406 C 830.507812 382.078125 830.078125 385.515625 827.683594 387.371094 C 826.691406 388.144531 825.503906 388.519531 824.332031 388.519531 Z M 824.332031 388.519531 " fill-opacity="1" fill-rule="nonzero"/><path fill="#fbe2ae" d="M 805.65625 405.273438 C 804.023438 405.273438 802.40625 404.550781 801.328125 403.160156 L 793.660156 393.304688 C 791.804688 390.917969 792.230469 387.480469 794.617188 385.625 C 797.015625 383.765625 800.453125 384.195312 802.300781 386.582031 L 809.96875 396.4375 C 811.828125 398.824219 811.398438 402.261719 809.011719 404.117188 C 808.015625 404.894531 806.828125 405.273438 805.65625 405.273438 Z M 805.65625 405.273438 " fill-opacity="1" fill-rule="nonzero"/><path fill="#96b443" d="M 502.171875 322.261719 C 487.789062 315.414062 473.015625 309.113281 458.261719 303.527344 C 455.429688 302.457031 452.269531 303.878906 451.195312 306.710938 C 450.128906 309.539062 451.550781 312.699219 454.378906 313.765625 C 468.859375 319.242188 483.347656 325.425781 497.429688 332.136719 C 504.308594 335.449219 510.957031 338.8125 517.316406 342.179688 C 519.964844 343.582031 523.21875 342.605469 524.652344 339.972656 C 526.117188 337.300781 525.152344 333.941406 522.457031 332.511719 C 515.972656 329.074219 509.191406 325.644531 502.171875 322.261719 Z M 502.171875 322.261719 " fill-opacity="1" fill-rule="nonzero"/><path fill="#96b443" d="M 504.230469 212.441406 C 501.738281 210.722656 498.332031 211.347656 496.613281 213.839844 C 494.898438 216.328125 495.523438 219.738281 498.015625 221.453125 C 506.542969 227.332031 514.960938 233.503906 523.097656 239.84375 C 525.464844 241.6875 528.84375 241.292969 530.710938 238.949219 C 532.613281 236.5625 532.230469 233.070312 529.820312 231.199219 C 521.519531 224.734375 512.933594 218.4375 504.230469 212.441406 Z M 504.230469 212.441406 " fill-opacity="1" fill-rule="nonzero"/><path fill="#96b443" d="M 578.910156 171.453125 C 577.195312 168.96875 573.773438 168.351562 571.285156 170.074219 C 568.804688 171.796875 568.1875 175.210938 569.910156 177.695312 C 576.992188 187.910156 583.410156 197.8125 589.425781 207.832031 C 590.96875 210.40625 594.273438 211.269531 596.867188 209.75 C 599.5 208.210938 600.394531 204.808594 598.824219 202.199219 C 592.683594 191.972656 586.132812 181.867188 578.910156 171.453125 Z M 578.910156 171.453125 " fill-opacity="1" fill-rule="nonzero"/><path fill="#b1dbad" d="M 698.835938 125.195312 C 695.570312 125.117188 693.316406 127.542969 693.253906 130.5625 C 692.964844 146.199219 691.976562 161.863281 690.328125 177.121094 C 689.519531 184.804688 688.542969 192.425781 687.425781 199.839844 C 686.976562 202.808594 688.980469 205.5625 691.945312 206.042969 C 694.953125 206.53125 697.800781 204.5 698.253906 201.488281 C 699.394531 193.90625 700.390625 186.121094 701.21875 178.28125 C 702.90625 162.714844 703.90625 146.730469 704.207031 130.765625 C 704.269531 127.746094 701.863281 125.25 698.835938 125.195312 Z M 698.835938 125.195312 " fill-opacity="1" fill-rule="nonzero"/></svg>