<svg xmlns="http://www.w3.org/2000/svg" xmlns:xlink="http://www.w3.org/1999/xlink" width="1920" zoomAndPan="magnify" viewBox="0 0 1440 809.999993" height="1080" preserveAspectRatio="xMidYMid meet" version="1.0"><defs><clipPath id="712f7c4692"><path d="M 374.855469 109 L 1064.855469 109 L 1064.855469 702 L 374.855469 702 Z M 374.855469 109 " clip-rule="nonzero"/></clipPath></defs><g clip-path="url(#712f7c4692)"><path fill="#d99e82" d="M 719.855469 109.578125 C 529.320312 109.578125 374.855469 242.089844 374.855469 405.523438 C 374.855469 425.972656 377.273438 445.941406 381.890625 465.21875 C 415.988281 523.9375 439.582031 486.875 547.355469 432.933594 C 657.125 377.996094 547.355469 509.664062 509.023438 586.394531 C 497.238281 609.988281 503.617188 629.957031 519.757812 646.320312 C 576.222656 680.925781 645.183594 701.488281 719.855469 701.488281 C 910.394531 701.488281 1064.855469 568.996094 1064.855469 405.523438 C 1064.855469 242.089844 910.394531 109.578125 719.855469 109.578125 Z M 774.464844 578.53125 C 766.890625 604.347656 727.3125 615.4375 686.046875 603.292969 C 644.78125 591.171875 617.46875 560.441406 625.039062 534.601562 C 632.609375 508.78125 672.191406 497.695312 713.457031 509.855469 C 754.722656 521.960938 782.035156 552.691406 774.464844 578.53125 Z M 774.464844 578.53125 " fill-opacity="1" fill-rule="nonzero"/></g><path fill="#5c913b" d="M 624.023438 260.292969 C 624.023438 262.179688 623.929688 264.058594 623.746094 265.933594 C 623.5625 267.808594 623.285156 269.671875 622.917969 271.519531 C 622.550781 273.367188 622.09375 275.195312 621.546875 277 C 621 278.800781 620.367188 280.574219 619.648438 282.316406 C 618.925781 284.058594 618.121094 285.757812 617.234375 287.421875 C 616.347656 289.082031 615.378906 290.699219 614.332031 292.265625 C 613.285156 293.832031 612.167969 295.34375 610.972656 296.800781 C 609.777344 298.257812 608.515625 299.652344 607.183594 300.984375 C 605.851562 302.316406 604.457031 303.582031 603 304.777344 C 601.546875 305.972656 600.035156 307.09375 598.46875 308.140625 C 596.902344 309.1875 595.289062 310.15625 593.628906 311.046875 C 591.96875 311.933594 590.269531 312.738281 588.527344 313.460938 C 586.789062 314.179688 585.015625 314.816406 583.214844 315.363281 C 581.414062 315.910156 579.589844 316.367188 577.742188 316.734375 C 575.894531 317.101562 574.035156 317.378906 572.160156 317.5625 C 570.285156 317.75 568.40625 317.839844 566.523438 317.839844 C 564.640625 317.839844 562.761719 317.75 560.886719 317.5625 C 559.015625 317.378906 557.152344 317.101562 555.304688 316.734375 C 553.460938 316.367188 551.632812 315.910156 549.832031 315.363281 C 548.03125 314.816406 546.257812 314.179688 544.519531 313.460938 C 542.78125 312.738281 541.078125 311.933594 539.417969 311.046875 C 537.757812 310.15625 536.144531 309.1875 534.578125 308.140625 C 533.011719 307.09375 531.503906 305.972656 530.046875 304.777344 C 528.589844 303.582031 527.195312 302.316406 525.863281 300.984375 C 524.535156 299.652344 523.269531 298.257812 522.074219 296.800781 C 520.882812 295.34375 519.761719 293.832031 518.714844 292.265625 C 517.667969 290.699219 516.699219 289.082031 515.8125 287.421875 C 514.925781 285.757812 514.121094 284.058594 513.402344 282.316406 C 512.679688 280.574219 512.046875 278.800781 511.5 277 C 510.953125 275.195312 510.496094 273.367188 510.128906 271.519531 C 509.761719 269.671875 509.484375 267.808594 509.300781 265.933594 C 509.117188 264.058594 509.023438 262.179688 509.023438 260.292969 C 509.023438 258.410156 509.117188 256.527344 509.300781 254.652344 C 509.484375 252.777344 509.761719 250.914062 510.128906 249.066406 C 510.496094 247.21875 510.953125 245.390625 511.5 243.589844 C 512.046875 241.785156 512.679688 240.011719 513.402344 238.269531 C 514.121094 236.53125 514.925781 234.828125 515.8125 233.164062 C 516.699219 231.503906 517.667969 229.890625 518.714844 228.320312 C 519.761719 226.753906 520.882812 225.242188 522.074219 223.785156 C 523.269531 222.328125 524.535156 220.933594 525.863281 219.601562 C 527.195312 218.269531 528.589844 217.003906 530.046875 215.808594 C 531.503906 214.613281 533.011719 213.492188 534.578125 212.445312 C 536.144531 211.398438 537.757812 210.429688 539.417969 209.542969 C 541.078125 208.652344 542.78125 207.847656 544.519531 207.125 C 546.257812 206.40625 548.03125 205.769531 549.832031 205.222656 C 551.632812 204.675781 553.460938 204.21875 555.304688 203.851562 C 557.152344 203.484375 559.015625 203.207031 560.886719 203.023438 C 562.761719 202.839844 564.640625 202.746094 566.523438 202.746094 C 568.40625 202.746094 570.285156 202.839844 572.160156 203.023438 C 574.035156 203.207031 575.894531 203.484375 577.742188 203.851562 C 579.589844 204.21875 581.414062 204.675781 583.214844 205.222656 C 585.015625 205.769531 586.789062 206.40625 588.527344 207.125 C 590.269531 207.847656 591.96875 208.652344 593.628906 209.542969 C 595.289062 210.429688 596.902344 211.398438 598.46875 212.445312 C 600.035156 213.492188 601.546875 214.613281 603 215.808594 C 604.457031 217.003906 605.851562 218.269531 607.183594 219.601562 C 608.515625 220.933594 609.777344 222.328125 610.972656 223.785156 C 612.167969 225.242188 613.285156 226.753906 614.332031 228.320312 C 615.378906 229.890625 616.347656 231.503906 617.234375 233.164062 C 618.121094 234.828125 618.925781 236.53125 619.648438 238.269531 C 620.367188 240.011719 621 241.785156 621.546875 243.589844 C 622.09375 245.390625 622.550781 247.21875 622.917969 249.066406 C 623.285156 250.914062 623.5625 252.777344 623.746094 254.652344 C 623.929688 256.527344 624.023438 258.410156 624.023438 260.292969 Z M 624.023438 260.292969 " fill-opacity="1" fill-rule="nonzero"/><path fill="#226699" d="M 815.691406 221.929688 C 815.691406 223.8125 815.597656 225.695312 815.414062 227.570312 C 815.230469 229.445312 814.953125 231.308594 814.585938 233.15625 C 814.21875 235.003906 813.761719 236.832031 813.214844 238.632812 C 812.667969 240.4375 812.035156 242.210938 811.3125 243.949219 C 810.59375 245.691406 809.789062 247.394531 808.902344 249.054688 C 808.011719 250.71875 807.046875 252.332031 806 253.898438 C 804.953125 255.46875 803.832031 256.980469 802.636719 258.4375 C 801.445312 259.894531 800.179688 261.289062 798.847656 262.621094 C 797.515625 263.953125 796.125 265.21875 794.667969 266.414062 C 793.210938 267.609375 791.703125 268.730469 790.136719 269.777344 C 788.570312 270.824219 786.957031 271.792969 785.296875 272.679688 C 783.636719 273.570312 781.933594 274.375 780.195312 275.09375 C 778.453125 275.816406 776.683594 276.449219 774.882812 276.996094 C 773.078125 277.546875 771.253906 278.003906 769.40625 278.371094 C 767.5625 278.738281 765.699219 279.015625 763.828125 279.199219 C 761.953125 279.382812 760.074219 279.476562 758.191406 279.476562 C 756.308594 279.476562 754.429688 279.382812 752.554688 279.199219 C 750.679688 279.015625 748.820312 278.738281 746.972656 278.371094 C 745.125 278.003906 743.300781 277.546875 741.5 276.996094 C 739.695312 276.449219 737.925781 275.816406 736.1875 275.09375 C 734.445312 274.375 732.746094 273.570312 731.085938 272.679688 C 729.425781 271.792969 727.8125 270.824219 726.246094 269.777344 C 724.679688 268.730469 723.167969 267.609375 721.714844 266.414062 C 720.257812 265.21875 718.863281 263.953125 717.53125 262.621094 C 716.199219 261.289062 714.9375 259.894531 713.742188 258.4375 C 712.546875 256.980469 711.425781 255.46875 710.382812 253.898438 C 709.335938 252.332031 708.367188 250.71875 707.480469 249.054688 C 706.59375 247.394531 705.789062 245.691406 705.066406 243.949219 C 704.347656 242.210938 703.714844 240.4375 703.167969 238.632812 C 702.621094 236.832031 702.164062 235.003906 701.796875 233.15625 C 701.429688 231.308594 701.152344 229.445312 700.96875 227.570312 C 700.78125 225.695312 700.691406 223.8125 700.691406 221.929688 C 700.691406 220.042969 700.78125 218.164062 700.96875 216.289062 C 701.152344 214.414062 701.429688 212.550781 701.796875 210.703125 C 702.164062 208.851562 702.621094 207.027344 703.167969 205.222656 C 703.714844 203.421875 704.347656 201.648438 705.066406 199.90625 C 705.789062 198.164062 706.59375 196.464844 707.480469 194.800781 C 708.367188 193.140625 709.335938 191.523438 710.382812 189.957031 C 711.425781 188.390625 712.546875 186.878906 713.742188 185.421875 C 714.9375 183.964844 716.199219 182.570312 717.53125 181.238281 C 718.863281 179.902344 720.257812 178.640625 721.714844 177.445312 C 723.167969 176.25 724.679688 175.128906 726.246094 174.078125 C 727.8125 173.03125 729.425781 172.066406 731.085938 171.175781 C 732.746094 170.289062 734.445312 169.484375 736.1875 168.761719 C 737.925781 168.039062 739.695312 167.40625 741.5 166.859375 C 743.300781 166.3125 745.125 165.855469 746.972656 165.488281 C 748.820312 165.121094 750.679688 164.84375 752.554688 164.660156 C 754.429688 164.472656 756.308594 164.382812 758.191406 164.382812 C 760.074219 164.382812 761.953125 164.472656 763.828125 164.660156 C 765.699219 164.84375 767.5625 165.121094 769.40625 165.488281 C 771.253906 165.855469 773.078125 166.3125 774.882812 166.859375 C 776.683594 167.40625 778.453125 168.039062 780.195312 168.761719 C 781.933594 169.484375 783.636719 170.289062 785.296875 171.175781 C 786.957031 172.066406 788.570312 173.03125 790.136719 174.078125 C 791.703125 175.128906 793.210938 176.25 794.667969 177.445312 C 796.125 178.640625 797.515625 179.902344 798.847656 181.238281 C 800.179688 182.570312 801.445312 183.964844 802.636719 185.421875 C 803.832031 186.878906 804.953125 188.390625 806 189.957031 C 807.046875 191.523438 808.011719 193.140625 808.902344 194.800781 C 809.789062 196.464844 810.59375 198.164062 811.3125 199.90625 C 812.035156 201.648438 812.667969 203.421875 813.214844 205.222656 C 813.761719 207.027344 814.21875 208.851562 814.585938 210.703125 C 814.953125 212.550781 815.230469 214.414062 815.414062 216.289062 C 815.597656 218.164062 815.691406 220.042969 815.691406 221.929688 Z M 815.691406 221.929688 " fill-opacity="1" fill-rule="nonzero"/><path fill="#dd2e44" d="M 988.191406 337.023438 C 988.191406 338.90625 988.097656 340.789062 987.914062 342.664062 C 987.730469 344.539062 987.453125 346.402344 987.085938 348.25 C 986.71875 350.097656 986.261719 351.925781 985.714844 353.726562 C 985.167969 355.53125 984.535156 357.304688 983.8125 359.046875 C 983.09375 360.785156 982.289062 362.488281 981.402344 364.152344 C 980.511719 365.8125 979.546875 367.425781 978.5 368.996094 C 977.453125 370.5625 976.332031 372.074219 975.136719 373.53125 C 973.945312 374.988281 972.679688 376.382812 971.347656 377.714844 C 970.015625 379.046875 968.625 380.3125 967.167969 381.507812 C 965.710938 382.703125 964.203125 383.824219 962.636719 384.871094 C 961.070312 385.917969 959.457031 386.886719 957.796875 387.773438 C 956.136719 388.664062 954.433594 389.46875 952.695312 390.191406 C 950.953125 390.910156 949.183594 391.546875 947.382812 392.09375 C 945.578125 392.640625 943.753906 393.097656 941.90625 393.464844 C 940.0625 393.832031 938.199219 394.109375 936.328125 394.292969 C 934.453125 394.476562 932.574219 394.570312 930.691406 394.570312 C 928.808594 394.570312 926.929688 394.476562 925.054688 394.292969 C 923.179688 394.109375 921.320312 393.832031 919.472656 393.464844 C 917.625 393.097656 915.800781 392.640625 914 392.09375 C 912.195312 391.546875 910.425781 390.910156 908.6875 390.191406 C 906.945312 389.46875 905.246094 388.664062 903.585938 387.773438 C 901.925781 386.886719 900.3125 385.917969 898.746094 384.871094 C 897.179688 383.824219 895.667969 382.703125 894.210938 381.507812 C 892.757812 380.3125 891.363281 379.046875 890.03125 377.714844 C 888.699219 376.382812 887.4375 374.988281 886.242188 373.53125 C 885.046875 372.074219 883.925781 370.5625 882.882812 368.996094 C 881.835938 367.425781 880.867188 365.8125 879.980469 364.152344 C 879.09375 362.488281 878.289062 360.785156 877.566406 359.046875 C 876.847656 357.304688 876.214844 355.53125 875.667969 353.726562 C 875.121094 351.925781 874.664062 350.097656 874.296875 348.25 C 873.929688 346.402344 873.652344 344.539062 873.46875 342.664062 C 873.28125 340.789062 873.191406 338.90625 873.191406 337.023438 C 873.191406 335.136719 873.28125 333.257812 873.46875 331.382812 C 873.652344 329.507812 873.929688 327.644531 874.296875 325.796875 C 874.664062 323.949219 875.121094 322.121094 875.667969 320.316406 C 876.214844 318.515625 876.847656 316.742188 877.566406 315 C 878.289062 313.257812 879.09375 311.558594 879.980469 309.894531 C 880.867188 308.234375 881.835938 306.617188 882.882812 305.050781 C 883.925781 303.484375 885.046875 301.972656 886.242188 300.515625 C 887.4375 299.058594 888.699219 297.664062 890.03125 296.332031 C 891.363281 295 892.757812 293.734375 894.210938 292.539062 C 895.667969 291.34375 897.179688 290.222656 898.746094 289.175781 C 900.3125 288.128906 901.925781 287.160156 903.585938 286.269531 C 905.246094 285.382812 906.945312 284.578125 908.6875 283.855469 C 910.425781 283.136719 912.195312 282.5 914 281.953125 C 915.800781 281.40625 917.625 280.949219 919.472656 280.582031 C 921.320312 280.214844 923.179688 279.9375 925.054688 279.753906 C 926.929688 279.570312 928.808594 279.476562 930.691406 279.476562 C 932.574219 279.476562 934.453125 279.570312 936.328125 279.753906 C 938.199219 279.9375 940.0625 280.214844 941.90625 280.582031 C 943.753906 280.949219 945.578125 281.40625 947.382812 281.953125 C 949.183594 282.5 950.953125 283.136719 952.695312 283.855469 C 954.433594 284.578125 956.136719 285.382812 957.796875 286.269531 C 959.457031 287.160156 961.070312 288.128906 962.636719 289.175781 C 964.203125 290.222656 965.710938 291.34375 967.167969 292.539062 C 968.625 293.734375 970.015625 295 971.347656 296.332031 C 972.679688 297.664062 973.945312 299.058594 975.136719 300.515625 C 976.332031 301.972656 977.453125 303.484375 978.5 305.050781 C 979.546875 306.617188 980.511719 308.234375 981.402344 309.894531 C 982.289062 311.558594 983.09375 313.257812 983.8125 315 C 984.535156 316.742188 985.167969 318.515625 985.714844 320.316406 C 986.261719 322.121094 986.71875 323.949219 987.085938 325.796875 C 987.453125 327.644531 987.730469 329.507812 987.914062 331.382812 C 988.097656 333.257812 988.191406 335.136719 988.191406 337.023438 Z M 988.191406 337.023438 " fill-opacity="1" fill-rule="nonzero"/><path fill="#ffcc4d" d="M 969.023438 509.664062 C 969.023438 511.550781 968.929688 513.429688 968.746094 515.304688 C 968.5625 517.179688 968.285156 519.042969 967.917969 520.890625 C 967.550781 522.742188 967.09375 524.566406 966.546875 526.371094 C 966 528.171875 965.367188 529.945312 964.648438 531.6875 C 963.925781 533.429688 963.121094 535.128906 962.234375 536.792969 C 961.347656 538.453125 960.378906 540.070312 959.332031 541.636719 C 958.285156 543.203125 957.167969 544.714844 955.972656 546.171875 C 954.777344 547.628906 953.515625 549.023438 952.183594 550.355469 C 950.851562 551.691406 949.457031 552.953125 948 554.148438 C 946.546875 555.34375 945.035156 556.464844 943.46875 557.515625 C 941.902344 558.5625 940.289062 559.527344 938.628906 560.417969 C 936.96875 561.304688 935.269531 562.109375 933.527344 562.832031 C 931.789062 563.554688 930.015625 564.1875 928.214844 564.734375 C 926.414062 565.28125 924.589844 565.738281 922.742188 566.105469 C 920.894531 566.472656 919.035156 566.75 917.160156 566.933594 C 915.285156 567.121094 913.40625 567.210938 911.523438 567.210938 C 909.640625 567.210938 907.761719 567.121094 905.886719 566.933594 C 904.015625 566.75 902.152344 566.472656 900.304688 566.105469 C 898.460938 565.738281 896.632812 565.28125 894.832031 564.734375 C 893.03125 564.1875 891.257812 563.554688 889.519531 562.832031 C 887.78125 562.109375 886.078125 561.304688 884.417969 560.417969 C 882.757812 559.527344 881.144531 558.5625 879.578125 557.515625 C 878.011719 556.464844 876.5 555.34375 875.046875 554.148438 C 873.589844 552.953125 872.195312 551.691406 870.863281 550.355469 C 869.535156 549.023438 868.269531 547.628906 867.074219 546.171875 C 865.882812 544.714844 864.761719 543.203125 863.714844 541.636719 C 862.667969 540.070312 861.699219 538.453125 860.8125 536.792969 C 859.925781 535.128906 859.121094 533.429688 858.402344 531.6875 C 857.679688 529.945312 857.046875 528.171875 856.5 526.371094 C 855.953125 524.566406 855.496094 522.742188 855.128906 520.890625 C 854.761719 519.042969 854.484375 517.179688 854.300781 515.304688 C 854.117188 513.429688 854.023438 511.550781 854.023438 509.664062 C 854.023438 507.78125 854.117188 505.898438 854.300781 504.023438 C 854.484375 502.148438 854.761719 500.285156 855.128906 498.4375 C 855.496094 496.589844 855.953125 494.761719 856.5 492.960938 C 857.046875 491.15625 857.679688 489.382812 858.402344 487.644531 C 859.121094 485.902344 859.925781 484.199219 860.8125 482.539062 C 861.699219 480.875 862.667969 479.261719 863.714844 477.695312 C 864.761719 476.125 865.882812 474.613281 867.074219 473.15625 C 868.269531 471.699219 869.535156 470.304688 870.863281 468.972656 C 872.195312 467.640625 873.589844 466.375 875.046875 465.179688 C 876.5 463.984375 878.011719 462.863281 879.578125 461.816406 C 881.144531 460.769531 882.757812 459.800781 884.417969 458.914062 C 886.078125 458.023438 887.78125 457.21875 889.519531 456.5 C 891.257812 455.777344 893.03125 455.144531 894.832031 454.597656 C 896.632812 454.046875 898.460938 453.589844 900.304688 453.222656 C 902.152344 452.855469 904.015625 452.578125 905.886719 452.394531 C 907.761719 452.210938 909.640625 452.117188 911.523438 452.117188 C 913.40625 452.117188 915.285156 452.210938 917.160156 452.394531 C 919.035156 452.578125 920.894531 452.855469 922.742188 453.222656 C 924.589844 453.589844 926.414062 454.046875 928.214844 454.597656 C 930.015625 455.144531 931.789062 455.777344 933.527344 456.5 C 935.269531 457.21875 936.96875 458.023438 938.628906 458.914062 C 940.289062 459.800781 941.902344 460.769531 943.46875 461.816406 C 945.035156 462.863281 946.546875 463.984375 948 465.179688 C 949.457031 466.375 950.851562 467.640625 952.183594 468.972656 C 953.515625 470.304688 954.777344 471.699219 955.972656 473.15625 C 957.167969 474.613281 958.285156 476.125 959.332031 477.695312 C 960.378906 479.261719 961.347656 480.875 962.234375 482.539062 C 963.121094 484.199219 963.925781 485.902344 964.648438 487.644531 C 965.367188 489.382812 966 491.15625 966.546875 492.960938 C 967.09375 494.761719 967.550781 496.589844 967.917969 498.4375 C 968.285156 500.285156 968.5625 502.148438 968.746094 504.023438 C 968.929688 505.898438 969.023438 507.78125 969.023438 509.664062 Z M 969.023438 509.664062 " fill-opacity="1" fill-rule="nonzero"/></svg>