<svg xmlns="http://www.w3.org/2000/svg" xmlns:xlink="http://www.w3.org/1999/xlink" width="1920" zoomAndPan="magnify" viewBox="0 0 1440 809.999993" height="1080" preserveAspectRatio="xMidYMid meet" version="1.0"><defs><clipPath id="4b8e3f1799"><path d="M 640 92.308594 L 1003 92.308594 L 1003 455 L 640 455 Z M 640 92.308594 " clip-rule="nonzero"/></clipPath><clipPath id="11c49fe273"><path d="M 640 92.308594 L 1003 92.308594 L 1003 447 L 640 447 Z M 640 92.308594 " clip-rule="nonzero"/></clipPath><clipPath id="459389b2f9"><path d="M 890 611 L 1046 611 L 1046 717.808594 L 890 717.808594 Z M 890 611 " clip-rule="nonzero"/></clipPath></defs><path fill="#5ec08f" d="M 596.917969 215.613281 C 596.917969 259.976562 561.660156 295.25 517.3125 295.25 C 472.964844 295.25 437.703125 259.976562 437.703125 215.613281 C 437.703125 171.25 472.964844 135.976562 517.3125 135.976562 C 561.660156 135.976562 596.917969 171.25 596.917969 215.613281 Z M 596.917969 215.613281 " fill-opacity="1" fill-rule="nonzero"/><path fill="#bbffd6" d="M 595.777344 203.101562 C 578.710938 203.101562 561.660156 196.285156 549.15625 183.757812 C 536.648438 171.25 529.816406 154.179688 529.816406 137.121094 C 521.855469 135.976562 515.039062 135.976562 507.078125 137.121094 C 507.078125 159.867188 516.183594 182.628906 533.234375 199.6875 C 550.285156 216.742188 573.039062 225.851562 595.777344 225.851562 C 596.917969 219.03125 596.917969 211.066406 595.777344 203.101562 Z M 501.390625 231.539062 C 484.324219 214.46875 461.585938 205.375 438.847656 205.375 C 437.703125 213.339844 437.703125 220.160156 438.847656 228.125 C 455.914062 228.125 471.835938 234.941406 485.46875 248.597656 C 499.117188 262.25 504.804688 278.179688 505.933594 295.234375 C 513.894531 296.378906 520.714844 296.378906 528.675781 295.234375 C 527.546875 271.359375 518.457031 248.609375 501.390625 231.539062 Z M 501.390625 231.539062 " fill-opacity="1" fill-rule="nonzero"/><g clip-path="url(#4b8e3f1799)"><path fill="#e0dddc" d="M 1002.195312 273.296875 C 1002.195312 372.84375 920.777344 454.289062 821.269531 454.289062 C 721.757812 454.289062 640.34375 372.84375 640.34375 273.296875 C 640.34375 173.753906 721.757812 92.308594 821.269531 92.308594 C 920.777344 92.308594 1002.195312 173.753906 1002.195312 273.296875 Z M 1002.195312 273.296875 " fill-opacity="1" fill-rule="nonzero"/></g><path fill="#bfbfbf" d="M 682.851562 233.667969 L 688.570312 216.496094 L 759.796875 240.257812 L 754.078125 257.429688 Z M 682.851562 233.667969 " fill-opacity="1" fill-rule="nonzero"/><path fill="#bfbfbf" d="M 812.222656 128.507812 L 830.316406 128.507812 L 830.316406 200.902344 L 812.222656 200.902344 Z M 812.222656 128.507812 " fill-opacity="1" fill-rule="nonzero"/><path fill="#bfbfbf" d="M 727.347656 384.339844 L 773.503906 315.070312 L 788.558594 325.105469 L 742.398438 394.375 Z M 727.347656 384.339844 " fill-opacity="1" fill-rule="nonzero"/><path fill="#bfbfbf" d="M 853.980469 325.121094 L 869.03125 315.085938 L 915.191406 384.351562 L 900.136719 394.386719 Z M 853.980469 325.121094 " fill-opacity="1" fill-rule="nonzero"/><path fill="#bfbfbf" d="M 855.425781 249.351562 L 954.125 216.480469 L 959.84375 233.65625 L 861.144531 266.523438 Z M 855.425781 249.351562 " fill-opacity="1" fill-rule="nonzero"/><g clip-path="url(#11c49fe273)"><path fill="#546e7a" d="M 748.898438 246.148438 L 821.269531 191.851562 L 893.640625 246.148438 L 866.5 327.59375 L 776.035156 327.59375 Z M 875.546875 100.460938 C 858.367188 95.03125 840.273438 92.308594 821.269531 92.308594 C 802.265625 92.308594 784.171875 95.03125 766.992188 100.460938 L 752.515625 126.710938 L 821.269531 146.605469 L 884.59375 128.507812 Z M 984.101562 291.398438 L 1002.195312 273.296875 C 1002.195312 228.050781 985.910156 187.320312 958.773438 155.65625 L 938.871094 158.378906 L 938.871094 231.683594 Z M 895.449219 371.03125 L 856.542969 432.570312 L 877.355469 445.238281 C 918.070312 431.65625 952.445312 404.507812 974.160156 369.222656 L 966.921875 342.972656 Z M 704.578125 231.671875 L 703.667969 158.363281 L 683.765625 155.65625 C 656.625 187.335938 640.34375 228.050781 640.34375 273.296875 L 658.433594 291.398438 Z M 675.628906 343.882812 L 668.394531 370.136719 C 691.015625 405.433594 724.480469 432.582031 765.195312 446.152344 L 785.097656 431.671875 L 748 371.945312 Z M 675.628906 343.882812 " fill-opacity="1" fill-rule="nonzero"/></g><path fill="#d6d1d0" d="M 436.054688 441.605469 L 447.71875 415.410156 L 778.671875 562.894531 L 767.003906 589.089844 Z M 472.472656 395.066406 L 484.136719 368.875 L 788.398438 503.34375 L 776.730469 529.535156 Z M 742.269531 609.445312 L 730.601562 635.640625 L 425.820312 499.824219 L 437.488281 473.632812 Z M 742.269531 609.445312 " fill-opacity="1" fill-rule="nonzero"/><path fill="#d6d1d0" d="M 512.140625 604.574219 L 617.921875 367.015625 L 644.097656 378.683594 L 538.320312 616.242188 Z M 512.140625 604.574219 " fill-opacity="1" fill-rule="nonzero"/><path fill="#d6d1d0" d="M 454.242188 590.097656 L 560.023438 352.539062 L 586.203125 364.203125 L 480.421875 601.761719 Z M 454.242188 590.097656 " fill-opacity="1" fill-rule="nonzero"/><path fill="#d6d1d0" d="M 564.492188 627.902344 L 670.273438 390.34375 L 696.453125 402.007812 L 590.671875 639.566406 Z M 564.492188 627.902344 " fill-opacity="1" fill-rule="nonzero"/><path fill="#d6d1d0" d="M 750.15625 424.835938 L 643.019531 662.902344 L 616.835938 651.246094 L 722.628906 413.6875 Z M 750.15625 424.835938 " fill-opacity="1" fill-rule="nonzero"/><path fill="#c93d18" d="M 912.46875 624.765625 L 900.804688 650.957031 C 824.132812 616.800781 802.265625 567.820312 780.058594 522.050781 C 757.335938 474.933594 735.453125 425.953125 655.164062 382.328125 L 668.695312 356.972656 C 756.988281 405.289062 782.808594 460.5 806.054688 508.976562 C 828.765625 556.078125 847.019531 595.605469 912.46875 624.765625 Z M 912.46875 624.765625 " fill-opacity="1" fill-rule="nonzero"/><path fill="#c93d18" d="M 912.46875 624.765625 L 900.804688 650.957031 C 833.484375 620.957031 791.914062 633.816406 744.933594 648.742188 C 693.375 663.875 633.710938 682.117188 540.109375 648.25 L 549.894531 621.234375 C 636.015625 651.769531 687.570312 636.636719 737.261719 620.667969 C 786.125 606.566406 837.160156 590.089844 912.46875 624.765625 Z M 912.46875 624.765625 " fill-opacity="1" fill-rule="nonzero"/><path fill="#ff754c" d="M 448.574219 506.585938 C 441.828125 489.007812 435.519531 460.414062 448.53125 433.714844 C 460.195312 407.519531 486.816406 388.003906 522.144531 379.097656 C 562.066406 369.988281 607.671875 375.738281 650.675781 394.910156 C 701.160156 417.410156 740.414062 455.070312 756.480469 496.972656 C 763.226562 514.550781 769.539062 543.144531 756.527344 569.847656 C 744.859375 596.039062 718.242188 615.558594 682.910156 624.460938 C 643.003906 633.570312 597.382812 627.820312 554.378906 608.648438 C 504.414062 587.511719 464.640625 548.488281 448.574219 506.585938 M 408.03125 522.136719 C 427.730469 573.507812 473.832031 620.957031 536.054688 649.800781 C 642.628906 697.292969 759.144531 669.636719 794.96875 589.203125 C 809.964844 555.539062 808.328125 518.9375 794.851562 483.796875 C 775.152344 432.425781 729.054688 384.976562 666.828125 356.132812 C 560.257812 308.640625 443.738281 336.296875 407.917969 416.730469 C 393.761719 448.523438 394.558594 486.996094 408.03125 522.136719 Z M 408.03125 522.136719 " fill-opacity="1" fill-rule="nonzero"/><g clip-path="url(#459389b2f9)"><path fill="#37474f" d="M 1035.066406 661.457031 L 1045.429688 688.488281 L 1037.105469 707.195312 L 1010.082031 717.5625 L 897.894531 667.566406 L 890.121094 647.296875 L 902.613281 619.234375 L 922.875 611.460938 Z M 1035.066406 661.457031 " fill-opacity="1" fill-rule="nonzero"/></g><path fill="#546e7a" d="M 914.714844 675.082031 L 940.898438 686.75 L 965.878906 630.644531 L 939.695312 618.972656 Z M 1018.753906 655.316406 L 992.570312 643.644531 L 967.585938 699.753906 L 993.769531 711.421875 Z M 1018.753906 655.316406 " fill-opacity="1" fill-rule="nonzero"/></svg>