<svg xmlns="http://www.w3.org/2000/svg" xmlns:xlink="http://www.w3.org/1999/xlink" width="1920" zoomAndPan="magnify" viewBox="0 0 1440 809.999993" height="1080" preserveAspectRatio="xMidYMid meet" version="1.0"><defs><clipPath id="ad01c75ab7"><path d="M 420.910156 104.796875 L 703 104.796875 L 703 387 L 420.910156 387 Z M 420.910156 104.796875 " clip-rule="nonzero"/></clipPath><clipPath id="45df3a1815"><path d="M 737 104.796875 L 1019.410156 104.796875 L 1019.410156 387 L 737 387 Z M 737 104.796875 " clip-rule="nonzero"/></clipPath><clipPath id="4b96602b63"><path d="M 420.910156 423 L 703 423 L 703 705.546875 L 420.910156 705.546875 Z M 420.910156 423 " clip-rule="nonzero"/></clipPath><clipPath id="67e6634ee4"><path d="M 737 423 L 1019.410156 423 L 1019.410156 705.546875 L 737 705.546875 Z M 737 423 " clip-rule="nonzero"/></clipPath></defs><g clip-path="url(#ad01c75ab7)"><path fill="#74bdd5" d="M 630.390625 386.871094 L 493.367188 386.871094 C 453.417969 386.871094 420.910156 354.367188 420.910156 314.414062 L 420.910156 177.390625 C 420.910156 137.4375 453.417969 104.933594 493.367188 104.933594 L 630.386719 104.933594 C 670.335938 104.933594 702.84375 137.4375 702.84375 177.390625 L 702.84375 314.414062 C 702.84375 354.367188 670.335938 386.871094 630.386719 386.871094 Z M 630.390625 386.871094 " fill-opacity="1" fill-rule="nonzero"/></g><g clip-path="url(#45df3a1815)"><path fill="#74bdd5" d="M 946.957031 386.871094 L 809.9375 386.871094 C 769.984375 386.871094 737.480469 354.367188 737.480469 314.414062 L 737.480469 177.390625 C 737.480469 137.4375 769.984375 104.933594 809.9375 104.933594 L 946.957031 104.933594 C 986.90625 104.933594 1019.410156 137.4375 1019.410156 177.390625 L 1019.410156 314.414062 C 1019.410156 354.367188 986.90625 386.871094 946.957031 386.871094 Z M 946.957031 386.871094 " fill-opacity="1" fill-rule="nonzero"/></g><g clip-path="url(#4b96602b63)"><path fill="#74bdd5" d="M 630.390625 705.410156 L 493.367188 705.410156 C 453.417969 705.410156 420.910156 672.902344 420.910156 632.953125 L 420.910156 495.925781 C 420.910156 455.976562 453.417969 423.46875 493.367188 423.46875 L 630.386719 423.46875 C 670.335938 423.46875 702.84375 455.976562 702.84375 495.925781 L 702.84375 632.953125 C 702.84375 672.902344 670.335938 705.410156 630.386719 705.410156 Z M 630.390625 705.410156 " fill-opacity="1" fill-rule="nonzero"/></g><g clip-path="url(#67e6634ee4)"><path fill="#74bdd5" d="M 946.957031 705.410156 L 809.9375 705.410156 C 769.984375 705.410156 737.480469 672.902344 737.480469 632.953125 L 737.480469 495.925781 C 737.480469 455.976562 769.984375 423.46875 809.9375 423.46875 L 946.957031 423.46875 C 986.90625 423.46875 1019.410156 455.976562 1019.410156 495.925781 L 1019.410156 632.953125 C 1019.410156 672.902344 986.90625 705.410156 946.957031 705.410156 Z M 946.957031 705.410156 " fill-opacity="1" fill-rule="nonzero"/></g><path fill="#51707a" d="M 605.140625 231.578125 L 576.796875 231.289062 L 577.085938 202.945312 C 577.171875 194.785156 570.625 188.105469 562.46875 188.023438 C 554.308594 187.9375 547.628906 194.484375 547.542969 202.640625 L 547.253906 230.984375 L 518.910156 230.695312 C 518.839844 230.695312 518.773438 230.695312 518.703125 230.695312 C 510.640625 230.722656 504.074219 237.230469 503.988281 245.316406 C 503.90625 253.476562 510.449219 260.15625 518.609375 260.238281 L 546.953125 260.527344 L 546.664062 288.871094 C 546.578125 297.03125 553.125 303.710938 561.28125 303.796875 C 561.351562 303.796875 561.421875 303.796875 561.492188 303.796875 C 569.550781 303.765625 576.121094 297.261719 576.203125 289.175781 L 576.492188 260.832031 L 604.835938 261.121094 C 604.910156 261.121094 604.976562 261.121094 605.046875 261.121094 C 613.105469 261.089844 619.675781 254.589844 619.757812 246.5 C 619.84375 238.34375 613.296875 231.664062 605.140625 231.578125 Z M 605.140625 231.578125 " fill-opacity="1" fill-rule="nonzero"/><path fill="#51707a" d="M 582.769531 564.476562 L 602.84375 544.46875 C 608.625 538.714844 608.640625 529.359375 602.882812 523.582031 C 597.121094 517.800781 587.773438 517.785156 581.992188 523.546875 L 561.914062 543.550781 L 541.90625 523.472656 C 541.859375 523.425781 541.808594 523.375 541.761719 523.328125 C 535.992188 517.695312 526.75 517.730469 521.019531 523.4375 C 515.242188 529.195312 515.226562 538.546875 520.984375 544.328125 L 540.992188 564.40625 L 520.914062 584.414062 C 515.132812 590.171875 515.117188 599.523438 520.875 605.304688 C 520.925781 605.351562 520.976562 605.402344 521.023438 605.449219 C 526.792969 611.082031 536.035156 611.046875 541.765625 605.339844 L 561.84375 585.332031 L 581.851562 605.410156 C 581.898438 605.457031 581.949219 605.507812 581.996094 605.558594 C 587.765625 611.1875 597.007812 611.152344 602.738281 605.445312 C 608.519531 599.6875 608.53125 590.335938 602.773438 584.554688 Z M 582.769531 564.476562 " fill-opacity="1" fill-rule="nonzero"/><path fill="#51707a" d="M 917.417969 260.609375 C 917.347656 260.609375 917.28125 260.609375 917.210938 260.609375 L 830.980469 260.460938 C 822.824219 260.449219 816.222656 253.824219 816.238281 245.664062 C 816.25 237.578125 822.765625 231.015625 830.824219 230.917969 C 830.898438 230.917969 830.964844 230.917969 831.035156 230.917969 L 917.261719 231.066406 C 925.421875 231.078125 932.019531 237.707031 932.007812 245.863281 C 931.992188 253.953125 925.480469 260.511719 917.417969 260.609375 Z M 917.417969 260.609375 " fill-opacity="1" fill-rule="nonzero"/><path fill="#51707a" d="M 917.542969 577.332031 C 917.480469 577.332031 917.417969 577.332031 917.355469 577.332031 L 839.523438 577.082031 C 832.15625 577.0625 826.191406 570.425781 826.195312 562.273438 C 826.195312 554.183594 832.066406 547.632812 839.34375 547.542969 C 839.40625 547.542969 839.46875 547.542969 839.53125 547.542969 L 917.367188 547.792969 C 924.730469 547.816406 930.695312 554.453125 930.691406 562.605469 C 930.691406 570.695312 924.820312 577.242188 917.542969 577.332031 Z M 917.542969 577.332031 " fill-opacity="1" fill-rule="nonzero"/><path fill="#51707a" d="M 898.722656 517.207031 C 898.722656 517.875 898.691406 518.535156 898.625 519.195312 C 898.558594 519.859375 898.460938 520.515625 898.332031 521.164062 C 898.203125 521.816406 898.042969 522.460938 897.847656 523.09375 C 897.65625 523.730469 897.433594 524.355469 897.179688 524.96875 C 896.925781 525.582031 896.640625 526.183594 896.328125 526.769531 C 896.015625 527.355469 895.671875 527.921875 895.304688 528.476562 C 894.9375 529.027344 894.539062 529.558594 894.121094 530.074219 C 893.699219 530.585938 893.253906 531.078125 892.78125 531.546875 C 892.3125 532.019531 891.820312 532.464844 891.308594 532.882812 C 890.796875 533.304688 890.261719 533.703125 889.710938 534.070312 C 889.15625 534.4375 888.589844 534.78125 888.003906 535.09375 C 887.417969 535.40625 886.816406 535.691406 886.203125 535.945312 C 885.589844 536.199219 884.964844 536.421875 884.332031 536.613281 C 883.695312 536.808594 883.050781 536.96875 882.398438 537.097656 C 881.75 537.226562 881.09375 537.324219 880.433594 537.390625 C 879.769531 537.457031 879.109375 537.488281 878.445312 537.488281 C 877.78125 537.488281 877.117188 537.457031 876.457031 537.390625 C 875.796875 537.324219 875.140625 537.226562 874.488281 537.097656 C 873.835938 536.96875 873.191406 536.808594 872.558594 536.613281 C 871.921875 536.421875 871.296875 536.199219 870.683594 535.945312 C 870.070312 535.691406 869.472656 535.40625 868.886719 535.09375 C 868.300781 534.78125 867.730469 534.4375 867.179688 534.070312 C 866.625 533.703125 866.09375 533.304688 865.578125 532.882812 C 865.066406 532.464844 864.574219 532.019531 864.105469 531.546875 C 863.636719 531.078125 863.191406 530.585938 862.769531 530.074219 C 862.347656 529.558594 861.953125 529.027344 861.582031 528.476562 C 861.214844 527.921875 860.875 527.355469 860.558594 526.769531 C 860.246094 526.183594 859.964844 525.582031 859.710938 524.96875 C 859.457031 524.355469 859.230469 523.730469 859.039062 523.09375 C 858.847656 522.460938 858.683594 521.816406 858.554688 521.164062 C 858.425781 520.515625 858.328125 519.859375 858.261719 519.195312 C 858.199219 518.535156 858.164062 517.875 858.164062 517.207031 C 858.164062 516.542969 858.199219 515.882812 858.261719 515.222656 C 858.328125 514.558594 858.425781 513.902344 858.554688 513.253906 C 858.683594 512.601562 858.847656 511.957031 859.039062 511.320312 C 859.230469 510.6875 859.457031 510.0625 859.710938 509.449219 C 859.964844 508.835938 860.246094 508.234375 860.558594 507.648438 C 860.875 507.0625 861.214844 506.496094 861.582031 505.941406 C 861.953125 505.390625 862.347656 504.855469 862.769531 504.34375 C 863.191406 503.832031 863.636719 503.339844 864.105469 502.871094 C 864.574219 502.398438 865.066406 501.953125 865.578125 501.53125 C 866.09375 501.113281 866.625 500.714844 867.179688 500.347656 C 867.730469 499.976562 868.300781 499.636719 868.886719 499.324219 C 869.46875 499.011719 870.070312 498.726562 870.683594 498.472656 C 871.296875 498.21875 871.921875 497.996094 872.558594 497.804688 C 873.191406 497.609375 873.835938 497.449219 874.488281 497.320312 C 875.140625 497.191406 875.796875 497.09375 876.457031 497.027344 C 877.117188 496.960938 877.78125 496.929688 878.445312 496.929688 C 879.109375 496.929688 879.769531 496.960938 880.433594 497.027344 C 881.09375 497.09375 881.75 497.191406 882.398438 497.320312 C 883.050781 497.449219 883.695312 497.609375 884.332031 497.804688 C 884.964844 497.996094 885.589844 498.21875 886.203125 498.472656 C 886.816406 498.726562 887.417969 499.011719 888.003906 499.324219 C 888.589844 499.636719 889.15625 499.976562 889.710938 500.347656 C 890.261719 500.714844 890.796875 501.113281 891.308594 501.53125 C 891.820312 501.953125 892.3125 502.398438 892.78125 502.871094 C 893.253906 503.339844 893.699219 503.832031 894.121094 504.34375 C 894.539062 504.855469 894.9375 505.390625 895.304688 505.941406 C 895.671875 506.496094 896.015625 507.0625 896.328125 507.648438 C 896.640625 508.234375 896.925781 508.835938 897.179688 509.449219 C 897.433594 510.0625 897.65625 510.6875 897.847656 511.320312 C 898.042969 511.957031 898.203125 512.601562 898.332031 513.253906 C 898.460938 513.902344 898.558594 514.558594 898.625 515.222656 C 898.691406 515.882812 898.722656 516.542969 898.722656 517.207031 Z M 898.722656 517.207031 " fill-opacity="1" fill-rule="nonzero"/><path fill="#51707a" d="M 898.722656 611.675781 C 898.722656 612.339844 898.691406 613 898.625 613.664062 C 898.558594 614.324219 898.460938 614.980469 898.332031 615.632812 C 898.203125 616.28125 898.042969 616.925781 897.847656 617.5625 C 897.65625 618.195312 897.433594 618.820312 897.179688 619.433594 C 896.925781 620.046875 896.640625 620.648438 896.328125 621.234375 C 896.015625 621.820312 895.671875 622.390625 895.304688 622.941406 C 894.9375 623.492188 894.539062 624.027344 894.121094 624.539062 C 893.699219 625.054688 893.253906 625.542969 892.78125 626.015625 C 892.3125 626.484375 891.820312 626.929688 891.308594 627.351562 C 890.796875 627.773438 890.261719 628.167969 889.710938 628.535156 C 889.15625 628.90625 888.589844 629.246094 888.003906 629.558594 C 887.417969 629.871094 886.816406 630.15625 886.203125 630.410156 C 885.589844 630.664062 884.964844 630.886719 884.332031 631.082031 C 883.695312 631.273438 883.050781 631.433594 882.398438 631.5625 C 881.75 631.695312 881.09375 631.792969 880.433594 631.855469 C 879.769531 631.921875 879.109375 631.953125 878.445312 631.953125 C 877.78125 631.953125 877.117188 631.921875 876.457031 631.855469 C 875.796875 631.792969 875.140625 631.695312 874.488281 631.5625 C 873.835938 631.433594 873.191406 631.273438 872.558594 631.082031 C 871.921875 630.886719 871.296875 630.664062 870.683594 630.410156 C 870.070312 630.15625 869.472656 629.871094 868.886719 629.558594 C 868.300781 629.246094 867.730469 628.90625 867.179688 628.535156 C 866.625 628.167969 866.09375 627.773438 865.578125 627.351562 C 865.066406 626.929688 864.574219 626.484375 864.105469 626.015625 C 863.636719 625.542969 863.191406 625.054688 862.769531 624.539062 C 862.347656 624.027344 861.953125 623.492188 861.582031 622.941406 C 861.214844 622.390625 860.875 621.820312 860.558594 621.234375 C 860.246094 620.648438 859.964844 620.046875 859.710938 619.433594 C 859.457031 618.820312 859.230469 618.195312 859.039062 617.5625 C 858.847656 616.925781 858.683594 616.28125 858.554688 615.632812 C 858.425781 614.980469 858.328125 614.324219 858.261719 613.664062 C 858.199219 613 858.164062 612.339844 858.164062 611.675781 C 858.164062 611.011719 858.199219 610.347656 858.261719 609.6875 C 858.328125 609.027344 858.425781 608.371094 858.554688 607.71875 C 858.683594 607.066406 858.847656 606.421875 859.039062 605.789062 C 859.230469 605.152344 859.457031 604.527344 859.710938 603.914062 C 859.964844 603.300781 860.246094 602.699219 860.558594 602.117188 C 860.875 601.53125 861.214844 600.960938 861.582031 600.410156 C 861.953125 599.855469 862.347656 599.324219 862.769531 598.808594 C 863.191406 598.296875 863.636719 597.804688 864.105469 597.335938 C 864.574219 596.867188 865.066406 596.421875 865.578125 596 C 866.09375 595.578125 866.625 595.183594 867.179688 594.8125 C 867.730469 594.445312 868.300781 594.101562 868.886719 593.789062 C 869.46875 593.476562 870.070312 593.195312 870.683594 592.9375 C 871.296875 592.683594 871.921875 592.460938 872.558594 592.269531 C 873.191406 592.078125 873.835938 591.914062 874.488281 591.785156 C 875.140625 591.65625 875.796875 591.558594 876.457031 591.492188 C 877.117188 591.429688 877.78125 591.394531 878.445312 591.394531 C 879.109375 591.394531 879.769531 591.429688 880.433594 591.492188 C 881.09375 591.558594 881.75 591.65625 882.398438 591.785156 C 883.050781 591.914062 883.695312 592.078125 884.332031 592.269531 C 884.964844 592.460938 885.589844 592.683594 886.203125 592.9375 C 886.816406 593.195312 887.417969 593.476562 888.003906 593.789062 C 888.589844 594.101562 889.15625 594.445312 889.710938 594.8125 C 890.261719 595.183594 890.796875 595.578125 891.308594 596 C 891.820312 596.421875 892.3125 596.867188 892.78125 597.335938 C 893.253906 597.804688 893.699219 598.296875 894.121094 598.808594 C 894.539062 599.324219 894.9375 599.855469 895.304688 600.410156 C 895.671875 600.960938 896.015625 601.53125 896.328125 602.117188 C 896.640625 602.699219 896.925781 603.300781 897.179688 603.914062 C 897.433594 604.527344 897.65625 605.152344 897.847656 605.789062 C 898.042969 606.421875 898.203125 607.066406 898.332031 607.71875 C 898.460938 608.371094 898.558594 609.027344 898.625 609.6875 C 898.691406 610.347656 898.722656 611.011719 898.722656 611.675781 Z M 898.722656 611.675781 " fill-opacity="1" fill-rule="nonzero"/></svg>