<svg xmlns="http://www.w3.org/2000/svg" xmlns:xlink="http://www.w3.org/1999/xlink" width="200" zoomAndPan="magnify" viewBox="0 0 150 202.499994" height="270" preserveAspectRatio="xMidYMid meet" version="1.0"><defs><g/><clipPath id="653aa2f81d"><path d="M 4.480469 6.925781 L 149.8125 6.925781 L 149.8125 199.949219 L 4.480469 199.949219 Z M 4.480469 6.925781 " clip-rule="nonzero"/></clipPath><clipPath id="eec871858d"><path d="M 37.398438 6.925781 L 116.898438 6.925781 C 125.628906 6.925781 134 10.394531 140.171875 16.566406 C 146.347656 22.742188 149.816406 31.113281 149.816406 39.84375 L 149.816406 166.59375 C 149.816406 175.324219 146.347656 183.695312 140.171875 189.871094 C 134 196.042969 125.628906 199.511719 116.898438 199.511719 L 37.398438 199.511719 C 28.667969 199.511719 20.296875 196.042969 14.121094 189.871094 C 7.949219 183.695312 4.480469 175.324219 4.480469 166.59375 L 4.480469 39.84375 C 4.480469 31.113281 7.949219 22.742188 14.121094 16.566406 C 20.296875 10.394531 28.667969 6.925781 37.398438 6.925781 Z M 37.398438 6.925781 " clip-rule="nonzero"/></clipPath><clipPath id="25163f6694"><path d="M 0.183594 2.488281 L 145.519531 2.488281 L 145.519531 195 L 0.183594 195 Z M 0.183594 2.488281 " clip-rule="nonzero"/></clipPath><clipPath id="9d4c8f712c"><path d="M 33.101562 2.488281 L 112.601562 2.488281 C 121.332031 2.488281 129.703125 5.957031 135.878906 12.132812 C 142.050781 18.304688 145.519531 26.675781 145.519531 35.40625 L 145.519531 162.15625 C 145.519531 170.886719 142.050781 179.261719 135.878906 185.433594 C 129.703125 191.605469 121.332031 195.074219 112.601562 195.074219 L 33.101562 195.074219 C 24.371094 195.074219 16 191.605469 9.828125 185.433594 C 3.652344 179.261719 0.183594 170.886719 0.183594 162.15625 L 0.183594 35.40625 C 0.183594 26.675781 3.652344 18.304688 9.828125 12.132812 C 16 5.957031 24.371094 2.488281 33.101562 2.488281 Z M 33.101562 2.488281 " clip-rule="nonzero"/></clipPath><clipPath id="20900d8756"><path d="M 0.183594 2.492188 L 145.328125 2.492188 L 145.328125 194.765625 L 0.183594 194.765625 Z M 0.183594 2.492188 " clip-rule="nonzero"/></clipPath><clipPath id="52408ac918"><path d="M 33.101562 2.492188 L 112.597656 2.492188 C 121.328125 2.492188 129.699219 5.957031 135.871094 12.132812 C 142.046875 18.304688 145.511719 26.675781 145.511719 35.40625 L 145.511719 162.148438 C 145.511719 170.878906 142.046875 179.253906 135.871094 185.425781 C 129.699219 191.597656 121.328125 195.066406 112.597656 195.066406 L 33.101562 195.066406 C 24.371094 195.066406 16 191.597656 9.824219 185.425781 C 3.652344 179.253906 0.183594 170.878906 0.183594 162.148438 L 0.183594 35.40625 C 0.183594 26.675781 3.652344 18.304688 9.824219 12.132812 C 16 5.957031 24.371094 2.492188 33.101562 2.492188 Z M 33.101562 2.492188 " clip-rule="nonzero"/></clipPath><clipPath id="9d1a4cc812"><path d="M 17.824219 32 L 64 32 L 64 83 L 17.824219 83 Z M 17.824219 32 " clip-rule="nonzero"/></clipPath><clipPath id="f15f01e93e"><path d="M 78 59 L 127.804688 59 L 127.804688 109 L 78 109 Z M 78 59 " clip-rule="nonzero"/></clipPath><clipPath id="2457f13f8b"><path d="M 21 78 L 127.804688 78 L 127.804688 134.457031 L 21 134.457031 Z M 21 78 " clip-rule="nonzero"/></clipPath><clipPath id="15c3f16c93"><path d="M 76 27 L 127.804688 27 L 127.804688 81 L 76 81 Z M 76 27 " clip-rule="nonzero"/></clipPath></defs><g clip-path="url(#653aa2f81d)"><g clip-path="url(#eec871858d)"><path fill="#d9d9d9" d="M 4.480469 6.925781 L 149.816406 6.925781 L 149.816406 199.382812 L 4.480469 199.382812 Z M 4.480469 6.925781 " fill-opacity="1" fill-rule="nonzero"/></g></g><g clip-path="url(#25163f6694)"><g clip-path="url(#9d4c8f712c)"><path fill="#ffffff" d="M 0.183594 2.488281 L 145.519531 2.488281 L 145.519531 194.945312 L 0.183594 194.945312 Z M 0.183594 2.488281 " fill-opacity="1" fill-rule="nonzero"/></g></g><g clip-path="url(#20900d8756)"><g clip-path="url(#52408ac918)"><path stroke-linecap="butt" transform="matrix(0.748153, 0, 0, 0.748153, 0.184731, 2.490504)" fill="none" stroke-linejoin="miter" d="M 43.997482 0.00224957 L 150.254004 0.00224957 C 161.923373 0.00224957 173.112392 4.633449 181.361879 12.888157 C 189.616586 21.137643 194.247786 32.326662 194.247786 43.996031 L 194.247786 213.402896 C 194.247786 225.072265 189.616586 236.266505 181.361879 244.515992 C 173.112392 252.765478 161.923373 257.401899 150.254004 257.401899 L 43.997482 257.401899 C 32.328114 257.401899 21.139095 252.765478 12.884387 244.515992 C 4.6349 236.266505 -0.00152045 225.072265 -0.00152045 213.402896 L -0.00152045 43.996031 C -0.00152045 32.326662 4.6349 21.137643 12.884387 12.888157 C 21.139095 4.633449 32.328114 0.00224957 43.997482 0.00224957 Z M 43.997482 0.00224957 " stroke="#d9d9d9" stroke-width="2" stroke-opacity="1" stroke-miterlimit="4"/></g></g><path fill="#ae2c36" d="M 49.695312 55.933594 C 49.367188 57.15625 49.226562 58.414062 49.269531 59.671875 C 48.199219 59.441406 46.835938 58.917969 45.914062 57.6875 C 45.144531 56.648438 44.488281 54.859375 45.171875 54.179688 C 45.863281 53.488281 47.660156 54.152344 48.695312 54.914062 C 49.09375 55.214844 49.429688 55.570312 49.695312 55.933594 Z M 49.695312 55.933594 " fill-opacity="1" fill-rule="nonzero"/><path fill="#ae2c36" d="M 49.75 62.761719 C 49.945312 63.480469 50.199219 64.171875 50.527344 64.851562 C 50.246094 65.800781 49.703125 66.847656 48.695312 67.597656 C 47.660156 68.371094 45.863281 69.023438 45.171875 68.34375 C 44.488281 67.652344 45.144531 65.863281 45.914062 64.835938 C 46.976562 63.410156 48.625 62.921875 49.738281 62.761719 Z M 49.75 62.761719 " fill-opacity="1" fill-rule="nonzero"/><path fill="#c84242" d="M 60.90625 60.671875 C 60.90625 61.183594 60.851562 64.027344 58.746094 65.597656 C 57.710938 66.359375 55.910156 67.023438 55.222656 66.332031 C 54.539062 65.648438 55.195312 63.859375 55.964844 62.832031 C 57.542969 60.726562 60.394531 60.671875 60.90625 60.671875 Z M 60.90625 60.671875 " fill-opacity="1" fill-rule="nonzero"/><path fill="#c84242" d="M 68.691406 62.832031 C 69.460938 63.859375 70.125 65.648438 69.433594 66.332031 C 68.75 67.023438 66.953125 66.359375 65.917969 65.597656 C 63.800781 64.027344 63.75 61.183594 63.75 60.671875 C 64.261719 60.671875 67.121094 60.726562 68.691406 62.832031 Z M 68.691406 62.832031 " fill-opacity="1" fill-rule="nonzero"/><path fill="#c84242" d="M 69.433594 52.175781 C 70.125 52.859375 69.460938 54.648438 68.691406 55.675781 C 67.121094 57.785156 64.261719 57.835938 63.75 57.835938 C 63.75 57.324219 63.800781 54.480469 65.917969 52.910156 C 66.953125 52.148438 68.75 51.484375 69.433594 52.175781 Z M 69.433594 52.175781 " fill-opacity="1" fill-rule="nonzero"/><path fill="#c84242" d="M 58.746094 52.910156 C 60.851562 54.480469 60.90625 57.324219 60.90625 57.835938 C 60.394531 57.835938 57.542969 57.785156 55.964844 55.675781 C 55.195312 54.648438 54.539062 52.859375 55.222656 52.175781 C 55.910156 51.484375 57.710938 52.148438 58.746094 52.910156 Z M 58.746094 52.910156 " fill-opacity="1" fill-rule="nonzero"/><path fill="#e58e1a" d="M 58.3125 100.3125 C 59.417969 100.3125 60.320312 101.21875 60.320312 102.324219 C 60.320312 103.421875 59.417969 104.328125 58.3125 104.328125 C 57.195312 104.328125 56.300781 103.421875 56.300781 102.324219 C 56.300781 101.21875 57.195312 100.3125 58.3125 100.3125 Z M 58.3125 100.3125 " fill-opacity="1" fill-rule="nonzero"/><path fill="#ef9d26" d="M 54.292969 88.300781 C 60.394531 88.300781 65.34375 93.234375 65.34375 99.3125 C 65.34375 105.398438 60.394531 110.332031 54.292969 110.332031 C 48.183594 110.332031 43.230469 105.398438 43.230469 99.3125 C 43.230469 93.234375 48.183594 88.300781 54.292969 88.300781 Z M 60.320312 102.324219 C 60.320312 101.21875 59.417969 100.3125 58.3125 100.3125 C 57.195312 100.3125 56.300781 101.21875 56.300781 102.324219 C 56.300781 103.421875 57.195312 104.328125 58.3125 104.328125 C 59.417969 104.328125 60.320312 103.421875 60.320312 102.324219 Z M 60.320312 102.324219 " fill-opacity="1" fill-rule="nonzero"/><path fill="#f9eac7" d="M 82.433594 100.3125 C 82.46875 100.855469 83.160156 113.859375 73.382812 120.351562 C 70.753906 122.097656 68 122.949219 65.371094 123.285156 L 65.359375 123.285156 C 60.863281 123.859375 56.746094 122.921875 54.292969 122.355469 C 43.683594 119.917969 30.90625 111.148438 30.171875 99.3125 C 29.96875 95.964844 30.753906 93.003906 31.941406 90.304688 C 32.878906 88.152344 34.066406 86.167969 35.191406 84.296875 C 35.476562 83.828125 35.765625 83.339844 36.078125 82.835938 C 38.324219 79.152344 41.320312 74.773438 45.71875 72.515625 C 46.808594 71.957031 47.988281 71.53125 49.261719 71.273438 C 52.035156 70.71875 54.65625 71.097656 57.144531 72.039062 C 61.214844 73.550781 64.933594 76.539062 68.363281 79.285156 C 71.453125 81.765625 75.164062 84.742188 78.003906 88.613281 C 80.359375 91.820312 82.121094 95.65625 82.433594 100.3125 Z M 65.34375 99.3125 C 65.34375 93.234375 60.394531 88.300781 54.292969 88.300781 C 48.183594 88.300781 43.230469 93.234375 43.230469 99.3125 C 43.230469 105.398438 48.183594 110.332031 54.292969 110.332031 C 60.394531 110.332031 65.34375 105.398438 65.34375 99.3125 Z M 65.34375 99.3125 " fill-opacity="1" fill-rule="nonzero"/><path fill="#349370" d="M 78.472656 86.371094 C 77.898438 86.882812 77.855469 87.769531 78.367188 88.347656 L 78.003906 88.613281 C 75.164062 84.742188 71.453125 81.765625 68.363281 79.285156 C 64.933594 76.539062 61.214844 73.550781 57.144531 72.039062 L 57.410156 71.320312 C 62.136719 73.222656 67.742188 72.265625 71.566406 68.457031 C 73.800781 66.234375 75.054688 63.410156 75.332031 60.503906 L 75.417969 60.511719 C 75.410156 60.574219 75.410156 60.636719 75.402344 60.699219 C 75.332031 61.496094 75.933594 62.1875 76.730469 62.230469 L 79.828125 62.390625 C 80.609375 62.425781 81.203125 63.089844 81.15625 63.859375 L 80.09375 84.910156 Z M 78.472656 86.371094 " fill-opacity="1" fill-rule="nonzero"/><path fill="#349370" d="M 78.597656 51.882812 C 76.863281 54.425781 75.730469 57.359375 75.417969 60.511719 L 75.332031 60.503906 C 75.695312 56.765625 74.4375 52.910156 71.566406 50.050781 C 70.574219 49.058594 69.460938 48.261719 68.273438 47.65625 C 66.847656 46.933594 65.316406 46.488281 63.757812 46.320312 L 63.757812 46.3125 C 63.03125 44.824219 62.289062 42.980469 61.738281 40.808594 C 61.332031 39.242188 61.101562 37.773438 60.976562 36.433594 C 60.71875 33.707031 57.832031 31.925781 55.308594 33.003906 C 55.285156 33.015625 55.257812 33.023438 55.230469 33.042969 C 53.769531 33.679688 52.75 34.664062 52.070312 35.609375 C 51.078125 36.964844 49.429688 37.648438 47.773438 37.328125 C 45.886719 36.957031 43.300781 36.789062 40.59375 37.640625 C 41.496094 37.257812 42.363281 37.027344 43.097656 36.886719 C 44.390625 36.636719 45.472656 35.753906 46.019531 34.554688 C 47.144531 32.136719 49.632812 28.3125 54.601562 26.785156 C 59.136719 25.394531 63.050781 26.75 65.464844 28.070312 C 66.9375 28.878906 68.714844 28.71875 70.070312 27.726562 C 71.019531 27.035156 72.285156 26.40625 73.871094 26.238281 C 73.894531 26.230469 73.933594 26.230469 73.957031 26.230469 C 75.082031 26.121094 76.128906 26.496094 76.914062 27.160156 C 78.039062 28.097656 78.660156 29.628906 78.316406 31.207031 C 78.03125 32.519531 77.800781 33.988281 77.714844 35.601562 C 77.695312 35.957031 77.695312 36.515625 77.714844 37.214844 C 77.800781 40.765625 78.351562 48.058594 78.589844 51.882812 Z M 78.597656 51.882812 " fill-opacity="1" fill-rule="nonzero"/><g clip-path="url(#9d1a4cc812)"><path fill="#a7d276" d="M 52.902344 48.25 C 49.351562 48.082031 45.746094 49.351562 43.035156 52.050781 C 42.746094 52.34375 42.460938 52.65625 42.203125 52.972656 C 38.035156 57.988281 38.21875 65.375 42.761719 70.175781 C 42.851562 70.273438 42.949219 70.371094 43.035156 70.460938 C 43.859375 71.285156 44.765625 71.964844 45.71875 72.515625 C 41.320312 74.773438 38.324219 79.152344 36.078125 82.835938 L 36.066406 82.835938 C 34.632812 82.1875 33.003906 81.535156 31.199219 80.941406 C 30.347656 80.65625 29.453125 80.382812 28.523438 80.125 C 26.070312 79.460938 23.785156 79.027344 21.742188 78.761719 C 21.679688 78.753906 21.617188 78.742188 21.554688 78.726562 C 20.191406 78.484375 18.996094 77.609375 18.464844 76.324219 C 18.066406 75.375 17.78125 74.164062 17.976562 72.789062 C 18.242188 70.851562 19.367188 69.121094 21.007812 67.980469 C 22.246094 67.121094 22.917969 65.675781 22.792969 64.171875 C 22.644531 62.363281 22.820312 59.902344 24.183594 57.386719 C 25.574219 54.808594 27.613281 53.308594 29.144531 52.476562 C 30.304688 51.847656 31.054688 50.679688 31.214844 49.375 C 31.550781 46.726562 32.757812 42.335938 37.035156 39.382812 C 38.210938 38.570312 39.414062 38.011719 40.59375 37.640625 C 43.300781 36.789062 45.886719 36.957031 47.773438 37.328125 C 49.429688 37.648438 51.078125 36.964844 52.070312 35.609375 C 52.75 34.664062 53.769531 33.679688 55.230469 33.042969 C 55.257812 33.023438 55.285156 33.015625 55.308594 33.003906 C 57.832031 31.925781 60.71875 33.707031 60.976562 36.433594 C 61.101562 37.773438 61.332031 39.242188 61.738281 40.808594 C 62.289062 42.980469 63.03125 44.824219 63.757812 46.3125 L 63.757812 46.320312 C 60.710938 45.984375 57.578125 46.71875 54.945312 48.515625 L 54.9375 48.507812 C 54.265625 48.367188 53.582031 48.285156 52.902344 48.25 Z M 52.902344 48.25 " fill-opacity="1" fill-rule="nonzero"/></g><path fill="#c84242" d="M 53.085938 50.050781 C 51.394531 51.742188 50.261719 53.78125 49.695312 55.933594 C 49.429688 55.570312 49.09375 55.214844 48.695312 54.914062 C 47.660156 54.152344 45.863281 53.488281 45.171875 54.179688 C 44.488281 54.859375 45.144531 56.648438 45.914062 57.6875 C 46.835938 58.917969 48.199219 59.441406 49.269531 59.671875 C 49.304688 60.714844 49.457031 61.753906 49.75 62.761719 L 49.738281 62.761719 C 48.625 62.921875 46.976562 63.410156 45.914062 64.835938 C 45.144531 65.863281 44.488281 67.652344 45.171875 68.34375 C 45.863281 69.023438 47.660156 68.371094 48.695312 67.597656 C 49.703125 66.847656 50.246094 65.800781 50.527344 64.851562 C 51.148438 66.15625 52.007812 67.378906 53.085938 68.457031 C 54.363281 69.734375 55.832031 70.683594 57.410156 71.320312 L 57.144531 72.039062 C 54.65625 71.097656 52.035156 70.71875 49.261719 71.273438 C 47.988281 71.53125 46.808594 71.957031 45.71875 72.515625 C 44.765625 71.964844 43.859375 71.285156 43.035156 70.460938 C 42.949219 70.371094 42.851562 70.273438 42.761719 70.175781 C 38.21875 65.375 38.035156 57.988281 42.203125 52.972656 C 42.460938 52.65625 42.746094 52.34375 43.035156 52.050781 C 45.746094 49.351562 49.351562 48.082031 52.902344 48.25 C 53.582031 48.285156 54.265625 48.367188 54.9375 48.507812 L 54.945312 48.515625 C 54.292969 48.960938 53.671875 49.472656 53.085938 50.050781 Z M 53.085938 50.050781 " fill-opacity="1" fill-rule="nonzero"/><path fill="#ae2c36" d="M 71.566406 50.050781 C 74.4375 52.910156 75.695312 56.765625 75.332031 60.503906 C 75.054688 63.410156 73.800781 66.234375 71.566406 68.457031 C 67.742188 72.265625 62.136719 73.222656 57.410156 71.320312 C 55.832031 70.683594 54.363281 69.734375 53.085938 68.457031 C 52.007812 67.378906 51.148438 66.15625 50.527344 64.851562 C 50.199219 64.171875 49.945312 63.480469 49.75 62.761719 C 49.457031 61.753906 49.304688 60.714844 49.269531 59.671875 C 49.226562 58.414062 49.367188 57.15625 49.695312 55.933594 C 50.261719 53.78125 51.394531 51.742188 53.085938 50.050781 C 53.671875 49.472656 54.292969 48.960938 54.945312 48.515625 C 57.578125 46.71875 60.710938 45.984375 63.757812 46.320312 C 65.316406 46.488281 66.847656 46.933594 68.273438 47.65625 C 69.460938 48.261719 70.574219 49.058594 71.566406 50.050781 Z M 68.691406 55.675781 C 69.460938 54.648438 70.125 52.859375 69.433594 52.175781 C 68.75 51.484375 66.953125 52.148438 65.917969 52.910156 C 63.800781 54.480469 63.75 57.324219 63.75 57.835938 C 64.261719 57.835938 67.121094 57.785156 68.691406 55.675781 Z M 69.433594 66.332031 C 70.125 65.648438 69.460938 63.859375 68.691406 62.832031 C 67.121094 60.726562 64.261719 60.671875 63.75 60.671875 C 63.75 61.183594 63.800781 64.027344 65.917969 65.597656 C 66.953125 66.359375 68.75 67.023438 69.433594 66.332031 Z M 60.90625 57.835938 C 60.90625 57.324219 60.851562 54.480469 58.746094 52.910156 C 57.710938 52.148438 55.910156 51.484375 55.222656 52.175781 C 54.539062 52.859375 55.195312 54.648438 55.964844 55.675781 C 57.542969 57.785156 60.394531 57.835938 60.90625 57.835938 Z M 58.746094 65.597656 C 60.851562 64.027344 60.90625 61.183594 60.90625 60.671875 C 60.394531 60.671875 57.542969 60.726562 55.964844 62.832031 C 55.195312 63.859375 54.539062 65.648438 55.222656 66.332031 C 55.910156 67.023438 57.710938 66.359375 58.746094 65.597656 Z M 58.746094 65.597656 " fill-opacity="1" fill-rule="nonzero"/><g clip-path="url(#f15f01e93e)"><path fill="#fbe2ae" d="M 116.71875 62.328125 C 118.835938 63.417969 120.765625 64.878906 122.394531 66.675781 C 125.902344 70.550781 127.699219 75.644531 127.71875 80.691406 C 127.71875 81.046875 127.71875 81.402344 127.699219 81.753906 C 127.476562 86.609375 125.601562 91.339844 122.015625 94.8125 C 121.4375 95.371094 120.519531 95.34375 119.988281 94.75 L 117.90625 92.457031 C 117.488281 92.003906 116.851562 91.878906 116.320312 92.101562 C 116.179688 92.15625 116.046875 92.242188 115.921875 92.351562 L 98.28125 108.226562 C 97.707031 108.746094 96.820312 108.703125 96.300781 108.128906 L 87.339844 98.230469 L 78.367188 88.347656 C 77.855469 87.769531 77.898438 86.882812 78.472656 86.371094 L 80.09375 84.910156 L 86.648438 79.007812 L 89.667969 76.296875 L 92.765625 73.507812 L 96.113281 70.496094 C 96.6875 69.972656 96.734375 69.085938 96.210938 68.519531 L 94.128906 66.226562 C 93.597656 65.632812 93.660156 64.710938 94.273438 64.207031 C 95.910156 62.832031 97.75 61.796875 99.707031 61.078125 C 105.164062 59.078125 111.484375 59.589844 116.71875 62.328125 Z M 116.71875 62.328125 " fill-opacity="1" fill-rule="nonzero"/></g><path fill="#ffc05a" d="M 116.71875 62.328125 C 111.484375 59.589844 105.164062 59.078125 99.707031 61.078125 C 97.75 61.796875 95.910156 62.832031 94.273438 64.207031 C 93.660156 64.710938 93.597656 65.632812 94.128906 66.226562 L 96.210938 68.519531 C 96.734375 69.085938 96.6875 69.972656 96.113281 70.496094 L 92.765625 73.507812 L 89.667969 76.296875 L 86.648438 79.007812 L 80.09375 84.910156 L 81.15625 63.859375 C 81.203125 63.089844 80.609375 62.425781 79.828125 62.390625 L 76.730469 62.230469 C 75.933594 62.1875 75.332031 61.496094 75.402344 60.699219 C 75.410156 60.636719 75.410156 60.574219 75.417969 60.511719 C 75.730469 57.359375 76.863281 54.425781 78.597656 51.882812 C 82.328125 46.398438 88.800781 42.742188 95.660156 42.617188 C 96.113281 42.609375 96.566406 42.609375 97.027344 42.636719 C 107.472656 43.175781 116.570312 52.007812 116.71875 62.328125 Z M 116.71875 62.328125 " fill-opacity="1" fill-rule="nonzero"/><path fill="#d6ebf2" d="M 31.199219 80.941406 C 33.003906 81.535156 34.632812 82.1875 36.066406 82.835938 L 36.078125 82.835938 C 35.765625 83.339844 35.476562 83.828125 35.191406 84.296875 C 34.066406 86.167969 32.878906 88.152344 31.941406 90.304688 C 31.4375 87.707031 31.171875 85.03125 31.171875 82.285156 C 31.171875 81.835938 31.179688 81.390625 31.199219 80.941406 Z M 31.199219 80.941406 " fill-opacity="1" fill-rule="nonzero"/><g clip-path="url(#2457f13f8b)"><path fill="#c2e6f9" d="M 21.742188 78.761719 C 23.785156 79.027344 26.070312 79.460938 28.523438 80.125 C 29.453125 80.382812 30.347656 80.65625 31.199219 80.941406 C 31.179688 81.390625 31.171875 81.835938 31.171875 82.285156 C 31.171875 85.03125 31.4375 87.707031 31.941406 90.304688 C 30.753906 93.003906 29.96875 95.964844 30.171875 99.3125 C 30.90625 111.148438 43.683594 119.917969 54.292969 122.355469 C 56.746094 122.921875 60.863281 123.859375 65.359375 123.285156 L 65.371094 123.285156 C 68.351562 123.941406 71.445312 124.285156 74.613281 124.285156 C 94.5625 124.285156 111.351562 110.644531 116.320312 92.101562 C 116.851562 91.878906 117.488281 92.003906 117.90625 92.457031 L 119.988281 94.75 C 120.519531 95.34375 121.4375 95.371094 122.015625 94.8125 C 125.601562 91.339844 127.476562 86.609375 127.699219 81.753906 C 127.140625 110.863281 103.585938 134.277344 74.613281 134.277344 C 45.285156 134.277344 21.519531 110.289062 21.519531 80.691406 C 21.519531 80.035156 21.527344 79.382812 21.554688 78.734375 L 21.554688 78.726562 C 21.617188 78.742188 21.679688 78.753906 21.742188 78.761719 Z M 21.742188 78.761719 " fill-opacity="1" fill-rule="nonzero"/></g><g clip-path="url(#15c3f16c93)"><path fill="#c2e6f9" d="M 95.660156 42.609375 C 90.269531 39.578125 84.203125 37.675781 77.714844 37.214844 C 77.695312 36.515625 77.695312 35.957031 77.714844 35.601562 C 77.800781 33.988281 78.03125 32.519531 78.316406 31.207031 C 78.660156 29.628906 78.039062 28.097656 76.914062 27.160156 C 105.179688 28.371094 127.71875 51.882812 127.71875 80.691406 C 127.699219 75.644531 125.902344 70.550781 122.394531 66.675781 C 120.765625 64.878906 118.835938 63.417969 116.71875 62.328125 C 116.570312 52.007812 107.472656 43.175781 97.027344 42.636719 C 96.566406 42.609375 96.113281 42.609375 95.660156 42.617188 Z M 95.660156 42.609375 " fill-opacity="1" fill-rule="nonzero"/></g><path fill="#d6ebf2" d="M 115.921875 92.351562 C 116.046875 92.242188 116.179688 92.15625 116.320312 92.101562 C 111.351562 110.644531 94.5625 124.285156 74.613281 124.285156 C 71.445312 124.285156 68.351562 123.941406 65.371094 123.285156 C 68 122.949219 70.753906 122.097656 73.382812 120.351562 C 83.160156 113.859375 82.46875 100.855469 82.433594 100.3125 C 82.121094 95.65625 80.359375 91.820312 78.003906 88.613281 L 78.367188 88.347656 L 87.339844 98.230469 L 96.300781 108.128906 C 96.820312 108.703125 97.707031 108.746094 98.28125 108.226562 Z M 115.921875 92.351562 " fill-opacity="1" fill-rule="nonzero"/><path fill="#d6ebf2" d="M 95.660156 42.609375 L 95.660156 42.617188 C 88.800781 42.742188 82.328125 46.398438 78.597656 51.882812 L 78.589844 51.882812 C 78.351562 48.058594 77.800781 40.765625 77.714844 37.214844 C 84.203125 37.675781 90.269531 39.578125 95.660156 42.609375 Z M 95.660156 42.609375 " fill-opacity="1" fill-rule="nonzero"/><path fill="#fbc88e" d="M 119.5 83.402344 C 119.148438 83.402344 118.8125 83.191406 118.675781 82.84375 L 115.585938 75.039062 C 115.40625 74.582031 115.628906 74.066406 116.085938 73.886719 C 116.539062 73.707031 117.054688 73.929688 117.234375 74.386719 L 120.324219 82.191406 C 120.503906 82.644531 120.28125 83.160156 119.824219 83.339844 C 119.71875 83.382812 119.609375 83.402344 119.5 83.402344 Z M 119.5 83.402344 " fill-opacity="1" fill-rule="nonzero"/><path fill="#fbc88e" d="M 116.578125 86.035156 C 116.226562 86.035156 115.890625 85.820312 115.753906 85.472656 L 112.664062 77.667969 C 112.484375 77.214844 112.707031 76.699219 113.160156 76.519531 C 113.617188 76.339844 114.128906 76.5625 114.308594 77.015625 L 117.402344 84.820312 C 117.582031 85.277344 117.359375 85.792969 116.902344 85.972656 C 116.796875 86.011719 116.6875 86.035156 116.578125 86.035156 Z M 116.578125 86.035156 " fill-opacity="1" fill-rule="nonzero"/><path fill="#fbc88e" d="M 113.664062 88.65625 C 113.3125 88.65625 112.980469 88.445312 112.839844 88.097656 L 109.742188 80.300781 C 109.5625 79.847656 109.78125 79.332031 110.238281 79.152344 C 110.691406 78.972656 111.207031 79.191406 111.386719 79.648438 L 114.488281 87.441406 C 114.667969 87.898438 114.445312 88.414062 113.992188 88.59375 C 113.882812 88.636719 113.773438 88.65625 113.664062 88.65625 Z M 113.664062 88.65625 " fill-opacity="1" fill-rule="nonzero"/><path fill="#fbc88e" d="M 96.761719 91.960938 C 96.722656 91.960938 96.6875 91.957031 96.648438 91.953125 C 96.164062 91.890625 95.820312 91.449219 95.882812 90.960938 L 97.03125 81.988281 C 97.09375 81.5 97.539062 81.167969 98.023438 81.222656 C 98.507812 81.28125 98.851562 81.726562 98.789062 82.210938 L 97.636719 91.1875 C 97.582031 91.632812 97.199219 91.960938 96.761719 91.960938 Z M 96.761719 91.960938 " fill-opacity="1" fill-rule="nonzero"/><path fill="#fbc88e" d="M 92.589844 91.746094 C 92.554688 91.746094 92.515625 91.746094 92.476562 91.742188 C 91.992188 91.679688 91.648438 91.234375 91.710938 90.75 L 92.863281 81.777344 C 92.925781 81.289062 93.367188 80.945312 93.851562 81.007812 C 94.339844 81.070312 94.683594 81.515625 94.617188 82 L 93.46875 90.972656 C 93.410156 91.421875 93.03125 91.746094 92.589844 91.746094 Z M 92.589844 91.746094 " fill-opacity="1" fill-rule="nonzero"/><path fill="#fbc88e" d="M 88.347656 92.917969 C 88.3125 92.917969 88.273438 92.914062 88.234375 92.910156 C 87.75 92.847656 87.40625 92.402344 87.46875 91.917969 L 88.621094 82.945312 C 88.683594 82.457031 89.128906 82.125 89.613281 82.175781 C 90.097656 82.238281 90.441406 82.683594 90.378906 83.167969 L 89.226562 92.144531 C 89.167969 92.589844 88.789062 92.917969 88.347656 92.917969 Z M 88.347656 92.917969 " fill-opacity="1" fill-rule="nonzero"/><path fill="#fbe2ae" d="M 106.214844 56.765625 C 106.097656 56.765625 105.980469 56.742188 105.867188 56.691406 L 98.144531 53.351562 C 97.695312 53.15625 97.488281 52.636719 97.683594 52.1875 C 97.875 51.738281 98.398438 51.53125 98.847656 51.726562 L 106.566406 55.066406 C 107.015625 55.257812 107.222656 55.78125 107.027344 56.230469 C 106.886719 56.566406 106.558594 56.765625 106.214844 56.765625 Z M 106.214844 56.765625 " fill-opacity="1" fill-rule="nonzero"/><path fill="#fbe2ae" d="M 106.011719 60.6875 C 105.894531 60.6875 105.773438 60.664062 105.660156 60.617188 L 97.949219 57.265625 C 97.5 57.070312 97.292969 56.550781 97.488281 56.101562 C 97.683594 55.652344 98.203125 55.445312 98.652344 55.640625 L 106.367188 58.988281 C 106.8125 59.183594 107.019531 59.707031 106.824219 60.15625 C 106.679688 60.488281 106.355469 60.6875 106.011719 60.6875 Z M 106.011719 60.6875 " fill-opacity="1" fill-rule="nonzero"/><path fill="#fbe2ae" d="M 99.707031 61.964844 C 99.589844 61.964844 99.46875 61.941406 99.355469 61.890625 L 97.746094 61.191406 C 97.296875 60.996094 97.089844 60.476562 97.285156 60.027344 C 97.480469 59.578125 98 59.371094 98.449219 59.566406 L 100.0625 60.265625 C 100.507812 60.460938 100.714844 60.980469 100.519531 61.429688 C 100.375 61.765625 100.050781 61.964844 99.707031 61.964844 Z M 99.707031 61.964844 " fill-opacity="1" fill-rule="nonzero"/><path fill="#fbe2ae" d="M 92.765625 74.394531 C 92.503906 74.394531 92.242188 74.277344 92.066406 74.050781 L 89.96875 71.351562 C 89.667969 70.964844 89.738281 70.40625 90.125 70.105469 C 90.511719 69.804688 91.066406 69.878906 91.367188 70.261719 L 93.464844 72.964844 C 93.765625 73.351562 93.695312 73.90625 93.308594 74.207031 C 93.148438 74.332031 92.957031 74.394531 92.765625 74.394531 Z M 92.765625 74.394531 " fill-opacity="1" fill-rule="nonzero"/><path fill="#fbe2ae" d="M 89.667969 77.183594 C 89.402344 77.183594 89.140625 77.066406 88.96875 76.84375 L 86.867188 74.140625 C 86.570312 73.753906 86.640625 73.199219 87.027344 72.898438 C 87.410156 72.597656 87.96875 72.667969 88.269531 73.054688 L 90.367188 75.753906 C 90.667969 76.140625 90.597656 76.699219 90.210938 76.996094 C 90.050781 77.121094 89.859375 77.183594 89.667969 77.183594 Z M 89.667969 77.183594 " fill-opacity="1" fill-rule="nonzero"/><path fill="#fbe2ae" d="M 86.648438 79.894531 C 86.382812 79.894531 86.125 79.777344 85.949219 79.554688 L 84.710938 77.957031 C 84.410156 77.570312 84.476562 77.015625 84.863281 76.714844 C 85.253906 76.414062 85.808594 76.484375 86.105469 76.871094 L 87.347656 78.464844 C 87.644531 78.851562 87.578125 79.40625 87.191406 79.707031 C 87.03125 79.832031 86.839844 79.894531 86.648438 79.894531 Z M 86.648438 79.894531 " fill-opacity="1" fill-rule="nonzero"/><path fill="#96b443" d="M 37.582031 66.460938 C 35.257812 65.355469 32.871094 64.335938 30.484375 63.429688 C 30.027344 63.257812 29.515625 63.488281 29.34375 63.945312 C 29.167969 64.402344 29.398438 64.914062 29.855469 65.085938 C 32.199219 65.972656 34.539062 66.972656 36.816406 68.058594 C 37.929688 68.597656 39.003906 69.140625 40.03125 69.683594 C 40.460938 69.910156 40.984375 69.753906 41.21875 69.328125 C 41.453125 68.894531 41.296875 68.351562 40.863281 68.121094 C 39.816406 67.5625 38.71875 67.011719 37.582031 66.460938 Z M 37.582031 66.460938 " fill-opacity="1" fill-rule="nonzero"/><path fill="#96b443" d="M 37.917969 48.691406 C 37.511719 48.414062 36.960938 48.515625 36.683594 48.917969 C 36.40625 49.320312 36.507812 49.871094 36.910156 50.148438 C 38.289062 51.101562 39.652344 52.101562 40.964844 53.125 C 41.347656 53.425781 41.894531 53.359375 42.199219 52.980469 C 42.503906 52.59375 42.441406 52.03125 42.054688 51.726562 C 40.710938 50.679688 39.324219 49.660156 37.917969 48.691406 Z M 37.917969 48.691406 " fill-opacity="1" fill-rule="nonzero"/><path fill="#96b443" d="M 49.988281 42.058594 C 49.710938 41.65625 49.160156 41.558594 48.757812 41.835938 C 48.355469 42.113281 48.257812 42.667969 48.535156 43.070312 C 49.679688 44.722656 50.71875 46.324219 51.691406 47.945312 C 51.941406 48.363281 52.472656 48.503906 52.894531 48.257812 C 53.320312 48.007812 53.464844 47.457031 53.210938 47.035156 C 52.21875 45.378906 51.15625 43.746094 49.988281 42.058594 Z M 49.988281 42.058594 " fill-opacity="1" fill-rule="nonzero"/><path fill="#b1dbad" d="M 69.378906 34.574219 C 68.851562 34.5625 68.484375 34.953125 68.476562 35.441406 C 68.429688 37.972656 68.269531 40.507812 68.003906 42.976562 C 67.871094 44.21875 67.714844 45.453125 67.535156 46.652344 C 67.460938 47.132812 67.785156 47.578125 68.265625 47.65625 C 68.75 47.734375 69.210938 47.40625 69.285156 46.917969 C 69.46875 45.691406 69.628906 44.433594 69.765625 43.164062 C 70.035156 40.644531 70.199219 38.058594 70.246094 35.476562 C 70.257812 34.988281 69.867188 34.582031 69.378906 34.574219 Z M 69.378906 34.574219 " fill-opacity="1" fill-rule="nonzero"/><g fill="#000000" fill-opacity="1"><g transform="translate(38.022818, 175.551683)"><g><path d="M 5.972656 0.136719 L 6.832031 0.207031 L 8.035156 0.121094 L 9.046875 -0.0859375 L 9.355469 -0.257812 L 9.71875 -0.378906 L 10.007812 -0.515625 L 10.851562 -1.117188 L 11.332031 -1.597656 L 11.726562 -2.113281 L 12.085938 -2.730469 L 12.53125 -4.035156 L 12.429688 -4.34375 L 12.085938 -4.566406 L 11.125 -4.496094 L 10.78125 -4.550781 L 10.4375 -4.53125 L 10.09375 -4.550781 L 9.699219 -4.34375 L 9.425781 -4.070312 L 9.253906 -3.742188 L 8.859375 -3.296875 L 8.582031 -3.054688 L 8.328125 -2.953125 L 7.726562 -2.625 L 6.816406 -2.574219 L 6.316406 -2.625 L 5.699219 -2.851562 L 5.097656 -3.160156 L 4.601562 -3.605469 L 4.222656 -4.207031 L 4.101562 -4.550781 L 3.984375 -4.789062 L 3.898438 -5.097656 L 3.84375 -5.476562 L 3.84375 -6.523438 L 3.964844 -7.210938 L 4.222656 -7.828125 L 4.394531 -8.15625 L 4.808594 -8.636719 L 5.21875 -8.960938 L 5.683594 -9.21875 L 6.832031 -9.375 L 7.570312 -9.339844 L 8.101562 -9.183594 L 8.414062 -9.066406 L 8.652344 -8.875 L 9.152344 -8.378906 L 9.339844 -8.121094 L 9.664062 -7.792969 L 10.058594 -7.605469 L 10.371094 -7.640625 L 10.730469 -7.621094 L 11.074219 -7.640625 L 11.554688 -7.589844 L 12.070312 -7.640625 L 12.359375 -7.777344 L 12.480469 -8.121094 L 12.378906 -8.5 L 12.257812 -8.808594 L 12.15625 -9.167969 L 11.964844 -9.441406 L 11.8125 -9.71875 L 11.570312 -10.007812 L 11.382812 -10.335938 L 10.902344 -10.832031 L 9.734375 -11.570312 L 8.085938 -12.121094 L 7.761719 -12.136719 L 7.417969 -12.1875 L 6.351562 -12.207031 L 4.6875 -11.878906 L 3.417969 -11.277344 L 2.917969 -10.902344 L 2.179688 -10.230469 L 1.714844 -9.648438 L 1.390625 -9.152344 L 0.960938 -8.1875 L 0.789062 -7.484375 L 0.617188 -6.007812 L 0.722656 -4.753906 L 0.960938 -3.777344 L 1.699219 -2.285156 L 2.402344 -1.527344 L 3.175781 -0.859375 L 3.914062 -0.464844 L 4.6875 -0.136719 L 4.996094 -0.0703125 L 5.339844 0.0507812 L 5.648438 0.121094 Z M 5.972656 0.136719 "/></g></g></g><g fill="#000000" fill-opacity="1"><g transform="translate(51.119984, 175.551683)"><g><path d="M 6.882812 0.222656 L 8.414062 0.0703125 L 9.066406 -0.136719 L 10.59375 -0.824219 L 11.792969 -1.972656 L 12.015625 -2.285156 L 12.6875 -3.46875 L 12.808594 -3.792969 L 12.859375 -4.136719 L 12.960938 -4.414062 L 13.03125 -4.789062 L 13.117188 -5.992188 L 13.03125 -7.175781 L 12.894531 -7.8125 L 12.753906 -8.171875 L 12.667969 -8.566406 L 12.359375 -9.132812 L 12.242188 -9.441406 L 12.015625 -9.734375 L 11.8125 -9.941406 L 11.589844 -10.25 L 10.851562 -10.917969 L 9.972656 -11.46875 L 7.726562 -12.171875 L 6.917969 -12.1875 L 5.71875 -12.121094 L 5.375 -12.050781 L 5.03125 -11.949219 L 4.722656 -11.8125 L 4.070312 -11.640625 L 3.191406 -11.089844 L 2.953125 -10.882812 L 2.402344 -10.507812 L 1.941406 -9.992188 L 1.355469 -9.132812 L 1.203125 -8.839844 L 0.875 -7.898438 L 0.738281 -7.160156 L 0.667969 -5.167969 L 0.859375 -4.085938 L 1.117188 -3.503906 L 1.21875 -3.140625 L 1.390625 -2.832031 L 2.199219 -1.734375 L 2.679688 -1.269531 L 2.902344 -1.011719 L 4.070312 -0.394531 L 4.394531 -0.257812 L 5.855469 0.171875 Z M 6.402344 -2.796875 L 6.058594 -2.917969 L 5.75 -2.953125 L 5.167969 -3.261719 L 4.636719 -3.726562 L 4.464844 -3.964844 L 4.242188 -4.207031 L 3.914062 -5.167969 L 3.828125 -6.027344 L 3.84375 -6.539062 L 3.964844 -7.175781 L 4.070312 -7.484375 L 4.273438 -7.726562 L 4.429688 -8.015625 L 4.652344 -8.292969 L 4.910156 -8.515625 L 5.40625 -8.859375 L 5.71875 -9.011719 L 6.078125 -9.097656 L 6.867188 -9.167969 L 7.691406 -9.117188 L 8.601562 -8.722656 L 9.132812 -8.328125 L 9.527344 -7.742188 L 9.664062 -7.433594 L 9.769531 -7.089844 L 9.890625 -6.78125 L 9.957031 -6.042969 L 9.855469 -5.183594 L 9.699219 -4.480469 L 9.511719 -4.222656 L 9.355469 -3.964844 L 9.152344 -3.65625 L 8.617188 -3.246094 L 8.308594 -3.105469 L 8.035156 -2.953125 L 7.726562 -2.917969 L 7.398438 -2.832031 Z M 6.402344 -2.796875 "/></g></g></g><g fill="#000000" fill-opacity="1"><g transform="translate(64.886604, 175.551683)"><g><path d="M 1.785156 0.0507812 L 2.128906 0 L 2.796875 0.0351562 L 3.175781 -0.015625 L 3.726562 0.015625 L 4.207031 -0.1875 L 4.414062 -0.496094 L 4.359375 -2.300781 L 4.414062 -2.832031 L 4.394531 -3.191406 L 4.429688 -3.8125 L 4.394531 -4.1875 L 4.394531 -4.859375 L 4.550781 -5.011719 L 4.722656 -4.945312 L 4.996094 -4.722656 L 5.203125 -4.464844 L 5.90625 -3.757812 L 6.128906 -3.484375 L 6.59375 -3.039062 L 6.953125 -2.78125 L 7.332031 -2.765625 L 7.675781 -3.023438 L 7.914062 -3.277344 L 8.121094 -3.484375 L 8.601562 -4.050781 L 8.839844 -4.222656 L 9.546875 -4.945312 L 9.769531 -5.046875 L 9.90625 -4.789062 L 9.871094 -3.84375 L 9.921875 -3.160156 L 9.890625 -2.488281 L 9.921875 -1.855469 L 9.890625 -1.546875 L 9.921875 -0.773438 L 9.921875 -0.515625 L 10.058594 -0.121094 L 10.421875 -0.015625 L 12.5 0.0507812 L 12.859375 -0.136719 L 13.066406 -0.636719 L 13.011719 -1.527344 L 13.046875 -1.871094 L 13.011719 -7.023438 L 13.046875 -7.398438 L 13.03125 -9.097656 L 13.046875 -9.425781 L 13.011719 -10.164062 L 13.03125 -10.457031 L 13.011719 -11.160156 L 13.046875 -11.484375 L 12.839844 -11.847656 L 12.480469 -12.035156 L 11.984375 -11.878906 L 11.621094 -11.65625 L 10.902344 -10.902344 L 10.679688 -10.625 L 10.472656 -10.4375 L 10.230469 -10.128906 L 8.722656 -8.582031 L 8.5 -8.292969 L 7.449219 -7.226562 L 7.140625 -7.023438 L 6.78125 -7.160156 L 6.574219 -7.449219 L 6.335938 -7.691406 L 6.027344 -8.085938 L 5.648438 -8.429688 L 4.085938 -10.164062 L 3.84375 -10.371094 L 3.398438 -10.902344 L 3.125 -11.140625 L 2.679688 -11.605469 L 2.285156 -11.898438 L 1.800781 -12.035156 L 1.425781 -11.863281 L 1.234375 -11.503906 L 1.289062 -10.457031 L 1.234375 -9.785156 L 1.269531 -9.476562 L 1.253906 -6.730469 L 1.289062 -6.386719 L 1.234375 -4.652344 L 1.269531 -4.328125 L 1.253906 -0.53125 L 1.441406 -0.171875 Z M 1.785156 0.0507812 "/></g></g></g><g fill="#000000" fill-opacity="1"><g transform="translate(79.236846, 175.551683)"><g><path d="M 5.75 0.0703125 L 6.4375 0.0351562 L 6.746094 -0.136719 L 6.917969 -0.464844 L 6.917969 -2.164062 L 6.710938 -2.488281 L 6.335938 -2.679688 L 5.972656 -2.679688 L 5.5625 -2.816406 L 5.355469 -3.210938 L 5.40625 -3.535156 L 5.390625 -5.425781 L 5.425781 -5.800781 L 5.355469 -7.039062 L 5.425781 -8.773438 L 5.546875 -9.167969 L 5.921875 -9.320312 L 6.265625 -9.375 L 6.625 -9.511719 L 6.796875 -9.785156 L 6.816406 -11.484375 L 6.609375 -11.8125 L 6.300781 -12 L 4.222656 -12 L 3.914062 -12.035156 L 3.570312 -11.964844 L 2.164062 -11.964844 L 1.835938 -12.015625 L 1.441406 -12.015625 L 1.097656 -11.847656 L 0.925781 -11.433594 L 0.980469 -10.164062 L 0.945312 -9.835938 L 1.132812 -9.492188 L 1.511719 -9.304688 L 1.855469 -9.304688 L 2.179688 -9.097656 L 2.335938 -8.636719 L 2.386719 -3.363281 L 2.199219 -2.851562 L 1.0625 -2.507812 L 0.875 -2.199219 L 0.824219 -0.617188 L 0.996094 -0.15625 L 1.339844 0 L 1.664062 0 L 1.992188 -0.0351562 L 2.488281 0.0351562 L 3.023438 0.015625 L 3.363281 -0.015625 L 4.050781 0.0507812 L 4.566406 -0.015625 L 5.40625 -0.015625 Z M 5.75 0.0703125 "/></g></g></g><g fill="#000000" fill-opacity="1"><g transform="translate(87.029923, 175.551683)"><g><path d="M 5.289062 0.0507812 L 5.800781 0.0507812 L 6.335938 -0.015625 L 6.679688 -0.015625 L 7.175781 -0.171875 L 7.878906 -0.292969 L 8.6875 -0.636719 L 9.835938 -1.40625 L 10.679688 -2.488281 L 10.851562 -2.832031 L 11.054688 -3.105469 L 11.332031 -3.777344 L 11.417969 -4.101562 L 11.484375 -4.464844 L 11.589844 -4.753906 L 11.640625 -5.097656 L 11.640625 -5.460938 L 11.691406 -6.007812 L 11.675781 -6.507812 L 11.433594 -7.863281 L 11.210938 -8.515625 L 11.074219 -8.839844 L 10.488281 -9.75 L 9.578125 -10.765625 L 8.703125 -11.347656 L 8.378906 -11.535156 L 8.035156 -11.605469 L 7.742188 -11.742188 L 7.382812 -11.828125 L 6.371094 -11.984375 L 2.453125 -12.015625 L 2.144531 -11.964844 L 1.800781 -11.984375 L 1.425781 -11.828125 L 1.269531 -11.46875 L 1.253906 -1.871094 L 1.289062 -1.546875 L 1.289062 -0.667969 L 1.460938 -0.136719 L 1.800781 0.0351562 L 2.144531 0 L 4.242188 0.0351562 L 4.582031 -0.015625 Z M 5.234375 -2.765625 L 4.910156 -2.796875 L 4.515625 -2.988281 L 4.378906 -3.3125 L 4.359375 -3.605469 L 4.378906 -4.308594 L 4.308594 -5.148438 L 4.378906 -6.007812 L 4.34375 -8.378906 L 4.378906 -8.667969 L 4.550781 -9.066406 L 5.097656 -9.183594 L 5.820312 -9.203125 L 6.316406 -9.152344 L 6.988281 -8.960938 L 7.296875 -8.808594 L 7.554688 -8.617188 L 7.8125 -8.378906 L 8.070312 -8.070312 L 8.242188 -7.777344 L 8.394531 -7.46875 L 8.667969 -5.957031 L 8.5 -4.753906 L 8.207031 -4.121094 L 7.570312 -3.398438 L 6.988281 -3.023438 L 6.488281 -2.867188 L 5.75 -2.78125 Z M 5.234375 -2.765625 "/></g></g></g><g fill="#000000" fill-opacity="1"><g transform="translate(99.509143, 175.551683)"><g><path d="M 10.128906 0.0351562 L 10.78125 -0.015625 L 11.109375 0.015625 L 11.640625 0 L 12.121094 -0.0859375 L 12.171875 -0.496094 L 12.050781 -0.894531 L 11.792969 -1.527344 L 11.332031 -2.421875 L 11.089844 -3.054688 L 10.746094 -3.675781 L 10.09375 -5.234375 L 9.921875 -5.492188 L 9.75 -5.820312 L 9.648438 -6.199219 L 9.492188 -6.457031 L 9.390625 -6.730469 L 9.03125 -7.363281 L 8.910156 -7.726562 L 7.777344 -10.113281 L 7.675781 -10.457031 L 7.484375 -10.765625 L 7.382812 -11.074219 L 7.054688 -11.675781 L 6.765625 -11.984375 L 6.199219 -12.15625 L 5.648438 -11.964844 L 5.339844 -11.675781 L 5.183594 -11.382812 L 5.066406 -11.039062 L 4.910156 -10.796875 L 4.222656 -9.21875 L 4.035156 -8.960938 L 3.949219 -8.617188 L 3.757812 -8.292969 L 3.65625 -7.984375 L 1.90625 -4.308594 L 1.800781 -3.929688 L 1.632812 -3.675781 L 1.511719 -3.332031 L 1.203125 -2.78125 L 0.945312 -2.09375 L 0.753906 -1.855469 L 0.667969 -1.546875 L 0.328125 -0.859375 L 0.222656 -0.515625 L 0.308594 -0.0859375 L 0.652344 0.015625 L 1.320312 -0.015625 L 1.664062 0.015625 L 2.625 -0.015625 L 3.023438 -0.136719 L 3.347656 -0.445312 L 3.65625 -1.011719 L 3.984375 -1.339844 L 4.34375 -1.527344 L 4.667969 -1.476562 L 5.390625 -1.546875 L 5.699219 -1.492188 L 7.382812 -1.511719 L 7.691406 -1.476562 L 8.070312 -1.527344 L 8.445312 -1.339844 L 8.773438 -1.0625 L 8.925781 -0.738281 L 9.03125 -0.429688 L 9.375 -0.171875 L 9.769531 0 Z M 6.230469 -4.242188 L 5.886719 -4.308594 L 5.492188 -4.273438 L 5.21875 -4.394531 L 5.203125 -4.722656 L 6.007812 -6.574219 L 6.199219 -6.730469 L 6.4375 -6.59375 L 7.246094 -4.703125 L 7.175781 -4.394531 L 6.917969 -4.257812 Z M 6.230469 -4.242188 "/></g></g></g></svg>