<svg xmlns="http://www.w3.org/2000/svg" xmlns:xlink="http://www.w3.org/1999/xlink" width="200" zoomAndPan="magnify" viewBox="0 0 150 202.499994" height="270" preserveAspectRatio="xMidYMid meet" version="1.0"><defs><g/><clipPath id="7b06d1f9a6"><path d="M 4.480469 6.925781 L 149.8125 6.925781 L 149.8125 199.949219 L 4.480469 199.949219 Z M 4.480469 6.925781 " clip-rule="nonzero"/></clipPath><clipPath id="eb7f721b1c"><path d="M 37.398438 6.925781 L 116.898438 6.925781 C 125.628906 6.925781 134 10.394531 140.171875 16.566406 C 146.347656 22.742188 149.816406 31.113281 149.816406 39.84375 L 149.816406 166.59375 C 149.816406 175.324219 146.347656 183.695312 140.171875 189.871094 C 134 196.042969 125.628906 199.511719 116.898438 199.511719 L 37.398438 199.511719 C 28.667969 199.511719 20.296875 196.042969 14.121094 189.871094 C 7.949219 183.695312 4.480469 175.324219 4.480469 166.59375 L 4.480469 39.84375 C 4.480469 31.113281 7.949219 22.742188 14.121094 16.566406 C 20.296875 10.394531 28.667969 6.925781 37.398438 6.925781 Z M 37.398438 6.925781 " clip-rule="nonzero"/></clipPath><clipPath id="79d1383a91"><path d="M 0.183594 2.488281 L 145.519531 2.488281 L 145.519531 195 L 0.183594 195 Z M 0.183594 2.488281 " clip-rule="nonzero"/></clipPath><clipPath id="13e36ebe8e"><path d="M 33.101562 2.488281 L 112.601562 2.488281 C 121.332031 2.488281 129.703125 5.957031 135.878906 12.132812 C 142.050781 18.304688 145.519531 26.675781 145.519531 35.40625 L 145.519531 162.15625 C 145.519531 170.886719 142.050781 179.261719 135.878906 185.433594 C 129.703125 191.605469 121.332031 195.074219 112.601562 195.074219 L 33.101562 195.074219 C 24.371094 195.074219 16 191.605469 9.828125 185.433594 C 3.652344 179.261719 0.183594 170.886719 0.183594 162.15625 L 0.183594 35.40625 C 0.183594 26.675781 3.652344 18.304688 9.828125 12.132812 C 16 5.957031 24.371094 2.488281 33.101562 2.488281 Z M 33.101562 2.488281 " clip-rule="nonzero"/></clipPath><clipPath id="5b8106c240"><path d="M 0.183594 2.492188 L 145.328125 2.492188 L 145.328125 194.765625 L 0.183594 194.765625 Z M 0.183594 2.492188 " clip-rule="nonzero"/></clipPath><clipPath id="1e0e72b74b"><path d="M 33.101562 2.492188 L 112.597656 2.492188 C 121.328125 2.492188 129.699219 5.957031 135.871094 12.132812 C 142.046875 18.304688 145.511719 26.675781 145.511719 35.40625 L 145.511719 162.148438 C 145.511719 170.878906 142.046875 179.253906 135.871094 185.425781 C 129.699219 191.597656 121.328125 195.066406 112.597656 195.066406 L 33.101562 195.066406 C 24.371094 195.066406 16 191.597656 9.824219 185.425781 C 3.652344 179.253906 0.183594 170.878906 0.183594 162.148438 L 0.183594 35.40625 C 0.183594 26.675781 3.652344 18.304688 9.824219 12.132812 C 16 5.957031 24.371094 2.492188 33.101562 2.492188 Z M 33.101562 2.492188 " clip-rule="nonzero"/></clipPath><clipPath id="eb4dd3670e"><path d="M 14 101 L 131 101 L 131 144.558594 L 14 144.558594 Z M 14 101 " clip-rule="nonzero"/></clipPath><clipPath id="b9f8ded570"><path d="M 20 24.855469 L 126 24.855469 L 126 97 L 20 97 Z M 20 24.855469 " clip-rule="nonzero"/></clipPath><clipPath id="432230e8fd"><path d="M 24.738281 31.710938 L 120.589844 31.710938 L 120.589844 88 L 24.738281 88 Z M 24.738281 31.710938 " clip-rule="nonzero"/></clipPath><clipPath id="55b73824e1"><path d="M 30.511719 89.222656 L 114.753906 89.222656 C 117.925781 89.222656 120.496094 86.648438 120.496094 83.472656 L 120.496094 37.621094 C 120.496094 34.445312 117.925781 31.867188 114.753906 31.867188 L 30.511719 31.867188 C 27.339844 31.867188 24.769531 34.445312 24.769531 37.621094 L 24.769531 83.472656 C 24.769531 86.648438 27.339844 89.222656 30.511719 89.222656 Z M 30.511719 89.222656 " clip-rule="nonzero"/></clipPath><clipPath id="a9ef243d3c"><path d="M 24.738281 31.710938 L 120.589844 31.710938 L 120.589844 89.394531 L 24.738281 89.394531 Z M 24.738281 31.710938 " clip-rule="nonzero"/></clipPath><clipPath id="1c288da8a6"><path d="M 30.511719 89.222656 L 114.753906 89.222656 C 117.925781 89.222656 120.496094 86.648438 120.496094 83.472656 L 120.496094 37.621094 C 120.496094 34.445312 117.925781 31.867188 114.753906 31.867188 L 30.511719 31.867188 C 27.339844 31.867188 24.769531 34.445312 24.769531 37.621094 L 24.769531 83.472656 C 24.769531 86.648438 27.339844 89.222656 30.511719 89.222656 Z M 30.511719 89.222656 " clip-rule="nonzero"/></clipPath></defs><g clip-path="url(#7b06d1f9a6)"><g clip-path="url(#eb7f721b1c)"><path fill="#d9d9d9" d="M 4.480469 6.925781 L 149.816406 6.925781 L 149.816406 199.382812 L 4.480469 199.382812 Z M 4.480469 6.925781 " fill-opacity="1" fill-rule="nonzero"/></g></g><g clip-path="url(#79d1383a91)"><g clip-path="url(#13e36ebe8e)"><path fill="#dfe3e8" d="M 0.183594 2.488281 L 145.519531 2.488281 L 145.519531 194.945312 L 0.183594 194.945312 Z M 0.183594 2.488281 " fill-opacity="1" fill-rule="nonzero"/></g></g><g clip-path="url(#5b8106c240)"><g clip-path="url(#1e0e72b74b)"><path stroke-linecap="butt" transform="matrix(0.748153, 0, 0, 0.748153, 0.184731, 2.49049)" fill="none" stroke-linejoin="miter" d="M 43.997482 0.00226909 L 150.254004 0.00226909 C 161.923373 0.00226909 173.112392 4.633468 181.361879 12.888176 C 189.616586 21.137663 194.247786 32.326682 194.247786 43.996051 L 194.247786 213.402915 C 194.247786 225.072284 189.616586 236.266524 181.361879 244.516011 C 173.112392 252.765498 161.923373 257.401918 150.254004 257.401918 L 43.997482 257.401918 C 32.328114 257.401918 21.139095 252.765498 12.884387 244.516011 C 4.6349 236.266524 -0.00152045 225.072284 -0.00152045 213.402915 L -0.00152045 43.996051 C -0.00152045 32.326682 4.6349 21.137663 12.884387 12.888176 C 21.139095 4.633468 32.328114 0.00226909 43.997482 0.00226909 Z M 43.997482 0.00226909 " stroke="#d9d9d9" stroke-width="2" stroke-opacity="1" stroke-miterlimit="4"/></g></g><g clip-path="url(#eb4dd3670e)"><path fill="#f7adb1" d="M 15.222656 135.832031 C 13.839844 140.242188 16.480469 143.871094 21.09375 143.902344 L 123.949219 144.546875 C 128.566406 144.578125 131.253906 140.980469 129.921875 136.554688 L 122.113281 110.550781 C 120.785156 106.125 115.921875 102.480469 111.308594 102.453125 L 34.265625 101.964844 C 29.652344 101.9375 24.742188 105.519531 23.359375 109.929688 Z M 15.222656 135.832031 " fill-opacity="1" fill-rule="nonzero"/></g><path fill="#fdbfc0" d="M 15.246094 131.953125 C 13.863281 136.363281 16.503906 139.992188 21.117188 140.023438 L 123.976562 140.667969 C 128.589844 140.699219 131.277344 137.101562 129.949219 132.675781 L 122.136719 106.671875 C 120.808594 102.246094 115.945312 98.601562 111.332031 98.570312 L 34.289062 98.085938 C 29.675781 98.058594 24.765625 101.640625 23.382812 106.050781 Z M 15.246094 131.953125 " fill-opacity="1" fill-rule="nonzero"/><path fill="#f7d0d2" d="M 56.191406 136.285156 C 55.769531 137.621094 56.570312 138.71875 57.964844 138.726562 L 89.0625 138.921875 C 90.457031 138.929688 91.269531 137.84375 90.867188 136.503906 L 88.507812 128.644531 C 88.105469 127.304688 86.632812 126.203125 85.238281 126.195312 L 61.945312 126.046875 C 60.550781 126.039062 59.066406 127.121094 58.648438 128.457031 Z M 56.191406 136.285156 " fill-opacity="1" fill-rule="nonzero"/><path fill="#fa6c6a" d="M 112.53125 105.132812 L 108.167969 105.105469 C 107.515625 105.101562 106.882812 104.636719 106.769531 104.074219 L 106.503906 102.800781 C 106.386719 102.238281 106.816406 101.78125 107.457031 101.785156 L 111.726562 101.8125 C 112.363281 101.816406 113.003906 102.28125 113.144531 102.84375 L 113.464844 104.117188 C 113.605469 104.679688 113.1875 105.136719 112.53125 105.132812 Z M 112.53125 105.132812 " fill-opacity="1" fill-rule="nonzero"/><path fill="#fa6c6a" d="M 104.203125 105.078125 L 99.84375 105.054688 C 99.1875 105.046875 98.582031 104.585938 98.5 104.023438 L 98.304688 102.75 C 98.21875 102.1875 98.671875 101.730469 99.3125 101.734375 L 103.578125 101.761719 C 104.21875 101.765625 104.832031 102.230469 104.945312 102.789062 L 105.195312 104.066406 C 105.304688 104.628906 104.859375 105.082031 104.203125 105.078125 Z M 104.203125 105.078125 " fill-opacity="1" fill-rule="nonzero"/><path fill="#fa6c6a" d="M 95.878906 105.027344 L 91.515625 105 C 90.863281 104.996094 90.28125 104.53125 90.226562 103.972656 L 90.101562 102.695312 C 90.046875 102.136719 90.527344 101.679688 91.167969 101.683594 L 95.433594 101.710938 C 96.074219 101.714844 96.664062 102.179688 96.742188 102.738281 L 96.921875 104.015625 C 97.003906 104.574219 96.53125 105.03125 95.878906 105.027344 Z M 95.878906 105.027344 " fill-opacity="1" fill-rule="nonzero"/><path fill="#fa6c6a" d="M 87.550781 104.976562 L 83.1875 104.949219 C 82.535156 104.941406 81.980469 104.480469 81.953125 103.917969 L 81.902344 102.644531 C 81.875 102.085938 82.378906 101.628906 83.019531 101.632812 L 87.289062 101.660156 C 87.925781 101.664062 88.492188 102.125 88.539062 102.6875 L 88.652344 103.960938 C 88.699219 104.523438 88.203125 104.980469 87.550781 104.976562 Z M 87.550781 104.976562 " fill-opacity="1" fill-rule="nonzero"/><path fill="#fa6c6a" d="M 79.222656 104.921875 L 74.859375 104.894531 C 74.207031 104.890625 73.675781 104.429688 73.683594 103.867188 L 73.699219 102.59375 C 73.707031 102.035156 74.234375 101.578125 74.875 101.582031 L 79.144531 101.609375 C 79.78125 101.613281 80.320312 102.074219 80.339844 102.636719 L 80.378906 103.910156 C 80.398438 104.46875 79.878906 104.925781 79.222656 104.921875 Z M 79.222656 104.921875 " fill-opacity="1" fill-rule="nonzero"/><path fill="#fa6c6a" d="M 70.894531 104.871094 L 66.53125 104.84375 C 65.878906 104.839844 65.375 104.375 65.410156 103.816406 L 65.496094 102.542969 C 65.535156 101.980469 66.089844 101.527344 66.730469 101.53125 L 70.996094 101.558594 C 71.636719 101.5625 72.148438 102.023438 72.136719 102.582031 L 72.109375 103.859375 C 72.09375 104.417969 71.550781 104.875 70.894531 104.871094 Z M 70.894531 104.871094 " fill-opacity="1" fill-rule="nonzero"/><path fill="#fa6c6a" d="M 62.566406 104.816406 L 58.207031 104.789062 C 57.550781 104.785156 57.074219 104.324219 57.140625 103.761719 L 57.296875 102.488281 C 57.363281 101.929688 57.941406 101.476562 58.582031 101.480469 L 62.851562 101.503906 C 63.492188 101.511719 63.976562 101.972656 63.933594 102.53125 L 63.835938 103.804688 C 63.792969 104.367188 63.222656 104.820312 62.566406 104.816406 Z M 62.566406 104.816406 " fill-opacity="1" fill-rule="nonzero"/><path fill="#fa6c6a" d="M 55.566406 103.753906 C 55.492188 104.3125 54.894531 104.769531 54.238281 104.765625 L 49.878906 104.738281 C 49.222656 104.734375 48.769531 104.269531 48.871094 103.710938 L 49.09375 102.4375 C 49.191406 101.878906 49.796875 101.421875 50.4375 101.425781 L 54.703125 101.453125 C 55.34375 101.460938 55.808594 101.921875 55.734375 102.480469 Z M 55.566406 103.753906 " fill-opacity="1" fill-rule="nonzero"/><path fill="#fa6c6a" d="M 47.292969 103.703125 C 47.1875 104.261719 46.566406 104.714844 45.914062 104.710938 L 41.550781 104.683594 C 40.898438 104.679688 40.46875 104.21875 40.597656 103.660156 L 40.890625 102.386719 C 41.023438 101.828125 41.652344 101.371094 42.292969 101.375 L 46.558594 101.402344 C 47.199219 101.40625 47.636719 101.867188 47.53125 102.429688 Z M 47.292969 103.703125 " fill-opacity="1" fill-rule="nonzero"/><path fill="#fa6c6a" d="M 39.023438 103.648438 C 38.886719 104.210938 38.242188 104.664062 37.585938 104.660156 L 33.226562 104.632812 C 32.570312 104.628906 32.164062 104.167969 32.328125 103.605469 L 32.691406 102.335938 C 32.851562 101.777344 33.503906 101.320312 34.148438 101.324219 L 38.414062 101.351562 C 39.054688 101.355469 39.464844 101.816406 39.332031 102.375 Z M 39.023438 103.648438 " fill-opacity="1" fill-rule="nonzero"/><path fill="#fa6c6a" d="M 114.125 111.683594 L 109.574219 111.652344 C 108.894531 111.652344 108.238281 111.1875 108.125 110.625 L 107.4375 107.308594 C 107.320312 106.746094 107.765625 106.289062 108.425781 106.296875 L 112.820312 106.324219 C 113.480469 106.328125 114.136719 106.789062 114.277344 107.351562 L 115.109375 110.671875 C 115.25 111.230469 114.808594 111.6875 114.125 111.683594 Z M 114.125 111.683594 " fill-opacity="1" fill-rule="nonzero"/><path fill="#fa6c6a" d="M 105.441406 111.628906 L 100.890625 111.597656 C 100.207031 111.59375 99.578125 111.132812 99.496094 110.570312 L 98.988281 107.253906 C 98.90625 106.695312 99.375 106.238281 100.035156 106.242188 L 104.429688 106.269531 C 105.089844 106.273438 105.71875 106.738281 105.828125 107.296875 L 106.480469 110.617188 C 106.589844 111.175781 106.121094 111.632812 105.441406 111.628906 Z M 105.441406 111.628906 " fill-opacity="1" fill-rule="nonzero"/><path fill="#fa6c6a" d="M 96.753906 111.574219 L 92.203125 111.546875 C 91.523438 111.539062 90.917969 111.078125 90.863281 110.515625 L 90.542969 107.203125 C 90.488281 106.640625 90.980469 106.183594 91.640625 106.1875 L 96.035156 106.21875 C 96.695312 106.222656 97.300781 106.683594 97.378906 107.246094 L 97.851562 110.5625 C 97.929688 111.121094 97.4375 111.578125 96.753906 111.574219 Z M 96.753906 111.574219 " fill-opacity="1" fill-rule="nonzero"/><path fill="#fa6c6a" d="M 88.066406 111.519531 L 83.519531 111.488281 C 82.835938 111.484375 82.257812 111.023438 82.234375 110.460938 L 82.09375 107.148438 C 82.070312 106.589844 82.589844 106.132812 83.25 106.136719 L 87.644531 106.164062 C 88.304688 106.167969 88.882812 106.632812 88.933594 107.191406 L 89.21875 110.507812 C 89.269531 111.066406 88.75 111.523438 88.066406 111.519531 Z M 88.066406 111.519531 " fill-opacity="1" fill-rule="nonzero"/><path fill="#fa6c6a" d="M 79.382812 111.464844 L 74.832031 111.433594 C 74.152344 111.429688 73.597656 110.96875 73.605469 110.410156 L 73.644531 107.09375 C 73.652344 106.535156 74.195312 106.078125 74.855469 106.082031 L 79.253906 106.109375 C 79.910156 106.117188 80.464844 106.578125 80.484375 107.140625 L 80.589844 110.453125 C 80.609375 111.011719 80.066406 111.46875 79.382812 111.464844 Z M 79.382812 111.464844 " fill-opacity="1" fill-rule="nonzero"/><path fill="#fa6c6a" d="M 66.464844 106.03125 L 70.859375 106.058594 C 71.519531 106.0625 72.050781 106.527344 72.035156 107.085938 L 71.960938 110.398438 C 71.949219 110.957031 71.378906 111.414062 70.699219 111.410156 L 66.148438 111.378906 C 65.464844 111.375 64.9375 110.914062 64.976562 110.355469 L 65.195312 107.042969 C 65.234375 106.484375 65.804688 106.027344 66.464844 106.03125 Z M 66.464844 106.03125 " fill-opacity="1" fill-rule="nonzero"/><path fill="#fa6c6a" d="M 62.464844 106.007812 C 63.128906 106.007812 63.628906 106.472656 63.589844 107.03125 L 63.332031 110.34375 C 63.289062 110.902344 62.695312 111.359375 62.011719 111.355469 L 57.460938 111.324219 C 56.777344 111.320312 56.277344 110.859375 56.34375 110.300781 L 56.746094 106.988281 C 56.816406 106.429688 57.410156 105.972656 58.070312 105.976562 Z M 62.464844 106.007812 " fill-opacity="1" fill-rule="nonzero"/><path fill="#fa6c6a" d="M 54.074219 105.953125 C 54.734375 105.957031 55.210938 106.417969 55.136719 106.980469 L 54.699219 110.289062 C 54.628906 110.847656 54.007812 111.304688 53.328125 111.300781 L 48.777344 111.269531 C 48.09375 111.265625 47.617188 110.804688 47.714844 110.246094 L 48.300781 106.933594 C 48.398438 106.375 49.019531 105.921875 49.679688 105.925781 Z M 54.074219 105.953125 " fill-opacity="1" fill-rule="nonzero"/><path fill="#fa6c6a" d="M 45.683594 105.898438 C 46.339844 105.90625 46.796875 106.367188 46.691406 106.925781 L 46.070312 110.234375 C 45.964844 110.792969 45.324219 111.25 44.640625 111.246094 L 31.558594 111.164062 C 30.875 111.160156 30.445312 110.699219 30.605469 110.136719 L 31.550781 106.828125 C 31.710938 106.273438 32.378906 105.816406 33.042969 105.820312 Z M 45.683594 105.898438 " fill-opacity="1" fill-rule="nonzero"/><path fill="#fa6c6a" d="M 115.777344 118.210938 L 105.382812 118.148438 C 104.675781 118.144531 104.011719 117.679688 103.914062 117.117188 L 103.339844 113.800781 C 103.246094 113.242188 103.726562 112.785156 104.414062 112.789062 L 114.472656 112.851562 C 115.160156 112.855469 115.835938 113.320312 115.976562 113.878906 L 116.8125 117.199219 C 116.953125 117.761719 116.488281 118.21875 115.777344 118.210938 Z M 115.777344 118.210938 " fill-opacity="1" fill-rule="nonzero"/><path fill="#fa6c6a" d="M 94.386719 117.0625 L 93.996094 113.746094 C 93.929688 113.1875 94.4375 112.730469 95.125 112.734375 L 99.710938 112.761719 C 100.398438 112.765625 101.035156 113.230469 101.125 113.789062 L 101.660156 117.105469 C 101.753906 117.667969 101.246094 118.125 100.535156 118.117188 L 95.796875 118.089844 C 95.085938 118.085938 94.449219 117.621094 94.386719 117.0625 Z M 94.386719 117.0625 " fill-opacity="1" fill-rule="nonzero"/><path fill="#fa6c6a" d="M 90.960938 112.707031 C 91.648438 112.710938 92.257812 113.175781 92.320312 113.734375 L 92.675781 117.050781 C 92.734375 117.613281 92.203125 118.066406 91.492188 118.0625 L 86.753906 118.03125 C 86.046875 118.027344 85.433594 117.566406 85.398438 117.003906 L 85.191406 113.691406 C 85.15625 113.128906 85.6875 112.675781 86.375 112.679688 Z M 90.960938 112.707031 " fill-opacity="1" fill-rule="nonzero"/><path fill="#fa6c6a" d="M 81.773438 112.652344 C 82.460938 112.65625 83.046875 113.121094 83.078125 113.679688 L 83.25 116.996094 C 83.28125 117.554688 82.722656 118.011719 82.011719 118.003906 L 77.277344 117.976562 C 76.566406 117.972656 75.980469 117.507812 75.976562 116.949219 L 75.949219 113.636719 C 75.941406 113.074219 76.503906 112.621094 77.191406 112.621094 Z M 81.773438 112.652344 " fill-opacity="1" fill-rule="nonzero"/><path fill="#fa6c6a" d="M 68.003906 112.570312 L 72.585938 112.597656 C 73.273438 112.601562 73.835938 113.066406 73.832031 113.625 L 73.828125 116.9375 C 73.824219 117.496094 73.242188 117.953125 72.53125 117.949219 L 67.796875 117.917969 C 67.085938 117.914062 66.523438 117.453125 66.550781 116.890625 L 66.707031 113.578125 C 66.730469 113.019531 67.316406 112.5625 68.003906 112.570312 Z M 68.003906 112.570312 " fill-opacity="1" fill-rule="nonzero"/><path fill="#fa6c6a" d="M 59.253906 112.515625 L 63.835938 112.542969 C 64.523438 112.546875 65.0625 113.007812 65.027344 113.570312 L 64.839844 116.878906 C 64.808594 117.441406 64.199219 117.894531 63.488281 117.890625 L 58.753906 117.863281 C 58.042969 117.855469 57.507812 117.394531 57.5625 116.835938 L 57.902344 113.523438 C 57.957031 112.964844 58.566406 112.507812 59.253906 112.515625 Z M 59.253906 112.515625 " fill-opacity="1" fill-rule="nonzero"/><path fill="#fa6c6a" d="M 50.066406 112.457031 L 54.652344 112.484375 C 55.339844 112.492188 55.851562 112.953125 55.789062 113.511719 L 55.417969 116.824219 C 55.355469 117.382812 54.722656 117.839844 54.011719 117.835938 L 49.273438 117.804688 C 48.5625 117.800781 48.054688 117.335938 48.140625 116.777344 L 48.660156 113.46875 C 48.746094 112.910156 49.378906 112.453125 50.066406 112.457031 Z M 50.066406 112.457031 " fill-opacity="1" fill-rule="nonzero"/><path fill="#fa6c6a" d="M 46.105469 113.457031 L 45.554688 116.765625 C 45.460938 117.328125 44.804688 117.78125 44.09375 117.777344 L 39.355469 117.75 C 38.644531 117.742188 38.160156 117.28125 38.28125 116.722656 L 38.976562 113.414062 C 39.097656 112.851562 39.753906 112.398438 40.445312 112.402344 L 45.027344 112.433594 C 45.714844 112.4375 46.199219 112.898438 46.105469 113.457031 Z M 46.105469 113.457031 " fill-opacity="1" fill-rule="nonzero"/><path fill="#fa6c6a" d="M 36.925781 113.457031 L 36.375 116.765625 C 36.28125 117.328125 35.625 117.78125 34.914062 117.777344 L 30.179688 117.75 C 29.464844 117.742188 28.980469 117.28125 29.101562 116.722656 L 29.796875 113.414062 C 29.917969 112.851562 30.574219 112.398438 31.265625 112.402344 L 35.847656 112.433594 C 36.535156 112.4375 37.019531 112.898438 36.925781 113.457031 Z M 36.925781 113.457031 " fill-opacity="1" fill-rule="nonzero"/><path fill="#fa6c6a" d="M 35.617188 120.027344 L 35.066406 123.335938 C 34.96875 123.894531 34.3125 124.347656 33.601562 124.34375 L 28.867188 124.316406 C 28.15625 124.3125 27.671875 123.847656 27.789062 123.289062 L 28.488281 119.980469 C 28.605469 119.421875 29.265625 118.964844 29.953125 118.96875 L 34.535156 119 C 35.222656 119.003906 35.710938 119.464844 35.617188 120.027344 Z M 35.617188 120.027344 " fill-opacity="1" fill-rule="nonzero"/><path fill="#fa6c6a" d="M 111.417969 119.289062 L 116.1875 119.320312 C 116.902344 119.324219 117.605469 119.789062 117.746094 120.347656 L 118.582031 123.667969 C 118.722656 124.230469 118.238281 124.683594 117.496094 124.679688 L 112.574219 124.648438 C 111.835938 124.644531 111.136719 124.183594 111.019531 123.621094 L 110.332031 120.300781 C 110.214844 119.742188 110.703125 119.285156 111.417969 119.289062 Z M 111.417969 119.289062 " fill-opacity="1" fill-rule="nonzero"/><path fill="#fa6c6a" d="M 102.316406 119.234375 L 107.085938 119.261719 C 107.800781 119.269531 108.476562 119.730469 108.585938 120.292969 L 109.242188 123.609375 C 109.351562 124.171875 108.839844 124.625 108.101562 124.621094 L 103.179688 124.589844 C 102.441406 124.585938 101.765625 124.121094 101.679688 123.5625 L 101.171875 120.242188 C 101.085938 119.683594 101.601562 119.226562 102.316406 119.234375 Z M 102.316406 119.234375 " fill-opacity="1" fill-rule="nonzero"/><path fill="#fa6c6a" d="M 56.890625 118.945312 L 97.914062 119.207031 C 98.628906 119.210938 99.277344 119.671875 99.359375 120.234375 L 99.832031 123.550781 C 99.910156 124.109375 99.371094 124.566406 98.632812 124.5625 L 56.289062 124.292969 C 55.550781 124.289062 55.003906 123.828125 55.070312 123.265625 L 55.46875 119.957031 C 55.535156 119.398438 56.175781 118.941406 56.890625 118.945312 Z M 56.890625 118.945312 " fill-opacity="1" fill-rule="nonzero"/><path fill="#fa6c6a" d="M 46.886719 119.894531 C 46.984375 119.335938 47.652344 118.882812 48.363281 118.886719 L 53.132812 118.917969 C 53.847656 118.921875 54.375 119.382812 54.300781 119.945312 L 53.863281 123.253906 C 53.789062 123.816406 53.125 124.269531 52.382812 124.265625 L 47.464844 124.234375 C 46.726562 124.226562 46.203125 123.765625 46.300781 123.207031 Z M 46.886719 119.894531 " fill-opacity="1" fill-rule="nonzero"/><path fill="#fa6c6a" d="M 37.726562 119.839844 C 37.855469 119.28125 38.546875 118.828125 39.261719 118.832031 L 44.03125 118.859375 C 44.746094 118.863281 45.246094 119.328125 45.140625 119.886719 L 44.519531 123.195312 C 44.417969 123.753906 43.726562 124.210938 42.988281 124.203125 L 38.066406 124.171875 C 37.328125 124.167969 36.832031 123.707031 36.960938 123.148438 Z M 37.726562 119.839844 " fill-opacity="1" fill-rule="nonzero"/><g clip-path="url(#b9f8ded570)"><path fill="#fdbfc0" d="M 26.183594 96.667969 L 120.394531 96.667969 C 123.347656 96.667969 125.738281 94.269531 125.738281 91.3125 L 125.738281 30.21875 C 125.738281 27.261719 123.347656 24.863281 120.394531 24.863281 L 26.183594 24.863281 C 23.230469 24.863281 20.835938 27.261719 20.835938 30.21875 L 20.835938 91.3125 C 20.835938 94.269531 23.230469 96.667969 26.183594 96.667969 Z M 26.183594 96.667969 " fill-opacity="1" fill-rule="nonzero"/></g><path fill="#ffffff" d="M 30.511719 89.222656 L 114.753906 89.222656 C 117.925781 89.222656 120.496094 86.648438 120.496094 83.472656 L 120.496094 37.621094 C 120.496094 34.445312 117.925781 31.867188 114.753906 31.867188 L 30.511719 31.867188 C 27.339844 31.867188 24.769531 34.445312 24.769531 37.621094 L 24.769531 83.472656 C 24.769531 86.648438 27.339844 89.222656 30.511719 89.222656 Z M 30.511719 89.222656 " fill-opacity="1" fill-rule="nonzero"/><g clip-path="url(#432230e8fd)"><g clip-path="url(#55b73824e1)"><path fill="#4674b9" d="M 129.300781 80.058594 L 124.996094 87.042969 L 12.105469 17.25 L 16.410156 10.265625 Z M 129.300781 80.058594 " fill-opacity="0.03" fill-rule="nonzero"/></g></g><g clip-path="url(#a9ef243d3c)"><g clip-path="url(#1c288da8a6)"><path fill="#4674b9" d="M 127.71875 97.632812 L 120.332031 109.621094 L 7.441406 39.828125 L 14.828125 27.84375 Z M 127.71875 97.632812 " fill-opacity="0.03" fill-rule="nonzero"/></g></g><path fill="#f7d0d2" d="M 74.597656 28.148438 C 74.597656 28.46875 74.539062 28.773438 74.417969 29.070312 C 74.292969 29.363281 74.121094 29.625 73.894531 29.851562 C 73.667969 30.074219 73.410156 30.25 73.113281 30.371094 C 72.820312 30.496094 72.515625 30.554688 72.195312 30.554688 C 71.875 30.554688 71.570312 30.496094 71.273438 30.371094 C 70.980469 30.25 70.71875 30.074219 70.496094 29.851562 C 70.269531 29.625 70.097656 29.363281 69.972656 29.070312 C 69.851562 28.773438 69.792969 28.46875 69.792969 28.148438 C 69.792969 27.828125 69.851562 27.519531 69.972656 27.226562 C 70.097656 26.929688 70.269531 26.671875 70.496094 26.445312 C 70.71875 26.21875 70.980469 26.046875 71.273438 25.921875 C 71.570312 25.800781 71.875 25.738281 72.195312 25.738281 C 72.515625 25.738281 72.820312 25.800781 73.113281 25.921875 C 73.410156 26.046875 73.667969 26.21875 73.894531 26.445312 C 74.121094 26.671875 74.292969 26.929688 74.417969 27.226562 C 74.539062 27.519531 74.597656 27.828125 74.597656 28.148438 Z M 74.597656 28.148438 " fill-opacity="1" fill-rule="nonzero"/><path fill="#fa6c6a" d="M 99.734375 99.730469 L 108.472656 99.730469 C 108.835938 99.730469 109.128906 99.4375 109.128906 99.074219 L 109.128906 96.449219 C 109.128906 96.085938 108.835938 95.792969 108.472656 95.792969 L 99.734375 95.792969 C 99.371094 95.792969 99.078125 96.085938 99.078125 96.449219 L 99.078125 99.074219 C 99.078125 99.4375 99.371094 99.730469 99.734375 99.730469 Z M 99.734375 99.730469 " fill-opacity="1" fill-rule="nonzero"/><path fill="#fa6c6a" d="M 37.664062 99.730469 L 46.40625 99.730469 C 46.769531 99.730469 47.0625 99.4375 47.0625 99.074219 L 47.0625 96.449219 C 47.0625 96.085938 46.769531 95.792969 46.40625 95.792969 L 37.664062 95.792969 C 37.300781 95.792969 37.007812 96.085938 37.007812 96.449219 L 37.007812 99.074219 C 37.007812 99.4375 37.300781 99.730469 37.664062 99.730469 Z M 37.664062 99.730469 " fill-opacity="1" fill-rule="nonzero"/><g fill="#000000" fill-opacity="1"><g transform="translate(15.166438, 176.592084)"><g><path d="M 4.480469 0.0351562 L 5.632812 0 L 6.128906 -0.171875 L 6.300781 -0.652344 L 6.351562 -1.546875 L 6.300781 -2.199219 L 6.335938 -2.558594 L 6.316406 -3.246094 L 6.351562 -3.554688 L 6.300781 -3.929688 L 6.335938 -6.695312 L 6.285156 -7.054688 L 6.335938 -8.550781 L 6.472656 -9.066406 L 6.796875 -9.269531 L 7.46875 -9.304688 L 8.101562 -9.21875 L 8.464844 -9.269531 L 8.773438 -9.253906 L 9.066406 -9.441406 L 9.269531 -9.820312 L 9.289062 -11.449219 L 9.097656 -11.792969 L 8.773438 -12.015625 L 7.707031 -12.015625 L 7.382812 -12.050781 L 7.023438 -12 L 6.695312 -12.035156 L 5.304688 -11.964844 L 4.960938 -12.035156 L 4.636719 -12.050781 L 4.273438 -12 L 3.898438 -12.035156 L 3.589844 -11.964844 L 2.574219 -12.015625 L 2.042969 -11.964844 L 0.839844 -12.035156 L 0.515625 -11.863281 L 0.308594 -11.46875 L 0.328125 -11.125 L 0.292969 -10.265625 L 0.328125 -9.734375 L 0.480469 -9.425781 L 0.789062 -9.253906 L 1.132812 -9.289062 L 2.765625 -9.253906 L 3.089844 -9.082031 L 3.277344 -8.738281 L 3.246094 -8.1875 L 3.277344 -7.707031 L 3.261719 -7.332031 L 3.277344 -6.988281 L 3.246094 -6.507812 L 3.296875 -3.949219 L 3.261719 -3.605469 L 3.246094 -2.214844 L 3.277344 -1.855469 L 3.261719 -0.859375 L 3.226562 -0.53125 L 3.449219 -0.15625 L 3.949219 0.015625 Z M 4.480469 0.0351562 "/></g></g></g><g fill="#000000" fill-opacity="1"><g transform="translate(24.761873, 176.592084)"><g><path d="M 5.972656 0.0507812 L 8.429688 0.015625 L 8.789062 -0.136719 L 8.980469 -0.496094 L 8.980469 -2.230469 L 8.789062 -2.574219 L 8.429688 -2.730469 L 8.035156 -2.695312 L 7.707031 -2.746094 L 6.832031 -2.765625 L 6.265625 -2.695312 L 5.921875 -2.730469 L 5.546875 -2.710938 L 5.21875 -2.765625 L 4.839844 -2.730469 L 4.480469 -2.902344 L 4.34375 -3.210938 L 4.34375 -4.292969 L 4.496094 -4.652344 L 4.808594 -4.839844 L 5.320312 -4.859375 L 5.871094 -4.808594 L 6.523438 -4.839844 L 7.226562 -4.824219 L 7.570312 -4.859375 L 7.964844 -4.839844 L 8.308594 -4.980469 L 8.429688 -5.320312 L 8.480469 -6.867188 L 8.308594 -7.347656 L 7.914062 -7.570312 L 6.902344 -7.570312 L 6.539062 -7.535156 L 5.820312 -7.589844 L 4.824219 -7.554688 L 4.464844 -7.707031 L 4.328125 -8.242188 L 4.328125 -8.773438 L 4.480469 -9.097656 L 4.859375 -9.234375 L 5.183594 -9.21875 L 5.511719 -9.289062 L 7.964844 -9.253906 L 8.292969 -9.269531 L 8.652344 -9.476562 L 8.824219 -9.785156 L 8.808594 -10.128906 L 8.824219 -10.472656 L 8.789062 -11.503906 L 8.636719 -11.828125 L 8.292969 -11.964844 L 7.929688 -11.964844 L 7.621094 -12.035156 L 6.230469 -12.015625 L 5.855469 -11.984375 L 5.511719 -12.015625 L 5.21875 -12 L 4.875 -12.035156 L 3.46875 -12 L 3.125 -12.050781 L 2.796875 -11.984375 L 2.488281 -12.015625 L 2.144531 -11.984375 L 1.800781 -12 L 1.441406 -11.863281 L 1.253906 -11.503906 L 1.289062 -10.851562 L 1.234375 -10.144531 L 1.289062 -9.769531 L 1.253906 -8.085938 L 1.304688 -7.726562 L 1.269531 -7.398438 L 1.253906 -5.992188 L 1.304688 -5.683594 L 1.289062 -2.902344 L 1.253906 -2.574219 L 1.304688 -2.230469 L 1.253906 -1.046875 L 1.289062 -0.667969 L 1.425781 -0.207031 L 1.941406 0.015625 L 3.175781 0.0351562 L 3.554688 0 L 3.863281 0.015625 L 4.566406 -0.0351562 L 4.894531 0.0351562 L 5.289062 0.0507812 L 5.632812 0.015625 Z M 5.972656 0.0507812 "/></g></g></g><g fill="#000000" fill-opacity="1"><g transform="translate(34.597622, 176.592084)"><g><path d="M 5.972656 0.136719 L 6.832031 0.207031 L 8.035156 0.121094 L 9.046875 -0.0859375 L 9.355469 -0.257812 L 9.71875 -0.378906 L 10.007812 -0.515625 L 10.851562 -1.117188 L 11.332031 -1.597656 L 11.726562 -2.113281 L 12.085938 -2.730469 L 12.53125 -4.035156 L 12.429688 -4.34375 L 12.085938 -4.566406 L 11.125 -4.496094 L 10.78125 -4.550781 L 10.4375 -4.53125 L 10.09375 -4.550781 L 9.699219 -4.34375 L 9.425781 -4.070312 L 9.253906 -3.742188 L 8.859375 -3.296875 L 8.582031 -3.054688 L 8.328125 -2.953125 L 7.726562 -2.625 L 6.816406 -2.574219 L 6.316406 -2.625 L 5.699219 -2.851562 L 5.097656 -3.160156 L 4.601562 -3.605469 L 4.222656 -4.207031 L 4.101562 -4.550781 L 3.984375 -4.789062 L 3.898438 -5.097656 L 3.84375 -5.476562 L 3.84375 -6.523438 L 3.964844 -7.210938 L 4.222656 -7.828125 L 4.394531 -8.15625 L 4.808594 -8.636719 L 5.21875 -8.960938 L 5.683594 -9.21875 L 6.832031 -9.375 L 7.570312 -9.339844 L 8.101562 -9.183594 L 8.414062 -9.066406 L 8.652344 -8.875 L 9.152344 -8.378906 L 9.339844 -8.121094 L 9.664062 -7.792969 L 10.058594 -7.605469 L 10.371094 -7.640625 L 10.730469 -7.621094 L 11.074219 -7.640625 L 11.554688 -7.589844 L 12.070312 -7.640625 L 12.359375 -7.777344 L 12.480469 -8.121094 L 12.378906 -8.5 L 12.257812 -8.808594 L 12.15625 -9.167969 L 11.964844 -9.441406 L 11.8125 -9.71875 L 11.570312 -10.007812 L 11.382812 -10.335938 L 10.902344 -10.832031 L 9.734375 -11.570312 L 8.085938 -12.121094 L 7.761719 -12.136719 L 7.417969 -12.1875 L 6.351562 -12.207031 L 4.6875 -11.878906 L 3.417969 -11.277344 L 2.917969 -10.902344 L 2.179688 -10.230469 L 1.714844 -9.648438 L 1.390625 -9.152344 L 0.960938 -8.1875 L 0.789062 -7.484375 L 0.617188 -6.007812 L 0.722656 -4.753906 L 0.960938 -3.777344 L 1.699219 -2.285156 L 2.402344 -1.527344 L 3.175781 -0.859375 L 3.914062 -0.464844 L 4.6875 -0.136719 L 4.996094 -0.0703125 L 5.339844 0.0507812 L 5.648438 0.121094 Z M 5.972656 0.136719 "/></g></g></g><g fill="#000000" fill-opacity="1"><g transform="translate(47.694788, 176.592084)"><g><path d="M 10.128906 -0.292969 L 10.59375 -0.015625 L 11.074219 0.0351562 L 11.449219 -0.0859375 L 11.621094 -0.429688 L 11.65625 -6.695312 L 11.605469 -6.988281 L 11.605469 -8.6875 L 11.65625 -9.097656 L 11.605469 -11.484375 L 11.433594 -11.828125 L 11.089844 -12.015625 L 8.960938 -12 L 8.636719 -11.8125 L 8.445312 -11.449219 L 8.429688 -11.089844 L 8.480469 -10.816406 L 8.429688 -10.09375 L 8.464844 -9.71875 L 8.429688 -6.644531 L 8.328125 -6.351562 L 8.070312 -6.472656 L 6.851562 -7.691406 L 6.371094 -8.070312 L 2.988281 -11.484375 L 2.730469 -11.691406 L 2.335938 -11.898438 L 1.820312 -12.015625 L 1.425781 -11.847656 L 1.269531 -11.519531 L 1.269531 -6.316406 L 1.253906 -6.027344 L 1.289062 -5.320312 L 1.234375 -5.03125 L 1.269531 -2.214844 L 1.234375 -1.886719 L 1.269531 -0.445312 L 1.425781 -0.121094 L 1.785156 0 L 2.488281 0.0351562 L 2.867188 0 L 3.535156 0.0507812 L 3.898438 0.0351562 L 4.242188 -0.136719 L 4.414062 -0.667969 L 4.429688 -5.011719 L 4.464844 -5.355469 L 4.582031 -5.648438 L 4.808594 -5.5625 L 5.03125 -5.269531 L 6.25 -4.101562 L 6.472656 -3.84375 L 6.765625 -3.65625 L 9.425781 -1.011719 L 9.871094 -0.515625 Z M 10.128906 -0.292969 "/></g></g></g><g fill="#000000" fill-opacity="1"><g transform="translate(60.63747, 176.592084)"><g><path d="M 6.882812 0.222656 L 8.414062 0.0703125 L 9.066406 -0.136719 L 10.59375 -0.824219 L 11.792969 -1.972656 L 12.015625 -2.285156 L 12.6875 -3.46875 L 12.808594 -3.792969 L 12.859375 -4.136719 L 12.960938 -4.414062 L 13.03125 -4.789062 L 13.117188 -5.992188 L 13.03125 -7.175781 L 12.894531 -7.8125 L 12.753906 -8.171875 L 12.667969 -8.566406 L 12.359375 -9.132812 L 12.242188 -9.441406 L 12.015625 -9.734375 L 11.8125 -9.941406 L 11.589844 -10.25 L 10.851562 -10.917969 L 9.972656 -11.46875 L 7.726562 -12.171875 L 6.917969 -12.1875 L 5.71875 -12.121094 L 5.375 -12.050781 L 5.03125 -11.949219 L 4.722656 -11.8125 L 4.070312 -11.640625 L 3.191406 -11.089844 L 2.953125 -10.882812 L 2.402344 -10.507812 L 1.941406 -9.992188 L 1.355469 -9.132812 L 1.203125 -8.839844 L 0.875 -7.898438 L 0.738281 -7.160156 L 0.667969 -5.167969 L 0.859375 -4.085938 L 1.117188 -3.503906 L 1.21875 -3.140625 L 1.390625 -2.832031 L 2.199219 -1.734375 L 2.679688 -1.269531 L 2.902344 -1.011719 L 4.070312 -0.394531 L 4.394531 -0.257812 L 5.855469 0.171875 Z M 6.402344 -2.796875 L 6.058594 -2.917969 L 5.75 -2.953125 L 5.167969 -3.261719 L 4.636719 -3.726562 L 4.464844 -3.964844 L 4.242188 -4.207031 L 3.914062 -5.167969 L 3.828125 -6.027344 L 3.84375 -6.539062 L 3.964844 -7.175781 L 4.070312 -7.484375 L 4.273438 -7.726562 L 4.429688 -8.015625 L 4.652344 -8.292969 L 4.910156 -8.515625 L 5.40625 -8.859375 L 5.71875 -9.011719 L 6.078125 -9.097656 L 6.867188 -9.167969 L 7.691406 -9.117188 L 8.601562 -8.722656 L 9.132812 -8.328125 L 9.527344 -7.742188 L 9.664062 -7.433594 L 9.769531 -7.089844 L 9.890625 -6.78125 L 9.957031 -6.042969 L 9.855469 -5.183594 L 9.699219 -4.480469 L 9.511719 -4.222656 L 9.355469 -3.964844 L 9.152344 -3.65625 L 8.617188 -3.246094 L 8.308594 -3.105469 L 8.035156 -2.953125 L 7.726562 -2.917969 L 7.398438 -2.832031 Z M 6.402344 -2.796875 "/></g></g></g><g fill="#000000" fill-opacity="1"><g transform="translate(74.404089, 176.592084)"><g><path d="M 1.304688 -0.617188 L 1.425781 -0.171875 L 1.75 0 L 2.09375 0.0351562 L 2.816406 -0.015625 L 3.484375 0.015625 L 4.136719 -0.015625 L 4.464844 0.0351562 L 4.839844 0 L 8.242188 0.015625 L 8.566406 -0.15625 L 8.753906 -0.6875 L 8.738281 -2.078125 L 8.582031 -2.59375 L 8.273438 -2.796875 L 7.914062 -2.765625 L 7.589844 -2.695312 L 7.226562 -2.746094 L 6.523438 -2.730469 L 6.179688 -2.796875 L 5.871094 -2.746094 L 5.203125 -2.78125 L 4.839844 -2.746094 L 4.496094 -2.882812 L 4.359375 -3.226562 L 4.378906 -9.046875 L 4.34375 -9.460938 L 4.378906 -10.144531 L 4.328125 -11.125 L 4.34375 -11.449219 L 4.171875 -11.828125 L 3.828125 -12.035156 L 3.160156 -12.035156 L 2.816406 -11.964844 L 2.128906 -12.035156 L 1.800781 -11.984375 L 1.441406 -11.847656 L 1.289062 -11.46875 L 1.289062 -9.066406 L 1.253906 -8.738281 L 1.289062 -8.394531 L 1.234375 -7.761719 L 1.253906 -7.382812 L 1.289062 -7.054688 Z M 1.304688 -0.617188 "/></g></g></g><g fill="#000000" fill-opacity="1"><g transform="translate(83.639049, 176.592084)"><g><path d="M 6.882812 0.222656 L 8.414062 0.0703125 L 9.066406 -0.136719 L 10.59375 -0.824219 L 11.792969 -1.972656 L 12.015625 -2.285156 L 12.6875 -3.46875 L 12.808594 -3.792969 L 12.859375 -4.136719 L 12.960938 -4.414062 L 13.03125 -4.789062 L 13.117188 -5.992188 L 13.03125 -7.175781 L 12.894531 -7.8125 L 12.753906 -8.171875 L 12.667969 -8.566406 L 12.359375 -9.132812 L 12.242188 -9.441406 L 12.015625 -9.734375 L 11.8125 -9.941406 L 11.589844 -10.25 L 10.851562 -10.917969 L 9.972656 -11.46875 L 7.726562 -12.171875 L 6.917969 -12.1875 L 5.71875 -12.121094 L 5.375 -12.050781 L 5.03125 -11.949219 L 4.722656 -11.8125 L 4.070312 -11.640625 L 3.191406 -11.089844 L 2.953125 -10.882812 L 2.402344 -10.507812 L 1.941406 -9.992188 L 1.355469 -9.132812 L 1.203125 -8.839844 L 0.875 -7.898438 L 0.738281 -7.160156 L 0.667969 -5.167969 L 0.859375 -4.085938 L 1.117188 -3.503906 L 1.21875 -3.140625 L 1.390625 -2.832031 L 2.199219 -1.734375 L 2.679688 -1.269531 L 2.902344 -1.011719 L 4.070312 -0.394531 L 4.394531 -0.257812 L 5.855469 0.171875 Z M 6.402344 -2.796875 L 6.058594 -2.917969 L 5.75 -2.953125 L 5.167969 -3.261719 L 4.636719 -3.726562 L 4.464844 -3.964844 L 4.242188 -4.207031 L 3.914062 -5.167969 L 3.828125 -6.027344 L 3.84375 -6.539062 L 3.964844 -7.175781 L 4.070312 -7.484375 L 4.273438 -7.726562 L 4.429688 -8.015625 L 4.652344 -8.292969 L 4.910156 -8.515625 L 5.40625 -8.859375 L 5.71875 -9.011719 L 6.078125 -9.097656 L 6.867188 -9.167969 L 7.691406 -9.117188 L 8.601562 -8.722656 L 9.132812 -8.328125 L 9.527344 -7.742188 L 9.664062 -7.433594 L 9.769531 -7.089844 L 9.890625 -6.78125 L 9.957031 -6.042969 L 9.855469 -5.183594 L 9.699219 -4.480469 L 9.511719 -4.222656 L 9.355469 -3.964844 L 9.152344 -3.65625 L 8.617188 -3.246094 L 8.308594 -3.105469 L 8.035156 -2.953125 L 7.726562 -2.917969 L 7.398438 -2.832031 Z M 6.402344 -2.796875 "/></g></g></g><g fill="#000000" fill-opacity="1"><g transform="translate(97.405668, 176.592084)"><g><path d="M 5.957031 0.171875 L 7.675781 0.171875 L 8.960938 -0.136719 L 10.179688 -0.753906 L 10.710938 -1.167969 L 10.96875 -1.441406 L 11.226562 -1.648438 L 11.433594 -1.886719 L 11.605469 -2.179688 L 11.761719 -2.488281 L 11.964844 -2.730469 L 12.308594 -3.742188 L 12.445312 -4.394531 L 12.464844 -4.6875 L 12.53125 -4.996094 L 12.53125 -5.339844 L 12.566406 -5.664062 L 12.53125 -6.316406 L 12.359375 -6.609375 L 12.035156 -6.78125 L 11.675781 -6.796875 L 11.3125 -6.851562 L 8.996094 -6.796875 L 7.964844 -6.867188 L 7.3125 -6.816406 L 6.96875 -6.644531 L 6.816406 -6.316406 L 6.816406 -4.6875 L 6.96875 -4.414062 L 7.277344 -4.222656 L 7.777344 -4.1875 L 8.636719 -4.257812 L 8.945312 -4.207031 L 9.203125 -4.085938 L 9.253906 -3.792969 L 9.082031 -3.503906 L 8.824219 -3.210938 L 8.582031 -3.023438 L 8.015625 -2.796875 L 7.347656 -2.644531 L 6.902344 -2.625 L 6.027344 -2.730469 L 5.097656 -3.105469 L 4.582031 -3.589844 L 4.394531 -3.828125 L 4.070312 -4.445312 L 3.929688 -4.945312 L 3.84375 -5.492188 L 3.828125 -6.488281 L 3.949219 -7.160156 L 4.222656 -7.777344 L 4.753906 -8.582031 L 5.355469 -9.011719 L 5.648438 -9.167969 L 5.972656 -9.203125 L 6.265625 -9.339844 L 7.3125 -9.375 L 7.949219 -9.203125 L 8.273438 -9.066406 L 8.601562 -8.839844 L 8.808594 -8.617188 L 9.03125 -8.328125 L 9.390625 -8.035156 L 9.804688 -7.914062 L 10.335938 -7.898438 L 10.851562 -7.964844 L 11.675781 -7.914062 L 12.101562 -8.101562 L 12.207031 -8.394531 L 11.964844 -9.097656 L 11.8125 -9.40625 L 11.125 -10.402344 L 10.746094 -10.710938 L 10.472656 -10.96875 L 10.214844 -11.175781 L 9.011719 -11.8125 L 8.652344 -11.878906 L 7.84375 -12.101562 L 6.25 -12.171875 L 5.90625 -12.15625 L 5.613281 -12.050781 L 5.289062 -12.035156 L 3.964844 -11.554688 L 3.023438 -10.96875 L 2.265625 -10.300781 L 2.042969 -10.027344 L 1.785156 -9.769531 L 1.597656 -9.511719 L 0.960938 -8.222656 L 0.652344 -6.523438 L 0.636719 -5.972656 L 0.722656 -4.773438 L 1.203125 -3.160156 L 1.511719 -2.574219 L 1.90625 -1.992188 L 2.59375 -1.269531 L 3.160156 -0.875 L 4.34375 -0.1875 L 4.636719 -0.101562 L 5.613281 0.0703125 Z M 5.957031 0.171875 "/></g></g></g><g fill="#000000" fill-opacity="1"><g transform="translate(110.554333, 176.592084)"><g><path d="M 5.75 0.0703125 L 6.4375 0.0351562 L 6.746094 -0.136719 L 6.917969 -0.464844 L 6.917969 -2.164062 L 6.710938 -2.488281 L 6.335938 -2.679688 L 5.972656 -2.679688 L 5.5625 -2.816406 L 5.355469 -3.210938 L 5.40625 -3.535156 L 5.390625 -5.425781 L 5.425781 -5.800781 L 5.355469 -7.039062 L 5.425781 -8.773438 L 5.546875 -9.167969 L 5.921875 -9.320312 L 6.265625 -9.375 L 6.625 -9.511719 L 6.796875 -9.785156 L 6.816406 -11.484375 L 6.609375 -11.8125 L 6.300781 -12 L 4.222656 -12 L 3.914062 -12.035156 L 3.570312 -11.964844 L 2.164062 -11.964844 L 1.835938 -12.015625 L 1.441406 -12.015625 L 1.097656 -11.847656 L 0.925781 -11.433594 L 0.980469 -10.164062 L 0.945312 -9.835938 L 1.132812 -9.492188 L 1.511719 -9.304688 L 1.855469 -9.304688 L 2.179688 -9.097656 L 2.335938 -8.636719 L 2.386719 -3.363281 L 2.199219 -2.851562 L 1.0625 -2.507812 L 0.875 -2.199219 L 0.824219 -0.617188 L 0.996094 -0.15625 L 1.339844 0 L 1.664062 0 L 1.992188 -0.0351562 L 2.488281 0.0351562 L 3.023438 0.015625 L 3.363281 -0.015625 L 4.050781 0.0507812 L 4.566406 -0.015625 L 5.40625 -0.015625 Z M 5.75 0.0703125 "/></g></g></g><g fill="#000000" fill-opacity="1"><g transform="translate(118.347409, 176.592084)"><g><path d="M 10.128906 0.0351562 L 10.78125 -0.015625 L 11.109375 0.015625 L 11.640625 0 L 12.121094 -0.0859375 L 12.171875 -0.496094 L 12.050781 -0.894531 L 11.792969 -1.527344 L 11.332031 -2.421875 L 11.089844 -3.054688 L 10.746094 -3.675781 L 10.09375 -5.234375 L 9.921875 -5.492188 L 9.75 -5.820312 L 9.648438 -6.199219 L 9.492188 -6.457031 L 9.390625 -6.730469 L 9.03125 -7.363281 L 8.910156 -7.726562 L 7.777344 -10.113281 L 7.675781 -10.457031 L 7.484375 -10.765625 L 7.382812 -11.074219 L 7.054688 -11.675781 L 6.765625 -11.984375 L 6.199219 -12.15625 L 5.648438 -11.964844 L 5.339844 -11.675781 L 5.183594 -11.382812 L 5.066406 -11.039062 L 4.910156 -10.796875 L 4.222656 -9.21875 L 4.035156 -8.960938 L 3.949219 -8.617188 L 3.757812 -8.292969 L 3.65625 -7.984375 L 1.90625 -4.308594 L 1.800781 -3.929688 L 1.632812 -3.675781 L 1.511719 -3.332031 L 1.203125 -2.78125 L 0.945312 -2.09375 L 0.753906 -1.855469 L 0.667969 -1.546875 L 0.328125 -0.859375 L 0.222656 -0.515625 L 0.308594 -0.0859375 L 0.652344 0.015625 L 1.320312 -0.015625 L 1.664062 0.015625 L 2.625 -0.015625 L 3.023438 -0.136719 L 3.347656 -0.445312 L 3.65625 -1.011719 L 3.984375 -1.339844 L 4.34375 -1.527344 L 4.667969 -1.476562 L 5.390625 -1.546875 L 5.699219 -1.492188 L 7.382812 -1.511719 L 7.691406 -1.476562 L 8.070312 -1.527344 L 8.445312 -1.339844 L 8.773438 -1.0625 L 8.925781 -0.738281 L 9.03125 -0.429688 L 9.375 -0.171875 L 9.769531 0 Z M 6.230469 -4.242188 L 5.886719 -4.308594 L 5.492188 -4.273438 L 5.21875 -4.394531 L 5.203125 -4.722656 L 6.007812 -6.574219 L 6.199219 -6.730469 L 6.4375 -6.59375 L 7.246094 -4.703125 L 7.175781 -4.394531 L 6.917969 -4.257812 Z M 6.230469 -4.242188 "/></g></g></g></svg>