<svg xmlns="http://www.w3.org/2000/svg" xmlns:xlink="http://www.w3.org/1999/xlink" width="200" zoomAndPan="magnify" viewBox="0 0 150 202.499994" height="270" preserveAspectRatio="xMidYMid meet" version="1.0"><defs><g/><clipPath id="388b03aefb"><path d="M 4.480469 6.925781 L 149.8125 6.925781 L 149.8125 199.949219 L 4.480469 199.949219 Z M 4.480469 6.925781 " clip-rule="nonzero"/></clipPath><clipPath id="2266d14b34"><path d="M 37.398438 6.925781 L 116.898438 6.925781 C 125.628906 6.925781 134 10.394531 140.171875 16.566406 C 146.347656 22.742188 149.816406 31.113281 149.816406 39.84375 L 149.816406 166.59375 C 149.816406 175.324219 146.347656 183.695312 140.171875 189.871094 C 134 196.042969 125.628906 199.511719 116.898438 199.511719 L 37.398438 199.511719 C 28.667969 199.511719 20.296875 196.042969 14.121094 189.871094 C 7.949219 183.695312 4.480469 175.324219 4.480469 166.59375 L 4.480469 39.84375 C 4.480469 31.113281 7.949219 22.742188 14.121094 16.566406 C 20.296875 10.394531 28.667969 6.925781 37.398438 6.925781 Z M 37.398438 6.925781 " clip-rule="nonzero"/></clipPath><clipPath id="ef9b577c02"><path d="M 0.183594 2.488281 L 145.519531 2.488281 L 145.519531 195 L 0.183594 195 Z M 0.183594 2.488281 " clip-rule="nonzero"/></clipPath><clipPath id="47bea8ae40"><path d="M 33.101562 2.488281 L 112.601562 2.488281 C 121.332031 2.488281 129.703125 5.957031 135.878906 12.132812 C 142.050781 18.304688 145.519531 26.675781 145.519531 35.40625 L 145.519531 162.15625 C 145.519531 170.886719 142.050781 179.261719 135.878906 185.433594 C 129.703125 191.605469 121.332031 195.074219 112.601562 195.074219 L 33.101562 195.074219 C 24.371094 195.074219 16 191.605469 9.828125 185.433594 C 3.652344 179.261719 0.183594 170.886719 0.183594 162.15625 L 0.183594 35.40625 C 0.183594 26.675781 3.652344 18.304688 9.828125 12.132812 C 16 5.957031 24.371094 2.488281 33.101562 2.488281 Z M 33.101562 2.488281 " clip-rule="nonzero"/></clipPath><clipPath id="0acb14a86d"><path d="M 0.183594 2.492188 L 145.328125 2.492188 L 145.328125 194.765625 L 0.183594 194.765625 Z M 0.183594 2.492188 " clip-rule="nonzero"/></clipPath><clipPath id="b34e7d20c9"><path d="M 33.101562 2.492188 L 112.597656 2.492188 C 121.328125 2.492188 129.699219 5.957031 135.871094 12.132812 C 142.046875 18.304688 145.511719 26.675781 145.511719 35.40625 L 145.511719 162.148438 C 145.511719 170.878906 142.046875 179.253906 135.871094 185.425781 C 129.699219 191.597656 121.328125 195.066406 112.597656 195.066406 L 33.101562 195.066406 C 24.371094 195.066406 16 191.597656 9.824219 185.425781 C 3.652344 179.253906 0.183594 170.878906 0.183594 162.148438 L 0.183594 35.40625 C 0.183594 26.675781 3.652344 18.304688 9.824219 12.132812 C 16 5.957031 24.371094 2.492188 33.101562 2.492188 Z M 33.101562 2.492188 " clip-rule="nonzero"/></clipPath><clipPath id="e776734134"><path d="M 18.898438 23.492188 L 70 23.492188 L 70 75 L 18.898438 75 Z M 18.898438 23.492188 " clip-rule="nonzero"/></clipPath><clipPath id="84e45e5e1b"><path d="M 76 23.492188 L 127.382812 23.492188 L 127.382812 75 L 76 75 Z M 76 23.492188 " clip-rule="nonzero"/></clipPath><clipPath id="457a265f4c"><path d="M 18.898438 81 L 70 81 L 70 131.976562 L 18.898438 131.976562 Z M 18.898438 81 " clip-rule="nonzero"/></clipPath><clipPath id="76dd6165f7"><path d="M 76 81 L 127.382812 81 L 127.382812 131.976562 L 76 131.976562 Z M 76 81 " clip-rule="nonzero"/></clipPath></defs><g clip-path="url(#388b03aefb)"><g clip-path="url(#2266d14b34)"><path fill="#d9d9d9" d="M 4.480469 6.925781 L 149.816406 6.925781 L 149.816406 199.382812 L 4.480469 199.382812 Z M 4.480469 6.925781 " fill-opacity="1" fill-rule="nonzero"/></g></g><g clip-path="url(#ef9b577c02)"><g clip-path="url(#47bea8ae40)"><path fill="#ffffff" d="M 0.183594 2.488281 L 145.519531 2.488281 L 145.519531 194.945312 L 0.183594 194.945312 Z M 0.183594 2.488281 " fill-opacity="1" fill-rule="nonzero"/></g></g><g clip-path="url(#0acb14a86d)"><g clip-path="url(#b34e7d20c9)"><path stroke-linecap="butt" transform="matrix(0.748153, 0, 0, 0.748153, 0.184731, 2.49049)" fill="none" stroke-linejoin="miter" d="M 43.997482 0.00226848 L 150.254004 0.00226848 C 161.923373 0.00226848 173.112392 4.633468 181.361879 12.888176 C 189.616586 21.137662 194.247786 32.326681 194.247786 43.99605 L 194.247786 213.402915 C 194.247786 225.072284 189.616586 236.266524 181.361879 244.51601 C 173.112392 252.765497 161.923373 257.401918 150.254004 257.401918 L 43.997482 257.401918 C 32.328114 257.401918 21.139095 252.765497 12.884387 244.51601 C 4.6349 236.266524 -0.00152045 225.072284 -0.00152045 213.402915 L -0.00152045 43.99605 C -0.00152045 32.326681 4.6349 21.137662 12.884387 12.888176 C 21.139095 4.633468 32.328114 0.00226848 43.997482 0.00226848 Z M 43.997482 0.00226848 " stroke="#d9d9d9" stroke-width="2" stroke-opacity="1" stroke-miterlimit="4"/></g></g><g clip-path="url(#e776734134)"><path fill="#74bdd5" d="M 56.871094 74.429688 L 32.03125 74.429688 C 24.792969 74.429688 18.898438 68.558594 18.898438 61.34375 L 18.898438 36.601562 C 18.898438 29.386719 24.792969 23.515625 32.03125 23.515625 L 56.867188 23.515625 C 64.109375 23.515625 70 29.386719 70 36.601562 L 70 61.34375 C 70 68.558594 64.109375 74.429688 56.867188 74.429688 Z M 56.871094 74.429688 " fill-opacity="1" fill-rule="nonzero"/></g><g clip-path="url(#84e45e5e1b)"><path fill="#74bdd5" d="M 114.25 74.429688 L 89.414062 74.429688 C 82.171875 74.429688 76.28125 68.558594 76.28125 61.34375 L 76.28125 36.601562 C 76.28125 29.386719 82.171875 23.515625 89.414062 23.515625 L 114.25 23.515625 C 121.492188 23.515625 127.382812 29.386719 127.382812 36.601562 L 127.382812 61.34375 C 127.382812 68.558594 121.492188 74.429688 114.25 74.429688 Z M 114.25 74.429688 " fill-opacity="1" fill-rule="nonzero"/></g><g clip-path="url(#457a265f4c)"><path fill="#74bdd5" d="M 56.871094 131.953125 L 32.03125 131.953125 C 24.792969 131.953125 18.898438 126.082031 18.898438 118.867188 L 18.898438 94.125 C 18.898438 86.910156 24.792969 81.039062 32.03125 81.039062 L 56.867188 81.039062 C 64.109375 81.039062 70 86.910156 70 94.125 L 70 118.867188 C 70 126.082031 64.109375 131.953125 56.867188 131.953125 Z M 56.871094 131.953125 " fill-opacity="1" fill-rule="nonzero"/></g><g clip-path="url(#76dd6165f7)"><path fill="#74bdd5" d="M 114.25 131.953125 L 89.414062 131.953125 C 82.171875 131.953125 76.28125 126.082031 76.28125 118.867188 L 76.28125 94.125 C 76.28125 86.910156 82.171875 81.039062 89.414062 81.039062 L 114.25 81.039062 C 121.492188 81.039062 127.382812 86.910156 127.382812 94.125 L 127.382812 118.867188 C 127.382812 126.082031 121.492188 131.953125 114.25 131.953125 Z M 114.25 131.953125 " fill-opacity="1" fill-rule="nonzero"/></g><path fill="#51707a" d="M 52.292969 46.386719 L 47.15625 46.332031 L 47.207031 41.214844 C 47.222656 39.742188 46.035156 38.535156 44.558594 38.519531 C 43.078125 38.503906 41.867188 39.6875 41.851562 41.160156 L 41.800781 46.277344 L 36.664062 46.226562 C 36.648438 46.226562 36.636719 46.226562 36.625 46.226562 C 35.164062 46.230469 33.972656 47.40625 33.957031 48.867188 C 33.941406 50.339844 35.128906 51.546875 36.609375 51.5625 L 41.746094 51.613281 L 41.691406 56.730469 C 41.679688 58.207031 42.863281 59.410156 44.34375 59.425781 C 44.355469 59.425781 44.367188 59.425781 44.382812 59.425781 C 45.84375 59.421875 47.03125 58.246094 47.046875 56.785156 L 47.101562 51.667969 L 52.238281 51.71875 C 52.25 51.71875 52.261719 51.71875 52.277344 51.71875 C 53.738281 51.714844 54.925781 50.542969 54.941406 49.082031 C 54.957031 47.605469 53.769531 46.402344 52.292969 46.386719 Z M 52.292969 46.386719 " fill-opacity="1" fill-rule="nonzero"/><path fill="#51707a" d="M 48.238281 106.503906 L 51.875 102.890625 C 52.925781 101.851562 52.925781 100.160156 51.882812 99.117188 C 50.839844 98.074219 49.144531 98.070312 48.097656 99.109375 L 44.457031 102.722656 L 40.832031 99.097656 C 40.824219 99.089844 40.8125 99.082031 40.804688 99.070312 C 39.757812 98.054688 38.082031 98.0625 37.046875 99.089844 C 35.996094 100.132812 35.996094 101.820312 37.039062 102.863281 L 40.664062 106.488281 L 37.027344 110.101562 C 35.976562 111.144531 35.976562 112.832031 37.019531 113.875 C 37.027344 113.882812 37.035156 113.894531 37.046875 113.902344 C 38.09375 114.917969 39.765625 114.914062 40.804688 113.882812 L 44.445312 110.269531 L 48.070312 113.894531 C 48.078125 113.902344 48.089844 113.914062 48.097656 113.921875 C 49.144531 114.9375 50.820312 114.933594 51.855469 113.902344 C 52.90625 112.863281 52.90625 111.171875 51.863281 110.128906 Z M 48.238281 106.503906 " fill-opacity="1" fill-rule="nonzero"/><path fill="#51707a" d="M 108.894531 51.628906 C 108.882812 51.628906 108.871094 51.628906 108.855469 51.628906 L 93.226562 51.601562 C 91.75 51.597656 90.554688 50.402344 90.554688 48.929688 C 90.558594 47.46875 91.738281 46.285156 93.199219 46.265625 C 93.210938 46.265625 93.222656 46.265625 93.238281 46.265625 L 108.867188 46.292969 C 110.347656 46.296875 111.542969 47.492188 111.539062 48.964844 C 111.535156 50.425781 110.355469 51.609375 108.894531 51.628906 Z M 108.894531 51.628906 " fill-opacity="1" fill-rule="nonzero"/><path fill="#51707a" d="M 108.917969 108.824219 C 108.90625 108.824219 108.894531 108.824219 108.882812 108.824219 L 94.777344 108.777344 C 93.441406 108.773438 92.359375 107.578125 92.359375 106.105469 C 92.359375 104.644531 93.425781 103.460938 94.742188 103.445312 C 94.753906 103.445312 94.765625 103.445312 94.777344 103.445312 L 108.886719 103.488281 C 110.21875 103.492188 111.300781 104.691406 111.300781 106.164062 C 111.300781 107.625 110.238281 108.808594 108.917969 108.824219 Z M 108.917969 108.824219 " fill-opacity="1" fill-rule="nonzero"/><path fill="#51707a" d="M 105.507812 97.964844 C 105.507812 98.453125 105.414062 98.917969 105.226562 99.367188 C 105.039062 99.816406 104.773438 100.210938 104.429688 100.554688 C 104.085938 100.898438 103.6875 101.164062 103.238281 101.351562 C 102.785156 101.535156 102.316406 101.628906 101.832031 101.628906 C 101.34375 101.628906 100.875 101.535156 100.425781 101.351562 C 99.972656 101.164062 99.578125 100.898438 99.230469 100.554688 C 98.886719 100.210938 98.621094 99.816406 98.433594 99.367188 C 98.25 98.917969 98.15625 98.453125 98.15625 97.964844 C 98.15625 97.480469 98.25 97.015625 98.433594 96.566406 C 98.621094 96.117188 98.886719 95.71875 99.230469 95.378906 C 99.578125 95.035156 99.972656 94.769531 100.425781 94.582031 C 100.875 94.398438 101.34375 94.304688 101.832031 94.304688 C 102.316406 94.304688 102.785156 94.398438 103.238281 94.582031 C 103.6875 94.769531 104.085938 95.035156 104.429688 95.378906 C 104.773438 95.71875 105.039062 96.117188 105.226562 96.566406 C 105.414062 97.015625 105.507812 97.480469 105.507812 97.964844 Z M 105.507812 97.964844 " fill-opacity="1" fill-rule="nonzero"/><path fill="#51707a" d="M 105.507812 115.027344 C 105.507812 115.511719 105.414062 115.980469 105.226562 116.425781 C 105.039062 116.875 104.773438 117.273438 104.429688 117.617188 C 104.085938 117.957031 103.6875 118.222656 103.238281 118.410156 C 102.785156 118.59375 102.316406 118.6875 101.832031 118.6875 C 101.34375 118.6875 100.875 118.59375 100.425781 118.410156 C 99.972656 118.222656 99.578125 117.957031 99.230469 117.617188 C 98.886719 117.273438 98.621094 116.875 98.433594 116.425781 C 98.25 115.980469 98.15625 115.511719 98.15625 115.027344 C 98.15625 114.539062 98.25 114.074219 98.433594 113.625 C 98.621094 113.175781 98.886719 112.78125 99.230469 112.4375 C 99.578125 112.09375 99.972656 111.828125 100.425781 111.644531 C 100.875 111.457031 101.34375 111.363281 101.832031 111.363281 C 102.316406 111.363281 102.785156 111.457031 103.238281 111.644531 C 103.6875 111.828125 104.085938 112.09375 104.429688 112.4375 C 104.773438 112.78125 105.039062 113.175781 105.226562 113.625 C 105.414062 114.074219 105.507812 114.539062 105.507812 115.027344 Z M 105.507812 115.027344 " fill-opacity="1" fill-rule="nonzero"/><g fill="#000000" fill-opacity="1"><g transform="translate(14.843612, 175.529647)"><g><path d="M 1.785156 0.0507812 L 2.128906 0 L 2.796875 0.0351562 L 3.175781 -0.015625 L 3.726562 0.015625 L 4.207031 -0.1875 L 4.414062 -0.496094 L 4.359375 -2.300781 L 4.414062 -2.832031 L 4.394531 -3.191406 L 4.429688 -3.8125 L 4.394531 -4.1875 L 4.394531 -4.859375 L 4.550781 -5.011719 L 4.722656 -4.945312 L 4.996094 -4.722656 L 5.203125 -4.464844 L 5.90625 -3.757812 L 6.128906 -3.484375 L 6.59375 -3.039062 L 6.953125 -2.78125 L 7.332031 -2.765625 L 7.675781 -3.023438 L 7.914062 -3.277344 L 8.121094 -3.484375 L 8.601562 -4.050781 L 8.839844 -4.222656 L 9.546875 -4.945312 L 9.769531 -5.046875 L 9.90625 -4.789062 L 9.871094 -3.84375 L 9.921875 -3.160156 L 9.890625 -2.488281 L 9.921875 -1.855469 L 9.890625 -1.546875 L 9.921875 -0.773438 L 9.921875 -0.515625 L 10.058594 -0.121094 L 10.421875 -0.015625 L 12.5 0.0507812 L 12.859375 -0.136719 L 13.066406 -0.636719 L 13.011719 -1.527344 L 13.046875 -1.871094 L 13.011719 -7.023438 L 13.046875 -7.398438 L 13.03125 -9.097656 L 13.046875 -9.425781 L 13.011719 -10.164062 L 13.03125 -10.457031 L 13.011719 -11.160156 L 13.046875 -11.484375 L 12.839844 -11.847656 L 12.480469 -12.035156 L 11.984375 -11.878906 L 11.621094 -11.65625 L 10.902344 -10.902344 L 10.679688 -10.625 L 10.472656 -10.4375 L 10.230469 -10.128906 L 8.722656 -8.582031 L 8.5 -8.292969 L 7.449219 -7.226562 L 7.140625 -7.023438 L 6.78125 -7.160156 L 6.574219 -7.449219 L 6.335938 -7.691406 L 6.027344 -8.085938 L 5.648438 -8.429688 L 4.085938 -10.164062 L 3.84375 -10.371094 L 3.398438 -10.902344 L 3.125 -11.140625 L 2.679688 -11.605469 L 2.285156 -11.898438 L 1.800781 -12.035156 L 1.425781 -11.863281 L 1.234375 -11.503906 L 1.289062 -10.457031 L 1.234375 -9.785156 L 1.269531 -9.476562 L 1.253906 -6.730469 L 1.289062 -6.386719 L 1.234375 -4.652344 L 1.269531 -4.328125 L 1.253906 -0.53125 L 1.441406 -0.171875 Z M 1.785156 0.0507812 "/></g></g></g><g fill="#000000" fill-opacity="1"><g transform="translate(29.193855, 175.529647)"><g><path d="M 10.128906 0.0351562 L 10.78125 -0.015625 L 11.109375 0.015625 L 11.640625 0 L 12.121094 -0.0859375 L 12.171875 -0.496094 L 12.050781 -0.894531 L 11.792969 -1.527344 L 11.332031 -2.421875 L 11.089844 -3.054688 L 10.746094 -3.675781 L 10.09375 -5.234375 L 9.921875 -5.492188 L 9.75 -5.820312 L 9.648438 -6.199219 L 9.492188 -6.457031 L 9.390625 -6.730469 L 9.03125 -7.363281 L 8.910156 -7.726562 L 7.777344 -10.113281 L 7.675781 -10.457031 L 7.484375 -10.765625 L 7.382812 -11.074219 L 7.054688 -11.675781 L 6.765625 -11.984375 L 6.199219 -12.15625 L 5.648438 -11.964844 L 5.339844 -11.675781 L 5.183594 -11.382812 L 5.066406 -11.039062 L 4.910156 -10.796875 L 4.222656 -9.21875 L 4.035156 -8.960938 L 3.949219 -8.617188 L 3.757812 -8.292969 L 3.65625 -7.984375 L 1.90625 -4.308594 L 1.800781 -3.929688 L 1.632812 -3.675781 L 1.511719 -3.332031 L 1.203125 -2.78125 L 0.945312 -2.09375 L 0.753906 -1.855469 L 0.667969 -1.546875 L 0.328125 -0.859375 L 0.222656 -0.515625 L 0.308594 -0.0859375 L 0.652344 0.015625 L 1.320312 -0.015625 L 1.664062 0.015625 L 2.625 -0.015625 L 3.023438 -0.136719 L 3.347656 -0.445312 L 3.65625 -1.011719 L 3.984375 -1.339844 L 4.34375 -1.527344 L 4.667969 -1.476562 L 5.390625 -1.546875 L 5.699219 -1.492188 L 7.382812 -1.511719 L 7.691406 -1.476562 L 8.070312 -1.527344 L 8.445312 -1.339844 L 8.773438 -1.0625 L 8.925781 -0.738281 L 9.03125 -0.429688 L 9.375 -0.171875 L 9.769531 0 Z M 6.230469 -4.242188 L 5.886719 -4.308594 L 5.492188 -4.273438 L 5.21875 -4.394531 L 5.203125 -4.722656 L 6.007812 -6.574219 L 6.199219 -6.730469 L 6.4375 -6.59375 L 7.246094 -4.703125 L 7.175781 -4.394531 L 6.917969 -4.257812 Z M 6.230469 -4.242188 "/></g></g></g><g fill="#000000" fill-opacity="1"><g transform="translate(41.655909, 175.529647)"><g><path d="M 4.480469 0.0351562 L 5.632812 0 L 6.128906 -0.171875 L 6.300781 -0.652344 L 6.351562 -1.546875 L 6.300781 -2.199219 L 6.335938 -2.558594 L 6.316406 -3.246094 L 6.351562 -3.554688 L 6.300781 -3.929688 L 6.335938 -6.695312 L 6.285156 -7.054688 L 6.335938 -8.550781 L 6.472656 -9.066406 L 6.796875 -9.269531 L 7.46875 -9.304688 L 8.101562 -9.21875 L 8.464844 -9.269531 L 8.773438 -9.253906 L 9.066406 -9.441406 L 9.269531 -9.820312 L 9.289062 -11.449219 L 9.097656 -11.792969 L 8.773438 -12.015625 L 7.707031 -12.015625 L 7.382812 -12.050781 L 7.023438 -12 L 6.695312 -12.035156 L 5.304688 -11.964844 L 4.960938 -12.035156 L 4.636719 -12.050781 L 4.273438 -12 L 3.898438 -12.035156 L 3.589844 -11.964844 L 2.574219 -12.015625 L 2.042969 -11.964844 L 0.839844 -12.035156 L 0.515625 -11.863281 L 0.308594 -11.46875 L 0.328125 -11.125 L 0.292969 -10.265625 L 0.328125 -9.734375 L 0.480469 -9.425781 L 0.789062 -9.253906 L 1.132812 -9.289062 L 2.765625 -9.253906 L 3.089844 -9.082031 L 3.277344 -8.738281 L 3.246094 -8.1875 L 3.277344 -7.707031 L 3.261719 -7.332031 L 3.277344 -6.988281 L 3.246094 -6.507812 L 3.296875 -3.949219 L 3.261719 -3.605469 L 3.246094 -2.214844 L 3.277344 -1.855469 L 3.261719 -0.859375 L 3.226562 -0.53125 L 3.449219 -0.15625 L 3.949219 0.015625 Z M 4.480469 0.0351562 "/></g></g></g><g fill="#000000" fill-opacity="1"><g transform="translate(51.251344, 175.529647)"><g><path d="M 5.972656 0.0507812 L 8.429688 0.015625 L 8.789062 -0.136719 L 8.980469 -0.496094 L 8.980469 -2.230469 L 8.789062 -2.574219 L 8.429688 -2.730469 L 8.035156 -2.695312 L 7.707031 -2.746094 L 6.832031 -2.765625 L 6.265625 -2.695312 L 5.921875 -2.730469 L 5.546875 -2.710938 L 5.21875 -2.765625 L 4.839844 -2.730469 L 4.480469 -2.902344 L 4.34375 -3.210938 L 4.34375 -4.292969 L 4.496094 -4.652344 L 4.808594 -4.839844 L 5.320312 -4.859375 L 5.871094 -4.808594 L 6.523438 -4.839844 L 7.226562 -4.824219 L 7.570312 -4.859375 L 7.964844 -4.839844 L 8.308594 -4.980469 L 8.429688 -5.320312 L 8.480469 -6.867188 L 8.308594 -7.347656 L 7.914062 -7.570312 L 6.902344 -7.570312 L 6.539062 -7.535156 L 5.820312 -7.589844 L 4.824219 -7.554688 L 4.464844 -7.707031 L 4.328125 -8.242188 L 4.328125 -8.773438 L 4.480469 -9.097656 L 4.859375 -9.234375 L 5.183594 -9.21875 L 5.511719 -9.289062 L 7.964844 -9.253906 L 8.292969 -9.269531 L 8.652344 -9.476562 L 8.824219 -9.785156 L 8.808594 -10.128906 L 8.824219 -10.472656 L 8.789062 -11.503906 L 8.636719 -11.828125 L 8.292969 -11.964844 L 7.929688 -11.964844 L 7.621094 -12.035156 L 6.230469 -12.015625 L 5.855469 -11.984375 L 5.511719 -12.015625 L 5.21875 -12 L 4.875 -12.035156 L 3.46875 -12 L 3.125 -12.050781 L 2.796875 -11.984375 L 2.488281 -12.015625 L 2.144531 -11.984375 L 1.800781 -12 L 1.441406 -11.863281 L 1.253906 -11.503906 L 1.289062 -10.851562 L 1.234375 -10.144531 L 1.289062 -9.769531 L 1.253906 -8.085938 L 1.304688 -7.726562 L 1.269531 -7.398438 L 1.253906 -5.992188 L 1.304688 -5.683594 L 1.289062 -2.902344 L 1.253906 -2.574219 L 1.304688 -2.230469 L 1.253906 -1.046875 L 1.289062 -0.667969 L 1.425781 -0.207031 L 1.941406 0.015625 L 3.175781 0.0351562 L 3.554688 0 L 3.863281 0.015625 L 4.566406 -0.0351562 L 4.894531 0.0351562 L 5.289062 0.0507812 L 5.632812 0.015625 Z M 5.972656 0.0507812 "/></g></g></g><g fill="#000000" fill-opacity="1"><g transform="translate(61.087094, 175.529647)"><g><path d="M 1.785156 0.0507812 L 2.128906 0 L 2.796875 0.0351562 L 3.175781 -0.015625 L 3.726562 0.015625 L 4.207031 -0.1875 L 4.414062 -0.496094 L 4.359375 -2.300781 L 4.414062 -2.832031 L 4.394531 -3.191406 L 4.429688 -3.8125 L 4.394531 -4.1875 L 4.394531 -4.859375 L 4.550781 -5.011719 L 4.722656 -4.945312 L 4.996094 -4.722656 L 5.203125 -4.464844 L 5.90625 -3.757812 L 6.128906 -3.484375 L 6.59375 -3.039062 L 6.953125 -2.78125 L 7.332031 -2.765625 L 7.675781 -3.023438 L 7.914062 -3.277344 L 8.121094 -3.484375 L 8.601562 -4.050781 L 8.839844 -4.222656 L 9.546875 -4.945312 L 9.769531 -5.046875 L 9.90625 -4.789062 L 9.871094 -3.84375 L 9.921875 -3.160156 L 9.890625 -2.488281 L 9.921875 -1.855469 L 9.890625 -1.546875 L 9.921875 -0.773438 L 9.921875 -0.515625 L 10.058594 -0.121094 L 10.421875 -0.015625 L 12.5 0.0507812 L 12.859375 -0.136719 L 13.066406 -0.636719 L 13.011719 -1.527344 L 13.046875 -1.871094 L 13.011719 -7.023438 L 13.046875 -7.398438 L 13.03125 -9.097656 L 13.046875 -9.425781 L 13.011719 -10.164062 L 13.03125 -10.457031 L 13.011719 -11.160156 L 13.046875 -11.484375 L 12.839844 -11.847656 L 12.480469 -12.035156 L 11.984375 -11.878906 L 11.621094 -11.65625 L 10.902344 -10.902344 L 10.679688 -10.625 L 10.472656 -10.4375 L 10.230469 -10.128906 L 8.722656 -8.582031 L 8.5 -8.292969 L 7.449219 -7.226562 L 7.140625 -7.023438 L 6.78125 -7.160156 L 6.574219 -7.449219 L 6.335938 -7.691406 L 6.027344 -8.085938 L 5.648438 -8.429688 L 4.085938 -10.164062 L 3.84375 -10.371094 L 3.398438 -10.902344 L 3.125 -11.140625 L 2.679688 -11.605469 L 2.285156 -11.898438 L 1.800781 -12.035156 L 1.425781 -11.863281 L 1.234375 -11.503906 L 1.289062 -10.457031 L 1.234375 -9.785156 L 1.269531 -9.476562 L 1.253906 -6.730469 L 1.289062 -6.386719 L 1.234375 -4.652344 L 1.269531 -4.328125 L 1.253906 -0.53125 L 1.441406 -0.171875 Z M 1.785156 0.0507812 "/></g></g></g><g fill="#000000" fill-opacity="1"><g transform="translate(75.437336, 175.529647)"><g><path d="M 5.855469 -13.578125 L 6.214844 -13.527344 L 6.371094 -13.546875 L 6.816406 -13.578125 L 7.175781 -13.699219 L 7.347656 -13.855469 L 7.449219 -14.027344 L 8.566406 -15.28125 L 8.703125 -15.382812 L 8.824219 -15.707031 L 8.617188 -15.914062 L 7.8125 -16.1875 L 7.621094 -16.207031 L 6.421875 -16.652344 L 6.144531 -16.53125 L 5.460938 -14.988281 L 5.339844 -14.816406 L 5.289062 -14.609375 L 5.167969 -14.402344 L 5.117188 -14.199219 L 5.011719 -14.007812 L 4.910156 -13.664062 L 5.339844 -13.546875 L 5.546875 -13.546875 Z M 10.128906 0.0351562 L 10.78125 -0.015625 L 11.109375 0.015625 L 11.640625 0 L 12.121094 -0.0859375 L 12.171875 -0.496094 L 12.050781 -0.894531 L 11.792969 -1.527344 L 11.332031 -2.421875 L 11.089844 -3.054688 L 10.746094 -3.675781 L 10.09375 -5.234375 L 9.921875 -5.492188 L 9.75 -5.820312 L 9.648438 -6.199219 L 9.492188 -6.457031 L 9.390625 -6.730469 L 9.03125 -7.363281 L 8.910156 -7.726562 L 7.777344 -10.113281 L 7.675781 -10.457031 L 7.484375 -10.765625 L 7.382812 -11.074219 L 7.054688 -11.675781 L 6.765625 -11.984375 L 6.199219 -12.15625 L 5.648438 -11.964844 L 5.339844 -11.675781 L 5.183594 -11.382812 L 5.066406 -11.039062 L 4.910156 -10.796875 L 4.222656 -9.21875 L 4.035156 -8.960938 L 3.949219 -8.617188 L 3.757812 -8.292969 L 3.65625 -7.984375 L 1.90625 -4.308594 L 1.800781 -3.929688 L 1.632812 -3.675781 L 1.511719 -3.332031 L 1.203125 -2.78125 L 0.945312 -2.09375 L 0.753906 -1.855469 L 0.667969 -1.546875 L 0.328125 -0.859375 L 0.222656 -0.515625 L 0.308594 -0.0859375 L 0.652344 0.015625 L 1.320312 -0.015625 L 1.664062 0.015625 L 2.625 -0.015625 L 3.023438 -0.136719 L 3.347656 -0.445312 L 3.65625 -1.011719 L 3.984375 -1.339844 L 4.34375 -1.527344 L 4.667969 -1.476562 L 5.390625 -1.546875 L 5.699219 -1.492188 L 7.382812 -1.511719 L 7.691406 -1.476562 L 8.070312 -1.527344 L 8.445312 -1.339844 L 8.773438 -1.0625 L 8.925781 -0.738281 L 9.03125 -0.429688 L 9.375 -0.171875 L 9.769531 0 Z M 6.230469 -4.242188 L 5.886719 -4.308594 L 5.492188 -4.273438 L 5.21875 -4.394531 L 5.203125 -4.722656 L 6.007812 -6.574219 L 6.199219 -6.730469 L 6.4375 -6.59375 L 7.246094 -4.703125 L 7.175781 -4.394531 L 6.917969 -4.257812 Z M 6.230469 -4.242188 "/></g></g></g><g fill="#000000" fill-opacity="1"><g transform="translate(87.899391, 175.529647)"><g><path d="M 4.480469 0.0351562 L 5.632812 0 L 6.128906 -0.171875 L 6.300781 -0.652344 L 6.351562 -1.546875 L 6.300781 -2.199219 L 6.335938 -2.558594 L 6.316406 -3.246094 L 6.351562 -3.554688 L 6.300781 -3.929688 L 6.335938 -6.695312 L 6.285156 -7.054688 L 6.335938 -8.550781 L 6.472656 -9.066406 L 6.796875 -9.269531 L 7.46875 -9.304688 L 8.101562 -9.21875 L 8.464844 -9.269531 L 8.773438 -9.253906 L 9.066406 -9.441406 L 9.269531 -9.820312 L 9.289062 -11.449219 L 9.097656 -11.792969 L 8.773438 -12.015625 L 7.707031 -12.015625 L 7.382812 -12.050781 L 7.023438 -12 L 6.695312 -12.035156 L 5.304688 -11.964844 L 4.960938 -12.035156 L 4.636719 -12.050781 L 4.273438 -12 L 3.898438 -12.035156 L 3.589844 -11.964844 L 2.574219 -12.015625 L 2.042969 -11.964844 L 0.839844 -12.035156 L 0.515625 -11.863281 L 0.308594 -11.46875 L 0.328125 -11.125 L 0.292969 -10.265625 L 0.328125 -9.734375 L 0.480469 -9.425781 L 0.789062 -9.253906 L 1.132812 -9.289062 L 2.765625 -9.253906 L 3.089844 -9.082031 L 3.277344 -8.738281 L 3.246094 -8.1875 L 3.277344 -7.707031 L 3.261719 -7.332031 L 3.277344 -6.988281 L 3.246094 -6.507812 L 3.296875 -3.949219 L 3.261719 -3.605469 L 3.246094 -2.214844 L 3.277344 -1.855469 L 3.261719 -0.859375 L 3.226562 -0.53125 L 3.449219 -0.15625 L 3.949219 0.015625 Z M 4.480469 0.0351562 "/></g></g></g><g fill="#000000" fill-opacity="1"><g transform="translate(97.494826, 175.529647)"><g><path d="M 5.75 0.0703125 L 6.4375 0.0351562 L 6.746094 -0.136719 L 6.917969 -0.464844 L 6.917969 -2.164062 L 6.710938 -2.488281 L 6.335938 -2.679688 L 5.972656 -2.679688 L 5.5625 -2.816406 L 5.355469 -3.210938 L 5.40625 -3.535156 L 5.390625 -5.425781 L 5.425781 -5.800781 L 5.355469 -7.039062 L 5.425781 -8.773438 L 5.546875 -9.167969 L 5.921875 -9.320312 L 6.265625 -9.375 L 6.625 -9.511719 L 6.796875 -9.785156 L 6.816406 -11.484375 L 6.609375 -11.8125 L 6.300781 -12 L 4.222656 -12 L 3.914062 -12.035156 L 3.570312 -11.964844 L 2.164062 -11.964844 L 1.835938 -12.015625 L 1.441406 -12.015625 L 1.097656 -11.847656 L 0.925781 -11.433594 L 0.980469 -10.164062 L 0.945312 -9.835938 L 1.132812 -9.492188 L 1.511719 -9.304688 L 1.855469 -9.304688 L 2.179688 -9.097656 L 2.335938 -8.636719 L 2.386719 -3.363281 L 2.199219 -2.851562 L 1.0625 -2.507812 L 0.875 -2.199219 L 0.824219 -0.617188 L 0.996094 -0.15625 L 1.339844 0 L 1.664062 0 L 1.992188 -0.0351562 L 2.488281 0.0351562 L 3.023438 0.015625 L 3.363281 -0.015625 L 4.050781 0.0507812 L 4.566406 -0.015625 L 5.40625 -0.015625 Z M 5.75 0.0703125 "/></g></g></g><g fill="#000000" fill-opacity="1"><g transform="translate(105.287903, 175.529647)"><g><path d="M 5.972656 0.136719 L 6.832031 0.207031 L 8.035156 0.121094 L 9.046875 -0.0859375 L 9.355469 -0.257812 L 9.71875 -0.378906 L 10.007812 -0.515625 L 10.851562 -1.117188 L 11.332031 -1.597656 L 11.726562 -2.113281 L 12.085938 -2.730469 L 12.53125 -4.035156 L 12.429688 -4.34375 L 12.085938 -4.566406 L 11.125 -4.496094 L 10.78125 -4.550781 L 10.4375 -4.53125 L 10.09375 -4.550781 L 9.699219 -4.34375 L 9.425781 -4.070312 L 9.253906 -3.742188 L 8.859375 -3.296875 L 8.582031 -3.054688 L 8.328125 -2.953125 L 7.726562 -2.625 L 6.816406 -2.574219 L 6.316406 -2.625 L 5.699219 -2.851562 L 5.097656 -3.160156 L 4.601562 -3.605469 L 4.222656 -4.207031 L 4.101562 -4.550781 L 3.984375 -4.789062 L 3.898438 -5.097656 L 3.84375 -5.476562 L 3.84375 -6.523438 L 3.964844 -7.210938 L 4.222656 -7.828125 L 4.394531 -8.15625 L 4.808594 -8.636719 L 5.21875 -8.960938 L 5.683594 -9.21875 L 6.832031 -9.375 L 7.570312 -9.339844 L 8.101562 -9.183594 L 8.414062 -9.066406 L 8.652344 -8.875 L 9.152344 -8.378906 L 9.339844 -8.121094 L 9.664062 -7.792969 L 10.058594 -7.605469 L 10.371094 -7.640625 L 10.730469 -7.621094 L 11.074219 -7.640625 L 11.554688 -7.589844 L 12.070312 -7.640625 L 12.359375 -7.777344 L 12.480469 -8.121094 L 12.378906 -8.5 L 12.257812 -8.808594 L 12.15625 -9.167969 L 11.964844 -9.441406 L 11.8125 -9.71875 L 11.570312 -10.007812 L 11.382812 -10.335938 L 10.902344 -10.832031 L 9.734375 -11.570312 L 8.085938 -12.121094 L 7.761719 -12.136719 L 7.417969 -12.1875 L 6.351562 -12.207031 L 4.6875 -11.878906 L 3.417969 -11.277344 L 2.917969 -10.902344 L 2.179688 -10.230469 L 1.714844 -9.648438 L 1.390625 -9.152344 L 0.960938 -8.1875 L 0.789062 -7.484375 L 0.617188 -6.007812 L 0.722656 -4.753906 L 0.960938 -3.777344 L 1.699219 -2.285156 L 2.402344 -1.527344 L 3.175781 -0.859375 L 3.914062 -0.464844 L 4.6875 -0.136719 L 4.996094 -0.0703125 L 5.339844 0.0507812 L 5.648438 0.121094 Z M 5.972656 0.136719 "/></g></g></g><g fill="#000000" fill-opacity="1"><g transform="translate(118.385068, 175.529647)"><g><path d="M 10.128906 0.0351562 L 10.78125 -0.015625 L 11.109375 0.015625 L 11.640625 0 L 12.121094 -0.0859375 L 12.171875 -0.496094 L 12.050781 -0.894531 L 11.792969 -1.527344 L 11.332031 -2.421875 L 11.089844 -3.054688 L 10.746094 -3.675781 L 10.09375 -5.234375 L 9.921875 -5.492188 L 9.75 -5.820312 L 9.648438 -6.199219 L 9.492188 -6.457031 L 9.390625 -6.730469 L 9.03125 -7.363281 L 8.910156 -7.726562 L 7.777344 -10.113281 L 7.675781 -10.457031 L 7.484375 -10.765625 L 7.382812 -11.074219 L 7.054688 -11.675781 L 6.765625 -11.984375 L 6.199219 -12.15625 L 5.648438 -11.964844 L 5.339844 -11.675781 L 5.183594 -11.382812 L 5.066406 -11.039062 L 4.910156 -10.796875 L 4.222656 -9.21875 L 4.035156 -8.960938 L 3.949219 -8.617188 L 3.757812 -8.292969 L 3.65625 -7.984375 L 1.90625 -4.308594 L 1.800781 -3.929688 L 1.632812 -3.675781 L 1.511719 -3.332031 L 1.203125 -2.78125 L 0.945312 -2.09375 L 0.753906 -1.855469 L 0.667969 -1.546875 L 0.328125 -0.859375 L 0.222656 -0.515625 L 0.308594 -0.0859375 L 0.652344 0.015625 L 1.320312 -0.015625 L 1.664062 0.015625 L 2.625 -0.015625 L 3.023438 -0.136719 L 3.347656 -0.445312 L 3.65625 -1.011719 L 3.984375 -1.339844 L 4.34375 -1.527344 L 4.667969 -1.476562 L 5.390625 -1.546875 L 5.699219 -1.492188 L 7.382812 -1.511719 L 7.691406 -1.476562 L 8.070312 -1.527344 L 8.445312 -1.339844 L 8.773438 -1.0625 L 8.925781 -0.738281 L 9.03125 -0.429688 L 9.375 -0.171875 L 9.769531 0 Z M 6.230469 -4.242188 L 5.886719 -4.308594 L 5.492188 -4.273438 L 5.21875 -4.394531 L 5.203125 -4.722656 L 6.007812 -6.574219 L 6.199219 -6.730469 L 6.4375 -6.59375 L 7.246094 -4.703125 L 7.175781 -4.394531 L 6.917969 -4.257812 Z M 6.230469 -4.242188 "/></g></g></g></svg>