<svg xmlns="http://www.w3.org/2000/svg" xmlns:xlink="http://www.w3.org/1999/xlink" width="100" zoomAndPan="magnify" viewBox="0 0 75 89.999999" height="120" preserveAspectRatio="xMidYMid meet" version="1.0"><defs><g/><clipPath id="b5e23368fa"><path d="M 17.492188 0 L 57.605469 0 L 57.605469 39.800781 L 17.492188 39.800781 Z M 17.492188 0 " clip-rule="nonzero"/></clipPath><clipPath id="0d7f3094b0"><path d="M 37.394531 0 L 37.605469 0 C 42.882812 0 47.945312 2.097656 51.675781 5.828125 C 55.410156 9.5625 57.507812 14.625 57.507812 19.902344 C 57.507812 25.179688 55.410156 30.242188 51.675781 33.972656 C 47.945312 37.707031 42.882812 39.800781 37.605469 39.800781 L 37.394531 39.800781 C 32.117188 39.800781 27.054688 37.707031 23.324219 33.972656 C 19.589844 30.242188 17.492188 25.179688 17.492188 19.902344 C 17.492188 14.625 19.589844 9.5625 23.324219 5.828125 C 27.054688 2.097656 32.117188 0 37.394531 0 Z M 37.394531 0 " clip-rule="nonzero"/></clipPath><clipPath id="3c3443f406"><path d="M 17.492188 0 L 57.285156 0 L 57.285156 39.789062 L 17.492188 39.789062 Z M 17.492188 0 " clip-rule="nonzero"/></clipPath><clipPath id="888a74fa30"><path d="M 37.390625 0 L 37.601562 0 C 42.878906 0 47.941406 2.097656 51.671875 5.828125 C 55.40625 9.558594 57.5 14.621094 57.5 19.898438 C 57.5 25.175781 55.40625 30.238281 51.671875 33.96875 C 47.941406 37.703125 42.878906 39.796875 37.601562 39.796875 L 37.390625 39.796875 C 32.113281 39.796875 27.054688 37.703125 23.320312 33.96875 C 19.589844 30.238281 17.492188 25.175781 17.492188 19.898438 C 17.492188 14.621094 19.589844 9.558594 23.320312 5.828125 C 27.054688 2.097656 32.113281 0 37.390625 0 Z M 37.390625 0 " clip-rule="nonzero"/></clipPath><clipPath id="e2d8239aeb"><path d="M 25.109375 7.511719 L 49.84375 7.511719 L 49.84375 32.246094 L 25.109375 32.246094 Z M 25.109375 7.511719 " clip-rule="nonzero"/></clipPath></defs><g clip-path="url(#b5e23368fa)"><g clip-path="url(#0d7f3094b0)"><path fill="#ffc107" d="M 17.492188 0 L 57.453125 0 L 57.453125 39.800781 L 17.492188 39.800781 Z M 17.492188 0 " fill-opacity="1" fill-rule="nonzero"/></g></g><g clip-path="url(#3c3443f406)"><g clip-path="url(#888a74fa30)"><path stroke-linecap="butt" transform="matrix(0.537704, 0, 0, 0.537704, 17.493303, 0.000312276)" fill="none" stroke-linejoin="miter" d="M 37.004242 -0.000580758 L 37.396535 -0.000580758 C 47.211128 -0.000580758 56.626162 3.900556 63.563938 10.838332 C 70.508979 17.776109 74.402851 27.191143 74.402851 37.005735 C 74.402851 46.820328 70.508979 56.235362 63.563938 63.173138 C 56.626162 70.118179 47.211128 74.012051 37.396535 74.012051 L 37.004242 74.012051 C 27.18965 74.012051 17.78188 70.118179 10.836839 63.173138 C 3.899063 56.235362 -0.00207384 46.820328 -0.00207384 37.005735 C -0.00207384 27.191143 3.899063 17.776109 10.836839 10.838332 C 17.78188 3.900556 27.18965 -0.000580758 37.004242 -0.000580758 Z M 37.004242 -0.000580758 " stroke="#ffffff" stroke-width="2.789639" stroke-opacity="1" stroke-miterlimit="4"/></g></g><g clip-path="url(#e2d8239aeb)"><path fill="#000000" d="M 37.445312 7.484375 C 37.175781 7.488281 36.914062 7.542969 36.667969 7.648438 C 36.417969 7.757812 36.199219 7.90625 36.011719 8.101562 C 35.820312 8.296875 35.675781 8.519531 35.578125 8.769531 C 35.476562 9.023438 35.429688 9.285156 35.433594 9.554688 L 35.433594 17.730469 L 27.257812 17.730469 C 26.980469 17.726562 26.71875 17.777344 26.464844 17.878906 C 26.210938 17.980469 25.988281 18.128906 25.792969 18.320312 C 25.597656 18.511719 25.445312 18.734375 25.339844 18.988281 C 25.234375 19.238281 25.183594 19.503906 25.183594 19.777344 C 25.183594 20.050781 25.234375 20.3125 25.339844 20.566406 C 25.445312 20.816406 25.597656 21.039062 25.792969 21.230469 C 25.988281 21.421875 26.210938 21.570312 26.464844 21.671875 C 26.71875 21.773438 26.980469 21.824219 27.257812 21.820312 L 35.433594 21.820312 L 35.433594 29.996094 C 35.429688 30.269531 35.476562 30.535156 35.578125 30.789062 C 35.683594 31.042969 35.828125 31.265625 36.019531 31.460938 C 36.214844 31.65625 36.433594 31.804688 36.6875 31.910156 C 36.941406 32.015625 37.203125 32.070312 37.476562 32.070312 C 37.75 32.070312 38.011719 32.015625 38.265625 31.910156 C 38.519531 31.804688 38.742188 31.65625 38.933594 31.460938 C 39.125 31.265625 39.273438 31.042969 39.375 30.789062 C 39.476562 30.535156 39.523438 30.269531 39.519531 29.996094 L 39.519531 21.820312 L 47.699219 21.820312 C 47.972656 21.824219 48.234375 21.773438 48.488281 21.671875 C 48.742188 21.570312 48.96875 21.421875 49.160156 21.230469 C 49.355469 21.039062 49.507812 20.816406 49.613281 20.566406 C 49.71875 20.3125 49.769531 20.050781 49.769531 19.777344 C 49.769531 19.503906 49.71875 19.238281 49.613281 18.988281 C 49.507812 18.734375 49.355469 18.511719 49.160156 18.320312 C 48.96875 18.128906 48.742188 17.980469 48.488281 17.878906 C 48.234375 17.777344 47.972656 17.726562 47.699219 17.730469 L 39.519531 17.730469 L 39.519531 9.554688 C 39.523438 9.277344 39.472656 9.011719 39.371094 8.757812 C 39.265625 8.5 39.117188 8.277344 38.921875 8.082031 C 38.726562 7.886719 38.5 7.734375 38.246094 7.632812 C 37.988281 7.527344 37.722656 7.480469 37.445312 7.484375 Z M 37.445312 7.484375 " fill-opacity="1" fill-rule="nonzero"/></g><g fill="#000000" fill-opacity="1"><g transform="translate(12.476786, 70.024122)"><g><path d="M 9.988281 -0.289062 L 10.445312 -0.015625 L 10.921875 0.0351562 L 11.292969 -0.0859375 L 11.460938 -0.421875 L 11.496094 -6.601562 L 11.445312 -6.890625 L 11.445312 -8.566406 L 11.496094 -8.972656 L 11.445312 -11.328125 L 11.277344 -11.664062 L 10.9375 -11.851562 L 8.839844 -11.835938 L 8.515625 -11.648438 L 8.328125 -11.292969 L 8.3125 -10.9375 L 8.363281 -10.667969 L 8.3125 -9.957031 L 8.347656 -9.582031 L 8.3125 -6.550781 L 8.210938 -6.265625 L 7.957031 -6.382812 L 6.753906 -7.585938 L 6.28125 -7.957031 L 2.945312 -11.328125 L 2.691406 -11.53125 L 2.300781 -11.734375 L 1.792969 -11.851562 L 1.40625 -11.683594 L 1.253906 -11.359375 L 1.253906 -6.230469 L 1.234375 -5.941406 L 1.269531 -5.25 L 1.21875 -4.960938 L 1.253906 -2.183594 L 1.21875 -1.863281 L 1.253906 -0.441406 L 1.40625 -0.117188 L 1.761719 0 L 2.453125 0.0351562 L 2.828125 0 L 3.488281 0.0507812 L 3.84375 0.0351562 L 4.183594 -0.136719 L 4.351562 -0.660156 L 4.367188 -4.945312 L 4.402344 -5.28125 L 4.519531 -5.570312 L 4.742188 -5.484375 L 4.960938 -5.199219 L 6.164062 -4.046875 L 6.382812 -3.792969 L 6.671875 -3.605469 L 9.296875 -1 L 9.734375 -0.507812 Z M 9.988281 -0.289062 "/></g></g></g><g fill="#000000" fill-opacity="1"><g transform="translate(25.239175, 70.024122)"><g><path d="M 6.789062 0.21875 L 8.296875 0.0664062 L 8.941406 -0.136719 L 10.445312 -0.8125 L 11.632812 -1.945312 L 11.851562 -2.25 L 12.511719 -3.421875 L 12.628906 -3.742188 L 12.679688 -4.082031 L 12.78125 -4.351562 L 12.851562 -4.722656 L 12.933594 -5.910156 L 12.851562 -7.078125 L 12.714844 -7.703125 L 12.578125 -8.058594 L 12.496094 -8.449219 L 12.191406 -9.007812 L 12.070312 -9.3125 L 11.851562 -9.601562 L 11.648438 -9.804688 L 11.429688 -10.109375 L 10.699219 -10.769531 L 9.835938 -11.308594 L 7.617188 -12.003906 L 6.824219 -12.019531 L 5.636719 -11.953125 L 5.300781 -11.886719 L 4.960938 -11.785156 L 4.65625 -11.648438 L 4.011719 -11.480469 L 3.148438 -10.9375 L 2.914062 -10.734375 L 2.371094 -10.363281 L 1.914062 -9.855469 L 1.335938 -9.007812 L 1.183594 -8.71875 L 0.863281 -7.789062 L 0.726562 -7.058594 L 0.660156 -5.097656 L 0.847656 -4.03125 L 1.101562 -3.453125 L 1.203125 -3.097656 L 1.371094 -2.792969 L 2.167969 -1.710938 L 2.640625 -1.253906 L 2.863281 -1 L 4.011719 -0.390625 L 4.335938 -0.253906 L 5.773438 0.167969 Z M 6.316406 -2.757812 L 5.976562 -2.878906 L 5.671875 -2.914062 L 5.097656 -3.21875 L 4.570312 -3.675781 L 4.402344 -3.910156 L 4.183594 -4.148438 L 3.859375 -5.097656 L 3.777344 -5.941406 L 3.792969 -6.449219 L 3.910156 -7.078125 L 4.011719 -7.382812 L 4.214844 -7.617188 L 4.367188 -7.90625 L 4.589844 -8.175781 L 4.84375 -8.398438 L 5.332031 -8.738281 L 5.636719 -8.890625 L 5.992188 -8.972656 L 6.773438 -9.042969 L 7.585938 -8.992188 L 8.480469 -8.601562 L 9.007812 -8.210938 L 9.398438 -7.636719 L 9.53125 -7.332031 L 9.632812 -6.992188 L 9.753906 -6.6875 L 9.820312 -5.960938 L 9.71875 -5.113281 L 9.566406 -4.417969 L 9.378906 -4.164062 L 9.226562 -3.910156 L 9.023438 -3.605469 L 8.5 -3.199219 L 8.195312 -3.066406 L 7.921875 -2.914062 L 7.617188 -2.878906 L 7.296875 -2.792969 Z M 6.316406 -2.757812 "/></g></g></g><g fill="#000000" fill-opacity="1"><g transform="translate(38.814019, 70.024122)"><g><path d="M 5.824219 0.152344 L 6.230469 0.015625 L 6.601562 -0.472656 L 6.824219 -0.949219 L 6.925781 -1.304688 L 7.246094 -1.84375 L 7.347656 -2.183594 L 7.515625 -2.539062 L 7.617188 -2.828125 L 7.804688 -3.132812 L 8.464844 -4.671875 L 8.585938 -5.046875 L 8.890625 -5.585938 L 10.363281 -9.074219 L 10.53125 -9.378906 L 10.820312 -9.988281 L 10.902344 -10.3125 L 11.226562 -10.902344 L 11.34375 -11.359375 L 11.257812 -11.714844 L 10.953125 -11.785156 L 10.597656 -11.816406 L 10.292969 -11.867188 L 9.972656 -11.835938 L 9.632812 -11.816406 L 8.992188 -11.886719 L 8.617188 -11.664062 L 8.328125 -11.378906 L 6.753906 -7.652344 L 6.652344 -7.296875 L 6.5 -7.007812 L 6.433594 -6.703125 L 6.265625 -6.398438 L 5.925781 -5.453125 L 5.757812 -5.148438 L 5.570312 -5.179688 L 5.148438 -6.09375 L 5.078125 -6.417969 L 4.792969 -6.992188 L 3.945312 -9.195312 L 3.503906 -10.089844 L 3.03125 -11.378906 L 2.742188 -11.664062 L 2.351562 -11.835938 L 1.386719 -11.867188 L 1.050781 -11.816406 L 0.40625 -11.816406 L 0.136719 -11.699219 L 0 -11.359375 L 0.542969 -9.921875 L 0.710938 -9.667969 L 0.796875 -9.347656 L 0.929688 -9.007812 L 1.117188 -8.753906 L 1.234375 -8.398438 L 2.757812 -4.976562 L 2.863281 -4.640625 L 3.285156 -3.757812 L 3.402344 -3.402344 L 3.691406 -2.828125 L 3.878906 -2.523438 L 3.960938 -2.183594 L 4.640625 -0.574219 L 4.792969 -0.320312 L 5.128906 -0.0351562 L 5.503906 0.101562 Z M 5.824219 0.152344 "/></g></g></g><g fill="#000000" fill-opacity="1"><g transform="translate(50.222305, 70.024122)"><g><path d="M 9.988281 0.0351562 L 10.632812 -0.015625 L 10.953125 0.015625 L 11.480469 0 L 11.953125 -0.0859375 L 12.003906 -0.492188 L 11.886719 -0.878906 L 11.632812 -1.507812 L 11.175781 -2.386719 L 10.9375 -3.015625 L 10.597656 -3.625 L 9.957031 -5.164062 L 9.785156 -5.417969 L 9.617188 -5.738281 L 9.515625 -6.113281 L 9.363281 -6.367188 L 9.261719 -6.636719 L 8.90625 -7.261719 L 8.789062 -7.617188 L 7.667969 -9.972656 L 7.566406 -10.3125 L 7.382812 -10.617188 L 7.28125 -10.921875 L 6.957031 -11.511719 L 6.671875 -11.816406 L 6.113281 -11.988281 L 5.570312 -11.800781 L 5.265625 -11.511719 L 5.113281 -11.226562 L 4.996094 -10.886719 L 4.84375 -10.648438 L 4.164062 -9.09375 L 3.980469 -8.839844 L 3.894531 -8.5 L 3.707031 -8.175781 L 3.605469 -7.871094 L 1.878906 -4.25 L 1.777344 -3.878906 L 1.609375 -3.625 L 1.488281 -3.285156 L 1.183594 -2.742188 L 0.929688 -2.066406 L 0.746094 -1.828125 L 0.660156 -1.523438 L 0.320312 -0.847656 L 0.21875 -0.507812 L 0.304688 -0.0859375 L 0.644531 0.015625 L 1.304688 -0.015625 L 1.640625 0.015625 L 2.589844 -0.015625 L 2.980469 -0.136719 L 3.300781 -0.441406 L 3.605469 -1 L 3.929688 -1.320312 L 4.285156 -1.507812 L 4.605469 -1.457031 L 5.316406 -1.523438 L 5.621094 -1.472656 L 7.28125 -1.488281 L 7.585938 -1.457031 L 7.957031 -1.507812 L 8.328125 -1.320312 L 8.652344 -1.050781 L 8.804688 -0.726562 L 8.90625 -0.421875 L 9.246094 -0.167969 L 9.632812 0 Z M 6.144531 -4.183594 L 5.808594 -4.25 L 5.417969 -4.214844 L 5.148438 -4.335938 L 5.128906 -4.65625 L 5.925781 -6.484375 L 6.113281 -6.636719 L 6.347656 -6.5 L 7.144531 -4.640625 L 7.078125 -4.335938 L 6.824219 -4.199219 Z M 6.144531 -4.183594 "/></g></g></g><g fill="#000000" fill-opacity="1"><g transform="translate(7.831334, 85.224881)"><g><path d="M 4.417969 0.0351562 L 5.554688 0 L 6.042969 -0.167969 L 6.214844 -0.644531 L 6.265625 -1.523438 L 6.214844 -2.167969 L 6.246094 -2.523438 L 6.230469 -3.199219 L 6.265625 -3.503906 L 6.214844 -3.878906 L 6.246094 -6.601562 L 6.195312 -6.957031 L 6.246094 -8.429688 L 6.382812 -8.941406 L 6.703125 -9.144531 L 7.363281 -9.175781 L 7.992188 -9.09375 L 8.347656 -9.144531 L 8.652344 -9.125 L 8.941406 -9.3125 L 9.144531 -9.683594 L 9.160156 -11.292969 L 8.972656 -11.632812 L 8.652344 -11.851562 L 7.601562 -11.851562 L 7.28125 -11.886719 L 6.925781 -11.835938 L 6.601562 -11.867188 L 5.230469 -11.800781 L 4.894531 -11.867188 L 4.570312 -11.886719 L 4.214844 -11.835938 L 3.84375 -11.867188 L 3.539062 -11.800781 L 2.539062 -11.851562 L 2.015625 -11.800781 L 0.828125 -11.867188 L 0.507812 -11.699219 L 0.304688 -11.308594 L 0.320312 -10.972656 L 0.289062 -10.125 L 0.320312 -9.601562 L 0.472656 -9.296875 L 0.777344 -9.125 L 1.117188 -9.160156 L 2.726562 -9.125 L 3.046875 -8.957031 L 3.234375 -8.617188 L 3.199219 -8.074219 L 3.234375 -7.601562 L 3.21875 -7.230469 L 3.234375 -6.890625 L 3.199219 -6.417969 L 3.25 -3.894531 L 3.21875 -3.554688 L 3.199219 -2.183594 L 3.234375 -1.828125 L 3.21875 -0.847656 L 3.183594 -0.523438 L 3.402344 -0.152344 L 3.894531 0.015625 Z M 4.417969 0.0351562 "/></g></g></g><g fill="#000000" fill-opacity="1"><g transform="translate(17.293101, 85.224881)"><g><path d="M 5.824219 0.21875 L 6.332031 0.167969 L 6.652344 0.1875 L 7.972656 -0.152344 L 8.585938 -0.472656 L 9.144531 -0.847656 L 9.617188 -1.320312 L 10.007812 -1.914062 L 10.109375 -2.25 L 10.277344 -2.539062 L 10.429688 -3.25 L 10.515625 -4.0625 L 10.515625 -8.636719 L 10.480469 -8.957031 L 10.515625 -9.328125 L 10.480469 -9.601562 L 10.480469 -11.003906 L 10.53125 -11.34375 L 10.3125 -11.699219 L 9.9375 -11.816406 L 8.871094 -11.785156 L 8.160156 -11.835938 L 7.804688 -11.664062 L 7.617188 -11.292969 L 7.652344 -4.621094 L 7.535156 -3.574219 L 7.433594 -3.320312 L 7.246094 -2.980469 L 6.957031 -2.777344 L 6.367188 -2.554688 L 5.351562 -2.554688 L 4.960938 -2.640625 L 4.671875 -2.808594 L 4.402344 -3.015625 L 4.199219 -3.285156 L 4.097656 -3.605469 L 3.996094 -4.589844 L 4.046875 -10.039062 L 4.011719 -10.292969 L 4.046875 -10.835938 L 4.011719 -11.328125 L 3.808594 -11.699219 L 3.453125 -11.851562 L 3.132812 -11.851562 L 2.792969 -11.800781 L 2.066406 -11.867188 L 1.710938 -11.816406 L 1.355469 -11.683594 L 1.132812 -11.359375 L 1.167969 -11.023438 L 1.167969 -10.617188 L 1.132812 -10.34375 L 1.183594 -7.972656 L 1.132812 -7.636719 L 1.167969 -7.3125 L 1.117188 -4.589844 L 1.21875 -3.234375 L 1.386719 -2.539062 L 1.660156 -1.964844 L 2.046875 -1.355469 L 2.25 -1.117188 L 2.503906 -0.898438 L 3.046875 -0.542969 L 3.386719 -0.390625 L 3.640625 -0.238281 L 4.285156 0.0507812 L 4.945312 0.1875 L 5.28125 0.1875 Z M 5.824219 0.21875 "/></g></g></g><g fill="#000000" fill-opacity="1"><g transform="translate(28.97221, 85.224881)"><g><path d="M 1.269531 -0.695312 L 1.4375 -0.167969 L 1.929688 0.0507812 L 2.269531 0 L 2.808594 0.0507812 L 3.082031 0.015625 L 3.589844 0.015625 L 4.132812 -0.152344 L 4.285156 -0.644531 L 4.285156 -1.21875 L 4.316406 -1.523438 L 4.265625 -1.878906 L 4.300781 -2.964844 L 4.453125 -3.300781 L 4.773438 -3.488281 L 5.757812 -3.351562 L 6.09375 -3.066406 L 6.296875 -2.726562 L 6.433594 -2.421875 L 6.789062 -1.914062 L 7.109375 -1.304688 L 7.296875 -1.050781 L 7.433594 -0.710938 L 7.617188 -0.421875 L 7.992188 -0.117188 L 8.566406 0.0351562 L 9.90625 0.015625 L 10.226562 0.0507812 L 10.785156 0.0351562 L 11.105469 -0.117188 L 11.207031 -0.492188 L 11.023438 -0.863281 L 10.820312 -1.101562 L 10.683594 -1.421875 L 10.109375 -2.285156 L 9.957031 -2.589844 L 9.414062 -3.472656 L 9.210938 -3.726562 L 9.195312 -4.132812 L 9.347656 -4.503906 L 9.582031 -4.757812 L 9.820312 -4.960938 L 10.480469 -6.144531 L 10.699219 -7.128906 L 10.667969 -8.195312 L 10.617188 -8.535156 L 10.3125 -9.5 L 10.175781 -9.785156 L 9.988281 -10.058594 L 9.023438 -11.074219 L 8.429688 -11.394531 L 7.789062 -11.613281 L 6.824219 -11.835938 L 6.28125 -11.851562 L 5.789062 -11.816406 L 4.773438 -11.816406 L 4.4375 -11.886719 L 4.097656 -11.886719 L 3.792969 -11.800781 L 3.453125 -11.800781 L 3.117188 -11.867188 L 2.742188 -11.886719 L 1.742188 -11.800781 L 1.4375 -11.632812 L 1.234375 -11.15625 L 1.253906 -7.28125 L 1.285156 -6.941406 L 1.234375 -6.265625 L 1.253906 -5.890625 L 1.253906 -5.554688 L 1.285156 -5.230469 L 1.253906 -4.910156 L 1.234375 -3.539062 L 1.269531 -3.199219 Z M 4.773438 -6.195312 L 4.4375 -6.382812 L 4.300781 -6.652344 L 4.300781 -7.667969 L 4.265625 -7.957031 L 4.300781 -8.667969 L 4.453125 -8.992188 L 4.808594 -9.125 L 5.148438 -9.109375 L 5.824219 -9.175781 L 6.296875 -9.074219 L 6.738281 -9.042969 L 7.058594 -8.957031 L 7.484375 -8.429688 L 7.585938 -8.160156 L 7.652344 -7.71875 L 7.601562 -7.210938 L 7.449219 -6.875 L 7.261719 -6.621094 L 7.078125 -6.46875 L 6.773438 -6.332031 L 6.28125 -6.214844 L 5.960938 -6.195312 L 5.148438 -6.230469 Z M 4.773438 -6.195312 "/></g></g></g><g fill="#000000" fill-opacity="1"><g transform="translate(40.719019, 85.224881)"><g><path d="M 1.761719 0.0507812 L 2.097656 0 L 2.757812 0.0351562 L 3.132812 -0.015625 L 3.675781 0.015625 L 4.148438 -0.1875 L 4.351562 -0.492188 L 4.300781 -2.269531 L 4.351562 -2.792969 L 4.335938 -3.148438 L 4.367188 -3.757812 L 4.335938 -4.132812 L 4.335938 -4.792969 L 4.488281 -4.945312 L 4.65625 -4.875 L 4.925781 -4.65625 L 5.128906 -4.402344 L 5.824219 -3.707031 L 6.042969 -3.4375 L 6.5 -2.996094 L 6.855469 -2.742188 L 7.230469 -2.726562 L 7.566406 -2.980469 L 7.804688 -3.234375 L 8.007812 -3.4375 L 8.480469 -3.996094 L 8.71875 -4.164062 L 9.414062 -4.875 L 9.632812 -4.976562 L 9.769531 -4.722656 L 9.734375 -3.792969 L 9.785156 -3.117188 L 9.753906 -2.453125 L 9.785156 -1.828125 L 9.753906 -1.523438 L 9.785156 -0.761719 L 9.785156 -0.507812 L 9.921875 -0.117188 L 10.277344 -0.015625 L 12.324219 0.0507812 L 12.679688 -0.136719 L 12.882812 -0.625 L 12.832031 -1.507812 L 12.867188 -1.84375 L 12.832031 -6.925781 L 12.867188 -7.296875 L 12.851562 -8.972656 L 12.867188 -9.296875 L 12.832031 -10.023438 L 12.851562 -10.3125 L 12.832031 -11.003906 L 12.867188 -11.328125 L 12.664062 -11.683594 L 12.308594 -11.867188 L 11.816406 -11.714844 L 11.460938 -11.496094 L 10.75 -10.75 L 10.53125 -10.480469 L 10.328125 -10.292969 L 10.089844 -9.988281 L 8.601562 -8.464844 L 8.378906 -8.175781 L 7.347656 -7.128906 L 7.042969 -6.925781 L 6.6875 -7.058594 L 6.484375 -7.347656 L 6.246094 -7.585938 L 5.941406 -7.972656 L 5.570312 -8.3125 L 4.03125 -10.023438 L 3.792969 -10.226562 L 3.351562 -10.75 L 3.082031 -10.988281 L 2.640625 -11.445312 L 2.25 -11.734375 L 1.777344 -11.867188 L 1.40625 -11.699219 L 1.21875 -11.34375 L 1.269531 -10.3125 L 1.21875 -9.652344 L 1.253906 -9.347656 L 1.234375 -6.636719 L 1.269531 -6.296875 L 1.21875 -4.589844 L 1.253906 -4.265625 L 1.234375 -0.523438 L 1.421875 -0.167969 Z M 1.761719 0.0507812 "/></g></g></g><g fill="#000000" fill-opacity="1"><g transform="translate(54.86936, 85.224881)"><g><path d="M 9.988281 0.0351562 L 10.632812 -0.015625 L 10.953125 0.015625 L 11.480469 0 L 11.953125 -0.0859375 L 12.003906 -0.492188 L 11.886719 -0.878906 L 11.632812 -1.507812 L 11.175781 -2.386719 L 10.9375 -3.015625 L 10.597656 -3.625 L 9.957031 -5.164062 L 9.785156 -5.417969 L 9.617188 -5.738281 L 9.515625 -6.113281 L 9.363281 -6.367188 L 9.261719 -6.636719 L 8.90625 -7.261719 L 8.789062 -7.617188 L 7.667969 -9.972656 L 7.566406 -10.3125 L 7.382812 -10.617188 L 7.28125 -10.921875 L 6.957031 -11.511719 L 6.671875 -11.816406 L 6.113281 -11.988281 L 5.570312 -11.800781 L 5.265625 -11.511719 L 5.113281 -11.226562 L 4.996094 -10.886719 L 4.84375 -10.648438 L 4.164062 -9.09375 L 3.980469 -8.839844 L 3.894531 -8.5 L 3.707031 -8.175781 L 3.605469 -7.871094 L 1.878906 -4.25 L 1.777344 -3.878906 L 1.609375 -3.625 L 1.488281 -3.285156 L 1.183594 -2.742188 L 0.929688 -2.066406 L 0.746094 -1.828125 L 0.660156 -1.523438 L 0.320312 -0.847656 L 0.21875 -0.507812 L 0.304688 -0.0859375 L 0.644531 0.015625 L 1.304688 -0.015625 L 1.640625 0.015625 L 2.589844 -0.015625 L 2.980469 -0.136719 L 3.300781 -0.441406 L 3.605469 -1 L 3.929688 -1.320312 L 4.285156 -1.507812 L 4.605469 -1.457031 L 5.316406 -1.523438 L 5.621094 -1.472656 L 7.28125 -1.488281 L 7.585938 -1.457031 L 7.957031 -1.507812 L 8.328125 -1.320312 L 8.652344 -1.050781 L 8.804688 -0.726562 L 8.90625 -0.421875 L 9.246094 -0.167969 L 9.632812 0 Z M 6.144531 -4.183594 L 5.808594 -4.25 L 5.417969 -4.214844 L 5.148438 -4.335938 L 5.128906 -4.65625 L 5.925781 -6.484375 L 6.113281 -6.636719 L 6.347656 -6.5 L 7.144531 -4.640625 L 7.078125 -4.335938 L 6.824219 -4.199219 Z M 6.144531 -4.183594 "/></g></g></g></svg>