<svg xmlns="http://www.w3.org/2000/svg" xmlns:xlink="http://www.w3.org/1999/xlink" width="200" zoomAndPan="magnify" viewBox="0 0 150 202.499994" height="270" preserveAspectRatio="xMidYMid meet" version="1.0"><defs><g/><clipPath id="45040c0227"><path d="M 4.480469 6.925781 L 149.8125 6.925781 L 149.8125 199.949219 L 4.480469 199.949219 Z M 4.480469 6.925781 " clip-rule="nonzero"/></clipPath><clipPath id="dc9f05cc20"><path d="M 37.398438 6.925781 L 116.898438 6.925781 C 125.628906 6.925781 134 10.394531 140.171875 16.566406 C 146.347656 22.742188 149.816406 31.113281 149.816406 39.84375 L 149.816406 166.59375 C 149.816406 175.324219 146.347656 183.695312 140.171875 189.871094 C 134 196.042969 125.628906 199.511719 116.898438 199.511719 L 37.398438 199.511719 C 28.667969 199.511719 20.296875 196.042969 14.121094 189.871094 C 7.949219 183.695312 4.480469 175.324219 4.480469 166.59375 L 4.480469 39.84375 C 4.480469 31.113281 7.949219 22.742188 14.121094 16.566406 C 20.296875 10.394531 28.667969 6.925781 37.398438 6.925781 Z M 37.398438 6.925781 " clip-rule="nonzero"/></clipPath><clipPath id="ee1c51ee3a"><path d="M 0.183594 2.488281 L 145.519531 2.488281 L 145.519531 195 L 0.183594 195 Z M 0.183594 2.488281 " clip-rule="nonzero"/></clipPath><clipPath id="fadb8ccdad"><path d="M 33.101562 2.488281 L 112.601562 2.488281 C 121.332031 2.488281 129.703125 5.957031 135.878906 12.132812 C 142.050781 18.304688 145.519531 26.675781 145.519531 35.40625 L 145.519531 162.15625 C 145.519531 170.886719 142.050781 179.261719 135.878906 185.433594 C 129.703125 191.605469 121.332031 195.074219 112.601562 195.074219 L 33.101562 195.074219 C 24.371094 195.074219 16 191.605469 9.828125 185.433594 C 3.652344 179.261719 0.183594 170.886719 0.183594 162.15625 L 0.183594 35.40625 C 0.183594 26.675781 3.652344 18.304688 9.828125 12.132812 C 16 5.957031 24.371094 2.488281 33.101562 2.488281 Z M 33.101562 2.488281 " clip-rule="nonzero"/></clipPath><clipPath id="58704c3c77"><path d="M 0.183594 2.492188 L 145.328125 2.492188 L 145.328125 194.765625 L 0.183594 194.765625 Z M 0.183594 2.492188 " clip-rule="nonzero"/></clipPath><clipPath id="d6edd43871"><path d="M 33.101562 2.492188 L 112.597656 2.492188 C 121.328125 2.492188 129.699219 5.957031 135.871094 12.132812 C 142.046875 18.304688 145.511719 26.675781 145.511719 35.40625 L 145.511719 162.148438 C 145.511719 170.878906 142.046875 179.253906 135.871094 185.425781 C 129.699219 191.597656 121.328125 195.066406 112.597656 195.066406 L 33.101562 195.066406 C 24.371094 195.066406 16 191.597656 9.824219 185.425781 C 3.652344 179.253906 0.183594 170.878906 0.183594 162.148438 L 0.183594 35.40625 C 0.183594 26.675781 3.652344 18.304688 9.824219 12.132812 C 16 5.957031 24.371094 2.492188 33.101562 2.492188 Z M 33.101562 2.492188 " clip-rule="nonzero"/></clipPath><clipPath id="920cf416b6"><path d="M 20.25 57 L 67 57 L 67 112 L 20.25 112 Z M 20.25 57 " clip-rule="nonzero"/></clipPath><clipPath id="295a775679"><path d="M 84 59 L 129.480469 59 L 129.480469 114.171875 L 84 114.171875 Z M 84 59 " clip-rule="nonzero"/></clipPath><clipPath id="43ef97dc9e"><path d="M 54 46.089844 L 96 46.089844 L 96 101 L 54 101 Z M 54 46.089844 " clip-rule="nonzero"/></clipPath></defs><g clip-path="url(#45040c0227)"><g clip-path="url(#dc9f05cc20)"><path fill="#d9d9d9" d="M 4.480469 6.925781 L 149.816406 6.925781 L 149.816406 199.382812 L 4.480469 199.382812 Z M 4.480469 6.925781 " fill-opacity="1" fill-rule="nonzero"/></g></g><g clip-path="url(#ee1c51ee3a)"><g clip-path="url(#fadb8ccdad)"><path fill="#dfe3e8" d="M 0.183594 2.488281 L 145.519531 2.488281 L 145.519531 194.945312 L 0.183594 194.945312 Z M 0.183594 2.488281 " fill-opacity="1" fill-rule="nonzero"/></g></g><g clip-path="url(#58704c3c77)"><g clip-path="url(#d6edd43871)"><path stroke-linecap="butt" transform="matrix(0.748153, 0, 0, 0.748153, 0.184731, 2.490475)" fill="none" stroke-linejoin="miter" d="M 43.997482 0.00228864 L 150.254004 0.00228864 C 161.923373 0.00228864 173.112392 4.633488 181.361879 12.888196 C 189.616586 21.137682 194.247786 32.326701 194.247786 43.99607 L 194.247786 213.402935 C 194.247786 225.072304 189.616586 236.266544 181.361879 244.516031 C 173.112392 252.765517 161.923373 257.401938 150.254004 257.401938 L 43.997482 257.401938 C 32.328114 257.401938 21.139095 252.765517 12.884387 244.516031 C 4.6349 236.266544 -0.00152045 225.072304 -0.00152045 213.402935 L -0.00152045 43.99607 C -0.00152045 32.326701 4.6349 21.137682 12.884387 12.888196 C 21.139095 4.633488 32.328114 0.00228864 43.997482 0.00228864 Z M 43.997482 0.00228864 " stroke="#d9d9d9" stroke-width="2" stroke-opacity="1" stroke-miterlimit="4"/></g></g><g clip-path="url(#920cf416b6)"><path fill="#ff3d00" d="M 65.628906 102.34375 L 53.175781 65.53125 C 51.976562 61.800781 49.777344 57.527344 43.355469 57.527344 C 36.785156 57.527344 34.558594 62.105469 33.464844 65.519531 L 21.164062 102.328125 C 20.335938 104.714844 20.640625 107.25 21.972656 109.121094 C 23.175781 110.808594 25.109375 111.773438 27.285156 111.773438 C 30.738281 111.773438 33.082031 109.8125 34.25 105.921875 L 35.839844 100.472656 L 50.800781 100.472656 L 52.484375 106 C 53.753906 109.832031 56.066406 111.773438 59.351562 111.773438 C 61.550781 111.773438 63.433594 110.871094 64.660156 109.226562 C 66.019531 107.40625 66.386719 104.863281 65.628906 102.34375 Z M 39.496094 89.171875 L 43.355469 76.914062 L 47.285156 89.171875 Z M 39.496094 89.171875 " fill-opacity="1" fill-rule="nonzero"/></g><g clip-path="url(#295a775679)"><path fill="#689f38" d="M 110.839844 114.035156 C 95.378906 114.035156 84.15625 102.613281 84.15625 86.875 C 84.15625 71.179688 95.378906 59.789062 110.839844 59.789062 C 116.503906 59.789062 121.339844 61.097656 125.429688 63.910156 C 128.15625 65.785156 129.480469 67.925781 129.480469 70.445312 C 129.480469 73.859375 126.9375 76.429688 123.558594 76.429688 C 121.261719 76.429688 119.566406 75.394531 118.207031 74.5625 C 116.125 73.242188 114.050781 72.488281 110.984375 72.488281 C 103.066406 72.488281 97.75 78.269531 97.75 86.875 C 97.75 95.523438 103.070312 101.335938 110.984375 101.335938 C 114.324219 101.335938 116.097656 100.632812 118.199219 99.335938 C 119.515625 98.484375 121.207031 97.390625 123.488281 97.390625 C 126.847656 97.390625 129.480469 100.054688 129.480469 103.449219 C 129.480469 106 128.125 108.140625 125.328125 110.003906 C 121.558594 112.632812 116.535156 114.035156 110.839844 114.035156 Z M 110.839844 114.035156 " fill-opacity="1" fill-rule="nonzero"/></g><g clip-path="url(#43ef97dc9e)"><path fill="#ffc107" d="M 73.597656 100.472656 L 61.5625 100.472656 C 57.582031 100.472656 54.695312 97.648438 54.695312 93.761719 L 54.695312 52.863281 C 54.695312 49.019531 57.582031 46.226562 61.5625 46.226562 L 72.371094 46.226562 C 89.070312 46.226562 92.574219 54.925781 92.574219 62.21875 C 92.574219 65.980469 91.15625 69.335938 88.515625 71.957031 C 92.988281 74.675781 95.488281 78.847656 95.488281 83.800781 C 95.488281 94.867188 88.121094 100.472656 73.597656 100.472656 Z M 68.425781 88.03125 L 74.289062 88.03125 C 81.042969 88.03125 81.601562 85.886719 81.601562 83.5 C 81.601562 82.1875 81.601562 79.117188 74.210938 79.117188 L 68.425781 79.117188 Z M 68.292969 66.570312 L 72.851562 66.570312 C 78.066406 66.570312 78.917969 64.402344 78.917969 62.046875 C 78.917969 59.742188 78.273438 57.527344 72.085938 57.527344 L 68.292969 57.527344 Z M 68.292969 66.570312 " fill-opacity="1" fill-rule="nonzero"/></g><g fill="#000000" fill-opacity="1"><g transform="translate(33.047702, 175.52959)"><g><path d="M 5.75 0.0703125 L 6.4375 0.0351562 L 6.746094 -0.136719 L 6.917969 -0.464844 L 6.917969 -2.164062 L 6.710938 -2.488281 L 6.335938 -2.679688 L 5.972656 -2.679688 L 5.5625 -2.816406 L 5.355469 -3.210938 L 5.40625 -3.535156 L 5.390625 -5.425781 L 5.425781 -5.800781 L 5.355469 -7.039062 L 5.425781 -8.773438 L 5.546875 -9.167969 L 5.921875 -9.320312 L 6.265625 -9.375 L 6.625 -9.511719 L 6.796875 -9.785156 L 6.816406 -11.484375 L 6.609375 -11.8125 L 6.300781 -12 L 4.222656 -12 L 3.914062 -12.035156 L 3.570312 -11.964844 L 2.164062 -11.964844 L 1.835938 -12.015625 L 1.441406 -12.015625 L 1.097656 -11.847656 L 0.925781 -11.433594 L 0.980469 -10.164062 L 0.945312 -9.835938 L 1.132812 -9.492188 L 1.511719 -9.304688 L 1.855469 -9.304688 L 2.179688 -9.097656 L 2.335938 -8.636719 L 2.386719 -3.363281 L 2.199219 -2.851562 L 1.0625 -2.507812 L 0.875 -2.199219 L 0.824219 -0.617188 L 0.996094 -0.15625 L 1.339844 0 L 1.664062 0 L 1.992188 -0.0351562 L 2.488281 0.0351562 L 3.023438 0.015625 L 3.363281 -0.015625 L 4.050781 0.0507812 L 4.566406 -0.015625 L 5.40625 -0.015625 Z M 5.75 0.0703125 "/></g></g></g><g fill="#000000" fill-opacity="1"><g transform="translate(40.840779, 175.52959)"><g><path d="M 5.289062 0.0507812 L 5.800781 0.0507812 L 6.335938 -0.015625 L 6.679688 -0.015625 L 7.175781 -0.171875 L 7.878906 -0.292969 L 8.6875 -0.636719 L 9.835938 -1.40625 L 10.679688 -2.488281 L 10.851562 -2.832031 L 11.054688 -3.105469 L 11.332031 -3.777344 L 11.417969 -4.101562 L 11.484375 -4.464844 L 11.589844 -4.753906 L 11.640625 -5.097656 L 11.640625 -5.460938 L 11.691406 -6.007812 L 11.675781 -6.507812 L 11.433594 -7.863281 L 11.210938 -8.515625 L 11.074219 -8.839844 L 10.488281 -9.75 L 9.578125 -10.765625 L 8.703125 -11.347656 L 8.378906 -11.535156 L 8.035156 -11.605469 L 7.742188 -11.742188 L 7.382812 -11.828125 L 6.371094 -11.984375 L 2.453125 -12.015625 L 2.144531 -11.964844 L 1.800781 -11.984375 L 1.425781 -11.828125 L 1.269531 -11.46875 L 1.253906 -1.871094 L 1.289062 -1.546875 L 1.289062 -0.667969 L 1.460938 -0.136719 L 1.800781 0.0351562 L 2.144531 0 L 4.242188 0.0351562 L 4.582031 -0.015625 Z M 5.234375 -2.765625 L 4.910156 -2.796875 L 4.515625 -2.988281 L 4.378906 -3.3125 L 4.359375 -3.605469 L 4.378906 -4.308594 L 4.308594 -5.148438 L 4.378906 -6.007812 L 4.34375 -8.378906 L 4.378906 -8.667969 L 4.550781 -9.066406 L 5.097656 -9.183594 L 5.820312 -9.203125 L 6.316406 -9.152344 L 6.988281 -8.960938 L 7.296875 -8.808594 L 7.554688 -8.617188 L 7.8125 -8.378906 L 8.070312 -8.070312 L 8.242188 -7.777344 L 8.394531 -7.46875 L 8.667969 -5.957031 L 8.5 -4.753906 L 8.207031 -4.121094 L 7.570312 -3.398438 L 6.988281 -3.023438 L 6.488281 -2.867188 L 5.75 -2.78125 Z M 5.234375 -2.765625 "/></g></g></g><g fill="#000000" fill-opacity="1"><g transform="translate(53.319999, 175.52959)"><g><path d="M 5.75 0.0703125 L 6.4375 0.0351562 L 6.746094 -0.136719 L 6.917969 -0.464844 L 6.917969 -2.164062 L 6.710938 -2.488281 L 6.335938 -2.679688 L 5.972656 -2.679688 L 5.5625 -2.816406 L 5.355469 -3.210938 L 5.40625 -3.535156 L 5.390625 -5.425781 L 5.425781 -5.800781 L 5.355469 -7.039062 L 5.425781 -8.773438 L 5.546875 -9.167969 L 5.921875 -9.320312 L 6.265625 -9.375 L 6.625 -9.511719 L 6.796875 -9.785156 L 6.816406 -11.484375 L 6.609375 -11.8125 L 6.300781 -12 L 4.222656 -12 L 3.914062 -12.035156 L 3.570312 -11.964844 L 2.164062 -11.964844 L 1.835938 -12.015625 L 1.441406 -12.015625 L 1.097656 -11.847656 L 0.925781 -11.433594 L 0.980469 -10.164062 L 0.945312 -9.835938 L 1.132812 -9.492188 L 1.511719 -9.304688 L 1.855469 -9.304688 L 2.179688 -9.097656 L 2.335938 -8.636719 L 2.386719 -3.363281 L 2.199219 -2.851562 L 1.0625 -2.507812 L 0.875 -2.199219 L 0.824219 -0.617188 L 0.996094 -0.15625 L 1.339844 0 L 1.664062 0 L 1.992188 -0.0351562 L 2.488281 0.0351562 L 3.023438 0.015625 L 3.363281 -0.015625 L 4.050781 0.0507812 L 4.566406 -0.015625 L 5.40625 -0.015625 Z M 5.75 0.0703125 "/></g></g></g><g fill="#000000" fill-opacity="1"><g transform="translate(61.113076, 175.52959)"><g><path d="M 6.882812 0.222656 L 8.414062 0.0703125 L 9.066406 -0.136719 L 10.59375 -0.824219 L 11.792969 -1.972656 L 12.015625 -2.285156 L 12.6875 -3.46875 L 12.808594 -3.792969 L 12.859375 -4.136719 L 12.960938 -4.414062 L 13.03125 -4.789062 L 13.117188 -5.992188 L 13.03125 -7.175781 L 12.894531 -7.8125 L 12.753906 -8.171875 L 12.667969 -8.566406 L 12.359375 -9.132812 L 12.242188 -9.441406 L 12.015625 -9.734375 L 11.8125 -9.941406 L 11.589844 -10.25 L 10.851562 -10.917969 L 9.972656 -11.46875 L 7.726562 -12.171875 L 6.917969 -12.1875 L 5.71875 -12.121094 L 5.375 -12.050781 L 5.03125 -11.949219 L 4.722656 -11.8125 L 4.070312 -11.640625 L 3.191406 -11.089844 L 2.953125 -10.882812 L 2.402344 -10.507812 L 1.941406 -9.992188 L 1.355469 -9.132812 L 1.203125 -8.839844 L 0.875 -7.898438 L 0.738281 -7.160156 L 0.667969 -5.167969 L 0.859375 -4.085938 L 1.117188 -3.503906 L 1.21875 -3.140625 L 1.390625 -2.832031 L 2.199219 -1.734375 L 2.679688 -1.269531 L 2.902344 -1.011719 L 4.070312 -0.394531 L 4.394531 -0.257812 L 5.855469 0.171875 Z M 6.402344 -2.796875 L 6.058594 -2.917969 L 5.75 -2.953125 L 5.167969 -3.261719 L 4.636719 -3.726562 L 4.464844 -3.964844 L 4.242188 -4.207031 L 3.914062 -5.167969 L 3.828125 -6.027344 L 3.84375 -6.539062 L 3.964844 -7.175781 L 4.070312 -7.484375 L 4.273438 -7.726562 L 4.429688 -8.015625 L 4.652344 -8.292969 L 4.910156 -8.515625 L 5.40625 -8.859375 L 5.71875 -9.011719 L 6.078125 -9.097656 L 6.867188 -9.167969 L 7.691406 -9.117188 L 8.601562 -8.722656 L 9.132812 -8.328125 L 9.527344 -7.742188 L 9.664062 -7.433594 L 9.769531 -7.089844 L 9.890625 -6.78125 L 9.957031 -6.042969 L 9.855469 -5.183594 L 9.699219 -4.480469 L 9.511719 -4.222656 L 9.355469 -3.964844 L 9.152344 -3.65625 L 8.617188 -3.246094 L 8.308594 -3.105469 L 8.035156 -2.953125 L 7.726562 -2.917969 L 7.398438 -2.832031 Z M 6.402344 -2.796875 "/></g></g></g><g fill="#000000" fill-opacity="1"><g transform="translate(74.879695, 175.52959)"><g><path d="M 1.785156 0.0507812 L 2.128906 0 L 2.796875 0.0351562 L 3.175781 -0.015625 L 3.726562 0.015625 L 4.207031 -0.1875 L 4.414062 -0.496094 L 4.359375 -2.300781 L 4.414062 -2.832031 L 4.394531 -3.191406 L 4.429688 -3.8125 L 4.394531 -4.1875 L 4.394531 -4.859375 L 4.550781 -5.011719 L 4.722656 -4.945312 L 4.996094 -4.722656 L 5.203125 -4.464844 L 5.90625 -3.757812 L 6.128906 -3.484375 L 6.59375 -3.039062 L 6.953125 -2.78125 L 7.332031 -2.765625 L 7.675781 -3.023438 L 7.914062 -3.277344 L 8.121094 -3.484375 L 8.601562 -4.050781 L 8.839844 -4.222656 L 9.546875 -4.945312 L 9.769531 -5.046875 L 9.90625 -4.789062 L 9.871094 -3.84375 L 9.921875 -3.160156 L 9.890625 -2.488281 L 9.921875 -1.855469 L 9.890625 -1.546875 L 9.921875 -0.773438 L 9.921875 -0.515625 L 10.058594 -0.121094 L 10.421875 -0.015625 L 12.5 0.0507812 L 12.859375 -0.136719 L 13.066406 -0.636719 L 13.011719 -1.527344 L 13.046875 -1.871094 L 13.011719 -7.023438 L 13.046875 -7.398438 L 13.03125 -9.097656 L 13.046875 -9.425781 L 13.011719 -10.164062 L 13.03125 -10.457031 L 13.011719 -11.160156 L 13.046875 -11.484375 L 12.839844 -11.847656 L 12.480469 -12.035156 L 11.984375 -11.878906 L 11.621094 -11.65625 L 10.902344 -10.902344 L 10.679688 -10.625 L 10.472656 -10.4375 L 10.230469 -10.128906 L 8.722656 -8.582031 L 8.5 -8.292969 L 7.449219 -7.226562 L 7.140625 -7.023438 L 6.78125 -7.160156 L 6.574219 -7.449219 L 6.335938 -7.691406 L 6.027344 -8.085938 L 5.648438 -8.429688 L 4.085938 -10.164062 L 3.84375 -10.371094 L 3.398438 -10.902344 L 3.125 -11.140625 L 2.679688 -11.605469 L 2.285156 -11.898438 L 1.800781 -12.035156 L 1.425781 -11.863281 L 1.234375 -11.503906 L 1.289062 -10.457031 L 1.234375 -9.785156 L 1.269531 -9.476562 L 1.253906 -6.730469 L 1.289062 -6.386719 L 1.234375 -4.652344 L 1.269531 -4.328125 L 1.253906 -0.53125 L 1.441406 -0.171875 Z M 1.785156 0.0507812 "/></g></g></g><g fill="#000000" fill-opacity="1"><g transform="translate(89.229938, 175.52959)"><g><path d="M 10.128906 0.0351562 L 10.78125 -0.015625 L 11.109375 0.015625 L 11.640625 0 L 12.121094 -0.0859375 L 12.171875 -0.496094 L 12.050781 -0.894531 L 11.792969 -1.527344 L 11.332031 -2.421875 L 11.089844 -3.054688 L 10.746094 -3.675781 L 10.09375 -5.234375 L 9.921875 -5.492188 L 9.75 -5.820312 L 9.648438 -6.199219 L 9.492188 -6.457031 L 9.390625 -6.730469 L 9.03125 -7.363281 L 8.910156 -7.726562 L 7.777344 -10.113281 L 7.675781 -10.457031 L 7.484375 -10.765625 L 7.382812 -11.074219 L 7.054688 -11.675781 L 6.765625 -11.984375 L 6.199219 -12.15625 L 5.648438 -11.964844 L 5.339844 -11.675781 L 5.183594 -11.382812 L 5.066406 -11.039062 L 4.910156 -10.796875 L 4.222656 -9.21875 L 4.035156 -8.960938 L 3.949219 -8.617188 L 3.757812 -8.292969 L 3.65625 -7.984375 L 1.90625 -4.308594 L 1.800781 -3.929688 L 1.632812 -3.675781 L 1.511719 -3.332031 L 1.203125 -2.78125 L 0.945312 -2.09375 L 0.753906 -1.855469 L 0.667969 -1.546875 L 0.328125 -0.859375 L 0.222656 -0.515625 L 0.308594 -0.0859375 L 0.652344 0.015625 L 1.320312 -0.015625 L 1.664062 0.015625 L 2.625 -0.015625 L 3.023438 -0.136719 L 3.347656 -0.445312 L 3.65625 -1.011719 L 3.984375 -1.339844 L 4.34375 -1.527344 L 4.667969 -1.476562 L 5.390625 -1.546875 L 5.699219 -1.492188 L 7.382812 -1.511719 L 7.691406 -1.476562 L 8.070312 -1.527344 L 8.445312 -1.339844 L 8.773438 -1.0625 L 8.925781 -0.738281 L 9.03125 -0.429688 L 9.375 -0.171875 L 9.769531 0 Z M 6.230469 -4.242188 L 5.886719 -4.308594 L 5.492188 -4.273438 L 5.21875 -4.394531 L 5.203125 -4.722656 L 6.007812 -6.574219 L 6.199219 -6.730469 L 6.4375 -6.59375 L 7.246094 -4.703125 L 7.175781 -4.394531 L 6.917969 -4.257812 Z M 6.230469 -4.242188 "/></g></g></g><g fill="#000000" fill-opacity="1"><g transform="translate(101.691993, 175.52959)"><g><path d="M 4.617188 0.15625 L 5.972656 0.1875 L 6.316406 0.15625 L 6.660156 0.0703125 L 7.003906 0.015625 L 7.347656 -0.121094 L 7.65625 -0.15625 L 7.984375 -0.308594 L 9.152344 -1.011719 L 9.648438 -1.527344 L 9.820312 -1.769531 L 10.007812 -2.144531 L 10.113281 -2.453125 L 10.214844 -2.746094 L 10.316406 -3.605469 L 10.285156 -4.15625 L 10.027344 -5.148438 L 9.835938 -5.425781 L 9.390625 -5.941406 L 9.082031 -6.214844 L 8.808594 -6.351562 L 8.5 -6.539062 L 7.160156 -6.953125 L 6.816406 -7.003906 L 6.472656 -7.023438 L 6.113281 -7.089844 L 5.613281 -7.089844 L 4.703125 -7.277344 L 4.070312 -7.589844 L 3.8125 -7.828125 L 3.742188 -8.34375 L 3.828125 -8.808594 L 4.035156 -9.03125 L 4.292969 -9.21875 L 4.566406 -9.375 L 4.875 -9.441406 L 5.425781 -9.460938 L 5.972656 -9.390625 L 6.285156 -9.304688 L 6.59375 -9.097656 L 6.882812 -8.859375 L 7.140625 -8.515625 L 7.519531 -8.292969 L 8.328125 -8.359375 L 8.789062 -8.328125 L 9.132812 -8.328125 L 9.441406 -8.292969 L 9.769531 -8.53125 L 9.90625 -8.824219 L 9.835938 -9.152344 L 9.804688 -9.476562 L 9.320312 -10.371094 L 8.945312 -10.882812 L 7.8125 -11.675781 L 6.851562 -12 L 6.179688 -12.136719 L 4.859375 -12.171875 L 4.480469 -12.070312 L 4.136719 -12.050781 L 3.828125 -12 L 3.175781 -11.792969 L 2.59375 -11.449219 L 1.769531 -10.882812 L 1.167969 -10.078125 L 0.859375 -9.132812 L 0.808594 -8.292969 L 0.824219 -7.761719 L 0.945312 -7.074219 L 1.21875 -6.472656 L 1.855469 -5.683594 L 3.023438 -5.046875 L 3.640625 -4.839844 L 6.335938 -4.53125 L 6.953125 -4.242188 L 7.175781 -4.035156 L 7.277344 -3.605469 L 7.140625 -3.175781 L 6.917969 -2.917969 L 6.335938 -2.660156 L 5.800781 -2.625 L 5.492188 -2.574219 L 4.617188 -2.660156 L 4.328125 -2.816406 L 4.035156 -3.003906 L 3.46875 -3.621094 L 3.125 -3.757812 L 2.816406 -3.726562 L 2.488281 -3.777344 L 1.167969 -3.707031 L 0.859375 -3.570312 L 0.722656 -3.210938 L 0.773438 -2.867188 L 0.839844 -2.523438 L 0.945312 -2.214844 L 1.269531 -1.578125 L 1.511719 -1.355469 L 1.734375 -1.097656 L 2.335938 -0.722656 L 2.574219 -0.464844 L 2.902344 -0.308594 L 3.246094 -0.207031 L 3.914062 0.0351562 Z M 4.617188 0.15625 "/></g></g></g></svg>