<svg xmlns="http://www.w3.org/2000/svg" xmlns:xlink="http://www.w3.org/1999/xlink" width="300" zoomAndPan="magnify" viewBox="0 0 224.87999 74.999997" height="100" preserveAspectRatio="xMidYMid meet" version="1.0"><defs><g/><clipPath id="c38716adf1"><path d="M 0 6.726562 L 224.761719 6.726562 L 224.761719 67.484375 L 0 67.484375 Z M 0 6.726562 " clip-rule="nonzero"/></clipPath><clipPath id="24878fdf05"><path d="M 27.734375 6.726562 L 197.144531 6.726562 C 212.460938 6.726562 224.878906 19.144531 224.878906 34.464844 L 224.878906 39.75 C 224.878906 55.066406 212.460938 67.484375 197.144531 67.484375 L 27.734375 67.484375 C 12.417969 67.484375 0 55.066406 0 39.75 L 0 34.464844 C 0 19.144531 12.417969 6.726562 27.734375 6.726562 Z M 27.734375 6.726562 " clip-rule="nonzero"/></clipPath><clipPath id="bd0cffb885"><path d="M 0.00390625 6.726562 L 224.761719 6.726562 L 224.761719 67.445312 L 0.00390625 67.445312 Z M 0.00390625 6.726562 " clip-rule="nonzero"/></clipPath><clipPath id="3f69e8b4e0"><path d="M 27.738281 6.726562 L 197.140625 6.726562 C 212.457031 6.726562 224.875 19.144531 224.875 34.460938 L 224.875 39.746094 C 224.875 55.0625 212.457031 67.480469 197.140625 67.480469 L 27.738281 67.480469 C 12.421875 67.480469 0.00390625 55.0625 0.00390625 39.746094 L 0.00390625 34.460938 C 0.00390625 19.144531 12.421875 6.726562 27.738281 6.726562 Z M 27.738281 6.726562 " clip-rule="nonzero"/></clipPath></defs><g clip-path="url(#c38716adf1)"><g clip-path="url(#24878fdf05)"><path fill="#ff3d00" d="M 0 6.726562 L 224.988281 6.726562 L 224.988281 67.484375 L 0 67.484375 Z M 0 6.726562 " fill-opacity="1" fill-rule="nonzero"/></g></g><g clip-path="url(#bd0cffb885)"><g clip-path="url(#3f69e8b4e0)"><path stroke-linecap="butt" transform="matrix(0.7496, 0, 0, 0.7496, 0.00574629, 6.728153)" fill="none" stroke-linejoin="miter" d="M 36.99645 -0.00212137 L 262.986804 -0.00212137 C 283.41958 -0.00212137 299.985709 16.564008 299.985709 36.996784 L 299.985709 44.04742 C 299.985709 64.480196 283.41958 81.046325 262.986804 81.046325 L 36.99645 81.046325 C 16.563675 81.046325 -0.0024547 64.480196 -0.0024547 44.04742 L -0.0024547 36.996784 C -0.0024547 16.564008 16.563675 -0.00212137 36.99645 -0.00212137 Z M 36.99645 -0.00212137 " stroke="#d9d9d9" stroke-width="2" stroke-opacity="1" stroke-miterlimit="4"/></g></g><g fill="#000000" fill-opacity="1"><g transform="translate(14.930124, 43.407876)"><g><path d="M 2.484375 0.0546875 L 3.390625 0.0195312 L 3.726562 0.0351562 L 4.152344 0 L 4.542969 -0.148438 L 4.707031 -0.539062 L 4.6875 -0.910156 L 4.707031 -1.316406 L 4.671875 -2 L 4.707031 -2.355469 L 4.6875 -2.78125 L 4.855469 -3.113281 L 5.28125 -3.316406 L 5.691406 -3.355469 L 6.078125 -3.28125 L 7.988281 -3.429688 L 9.75 -4.132812 L 10.027344 -4.355469 L 10.285156 -4.652344 L 10.527344 -4.894531 L 10.769531 -5.171875 L 11.15625 -5.765625 L 11.472656 -6.488281 L 11.527344 -6.894531 L 11.640625 -7.191406 L 11.675781 -8.710938 L 11.601562 -9.027344 L 11.546875 -9.433594 L 11.324219 -10.121094 L 10.972656 -10.75 L 10.527344 -11.363281 L 9.695312 -12.085938 L 9.082031 -12.492188 L 8.339844 -12.714844 L 8.027344 -12.84375 L 7.65625 -12.84375 L 7.285156 -12.976562 L 6.726562 -12.992188 L 6.136719 -12.976562 L 5.726562 -12.917969 L 4.597656 -12.9375 L 4.226562 -12.992188 L 3.078125 -12.917969 L 2.667969 -12.9375 L 2.335938 -12.992188 L 1.945312 -12.917969 L 1.558594 -12.714844 L 1.390625 -12.417969 L 1.410156 -10.175781 L 1.335938 -9.433594 L 1.371094 -9.082031 L 1.351562 -4.28125 L 1.390625 -3.929688 L 1.371094 -0.5 L 1.574219 -0.148438 L 2.148438 0.0351562 Z M 5.265625 -6.285156 L 4.894531 -6.503906 L 4.726562 -6.820312 L 4.671875 -8.324219 L 4.707031 -8.710938 L 4.707031 -9.472656 L 4.894531 -9.824219 L 5.28125 -10.007812 L 7.210938 -9.953125 L 7.582031 -9.785156 L 7.878906 -9.582031 L 8.117188 -9.339844 L 8.304688 -8.972656 L 8.359375 -8.636719 L 8.394531 -8.117188 L 8.359375 -7.617188 L 8.230469 -7.285156 L 8.0625 -6.988281 L 7.820312 -6.691406 L 7.523438 -6.46875 L 7.230469 -6.375 L 6.652344 -6.300781 L 5.707031 -6.320312 Z M 5.265625 -6.285156 "/></g></g></g><g fill="#000000" fill-opacity="1"><g transform="translate(27.122877, 43.407876)"><g><path d="M 1.390625 -0.761719 L 1.574219 -0.183594 L 2.113281 0.0546875 L 2.484375 0 L 3.078125 0.0546875 L 3.375 0.0195312 L 3.929688 0.0195312 L 4.523438 -0.167969 L 4.6875 -0.703125 L 4.6875 -1.335938 L 4.726562 -1.667969 L 4.671875 -2.058594 L 4.707031 -3.242188 L 4.875 -3.613281 L 5.226562 -3.816406 L 6.300781 -3.671875 L 6.671875 -3.355469 L 6.894531 -2.984375 L 7.042969 -2.652344 L 7.433594 -2.09375 L 7.785156 -1.425781 L 7.988281 -1.148438 L 8.136719 -0.777344 L 8.339844 -0.464844 L 8.75 -0.128906 L 9.378906 0.0351562 L 10.84375 0.0195312 L 11.195312 0.0546875 L 11.808594 0.0351562 L 12.160156 -0.128906 L 12.269531 -0.539062 L 12.066406 -0.945312 L 11.84375 -1.203125 L 11.695312 -1.558594 L 11.066406 -2.503906 L 10.898438 -2.835938 L 10.304688 -3.800781 L 10.082031 -4.078125 L 10.066406 -4.523438 L 10.230469 -4.929688 L 10.492188 -5.207031 L 10.75 -5.429688 L 11.472656 -6.726562 L 11.714844 -7.804688 L 11.675781 -8.972656 L 11.621094 -9.339844 L 11.289062 -10.398438 L 11.140625 -10.714844 L 10.9375 -11.011719 L 9.878906 -12.121094 L 9.230469 -12.472656 L 8.527344 -12.714844 L 7.46875 -12.957031 L 6.875 -12.976562 L 6.339844 -12.9375 L 5.226562 -12.9375 L 4.855469 -13.011719 L 4.484375 -13.011719 L 4.152344 -12.917969 L 3.78125 -12.917969 L 3.410156 -12.992188 L 3.003906 -13.011719 L 1.910156 -12.917969 L 1.574219 -12.734375 L 1.351562 -12.214844 L 1.371094 -7.96875 L 1.410156 -7.597656 L 1.351562 -6.859375 L 1.371094 -6.449219 L 1.371094 -6.078125 L 1.410156 -5.726562 L 1.371094 -5.375 L 1.351562 -3.875 L 1.390625 -3.503906 Z M 5.226562 -6.785156 L 4.855469 -6.988281 L 4.707031 -7.285156 L 4.707031 -8.394531 L 4.671875 -8.710938 L 4.707031 -9.488281 L 4.875 -9.84375 L 5.265625 -9.992188 L 5.632812 -9.972656 L 6.375 -10.046875 L 6.894531 -9.933594 L 7.378906 -9.898438 L 7.730469 -9.804688 L 8.191406 -9.230469 L 8.304688 -8.933594 L 8.378906 -8.453125 L 8.324219 -7.894531 L 8.15625 -7.523438 L 7.953125 -7.246094 L 7.746094 -7.082031 L 7.414062 -6.933594 L 6.875 -6.800781 L 6.523438 -6.785156 L 5.632812 -6.820312 Z M 5.226562 -6.785156 "/></g></g></g><g fill="#000000" fill-opacity="1"><g transform="translate(39.982707, 43.407876)"><g><path d="M 7.023438 -14.660156 L 7.414062 -14.605469 L 7.582031 -14.625 L 8.0625 -14.660156 L 8.453125 -14.792969 L 8.636719 -14.957031 L 8.75 -15.144531 L 9.953125 -16.496094 L 10.101562 -16.609375 L 10.230469 -16.960938 L 10.007812 -17.183594 L 9.136719 -17.480469 L 8.933594 -17.496094 L 7.636719 -17.980469 L 7.339844 -17.847656 L 6.597656 -16.179688 L 6.46875 -15.996094 L 6.414062 -15.773438 L 6.285156 -15.550781 L 6.226562 -15.328125 L 6.117188 -15.125 L 6.003906 -14.753906 L 6.46875 -14.625 L 6.691406 -14.625 Z M 7.433594 0.242188 L 9.082031 0.0742188 L 9.785156 -0.148438 L 11.4375 -0.890625 L 12.734375 -2.132812 L 12.976562 -2.464844 L 13.699219 -3.742188 L 13.828125 -4.097656 L 13.882812 -4.46875 L 13.992188 -4.761719 L 14.066406 -5.171875 L 14.160156 -6.46875 L 14.066406 -7.746094 L 13.917969 -8.433594 L 13.773438 -8.824219 L 13.679688 -9.25 L 13.34375 -9.859375 L 13.214844 -10.195312 L 12.976562 -10.507812 L 12.753906 -10.730469 L 12.511719 -11.066406 L 11.714844 -11.789062 L 10.769531 -12.382812 L 8.339844 -13.140625 L 7.46875 -13.160156 L 6.171875 -13.085938 L 5.800781 -13.011719 L 5.429688 -12.902344 L 5.097656 -12.753906 L 4.394531 -12.566406 L 3.449219 -11.972656 L 3.1875 -11.75 L 2.59375 -11.34375 L 2.09375 -10.789062 L 1.464844 -9.859375 L 1.296875 -9.546875 L 0.945312 -8.527344 L 0.796875 -7.730469 L 0.722656 -5.578125 L 0.925781 -4.410156 L 1.203125 -3.78125 L 1.316406 -3.390625 L 1.5 -3.058594 L 2.371094 -1.871094 L 2.890625 -1.371094 L 3.132812 -1.09375 L 4.394531 -0.425781 L 4.746094 -0.277344 L 6.320312 0.183594 Z M 6.914062 -3.019531 L 6.542969 -3.152344 L 6.210938 -3.1875 L 5.578125 -3.523438 L 5.003906 -4.023438 L 4.820312 -4.28125 L 4.578125 -4.542969 L 4.226562 -5.578125 L 4.132812 -6.503906 L 4.152344 -7.0625 L 4.28125 -7.746094 L 4.394531 -8.082031 L 4.617188 -8.339844 L 4.78125 -8.65625 L 5.023438 -8.953125 L 5.300781 -9.195312 L 5.839844 -9.5625 L 6.171875 -9.730469 L 6.5625 -9.824219 L 7.414062 -9.898438 L 8.304688 -9.84375 L 9.285156 -9.414062 L 9.859375 -8.988281 L 10.285156 -8.359375 L 10.433594 -8.027344 L 10.546875 -7.65625 L 10.675781 -7.320312 L 10.75 -6.523438 L 10.640625 -5.597656 L 10.472656 -4.835938 L 10.269531 -4.558594 L 10.101562 -4.28125 L 9.878906 -3.949219 L 9.304688 -3.503906 L 8.972656 -3.355469 L 8.675781 -3.1875 L 8.339844 -3.152344 L 7.988281 -3.058594 Z M 6.914062 -3.019531 "/></g></g></g><g fill="#000000" fill-opacity="1"><g transform="translate(54.84378, 43.407876)"><g><path d="M 0.242188 -0.464844 L 0.296875 -0.09375 L 0.628906 0.0351562 L 2.578125 0.0195312 L 3.132812 -0.0351562 L 3.558594 -0.167969 L 3.964844 -0.464844 L 4.113281 -0.761719 L 4.320312 -1.039062 L 4.484375 -1.410156 L 5.023438 -2.316406 L 5.191406 -2.667969 L 5.429688 -2.910156 L 5.78125 -3.613281 L 5.988281 -3.890625 L 6.210938 -3.875 L 6.433594 -3.597656 L 8.285156 -0.480469 L 8.636719 -0.128906 L 9.082031 0.0742188 L 11.214844 -0.0351562 L 11.585938 0.0195312 L 11.957031 -0.0742188 L 12.011719 -0.5 L 11.789062 -0.964844 L 11.378906 -1.558594 L 11.214844 -1.871094 L 10.566406 -2.761719 L 10.433594 -3.003906 L 10.195312 -3.335938 L 9.84375 -3.984375 L 9.285156 -4.707031 L 8.433594 -6.136719 L 8.210938 -6.414062 L 8.101562 -6.875 L 8.191406 -7.320312 L 8.453125 -7.65625 L 8.824219 -8.230469 L 9.007812 -8.582031 L 10.324219 -10.453125 L 10.492188 -10.789062 L 11.566406 -12.457031 L 11.472656 -12.84375 L 11.066406 -12.976562 L 10.472656 -12.9375 L 9.136719 -12.992188 L 8.785156 -12.957031 L 8.339844 -12.789062 L 7.914062 -12.511719 L 7.765625 -12.160156 L 7.15625 -11.304688 L 7.023438 -10.9375 L 6.191406 -9.769531 L 5.929688 -9.710938 L 5.746094 -10.007812 L 5.5625 -10.378906 L 5.355469 -10.621094 L 5.226562 -10.953125 L 4.28125 -12.472656 L 3.890625 -12.789062 L 3.449219 -12.992188 L 3.039062 -12.9375 L 2.667969 -12.9375 L 2.242188 -12.992188 L 1.667969 -12.917969 L 1.113281 -12.9375 L 0.6875 -12.828125 L 0.648438 -12.417969 L 0.835938 -12.011719 L 1.296875 -11.398438 L 1.59375 -10.863281 L 2.113281 -10.140625 L 2.503906 -9.472656 L 2.726562 -9.195312 L 2.929688 -8.839844 L 3.152344 -8.5625 L 3.523438 -7.933594 L 3.78125 -7.597656 L 3.949219 -7.320312 L 4.058594 -6.820312 L 3.984375 -6.414062 L 3.558594 -5.800781 L 3.1875 -5.132812 L 3.003906 -4.910156 L 2.816406 -4.578125 L 2.578125 -4.335938 L 2.207031 -3.671875 L 1.984375 -3.390625 L 1.390625 -2.410156 L 0.980469 -1.855469 L 0.796875 -1.5 L 0.59375 -1.242188 L 0.40625 -0.890625 Z M 0.242188 -0.464844 "/></g></g></g><g fill="#000000" fill-opacity="1"><g transform="translate(67.129181, 43.407876)"><g><path d="M 6.210938 0.0742188 L 6.949219 0.0351562 L 7.285156 -0.148438 L 7.46875 -0.5 L 7.46875 -2.335938 L 7.246094 -2.6875 L 6.839844 -2.890625 L 6.449219 -2.890625 L 6.003906 -3.039062 L 5.78125 -3.464844 L 5.839844 -3.816406 L 5.820312 -5.855469 L 5.855469 -6.265625 L 5.78125 -7.597656 L 5.855469 -9.472656 L 5.988281 -9.898438 L 6.394531 -10.066406 L 6.765625 -10.121094 L 7.15625 -10.269531 L 7.339844 -10.566406 L 7.359375 -12.398438 L 7.136719 -12.753906 L 6.800781 -12.957031 L 4.558594 -12.957031 L 4.226562 -12.992188 L 3.855469 -12.917969 L 2.335938 -12.917969 L 1.984375 -12.976562 L 1.558594 -12.976562 L 1.1875 -12.789062 L 1 -12.34375 L 1.054688 -10.972656 L 1.019531 -10.621094 L 1.222656 -10.25 L 1.632812 -10.046875 L 2 -10.046875 L 2.355469 -9.824219 L 2.519531 -9.324219 L 2.578125 -3.632812 L 2.371094 -3.078125 L 1.148438 -2.707031 L 0.945312 -2.371094 L 0.890625 -0.667969 L 1.074219 -0.167969 L 1.445312 0 L 1.796875 0 L 2.148438 -0.0351562 L 2.6875 0.0351562 L 3.261719 0.0195312 L 3.632812 -0.0195312 L 4.375 0.0546875 L 4.929688 -0.0195312 L 5.839844 -0.0195312 Z M 6.210938 0.0742188 "/></g></g></g><g fill="#000000" fill-opacity="1"><g transform="translate(75.541811, 43.407876)"><g><path d="M 1.925781 0.0546875 L 2.296875 0 L 3.019531 0.0351562 L 3.429688 -0.0195312 L 4.023438 0.0195312 L 4.542969 -0.203125 L 4.761719 -0.539062 L 4.707031 -2.484375 L 4.761719 -3.058594 L 4.746094 -3.449219 L 4.78125 -4.113281 L 4.746094 -4.523438 L 4.746094 -5.246094 L 4.910156 -5.414062 L 5.097656 -5.339844 L 5.394531 -5.097656 L 5.617188 -4.820312 L 6.375 -4.058594 L 6.617188 -3.761719 L 7.117188 -3.28125 L 7.507812 -3.003906 L 7.914062 -2.984375 L 8.285156 -3.261719 L 8.542969 -3.539062 L 8.765625 -3.761719 L 9.285156 -4.375 L 9.546875 -4.558594 L 10.304688 -5.339844 L 10.546875 -5.449219 L 10.695312 -5.171875 L 10.65625 -4.152344 L 10.714844 -3.410156 L 10.675781 -2.6875 L 10.714844 -2 L 10.675781 -1.667969 L 10.714844 -0.835938 L 10.714844 -0.554688 L 10.863281 -0.128906 L 11.25 -0.0195312 L 13.492188 0.0546875 L 13.882812 -0.148438 L 14.105469 -0.6875 L 14.050781 -1.648438 L 14.085938 -2.019531 L 14.050781 -7.582031 L 14.085938 -7.988281 L 14.066406 -9.824219 L 14.085938 -10.175781 L 14.050781 -10.972656 L 14.066406 -11.289062 L 14.050781 -12.046875 L 14.085938 -12.398438 L 13.863281 -12.789062 L 13.476562 -12.992188 L 12.9375 -12.828125 L 12.546875 -12.585938 L 11.769531 -11.769531 L 11.527344 -11.472656 L 11.304688 -11.269531 L 11.046875 -10.9375 L 9.414062 -9.269531 L 9.175781 -8.953125 L 8.042969 -7.804688 L 7.710938 -7.582031 L 7.320312 -7.730469 L 7.097656 -8.042969 L 6.839844 -8.304688 L 6.503906 -8.730469 L 6.097656 -9.101562 L 4.410156 -10.972656 L 4.152344 -11.195312 L 3.671875 -11.769531 L 3.375 -12.03125 L 2.890625 -12.53125 L 2.464844 -12.84375 L 1.945312 -12.992188 L 1.539062 -12.808594 L 1.335938 -12.417969 L 1.390625 -11.289062 L 1.335938 -10.566406 L 1.371094 -10.230469 L 1.351562 -7.265625 L 1.390625 -6.894531 L 1.335938 -5.023438 L 1.371094 -4.671875 L 1.351562 -0.574219 L 1.558594 -0.183594 Z M 1.925781 0.0546875 "/></g></g></g><g fill="#000000" fill-opacity="1"><g transform="translate(91.032905, 43.407876)"><g><path d="M 10.9375 0.0351562 L 11.640625 -0.0195312 L 11.992188 0.0195312 L 12.566406 0 L 13.085938 -0.09375 L 13.140625 -0.539062 L 13.011719 -0.964844 L 12.734375 -1.648438 L 12.234375 -2.613281 L 11.972656 -3.300781 L 11.601562 -3.964844 L 10.898438 -5.652344 L 10.714844 -5.929688 L 10.527344 -6.285156 L 10.417969 -6.691406 L 10.25 -6.96875 L 10.140625 -7.265625 L 9.75 -7.953125 L 9.621094 -8.339844 L 8.394531 -10.917969 L 8.285156 -11.289062 L 8.082031 -11.621094 L 7.96875 -11.957031 L 7.617188 -12.605469 L 7.304688 -12.9375 L 6.691406 -13.121094 L 6.097656 -12.917969 L 5.765625 -12.605469 L 5.597656 -12.289062 L 5.46875 -11.917969 L 5.300781 -11.660156 L 4.558594 -9.953125 L 4.355469 -9.675781 L 4.261719 -9.304688 L 4.058594 -8.953125 L 3.949219 -8.617188 L 2.058594 -4.652344 L 1.945312 -4.246094 L 1.761719 -3.964844 L 1.632812 -3.597656 L 1.296875 -3.003906 L 1.019531 -2.261719 L 0.816406 -2 L 0.722656 -1.667969 L 0.351562 -0.925781 L 0.242188 -0.554688 L 0.332031 -0.09375 L 0.703125 0.0195312 L 1.425781 -0.0195312 L 1.796875 0.0195312 L 2.835938 -0.0195312 L 3.261719 -0.148438 L 3.613281 -0.480469 L 3.949219 -1.09375 L 4.300781 -1.445312 L 4.6875 -1.648438 L 5.042969 -1.59375 L 5.820312 -1.667969 L 6.152344 -1.613281 L 7.96875 -1.632812 L 8.304688 -1.59375 L 8.710938 -1.648438 L 9.121094 -1.445312 L 9.472656 -1.148438 L 9.636719 -0.796875 L 9.75 -0.464844 L 10.121094 -0.183594 L 10.546875 0 Z M 6.726562 -4.578125 L 6.359375 -4.652344 L 5.929688 -4.617188 L 5.632812 -4.746094 L 5.617188 -5.097656 L 6.488281 -7.097656 L 6.691406 -7.265625 L 6.949219 -7.117188 L 7.820312 -5.078125 L 7.746094 -4.746094 L 7.46875 -4.597656 Z M 6.726562 -4.578125 "/></g></g></g><g fill="#000000" fill-opacity="1"><g transform="translate(104.485699, 43.407876)"><g/></g></g><g fill="#000000" fill-opacity="1"><g transform="translate(109.507333, 43.407876)"><g><path d="M 2.484375 0.0546875 L 3.390625 0.0195312 L 3.726562 0.0351562 L 4.152344 0 L 4.542969 -0.148438 L 4.707031 -0.539062 L 4.6875 -0.910156 L 4.707031 -1.316406 L 4.671875 -2 L 4.707031 -2.355469 L 4.6875 -2.78125 L 4.855469 -3.113281 L 5.28125 -3.316406 L 5.691406 -3.355469 L 6.078125 -3.28125 L 7.988281 -3.429688 L 9.75 -4.132812 L 10.027344 -4.355469 L 10.285156 -4.652344 L 10.527344 -4.894531 L 10.769531 -5.171875 L 11.15625 -5.765625 L 11.472656 -6.488281 L 11.527344 -6.894531 L 11.640625 -7.191406 L 11.675781 -8.710938 L 11.601562 -9.027344 L 11.546875 -9.433594 L 11.324219 -10.121094 L 10.972656 -10.75 L 10.527344 -11.363281 L 9.695312 -12.085938 L 9.082031 -12.492188 L 8.339844 -12.714844 L 8.027344 -12.84375 L 7.65625 -12.84375 L 7.285156 -12.976562 L 6.726562 -12.992188 L 6.136719 -12.976562 L 5.726562 -12.917969 L 4.597656 -12.9375 L 4.226562 -12.992188 L 3.078125 -12.917969 L 2.667969 -12.9375 L 2.335938 -12.992188 L 1.945312 -12.917969 L 1.558594 -12.714844 L 1.390625 -12.417969 L 1.410156 -10.175781 L 1.335938 -9.433594 L 1.371094 -9.082031 L 1.351562 -4.28125 L 1.390625 -3.929688 L 1.371094 -0.5 L 1.574219 -0.148438 L 2.148438 0.0351562 Z M 5.265625 -6.285156 L 4.894531 -6.503906 L 4.726562 -6.820312 L 4.671875 -8.324219 L 4.707031 -8.710938 L 4.707031 -9.472656 L 4.894531 -9.824219 L 5.28125 -10.007812 L 7.210938 -9.953125 L 7.582031 -9.785156 L 7.878906 -9.582031 L 8.117188 -9.339844 L 8.304688 -8.972656 L 8.359375 -8.636719 L 8.394531 -8.117188 L 8.359375 -7.617188 L 8.230469 -7.285156 L 8.0625 -6.988281 L 7.820312 -6.691406 L 7.523438 -6.46875 L 7.230469 -6.375 L 6.652344 -6.300781 L 5.707031 -6.320312 Z M 5.265625 -6.285156 "/></g></g></g><g fill="#000000" fill-opacity="1"><g transform="translate(121.70008, 43.407876)"><g><path d="M 6.449219 0.0546875 L 9.101562 0.0195312 L 9.488281 -0.148438 L 9.695312 -0.539062 L 9.695312 -2.410156 L 9.488281 -2.78125 L 9.101562 -2.945312 L 8.675781 -2.910156 L 8.324219 -2.964844 L 7.378906 -2.984375 L 6.765625 -2.910156 L 6.394531 -2.945312 L 5.988281 -2.929688 L 5.632812 -2.984375 L 5.226562 -2.945312 L 4.835938 -3.132812 L 4.6875 -3.464844 L 4.6875 -4.632812 L 4.855469 -5.023438 L 5.191406 -5.226562 L 5.746094 -5.246094 L 6.339844 -5.191406 L 7.042969 -5.226562 L 7.804688 -5.207031 L 8.175781 -5.246094 L 8.601562 -5.226562 L 8.972656 -5.375 L 9.101562 -5.746094 L 9.15625 -7.414062 L 8.972656 -7.933594 L 8.542969 -8.175781 L 7.449219 -8.175781 L 7.0625 -8.136719 L 6.285156 -8.191406 L 5.207031 -8.15625 L 4.820312 -8.324219 L 4.671875 -8.898438 L 4.671875 -9.472656 L 4.835938 -9.824219 L 5.246094 -9.972656 L 5.597656 -9.953125 L 5.949219 -10.027344 L 8.601562 -9.992188 L 8.953125 -10.007812 L 9.339844 -10.230469 L 9.527344 -10.566406 L 9.507812 -10.9375 L 9.527344 -11.304688 L 9.488281 -12.417969 L 9.324219 -12.769531 L 8.953125 -12.917969 L 8.5625 -12.917969 L 8.230469 -12.992188 L 6.726562 -12.976562 L 6.320312 -12.9375 L 5.949219 -12.976562 L 5.632812 -12.957031 L 5.265625 -12.992188 L 3.742188 -12.957031 L 3.375 -13.011719 L 3.019531 -12.9375 L 2.6875 -12.976562 L 2.316406 -12.9375 L 1.945312 -12.957031 L 1.558594 -12.808594 L 1.351562 -12.417969 L 1.390625 -11.714844 L 1.335938 -10.953125 L 1.390625 -10.546875 L 1.351562 -8.730469 L 1.410156 -8.339844 L 1.371094 -7.988281 L 1.351562 -6.46875 L 1.410156 -6.136719 L 1.390625 -3.132812 L 1.351562 -2.78125 L 1.410156 -2.410156 L 1.351562 -1.128906 L 1.390625 -0.722656 L 1.539062 -0.222656 L 2.09375 0.0195312 L 3.429688 0.0351562 L 3.835938 0 L 4.171875 0.0195312 L 4.929688 -0.0351562 L 5.28125 0.0351562 L 5.707031 0.0546875 L 6.078125 0.0195312 Z M 6.449219 0.0546875 "/></g></g></g><g fill="#000000" fill-opacity="1"><g transform="translate(132.317785, 43.407876)"><g><path d="M 1.390625 -0.761719 L 1.574219 -0.183594 L 2.113281 0.0546875 L 2.484375 0 L 3.078125 0.0546875 L 3.375 0.0195312 L 3.929688 0.0195312 L 4.523438 -0.167969 L 4.6875 -0.703125 L 4.6875 -1.335938 L 4.726562 -1.667969 L 4.671875 -2.058594 L 4.707031 -3.242188 L 4.875 -3.613281 L 5.226562 -3.816406 L 6.300781 -3.671875 L 6.671875 -3.355469 L 6.894531 -2.984375 L 7.042969 -2.652344 L 7.433594 -2.09375 L 7.785156 -1.425781 L 7.988281 -1.148438 L 8.136719 -0.777344 L 8.339844 -0.464844 L 8.75 -0.128906 L 9.378906 0.0351562 L 10.84375 0.0195312 L 11.195312 0.0546875 L 11.808594 0.0351562 L 12.160156 -0.128906 L 12.269531 -0.539062 L 12.066406 -0.945312 L 11.84375 -1.203125 L 11.695312 -1.558594 L 11.066406 -2.503906 L 10.898438 -2.835938 L 10.304688 -3.800781 L 10.082031 -4.078125 L 10.066406 -4.523438 L 10.230469 -4.929688 L 10.492188 -5.207031 L 10.75 -5.429688 L 11.472656 -6.726562 L 11.714844 -7.804688 L 11.675781 -8.972656 L 11.621094 -9.339844 L 11.289062 -10.398438 L 11.140625 -10.714844 L 10.9375 -11.011719 L 9.878906 -12.121094 L 9.230469 -12.472656 L 8.527344 -12.714844 L 7.46875 -12.957031 L 6.875 -12.976562 L 6.339844 -12.9375 L 5.226562 -12.9375 L 4.855469 -13.011719 L 4.484375 -13.011719 L 4.152344 -12.917969 L 3.78125 -12.917969 L 3.410156 -12.992188 L 3.003906 -13.011719 L 1.910156 -12.917969 L 1.574219 -12.734375 L 1.351562 -12.214844 L 1.371094 -7.96875 L 1.410156 -7.597656 L 1.351562 -6.859375 L 1.371094 -6.449219 L 1.371094 -6.078125 L 1.410156 -5.726562 L 1.371094 -5.375 L 1.351562 -3.875 L 1.390625 -3.503906 Z M 5.226562 -6.785156 L 4.855469 -6.988281 L 4.707031 -7.285156 L 4.707031 -8.394531 L 4.671875 -8.710938 L 4.707031 -9.488281 L 4.875 -9.84375 L 5.265625 -9.992188 L 5.632812 -9.972656 L 6.375 -10.046875 L 6.894531 -9.933594 L 7.378906 -9.898438 L 7.730469 -9.804688 L 8.191406 -9.230469 L 8.304688 -8.933594 L 8.378906 -8.453125 L 8.324219 -7.894531 L 8.15625 -7.523438 L 7.953125 -7.246094 L 7.746094 -7.082031 L 7.414062 -6.933594 L 6.875 -6.800781 L 6.523438 -6.785156 L 5.632812 -6.820312 Z M 5.226562 -6.785156 "/></g></g></g><g fill="#000000" fill-opacity="1"><g transform="translate(145.177614, 43.407876)"><g><path d="M 6.433594 0.183594 L 8.285156 0.183594 L 9.675781 -0.148438 L 10.992188 -0.816406 L 11.566406 -1.261719 L 11.84375 -1.558594 L 12.121094 -1.78125 L 12.34375 -2.039062 L 12.53125 -2.355469 L 12.695312 -2.6875 L 12.917969 -2.945312 L 13.289062 -4.039062 L 13.4375 -4.746094 L 13.457031 -5.058594 L 13.53125 -5.394531 L 13.53125 -5.765625 L 13.566406 -6.117188 L 13.53125 -6.820312 L 13.34375 -7.136719 L 12.992188 -7.320312 L 12.605469 -7.339844 L 12.214844 -7.394531 L 9.710938 -7.339844 L 8.601562 -7.414062 L 7.894531 -7.359375 L 7.523438 -7.171875 L 7.359375 -6.820312 L 7.359375 -5.058594 L 7.523438 -4.761719 L 7.859375 -4.558594 L 8.394531 -4.523438 L 9.324219 -4.597656 L 9.65625 -4.542969 L 9.933594 -4.410156 L 9.992188 -4.097656 L 9.804688 -3.78125 L 9.527344 -3.464844 L 9.269531 -3.261719 L 8.65625 -3.019531 L 7.933594 -2.855469 L 7.449219 -2.835938 L 6.503906 -2.945312 L 5.503906 -3.355469 L 4.949219 -3.875 L 4.746094 -4.132812 L 4.394531 -4.800781 L 4.246094 -5.339844 L 4.152344 -5.929688 L 4.132812 -7.007812 L 4.261719 -7.730469 L 4.558594 -8.394531 L 5.132812 -9.269531 L 5.78125 -9.730469 L 6.097656 -9.898438 L 6.449219 -9.933594 L 6.765625 -10.082031 L 7.894531 -10.121094 L 8.582031 -9.933594 L 8.933594 -9.785156 L 9.285156 -9.546875 L 9.507812 -9.304688 L 9.75 -8.988281 L 10.140625 -8.675781 L 10.582031 -8.542969 L 11.15625 -8.527344 L 11.714844 -8.601562 L 12.605469 -8.542969 L 13.066406 -8.75 L 13.179688 -9.0625 L 12.917969 -9.824219 L 12.753906 -10.15625 L 12.011719 -11.230469 L 11.601562 -11.566406 L 11.304688 -11.84375 L 11.027344 -12.066406 L 9.730469 -12.753906 L 9.339844 -12.828125 L 8.46875 -13.066406 L 6.746094 -13.140625 L 6.375 -13.121094 L 6.0625 -13.011719 L 5.707031 -12.992188 L 4.28125 -12.472656 L 3.261719 -11.84375 L 2.445312 -11.121094 L 2.207031 -10.824219 L 1.925781 -10.546875 L 1.722656 -10.269531 L 1.039062 -8.878906 L 0.703125 -7.042969 L 0.6875 -6.449219 L 0.777344 -5.152344 L 1.296875 -3.410156 L 1.632812 -2.78125 L 2.058594 -2.148438 L 2.796875 -1.371094 L 3.410156 -0.945312 L 4.6875 -0.203125 L 5.003906 -0.109375 L 6.0625 0.0742188 Z M 6.433594 0.183594 "/></g></g></g><g fill="#000000" fill-opacity="1"><g transform="translate(159.371611, 43.407876)"><g><path d="M 6.375 0.242188 L 6.933594 0.183594 L 7.285156 0.203125 L 8.730469 -0.167969 L 9.398438 -0.519531 L 10.007812 -0.925781 L 10.527344 -1.445312 L 10.953125 -2.09375 L 11.066406 -2.464844 L 11.25 -2.78125 L 11.417969 -3.558594 L 11.511719 -4.449219 L 11.511719 -9.453125 L 11.472656 -9.804688 L 11.511719 -10.210938 L 11.472656 -10.507812 L 11.472656 -12.046875 L 11.527344 -12.417969 L 11.289062 -12.808594 L 10.878906 -12.9375 L 9.710938 -12.902344 L 8.933594 -12.957031 L 8.542969 -12.769531 L 8.339844 -12.363281 L 8.378906 -5.058594 L 8.25 -3.910156 L 8.136719 -3.632812 L 7.933594 -3.261719 L 7.617188 -3.039062 L 6.96875 -2.796875 L 5.855469 -2.796875 L 5.429688 -2.890625 L 5.117188 -3.078125 L 4.820312 -3.300781 L 4.597656 -3.597656 L 4.484375 -3.949219 L 4.375 -5.023438 L 4.429688 -10.992188 L 4.394531 -11.269531 L 4.429688 -11.863281 L 4.394531 -12.398438 L 4.171875 -12.808594 L 3.78125 -12.976562 L 3.429688 -12.976562 L 3.058594 -12.917969 L 2.261719 -12.992188 L 1.871094 -12.9375 L 1.484375 -12.789062 L 1.242188 -12.4375 L 1.277344 -12.066406 L 1.277344 -11.621094 L 1.242188 -11.324219 L 1.296875 -8.730469 L 1.242188 -8.359375 L 1.277344 -8.007812 L 1.222656 -5.023438 L 1.335938 -3.539062 L 1.519531 -2.78125 L 1.816406 -2.148438 L 2.242188 -1.484375 L 2.464844 -1.222656 L 2.742188 -0.980469 L 3.335938 -0.59375 L 3.707031 -0.425781 L 3.984375 -0.257812 L 4.6875 0.0546875 L 5.414062 0.203125 L 5.78125 0.203125 Z M 6.375 0.242188 "/></g></g></g><g fill="#000000" fill-opacity="1"><g transform="translate(172.157315, 43.407876)"><g><path d="M 10.9375 -0.316406 L 11.4375 -0.0195312 L 11.957031 0.0351562 L 12.363281 -0.09375 L 12.546875 -0.464844 L 12.585938 -7.230469 L 12.53125 -7.542969 L 12.53125 -9.378906 L 12.585938 -9.824219 L 12.53125 -12.398438 L 12.34375 -12.769531 L 11.972656 -12.976562 L 9.675781 -12.957031 L 9.324219 -12.753906 L 9.121094 -12.363281 L 9.101562 -11.972656 L 9.15625 -11.675781 L 9.101562 -10.898438 L 9.136719 -10.492188 L 9.101562 -7.171875 L 8.988281 -6.859375 L 8.710938 -6.988281 L 7.394531 -8.304688 L 6.875 -8.710938 L 3.226562 -12.398438 L 2.945312 -12.621094 L 2.519531 -12.84375 L 1.964844 -12.976562 L 1.539062 -12.789062 L 1.371094 -12.4375 L 1.371094 -6.820312 L 1.351562 -6.503906 L 1.390625 -5.746094 L 1.335938 -5.429688 L 1.371094 -2.390625 L 1.335938 -2.039062 L 1.371094 -0.480469 L 1.539062 -0.128906 L 1.925781 0 L 2.6875 0.0351562 L 3.09375 0 L 3.816406 0.0546875 L 4.207031 0.0351562 L 4.578125 -0.148438 L 4.761719 -0.722656 L 4.78125 -5.414062 L 4.820312 -5.78125 L 4.949219 -6.097656 L 5.191406 -6.003906 L 5.429688 -5.691406 L 6.746094 -4.429688 L 6.988281 -4.152344 L 7.304688 -3.949219 L 10.175781 -1.09375 L 10.65625 -0.554688 Z M 10.9375 -0.316406 "/></g></g></g><g fill="#000000" fill-opacity="1"><g transform="translate(186.128946, 43.407876)"><g><path d="M 4.835938 0.0351562 L 6.078125 0 L 6.617188 -0.183594 L 6.800781 -0.703125 L 6.859375 -1.667969 L 6.800781 -2.371094 L 6.839844 -2.761719 L 6.820312 -3.503906 L 6.859375 -3.835938 L 6.800781 -4.246094 L 6.839844 -7.230469 L 6.785156 -7.617188 L 6.839844 -9.230469 L 6.988281 -9.785156 L 7.339844 -10.007812 L 8.0625 -10.046875 L 8.75 -9.953125 L 9.136719 -10.007812 L 9.472656 -9.992188 L 9.785156 -10.195312 L 10.007812 -10.601562 L 10.027344 -12.363281 L 9.824219 -12.734375 L 9.472656 -12.976562 L 8.324219 -12.976562 L 7.96875 -13.011719 L 7.582031 -12.957031 L 7.230469 -12.992188 L 5.726562 -12.917969 L 5.355469 -12.992188 L 5.003906 -13.011719 L 4.617188 -12.957031 L 4.207031 -12.992188 L 3.875 -12.917969 L 2.78125 -12.976562 L 2.207031 -12.917969 L 0.910156 -12.992188 L 0.554688 -12.808594 L 0.332031 -12.382812 L 0.351562 -12.011719 L 0.316406 -11.085938 L 0.351562 -10.507812 L 0.519531 -10.175781 L 0.851562 -9.992188 L 1.222656 -10.027344 L 2.984375 -9.992188 L 3.335938 -9.804688 L 3.539062 -9.433594 L 3.503906 -8.839844 L 3.539062 -8.324219 L 3.523438 -7.914062 L 3.539062 -7.542969 L 3.503906 -7.023438 L 3.558594 -4.261719 L 3.523438 -3.890625 L 3.503906 -2.390625 L 3.539062 -2 L 3.523438 -0.925781 L 3.484375 -0.574219 L 3.726562 -0.167969 L 4.261719 0.0195312 Z M 4.835938 0.0351562 "/></g></g></g><g fill="#000000" fill-opacity="1"><g transform="translate(196.487228, 43.407876)"><g><path d="M 10.9375 0.0351562 L 11.640625 -0.0195312 L 11.992188 0.0195312 L 12.566406 0 L 13.085938 -0.09375 L 13.140625 -0.539062 L 13.011719 -0.964844 L 12.734375 -1.648438 L 12.234375 -2.613281 L 11.972656 -3.300781 L 11.601562 -3.964844 L 10.898438 -5.652344 L 10.714844 -5.929688 L 10.527344 -6.285156 L 10.417969 -6.691406 L 10.25 -6.96875 L 10.140625 -7.265625 L 9.75 -7.953125 L 9.621094 -8.339844 L 8.394531 -10.917969 L 8.285156 -11.289062 L 8.082031 -11.621094 L 7.96875 -11.957031 L 7.617188 -12.605469 L 7.304688 -12.9375 L 6.691406 -13.121094 L 6.097656 -12.917969 L 5.765625 -12.605469 L 5.597656 -12.289062 L 5.46875 -11.917969 L 5.300781 -11.660156 L 4.558594 -9.953125 L 4.355469 -9.675781 L 4.261719 -9.304688 L 4.058594 -8.953125 L 3.949219 -8.617188 L 2.058594 -4.652344 L 1.945312 -4.246094 L 1.761719 -3.964844 L 1.632812 -3.597656 L 1.296875 -3.003906 L 1.019531 -2.261719 L 0.816406 -2 L 0.722656 -1.667969 L 0.351562 -0.925781 L 0.242188 -0.554688 L 0.332031 -0.09375 L 0.703125 0.0195312 L 1.425781 -0.0195312 L 1.796875 0.0195312 L 2.835938 -0.0195312 L 3.261719 -0.148438 L 3.613281 -0.480469 L 3.949219 -1.09375 L 4.300781 -1.445312 L 4.6875 -1.648438 L 5.042969 -1.59375 L 5.820312 -1.667969 L 6.152344 -1.613281 L 7.96875 -1.632812 L 8.304688 -1.59375 L 8.710938 -1.648438 L 9.121094 -1.445312 L 9.472656 -1.148438 L 9.636719 -0.796875 L 9.75 -0.464844 L 10.121094 -0.183594 L 10.546875 0 Z M 6.726562 -4.578125 L 6.359375 -4.652344 L 5.929688 -4.617188 L 5.632812 -4.746094 L 5.617188 -5.097656 L 6.488281 -7.097656 L 6.691406 -7.265625 L 6.949219 -7.117188 L 7.820312 -5.078125 L 7.746094 -4.746094 L 7.46875 -4.597656 Z M 6.726562 -4.578125 "/></g></g></g></svg>