<svg xmlns="http://www.w3.org/2000/svg" xmlns:xlink="http://www.w3.org/1999/xlink" width="300" zoomAndPan="magnify" viewBox="0 0 224.87999 74.999997" height="100" preserveAspectRatio="xMidYMid meet" version="1.0"><defs><g/><clipPath id="195383e913"><path d="M 0 0.0195312 L 224.761719 0.0195312 L 224.761719 66.695312 L 0 66.695312 Z M 0 0.0195312 " clip-rule="nonzero"/></clipPath><clipPath id="0af17fe124"><path d="M 33.339844 0.0195312 L 191.542969 0.0195312 C 200.382812 0.0195312 208.863281 3.53125 215.117188 9.785156 C 221.367188 16.035156 224.878906 24.515625 224.878906 33.359375 C 224.878906 42.199219 221.367188 50.679688 215.117188 56.933594 C 208.863281 63.183594 200.382812 66.695312 191.542969 66.695312 L 33.339844 66.695312 C 24.496094 66.695312 16.015625 63.183594 9.765625 56.933594 C 3.511719 50.679688 0 42.199219 0 33.359375 C 0 24.515625 3.511719 16.035156 9.765625 9.785156 C 16.015625 3.53125 24.496094 0.0195312 33.339844 0.0195312 Z M 33.339844 0.0195312 " clip-rule="nonzero"/></clipPath><clipPath id="4c1ee99e75"><path d="M 0.015625 0.0195312 L 224.761719 0.0195312 L 224.761719 66.734375 L 0.015625 66.734375 Z M 0.015625 0.0195312 " clip-rule="nonzero"/></clipPath><clipPath id="20d070c8c0"><path d="M 33.347656 0.0195312 L 191.53125 0.0195312 C 200.371094 0.0195312 208.851562 3.53125 215.101562 9.785156 C 221.351562 16.035156 224.863281 24.511719 224.863281 33.355469 C 224.863281 42.195312 221.351562 50.671875 215.101562 56.925781 C 208.851562 63.175781 200.371094 66.6875 191.53125 66.6875 L 33.347656 66.6875 C 24.507812 66.6875 16.03125 63.175781 9.777344 56.925781 C 3.527344 50.671875 0.015625 42.195312 0.015625 33.355469 C 0.015625 24.511719 3.527344 16.035156 9.777344 9.785156 C 16.03125 3.53125 24.507812 0.0195312 33.347656 0.0195312 Z M 33.347656 0.0195312 " clip-rule="nonzero"/></clipPath></defs><g clip-path="url(#195383e913)"><g clip-path="url(#0af17fe124)"><path fill="#5acd00" d="M 0 0.0195312 L 224.773438 0.0195312 L 224.773438 66.695312 L 0 66.695312 Z M 0 0.0195312 " fill-opacity="1" fill-rule="nonzero"/></g></g><g clip-path="url(#4c1ee99e75)"><g clip-path="url(#20d070c8c0)"><path stroke-linecap="butt" transform="matrix(0.7496, 0, 0, 0.7496, 0.0148288, 0.0199992)" fill="none" stroke-linejoin="miter" d="M 44.46749 -0.000624223 L 255.491512 -0.000624223 C 267.284261 -0.000624223 278.597588 4.684166 286.935369 13.027158 C 295.273149 21.364939 299.95794 32.673055 299.95794 44.471014 C 299.95794 56.263763 295.273149 67.571879 286.935369 75.914871 C 278.597588 84.252651 267.284261 88.937442 255.491512 88.937442 L 44.46749 88.937442 C 32.674741 88.937442 21.366626 84.252651 13.023634 75.914871 C 4.685853 67.571879 0.00106218 56.263763 0.00106218 44.471014 C 0.00106218 32.673055 4.685853 21.364939 13.023634 13.027158 C 21.366626 4.684166 32.674741 -0.000624223 44.46749 -0.000624223 Z M 44.46749 -0.000624223 " stroke="#5acd00" stroke-width="2" stroke-opacity="1" stroke-miterlimit="4"/></g></g><g fill="#000000" fill-opacity="1"><g transform="translate(89.066462, 41.64935)"><g><path d="M 9.574219 0.308594 L 11.007812 0.28125 L 12.542969 0.078125 L 14.460938 -0.5625 L 15.308594 -1.023438 L 15.691406 -1.332031 L 16.179688 -1.5625 L 16.894531 -2.175781 L 17.226562 -2.636719 L 17.585938 -2.996094 L 18.710938 -4.710938 L 19.097656 -5.683594 L 19.300781 -6.65625 L 19.328125 -7.117188 L 19.453125 -7.628906 L 19.480469 -8.164062 L 19.582031 -8.90625 L 19.503906 -10.1875 L 19.328125 -11.238281 L 18.6875 -13.15625 L 18.199219 -14.105469 L 17.636719 -14.871094 L 16.921875 -15.664062 L 16.179688 -16.304688 L 15.589844 -16.714844 L 14.820312 -17.046875 L 14.4375 -17.328125 L 12.464844 -17.945312 L 10.980469 -18.199219 L 10.289062 -18.226562 L 7.578125 -17.839844 L 5.65625 -17.125 L 5.273438 -16.84375 L 4.8125 -16.613281 L 3.941406 -15.972656 L 2.6875 -14.515625 L 1.894531 -13.15625 L 1.511719 -12.183594 L 1.074219 -10.214844 L 1 -8.140625 L 1.074219 -7.601562 L 1.203125 -7.140625 L 1.253906 -6.65625 L 1.484375 -5.683594 L 2.664062 -3.351562 L 2.96875 -3.046875 L 3.300781 -2.636719 L 3.6875 -2.277344 L 3.96875 -1.945312 L 4.8125 -1.28125 L 6.808594 -0.257812 L 7.550781 0 L 8.113281 0.0507812 L 9.035156 0.257812 Z M 11.007812 -4.222656 L 9.597656 -4.222656 L 9.035156 -4.300781 L 8.113281 -4.683594 L 7.703125 -4.914062 L 7.015625 -5.476562 L 6.679688 -5.835938 L 6.324219 -6.324219 L 6.195312 -6.730469 L 5.964844 -7.191406 L 5.757812 -8.140625 L 5.757812 -9.703125 L 5.886719 -10.164062 L 5.964844 -10.648438 L 6.167969 -11.109375 L 6.324219 -11.570312 L 6.9375 -12.390625 L 8.21875 -13.257812 L 8.550781 -13.386719 L 9.546875 -13.644531 L 10.265625 -13.695312 L 11.492188 -13.542969 L 11.953125 -13.4375 L 12.414062 -13.234375 L 13.207031 -12.671875 L 14.207031 -11.621094 L 14.515625 -10.648438 L 14.746094 -10.164062 L 14.820312 -9.703125 L 14.769531 -8.140625 L 14.566406 -7.191406 L 14.386719 -6.730469 L 14.105469 -6.273438 L 13.949219 -5.886719 L 13.59375 -5.476562 L 12.363281 -4.632812 L 11.902344 -4.503906 L 11.519531 -4.324219 Z M 11.007812 -4.222656 "/></g></g></g><g fill="#000000" fill-opacity="1"><g transform="translate(109.594714, 41.64935)"><g><path d="M 1.972656 -0.769531 L 2.148438 -0.230469 L 2.890625 0.0507812 L 5.582031 0.0273438 L 6.324219 -0.230469 L 6.578125 -0.792969 L 6.5 -3.890625 L 6.554688 -4.453125 L 6.554688 -6.042969 L 6.785156 -6.5 L 7.421875 -6.808594 L 8.191406 -6.65625 L 8.675781 -6.273438 L 9.726562 -4.53125 L 10.367188 -3.199219 L 10.675781 -2.765625 L 10.90625 -2.328125 L 11.238281 -1.894531 L 11.929688 -0.5625 L 12.414062 -0.179688 L 13.285156 0 L 16.125 0 L 16.664062 0.0507812 L 17.097656 -0.179688 L 17.226562 -0.769531 L 16.996094 -1.382812 L 16.640625 -1.765625 L 16.382812 -2.203125 L 16.179688 -2.6875 L 15.792969 -3.121094 L 15.308594 -3.992188 L 15 -4.402344 L 14.796875 -4.863281 L 14.488281 -5.324219 L 13.746094 -6.65625 L 12.851562 -7.933594 L 12.851562 -8.5 L 13.082031 -9.085938 L 13.542969 -9.367188 L 14.285156 -10.109375 L 14.847656 -10.980469 L 15.101562 -11.46875 L 15.230469 -11.929688 L 15.460938 -12.464844 L 15.71875 -13.4375 L 15.742188 -13.925781 L 15.894531 -15 L 15.84375 -15.5625 L 15.949219 -16.050781 L 15.921875 -17.074219 L 15.71875 -17.664062 L 15.179688 -17.945312 L 12.851562 -17.867188 L 12.109375 -17.945312 L 11.492188 -17.636719 L 11.210938 -17.097656 L 11.289062 -15.539062 L 11.160156 -14.460938 L 10.90625 -13.4375 L 10.699219 -12.953125 L 10.367188 -12.570312 L 10.058594 -12.160156 L 9.675781 -11.828125 L 9.214844 -11.542969 L 8.78125 -11.339844 L 7.652344 -11.109375 L 7.039062 -11.082031 L 6.578125 -11.367188 L 6.605469 -11.902344 L 6.527344 -12.363281 L 6.605469 -16.074219 L 6.527344 -16.5625 L 6.5 -17.074219 L 6.246094 -17.636719 L 5.785156 -17.894531 L 5.246094 -17.945312 L 4.734375 -17.894531 L 2.664062 -17.945312 L 2.253906 -17.613281 L 1.894531 -17.152344 L 1.894531 -16.613281 L 1.945312 -16.101562 L 1.867188 -14.566406 L 1.894531 -14.078125 L 1.972656 -13.566406 L 1.84375 -12.542969 L 1.917969 -12.003906 L 1.972656 -5.863281 L 1.894531 -5.402344 L 1.917969 -4.863281 L 1.84375 -3.839844 L 1.972656 -2.816406 L 1.917969 -2.253906 L 1.945312 -1.742188 L 1.894531 -1.28125 Z M 1.972656 -0.769531 "/></g></g></g><g fill="#000000" fill-opacity="1"><g transform="translate(127.332956, 41.64935)"><g><path d="M 2.148438 -6.273438 L 2.328125 -5.785156 L 2.890625 -5.527344 L 5.375 -5.527344 L 5.835938 -5.582031 L 6.324219 -5.863281 L 6.578125 -6.324219 L 6.605469 -6.835938 L 6.578125 -7.347656 L 6.707031 -8.449219 L 6.628906 -9.421875 L 6.707031 -11.953125 L 6.785156 -12.464844 L 6.757812 -12.976562 L 6.835938 -13.542969 L 6.785156 -14.105469 L 6.835938 -14.589844 L 6.757812 -15.078125 L 6.835938 -15.613281 L 6.757812 -16.691406 L 6.785156 -17.125 L 6.578125 -17.613281 L 6.09375 -17.894531 L 4.273438 -17.96875 L 3.789062 -17.917969 L 2.484375 -17.96875 L 1.996094 -17.613281 L 1.714844 -17.097656 L 1.84375 -16.125 L 1.816406 -15.078125 L 1.867188 -14.515625 L 1.84375 -14.078125 L 1.972656 -12.542969 L 1.917969 -11.980469 L 1.972656 -11.441406 L 1.972656 -9.933594 L 2.046875 -9.367188 Z M 1.792969 -2.507812 L 1.816406 -1.585938 L 1.894531 -1.304688 L 2.023438 -1.023438 L 2.175781 -0.820312 L 2.457031 -0.589844 L 2.585938 -0.382812 L 3.175781 -0.0507812 L 3.40625 0.0273438 L 3.738281 0.101562 L 4.632812 0.128906 L 4.914062 0.0507812 L 5.171875 0.0507812 L 5.453125 -0.0507812 L 5.785156 -0.257812 L 5.988281 -0.359375 L 6.21875 -0.5625 L 6.449219 -0.820312 L 6.628906 -1.074219 L 6.859375 -1.867188 L 6.886719 -2.457031 L 6.785156 -2.765625 L 6.730469 -3.046875 L 6.578125 -3.378906 L 6.398438 -3.636719 L 6.21875 -3.789062 L 6.042969 -4.042969 L 5.757812 -4.199219 L 5.527344 -4.351562 L 5.222656 -4.402344 L 4.890625 -4.53125 L 4.609375 -4.554688 L 4.019531 -4.53125 L 3.457031 -4.429688 L 3.121094 -4.324219 L 2.917969 -4.222656 L 2.40625 -3.789062 L 1.996094 -3.351562 L 1.917969 -3.097656 L 1.792969 -2.816406 Z M 1.792969 -2.507812 "/></g></g></g></svg>