<svg xmlns="http://www.w3.org/2000/svg" xmlns:xlink="http://www.w3.org/1999/xlink" width="300" zoomAndPan="magnify" viewBox="0 0 224.87999 74.999997" height="100" preserveAspectRatio="xMidYMid meet" version="1.0"><defs><g/><clipPath id="5599510fbc"><path d="M 0 4.160156 L 224.761719 4.160156 L 224.761719 70.839844 L 0 70.839844 Z M 0 4.160156 " clip-rule="nonzero"/></clipPath><clipPath id="856a502ab7"><path d="M 33.339844 4.160156 L 191.542969 4.160156 C 200.382812 4.160156 208.863281 7.675781 215.117188 13.925781 C 221.367188 20.179688 224.878906 28.65625 224.878906 37.5 C 224.878906 46.34375 221.367188 54.820312 215.117188 61.074219 C 208.863281 67.324219 200.382812 70.839844 191.542969 70.839844 L 33.339844 70.839844 C 24.496094 70.839844 16.015625 67.324219 9.765625 61.074219 C 3.511719 54.820312 0 46.34375 0 37.5 C 0 28.65625 3.511719 20.179688 9.765625 13.925781 C 16.015625 7.675781 24.496094 4.160156 33.339844 4.160156 Z M 33.339844 4.160156 " clip-rule="nonzero"/></clipPath><clipPath id="5d69831296"><path d="M 0.015625 4.160156 L 224.761719 4.160156 L 224.761719 70.875 L 0.015625 70.875 Z M 0.015625 4.160156 " clip-rule="nonzero"/></clipPath><clipPath id="d7f0d59e77"><path d="M 33.347656 4.160156 L 191.53125 4.160156 C 200.371094 4.160156 208.851562 7.671875 215.101562 13.925781 C 221.351562 20.175781 224.863281 28.65625 224.863281 37.496094 C 224.863281 46.335938 221.351562 54.816406 215.101562 61.066406 C 208.851562 67.316406 200.371094 70.828125 191.53125 70.828125 L 33.347656 70.828125 C 24.507812 70.828125 16.03125 67.316406 9.777344 61.066406 C 3.527344 54.816406 0.015625 46.335938 0.015625 37.496094 C 0.015625 28.65625 3.527344 20.175781 9.777344 13.925781 C 16.03125 7.671875 24.507812 4.160156 33.347656 4.160156 Z M 33.347656 4.160156 " clip-rule="nonzero"/></clipPath></defs><g clip-path="url(#5599510fbc)"><g clip-path="url(#856a502ab7)"><path fill="#5acd00" d="M 0 4.160156 L 224.773438 4.160156 L 224.773438 70.839844 L 0 70.839844 Z M 0 4.160156 " fill-opacity="1" fill-rule="nonzero"/></g></g><g clip-path="url(#5d69831296)"><g clip-path="url(#d7f0d59e77)"><path stroke-linecap="butt" transform="matrix(0.7496, 0, 0, 0.7496, 0.0148288, 4.161828)" fill="none" stroke-linejoin="miter" d="M 44.46749 -0.00223064 L 255.491512 -0.00223064 C 267.284261 -0.00223064 278.597588 4.68256 286.935369 13.025552 C 295.273149 21.363333 299.95794 32.676659 299.95794 44.469408 C 299.95794 56.262157 295.273149 67.575483 286.935369 75.913264 C 278.597588 84.251045 267.284261 88.935836 255.491512 88.935836 L 44.46749 88.935836 C 32.674741 88.935836 21.366626 84.251045 13.023634 75.913264 C 4.685853 67.575483 0.00106218 56.262157 0.00106218 44.469408 C 0.00106218 32.676659 4.685853 21.363333 13.023634 13.025552 C 21.366626 4.68256 32.674741 -0.00223064 44.46749 -0.00223064 Z M 44.46749 -0.00223064 " stroke="#5acd00" stroke-width="2" stroke-opacity="1" stroke-miterlimit="4"/></g></g><g fill="#000000" fill-opacity="1"><g transform="translate(32.234968, 45.791189)"><g><path d="M 9.421875 0.257812 L 10.957031 0.332031 L 13.4375 -0.179688 L 14.847656 -0.792969 L 15.230469 -1.050781 L 15.691406 -1.332031 L 16.125 -1.636719 L 16.460938 -1.972656 L 16.742188 -2.40625 L 17.175781 -2.738281 L 17.945312 -4.070312 L 18.175781 -4.53125 L 18.300781 -5.015625 L 18.480469 -5.527344 L 18.558594 -6.015625 L 18.40625 -6.476562 L 17.765625 -6.757812 L 15.027344 -6.785156 L 14.460938 -6.527344 L 13.949219 -6.042969 L 13.746094 -5.605469 L 12.773438 -4.554688 L 11.902344 -4.121094 L 11.390625 -3.96875 L 10.855469 -3.917969 L 9.421875 -3.941406 L 8.039062 -4.453125 L 7.550781 -4.683594 L 7.21875 -5.042969 L 6.273438 -6.273438 L 6.066406 -6.707031 L 5.757812 -7.703125 L 5.683594 -8.90625 L 5.707031 -9.726562 L 5.886719 -10.1875 L 5.914062 -10.699219 L 6.066406 -11.160156 L 6.5 -12.082031 L 7.140625 -12.875 L 7.988281 -13.488281 L 8.472656 -13.695312 L 9.367188 -13.949219 L 10.957031 -13.898438 L 11.929688 -13.71875 L 12.464844 -13.542969 L 13.207031 -12.925781 L 13.59375 -12.515625 L 13.824219 -12.082031 L 14.285156 -11.597656 L 14.847656 -11.367188 L 17.433594 -11.3125 L 17.945312 -11.367188 L 18.355469 -11.597656 L 18.507812 -12.132812 L 18.300781 -12.644531 L 18.226562 -13.105469 L 17.816406 -14.078125 L 16.867188 -15.382812 L 15.539062 -16.585938 L 14.976562 -16.972656 L 13.515625 -17.636719 L 12.515625 -17.917969 L 11.238281 -18.097656 L 8.90625 -18.097656 L 8.472656 -18.046875 L 7.988281 -17.894531 L 6.988281 -17.6875 L 6.5 -17.507812 L 6.117188 -17.277344 L 5.65625 -17.097656 L 3.867188 -15.949219 L 3.558594 -15.539062 L 2.867188 -14.898438 L 2.558594 -14.460938 L 1.382812 -12.160156 L 0.921875 -8.960938 L 1.023438 -8.140625 L 1.023438 -7.117188 L 1.28125 -6.117188 L 1.484375 -5.632812 L 1.5625 -5.171875 L 1.816406 -4.710938 L 1.996094 -4.273438 L 3.019531 -2.789062 L 3.941406 -1.894531 L 4.378906 -1.613281 L 4.761719 -1.304688 L 6.5 -0.359375 L 7.015625 -0.179688 L 7.398438 -0.078125 L 7.933594 0.101562 L 8.472656 0.152344 L 8.933594 0.257812 Z M 9.421875 0.257812 "/></g></g></g><g fill="#000000" fill-opacity="1"><g transform="translate(51.764961, 45.791189)"><g><path d="M 9.574219 0.308594 L 11.007812 0.28125 L 12.542969 0.078125 L 14.460938 -0.5625 L 15.308594 -1.023438 L 15.691406 -1.332031 L 16.179688 -1.5625 L 16.894531 -2.175781 L 17.226562 -2.636719 L 17.585938 -2.996094 L 18.710938 -4.710938 L 19.097656 -5.683594 L 19.300781 -6.65625 L 19.328125 -7.117188 L 19.453125 -7.628906 L 19.480469 -8.164062 L 19.582031 -8.90625 L 19.503906 -10.1875 L 19.328125 -11.238281 L 18.6875 -13.15625 L 18.199219 -14.105469 L 17.636719 -14.871094 L 16.921875 -15.664062 L 16.179688 -16.304688 L 15.589844 -16.714844 L 14.820312 -17.046875 L 14.4375 -17.328125 L 12.464844 -17.945312 L 10.980469 -18.199219 L 10.289062 -18.226562 L 7.578125 -17.839844 L 5.65625 -17.125 L 5.273438 -16.84375 L 4.8125 -16.613281 L 3.941406 -15.972656 L 2.6875 -14.515625 L 1.894531 -13.15625 L 1.511719 -12.183594 L 1.074219 -10.214844 L 1 -8.140625 L 1.074219 -7.601562 L 1.203125 -7.140625 L 1.253906 -6.65625 L 1.484375 -5.683594 L 2.664062 -3.351562 L 2.96875 -3.046875 L 3.300781 -2.636719 L 3.6875 -2.277344 L 3.96875 -1.945312 L 4.8125 -1.28125 L 6.808594 -0.257812 L 7.550781 0 L 8.113281 0.0507812 L 9.035156 0.257812 Z M 11.007812 -4.222656 L 9.597656 -4.222656 L 9.035156 -4.300781 L 8.113281 -4.683594 L 7.703125 -4.914062 L 7.015625 -5.476562 L 6.679688 -5.835938 L 6.324219 -6.324219 L 6.195312 -6.730469 L 5.964844 -7.191406 L 5.757812 -8.140625 L 5.757812 -9.703125 L 5.886719 -10.164062 L 5.964844 -10.648438 L 6.167969 -11.109375 L 6.324219 -11.570312 L 6.9375 -12.390625 L 8.21875 -13.257812 L 8.550781 -13.386719 L 9.546875 -13.644531 L 10.265625 -13.695312 L 11.492188 -13.542969 L 11.953125 -13.4375 L 12.414062 -13.234375 L 13.207031 -12.671875 L 14.207031 -11.621094 L 14.515625 -10.648438 L 14.746094 -10.164062 L 14.820312 -9.703125 L 14.769531 -8.140625 L 14.566406 -7.191406 L 14.386719 -6.730469 L 14.105469 -6.273438 L 13.949219 -5.886719 L 13.59375 -5.476562 L 12.363281 -4.632812 L 11.902344 -4.503906 L 11.519531 -4.324219 Z M 11.007812 -4.222656 "/></g></g></g><g fill="#000000" fill-opacity="1"><g transform="translate(72.293214, 45.791189)"><g><path d="M 15.101562 -0.410156 L 15.84375 -0.078125 L 16.511719 0.128906 L 17.097656 -0.152344 L 17.328125 -0.691406 L 17.457031 -7.652344 L 17.355469 -8.371094 L 17.40625 -8.933594 L 17.304688 -12.003906 L 17.382812 -13.03125 L 17.328125 -13.515625 L 17.328125 -14.539062 L 17.433594 -15.050781 L 17.382812 -15.820312 L 17.433594 -17.152344 L 17.125 -17.613281 L 16.5625 -17.867188 L 16.050781 -17.917969 L 15.5625 -17.917969 L 15 -17.867188 L 14.460938 -17.945312 L 14.003906 -17.894531 L 13.488281 -17.917969 L 12.875 -17.664062 L 12.621094 -17.125 L 12.59375 -12.464844 L 12.695312 -11.929688 L 12.695312 -11.441406 L 12.59375 -10.90625 L 12.621094 -9.878906 L 12.492188 -9.472656 L 12.132812 -9.574219 L 11.007812 -10.726562 L 10.625 -11.03125 L 9.726562 -11.953125 L 9.316406 -12.261719 L 9.035156 -12.621094 L 8.5 -13.183594 L 7.703125 -13.847656 L 7.421875 -14.234375 L 6.9375 -14.566406 L 6.679688 -14.949219 L 6.246094 -15.257812 L 5.914062 -15.691406 L 4.53125 -17.097656 L 3.507812 -17.789062 L 2.816406 -17.996094 L 2.203125 -17.6875 L 1.867188 -17.203125 L 1.917969 -13.617188 L 1.867188 -13.105469 L 1.945312 -12.058594 L 1.894531 -11.597656 L 1.917969 -11.058594 L 1.84375 -10.519531 L 1.945312 -6.859375 L 1.894531 -6.398438 L 1.894531 -5.914062 L 1.84375 -5.351562 L 1.84375 -4.863281 L 1.917969 -4.324219 L 1.894531 -3.277344 L 1.945312 -2.765625 L 1.867188 -1.792969 L 1.945312 -1.28125 L 1.945312 -0.792969 L 2.175781 -0.230469 L 2.664062 0.0507812 L 3.53125 0 L 4.8125 0.078125 L 5.351562 0 L 5.9375 0.0507812 L 6.449219 -0.203125 L 6.679688 -0.714844 L 6.605469 -1.230469 L 6.679688 -7.5 L 6.578125 -8.039062 L 6.835938 -8.34375 L 7.167969 -8.269531 L 10.828125 -4.683594 L 11.238281 -4.351562 L 13.71875 -1.867188 L 14.054688 -1.460938 L 14.460938 -1.125 L 14.769531 -0.742188 Z M 15.101562 -0.410156 "/></g></g></g><g fill="#000000" fill-opacity="1"><g transform="translate(91.592833, 45.791189)"><g><path d="M 1.867188 -0.714844 L 2.125 -0.230469 L 2.917969 0.0507812 L 5.734375 0.0273438 L 6.246094 -0.230469 L 6.578125 -1.023438 L 6.554688 -1.816406 L 6.605469 -2.355469 L 6.527344 -3.457031 L 6.554688 -3.941406 L 6.527344 -4.429688 L 6.578125 -4.964844 L 6.808594 -5.503906 L 7.578125 -5.757812 L 11.570312 -5.785156 L 12.058594 -6.015625 L 12.339844 -6.527344 L 12.3125 -7.089844 L 12.363281 -8.625 L 12.285156 -9.113281 L 12.03125 -9.652344 L 11.261719 -9.90625 L 7.371094 -9.90625 L 6.785156 -10.109375 L 6.5 -10.570312 L 6.5 -12.082031 L 6.578125 -12.621094 L 6.554688 -13.054688 L 6.808594 -13.566406 L 7.550781 -13.824219 L 8.292969 -13.796875 L 9.035156 -13.847656 L 10.289062 -13.773438 L 10.800781 -13.824219 L 11.851562 -13.773438 L 12.363281 -13.847656 L 12.851562 -14.078125 L 13.03125 -14.589844 L 13.03125 -15.078125 L 13.082031 -15.589844 L 13.03125 -16.074219 L 13.082031 -16.613281 L 13.03125 -17.152344 L 12.773438 -17.636719 L 12.3125 -17.867188 L 11.699219 -17.945312 L 10.777344 -17.867188 L 10.238281 -17.894531 L 9.703125 -17.867188 L 9.214844 -17.917969 L 8.730469 -17.867188 L 2.609375 -17.867188 L 2.125 -17.613281 L 1.84375 -17.125 L 1.945312 -14.054688 L 1.894531 -13.566406 L 1.867188 -9.933594 L 1.945312 -9.472656 L 1.894531 -8.984375 L 1.894531 -8.472656 L 1.84375 -7.910156 L 1.945312 -7.117188 L 1.867188 -1.816406 L 1.917969 -1.230469 Z M 1.867188 -0.714844 "/></g></g></g><g fill="#000000" fill-opacity="1"><g transform="translate(105.542832, 45.791189)"><g><path d="M 1.230469 -0.742188 L 1.484375 -0.203125 L 1.996094 -0.0273438 L 9.597656 0.0273438 L 10.085938 -0.230469 L 10.367188 -0.691406 L 10.367188 -1.253906 L 10.316406 -1.714844 L 10.394531 -3.277344 L 10.035156 -3.710938 L 8.320312 -4.25 L 8.039062 -4.761719 L 8.089844 -6.859375 L 7.988281 -7.882812 L 8.089844 -8.960938 L 8.039062 -9.726562 L 8.089844 -10.519531 L 8.039062 -11.007812 L 8.089844 -11.519531 L 8.039062 -12.058594 L 8.039062 -13.132812 L 8.320312 -13.59375 L 8.804688 -13.875 L 9.367188 -13.898438 L 9.855469 -14.179688 L 10.136719 -14.667969 L 10.136719 -16.179688 L 10.1875 -16.640625 L 10.136719 -17.152344 L 9.933594 -17.664062 L 9.113281 -17.894531 L 5.863281 -17.917969 L 5.296875 -17.867188 L 3.738281 -17.894531 L 3.25 -17.867188 L 2.253906 -17.917969 L 1.691406 -17.664062 L 1.40625 -17.125 L 1.40625 -16.640625 L 1.355469 -16.203125 L 1.355469 -15.640625 L 1.40625 -15.128906 L 1.40625 -14.640625 L 1.664062 -14.15625 L 3.226562 -13.617188 L 3.558594 -13.15625 L 3.480469 -10.980469 L 3.507812 -10.546875 L 3.582031 -9.957031 L 3.558594 -8.90625 L 3.507812 -8.394531 L 3.609375 -7.398438 L 3.480469 -6.886719 L 3.582031 -5.785156 L 3.53125 -4.785156 L 3.277344 -4.222656 L 1.585938 -3.6875 L 1.28125 -3.199219 L 1.230469 -2.714844 Z M 1.230469 -0.742188 "/></g></g></g><g fill="#000000" fill-opacity="1"><g transform="translate(117.163556, 45.791189)"><g><path d="M 1.972656 -0.820312 L 2.148438 -0.257812 L 2.664062 0 L 3.148438 0.0273438 L 4.199219 -0.0507812 L 4.734375 0 L 5.503906 0 L 6.296875 -0.257812 L 6.476562 -0.742188 L 6.527344 -1.28125 L 6.425781 -1.816406 L 6.5 -2.917969 L 6.449219 -4.503906 L 6.679688 -5.015625 L 7.191406 -5.273438 L 7.652344 -5.273438 L 8.113281 -5.296875 L 8.753906 -5.09375 L 9.164062 -4.660156 L 9.828125 -3.761719 L 10.007812 -3.277344 L 10.726562 -1.996094 L 11.058594 -1.511719 L 11.289062 -1.074219 L 11.597656 -0.664062 L 12.109375 -0.203125 L 12.746094 -0.0507812 L 13.667969 0 L 14.234375 -0.0507812 L 14.746094 0 L 15.769531 0 L 16.332031 -0.0507812 L 16.867188 -0.179688 L 16.972656 -0.714844 L 16.640625 -1.355469 L 15.820312 -2.609375 L 15.589844 -3.046875 L 15.28125 -3.507812 L 15.027344 -3.96875 L 14.691406 -4.378906 L 13.925781 -5.707031 L 13.847656 -6.324219 L 14.128906 -6.859375 L 14.847656 -7.550781 L 15.152344 -7.988281 L 15.332031 -8.472656 L 15.613281 -8.933594 L 15.792969 -9.367188 L 16.074219 -10.339844 L 16.101562 -12.363281 L 15.972656 -12.851562 L 15.894531 -13.335938 L 15.769531 -13.847656 L 15.078125 -15.257812 L 14.71875 -15.640625 L 14.488281 -16.023438 L 13.207031 -16.996094 L 12.3125 -17.457031 L 10.1875 -17.894531 L 9.546875 -17.945312 L 8.804688 -17.917969 L 8.242188 -17.945312 L 7.730469 -17.894531 L 7.167969 -17.945312 L 6.730469 -17.894531 L 5.195312 -17.945312 L 4.710938 -17.867188 L 3.660156 -17.96875 L 3.175781 -17.894531 L 2.609375 -17.917969 L 2.125 -17.6875 L 1.917969 -17.152344 L 1.84375 -9.984375 L 1.917969 -9.242188 L 1.917969 -7.960938 L 1.867188 -7.421875 L 1.84375 -6.449219 L 1.917969 -5.886719 L 1.84375 -4.839844 L 1.945312 -3.351562 L 1.894531 -2.816406 Z M 7.191406 -9.421875 L 6.757812 -9.652344 L 6.5 -10.1875 L 6.425781 -13.054688 L 6.730469 -13.566406 L 7.246094 -13.824219 L 7.652344 -13.847656 L 9.0625 -13.824219 L 10.238281 -13.667969 L 11.03125 -13.183594 L 11.289062 -12.800781 L 11.46875 -12.390625 L 11.519531 -11.648438 L 11.441406 -10.957031 L 11.238281 -10.445312 L 10.957031 -10.007812 L 10.648438 -9.703125 L 10.265625 -9.523438 L 8.269531 -9.34375 L 7.757812 -9.421875 Z M 7.191406 -9.421875 "/></g></g></g><g fill="#000000" fill-opacity="1"><g transform="translate(134.901798, 45.791189)"><g><path d="M 1.894531 -0.742188 L 2.125 -0.28125 L 2.738281 0 L 5.554688 -0.0507812 L 6.324219 -0.28125 L 6.605469 -0.691406 L 6.65625 -1.175781 L 6.628906 -1.714844 L 6.554688 -2.253906 L 6.628906 -5.707031 L 6.527344 -7.191406 L 6.757812 -7.550781 L 7.140625 -7.449219 L 7.78125 -6.65625 L 9.214844 -5.296875 L 9.546875 -4.863281 L 10.394531 -4.171875 L 10.980469 -4.171875 L 11.417969 -4.480469 L 13.566406 -6.65625 L 13.898438 -7.089844 L 14.257812 -7.449219 L 14.566406 -7.5 L 14.769531 -7.191406 L 14.847656 -6.679688 L 14.769531 -6.195312 L 14.796875 -5.734375 L 14.769531 -5.222656 L 14.847656 -4.273438 L 14.769531 -0.742188 L 15.027344 -0.203125 L 15.589844 0 L 18.660156 0.0273438 L 19.148438 -0.28125 L 19.429688 -0.820312 L 19.503906 -1.332031 L 19.402344 -4.402344 L 19.453125 -4.890625 L 19.402344 -5.886719 L 19.480469 -6.398438 L 19.453125 -6.910156 L 19.503906 -7.449219 L 19.453125 -7.960938 L 19.53125 -8.421875 L 19.453125 -15.664062 L 19.503906 -16.203125 L 19.453125 -16.640625 L 19.480469 -17.175781 L 19.199219 -17.664062 L 18.6875 -17.96875 L 17.917969 -17.738281 L 17.277344 -17.382812 L 16.691406 -16.664062 L 15.230469 -15.152344 L 15 -14.769531 L 11.210938 -10.75 L 10.648438 -10.570312 L 10.1875 -10.726562 L 9.855469 -11.058594 L 9.546875 -11.492188 L 9.136719 -11.828125 L 8.832031 -12.234375 L 7.066406 -14.054688 L 6.449219 -14.820312 L 6.015625 -15.207031 L 5.683594 -15.5625 L 5.402344 -15.949219 L 5.042969 -16.28125 L 4.761719 -16.640625 L 4.199219 -17.226562 L 3.457031 -17.765625 L 2.714844 -17.96875 L 2.203125 -17.6875 L 1.917969 -17.175781 L 1.867188 -16.640625 L 1.945312 -5.351562 L 1.84375 -4.863281 L 1.945312 -1.230469 Z M 1.894531 -0.742188 "/></g></g></g><g fill="#000000" fill-opacity="1"><g transform="translate(156.300317, 45.791189)"><g><path d="M 0.332031 -0.691406 L 0.460938 -0.152344 L 0.972656 -0.0273438 L 3.226562 -0.0273438 L 3.890625 0.0507812 L 4.480469 -0.203125 L 4.941406 -0.664062 L 5.375 -1.535156 L 5.8125 -2.023438 L 6.425781 -2.277344 L 6.9375 -2.226562 L 8.371094 -2.253906 L 8.90625 -2.175781 L 9.496094 -2.253906 L 9.957031 -2.253906 L 10.496094 -2.203125 L 11.699219 -2.253906 L 12.542969 -1.972656 L 13.082031 -1.5625 L 13.207031 -1.101562 L 13.488281 -0.640625 L 13.925781 -0.230469 L 14.589844 0.0273438 L 15.050781 -0.0273438 L 15.949219 0.0507812 L 17.535156 0 L 17.996094 -0.152344 L 18.097656 -0.691406 L 17.945312 -1.332031 L 17.765625 -1.792969 L 17.433594 -2.226562 L 17.277344 -2.738281 L 17.023438 -3.121094 L 16.867188 -3.609375 L 16.433594 -4.53125 L 16.253906 -5.015625 L 16 -5.453125 L 15.640625 -6.398438 L 15.359375 -6.808594 L 15.152344 -7.320312 L 14.921875 -7.757812 L 14.746094 -8.269531 L 14.515625 -8.652344 L 14.359375 -9.164062 L 14.078125 -9.625 L 13.875 -10.058594 L 13.617188 -10.496094 L 13.488281 -10.980469 L 12.976562 -11.878906 L 12.824219 -12.363281 L 12.363281 -13.335938 L 12.234375 -13.746094 L 11.851562 -14.640625 L 11.339844 -15.589844 L 10.929688 -16.5625 L 10.699219 -16.945312 L 10.546875 -17.433594 L 10.085938 -17.917969 L 9.214844 -18.148438 L 8.394531 -17.894531 L 7.910156 -17.433594 L 7.757812 -16.972656 L 6.65625 -14.667969 L 6.375 -14.207031 L 4.941406 -10.980469 L 4.8125 -10.546875 L 4.53125 -10.085938 L 4.121094 -9.164062 L 3.738281 -8.5 L 3.558594 -8.011719 L 3.199219 -7.347656 L 3.046875 -6.808594 L 2.816406 -6.398438 L 2.636719 -5.886719 L 1.917969 -4.554688 L 1.175781 -2.6875 L 0.871094 -2.277344 L 0.640625 -1.765625 Z M 8.242188 -6.324219 L 7.757812 -6.527344 L 7.679688 -7.039062 L 8.703125 -9.367188 L 8.933594 -9.777344 L 9.265625 -10.035156 L 9.574219 -9.828125 L 9.90625 -8.832031 L 10.1875 -8.394531 L 10.289062 -7.988281 L 10.546875 -7.472656 L 10.726562 -7.015625 L 10.675781 -6.554688 L 10.238281 -6.347656 Z M 8.242188 -6.324219 "/></g></g></g><g fill="#000000" fill-opacity="1"><g transform="translate(174.883243, 45.791189)"><g><path d="M 1.972656 -0.820312 L 2.148438 -0.257812 L 2.664062 0 L 3.148438 0.0273438 L 4.199219 -0.0507812 L 4.734375 0 L 5.503906 0 L 6.296875 -0.257812 L 6.476562 -0.742188 L 6.527344 -1.28125 L 6.425781 -1.816406 L 6.5 -2.917969 L 6.449219 -4.503906 L 6.679688 -5.015625 L 7.191406 -5.273438 L 7.652344 -5.273438 L 8.113281 -5.296875 L 8.753906 -5.09375 L 9.164062 -4.660156 L 9.828125 -3.761719 L 10.007812 -3.277344 L 10.726562 -1.996094 L 11.058594 -1.511719 L 11.289062 -1.074219 L 11.597656 -0.664062 L 12.109375 -0.203125 L 12.746094 -0.0507812 L 13.667969 0 L 14.234375 -0.0507812 L 14.746094 0 L 15.769531 0 L 16.332031 -0.0507812 L 16.867188 -0.179688 L 16.972656 -0.714844 L 16.640625 -1.355469 L 15.820312 -2.609375 L 15.589844 -3.046875 L 15.28125 -3.507812 L 15.027344 -3.96875 L 14.691406 -4.378906 L 13.925781 -5.707031 L 13.847656 -6.324219 L 14.128906 -6.859375 L 14.847656 -7.550781 L 15.152344 -7.988281 L 15.332031 -8.472656 L 15.613281 -8.933594 L 15.792969 -9.367188 L 16.074219 -10.339844 L 16.101562 -12.363281 L 15.972656 -12.851562 L 15.894531 -13.335938 L 15.769531 -13.847656 L 15.078125 -15.257812 L 14.71875 -15.640625 L 14.488281 -16.023438 L 13.207031 -16.996094 L 12.3125 -17.457031 L 10.1875 -17.894531 L 9.546875 -17.945312 L 8.804688 -17.917969 L 8.242188 -17.945312 L 7.730469 -17.894531 L 7.167969 -17.945312 L 6.730469 -17.894531 L 5.195312 -17.945312 L 4.710938 -17.867188 L 3.660156 -17.96875 L 3.175781 -17.894531 L 2.609375 -17.917969 L 2.125 -17.6875 L 1.917969 -17.152344 L 1.84375 -9.984375 L 1.917969 -9.242188 L 1.917969 -7.960938 L 1.867188 -7.421875 L 1.84375 -6.449219 L 1.917969 -5.886719 L 1.84375 -4.839844 L 1.945312 -3.351562 L 1.894531 -2.816406 Z M 7.191406 -9.421875 L 6.757812 -9.652344 L 6.5 -10.1875 L 6.425781 -13.054688 L 6.730469 -13.566406 L 7.246094 -13.824219 L 7.652344 -13.847656 L 9.0625 -13.824219 L 10.238281 -13.667969 L 11.03125 -13.183594 L 11.289062 -12.800781 L 11.46875 -12.390625 L 11.519531 -11.648438 L 11.441406 -10.957031 L 11.238281 -10.445312 L 10.957031 -10.007812 L 10.648438 -9.703125 L 10.265625 -9.523438 L 8.269531 -9.34375 L 7.757812 -9.421875 Z M 7.191406 -9.421875 "/></g></g></g></svg>