<svg xmlns="http://www.w3.org/2000/svg" xmlns:xlink="http://www.w3.org/1999/xlink" width="300" zoomAndPan="magnify" viewBox="0 0 224.87999 74.999997" height="100" preserveAspectRatio="xMidYMid meet" version="1.0"><defs><g/><clipPath id="3dcc19e208"><path d="M 45.746094 13.996094 L 224.761719 13.996094 L 224.761719 61.003906 L 45.746094 61.003906 Z M 45.746094 13.996094 " clip-rule="nonzero"/></clipPath><clipPath id="da0a85babd"><path d="M 65.234375 13.996094 L 205.390625 13.996094 C 210.558594 13.996094 215.515625 16.050781 219.171875 19.707031 C 222.828125 23.359375 224.878906 28.316406 224.878906 33.488281 L 224.878906 41.511719 C 224.878906 46.683594 222.828125 51.640625 219.171875 55.292969 C 215.515625 58.949219 210.558594 61.003906 205.390625 61.003906 L 65.234375 61.003906 C 60.066406 61.003906 55.109375 58.949219 51.453125 55.292969 C 47.800781 51.640625 45.746094 46.683594 45.746094 41.511719 L 45.746094 33.488281 C 45.746094 28.316406 47.800781 23.359375 51.453125 19.707031 C 55.109375 16.050781 60.066406 13.996094 65.234375 13.996094 Z M 65.234375 13.996094 " clip-rule="nonzero"/></clipPath><clipPath id="37938e70c6"><path d="M 45.75 13.996094 L 224.761719 13.996094 L 224.761719 61 L 45.75 61 Z M 45.75 13.996094 " clip-rule="nonzero"/></clipPath><clipPath id="948b173719"><path d="M 65.238281 13.996094 L 205.382812 13.996094 C 210.554688 13.996094 215.511719 16.050781 219.164062 19.707031 C 222.820312 23.359375 224.875 28.316406 224.875 33.484375 L 224.875 41.511719 C 224.875 46.679688 222.820312 51.636719 219.164062 55.292969 C 215.511719 58.945312 210.554688 61 205.382812 61 L 65.238281 61 C 60.070312 61 55.113281 58.945312 51.457031 55.292969 C 47.800781 51.636719 45.75 46.679688 45.75 41.511719 L 45.75 33.484375 C 45.75 28.316406 47.800781 23.359375 51.457031 19.707031 C 55.113281 16.050781 60.070312 13.996094 65.238281 13.996094 Z M 65.238281 13.996094 " clip-rule="nonzero"/></clipPath><clipPath id="e1c2809acd"><path d="M 0 5.773438 L 63.714844 5.773438 L 63.714844 69.492188 L 0 69.492188 Z M 0 5.773438 " clip-rule="nonzero"/></clipPath></defs><g clip-path="url(#3dcc19e208)"><g clip-path="url(#da0a85babd)"><path fill="#d9d9d9" d="M 45.746094 13.996094 L 224.953125 13.996094 L 224.953125 61.003906 L 45.746094 61.003906 Z M 45.746094 13.996094 " fill-opacity="1" fill-rule="nonzero"/></g></g><g clip-path="url(#37938e70c6)"><g clip-path="url(#948b173719)"><path stroke-linecap="butt" transform="matrix(0.7496, 0, 0, 0.7496, 45.749051, 13.997549)" fill="none" stroke-linejoin="miter" d="M 25.999509 -0.00194144 L 212.963823 -0.00194144 C 219.858126 -0.00194144 226.471028 2.739104 231.343419 7.616706 C 236.221021 12.489097 238.962066 19.101999 238.962066 25.996302 L 238.962066 36.705139 C 238.962066 43.599441 236.221021 50.212344 231.343419 55.089946 C 226.471028 59.962336 219.858126 62.703382 212.963823 62.703382 L 25.999509 62.703382 C 19.105207 62.703382 12.492304 59.962336 7.614703 55.089946 C 2.737101 50.212344 0.00126635 43.599441 0.00126635 36.705139 L 0.00126635 25.996302 C 0.00126635 19.101999 2.737101 12.489097 7.614703 7.616706 C 12.492304 2.739104 19.105207 -0.00194144 25.999509 -0.00194144 Z M 25.999509 -0.00194144 " stroke="#d9d9d9" stroke-width="2" stroke-opacity="1" stroke-miterlimit="4"/></g></g><g fill="#000000" fill-opacity="1"><g transform="translate(72.883245, 44.164649)"><g><path d="M 6.988281 0.183594 L 7.472656 0.0195312 L 7.921875 -0.570312 L 8.183594 -1.136719 L 8.308594 -1.5625 L 8.691406 -2.214844 L 8.816406 -2.621094 L 9.019531 -3.046875 L 9.140625 -3.390625 L 9.363281 -3.757812 L 10.15625 -5.605469 L 10.296875 -6.050781 L 10.664062 -6.703125 L 12.429688 -10.886719 L 12.632812 -11.25 L 12.976562 -11.984375 L 13.078125 -12.367188 L 13.464844 -13.078125 L 13.609375 -13.628906 L 13.507812 -14.054688 L 13.140625 -14.136719 L 12.714844 -14.175781 L 12.347656 -14.238281 L 11.960938 -14.195312 L 11.554688 -14.175781 L 10.785156 -14.257812 L 10.335938 -13.992188 L 9.992188 -13.648438 L 8.105469 -9.179688 L 7.980469 -8.753906 L 7.800781 -8.410156 L 7.71875 -8.042969 L 7.515625 -7.675781 L 7.109375 -6.539062 L 6.90625 -6.175781 L 6.683594 -6.214844 L 6.175781 -7.3125 L 6.09375 -7.699219 L 5.746094 -8.386719 L 4.730469 -11.027344 L 4.203125 -12.105469 L 3.636719 -13.648438 L 3.289062 -13.992188 L 2.824219 -14.195312 L 1.664062 -14.238281 L 1.257812 -14.175781 L 0.488281 -14.175781 L 0.164062 -14.035156 L 0 -13.628906 L 0.648438 -11.902344 L 0.851562 -11.597656 L 0.953125 -11.210938 L 1.117188 -10.804688 L 1.339844 -10.5 L 1.484375 -10.074219 L 3.308594 -5.972656 L 3.433594 -5.566406 L 3.941406 -4.507812 L 4.082031 -4.082031 L 4.425781 -3.390625 L 4.652344 -3.027344 L 4.753906 -2.621094 L 5.566406 -0.691406 L 5.746094 -0.386719 L 6.152344 -0.0390625 L 6.601562 0.121094 Z M 6.988281 0.183594 "/></g></g></g><g fill="#000000" fill-opacity="1"><g transform="translate(86.57171, 44.164649)"><g><path d="M 7.066406 0.0625 L 9.972656 0.0195312 L 10.398438 -0.164062 L 10.621094 -0.589844 L 10.621094 -2.640625 L 10.398438 -3.046875 L 9.972656 -3.230469 L 9.503906 -3.1875 L 9.121094 -3.25 L 8.082031 -3.269531 L 7.414062 -3.1875 L 7.007812 -3.230469 L 6.558594 -3.210938 L 6.175781 -3.269531 L 5.726562 -3.230469 L 5.300781 -3.433594 L 5.136719 -3.796875 L 5.136719 -5.078125 L 5.320312 -5.503906 L 5.6875 -5.726562 L 6.296875 -5.746094 L 6.945312 -5.6875 L 7.71875 -5.726562 L 8.550781 -5.707031 L 8.957031 -5.746094 L 9.425781 -5.726562 L 9.828125 -5.890625 L 9.972656 -6.296875 L 10.03125 -8.125 L 9.828125 -8.691406 L 9.363281 -8.957031 L 8.164062 -8.957031 L 7.738281 -8.917969 L 6.886719 -8.976562 L 5.707031 -8.9375 L 5.28125 -9.121094 L 5.117188 -9.75 L 5.117188 -10.378906 L 5.300781 -10.765625 L 5.746094 -10.925781 L 6.132812 -10.90625 L 6.519531 -10.988281 L 9.425781 -10.945312 L 9.808594 -10.96875 L 10.234375 -11.210938 L 10.4375 -11.578125 L 10.417969 -11.984375 L 10.4375 -12.390625 L 10.398438 -13.609375 L 10.214844 -13.992188 L 9.808594 -14.15625 L 9.382812 -14.15625 L 9.019531 -14.238281 L 7.371094 -14.21875 L 6.925781 -14.175781 L 6.519531 -14.21875 L 6.175781 -14.195312 L 5.769531 -14.238281 L 4.101562 -14.195312 L 3.695312 -14.257812 L 3.308594 -14.175781 L 2.945312 -14.21875 L 2.539062 -14.175781 L 2.132812 -14.195312 L 1.707031 -14.035156 L 1.484375 -13.609375 L 1.523438 -12.835938 L 1.460938 -12.003906 L 1.523438 -11.554688 L 1.484375 -9.566406 L 1.542969 -9.140625 L 1.503906 -8.753906 L 1.484375 -7.089844 L 1.542969 -6.722656 L 1.523438 -3.433594 L 1.484375 -3.046875 L 1.542969 -2.640625 L 1.484375 -1.238281 L 1.523438 -0.792969 L 1.6875 -0.242188 L 2.296875 0.0195312 L 3.757812 0.0390625 L 4.203125 0 L 4.570312 0.0195312 L 5.402344 -0.0390625 L 5.789062 0.0390625 L 6.253906 0.0625 L 6.660156 0.0195312 Z M 7.066406 0.0625 "/></g></g></g><g fill="#000000" fill-opacity="1"><g transform="translate(98.208934, 44.164649)"><g><path d="M 1.523438 -0.832031 L 1.726562 -0.203125 L 2.316406 0.0625 L 2.722656 0 L 3.371094 0.0625 L 3.695312 0.0195312 L 4.304688 0.0195312 L 4.957031 -0.183594 L 5.136719 -0.773438 L 5.136719 -1.460938 L 5.179688 -1.828125 L 5.117188 -2.253906 L 5.160156 -3.554688 L 5.339844 -3.960938 L 5.726562 -4.183594 L 6.90625 -4.019531 L 7.3125 -3.675781 L 7.554688 -3.269531 L 7.71875 -2.90625 L 8.144531 -2.296875 L 8.53125 -1.5625 L 8.753906 -1.257812 L 8.917969 -0.851562 L 9.140625 -0.507812 L 9.585938 -0.140625 L 10.277344 0.0390625 L 11.882812 0.0195312 L 12.265625 0.0625 L 12.9375 0.0390625 L 13.324219 -0.140625 L 13.445312 -0.589844 L 13.222656 -1.035156 L 12.976562 -1.320312 L 12.816406 -1.707031 L 12.125 -2.742188 L 11.941406 -3.109375 L 11.292969 -4.164062 L 11.046875 -4.46875 L 11.027344 -4.957031 L 11.210938 -5.402344 L 11.496094 -5.707031 L 11.78125 -5.949219 L 12.570312 -7.371094 L 12.835938 -8.550781 L 12.796875 -9.828125 L 12.734375 -10.234375 L 12.367188 -11.394531 L 12.207031 -11.738281 L 11.984375 -12.0625 L 10.824219 -13.28125 L 10.113281 -13.667969 L 9.34375 -13.933594 L 8.183594 -14.195312 L 7.535156 -14.21875 L 6.945312 -14.175781 L 5.726562 -14.175781 L 5.320312 -14.257812 L 4.914062 -14.257812 L 4.550781 -14.15625 L 4.144531 -14.15625 L 3.738281 -14.238281 L 3.289062 -14.257812 L 2.09375 -14.15625 L 1.726562 -13.953125 L 1.484375 -13.382812 L 1.503906 -8.734375 L 1.542969 -8.328125 L 1.484375 -7.515625 L 1.503906 -7.066406 L 1.503906 -6.660156 L 1.542969 -6.277344 L 1.503906 -5.890625 L 1.484375 -4.246094 L 1.523438 -3.839844 Z M 5.726562 -7.433594 L 5.320312 -7.65625 L 5.160156 -7.980469 L 5.160156 -9.199219 L 5.117188 -9.546875 L 5.160156 -10.398438 L 5.339844 -10.785156 L 5.769531 -10.945312 L 6.175781 -10.925781 L 6.988281 -11.007812 L 7.554688 -10.886719 L 8.082031 -10.84375 L 8.46875 -10.742188 L 8.976562 -10.113281 L 9.097656 -9.789062 L 9.179688 -9.261719 L 9.121094 -8.652344 L 8.9375 -8.246094 L 8.714844 -7.941406 L 8.488281 -7.757812 L 8.125 -7.597656 L 7.535156 -7.453125 L 7.148438 -7.433594 L 6.175781 -7.472656 Z M 5.726562 -7.433594 "/></g></g></g><g fill="#000000" fill-opacity="1"><g transform="translate(112.303585, 44.164649)"><g><path d="M 6.253906 0.0625 L 6.863281 0.0625 L 7.496094 -0.0195312 L 7.902344 -0.0195312 L 8.488281 -0.203125 L 9.324219 -0.34375 L 10.277344 -0.75 L 11.636719 -1.664062 L 12.632812 -2.945312 L 12.835938 -3.351562 L 13.078125 -3.675781 L 13.40625 -4.46875 L 13.507812 -4.855469 L 13.585938 -5.28125 L 13.710938 -5.625 L 13.769531 -6.03125 L 13.769531 -6.457031 L 13.832031 -7.109375 L 13.8125 -7.699219 L 13.527344 -9.300781 L 13.261719 -10.074219 L 13.101562 -10.460938 L 12.410156 -11.535156 L 11.332031 -12.734375 L 10.296875 -13.425781 L 9.910156 -13.648438 L 9.503906 -13.730469 L 9.160156 -13.890625 L 8.734375 -13.992188 L 7.535156 -14.175781 L 2.90625 -14.21875 L 2.539062 -14.15625 L 2.132812 -14.175781 L 1.6875 -13.992188 L 1.503906 -13.566406 L 1.484375 -2.214844 L 1.523438 -1.828125 L 1.523438 -0.792969 L 1.726562 -0.164062 L 2.132812 0.0390625 L 2.539062 0 L 5.015625 0.0390625 L 5.421875 -0.0195312 Z M 6.195312 -3.269531 L 5.808594 -3.308594 L 5.339844 -3.535156 L 5.179688 -3.917969 L 5.160156 -4.265625 L 5.179688 -5.097656 L 5.097656 -6.09375 L 5.179688 -7.109375 L 5.136719 -9.910156 L 5.179688 -10.257812 L 5.382812 -10.722656 L 6.03125 -10.867188 L 6.886719 -10.886719 L 7.472656 -10.824219 L 8.265625 -10.601562 L 8.632812 -10.417969 L 8.9375 -10.195312 L 9.242188 -9.910156 L 9.546875 -9.546875 L 9.75 -9.199219 L 9.929688 -8.835938 L 10.257812 -7.046875 L 10.054688 -5.625 L 9.707031 -4.875 L 8.957031 -4.019531 L 8.265625 -3.574219 L 7.675781 -3.390625 L 6.804688 -3.289062 Z M 6.195312 -3.269531 "/></g></g></g><g fill="#000000" fill-opacity="1"><g transform="translate(127.068442, 44.164649)"><g><path d="M 11.984375 0.0390625 L 12.753906 -0.0195312 L 13.140625 0.0195312 L 13.769531 0 L 14.339844 -0.101562 L 14.398438 -0.589844 L 14.257812 -1.054688 L 13.953125 -1.808594 L 13.40625 -2.863281 L 13.121094 -3.613281 L 12.714844 -4.347656 L 11.941406 -6.195312 L 11.738281 -6.5 L 11.535156 -6.886719 L 11.414062 -7.332031 L 11.230469 -7.636719 L 11.109375 -7.960938 L 10.683594 -8.714844 L 10.539062 -9.140625 L 9.199219 -11.960938 L 9.078125 -12.367188 L 8.855469 -12.734375 L 8.734375 -13.101562 L 8.347656 -13.8125 L 8.003906 -14.175781 L 7.332031 -14.378906 L 6.683594 -14.15625 L 6.316406 -13.8125 L 6.132812 -13.464844 L 5.992188 -13.058594 L 5.808594 -12.773438 L 4.996094 -10.90625 L 4.773438 -10.601562 L 4.671875 -10.195312 L 4.449219 -9.808594 L 4.324219 -9.445312 L 2.253906 -5.097656 L 2.132812 -4.652344 L 1.929688 -4.347656 L 1.789062 -3.941406 L 1.421875 -3.289062 L 1.117188 -2.476562 L 0.894531 -2.195312 L 0.792969 -1.828125 L 0.386719 -1.015625 L 0.265625 -0.609375 L 0.367188 -0.101562 L 0.773438 0.0195312 L 1.5625 -0.0195312 L 1.96875 0.0195312 L 3.109375 -0.0195312 L 3.574219 -0.164062 L 3.960938 -0.527344 L 4.324219 -1.199219 L 4.710938 -1.585938 L 5.136719 -1.808594 L 5.523438 -1.746094 L 6.378906 -1.828125 L 6.742188 -1.765625 L 8.734375 -1.789062 L 9.097656 -1.746094 L 9.546875 -1.808594 L 9.992188 -1.585938 L 10.378906 -1.257812 L 10.5625 -0.875 L 10.683594 -0.507812 L 11.089844 -0.203125 L 11.554688 0 Z M 7.371094 -5.015625 L 6.964844 -5.097656 L 6.5 -5.058594 L 6.175781 -5.199219 L 6.152344 -5.585938 L 7.109375 -7.777344 L 7.332031 -7.960938 L 7.617188 -7.800781 L 8.570312 -5.566406 L 8.488281 -5.199219 L 8.183594 -5.035156 Z M 7.371094 -5.015625 "/></g></g></g><g fill="#000000" fill-opacity="1"><g transform="translate(141.81299, 44.164649)"><g><path d="M 1.523438 -0.832031 L 1.726562 -0.203125 L 2.316406 0.0625 L 2.722656 0 L 3.371094 0.0625 L 3.695312 0.0195312 L 4.304688 0.0195312 L 4.957031 -0.183594 L 5.136719 -0.773438 L 5.136719 -1.460938 L 5.179688 -1.828125 L 5.117188 -2.253906 L 5.160156 -3.554688 L 5.339844 -3.960938 L 5.726562 -4.183594 L 6.90625 -4.019531 L 7.3125 -3.675781 L 7.554688 -3.269531 L 7.71875 -2.90625 L 8.144531 -2.296875 L 8.53125 -1.5625 L 8.753906 -1.257812 L 8.917969 -0.851562 L 9.140625 -0.507812 L 9.585938 -0.140625 L 10.277344 0.0390625 L 11.882812 0.0195312 L 12.265625 0.0625 L 12.9375 0.0390625 L 13.324219 -0.140625 L 13.445312 -0.589844 L 13.222656 -1.035156 L 12.976562 -1.320312 L 12.816406 -1.707031 L 12.125 -2.742188 L 11.941406 -3.109375 L 11.292969 -4.164062 L 11.046875 -4.46875 L 11.027344 -4.957031 L 11.210938 -5.402344 L 11.496094 -5.707031 L 11.78125 -5.949219 L 12.570312 -7.371094 L 12.835938 -8.550781 L 12.796875 -9.828125 L 12.734375 -10.234375 L 12.367188 -11.394531 L 12.207031 -11.738281 L 11.984375 -12.0625 L 10.824219 -13.28125 L 10.113281 -13.667969 L 9.34375 -13.933594 L 8.183594 -14.195312 L 7.535156 -14.21875 L 6.945312 -14.175781 L 5.726562 -14.175781 L 5.320312 -14.257812 L 4.914062 -14.257812 L 4.550781 -14.15625 L 4.144531 -14.15625 L 3.738281 -14.238281 L 3.289062 -14.257812 L 2.09375 -14.15625 L 1.726562 -13.953125 L 1.484375 -13.382812 L 1.503906 -8.734375 L 1.542969 -8.328125 L 1.484375 -7.515625 L 1.503906 -7.066406 L 1.503906 -6.660156 L 1.542969 -6.277344 L 1.503906 -5.890625 L 1.484375 -4.246094 L 1.523438 -3.839844 Z M 5.726562 -7.433594 L 5.320312 -7.65625 L 5.160156 -7.980469 L 5.160156 -9.199219 L 5.117188 -9.546875 L 5.160156 -10.398438 L 5.339844 -10.785156 L 5.769531 -10.945312 L 6.175781 -10.925781 L 6.988281 -11.007812 L 7.554688 -10.886719 L 8.082031 -10.84375 L 8.46875 -10.742188 L 8.976562 -10.113281 L 9.097656 -9.789062 L 9.179688 -9.261719 L 9.121094 -8.652344 L 8.9375 -8.246094 L 8.714844 -7.941406 L 8.488281 -7.757812 L 8.125 -7.597656 L 7.535156 -7.453125 L 7.148438 -7.433594 L 6.175781 -7.472656 Z M 5.726562 -7.433594 "/></g></g></g><g fill="#000000" fill-opacity="1"><g transform="translate(155.907641, 44.164649)"><g><path d="M 7.066406 0.0625 L 9.972656 0.0195312 L 10.398438 -0.164062 L 10.621094 -0.589844 L 10.621094 -2.640625 L 10.398438 -3.046875 L 9.972656 -3.230469 L 9.503906 -3.1875 L 9.121094 -3.25 L 8.082031 -3.269531 L 7.414062 -3.1875 L 7.007812 -3.230469 L 6.558594 -3.210938 L 6.175781 -3.269531 L 5.726562 -3.230469 L 5.300781 -3.433594 L 5.136719 -3.796875 L 5.136719 -5.078125 L 5.320312 -5.503906 L 5.6875 -5.726562 L 6.296875 -5.746094 L 6.945312 -5.6875 L 7.71875 -5.726562 L 8.550781 -5.707031 L 8.957031 -5.746094 L 9.425781 -5.726562 L 9.828125 -5.890625 L 9.972656 -6.296875 L 10.03125 -8.125 L 9.828125 -8.691406 L 9.363281 -8.957031 L 8.164062 -8.957031 L 7.738281 -8.917969 L 6.886719 -8.976562 L 5.707031 -8.9375 L 5.28125 -9.121094 L 5.117188 -9.75 L 5.117188 -10.378906 L 5.300781 -10.765625 L 5.746094 -10.925781 L 6.132812 -10.90625 L 6.519531 -10.988281 L 9.425781 -10.945312 L 9.808594 -10.96875 L 10.234375 -11.210938 L 10.4375 -11.578125 L 10.417969 -11.984375 L 10.4375 -12.390625 L 10.398438 -13.609375 L 10.214844 -13.992188 L 9.808594 -14.15625 L 9.382812 -14.15625 L 9.019531 -14.238281 L 7.371094 -14.21875 L 6.925781 -14.175781 L 6.519531 -14.21875 L 6.175781 -14.195312 L 5.769531 -14.238281 L 4.101562 -14.195312 L 3.695312 -14.257812 L 3.308594 -14.175781 L 2.945312 -14.21875 L 2.539062 -14.175781 L 2.132812 -14.195312 L 1.707031 -14.035156 L 1.484375 -13.609375 L 1.523438 -12.835938 L 1.460938 -12.003906 L 1.523438 -11.554688 L 1.484375 -9.566406 L 1.542969 -9.140625 L 1.503906 -8.753906 L 1.484375 -7.089844 L 1.542969 -6.722656 L 1.523438 -3.433594 L 1.484375 -3.046875 L 1.542969 -2.640625 L 1.484375 -1.238281 L 1.523438 -0.792969 L 1.6875 -0.242188 L 2.296875 0.0195312 L 3.757812 0.0390625 L 4.203125 0 L 4.570312 0.0195312 L 5.402344 -0.0390625 L 5.789062 0.0390625 L 6.253906 0.0625 L 6.660156 0.0195312 Z M 7.066406 0.0625 "/></g></g></g><g fill="#000000" fill-opacity="1"><g transform="translate(167.544864, 44.164649)"><g><path d="M 6.804688 0.0820312 L 7.617188 0.0390625 L 7.980469 -0.164062 L 8.183594 -0.546875 L 8.183594 -2.558594 L 7.941406 -2.945312 L 7.496094 -3.167969 L 7.066406 -3.167969 L 6.582031 -3.332031 L 6.335938 -3.796875 L 6.398438 -4.183594 L 6.378906 -6.417969 L 6.417969 -6.863281 L 6.335938 -8.328125 L 6.417969 -10.378906 L 6.558594 -10.84375 L 7.007812 -11.027344 L 7.414062 -11.089844 L 7.839844 -11.25 L 8.042969 -11.578125 L 8.0625 -13.585938 L 7.820312 -13.972656 L 7.453125 -14.195312 L 4.996094 -14.195312 L 4.628906 -14.238281 L 4.222656 -14.15625 L 2.558594 -14.15625 L 2.171875 -14.21875 L 1.707031 -14.21875 L 1.300781 -14.015625 L 1.097656 -13.527344 L 1.15625 -12.023438 L 1.117188 -11.636719 L 1.339844 -11.230469 L 1.789062 -11.007812 L 2.195312 -11.007812 L 2.578125 -10.765625 L 2.761719 -10.214844 L 2.824219 -3.980469 L 2.601562 -3.371094 L 1.257812 -2.964844 L 1.035156 -2.601562 L 0.976562 -0.730469 L 1.179688 -0.183594 L 1.585938 0 L 1.96875 0 L 2.355469 -0.0390625 L 2.945312 0.0390625 L 3.574219 0.0195312 L 3.980469 -0.0195312 L 4.792969 0.0625 L 5.402344 -0.0195312 L 6.398438 -0.0195312 Z M 6.804688 0.0820312 "/></g></g></g><g fill="#000000" fill-opacity="1"><g transform="translate(176.765275, 44.164649)"><g><path d="M 1.523438 -0.832031 L 1.726562 -0.203125 L 2.316406 0.0625 L 2.722656 0 L 3.371094 0.0625 L 3.695312 0.0195312 L 4.304688 0.0195312 L 4.957031 -0.183594 L 5.136719 -0.773438 L 5.136719 -1.460938 L 5.179688 -1.828125 L 5.117188 -2.253906 L 5.160156 -3.554688 L 5.339844 -3.960938 L 5.726562 -4.183594 L 6.90625 -4.019531 L 7.3125 -3.675781 L 7.554688 -3.269531 L 7.71875 -2.90625 L 8.144531 -2.296875 L 8.53125 -1.5625 L 8.753906 -1.257812 L 8.917969 -0.851562 L 9.140625 -0.507812 L 9.585938 -0.140625 L 10.277344 0.0390625 L 11.882812 0.0195312 L 12.265625 0.0625 L 12.9375 0.0390625 L 13.324219 -0.140625 L 13.445312 -0.589844 L 13.222656 -1.035156 L 12.976562 -1.320312 L 12.816406 -1.707031 L 12.125 -2.742188 L 11.941406 -3.109375 L 11.292969 -4.164062 L 11.046875 -4.46875 L 11.027344 -4.957031 L 11.210938 -5.402344 L 11.496094 -5.707031 L 11.78125 -5.949219 L 12.570312 -7.371094 L 12.835938 -8.550781 L 12.796875 -9.828125 L 12.734375 -10.234375 L 12.367188 -11.394531 L 12.207031 -11.738281 L 11.984375 -12.0625 L 10.824219 -13.28125 L 10.113281 -13.667969 L 9.34375 -13.933594 L 8.183594 -14.195312 L 7.535156 -14.21875 L 6.945312 -14.175781 L 5.726562 -14.175781 L 5.320312 -14.257812 L 4.914062 -14.257812 L 4.550781 -14.15625 L 4.144531 -14.15625 L 3.738281 -14.238281 L 3.289062 -14.257812 L 2.09375 -14.15625 L 1.726562 -13.953125 L 1.484375 -13.382812 L 1.503906 -8.734375 L 1.542969 -8.328125 L 1.484375 -7.515625 L 1.503906 -7.066406 L 1.503906 -6.660156 L 1.542969 -6.277344 L 1.503906 -5.890625 L 1.484375 -4.246094 L 1.523438 -3.839844 Z M 5.726562 -7.433594 L 5.320312 -7.65625 L 5.160156 -7.980469 L 5.160156 -9.199219 L 5.117188 -9.546875 L 5.160156 -10.398438 L 5.339844 -10.785156 L 5.769531 -10.945312 L 6.175781 -10.925781 L 6.988281 -11.007812 L 7.554688 -10.886719 L 8.082031 -10.84375 L 8.46875 -10.742188 L 8.976562 -10.113281 L 9.097656 -9.789062 L 9.179688 -9.261719 L 9.121094 -8.652344 L 8.9375 -8.246094 L 8.714844 -7.941406 L 8.488281 -7.757812 L 8.125 -7.597656 L 7.535156 -7.453125 L 7.148438 -7.433594 L 6.175781 -7.472656 Z M 5.726562 -7.433594 "/></g></g></g><g fill="#000000" fill-opacity="1"><g transform="translate(190.85992, 44.164649)"><g><path d="M 8.144531 0.265625 L 9.953125 0.0820312 L 10.722656 -0.164062 L 12.53125 -0.976562 L 13.953125 -2.335938 L 14.21875 -2.703125 L 15.007812 -4.101562 L 15.152344 -4.488281 L 15.210938 -4.894531 L 15.335938 -5.21875 L 15.414062 -5.667969 L 15.515625 -7.089844 L 15.414062 -8.488281 L 15.253906 -9.242188 L 15.089844 -9.667969 L 14.988281 -10.132812 L 14.625 -10.804688 L 14.480469 -11.171875 L 14.21875 -11.515625 L 13.972656 -11.757812 L 13.710938 -12.125 L 12.835938 -12.917969 L 11.800781 -13.566406 L 9.140625 -14.398438 L 8.183594 -14.421875 L 6.761719 -14.339844 L 6.355469 -14.257812 L 5.949219 -14.136719 L 5.585938 -13.972656 L 4.8125 -13.769531 L 3.777344 -13.121094 L 3.492188 -12.875 L 2.84375 -12.429688 L 2.296875 -11.820312 L 1.605469 -10.804688 L 1.421875 -10.460938 L 1.035156 -9.34375 L 0.875 -8.46875 L 0.792969 -6.113281 L 1.015625 -4.832031 L 1.320312 -4.144531 L 1.441406 -3.714844 L 1.644531 -3.351562 L 2.601562 -2.050781 L 3.167969 -1.503906 L 3.433594 -1.199219 L 4.8125 -0.46875 L 5.199219 -0.304688 L 6.925781 0.203125 Z M 7.574219 -3.308594 L 7.167969 -3.453125 L 6.804688 -3.492188 L 6.113281 -3.859375 L 5.484375 -4.40625 L 5.28125 -4.691406 L 5.015625 -4.976562 L 4.628906 -6.113281 L 4.527344 -7.128906 L 4.550781 -7.738281 L 4.691406 -8.488281 L 4.8125 -8.855469 L 5.058594 -9.140625 L 5.238281 -9.484375 L 5.503906 -9.808594 L 5.808594 -10.074219 L 6.398438 -10.480469 L 6.761719 -10.664062 L 7.191406 -10.765625 L 8.125 -10.84375 L 9.097656 -10.785156 L 10.175781 -10.316406 L 10.804688 -9.851562 L 11.273438 -9.160156 L 11.433594 -8.792969 L 11.554688 -8.386719 L 11.699219 -8.023438 L 11.78125 -7.148438 L 11.65625 -6.132812 L 11.476562 -5.300781 L 11.25 -4.996094 L 11.070312 -4.691406 L 10.824219 -4.324219 L 10.195312 -3.839844 L 9.828125 -3.675781 L 9.503906 -3.492188 L 9.140625 -3.453125 L 8.753906 -3.351562 Z M 7.574219 -3.308594 "/></g></g></g><g clip-path="url(#e1c2809acd)"><path fill="#231f20" d="M 63.445312 37.5 C 63.445312 55.019531 49.242188 69.222656 31.722656 69.222656 C 14.203125 69.222656 0 55.019531 0 37.5 C 0 19.976562 14.203125 5.773438 31.722656 5.773438 C 49.242188 5.773438 63.445312 19.976562 63.445312 37.5 Z M 63.445312 37.5 " fill-opacity="1" fill-rule="nonzero"/></g><path fill="#fed19a" d="M 21.222656 34.550781 L 22.199219 34.550781 C 22.664062 34.554688 23.082031 34.269531 23.253906 33.839844 C 23.625 32.875 24.863281 30.949219 28.957031 28.128906 C 32.292969 25.84375 34.539062 22.289062 35.171875 18.296875 C 35.355469 17.058594 36.421875 16.136719 37.675781 16.132812 L 37.699219 16.132812 C 39.074219 16.132812 40.203125 17.214844 40.261719 18.585938 C 40.382812 21.398438 40.09375 25.988281 37.378906 28.828125 L 49.183594 28.828125 C 50.765625 28.828125 52.046875 30.109375 52.046875 31.691406 C 52.046875 32.449219 51.746094 33.175781 51.207031 33.714844 C 50.671875 34.25 49.945312 34.550781 49.183594 34.550781 L 48.359375 34.601562 C 48.296875 34.605469 48.246094 34.65625 48.246094 34.71875 C 48.246094 34.785156 48.300781 34.835938 48.367188 34.835938 L 48.484375 34.835938 C 49.375 34.832031 50.214844 35.246094 50.753906 35.953125 C 51.292969 36.664062 51.46875 37.582031 51.222656 38.4375 C 50.859375 39.480469 49.957031 40.246094 48.867188 40.4375 C 48.867188 40.4375 50.835938 41.03125 50.722656 43.617188 C 50.644531 45.390625 48.007812 45.707031 48.007812 45.707031 C 48.007812 45.707031 51.851562 50.371094 44.878906 52.292969 C 37.90625 54.21875 30.886719 53.039062 30.886719 53.039062 L 21.507812 52.054688 Z M 21.222656 34.550781 " fill-opacity="1" fill-rule="nonzero"/><path fill="#ffffff" d="M 18.984375 52.523438 L 22.035156 52.523438 L 22.035156 33.957031 L 18.984375 33.957031 Z M 18.984375 52.523438 " fill-opacity="1" fill-rule="nonzero"/><path fill="#575b6d" d="M 12.390625 31.890625 L 18.472656 31.890625 C 19.023438 31.890625 19.464844 32.335938 19.464844 32.882812 L 19.464844 53.90625 C 19.464844 54.457031 19.023438 54.898438 18.472656 54.898438 L 12.390625 54.898438 C 11.84375 54.898438 11.402344 54.457031 11.402344 53.90625 L 11.402344 32.882812 C 11.402344 32.335938 11.84375 31.890625 12.390625 31.890625 Z M 12.390625 31.890625 " fill-opacity="1" fill-rule="nonzero"/><path fill="#eeefee" d="M 17.066406 36.160156 C 17.066406 37.0625 16.335938 37.796875 15.433594 37.796875 C 14.53125 37.796875 13.800781 37.0625 13.800781 36.160156 C 13.800781 35.257812 14.53125 34.527344 15.433594 34.527344 C 16.335938 34.527344 17.066406 35.257812 17.066406 36.160156 Z M 17.066406 36.160156 " fill-opacity="1" fill-rule="nonzero"/></svg>