<svg xmlns="http://www.w3.org/2000/svg" xmlns:xlink="http://www.w3.org/1999/xlink" width="300" zoomAndPan="magnify" viewBox="0 0 224.87999 74.999997" height="100" preserveAspectRatio="xMidYMid meet" version="1.0"><defs><g/><clipPath id="948cf8b448"><path d="M 38.164062 11 L 74 11 L 74 64 L 38.164062 64 Z M 38.164062 11 " clip-rule="nonzero"/></clipPath></defs><g clip-path="url(#948cf8b448)"><path fill="#000000" d="M 38.167969 37.125 L 62.683594 61.972656 C 67.417969 66.769531 77.144531 57.894531 71.4375 52.308594 L 55.929688 37.125 L 71.941406 22.191406 C 76.816406 17.644531 67.785156 8.3125 62.933594 13.03125 Z M 38.167969 37.125 " fill-opacity="1" fill-rule="nonzero"/></g><g fill="#000000" fill-opacity="1"><g transform="translate(95.808673, 48.743995)"><g><path d="M 9.140625 0.304688 L 11.824219 0.375 L 12.503906 0.304688 L 13.183594 0.136719 L 13.863281 0.0351562 L 14.542969 -0.238281 L 15.15625 -0.304688 L 15.800781 -0.613281 L 18.109375 -2.003906 L 19.097656 -3.023438 L 19.4375 -3.5 L 19.808594 -4.246094 L 20.015625 -4.859375 L 20.21875 -5.4375 L 20.421875 -7.136719 L 20.355469 -8.222656 L 19.84375 -10.195312 L 19.46875 -10.738281 L 18.585938 -11.757812 L 17.976562 -12.300781 L 17.429688 -12.574219 L 16.820312 -12.945312 L 14.167969 -13.761719 L 13.488281 -13.863281 L 12.808594 -13.898438 L 12.097656 -14.035156 L 11.109375 -14.035156 L 9.308594 -14.40625 L 8.054688 -15.019531 L 7.542969 -15.496094 L 7.40625 -16.515625 L 7.578125 -17.429688 L 7.984375 -17.875 L 8.496094 -18.246094 L 9.039062 -18.554688 L 9.648438 -18.6875 L 10.738281 -18.722656 L 11.824219 -18.585938 L 12.4375 -18.417969 L 13.046875 -18.007812 L 13.625 -17.535156 L 14.136719 -16.855469 L 14.882812 -16.410156 L 16.480469 -16.546875 L 17.398438 -16.480469 L 18.078125 -16.480469 L 18.6875 -16.410156 L 19.335938 -16.886719 L 19.605469 -17.464844 L 19.46875 -18.109375 L 19.402344 -18.757812 L 18.449219 -20.523438 L 17.703125 -21.542969 L 15.460938 -23.105469 L 13.558594 -23.75 L 12.234375 -24.023438 L 9.617188 -24.089844 L 8.867188 -23.886719 L 8.1875 -23.855469 L 7.578125 -23.75 L 6.285156 -23.34375 L 5.132812 -22.664062 L 3.5 -21.542969 L 2.3125 -19.945312 L 1.699219 -18.078125 L 1.597656 -16.410156 L 1.632812 -15.359375 L 1.867188 -14 L 2.414062 -12.808594 L 3.667969 -11.246094 L 5.980469 -9.988281 L 7.203125 -9.582031 L 12.539062 -8.96875 L 13.761719 -8.394531 L 14.203125 -7.984375 L 14.40625 -7.136719 L 14.136719 -6.285156 L 13.695312 -5.777344 L 12.539062 -5.265625 L 11.484375 -5.199219 L 10.875 -5.097656 L 9.140625 -5.265625 L 8.5625 -5.574219 L 7.984375 -5.945312 L 6.863281 -7.167969 L 6.183594 -7.441406 L 5.574219 -7.375 L 4.925781 -7.476562 L 2.3125 -7.339844 L 1.699219 -7.066406 L 1.425781 -6.355469 L 1.527344 -5.675781 L 1.664062 -4.996094 L 1.867188 -4.382812 L 2.515625 -3.125 L 2.988281 -2.683594 L 3.433594 -2.175781 L 4.621094 -1.425781 L 5.097656 -0.917969 L 5.742188 -0.613281 L 6.421875 -0.40625 L 7.746094 0.0664062 Z M 9.140625 0.304688 "/></g></g></g><g fill="#000000" fill-opacity="1"><g transform="translate(117.486621, 48.743995)"><g><path d="M 20.046875 0.0664062 L 21.339844 -0.0351562 L 21.984375 0.0351562 L 23.039062 0 L 23.988281 -0.167969 L 24.089844 -0.984375 L 23.855469 -1.765625 L 23.34375 -3.023438 L 22.425781 -4.792969 L 21.949219 -6.046875 L 21.269531 -7.273438 L 19.980469 -10.363281 L 19.640625 -10.875 L 19.300781 -11.519531 L 19.097656 -12.265625 L 18.789062 -12.777344 L 18.585938 -13.320312 L 17.875 -14.578125 L 17.636719 -15.289062 L 15.394531 -20.015625 L 15.1875 -20.695312 L 14.816406 -21.304688 L 14.609375 -21.917969 L 13.964844 -23.105469 L 13.386719 -23.71875 L 12.265625 -24.058594 L 11.179688 -23.683594 L 10.566406 -23.105469 L 10.261719 -22.527344 L 10.023438 -21.847656 L 9.71875 -21.371094 L 8.359375 -18.246094 L 7.984375 -17.738281 L 7.816406 -17.058594 L 7.441406 -16.410156 L 7.238281 -15.800781 L 3.773438 -8.527344 L 3.566406 -7.78125 L 3.226562 -7.273438 L 2.988281 -6.59375 L 2.378906 -5.503906 L 1.867188 -4.144531 L 1.496094 -3.667969 L 1.324219 -3.058594 L 0.644531 -1.699219 L 0.441406 -1.019531 L 0.613281 -0.167969 L 1.292969 0.0351562 L 2.617188 -0.0351562 L 3.296875 0.0351562 L 5.199219 -0.0351562 L 5.980469 -0.273438 L 6.625 -0.882812 L 7.238281 -2.003906 L 7.882812 -2.652344 L 8.597656 -3.023438 L 9.242188 -2.921875 L 10.667969 -3.058594 L 11.28125 -2.957031 L 14.609375 -2.988281 L 15.222656 -2.921875 L 15.96875 -3.023438 L 16.71875 -2.652344 L 17.363281 -2.105469 L 17.667969 -1.460938 L 17.875 -0.847656 L 18.554688 -0.339844 L 19.335938 0 Z M 12.335938 -8.394531 L 11.65625 -8.527344 L 10.875 -8.460938 L 10.328125 -8.699219 L 10.296875 -9.34375 L 11.894531 -13.015625 L 12.265625 -13.320312 L 12.742188 -13.046875 L 14.339844 -9.308594 L 14.203125 -8.699219 L 13.695312 -8.425781 Z M 12.335938 -8.394531 "/></g></g></g><g fill="#000000" fill-opacity="1"><g transform="translate(142.154631, 48.743995)"><g><path d="M 11.382812 0.136719 L 12.742188 0.0664062 L 13.355469 -0.273438 L 13.695312 -0.917969 L 13.695312 -4.28125 L 13.285156 -4.925781 L 12.539062 -5.300781 L 11.824219 -5.300781 L 11.007812 -5.574219 L 10.601562 -6.355469 L 10.703125 -7 L 10.667969 -10.738281 L 10.738281 -11.484375 L 10.601562 -13.929688 L 10.738281 -17.363281 L 10.976562 -18.144531 L 11.722656 -18.449219 L 12.402344 -18.554688 L 13.117188 -18.824219 L 13.457031 -19.367188 L 13.488281 -22.730469 L 13.082031 -23.378906 L 12.46875 -23.75 L 8.359375 -23.75 L 7.746094 -23.820312 L 7.066406 -23.683594 L 4.28125 -23.683594 L 3.636719 -23.785156 L 2.855469 -23.785156 L 2.175781 -23.445312 L 1.835938 -22.628906 L 1.9375 -20.117188 L 1.867188 -19.46875 L 2.242188 -18.789062 L 2.988281 -18.417969 L 3.667969 -18.417969 L 4.316406 -18.007812 L 4.621094 -17.089844 L 4.722656 -6.660156 L 4.347656 -5.640625 L 2.105469 -4.960938 L 1.734375 -4.347656 L 1.632812 -1.222656 L 1.972656 -0.304688 L 2.652344 0 L 3.296875 0 L 3.941406 -0.0664062 L 4.925781 0.0664062 L 5.980469 0.0351562 L 6.660156 -0.0351562 L 8.019531 0.101562 L 9.039062 -0.0351562 L 10.703125 -0.0351562 Z M 11.382812 0.136719 "/></g></g></g><g fill="#000000" fill-opacity="1"><g transform="translate(157.580632, 48.743995)"><g><path d="M 2.546875 -1.394531 L 2.886719 -0.339844 L 3.875 0.101562 L 4.554688 0 L 5.640625 0.101562 L 6.183594 0.0351562 L 7.203125 0.0351562 L 8.289062 -0.304688 L 8.597656 -1.292969 L 8.597656 -2.445312 L 8.664062 -3.058594 L 8.5625 -3.773438 L 8.628906 -5.945312 L 8.9375 -6.625 L 9.582031 -7 L 11.554688 -6.726562 L 12.234375 -6.148438 L 12.640625 -5.46875 L 12.914062 -4.859375 L 13.625 -3.839844 L 14.269531 -2.617188 L 14.644531 -2.105469 L 14.917969 -1.425781 L 15.289062 -0.847656 L 16.039062 -0.238281 L 17.195312 0.0664062 L 19.878906 0.0351562 L 20.523438 0.101562 L 21.644531 0.0664062 L 22.289062 -0.238281 L 22.496094 -0.984375 L 22.121094 -1.734375 L 21.710938 -2.207031 L 21.441406 -2.855469 L 20.285156 -4.585938 L 19.980469 -5.199219 L 18.890625 -6.964844 L 18.484375 -7.476562 L 18.449219 -8.289062 L 18.757812 -9.039062 L 19.230469 -9.546875 L 19.707031 -9.957031 L 21.035156 -12.335938 L 21.476562 -14.304688 L 21.40625 -16.445312 L 21.304688 -17.125 L 20.695312 -19.0625 L 20.421875 -19.640625 L 20.046875 -20.183594 L 18.109375 -22.222656 L 16.921875 -22.867188 L 15.628906 -23.308594 L 13.695312 -23.75 L 12.605469 -23.785156 L 11.621094 -23.71875 L 9.582031 -23.71875 L 8.902344 -23.855469 L 8.222656 -23.855469 L 7.613281 -23.683594 L 6.933594 -23.683594 L 6.253906 -23.820312 L 5.503906 -23.855469 L 3.5 -23.683594 L 2.886719 -23.34375 L 2.480469 -22.390625 L 2.515625 -14.609375 L 2.582031 -13.929688 L 2.480469 -12.574219 L 2.515625 -11.824219 L 2.515625 -11.144531 L 2.582031 -10.5 L 2.515625 -9.855469 L 2.480469 -7.101562 L 2.546875 -6.421875 Z M 9.582031 -12.4375 L 8.902344 -12.808594 L 8.628906 -13.355469 L 8.628906 -15.394531 L 8.5625 -15.96875 L 8.628906 -17.398438 L 8.9375 -18.042969 L 9.648438 -18.316406 L 10.328125 -18.28125 L 11.6875 -18.417969 L 12.640625 -18.214844 L 13.523438 -18.144531 L 14.167969 -17.976562 L 15.019531 -16.921875 L 15.222656 -16.378906 L 15.359375 -15.496094 L 15.257812 -14.476562 L 14.949219 -13.796875 L 14.578125 -13.285156 L 14.203125 -12.980469 L 13.589844 -12.707031 L 12.605469 -12.46875 L 11.960938 -12.4375 L 10.328125 -12.503906 Z M 9.582031 -12.4375 "/></g></g></g></svg>