<svg xmlns="http://www.w3.org/2000/svg" xmlns:xlink="http://www.w3.org/1999/xlink" width="200" zoomAndPan="magnify" viewBox="0 0 150 149.999998" height="200" preserveAspectRatio="xMidYMid meet" version="1.0"><defs><clipPath id="537793e8b6"><path d="M 75 0 C 33.578125 0 0 33.578125 0 75 C 0 116.421875 33.578125 150 75 150 C 116.421875 150 150 116.421875 150 75 C 150 33.578125 116.421875 0 75 0 Z M 75 0 " clip-rule="nonzero"/></clipPath><clipPath id="5cc6653324"><path d="M 27 33 L 123.9375 33 L 123.9375 115.125 L 27 115.125 Z M 27 33 " clip-rule="nonzero"/></clipPath><clipPath id="a391b4f4bb"><path d="M 36 30.375 L 54 30.375 L 54 49 L 36 49 Z M 36 30.375 " clip-rule="nonzero"/></clipPath><clipPath id="fc0e65610b"><path d="M 67 103 L 74 103 L 74 115.125 L 67 115.125 Z M 67 103 " clip-rule="nonzero"/></clipPath><clipPath id="d178f2c710"><path d="M 73 106 L 83 106 L 83 115.125 L 73 115.125 Z M 73 106 " clip-rule="nonzero"/></clipPath><clipPath id="d0b19b2f95"><path d="M 114 106 L 123.9375 106 L 123.9375 113 L 114 113 Z M 114 106 " clip-rule="nonzero"/></clipPath></defs><g clip-path="url(#537793e8b6)"><rect x="-15" width="180" fill="#ffb8da" y="-15" height="179.999997" fill-opacity="1"/></g><g clip-path="url(#5cc6653324)"><path fill="#d3d337" d="M 123.203125 112.007812 C 122.550781 112.699219 118.816406 111.585938 114.976562 108.839844 C 112.960938 107.394531 110.921875 105.503906 109.28125 103.179688 C 108.582031 102.195312 107.953125 101.132812 107.441406 99.996094 C 107.410156 99.933594 107.386719 99.875 107.355469 99.8125 C 107.195312 99.441406 107.046875 99.066406 106.910156 98.679688 C 106.21875 96.726562 105.851562 94.519531 105.730469 91.890625 C 105.621094 89.53125 105.707031 86.824219 105.9375 83.636719 C 106.019531 82.46875 106.121094 81.238281 106.234375 79.9375 C 106.398438 78.171875 106.582031 76.269531 106.789062 74.226562 C 106.925781 72.902344 107.0625 71.511719 107.21875 70.058594 C 107.339844 68.925781 107.515625 67.296875 107.453125 65.402344 C 107.449219 65.035156 107.425781 64.65625 107.394531 64.273438 C 107.308594 63.128906 107.125 61.921875 106.78125 60.683594 C 106.425781 59.390625 105.90625 58.066406 105.148438 56.773438 C 105.132812 56.753906 105.117188 56.730469 105.101562 56.699219 C 104.785156 56.167969 103.988281 54.84375 102.929688 53.769531 C 102.308594 53.128906 101.605469 52.578125 100.851562 52.316406 C 100.476562 52.191406 100.101562 52.136719 99.71875 52.175781 C 98.84375 52.269531 98.09375 52.832031 97.441406 53.644531 C 96.429688 54.90625 95.671875 56.78125 95.132812 58.453125 C 94.710938 59.773438 94.433594 60.960938 94.273438 61.628906 C 94.242188 61.742188 94.222656 61.867188 94.199219 61.980469 C 94.023438 62.742188 93.882812 63.472656 93.785156 64.171875 C 93.394531 66.632812 93.378906 68.742188 93.554688 70.742188 C 93.585938 71.132812 93.621094 71.519531 93.667969 71.894531 C 93.820312 73.179688 94.042969 74.433594 94.289062 75.734375 C 94.429688 76.464844 94.574219 77.203125 94.703125 77.96875 C 95.132812 80.308594 95.515625 82.871094 95.632812 86.007812 C 95.648438 86.390625 95.65625 86.785156 95.664062 87.183594 C 95.671875 87.808594 95.671875 88.445312 95.65625 89.113281 C 95.640625 89.699219 95.625 90.296875 95.609375 90.890625 C 95.53125 93.40625 95.394531 95.972656 94.980469 98.464844 C 94.582031 100.8125 93.929688 103.089844 92.839844 105.195312 C 92.410156 106.035156 91.90625 106.839844 91.324219 107.617188 C 90.878906 108.226562 90.371094 108.800781 89.820312 109.363281 C 89.496094 109.6875 89.175781 109.988281 88.839844 110.269531 C 86.761719 112.0625 84.414062 113.1875 82.152344 113.894531 C 79.277344 114.792969 76.539062 115.023438 74.644531 115.078125 C 73.933594 115.101562 73.34375 115.09375 72.90625 115.09375 C 72.421875 115.09375 71.722656 115.085938 70.859375 115.039062 C 69.847656 114.976562 68.605469 114.855469 67.238281 114.59375 C 64.003906 113.96875 60.039062 112.5625 56.613281 109.371094 C 55.605469 108.433594 54.019531 106.972656 52.839844 104.566406 C 52.777344 104.441406 52.722656 104.324219 52.671875 104.203125 C 51.558594 101.78125 51.214844 99.195312 51.34375 96.480469 C 51.375 95.566406 51.464844 94.636719 51.605469 93.691406 C 51.773438 92.496094 52.011719 91.28125 52.292969 90.042969 C 52.703125 88.246094 53.207031 86.390625 53.730469 84.507812 C 53.820312 84.167969 53.914062 83.839844 54.003906 83.5 C 54.910156 80.230469 55.890625 77.886719 56.621094 75.785156 C 56.804688 75.285156 56.964844 74.800781 57.101562 74.316406 C 57.453125 73.117188 57.707031 71.949219 57.769531 70.671875 C 57.824219 69.757812 57.785156 68.78125 57.625 67.703125 C 57.460938 66.613281 57.125 64.179688 55.9375 61.804688 C 55.398438 60.707031 54.671875 59.613281 53.699219 58.667969 C 53.359375 58.34375 53 58.035156 52.601562 57.753906 C 47.960938 54.429688 44.089844 57.511719 38.601562 55.296875 C 31.085938 52.261719 25.804688 41.378906 28.6875 36.6875 C 30.175781 34.273438 33.960938 33.304688 38.292969 33.589844 C 39.503906 33.65625 40.753906 33.835938 42.011719 34.105469 C 44.257812 34.574219 46.519531 35.347656 48.574219 36.394531 C 48.574219 36.394531 48.574219 36.394531 48.582031 36.394531 C 49.632812 36.925781 50.625 37.535156 51.535156 38.203125 C 52.402344 38.839844 53.144531 39.539062 53.90625 40.378906 C 53.90625 40.378906 53.90625 40.378906 53.90625 40.386719 C 54.71875 41.285156 55.53125 42.347656 56.535156 43.65625 C 57.109375 44.410156 57.753906 45.253906 58.484375 46.191406 C 59.695312 47.761719 61.679688 50.332031 63.550781 53.792969 C 63.851562 54.34375 64.148438 54.929688 64.441406 55.53125 C 64.945312 56.582031 65.4375 57.707031 65.890625 58.898438 C 66.050781 59.3125 66.203125 59.742188 66.347656 60.183594 C 66.417969 60.382812 66.496094 60.613281 66.578125 60.875 C 67.117188 62.503906 67.921875 65.226562 68.304688 68.664062 C 68.382812 69.3125 68.433594 69.980469 68.472656 70.671875 C 68.542969 71.824219 68.550781 73.046875 68.480469 74.316406 C 68.449219 74.972656 68.390625 75.648438 68.3125 76.324219 C 68.136719 77.894531 67.867188 79.277344 67.5625 80.515625 C 66.71875 83.890625 65.550781 86.230469 64.824219 88.597656 C 64.671875 89.074219 64.539062 89.558594 64.433594 90.042969 C 64.1875 91.175781 64.066406 92.351562 64.15625 93.691406 C 64.1875 94.265625 64.265625 94.867188 64.378906 95.511719 C 64.425781 95.757812 64.484375 96.097656 64.578125 96.503906 C 65.039062 98.628906 66.1875 102.472656 69.179688 103.742188 C 69.1875 103.75 69.203125 103.75 69.210938 103.757812 C 69.269531 103.78125 69.324219 103.804688 69.386719 103.820312 C 70.480469 104.234375 71.738281 104.289062 73.042969 104.050781 C 75.214844 103.65625 77.511719 102.480469 79.4375 100.84375 C 80.367188 100.050781 81.210938 99.144531 81.90625 98.171875 C 82.03125 98.003906 82.144531 97.835938 82.257812 97.660156 C 82.390625 97.449219 82.519531 97.25 82.636719 97.042969 C 83.894531 94.828125 84.199219 92.628906 84.015625 90.253906 C 83.976562 89.691406 83.90625 89.113281 83.816406 88.53125 C 83.632812 87.300781 83.347656 86.023438 83.027344 84.652344 L 83.027344 84.644531 C 82.910156 84.152344 82.789062 83.660156 82.671875 83.144531 L 82.664062 83.144531 C 82.167969 81.054688 81.636719 78.769531 81.253906 76.21875 C 81.101562 75.203125 80.972656 74.148438 80.871094 73.039062 C 80.765625 71.847656 80.703125 70.601562 80.6875 69.289062 C 80.6875 68.941406 80.6875 68.589844 80.695312 68.226562 C 80.71875 66.710938 80.816406 65.105469 81.007812 63.414062 C 81.09375 62.695312 81.179688 61.964844 81.269531 61.226562 C 81.355469 60.636719 81.429688 60.035156 81.53125 59.4375 C 81.707031 58.246094 81.929688 57.050781 82.230469 55.867188 C 82.558594 54.53125 82.980469 53.222656 83.53125 51.945312 C 83.570312 51.851562 83.617188 51.753906 83.664062 51.660156 C 84.636719 49.492188 86 47.445312 87.980469 45.65625 C 88.769531 44.941406 89.636719 44.285156 90.570312 43.703125 C 90.585938 43.695312 90.59375 43.6875 90.609375 43.679688 C 91.804688 42.910156 93.101562 42.261719 94.457031 41.746094 C 95.59375 41.316406 96.765625 40.980469 97.953125 40.742188 C 99.058594 40.515625 100.1875 40.386719 101.296875 40.363281 C 101.703125 40.347656 102.101562 40.347656 102.5 40.363281 C 104.941406 40.457031 107.316406 41.046875 109.433594 42.246094 C 110.023438 42.578125 110.566406 42.949219 111.074219 43.347656 C 111.464844 43.648438 111.832031 43.96875 112.179688 44.308594 C 112.828125 44.933594 113.40625 45.617188 113.917969 46.332031 C 114.648438 47.332031 115.246094 48.398438 115.742188 49.492188 C 115.925781 49.890625 116.105469 50.292969 116.257812 50.699219 C 117.332031 53.414062 117.859375 56.167969 118.21875 58.3125 C 118.273438 58.652344 118.320312 58.976562 118.375 59.28125 C 118.382812 59.328125 118.390625 59.382812 118.398438 59.429688 C 118.597656 60.683594 118.71875 61.890625 118.789062 63.050781 C 118.925781 65.433594 118.8125 67.617188 118.527344 69.671875 C 118.152344 72.503906 117.46875 75.070312 116.726562 77.507812 C 116.585938 77.960938 116.449219 78.410156 116.3125 78.855469 C 115.921875 80.140625 115.511719 81.402344 115.144531 82.644531 C 115 83.132812 114.863281 83.625 114.738281 84.109375 C 114.003906 86.851562 113.527344 89.597656 113.703125 92.582031 C 113.804688 94.359375 114.140625 96.210938 114.800781 98.195312 C 114.847656 98.328125 114.886719 98.457031 114.929688 98.582031 C 115.359375 99.828125 115.867188 100.972656 116.417969 102.027344 C 117.222656 103.574219 118.113281 104.933594 118.980469 106.101562 C 121.496094 109.5 123.800781 111.378906 123.203125 112.007812 Z M 123.203125 112.007812 " fill-opacity="1" fill-rule="nonzero"/></g><g clip-path="url(#a391b4f4bb)"><path fill="#ffffff" d="M 53.980469 39.265625 C 53.980469 39.847656 53.925781 40.425781 53.8125 41 C 53.699219 41.570312 53.53125 42.125 53.308594 42.667969 C 53.085938 43.207031 52.8125 43.71875 52.488281 44.203125 C 52.164062 44.6875 51.796875 45.136719 51.386719 45.550781 C 50.972656 45.964844 50.527344 46.332031 50.042969 46.65625 C 49.558594 46.980469 49.046875 47.253906 48.511719 47.476562 C 47.972656 47.699219 47.417969 47.871094 46.847656 47.984375 C 46.277344 48.097656 45.699219 48.152344 45.117188 48.152344 C 44.535156 48.152344 43.960938 48.097656 43.390625 47.984375 C 42.816406 47.871094 42.265625 47.699219 41.726562 47.476562 C 41.1875 47.253906 40.675781 46.980469 40.195312 46.65625 C 39.710938 46.332031 39.261719 45.964844 38.851562 45.550781 C 38.4375 45.136719 38.070312 44.6875 37.75 44.203125 C 37.425781 43.71875 37.152344 43.207031 36.929688 42.667969 C 36.707031 42.125 36.539062 41.570312 36.425781 41 C 36.3125 40.425781 36.253906 39.847656 36.253906 39.265625 C 36.253906 38.679688 36.3125 38.101562 36.425781 37.53125 C 36.539062 36.957031 36.707031 36.402344 36.929688 35.863281 C 37.152344 35.324219 37.425781 34.808594 37.75 34.324219 C 38.070312 33.839844 38.4375 33.390625 38.851562 32.976562 C 39.261719 32.566406 39.710938 32.195312 40.195312 31.871094 C 40.675781 31.546875 41.1875 31.273438 41.726562 31.050781 C 42.265625 30.828125 42.816406 30.660156 43.390625 30.542969 C 43.960938 30.429688 44.535156 30.375 45.117188 30.375 C 45.699219 30.375 46.277344 30.429688 46.847656 30.542969 C 47.417969 30.660156 47.972656 30.828125 48.511719 31.050781 C 49.046875 31.273438 49.558594 31.546875 50.042969 31.871094 C 50.527344 32.195312 50.972656 32.566406 51.386719 32.976562 C 51.796875 33.390625 52.164062 33.839844 52.488281 34.324219 C 52.8125 34.808594 53.085938 35.324219 53.308594 35.863281 C 53.53125 36.402344 53.699219 36.957031 53.8125 37.53125 C 53.925781 38.101562 53.980469 38.679688 53.980469 39.265625 Z M 53.980469 39.265625 " fill-opacity="1" fill-rule="nonzero"/></g><path fill="#000000" d="M 50.675781 41.546875 C 49.472656 44.507812 46.152344 46.023438 43.117188 44.949219 C 39.988281 43.839844 38.347656 40.402344 39.453125 37.257812 C 40.554688 34.109375 43.992188 32.464844 47.121094 33.574219 C 48.554688 34.082031 49.679688 35.082031 50.363281 36.320312 C 48.953125 35.894531 47.457031 36.65625 46.964844 38.054688 C 46.453125 39.511719 47.210938 41.09375 48.660156 41.609375 C 49.34375 41.863281 50.0625 41.816406 50.675781 41.546875 Z M 50.675781 41.546875 " fill-opacity="1" fill-rule="nonzero"/><path stroke-linecap="round" transform="matrix(0.766753, 0, 0, 0.769056, 27.889077, 30.373673)" fill="none" stroke-linejoin="round" d="M 2.829486 15.808437 C 3.277805 17.230634 4.678802 18.109349 6.0798 17.911257 C 7.33815 17.728403 8.372341 16.717627 8.581217 15.412253 " stroke="#a8a118" stroke-width="1" stroke-opacity="1" stroke-miterlimit="10"/><path fill="#b7b325" d="M 68.480469 74.316406 L 57.101562 74.316406 C 57.453125 73.117188 57.707031 71.949219 57.769531 70.671875 L 68.472656 70.671875 C 68.542969 71.824219 68.550781 73.046875 68.480469 74.316406 Z M 68.480469 74.316406 " fill-opacity="1" fill-rule="nonzero"/><path fill="#b7b325" d="M 64.15625 93.691406 L 51.605469 93.691406 C 51.773438 92.496094 52.011719 91.28125 52.292969 90.042969 L 64.433594 90.042969 C 64.1875 91.175781 64.066406 92.351562 64.15625 93.691406 Z M 64.15625 93.691406 " fill-opacity="1" fill-rule="nonzero"/><g clip-path="url(#fc0e65610b)"><path fill="#b7b325" d="M 73.042969 104.050781 L 70.859375 115.039062 C 69.847656 114.976562 68.605469 114.855469 67.238281 114.59375 L 69.386719 103.820312 C 70.480469 104.234375 71.738281 104.289062 73.042969 104.050781 Z M 73.042969 104.050781 " fill-opacity="1" fill-rule="nonzero"/></g><path fill="#b7b325" d="M 91.324219 107.617188 C 90.878906 108.226562 90.371094 108.800781 89.820312 109.363281 C 89.496094 109.6875 89.175781 109.988281 88.839844 110.269531 L 79.4375 100.84375 C 80.367188 100.050781 81.210938 99.144531 81.90625 98.171875 Z M 91.324219 107.617188 " fill-opacity="1" fill-rule="nonzero"/><path fill="#b7b325" d="M 95.65625 89.113281 C 95.640625 89.699219 95.625 90.296875 95.609375 90.890625 L 83.816406 88.53125 C 83.632812 87.300781 83.347656 86.023438 83.027344 84.652344 L 95.664062 87.183594 C 95.671875 87.808594 95.671875 88.445312 95.65625 89.113281 Z M 95.65625 89.113281 " fill-opacity="1" fill-rule="nonzero"/><path fill="#b7b325" d="M 94.289062 75.734375 L 80.871094 73.039062 C 80.765625 71.847656 80.703125 70.601562 80.6875 69.289062 L 93.667969 71.894531 C 93.820312 73.179688 94.042969 74.433594 94.289062 75.734375 Z M 94.289062 75.734375 " fill-opacity="1" fill-rule="nonzero"/><path fill="#b7b325" d="M 95.132812 58.453125 C 94.710938 59.773438 94.4375 60.960938 94.273438 61.628906 C 94.242188 61.742188 94.222656 61.867188 94.199219 61.980469 L 81.53125 59.4375 C 81.707031 58.246094 81.929688 57.050781 82.230469 55.867188 Z M 95.132812 58.453125 " fill-opacity="1" fill-rule="nonzero"/><path fill="#b7b325" d="M 100.851562 52.316406 C 100.476562 52.191406 100.101562 52.136719 99.71875 52.175781 C 98.84375 52.269531 98.09375 52.832031 97.441406 53.644531 L 94.457031 41.746094 C 95.59375 41.316406 96.765625 40.980469 97.953125 40.742188 Z M 100.851562 52.316406 " fill-opacity="1" fill-rule="nonzero"/><path fill="#b7b325" d="M 65.890625 58.898438 L 55.9375 61.804688 C 55.398438 60.707031 54.671875 59.613281 53.699219 58.667969 L 64.441406 55.53125 C 64.945312 56.582031 65.4375 57.707031 65.890625 58.898438 Z M 65.890625 58.898438 " fill-opacity="1" fill-rule="nonzero"/><path fill="#b7b325" d="M 118.789062 63.050781 L 107.394531 64.273438 C 107.308594 63.128906 107.125 61.921875 106.78125 60.683594 L 118.398438 59.429688 C 118.597656 60.683594 118.71875 61.890625 118.789062 63.050781 Z M 118.789062 63.050781 " fill-opacity="1" fill-rule="nonzero"/><path fill="#b7b325" d="M 115.742188 49.492188 L 105.101562 56.699219 C 104.785156 56.167969 103.988281 54.84375 102.929688 53.769531 L 113.917969 46.332031 C 114.648438 47.332031 115.246094 48.398438 115.742188 49.492188 Z M 115.742188 49.492188 " fill-opacity="1" fill-rule="nonzero"/><path fill="#b7b325" d="M 116.3125 78.855469 C 115.921875 80.140625 115.511719 81.402344 115.144531 82.644531 L 105.9375 83.636719 C 106.019531 82.46875 106.121094 81.238281 106.234375 79.9375 Z M 116.3125 78.855469 " fill-opacity="1" fill-rule="nonzero"/><path fill="#b7b325" d="M 116.417969 102.027344 L 109.28125 103.179688 C 108.582031 102.195312 107.953125 101.132812 107.441406 99.996094 C 107.410156 99.933594 107.386719 99.875 107.355469 99.8125 L 114.929688 98.582031 C 115.359375 99.828125 115.867188 100.972656 116.417969 102.027344 Z M 116.417969 102.027344 " fill-opacity="1" fill-rule="nonzero"/><path fill="#a8a118" d="M 66.578125 60.875 C 67.117188 62.503906 67.921875 65.226562 68.304688 68.664062 C 64.839844 68.941406 61.417969 67.386719 61.25 65.902344 C 61.171875 65.257812 61.824219 64.679688 63.121094 63.550781 C 64.277344 62.542969 65.40625 61.566406 66.578125 60.875 Z M 66.578125 60.875 " fill-opacity="1" fill-rule="nonzero"/><path fill="#a8a118" d="M 63.550781 53.792969 C 58.351562 54.574219 53.773438 53.683594 52.808594 51.660156 C 52.210938 50.429688 53.230469 48.808594 55.269531 45.617188 C 55.691406 44.953125 56.113281 44.300781 56.535156 43.65625 C 57.109375 44.410156 57.753906 45.253906 58.484375 46.191406 C 59.695312 47.761719 61.679688 50.332031 63.550781 53.792969 Z M 63.550781 53.792969 " fill-opacity="1" fill-rule="nonzero"/><path fill="#a8a118" d="M 62.414062 79.441406 C 62.617188 81.914062 59.1875 83.59375 58.789062 83.777344 C 57.203125 84.53125 55.378906 84.699219 53.730469 84.507812 C 53.820312 84.167969 53.914062 83.839844 54.003906 83.5 C 54.910156 80.230469 55.890625 77.886719 56.621094 75.785156 C 57.09375 75.710938 57.585938 75.710938 58.089844 75.792969 C 59.902344 76.085938 62.261719 77.464844 62.414062 79.441406 Z M 62.414062 79.441406 " fill-opacity="1" fill-rule="nonzero"/><path fill="#a8a118" d="M 67.5625 80.515625 C 66.71875 83.890625 65.550781 86.230469 64.824219 88.597656 C 62.222656 87.914062 60.191406 86.375 60.230469 85.175781 C 60.253906 84.53125 60.972656 84.054688 62.414062 83.125 C 64.164062 81.992188 65.851562 80.910156 67.5625 80.515625 Z M 67.5625 80.515625 " fill-opacity="1" fill-rule="nonzero"/><path fill="#a8a118" d="M 59.785156 100.089844 C 59.632812 102.566406 56 103.742188 55.585938 103.863281 C 54.632812 104.15625 53.644531 104.257812 52.671875 104.203125 C 51.558594 101.78125 51.214844 99.195312 51.34375 96.480469 C 52.894531 95.734375 54.433594 95.367188 56.019531 95.867188 C 57.769531 96.414062 59.910156 98.121094 59.785156 100.089844 Z M 59.785156 100.089844 " fill-opacity="1" fill-rule="nonzero"/><path fill="#a8a118" d="M 69.179688 103.742188 C 66.625 106.792969 62.0625 108.023438 60.90625 106.792969 C 60.460938 106.324219 60.628906 105.472656 60.988281 103.789062 C 61.640625 100.742188 62.261719 97.867188 64.578125 96.503906 C 65.039062 98.628906 66.1875 102.472656 69.179688 103.742188 Z M 69.179688 103.742188 " fill-opacity="1" fill-rule="nonzero"/><g clip-path="url(#d178f2c710)"><path fill="#a8a118" d="M 82.152344 113.894531 C 79.277344 114.792969 76.539062 115.023438 74.644531 115.078125 C 73.777344 113.46875 73.296875 111.863281 73.773438 110.171875 C 74.261719 108.394531 75.886719 106.195312 77.859375 106.265625 C 80.335938 106.339844 81.617188 109.949219 81.753906 110.363281 C 82.136719 111.5 82.246094 112.714844 82.152344 113.894531 Z M 82.152344 113.894531 " fill-opacity="1" fill-rule="nonzero"/></g><path fill="#a8a118" d="M 90.355469 95.675781 C 90.15625 96.167969 89.460938 96.335938 88.070312 96.644531 C 86.109375 97.074219 84.230469 97.488281 82.636719 97.042969 C 83.894531 94.828125 84.199219 92.628906 84.015625 90.253906 C 87.734375 90.574219 90.945312 94.214844 90.355469 95.675781 Z M 90.355469 95.675781 " fill-opacity="1" fill-rule="nonzero"/><path fill="#a8a118" d="M 89.273438 81.59375 C 89.074219 82.085938 88.378906 82.253906 86.992188 82.5625 C 85.472656 82.898438 84 83.222656 82.671875 83.144531 L 82.664062 83.144531 C 82.167969 81.054688 81.636719 78.769531 81.253906 76.21875 C 81.976562 76.117188 82.582031 76.148438 82.726562 76.15625 C 86.53125 76.363281 89.875 80.101562 89.273438 81.59375 Z M 89.273438 81.59375 " fill-opacity="1" fill-rule="nonzero"/><path fill="#a8a118" d="M 83.363281 67.328125 C 82.566406 67.941406 81.667969 68.1875 80.695312 68.226562 C 80.71875 66.710938 80.816406 65.105469 81.007812 63.414062 C 81.09375 62.695312 81.179688 61.964844 81.269531 61.226562 C 82.304688 61.242188 84.429688 61.472656 85.089844 62.964844 C 85.75 64.457031 84.566406 66.394531 83.363281 67.328125 Z M 83.363281 67.328125 " fill-opacity="1" fill-rule="nonzero"/><path fill="#a8a118" d="M 95.042969 51.605469 C 94.183594 53.613281 88.140625 54.175781 83.664062 51.660156 C 84.636719 49.492188 86 47.445312 87.980469 45.65625 C 88.769531 44.941406 89.636719 44.285156 90.570312 43.703125 C 90.585938 43.695312 90.59375 43.6875 90.609375 43.679688 C 91.667969 44.925781 92.617188 46.425781 93.59375 47.96875 C 94.78125 49.871094 95.371094 50.832031 95.042969 51.605469 Z M 95.042969 51.605469 " fill-opacity="1" fill-rule="nonzero"/><path fill="#a8a118" d="M 111.074219 43.347656 C 110.03125 44.695312 108.667969 45.96875 107.261719 47.277344 C 105.628906 48.800781 104.792969 49.5625 103.972656 49.378906 C 102.15625 48.96875 100.675781 44.664062 101.296875 40.363281 C 101.703125 40.347656 102.101562 40.347656 102.5 40.363281 C 104.941406 40.457031 107.316406 41.046875 109.433594 42.246094 C 110.023438 42.578125 110.566406 42.949219 111.074219 43.347656 Z M 111.074219 43.347656 " fill-opacity="1" fill-rule="nonzero"/><path fill="#a8a118" d="M 118.21875 58.3125 C 117.085938 58.082031 115.914062 57.714844 114.707031 57.34375 C 112.960938 56.796875 112.085938 56.515625 111.878906 55.851562 C 111.472656 54.53125 113.441406 52.113281 116.257812 50.699219 C 117.332031 53.414062 117.859375 56.167969 118.21875 58.3125 Z M 118.21875 58.3125 " fill-opacity="1" fill-rule="nonzero"/><path fill="#a8a118" d="M 111.234375 73.441406 C 109.886719 74.308594 108.390625 74.449219 106.789062 74.226562 C 106.925781 72.902344 107.0625 71.511719 107.21875 70.058594 C 107.339844 68.925781 107.515625 67.296875 107.453125 65.402344 C 107.808594 65.367188 108.160156 65.351562 108.511719 65.359375 C 108.980469 65.375 113.035156 65.535156 113.902344 68.035156 C 114.585938 70.027344 112.867188 72.378906 111.234375 73.441406 Z M 111.234375 73.441406 " fill-opacity="1" fill-rule="nonzero"/><path fill="#a8a118" d="M 118.527344 69.671875 C 118.152344 72.503906 117.46875 75.070312 116.726562 77.507812 C 116.203125 77.363281 115.683594 77.203125 115.152344 77.03125 C 113.414062 76.484375 112.539062 76.203125 112.332031 75.546875 C 111.839844 73.957031 114.800781 70.765625 118.527344 69.671875 Z M 118.527344 69.671875 " fill-opacity="1" fill-rule="nonzero"/><path fill="#a8a118" d="M 113.703125 92.582031 C 112.667969 92.351562 111.59375 92.019531 110.507812 91.683594 C 108.757812 91.136719 107.882812 90.851562 107.675781 90.191406 C 107.148438 88.492188 110.613281 84.921875 114.738281 84.109375 C 114.003906 86.851562 113.527344 89.597656 113.703125 92.582031 Z M 113.703125 92.582031 " fill-opacity="1" fill-rule="nonzero"/><path fill="#a8a118" d="M 110.707031 95.207031 C 110.730469 95.890625 109.992188 96.441406 108.519531 97.527344 C 107.976562 97.925781 107.441406 98.320312 106.910156 98.679688 C 106.21875 96.726562 105.851562 94.519531 105.730469 91.890625 C 108.484375 92.460938 110.675781 93.945312 110.707031 95.207031 Z M 110.707031 95.207031 " fill-opacity="1" fill-rule="nonzero"/><g clip-path="url(#d0b19b2f95)"><path fill="#a8a118" d="M 123.203125 112.007812 C 122.550781 112.699219 118.816406 111.585938 114.976562 108.839844 C 116.035156 107.234375 118.335938 106.332031 118.671875 106.203125 C 118.773438 106.164062 118.871094 106.125 118.980469 106.101562 C 121.496094 109.5 123.800781 111.378906 123.203125 112.007812 Z M 123.203125 112.007812 " fill-opacity="1" fill-rule="nonzero"/></g><path fill="#a8a118" d="M 94.980469 98.464844 C 94.582031 100.8125 93.929688 103.089844 92.839844 105.195312 C 91.230469 104.710938 89.867188 103.996094 89.121094 102.582031 C 88.386719 101.1875 88.101562 98.859375 89.359375 97.734375 C 90.945312 96.320312 93.859375 97.804688 94.191406 97.972656 C 94.464844 98.121094 94.726562 98.28125 94.980469 98.464844 Z M 94.980469 98.464844 " fill-opacity="1" fill-rule="nonzero"/><path fill="#a8a118" d="M 95.632812 86.007812 C 93.898438 85.515625 92.433594 84.800781 91.644531 83.308594 C 90.910156 81.914062 90.625 79.585938 91.882812 78.460938 C 92.65625 77.769531 93.753906 77.769531 94.703125 77.96875 C 95.132812 80.308594 95.515625 82.871094 95.632812 86.007812 Z M 95.632812 86.007812 " fill-opacity="1" fill-rule="nonzero"/><path fill="#a8a118" d="M 93.554688 70.742188 C 93.460938 70.726562 93.371094 70.710938 93.277344 70.6875 C 90.59375 70.109375 88.0625 69.574219 86.9375 67.433594 C 86.199219 66.042969 85.917969 63.710938 87.175781 62.589844 C 88.761719 61.175781 91.675781 62.660156 92.003906 62.828125 C 92.671875 63.175781 93.261719 63.644531 93.785156 64.171875 C 93.394531 66.632812 93.378906 68.742188 93.554688 70.742188 Z M 93.554688 70.742188 " fill-opacity="1" fill-rule="nonzero"/></svg>