<svg xmlns="http://www.w3.org/2000/svg" xmlns:xlink="http://www.w3.org/1999/xlink" width="200" zoomAndPan="magnify" viewBox="0 0 150 149.999998" height="200" preserveAspectRatio="xMidYMid meet" version="1.0"><defs><clipPath id="d5148447a0"><path d="M 75 0 C 33.578125 0 0 33.578125 0 75 C 0 116.421875 33.578125 150 75 150 C 116.421875 150 150 116.421875 150 75 C 150 33.578125 116.421875 0 75 0 Z M 75 0 " clip-rule="nonzero"/></clipPath><clipPath id="0052070746"><path d="M 37 23.449219 L 47 23.449219 L 47 33 L 37 33 Z M 37 23.449219 " clip-rule="nonzero"/></clipPath><clipPath id="5303d28197"><path d="M 47 23.449219 L 57 23.449219 L 57 33 L 47 33 Z M 47 23.449219 " clip-rule="nonzero"/></clipPath><clipPath id="7165d860a0"><path d="M 43 50 L 46 50 L 46 53.660156 L 43 53.660156 Z M 43 50 " clip-rule="nonzero"/></clipPath><clipPath id="855f030a9c"><path d="M 51.472656 48.074219 C 52.335938 49.9375 49.800781 53.222656 47.203125 53.441406 C 44.605469 53.660156 41.539062 50.878906 42.066406 48.898438 C 42.6875 46.550781 44.066406 48.859375 46.660156 48.628906 C 49.253906 48.398438 50.449219 45.867188 51.472656 48.074219 Z M 51.472656 48.074219 " clip-rule="nonzero"/></clipPath><clipPath id="f069eeb8a0"><path d="M 48 50 L 51 50 L 51 53.660156 L 48 53.660156 Z M 48 50 " clip-rule="nonzero"/></clipPath><clipPath id="7e8c4d74f3"><path d="M 51.472656 48.074219 C 52.335938 49.9375 49.800781 53.222656 47.203125 53.441406 C 44.605469 53.660156 41.539062 50.878906 42.066406 48.898438 C 42.6875 46.550781 44.066406 48.859375 46.660156 48.628906 C 49.253906 48.398438 50.449219 45.867188 51.472656 48.074219 Z M 51.472656 48.074219 " clip-rule="nonzero"/></clipPath><clipPath id="7ff4b1804d"><path d="M 21.386719 95 L 35 95 L 35 115 L 21.386719 115 Z M 21.386719 95 " clip-rule="nonzero"/></clipPath><clipPath id="d2badddf87"><path d="M 54.914062 38.910156 C 50.5625 36.8125 46.089844 36.488281 41.484375 37.941406 C 37.574219 39.203125 33.332031 42.082031 32.828125 48.554688 C 31.871094 60.890625 31.648438 74.429688 27.054688 83.792969 C 22.464844 93.160156 12.226562 118.5 41.253906 119.972656 C 70.285156 121.441406 69.71875 115.9375 92.273438 119.179688 C 114.824219 122.425781 138.21875 112.238281 126.007812 112.390625 C 113.796875 112.539062 104.347656 96.90625 85.65625 98.824219 C 66.964844 100.746094 61.664062 91.644531 63.496094 76.996094 C 65.109375 64.101562 68.730469 45.460938 54.914062 38.910156 Z M 54.914062 38.910156 " clip-rule="nonzero"/></clipPath><clipPath id="30136cc2d4"><path d="M 42 101 L 50 101 L 50 109 L 42 109 Z M 42 101 " clip-rule="nonzero"/></clipPath><clipPath id="45aea61cde"><path d="M 54.914062 38.910156 C 50.5625 36.8125 46.089844 36.488281 41.484375 37.941406 C 37.574219 39.203125 33.332031 42.082031 32.828125 48.554688 C 31.871094 60.890625 31.648438 74.429688 27.054688 83.792969 C 22.464844 93.160156 12.226562 118.5 41.253906 119.972656 C 70.285156 121.441406 69.71875 115.9375 92.273438 119.179688 C 114.824219 122.425781 138.21875 112.238281 126.007812 112.390625 C 113.796875 112.539062 104.347656 96.90625 85.65625 98.824219 C 66.964844 100.746094 61.664062 91.644531 63.496094 76.996094 C 65.109375 64.101562 68.730469 45.460938 54.914062 38.910156 Z M 54.914062 38.910156 " clip-rule="nonzero"/></clipPath><clipPath id="febb303701"><path d="M 99 114 L 112 114 L 112 120.253906 L 99 120.253906 Z M 99 114 " clip-rule="nonzero"/></clipPath><clipPath id="9b3d31a141"><path d="M 54.914062 38.910156 C 50.5625 36.8125 46.089844 36.488281 41.484375 37.941406 C 37.574219 39.203125 33.332031 42.082031 32.828125 48.554688 C 31.871094 60.890625 31.648438 74.429688 27.054688 83.792969 C 22.464844 93.160156 12.226562 118.5 41.253906 119.972656 C 70.285156 121.441406 69.71875 115.9375 92.273438 119.179688 C 114.824219 122.425781 138.21875 112.238281 126.007812 112.390625 C 113.796875 112.539062 104.347656 96.90625 85.65625 98.824219 C 66.964844 100.746094 61.664062 91.644531 63.496094 76.996094 C 65.109375 64.101562 68.730469 45.460938 54.914062 38.910156 Z M 54.914062 38.910156 " clip-rule="nonzero"/></clipPath><clipPath id="439162730a"><path d="M 54 112 L 60 112 L 60 117 L 54 117 Z M 54 112 " clip-rule="nonzero"/></clipPath><clipPath id="60736bb8f7"><path d="M 54.914062 38.910156 C 50.5625 36.8125 46.089844 36.488281 41.484375 37.941406 C 37.574219 39.203125 33.332031 42.082031 32.828125 48.554688 C 31.871094 60.890625 31.648438 74.429688 27.054688 83.792969 C 22.464844 93.160156 12.226562 118.5 41.253906 119.972656 C 70.285156 121.441406 69.71875 115.9375 92.273438 119.179688 C 114.824219 122.425781 138.21875 112.238281 126.007812 112.390625 C 113.796875 112.539062 104.347656 96.90625 85.65625 98.824219 C 66.964844 100.746094 61.664062 91.644531 63.496094 76.996094 C 65.109375 64.101562 68.730469 45.460938 54.914062 38.910156 Z M 54.914062 38.910156 " clip-rule="nonzero"/></clipPath><clipPath id="a179582162"><path d="M 41 69 L 44 69 L 44 72 L 41 72 Z M 41 69 " clip-rule="nonzero"/></clipPath><clipPath id="cac2d8feb7"><path d="M 54.914062 38.910156 C 50.5625 36.8125 46.089844 36.488281 41.484375 37.941406 C 37.574219 39.203125 33.332031 42.082031 32.828125 48.554688 C 31.871094 60.890625 31.648438 74.429688 27.054688 83.792969 C 22.464844 93.160156 12.226562 118.5 41.253906 119.972656 C 70.285156 121.441406 69.71875 115.9375 92.273438 119.179688 C 114.824219 122.425781 138.21875 112.238281 126.007812 112.390625 C 113.796875 112.539062 104.347656 96.90625 85.65625 98.824219 C 66.964844 100.746094 61.664062 91.644531 63.496094 76.996094 C 65.109375 64.101562 68.730469 45.460938 54.914062 38.910156 Z M 54.914062 38.910156 " clip-rule="nonzero"/></clipPath><clipPath id="a7fc2847a5"><path d="M 90 115 L 93 115 L 93 118 L 90 118 Z M 90 115 " clip-rule="nonzero"/></clipPath><clipPath id="08a59bd38a"><path d="M 54.914062 38.910156 C 50.5625 36.8125 46.089844 36.488281 41.484375 37.941406 C 37.574219 39.203125 33.332031 42.082031 32.828125 48.554688 C 31.871094 60.890625 31.648438 74.429688 27.054688 83.792969 C 22.464844 93.160156 12.226562 118.5 41.253906 119.972656 C 70.285156 121.441406 69.71875 115.9375 92.273438 119.179688 C 114.824219 122.425781 138.21875 112.238281 126.007812 112.390625 C 113.796875 112.539062 104.347656 96.90625 85.65625 98.824219 C 66.964844 100.746094 61.664062 91.644531 63.496094 76.996094 C 65.109375 64.101562 68.730469 45.460938 54.914062 38.910156 Z M 54.914062 38.910156 " clip-rule="nonzero"/></clipPath><clipPath id="5f829932bc"><path d="M 35 72 L 40 72 L 40 77 L 35 77 Z M 35 72 " clip-rule="nonzero"/></clipPath><clipPath id="7e31735c37"><path d="M 54.914062 38.910156 C 50.5625 36.8125 46.089844 36.488281 41.484375 37.941406 C 37.574219 39.203125 33.332031 42.082031 32.828125 48.554688 C 31.871094 60.890625 31.648438 74.429688 27.054688 83.792969 C 22.464844 93.160156 12.226562 118.5 41.253906 119.972656 C 70.285156 121.441406 69.71875 115.9375 92.273438 119.179688 C 114.824219 122.425781 138.21875 112.238281 126.007812 112.390625 C 113.796875 112.539062 104.347656 96.90625 85.65625 98.824219 C 66.964844 100.746094 61.664062 91.644531 63.496094 76.996094 C 65.109375 64.101562 68.730469 45.460938 54.914062 38.910156 Z M 54.914062 38.910156 " clip-rule="nonzero"/></clipPath><clipPath id="b81bf87050"><path d="M 85 44 L 119 44 L 119 53 L 85 53 Z M 85 44 " clip-rule="nonzero"/></clipPath><clipPath id="8abd664307"><path d="M 122.726562 84.121094 C 123.246094 82.855469 123.601562 81.542969 123.796875 80.1875 C 124.410156 75.878906 123.304688 71.628906 120.902344 67.867188 C 121.128906 67.140625 121.300781 66.398438 121.410156 65.644531 C 122.3125 59.335938 118.855469 53.175781 112.878906 49.042969 C 111.859375 43.347656 108.617188 37.882812 103.644531 36.644531 C 98.070312 35.257812 91.925781 39.585938 88.480469 44.96875 C 80.929688 47.046875 75.292969 52.195312 74.335938 58.90625 C 74.21875 59.734375 74.175781 60.566406 74.203125 61.402344 C 70.960938 64.308594 68.792969 68.011719 68.191406 72.230469 C 68.011719 73.492188 67.976562 74.761719 68.085938 76.035156 C 63.367188 79.378906 60.210938 83.898438 59.457031 89.179688 C 57.589844 102.265625 72.851562 108.28125 91.527344 110.953125 C 110.203125 113.628906 125.21875 111.949219 127.09375 98.859375 C 127.839844 93.695312 126.167969 88.585938 122.726562 84.121094 Z M 122.726562 84.121094 " clip-rule="nonzero"/></clipPath><clipPath id="082f89d6e2"><path d="M 70 61 L 126 61 L 126 71 L 70 71 Z M 70 61 " clip-rule="nonzero"/></clipPath><clipPath id="05e2ca625a"><path d="M 122.726562 84.121094 C 123.246094 82.855469 123.601562 81.542969 123.796875 80.1875 C 124.410156 75.878906 123.304688 71.628906 120.902344 67.867188 C 121.128906 67.140625 121.300781 66.398438 121.410156 65.644531 C 122.3125 59.335938 118.855469 53.175781 112.878906 49.042969 C 111.859375 43.347656 108.617188 37.882812 103.644531 36.644531 C 98.070312 35.257812 91.925781 39.585938 88.480469 44.96875 C 80.929688 47.046875 75.292969 52.195312 74.335938 58.90625 C 74.21875 59.734375 74.175781 60.566406 74.203125 61.402344 C 70.960938 64.308594 68.792969 68.011719 68.191406 72.230469 C 68.011719 73.492188 67.976562 74.761719 68.085938 76.035156 C 63.367188 79.378906 60.210938 83.898438 59.457031 89.179688 C 57.589844 102.265625 72.851562 108.28125 91.527344 110.953125 C 110.203125 113.628906 125.21875 111.949219 127.09375 98.859375 C 127.839844 93.695312 126.167969 88.585938 122.726562 84.121094 Z M 122.726562 84.121094 " clip-rule="nonzero"/></clipPath><clipPath id="002ecb0a72"><path d="M 63 75 L 127 75 L 127 86 L 63 86 Z M 63 75 " clip-rule="nonzero"/></clipPath><clipPath id="a8063076be"><path d="M 122.726562 84.121094 C 123.246094 82.855469 123.601562 81.542969 123.796875 80.1875 C 124.410156 75.878906 123.304688 71.628906 120.902344 67.867188 C 121.128906 67.140625 121.300781 66.398438 121.410156 65.644531 C 122.3125 59.335938 118.855469 53.175781 112.878906 49.042969 C 111.859375 43.347656 108.617188 37.882812 103.644531 36.644531 C 98.070312 35.257812 91.925781 39.585938 88.480469 44.96875 C 80.929688 47.046875 75.292969 52.195312 74.335938 58.90625 C 74.21875 59.734375 74.175781 60.566406 74.203125 61.402344 C 70.960938 64.308594 68.792969 68.011719 68.191406 72.230469 C 68.011719 73.492188 67.976562 74.761719 68.085938 76.035156 C 63.367188 79.378906 60.210938 83.898438 59.457031 89.179688 C 57.589844 102.265625 72.851562 108.28125 91.527344 110.953125 C 110.203125 113.628906 125.21875 111.949219 127.09375 98.859375 C 127.839844 93.695312 126.167969 88.585938 122.726562 84.121094 Z M 122.726562 84.121094 " clip-rule="nonzero"/></clipPath></defs><g clip-path="url(#d5148447a0)"><rect x="-15" width="180" fill="#ffd25e" y="-15" height="179.999997" fill-opacity="1"/></g><path fill="#f69cab" d="M 54.914062 38.910156 C 52.816406 37.898438 50.609375 37.3125 48.292969 37.144531 C 45.972656 36.976562 43.703125 37.242188 41.484375 37.941406 C 37.574219 39.203125 33.332031 42.082031 32.828125 48.554688 C 31.871094 60.890625 31.648438 74.429688 27.054688 83.792969 C 22.464844 93.160156 12.226562 118.5 41.253906 119.972656 C 70.285156 121.441406 69.71875 115.9375 92.273438 119.179688 C 114.824219 122.425781 138.21875 112.238281 126.007812 112.390625 C 113.796875 112.539062 104.347656 96.90625 85.65625 98.824219 C 66.964844 100.746094 61.664062 91.644531 63.496094 76.996094 C 65.109375 64.101562 68.730469 45.460938 54.914062 38.910156 Z M 54.914062 38.910156 " fill-opacity="1" fill-rule="nonzero"/><path fill="#654c9c" d="M 122.726562 84.121094 C 123.246094 82.855469 123.601562 81.542969 123.796875 80.1875 C 124.410156 75.878906 123.304688 71.628906 120.902344 67.867188 C 121.128906 67.140625 121.300781 66.398438 121.410156 65.644531 C 122.3125 59.335938 118.855469 53.175781 112.878906 49.042969 C 111.859375 43.347656 108.617188 37.882812 103.644531 36.644531 C 98.070312 35.257812 91.925781 39.585938 88.480469 44.96875 C 80.929688 47.046875 75.292969 52.195312 74.335938 58.90625 C 74.21875 59.734375 74.175781 60.566406 74.203125 61.402344 C 70.960938 64.308594 68.792969 68.011719 68.191406 72.230469 C 68.011719 73.492188 67.976562 74.761719 68.085938 76.035156 C 63.367188 79.378906 60.210938 83.898438 59.457031 89.179688 C 57.589844 102.265625 72.851562 108.28125 91.527344 110.953125 C 110.203125 113.628906 125.21875 111.949219 127.09375 98.859375 C 127.839844 93.695312 126.167969 88.585938 122.726562 84.121094 Z M 122.726562 84.121094 " fill-opacity="1" fill-rule="nonzero"/><path fill="#f69cab" d="M 51.300781 30.1875 C 50.953125 30.804688 50.695312 31.457031 50.519531 32.148438 C 50.09375 33.769531 50.007812 35.414062 50.265625 37.074219 C 50.464844 38.339844 50.828125 39.558594 51.359375 40.730469 C 51.613281 41.3125 52.511719 41.488281 53.015625 41.167969 C 53.621094 40.777344 53.71875 40.136719 53.453125 39.511719 C 53.5 39.621094 53.386719 39.351562 53.371094 39.3125 C 53.324219 39.195312 53.28125 39.074219 53.234375 38.953125 C 53.144531 38.703125 53.0625 38.449219 52.988281 38.191406 C 52.847656 37.734375 52.734375 37.265625 52.648438 36.796875 C 52.628906 36.691406 52.613281 36.574219 52.597656 36.476562 C 52.628906 36.695312 52.597656 36.476562 52.597656 36.386719 C 52.574219 36.167969 52.558594 35.945312 52.546875 35.726562 C 52.527344 35.34375 52.527344 34.960938 52.546875 34.574219 C 52.546875 34.40625 52.570312 34.238281 52.589844 34.066406 L 52.605469 33.945312 C 52.613281 33.808594 52.585938 34.070312 52.585938 34.070312 C 52.613281 33.980469 52.625 33.890625 52.628906 33.800781 C 52.679688 33.5 52.742188 33.199219 52.820312 32.898438 C 52.882812 32.664062 52.953125 32.425781 53.039062 32.195312 C 53.070312 32.101562 53.105469 32.007812 53.140625 31.914062 C 53.160156 31.871094 53.175781 31.832031 53.191406 31.789062 C 53.25 31.628906 53.054688 32.097656 53.140625 31.90625 C 53.230469 31.71875 53.296875 31.5625 53.394531 31.398438 C 53.46875 31.257812 53.511719 31.113281 53.53125 30.957031 C 53.546875 30.800781 53.535156 30.648438 53.492188 30.496094 C 53.449219 30.347656 53.378906 30.207031 53.285156 30.085938 C 53.1875 29.960938 53.074219 29.859375 52.9375 29.78125 C 52.804688 29.703125 52.65625 29.648438 52.503906 29.628906 C 52.347656 29.605469 52.195312 29.613281 52.042969 29.648438 C 51.890625 29.683594 51.75 29.75 51.625 29.839844 C 51.496094 29.929688 51.390625 30.042969 51.304688 30.175781 Z M 51.300781 30.1875 " fill-opacity="1" fill-rule="nonzero"/><path fill="#f69cab" d="M 41.910156 30.1875 C 41.5625 30.804688 41.300781 31.460938 41.128906 32.148438 C 40.699219 33.769531 40.605469 35.414062 40.855469 37.074219 C 41.054688 38.34375 41.421875 39.566406 41.953125 40.738281 C 42.203125 41.320312 43.101562 41.496094 43.605469 41.175781 C 44.210938 40.785156 44.308594 40.144531 44.042969 39.519531 C 44.089844 39.628906 43.976562 39.359375 43.960938 39.324219 C 43.914062 39.203125 43.871094 39.085938 43.828125 38.964844 C 43.734375 38.710938 43.652344 38.457031 43.578125 38.203125 C 43.445312 37.738281 43.339844 37.269531 43.265625 36.796875 C 43.246094 36.691406 43.230469 36.574219 43.214844 36.476562 C 43.25 36.695312 43.214844 36.476562 43.214844 36.386719 C 43.195312 36.167969 43.175781 35.945312 43.167969 35.726562 C 43.144531 35.34375 43.144531 34.960938 43.167969 34.574219 C 43.167969 34.40625 43.191406 34.238281 43.210938 34.066406 C 43.210938 34.027344 43.210938 33.988281 43.222656 33.945312 C 43.222656 33.808594 43.207031 34.070312 43.207031 34.070312 C 43.230469 33.980469 43.246094 33.890625 43.246094 33.800781 C 43.296875 33.5 43.363281 33.199219 43.4375 32.898438 C 43.503906 32.664062 43.574219 32.425781 43.65625 32.195312 C 43.691406 32.101562 43.726562 32.007812 43.761719 31.914062 C 43.777344 31.871094 43.796875 31.832031 43.8125 31.789062 C 43.871094 31.628906 43.671875 32.097656 43.761719 31.90625 C 43.847656 31.71875 43.914062 31.5625 44.015625 31.398438 C 44.09375 31.257812 44.148438 31.109375 44.167969 30.949219 C 44.191406 30.792969 44.179688 30.632812 44.140625 30.480469 C 44.097656 30.324219 44.03125 30.183594 43.933594 30.054688 C 43.835938 29.925781 43.71875 29.820312 43.578125 29.742188 C 43.441406 29.660156 43.292969 29.609375 43.132812 29.585938 C 42.976562 29.5625 42.816406 29.574219 42.664062 29.613281 C 42.507812 29.65625 42.367188 29.722656 42.238281 29.820312 C 42.109375 29.917969 42.007812 30.035156 41.925781 30.175781 Z M 41.910156 30.1875 " fill-opacity="1" fill-rule="nonzero"/><path fill="#ffffff" d="M 46.222656 28.816406 C 46.222656 31.253906 44.601562 32.351562 42.164062 32.351562 C 39.726562 32.351562 37.753906 31.078125 37.753906 28.640625 C 37.753906 28.347656 37.785156 28.0625 37.839844 27.777344 C 37.898438 27.492188 37.980469 27.21875 38.089844 26.949219 C 38.203125 26.679688 38.339844 26.425781 38.5 26.183594 C 38.660156 25.945312 38.84375 25.722656 39.050781 25.515625 C 39.253906 25.3125 39.476562 25.128906 39.71875 24.96875 C 39.957031 24.804688 40.214844 24.671875 40.480469 24.558594 C 40.75 24.449219 41.023438 24.363281 41.308594 24.308594 C 41.59375 24.25 41.878906 24.222656 42.171875 24.222656 C 44.601562 24.222656 46.222656 26.378906 46.222656 28.816406 Z M 46.222656 28.816406 " fill-opacity="1" fill-rule="nonzero"/><g clip-path="url(#0052070746)"><path fill="#f69cab" d="M 45.921875 28.816406 C 45.921875 29.558594 45.761719 30.328125 45.265625 30.910156 C 44.792969 31.4375 44.210938 31.769531 43.515625 31.90625 C 42.027344 32.253906 40.125 32.066406 38.976562 30.964844 C 37.785156 29.820312 37.8125 27.898438 38.617188 26.539062 C 39.480469 25.085938 41.265625 24.234375 42.933594 24.609375 C 44.851562 25.050781 45.890625 26.960938 45.90625 28.816406 C 45.90625 28.902344 45.9375 28.972656 45.996094 29.03125 C 46.054688 29.089844 46.125 29.121094 46.207031 29.121094 C 46.292969 29.121094 46.363281 29.089844 46.421875 29.03125 C 46.480469 28.972656 46.511719 28.902344 46.511719 28.816406 C 46.496094 26.917969 45.539062 24.980469 43.71875 24.226562 C 41.894531 23.476562 39.761719 24.144531 38.539062 25.625 C 37.375 27.042969 37.007812 29.289062 38.101562 30.855469 C 39.195312 32.417969 41.28125 32.824219 43.058594 32.589844 C 43.972656 32.476562 44.890625 32.152344 45.546875 31.492188 C 46.25 30.78125 46.507812 29.792969 46.515625 28.816406 C 46.484375 28.652344 46.382812 28.570312 46.21875 28.570312 C 46.050781 28.570312 45.953125 28.652344 45.921875 28.816406 Z M 45.921875 28.816406 " fill-opacity="1" fill-rule="nonzero"/></g><path fill="#000000" d="M 41.929688 31.140625 C 42.269531 31.140625 42.597656 31.074219 42.910156 30.945312 C 43.226562 30.8125 43.503906 30.628906 43.742188 30.386719 C 43.984375 30.144531 44.167969 29.867188 44.296875 29.554688 C 44.429688 29.238281 44.492188 28.914062 44.492188 28.570312 L 44.492188 28.132812 C 44.484375 27.800781 44.410156 27.480469 44.277344 27.171875 C 44.144531 26.867188 43.957031 26.597656 43.714844 26.367188 C 43.476562 26.132812 43.203125 25.953125 42.894531 25.828125 C 42.582031 25.703125 42.261719 25.640625 41.929688 25.640625 C 41.59375 25.640625 41.273438 25.703125 40.964844 25.828125 C 40.652344 25.953125 40.378906 26.132812 40.140625 26.367188 C 39.902344 26.597656 39.714844 26.867188 39.578125 27.171875 C 39.445312 27.480469 39.371094 27.800781 39.363281 28.132812 L 39.363281 28.570312 C 39.363281 28.914062 39.429688 29.238281 39.558594 29.554688 C 39.6875 29.867188 39.875 30.148438 40.117188 30.386719 C 40.355469 30.628906 40.632812 30.8125 40.949219 30.945312 C 41.261719 31.074219 41.589844 31.140625 41.929688 31.140625 Z M 41.929688 31.140625 " fill-opacity="1" fill-rule="nonzero"/><path fill="#ffffff" d="M 48.019531 28.796875 C 48.019531 31.234375 49.640625 32.328125 52.078125 32.328125 C 54.515625 32.328125 56.488281 31.054688 56.488281 28.617188 C 56.488281 28.328125 56.460938 28.039062 56.40625 27.757812 C 56.347656 27.472656 56.265625 27.195312 56.152344 26.929688 C 56.042969 26.660156 55.90625 26.40625 55.746094 26.164062 C 55.585938 25.921875 55.402344 25.699219 55.195312 25.496094 C 54.992188 25.289062 54.769531 25.109375 54.527344 24.945312 C 54.289062 24.785156 54.035156 24.648438 53.765625 24.539062 C 53.5 24.425781 53.222656 24.34375 52.9375 24.285156 C 52.65625 24.230469 52.367188 24.203125 52.078125 24.203125 C 49.640625 24.203125 48.019531 26.355469 48.019531 28.796875 Z M 48.019531 28.796875 " fill-opacity="1" fill-rule="nonzero"/><g clip-path="url(#5303d28197)"><path fill="#f69cab" d="M 47.71875 28.796875 C 47.6875 29.695312 47.941406 30.507812 48.476562 31.234375 C 49.015625 31.875 49.695312 32.28125 50.511719 32.457031 C 52.230469 32.875 54.394531 32.628906 55.707031 31.34375 C 57.066406 30.007812 57.070312 27.789062 56.132812 26.210938 C 55.882812 25.792969 55.578125 25.421875 55.214844 25.101562 C 54.851562 24.777344 54.449219 24.519531 54.003906 24.320312 C 53.5625 24.121094 53.097656 23.996094 52.617188 23.9375 C 52.132812 23.882812 51.652344 23.902344 51.175781 23.996094 C 48.988281 24.464844 47.734375 26.664062 47.71875 28.796875 C 47.71875 28.878906 47.746094 28.949219 47.808594 29.007812 C 47.867188 29.066406 47.9375 29.097656 48.019531 29.097656 C 48.105469 29.097656 48.175781 29.066406 48.234375 29.007812 C 48.292969 28.949219 48.324219 28.878906 48.324219 28.796875 C 48.335938 27.15625 49.132812 25.4375 50.710938 24.773438 C 52.285156 24.109375 54.179688 24.710938 55.25 26.003906 C 56.265625 27.226562 56.574219 29.1875 55.609375 30.53125 C 54.648438 31.878906 52.8125 32.152344 51.300781 31.976562 C 50.519531 31.886719 49.710938 31.628906 49.136719 31.0625 C 48.53125 30.457031 48.328125 29.617188 48.324219 28.785156 C 48.320312 28.703125 48.289062 28.632812 48.230469 28.574219 C 48.171875 28.515625 48.097656 28.488281 48.015625 28.488281 C 47.933594 28.492188 47.863281 28.519531 47.804688 28.582031 C 47.746094 28.640625 47.71875 28.710938 47.71875 28.796875 Z M 47.71875 28.796875 " fill-opacity="1" fill-rule="nonzero"/></g><path fill="#000000" d="M 52.308594 31.121094 C 51.96875 31.121094 51.640625 31.054688 51.328125 30.925781 C 51.011719 30.792969 50.734375 30.609375 50.496094 30.367188 C 50.253906 30.125 50.070312 29.847656 49.941406 29.535156 C 49.808594 29.21875 49.746094 28.890625 49.746094 28.550781 L 49.746094 28.113281 C 49.746094 27.773438 49.808594 27.445312 49.941406 27.132812 C 50.070312 26.816406 50.253906 26.539062 50.496094 26.296875 C 50.734375 26.058594 51.011719 25.871094 51.328125 25.742188 C 51.640625 25.613281 51.96875 25.546875 52.308594 25.546875 C 52.648438 25.546875 52.976562 25.613281 53.289062 25.742188 C 53.605469 25.871094 53.882812 26.058594 54.121094 26.296875 C 54.363281 26.539062 54.546875 26.816406 54.675781 27.132812 C 54.808594 27.445312 54.871094 27.773438 54.871094 28.113281 L 54.871094 28.550781 C 54.871094 28.890625 54.808594 29.21875 54.675781 29.535156 C 54.546875 29.847656 54.363281 30.125 54.121094 30.367188 C 53.882812 30.609375 53.605469 30.792969 53.289062 30.925781 C 52.976562 31.054688 52.648438 31.121094 52.308594 31.121094 Z M 52.308594 31.121094 " fill-opacity="1" fill-rule="nonzero"/><path fill="#000000" d="M 51.472656 48.074219 C 52.335938 49.9375 49.800781 53.222656 47.203125 53.441406 C 44.605469 53.660156 41.539062 50.878906 42.066406 48.898438 C 42.6875 46.550781 44.066406 48.859375 46.660156 48.628906 C 49.253906 48.398438 50.449219 45.867188 51.472656 48.074219 Z M 51.472656 48.074219 " fill-opacity="1" fill-rule="nonzero"/><g clip-path="url(#7165d860a0)"><g clip-path="url(#855f030a9c)"><path fill="#ffffff" d="M 43.179688 53.257812 C 43.28125 52.296875 43.882812 50.492188 44.546875 50.5625 C 45.214844 50.632812 45.6875 52.554688 45.582031 53.515625 " fill-opacity="1" fill-rule="nonzero"/></g></g><g clip-path="url(#f069eeb8a0)"><g clip-path="url(#7e8c4d74f3)"><path fill="#ffffff" d="M 50.4375 53.257812 C 50.332031 52.296875 49.730469 50.492188 49.066406 50.5625 C 48.402344 50.632812 47.929688 52.554688 48.027344 53.515625 " fill-opacity="1" fill-rule="nonzero"/></g></g><g clip-path="url(#7ff4b1804d)"><g clip-path="url(#d2badddf87)"><path fill="#e58399" d="M 34.820312 104.792969 C 34.820312 105.421875 34.757812 106.042969 34.636719 106.65625 C 34.511719 107.273438 34.332031 107.867188 34.09375 108.449219 C 33.851562 109.027344 33.558594 109.578125 33.210938 110.101562 C 32.863281 110.621094 32.46875 111.105469 32.023438 111.546875 C 31.582031 111.992188 31.097656 112.386719 30.578125 112.734375 C 30.058594 113.085938 29.507812 113.378906 28.929688 113.617188 C 28.351562 113.859375 27.753906 114.039062 27.140625 114.164062 C 26.523438 114.285156 25.902344 114.347656 25.277344 114.347656 C 24.652344 114.347656 24.03125 114.285156 23.414062 114.164062 C 22.800781 114.039062 22.203125 113.859375 21.625 113.617188 C 21.046875 113.378906 20.496094 113.085938 19.976562 112.734375 C 19.457031 112.386719 18.972656 111.992188 18.53125 111.546875 C 18.085938 111.105469 17.691406 110.621094 17.34375 110.101562 C 16.996094 109.578125 16.703125 109.027344 16.460938 108.449219 C 16.222656 107.867188 16.042969 107.273438 15.917969 106.65625 C 15.796875 106.042969 15.734375 105.421875 15.734375 104.792969 C 15.734375 104.164062 15.796875 103.542969 15.917969 102.929688 C 16.042969 102.3125 16.222656 101.714844 16.460938 101.136719 C 16.703125 100.558594 16.996094 100.007812 17.34375 99.484375 C 17.691406 98.964844 18.085938 98.480469 18.53125 98.039062 C 18.972656 97.59375 19.457031 97.199219 19.976562 96.851562 C 20.496094 96.5 21.046875 96.207031 21.625 95.96875 C 22.203125 95.726562 22.800781 95.546875 23.414062 95.421875 C 24.03125 95.300781 24.652344 95.238281 25.277344 95.238281 C 25.902344 95.238281 26.523438 95.300781 27.140625 95.421875 C 27.753906 95.546875 28.351562 95.726562 28.929688 95.96875 C 29.507812 96.207031 30.058594 96.5 30.578125 96.851562 C 31.097656 97.199219 31.582031 97.59375 32.023438 98.039062 C 32.46875 98.480469 32.863281 98.964844 33.210938 99.484375 C 33.558594 100.007812 33.851562 100.558594 34.09375 101.136719 C 34.332031 101.714844 34.511719 102.3125 34.636719 102.929688 C 34.757812 103.542969 34.820312 104.164062 34.820312 104.792969 Z M 34.820312 104.792969 " fill-opacity="1" fill-rule="nonzero"/></g></g><g clip-path="url(#30136cc2d4)"><g clip-path="url(#45aea61cde)"><path fill="#e58399" d="M 49.867188 105.0625 C 49.867188 105.542969 49.773438 106.007812 49.589844 106.453125 C 49.40625 106.898438 49.144531 107.289062 48.804688 107.628906 C 48.464844 107.972656 48.070312 108.234375 47.628906 108.417969 C 47.183594 108.601562 46.71875 108.695312 46.238281 108.695312 C 45.757812 108.695312 45.296875 108.601562 44.851562 108.417969 C 44.40625 108.234375 44.015625 107.972656 43.675781 107.628906 C 43.335938 107.289062 43.070312 106.898438 42.886719 106.453125 C 42.703125 106.007812 42.613281 105.542969 42.613281 105.0625 C 42.613281 104.582031 42.703125 104.117188 42.886719 103.671875 C 43.070312 103.226562 43.335938 102.835938 43.675781 102.496094 C 44.015625 102.152344 44.40625 101.890625 44.851562 101.707031 C 45.296875 101.523438 45.757812 101.429688 46.238281 101.429688 C 46.71875 101.429688 47.183594 101.523438 47.628906 101.707031 C 48.070312 101.890625 48.464844 102.152344 48.804688 102.496094 C 49.144531 102.835938 49.40625 103.226562 49.589844 103.671875 C 49.773438 104.117188 49.867188 104.582031 49.867188 105.0625 Z M 49.867188 105.0625 " fill-opacity="1" fill-rule="nonzero"/></g></g><g clip-path="url(#febb303701)"><g clip-path="url(#9b3d31a141)"><path fill="#e58399" d="M 111.417969 120.265625 C 111.417969 120.65625 111.378906 121.039062 111.300781 121.421875 C 111.226562 121.804688 111.113281 122.171875 110.964844 122.53125 C 110.816406 122.890625 110.636719 123.234375 110.417969 123.554688 C 110.203125 123.878906 109.957031 124.179688 109.683594 124.453125 C 109.410156 124.726562 109.109375 124.972656 108.789062 125.191406 C 108.464844 125.40625 108.125 125.589844 107.765625 125.738281 C 107.40625 125.886719 107.035156 126 106.65625 126.074219 C 106.277344 126.148438 105.890625 126.1875 105.503906 126.1875 C 105.113281 126.1875 104.730469 126.148438 104.347656 126.074219 C 103.96875 126 103.597656 125.886719 103.238281 125.738281 C 102.878906 125.589844 102.539062 125.40625 102.21875 125.191406 C 101.894531 124.972656 101.59375 124.726562 101.320312 124.453125 C 101.046875 124.179688 100.800781 123.878906 100.585938 123.554688 C 100.371094 123.234375 100.1875 122.890625 100.039062 122.53125 C 99.890625 122.171875 99.777344 121.804688 99.703125 121.421875 C 99.625 121.039062 99.589844 120.65625 99.589844 120.265625 C 99.589844 119.878906 99.625 119.492188 99.703125 119.113281 C 99.777344 118.730469 99.890625 118.359375 100.039062 118 C 100.1875 117.640625 100.371094 117.300781 100.585938 116.976562 C 100.800781 116.652344 101.046875 116.355469 101.320312 116.078125 C 101.59375 115.804688 101.894531 115.558594 102.21875 115.34375 C 102.539062 115.128906 102.878906 114.945312 103.238281 114.796875 C 103.597656 114.648438 103.96875 114.535156 104.347656 114.460938 C 104.730469 114.382812 105.113281 114.347656 105.503906 114.347656 C 105.890625 114.347656 106.277344 114.382812 106.65625 114.460938 C 107.035156 114.535156 107.40625 114.648438 107.765625 114.796875 C 108.125 114.945312 108.464844 115.128906 108.789062 115.34375 C 109.109375 115.558594 109.410156 115.804688 109.683594 116.078125 C 109.957031 116.355469 110.203125 116.652344 110.417969 116.976562 C 110.636719 117.300781 110.816406 117.640625 110.964844 118 C 111.113281 118.359375 111.226562 118.730469 111.300781 119.113281 C 111.378906 119.492188 111.417969 119.878906 111.417969 120.265625 Z M 111.417969 120.265625 " fill-opacity="1" fill-rule="nonzero"/></g></g><g clip-path="url(#439162730a)"><g clip-path="url(#60736bb8f7)"><path fill="#e58399" d="M 59.003906 114.480469 C 59.003906 114.75 58.953125 115.007812 58.851562 115.253906 C 58.75 115.5 58.605469 115.71875 58.414062 115.90625 C 58.226562 116.097656 58.007812 116.242188 57.761719 116.34375 C 57.515625 116.449219 57.257812 116.5 56.992188 116.5 C 56.722656 116.5 56.464844 116.449219 56.21875 116.34375 C 55.972656 116.242188 55.753906 116.097656 55.566406 115.90625 C 55.375 115.71875 55.230469 115.5 55.128906 115.253906 C 55.027344 115.007812 54.976562 114.75 54.976562 114.480469 C 54.976562 114.214844 55.027344 113.957031 55.128906 113.710938 C 55.230469 113.460938 55.375 113.246094 55.566406 113.054688 C 55.753906 112.867188 55.972656 112.71875 56.21875 112.617188 C 56.464844 112.515625 56.722656 112.464844 56.992188 112.464844 C 57.257812 112.464844 57.515625 112.515625 57.761719 112.617188 C 58.007812 112.71875 58.226562 112.867188 58.414062 113.054688 C 58.605469 113.246094 58.75 113.460938 58.851562 113.710938 C 58.953125 113.957031 59.003906 114.214844 59.003906 114.480469 Z M 59.003906 114.480469 " fill-opacity="1" fill-rule="nonzero"/></g></g><g clip-path="url(#a179582162)"><g clip-path="url(#cac2d8feb7)"><path fill="#e58399" d="M 43.957031 70.753906 C 43.957031 70.898438 43.929688 71.035156 43.875 71.167969 C 43.820312 71.296875 43.742188 71.414062 43.640625 71.515625 C 43.539062 71.617188 43.421875 71.695312 43.292969 71.75 C 43.160156 71.804688 43.023438 71.828125 42.882812 71.828125 C 42.738281 71.828125 42.601562 71.804688 42.46875 71.75 C 42.339844 71.695312 42.222656 71.617188 42.121094 71.515625 C 42.019531 71.414062 41.941406 71.296875 41.886719 71.167969 C 41.835938 71.035156 41.808594 70.898438 41.808594 70.753906 C 41.808594 70.613281 41.835938 70.476562 41.886719 70.34375 C 41.941406 70.210938 42.019531 70.09375 42.121094 69.992188 C 42.222656 69.894531 42.339844 69.816406 42.46875 69.761719 C 42.601562 69.707031 42.738281 69.679688 42.882812 69.679688 C 43.023438 69.679688 43.160156 69.707031 43.292969 69.761719 C 43.421875 69.816406 43.539062 69.894531 43.640625 69.992188 C 43.742188 70.09375 43.820312 70.210938 43.875 70.34375 C 43.929688 70.476562 43.957031 70.613281 43.957031 70.753906 Z M 43.957031 70.753906 " fill-opacity="1" fill-rule="nonzero"/></g></g><g clip-path="url(#a7fc2847a5)"><g clip-path="url(#08a59bd38a)"><path fill="#e58399" d="M 92.871094 116.769531 C 92.871094 116.910156 92.84375 117.046875 92.789062 117.179688 C 92.734375 117.3125 92.65625 117.429688 92.554688 117.527344 C 92.453125 117.628906 92.339844 117.707031 92.207031 117.761719 C 92.074219 117.816406 91.9375 117.84375 91.796875 117.84375 C 91.652344 117.84375 91.515625 117.816406 91.382812 117.761719 C 91.253906 117.707031 91.136719 117.628906 91.035156 117.527344 C 90.933594 117.429688 90.859375 117.3125 90.804688 117.179688 C 90.75 117.046875 90.722656 116.910156 90.722656 116.769531 C 90.722656 116.625 90.75 116.488281 90.804688 116.355469 C 90.859375 116.226562 90.933594 116.109375 91.035156 116.007812 C 91.136719 115.90625 91.253906 115.828125 91.382812 115.773438 C 91.515625 115.71875 91.652344 115.691406 91.796875 115.691406 C 91.9375 115.691406 92.074219 115.71875 92.207031 115.773438 C 92.339844 115.828125 92.453125 115.90625 92.554688 116.007812 C 92.65625 116.109375 92.734375 116.226562 92.789062 116.355469 C 92.84375 116.488281 92.871094 116.625 92.871094 116.769531 Z M 92.871094 116.769531 " fill-opacity="1" fill-rule="nonzero"/></g></g><g clip-path="url(#5f829932bc)"><g clip-path="url(#7e31735c37)"><path fill="#e58399" d="M 39.65625 74.789062 C 39.65625 75.039062 39.609375 75.28125 39.511719 75.511719 C 39.417969 75.742188 39.28125 75.945312 39.105469 76.121094 C 38.929688 76.296875 38.726562 76.433594 38.496094 76.53125 C 38.265625 76.625 38.023438 76.671875 37.773438 76.671875 C 37.523438 76.671875 37.285156 76.625 37.054688 76.53125 C 36.824219 76.433594 36.621094 76.296875 36.445312 76.121094 C 36.269531 75.945312 36.132812 75.742188 36.035156 75.511719 C 35.941406 75.28125 35.894531 75.039062 35.894531 74.789062 C 35.894531 74.539062 35.941406 74.300781 36.035156 74.070312 C 36.132812 73.835938 36.269531 73.632812 36.445312 73.457031 C 36.621094 73.28125 36.824219 73.144531 37.054688 73.050781 C 37.285156 72.953125 37.523438 72.90625 37.773438 72.90625 C 38.023438 72.90625 38.265625 72.953125 38.496094 73.050781 C 38.726562 73.144531 38.929688 73.28125 39.105469 73.457031 C 39.28125 73.632812 39.417969 73.835938 39.511719 74.070312 C 39.609375 74.300781 39.65625 74.539062 39.65625 74.789062 Z M 39.65625 74.789062 " fill-opacity="1" fill-rule="nonzero"/></g></g><g clip-path="url(#b81bf87050)"><g clip-path="url(#8abd664307)"><path fill="#e58399" d="M 85.828125 45.347656 C 87.71875 44.882812 89.726562 44.804688 91.691406 44.785156 C 96.859375 44.730469 102.023438 45.605469 106.953125 47.136719 C 110.929688 48.386719 114.738281 50.023438 118.382812 52.046875 C 118.726562 52.234375 119.042969 51.710938 118.691406 51.523438 C 112.699219 48.234375 106.195312 45.8125 99.425781 44.761719 C 95.554688 44.160156 91.570312 43.953125 87.671875 44.433594 C 86.996094 44.503906 86.328125 44.617188 85.667969 44.765625 C 85.289062 44.855469 85.449219 45.441406 85.828125 45.347656 Z M 85.828125 45.347656 " fill-opacity="1" fill-rule="nonzero"/></g></g><g clip-path="url(#082f89d6e2)"><g clip-path="url(#05e2ca625a)"><path fill="#e58399" d="M 71.316406 62.300781 L 71.453125 62.285156 C 71.660156 62.257812 71.863281 62.234375 72.066406 62.210938 C 72.832031 62.128906 73.597656 62.058594 74.363281 61.992188 C 77.109375 61.773438 79.867188 61.664062 82.621094 61.644531 C 86.613281 61.621094 90.609375 61.785156 94.585938 62.148438 C 99.347656 62.578125 104.054688 63.328125 108.714844 64.394531 C 113.816406 65.546875 118.761719 67.164062 123.558594 69.246094 C 124.167969 69.511719 124.769531 69.789062 125.371094 70.074219 C 125.722656 70.238281 126.027344 69.71875 125.675781 69.550781 C 120.875 67.304688 115.902344 65.539062 110.757812 64.261719 C 106.011719 63.078125 101.207031 62.230469 96.34375 61.722656 C 92.230469 61.285156 88.105469 61.058594 83.96875 61.042969 C 81.007812 61.03125 78.042969 61.121094 75.089844 61.335938 C 73.828125 61.425781 72.527344 61.488281 71.277344 61.699219 L 71.152344 61.714844 C 70.769531 61.765625 70.933594 62.355469 71.316406 62.300781 Z M 71.316406 62.300781 " fill-opacity="1" fill-rule="nonzero"/></g></g><g clip-path="url(#002ecb0a72)"><g clip-path="url(#a8063076be)"><path fill="#e58399" d="M 63.710938 76.304688 C 65.023438 76.195312 66.316406 76.132812 67.621094 76.085938 C 71.035156 75.945312 74.457031 75.917969 77.875 75.984375 C 82.667969 76.078125 87.464844 76.363281 92.234375 76.859375 C 97.710938 77.417969 103.128906 78.332031 108.488281 79.597656 C 113.941406 80.910156 119.316406 82.644531 124.386719 85.054688 C 124.988281 85.347656 125.585938 85.644531 126.179688 85.945312 C 126.523438 86.125 126.835938 85.601562 126.484375 85.421875 C 121.492188 82.847656 116.160156 80.964844 110.730469 79.539062 C 105.332031 78.144531 99.863281 77.128906 94.324219 76.492188 C 89.429688 75.902344 84.511719 75.554688 79.585938 75.410156 C 75.925781 75.304688 72.269531 75.3125 68.609375 75.433594 C 66.996094 75.488281 65.371094 75.535156 63.761719 75.691406 L 63.699219 75.691406 C 63.324219 75.730469 63.324219 76.339844 63.710938 76.304688 Z M 63.710938 76.304688 " fill-opacity="1" fill-rule="nonzero"/></g></g></svg>