<svg xmlns="http://www.w3.org/2000/svg" xmlns:xlink="http://www.w3.org/1999/xlink" width="200" zoomAndPan="magnify" viewBox="0 0 150 149.999998" height="200" preserveAspectRatio="xMidYMid meet" version="1.0"><defs><clipPath id="8e3667eb9b"><path d="M 75 0 C 33.578125 0 0 33.578125 0 75 C 0 116.421875 33.578125 150 75 150 C 116.421875 150 150 116.421875 150 75 C 150 33.578125 116.421875 0 75 0 Z M 75 0 " clip-rule="nonzero"/></clipPath><clipPath id="1eb6e3f465"><path d="M 10.21875 72 L 30 72 L 30 86 L 10.21875 86 Z M 10.21875 72 " clip-rule="nonzero"/></clipPath></defs><g clip-path="url(#8e3667eb9b)"><rect x="-15" width="180" fill="#f2930a" y="-15" height="179.999997" fill-opacity="1"/></g><path fill="#b6cd3a" d="M 58.273438 48.566406 C 60.960938 43.570312 66.128906 34.597656 68.742188 35.453125 C 69.578125 35.730469 71.050781 37.304688 70.023438 47.667969 C 66.105469 47.972656 62.191406 48.269531 58.273438 48.566406 Z M 58.273438 48.566406 " fill-opacity="1" fill-rule="nonzero"/><path fill="#b6cd3a" d="M 73.1875 45.609375 C 81.097656 36.8125 84.027344 35.699219 85.207031 36.394531 C 86.574219 37.203125 86.484375 41.003906 86.425781 43.292969 C 86.378906 45.117188 86.121094 46.640625 85.871094 47.75 C 81.644531 47.03125 77.414062 46.324219 73.1875 45.609375 Z M 73.1875 45.609375 " fill-opacity="1" fill-rule="nonzero"/><path fill="#b6cd3a" d="M 87.597656 46.851562 C 93.839844 43.765625 101.128906 40.570312 102.226562 42.160156 C 102.457031 42.488281 102.347656 42.921875 102.226562 43.355469 C 101.414062 46.371094 100.496094 49.625 99.441406 53.136719 C 95.496094 51.042969 91.542969 48.949219 87.597656 46.851562 Z M 87.597656 46.851562 " fill-opacity="1" fill-rule="nonzero"/><path fill="#b6cd3a" d="M 101.535156 52.960938 C 107.59375 51.988281 114.550781 51.210938 115.082031 52.859375 C 115.210938 53.265625 114.914062 53.683594 114.589844 54.140625 C 112.960938 56.4375 111.238281 58.933594 109.191406 61.917969 C 106.644531 58.929688 104.085938 55.945312 101.535156 52.960938 Z M 101.535156 52.960938 " fill-opacity="1" fill-rule="nonzero"/><path fill="#b6cd3a" d="M 119.277344 86.269531 C 124.433594 89.597656 130.128906 93.683594 129.421875 95.269531 C 129.25 95.660156 128.75 95.769531 128.203125 95.890625 C 125.464844 96.511719 122.523438 97.214844 119.007812 98.066406 C 119.09375 94.136719 119.183594 90.207031 119.277344 86.269531 Z M 119.277344 86.269531 " fill-opacity="1" fill-rule="nonzero"/><path fill="#b6cd3a" d="M 109.882812 60.90625 C 118.070312 62.585938 125.132812 64.640625 125.082031 66.820312 C 125.066406 67.320312 124.683594 67.703125 123.183594 68.871094 C 120.992188 70.566406 118.402344 72.402344 115.382812 74.234375 C 113.546875 69.792969 111.714844 65.347656 109.882812 60.90625 Z M 109.882812 60.90625 " fill-opacity="1" fill-rule="nonzero"/><path fill="#b6cd3a" d="M 116.90625 72.308594 C 123.820312 77.023438 129.542969 81.644531 128.664062 83.628906 C 128.460938 84.089844 127.957031 84.292969 126.125 84.792969 C 123.457031 85.515625 120.355469 86.203125 116.867188 86.722656 C 116.871094 81.921875 116.894531 77.117188 116.90625 72.308594 Z M 116.90625 72.308594 " fill-opacity="1" fill-rule="nonzero"/><path fill="#00975d" d="M 52.179688 51.136719 C 55.941406 46.296875 62.078125 45.472656 68.359375 44.722656 C 74.035156 44.042969 85.851562 42.625 98.363281 49.410156 C 112.261719 56.945312 121.121094 71.464844 121.71875 83.679688 C 121.863281 86.554688 121.355469 91.726562 120.339844 96.976562 C 119.417969 101.75 118.867188 104.59375 117.160156 107.933594 C 115.882812 110.445312 112.636719 116.832031 105.34375 119.78125 C 104.152344 120.261719 94.96875 123.828125 88.355469 118.742188 C 87.105469 117.777344 84.308594 115.253906 83.636719 111.15625 C 83.515625 110.441406 82.667969 104.679688 86.734375 101.414062 C 89.609375 99.109375 93.070312 99.542969 93.824219 99.636719 C 99.175781 100.304688 102.683594 105.148438 102.269531 105.746094 C 101.832031 106.375 97.199219 101.992188 93.230469 103.640625 C 91.105469 104.519531 89.378906 107.035156 89.683594 109.421875 C 90.074219 112.453125 93.628906 114.125 96.03125 114.457031 C 100.765625 115.113281 105.035156 111.148438 106.996094 107.90625 C 111.316406 100.777344 107.417969 92.328125 106.71875 90.839844 C 104.289062 85.691406 100.511719 82.761719 99.257812 81.941406 C 91.988281 77.21875 85.21875 77.953125 71.832031 77.492188 C 66.230469 77.304688 58.210938 76.859375 48.414062 75.71875 C 48.09375 73.226562 47.808594 69.617188 48.199219 65.308594 C 48.65625 60.304688 49.121094 55.058594 52.179688 51.136719 Z M 52.179688 51.136719 " fill-opacity="1" fill-rule="nonzero"/><path fill="#b6cd3a" d="M 46.289062 49.105469 C 38.242188 50.058594 32.761719 54.804688 31.972656 55.5 C 27.542969 59.429688 23.832031 67.292969 23.542969 74.015625 C 23.480469 75.40625 24.40625 76.65625 25.746094 77.007812 C 29.246094 77.917969 33.925781 78.703125 39.417969 78.480469 C 43.445312 78.316406 46.949219 77.65625 49.789062 76.886719 C 51.210938 76.5 52.125 75.105469 51.929688 73.640625 C 50.71875 64.28125 51.882812 58.832031 53.390625 55.5 C 54.433594 53.183594 54.792969 51.765625 54.03125 50.53125 C 52.699219 48.34375 48.199219 48.875 46.289062 49.105469 Z M 46.289062 49.105469 " fill-opacity="1" fill-rule="nonzero"/><path fill="#ffffff" d="M 48.460938 62.910156 C 48.460938 63.464844 48.410156 64.007812 48.300781 64.550781 C 48.195312 65.089844 48.035156 65.617188 47.824219 66.125 C 47.613281 66.636719 47.355469 67.117188 47.050781 67.578125 C 46.746094 68.035156 46.398438 68.460938 46.007812 68.851562 C 45.621094 69.238281 45.195312 69.589844 44.738281 69.894531 C 44.28125 70.199219 43.800781 70.460938 43.292969 70.671875 C 42.785156 70.882812 42.257812 71.042969 41.71875 71.148438 C 41.179688 71.257812 40.636719 71.308594 40.085938 71.308594 C 39.535156 71.308594 38.992188 71.257812 38.453125 71.148438 C 37.914062 71.042969 37.390625 70.882812 36.878906 70.671875 C 36.371094 70.460938 35.890625 70.199219 35.433594 69.894531 C 34.976562 69.589844 34.550781 69.238281 34.164062 68.851562 C 33.773438 68.460938 33.425781 68.035156 33.121094 67.578125 C 32.816406 67.117188 32.558594 66.636719 32.347656 66.125 C 32.136719 65.617188 31.976562 65.089844 31.871094 64.550781 C 31.761719 64.007812 31.710938 63.464844 31.710938 62.910156 C 31.710938 62.359375 31.761719 61.8125 31.871094 61.273438 C 31.976562 60.730469 32.136719 60.207031 32.347656 59.699219 C 32.558594 59.1875 32.816406 58.703125 33.121094 58.246094 C 33.425781 57.789062 33.773438 57.363281 34.164062 56.972656 C 34.550781 56.582031 34.976562 56.234375 35.433594 55.929688 C 35.890625 55.621094 36.371094 55.363281 36.878906 55.152344 C 37.390625 54.941406 37.914062 54.78125 38.453125 54.675781 C 38.992188 54.566406 39.535156 54.511719 40.085938 54.511719 C 40.636719 54.511719 41.179688 54.566406 41.71875 54.675781 C 42.257812 54.78125 42.785156 54.941406 43.292969 55.152344 C 43.800781 55.363281 44.28125 55.621094 44.738281 55.929688 C 45.195312 56.234375 45.621094 56.582031 46.007812 56.972656 C 46.398438 57.363281 46.746094 57.789062 47.050781 58.246094 C 47.355469 58.703125 47.613281 59.1875 47.824219 59.699219 C 48.035156 60.207031 48.195312 60.730469 48.300781 61.273438 C 48.410156 61.8125 48.460938 62.359375 48.460938 62.910156 Z M 48.460938 62.910156 " fill-opacity="1" fill-rule="nonzero"/><path fill="#000000" d="M 33.640625 63.410156 C 33.898438 66.585938 36.605469 69.027344 39.816406 68.921875 C 43.121094 68.804688 45.714844 66.03125 45.601562 62.714844 C 45.484375 59.402344 42.71875 56.796875 39.414062 56.910156 C 37.898438 56.964844 36.523438 57.570312 35.5 58.542969 C 36.96875 58.5625 38.160156 59.738281 38.214844 61.222656 C 38.269531 62.757812 37.070312 64.039062 35.542969 64.085938 C 34.820312 64.113281 34.148438 63.855469 33.640625 63.410156 Z M 33.640625 63.410156 " fill-opacity="1" fill-rule="nonzero"/><path fill="#b6cd3a" d="M 63.855469 55.054688 C 62.824219 55.25 61.714844 55.953125 61.800781 56.421875 C 61.902344 56.984375 63.644531 57.1875 64.957031 57.003906 C 65.570312 56.921875 67.09375 56.613281 67.121094 56.105469 C 67.140625 55.558594 65.417969 54.757812 63.855469 55.054688 Z M 63.855469 55.054688 " fill-opacity="1" fill-rule="nonzero"/><path fill="#b6cd3a" d="M 69.175781 52.589844 C 67.988281 52.386719 66.519531 52.980469 66.425781 53.757812 C 66.332031 54.558594 67.71875 55.566406 69.003906 55.503906 C 69.929688 55.464844 71.074219 54.859375 71.085938 54.085938 C 71.105469 53.332031 69.996094 52.730469 69.175781 52.589844 Z M 69.175781 52.589844 " fill-opacity="1" fill-rule="nonzero"/><path fill="#b6cd3a" d="M 68.769531 56.03125 C 67.808594 56.121094 66.925781 57.09375 67.105469 57.699219 C 67.289062 58.292969 68.492188 58.542969 69.347656 58.199219 C 69.820312 58.011719 70.5 57.511719 70.433594 56.949219 C 70.359375 56.347656 69.464844 55.972656 68.769531 56.03125 Z M 68.769531 56.03125 " fill-opacity="1" fill-rule="nonzero"/><path fill="#b6cd3a" d="M 92.175781 64.179688 C 91.425781 64.328125 89.636719 64.828125 89.644531 65.449219 C 89.648438 66.132812 91.8125 66.746094 93.554688 66.835938 C 95.304688 66.929688 97.5625 66.542969 97.636719 65.855469 C 97.710938 65.226562 95.9375 64.5 94.875 64.242188 C 94.328125 64.105469 93.359375 63.945312 92.175781 64.179688 Z M 92.175781 64.179688 " fill-opacity="1" fill-rule="nonzero"/><path fill="#b6cd3a" d="M 92.410156 60.574219 C 91.378906 60.671875 89.675781 61.082031 89.644531 61.714844 C 89.609375 62.34375 91.21875 63.195312 92.691406 63 C 94.054688 62.816406 95.332031 61.738281 95.179688 61.148438 C 95.007812 60.535156 93.292969 60.5 92.410156 60.574219 Z M 92.410156 60.574219 " fill-opacity="1" fill-rule="nonzero"/><path fill="#b6cd3a" d="M 97.703125 61.988281 C 96.78125 62.0625 95.570312 62.535156 95.574219 63.054688 C 95.582031 63.621094 97.0625 64.34375 98.269531 63.976562 C 99.035156 63.75 99.816406 63.039062 99.6875 62.554688 C 99.546875 62.035156 98.375 61.933594 97.703125 61.988281 Z M 97.703125 61.988281 " fill-opacity="1" fill-rule="nonzero"/><path fill="#b6cd3a" d="M 113.957031 80.449219 C 113.089844 80.523438 111.949219 80.964844 111.957031 81.457031 C 111.964844 81.992188 113.359375 82.664062 114.488281 82.328125 C 115.214844 82.113281 115.945312 81.445312 115.820312 80.992188 C 115.6875 80.5 114.589844 80.402344 113.957031 80.449219 Z M 113.957031 80.449219 " fill-opacity="1" fill-rule="nonzero"/><path fill="#b6cd3a" d="M 116.253906 82.738281 C 115.554688 82.800781 114.628906 83.191406 114.636719 83.617188 C 114.644531 84.089844 115.769531 84.675781 116.683594 84.378906 C 117.269531 84.191406 117.863281 83.605469 117.761719 83.207031 C 117.660156 82.78125 116.765625 82.699219 116.253906 82.738281 Z M 116.253906 82.738281 " fill-opacity="1" fill-rule="nonzero"/><g clip-path="url(#1eb6e3f465)"><path fill="#df7884" d="M 27.367188 73.984375 C 26.09375 78.136719 22.949219 82.855469 18.046875 82.597656 C 16.214844 82.503906 14.492188 81.4375 13.632812 79.804688 C 13.21875 79.027344 13.050781 78.101562 13.242188 77.238281 C 13.460938 76.210938 14.296875 75.679688 15.261719 75.429688 C 16.054688 75.226562 17.792969 75.082031 18.203125 75.96875 C 18.34375 76.273438 18.296875 76.757812 18.09375 77.027344 C 18.019531 77.128906 17.851562 77.222656 17.765625 77.257812 C 17.683594 77.292969 17.582031 77.320312 17.496094 77.339844 C 17.664062 77.296875 17.523438 77.332031 17.433594 77.339844 C 15.8125 77.527344 15.996094 80.074219 17.625 79.882812 C 19.144531 79.707031 20.417969 78.703125 20.734375 77.15625 C 21.085938 75.460938 20.230469 73.855469 18.652344 73.167969 C 15.542969 71.808594 11.152344 73.503906 10.675781 77.089844 C 10.277344 80.085938 12.101562 82.886719 14.695312 84.257812 C 17.414062 85.695312 20.679688 85.222656 23.285156 83.765625 C 26.769531 81.820312 28.726562 78.128906 29.859375 74.4375 C 30.058594 73.773438 29.460938 73.066406 28.839844 72.949219 C 28.113281 72.828125 27.570312 73.320312 27.367188 73.984375 Z M 27.367188 73.984375 " fill-opacity="1" fill-rule="nonzero"/></g><path fill="#00975d" d="M 24.15625 73.753906 C 27.839844 74.144531 31.546875 74.253906 35.246094 74.078125 C 36.105469 74.039062 36.113281 72.6875 35.246094 72.726562 C 31.542969 72.902344 27.839844 72.796875 24.15625 72.402344 C 23.292969 72.308594 23.300781 73.667969 24.15625 73.753906 Z M 24.15625 73.753906 " fill-opacity="1" fill-rule="nonzero"/><path fill="#b6cd3a" d="M 64.128906 70.636719 C 63.597656 71.484375 64.785156 72.449219 65.910156 76.089844 C 66.546875 78.167969 67.269531 80.5 66.445312 81.144531 C 65.335938 82.023438 62.851562 78.683594 59.894531 79.371094 C 57.464844 79.929688 55.578125 83.007812 56.234375 84.328125 C 56.589844 85.035156 57.511719 84.898438 63.296875 85.046875 C 67.933594 85.171875 68.730469 85.285156 69.757812 84.550781 C 71.46875 83.320312 71.855469 81.167969 72.136719 79.484375 C 72.425781 77.804688 73.074219 74.023438 70.683594 71.714844 C 68.601562 69.703125 64.871094 69.460938 64.128906 70.636719 Z M 64.128906 70.636719 " fill-opacity="1" fill-rule="nonzero"/><path fill="#b6cd3a" d="M 88.726562 78.203125 C 88.484375 79.230469 88.742188 80.707031 89.257812 83.617188 C 89.890625 87.195312 90.269531 88.09375 89.777344 88.484375 C 88.707031 89.328125 86.316406 86.117188 83.46875 86.777344 C 81.132812 87.316406 79.3125 90.28125 79.945312 91.550781 C 80.40625 92.460938 81.933594 92.199219 86.746094 92.246094 C 94.289062 92.320312 95.246094 93.007812 96.128906 92.023438 C 98.503906 89.355469 93.300781 82.3125 96.128906 79.558594 C 97.117188 78.59375 98.558594 78.683594 99.050781 77.332031 C 99.453125 76.21875 98.941406 74.859375 98.179688 74.066406 C 96.363281 72.167969 93.0625 73.394531 92.746094 73.519531 C 90.621094 74.347656 89.171875 76.300781 88.726562 78.203125 Z M 88.726562 78.203125 " fill-opacity="1" fill-rule="nonzero"/></svg>