<svg xmlns="http://www.w3.org/2000/svg" xmlns:xlink="http://www.w3.org/1999/xlink" width="200" zoomAndPan="magnify" viewBox="0 0 150 149.999998" height="200" preserveAspectRatio="xMidYMid meet" version="1.0"><defs><clipPath id="67281223e9"><path d="M 75 0 C 33.578125 0 0 33.578125 0 75 C 0 116.421875 33.578125 150 75 150 C 116.421875 150 150 116.421875 150 75 C 150 33.578125 116.421875 0 75 0 Z M 75 0 " clip-rule="nonzero"/></clipPath></defs><g clip-path="url(#67281223e9)"><rect x="-15" width="180" fill="#5affb5" y="-15" height="179.999997" fill-opacity="1"/></g><path fill="#9b1528" d="M 54.359375 80.960938 L 49.976562 80.65625 L 42.933594 80.164062 L 41.320312 80.050781 C 41.050781 80.054688 40.808594 80.136719 40.59375 80.300781 C 40.382812 80.460938 40.238281 80.671875 40.167969 80.933594 C 39.847656 82.449219 39.527344 83.964844 39.207031 85.480469 C 38.699219 87.894531 38.191406 90.308594 37.679688 92.722656 C 37.566406 93.273438 37.449219 93.824219 37.332031 94.378906 C 37.203125 94.992188 37.511719 95.703125 38.171875 95.855469 C 38.773438 95.992188 39.511719 95.671875 39.648438 95.015625 C 39.96875 93.5 40.285156 91.984375 40.605469 90.46875 L 42.128906 83.238281 C 42.242188 82.683594 42.359375 82.128906 42.476562 81.578125 L 41.320312 82.460938 L 45.714844 82.765625 L 52.757812 83.261719 L 54.371094 83.371094 C 54.53125 83.371094 54.683594 83.339844 54.832031 83.277344 C 54.976562 83.21875 55.109375 83.128906 55.21875 83.019531 C 55.332031 82.90625 55.417969 82.777344 55.480469 82.628906 C 55.542969 82.484375 55.574219 82.332031 55.574219 82.171875 C 55.570312 82.011719 55.539062 81.859375 55.476562 81.710938 C 55.414062 81.5625 55.328125 81.433594 55.214844 81.320312 C 55.101562 81.207031 54.96875 81.121094 54.824219 81.058594 C 54.675781 80.996094 54.519531 80.964844 54.359375 80.960938 Z M 54.359375 80.960938 " fill-opacity="1" fill-rule="nonzero"/><path fill="#9b1528" d="M 32.472656 95.371094 C 32.445312 96.832031 33.988281 98.046875 35.933594 98.082031 C 37.875 98.117188 39.457031 96.964844 39.488281 95.507812 C 39.519531 94.050781 37.96875 92.835938 36.027344 92.796875 C 34.085938 92.761719 32.5 93.914062 32.472656 95.371094 Z M 32.472656 95.371094 " fill-opacity="1" fill-rule="nonzero"/><path fill="#9b1528" d="M 40.316406 78.410156 L 36.019531 77.679688 C 35.605469 77.609375 35.222656 77.550781 34.824219 77.765625 C 34.632812 77.867188 34.453125 77.996094 34.269531 78.09375 L 31.925781 79.476562 L 30.210938 80.496094 C 30.074219 80.574219 29.960938 80.679688 29.867188 80.804688 C 29.769531 80.933594 29.703125 81.074219 29.664062 81.226562 C 29.625 81.378906 29.617188 81.535156 29.636719 81.691406 C 29.660156 81.847656 29.710938 81.992188 29.789062 82.128906 C 29.871094 82.265625 29.972656 82.382812 30.097656 82.476562 C 30.222656 82.574219 30.363281 82.644531 30.515625 82.683594 C 30.667969 82.726562 30.824219 82.734375 30.980469 82.714844 C 31.136719 82.695312 31.285156 82.648438 31.421875 82.570312 L 36.050781 79.824219 L 35.128906 79.945312 L 39.683594 80.71875 C 40.300781 80.828125 41.003906 80.558594 41.160156 79.882812 C 41.289062 79.304688 40.980469 78.523438 40.316406 78.410156 Z M 40.316406 78.410156 " fill-opacity="1" fill-rule="nonzero"/><path fill="#9b1528" d="M 32.308594 83.261719 C 32.378906 83.539062 34.109375 91.640625 29.855469 96.351562 C 28.09375 98.296875 26.78125 99.050781 25.84375 99.265625 C 25.640625 99.3125 25.445312 99.296875 25.25 99.21875 C 25.058594 99.144531 24.902344 99.019531 24.789062 98.847656 C 24.671875 98.671875 24.617188 98.484375 24.621094 98.277344 C 24.625 98.066406 24.683594 97.878906 24.804688 97.710938 C 25.519531 96.683594 26.214844 95.234375 24.84375 94.796875 C 22.644531 94.105469 17.027344 97.054688 15.632812 99.835938 C 14.238281 102.621094 9.523438 94.28125 14.792969 86.140625 C 20.058594 78 30.648438 76.898438 32.308594 83.261719 Z M 32.308594 83.261719 " fill-opacity="1" fill-rule="nonzero"/><path fill="#dd444c" d="M 77.089844 78.554688 C 77.089844 79.175781 77.054688 79.789062 76.988281 80.40625 C 76.917969 81.019531 76.816406 81.628906 76.679688 82.234375 C 76.539062 82.839844 76.371094 83.4375 76.167969 84.03125 C 75.960938 84.621094 75.726562 85.203125 75.457031 85.773438 C 75.1875 86.34375 74.886719 86.898438 74.558594 87.445312 C 74.226562 87.988281 73.867188 88.519531 73.476562 89.03125 C 73.085938 89.546875 72.667969 90.039062 72.222656 90.519531 C 71.777344 90.996094 71.304688 91.453125 70.808594 91.890625 C 70.3125 92.324219 69.792969 92.738281 69.25 93.132812 C 68.707031 93.523438 68.140625 93.890625 67.558594 94.234375 C 66.972656 94.578125 66.371094 94.894531 65.753906 95.183594 C 65.132812 95.476562 64.5 95.738281 63.847656 95.976562 C 63.199219 96.210938 62.539062 96.421875 61.867188 96.597656 C 61.195312 96.777344 60.515625 96.929688 59.824219 97.050781 C 59.136719 97.167969 58.441406 97.261719 57.742188 97.320312 C 57.042969 97.382812 56.34375 97.410156 55.640625 97.410156 C 54.9375 97.410156 54.238281 97.382812 53.539062 97.320312 C 52.839844 97.261719 52.144531 97.167969 51.457031 97.050781 C 50.769531 96.929688 50.085938 96.777344 49.414062 96.597656 C 48.742188 96.421875 48.082031 96.210938 47.433594 95.976562 C 46.785156 95.738281 46.148438 95.476562 45.53125 95.183594 C 44.910156 94.894531 44.308594 94.578125 43.726562 94.234375 C 43.140625 93.890625 42.578125 93.523438 42.035156 93.132812 C 41.492188 92.738281 40.972656 92.324219 40.476562 91.890625 C 39.976562 91.453125 39.507812 90.996094 39.0625 90.519531 C 38.617188 90.039062 38.199219 89.546875 37.808594 89.03125 C 37.417969 88.519531 37.058594 87.988281 36.726562 87.445312 C 36.394531 86.898438 36.09375 86.34375 35.824219 85.773438 C 35.558594 85.203125 35.320312 84.621094 35.117188 84.03125 C 34.914062 83.4375 34.742188 82.839844 34.605469 82.234375 C 34.46875 81.628906 34.367188 81.019531 34.296875 80.40625 C 34.226562 79.789062 34.191406 79.175781 34.191406 78.554688 C 34.191406 77.9375 34.226562 77.324219 34.296875 76.707031 C 34.367188 76.09375 34.46875 75.484375 34.605469 74.878906 C 34.742188 74.273438 34.914062 73.675781 35.117188 73.082031 C 35.320312 72.492188 35.558594 71.910156 35.824219 71.339844 C 36.09375 70.769531 36.394531 70.214844 36.726562 69.667969 C 37.058594 69.125 37.417969 68.59375 37.808594 68.082031 C 38.199219 67.566406 38.617188 67.074219 39.0625 66.59375 C 39.507812 66.117188 39.976562 65.660156 40.476562 65.222656 C 40.972656 64.789062 41.492188 64.375 42.035156 63.980469 C 42.578125 63.589844 43.140625 63.222656 43.726562 62.878906 C 44.308594 62.535156 44.910156 62.21875 45.53125 61.929688 C 46.148438 61.636719 46.785156 61.375 47.433594 61.136719 C 48.082031 60.902344 48.742188 60.691406 49.414062 60.515625 C 50.085938 60.335938 50.769531 60.183594 51.457031 60.0625 C 52.144531 59.945312 52.839844 59.851562 53.539062 59.792969 C 54.238281 59.730469 54.9375 59.703125 55.640625 59.703125 C 56.34375 59.703125 57.042969 59.730469 57.742188 59.792969 C 58.441406 59.851562 59.136719 59.945312 59.824219 60.0625 C 60.515625 60.183594 61.195312 60.335938 61.867188 60.515625 C 62.539062 60.691406 63.199219 60.902344 63.847656 61.136719 C 64.5 61.375 65.132812 61.636719 65.753906 61.929688 C 66.371094 62.21875 66.972656 62.535156 67.558594 62.878906 C 68.140625 63.222656 68.707031 63.589844 69.25 63.980469 C 69.792969 64.375 70.3125 64.789062 70.808594 65.222656 C 71.304688 65.660156 71.777344 66.117188 72.222656 66.59375 C 72.667969 67.074219 73.085938 67.566406 73.476562 68.082031 C 73.867188 68.59375 74.226562 69.125 74.558594 69.667969 C 74.886719 70.214844 75.1875 70.769531 75.457031 71.339844 C 75.726562 71.910156 75.960938 72.492188 76.167969 73.082031 C 76.371094 73.675781 76.539062 74.273438 76.679688 74.878906 C 76.816406 75.484375 76.917969 76.09375 76.988281 76.707031 C 77.054688 77.324219 77.089844 77.9375 77.089844 78.554688 Z M 77.089844 78.554688 " fill-opacity="1" fill-rule="nonzero"/><path fill="#dd444c" d="M 96.253906 74.558594 C 96.253906 84.96875 85.625 93.414062 72.515625 93.414062 C 59.402344 93.414062 48.769531 84.96875 48.769531 74.558594 C 48.769531 64.148438 58.253906 60.84375 71.363281 60.84375 C 84.472656 60.84375 96.253906 64.144531 96.253906 74.558594 Z M 96.253906 74.558594 " fill-opacity="1" fill-rule="nonzero"/><path fill="#dd444c" d="M 105.984375 68.257812 C 105.984375 76.476562 97.597656 83.136719 87.253906 83.136719 C 76.910156 83.136719 68.523438 76.476562 68.523438 68.257812 C 68.523438 60.039062 76.003906 57.425781 86.351562 57.425781 C 96.695312 57.425781 105.984375 60.03125 105.984375 68.257812 Z M 105.984375 68.257812 " fill-opacity="1" fill-rule="nonzero"/><path fill="#dd444c" d="M 115.320312 62.84375 C 115.320312 69.789062 108.234375 75.414062 99.492188 75.414062 C 90.753906 75.414062 83.667969 69.789062 83.667969 62.84375 C 83.667969 55.902344 89.992188 53.703125 98.730469 53.703125 C 107.472656 53.703125 115.320312 55.902344 115.320312 62.84375 Z M 115.320312 62.84375 " fill-opacity="1" fill-rule="nonzero"/><path fill="#dd444c" d="M 118.585938 63.574219 C 115.492188 66.148438 110.683594 65.484375 107.855469 62.09375 C 105.023438 58.703125 105.234375 53.859375 108.328125 51.285156 C 111.421875 48.707031 115.566406 49.917969 118.398438 53.3125 C 121.234375 56.707031 121.671875 60.996094 118.585938 63.574219 Z M 118.585938 63.574219 " fill-opacity="1" fill-rule="nonzero"/><path fill="#dd444c" d="M 121.425781 43.480469 C 125.039062 45.257812 126.386719 49.914062 124.425781 53.875 C 122.464844 57.839844 117.964844 59.613281 114.347656 57.835938 C 110.726562 56.058594 110.15625 51.785156 112.109375 47.820312 C 114.058594 43.855469 117.8125 41.703125 121.425781 43.480469 Z M 121.425781 43.480469 " fill-opacity="1" fill-rule="nonzero"/><path fill="#dd444c" d="M 112.804688 37.515625 C 114.554688 35.441406 117.820312 35.324219 120.097656 37.246094 C 122.375 39.164062 122.800781 42.402344 121.046875 44.472656 C 119.296875 46.542969 116.40625 46.222656 114.125 44.304688 C 111.847656 42.382812 111.0625 39.589844 112.804688 37.515625 Z M 112.804688 37.515625 " fill-opacity="1" fill-rule="nonzero"/><path fill="#dd444c" d="M 106.324219 39.515625 C 105.785156 37.71875 106.949219 35.785156 108.925781 35.191406 C 110.898438 34.601562 112.933594 35.578125 113.472656 37.378906 C 114.015625 39.179688 112.734375 40.726562 110.761719 41.316406 C 108.785156 41.90625 106.863281 41.308594 106.324219 39.515625 Z M 106.324219 39.515625 " fill-opacity="1" fill-rule="nonzero"/><path fill="#dd444c" d="M 102.832031 46.84375 C 102.832031 46.84375 101.09375 40.695312 103.132812 38.808594 C 104.644531 37.410156 107.382812 37.214844 108.667969 38.589844 C 109.953125 39.964844 109.546875 43.488281 107.484375 43.5 C 103.117188 43.523438 102.832031 46.84375 102.832031 46.84375 Z M 102.832031 46.84375 " fill-opacity="1" fill-rule="nonzero"/><path fill="#ffffff" d="M 55.078125 67.335938 C 55.078125 72.003906 58.191406 74.097656 62.863281 74.097656 C 67.535156 74.097656 71.324219 71.667969 71.324219 66.996094 C 71.324219 66.441406 71.269531 65.894531 71.160156 65.347656 C 71.054688 64.804688 70.894531 64.277344 70.679688 63.761719 C 70.46875 63.25 70.207031 62.761719 69.898438 62.300781 C 69.589844 61.839844 69.238281 61.414062 68.847656 61.019531 C 68.453125 60.628906 68.027344 60.277344 67.5625 59.96875 C 67.101562 59.660156 66.613281 59.402344 66.101562 59.1875 C 65.585938 58.976562 65.058594 58.816406 64.511719 58.707031 C 63.96875 58.597656 63.417969 58.546875 62.863281 58.546875 C 58.191406 58.535156 55.078125 62.65625 55.078125 67.335938 Z M 55.078125 67.335938 " fill-opacity="1" fill-rule="nonzero"/><path fill="#dd444c" d="M 54.769531 67.335938 C 54.769531 68.949219 55.144531 70.5625 56.152344 71.828125 C 57.089844 73.007812 58.460938 73.722656 59.910156 74.074219 C 63.113281 74.851562 67.152344 74.410156 69.601562 72.027344 C 72.152344 69.542969 72.121094 65.398438 70.355469 62.480469 C 68.488281 59.394531 64.707031 57.640625 61.144531 58.429688 C 57.585938 59.21875 55.3125 62.488281 54.855469 65.945312 C 54.796875 66.40625 54.765625 66.867188 54.765625 67.328125 C 54.765625 67.414062 54.792969 67.484375 54.851562 67.542969 C 54.910156 67.601562 54.980469 67.628906 55.066406 67.628906 C 55.148438 67.628906 55.21875 67.601562 55.277344 67.542969 C 55.335938 67.484375 55.363281 67.414062 55.363281 67.328125 C 55.378906 64.085938 56.992188 60.699219 60.109375 59.382812 C 63.222656 58.066406 66.984375 59.230469 69.121094 61.773438 C 71.179688 64.222656 71.785156 68.148438 69.835938 70.839844 C 67.945312 73.453125 64.277344 74.066406 61.269531 73.703125 C 59.859375 73.539062 58.40625 73.09375 57.308594 72.15625 C 56.242188 71.195312 55.625 70.003906 55.460938 68.574219 C 55.40625 68.160156 55.378906 67.742188 55.378906 67.324219 C 55.375 67.242188 55.34375 67.171875 55.285156 67.113281 C 55.222656 67.054688 55.152344 67.027344 55.066406 67.027344 C 54.984375 67.027344 54.914062 67.058594 54.855469 67.121094 C 54.796875 67.179688 54.769531 67.253906 54.769531 67.335938 Z M 54.769531 67.335938 " fill-opacity="1" fill-rule="nonzero"/><path fill="#000000" d="M 62.488281 60.871094 L 63.21875 60.871094 C 63.558594 60.871094 63.890625 60.902344 64.222656 60.96875 C 64.554688 61.035156 64.875 61.132812 65.1875 61.261719 C 65.496094 61.390625 65.792969 61.546875 66.074219 61.734375 C 66.355469 61.921875 66.613281 62.136719 66.851562 62.375 C 67.089844 62.613281 67.304688 62.871094 67.492188 63.152344 C 67.679688 63.429688 67.835938 63.726562 67.964844 64.039062 C 68.097656 64.347656 68.191406 64.671875 68.257812 65 C 68.324219 65.332031 68.359375 65.664062 68.359375 66.003906 L 68.359375 67.671875 C 68.359375 68.007812 68.324219 68.339844 68.257812 68.671875 C 68.191406 69.003906 68.097656 69.324219 67.964844 69.632812 C 67.835938 69.945312 67.679688 70.242188 67.492188 70.523438 C 67.304688 70.800781 67.089844 71.0625 66.851562 71.300781 C 66.613281 71.539062 66.355469 71.75 66.074219 71.9375 C 65.792969 72.125 65.496094 72.28125 65.1875 72.410156 C 64.875 72.539062 64.554688 72.636719 64.222656 72.703125 C 63.890625 72.769531 63.558594 72.800781 63.21875 72.800781 L 62.488281 72.800781 C 62.148438 72.800781 61.816406 72.769531 61.484375 72.703125 C 61.152344 72.636719 60.832031 72.539062 60.519531 72.410156 C 60.210938 72.28125 59.914062 72.125 59.632812 71.9375 C 59.351562 71.75 59.09375 71.539062 58.855469 71.300781 C 58.617188 71.0625 58.402344 70.804688 58.214844 70.523438 C 58.027344 70.242188 57.871094 69.945312 57.742188 69.636719 C 57.613281 69.324219 57.515625 69.003906 57.449219 68.671875 C 57.382812 68.34375 57.351562 68.007812 57.351562 67.671875 L 57.351562 66 C 57.351562 65.664062 57.382812 65.328125 57.449219 65 C 57.515625 64.667969 57.613281 64.347656 57.742188 64.035156 C 57.871094 63.726562 58.027344 63.429688 58.214844 63.148438 C 58.402344 62.871094 58.617188 62.609375 58.855469 62.371094 C 59.09375 62.132812 59.351562 61.921875 59.632812 61.734375 C 59.914062 61.546875 60.210938 61.390625 60.519531 61.261719 C 60.832031 61.132812 61.152344 61.035156 61.484375 60.96875 C 61.816406 60.902344 62.148438 60.871094 62.488281 60.871094 Z M 62.488281 60.871094 " fill-opacity="1" fill-rule="nonzero"/><path fill="#ffffff" d="M 51.632812 67.28125 C 51.632812 71.949219 48.519531 74.042969 43.847656 74.042969 C 39.175781 74.042969 35.390625 71.609375 35.390625 66.941406 C 35.390625 66.386719 35.445312 65.835938 35.554688 65.292969 C 35.660156 64.75 35.824219 64.222656 36.035156 63.707031 C 36.246094 63.195312 36.507812 62.707031 36.816406 62.246094 C 37.125 61.785156 37.476562 61.359375 37.871094 60.96875 C 38.261719 60.574219 38.691406 60.222656 39.152344 59.917969 C 39.613281 59.609375 40.101562 59.347656 40.613281 59.136719 C 41.128906 58.921875 41.65625 58.761719 42.203125 58.65625 C 42.746094 58.546875 43.296875 58.492188 43.851562 58.492188 C 48.519531 58.492188 51.632812 62.613281 51.632812 67.28125 Z M 51.632812 67.28125 " fill-opacity="1" fill-rule="nonzero"/><path fill="#dd444c" d="M 51.332031 67.28125 C 51.332031 68.75 51.003906 70.277344 50.050781 71.429688 C 49.175781 72.5 47.914062 73.128906 46.589844 73.445312 C 43.632812 74.152344 39.871094 73.773438 37.578125 71.601562 C 35.167969 69.308594 35.21875 65.445312 36.863281 62.726562 C 38.597656 59.867188 42.132812 58.214844 45.4375 58.964844 C 48.742188 59.714844 50.839844 62.761719 51.257812 65.984375 C 51.308594 66.414062 51.335938 66.847656 51.335938 67.28125 C 51.335938 67.363281 51.367188 67.433594 51.425781 67.492188 C 51.484375 67.550781 51.554688 67.582031 51.636719 67.582031 C 51.71875 67.582031 51.789062 67.550781 51.847656 67.492188 C 51.90625 67.433594 51.9375 67.363281 51.9375 67.28125 C 51.921875 63.777344 50.144531 60.167969 46.789062 58.769531 C 43.433594 57.367188 39.375 58.605469 37.101562 61.367188 C 34.925781 64.007812 34.253906 68.199219 36.34375 71.09375 C 38.390625 73.925781 42.273438 74.65625 45.554688 74.25 C 47.09375 74.054688 48.617188 73.558594 49.8125 72.542969 C 50.984375 71.492188 51.660156 70.1875 51.84375 68.625 C 51.902344 68.1875 51.933594 67.742188 51.933594 67.300781 C 51.933594 67.214844 51.90625 67.144531 51.851562 67.085938 C 51.792969 67.023438 51.722656 66.992188 51.640625 66.992188 C 51.558594 66.988281 51.488281 67.015625 51.425781 67.070312 C 51.367188 67.128906 51.335938 67.199219 51.332031 67.28125 Z M 51.332031 67.28125 " fill-opacity="1" fill-rule="nonzero"/><path fill="#000000" d="M 43.089844 60.828125 L 43.824219 60.828125 C 44.164062 60.828125 44.496094 60.859375 44.828125 60.925781 C 45.15625 60.992188 45.476562 61.085938 45.789062 61.214844 C 46.101562 61.34375 46.398438 61.503906 46.679688 61.691406 C 46.957031 61.878906 47.21875 62.089844 47.457031 62.328125 C 47.695312 62.566406 47.90625 62.824219 48.09375 63.105469 C 48.28125 63.382812 48.441406 63.679688 48.570312 63.992188 C 48.699219 64.300781 48.796875 64.621094 48.863281 64.953125 C 48.929688 65.285156 48.960938 65.617188 48.960938 65.953125 L 48.960938 67.621094 C 48.960938 67.960938 48.929688 68.292969 48.863281 68.625 C 48.796875 68.953125 48.699219 69.273438 48.570312 69.585938 C 48.441406 69.898438 48.285156 70.191406 48.097656 70.472656 C 47.910156 70.753906 47.695312 71.011719 47.457031 71.25 C 47.21875 71.488281 46.960938 71.703125 46.679688 71.890625 C 46.398438 72.078125 46.101562 72.234375 45.792969 72.363281 C 45.480469 72.492188 45.15625 72.589844 44.828125 72.65625 C 44.496094 72.722656 44.164062 72.753906 43.824219 72.753906 L 43.089844 72.753906 C 42.753906 72.753906 42.417969 72.722656 42.089844 72.65625 C 41.757812 72.589844 41.4375 72.492188 41.125 72.363281 C 40.8125 72.234375 40.515625 72.078125 40.238281 71.890625 C 39.957031 71.703125 39.695312 71.488281 39.457031 71.25 C 39.21875 71.011719 39.007812 70.753906 38.820312 70.472656 C 38.632812 70.191406 38.472656 69.898438 38.34375 69.585938 C 38.214844 69.273438 38.117188 68.953125 38.050781 68.625 C 37.988281 68.292969 37.953125 67.960938 37.953125 67.621094 L 37.953125 65.953125 C 37.953125 65.617188 37.988281 65.285156 38.050781 64.953125 C 38.117188 64.621094 38.214844 64.300781 38.34375 63.992188 C 38.472656 63.679688 38.632812 63.382812 38.820312 63.105469 C 39.007812 62.824219 39.222656 62.566406 39.460938 62.328125 C 39.699219 62.089844 39.957031 61.875 40.238281 61.691406 C 40.519531 61.503906 40.8125 61.34375 41.125 61.214844 C 41.4375 61.085938 41.757812 60.988281 42.089844 60.925781 C 42.421875 60.859375 42.753906 60.828125 43.089844 60.828125 Z M 43.089844 60.828125 " fill-opacity="1" fill-rule="nonzero"/><path fill="#9b1528" d="M 51.308594 86.890625 C 51.855469 87.308594 52.472656 87.566406 53.15625 87.660156 C 54.828125 87.925781 56.433594 87.253906 57.753906 86.261719 C 58.058594 86.03125 57.753906 85.511719 57.449219 85.742188 C 56.257812 86.640625 54.785156 87.328125 53.257812 87.074219 C 52.855469 87.007812 52.46875 86.882812 52.105469 86.699219 C 51.996094 86.640625 51.890625 86.582031 51.789062 86.515625 C 51.742188 86.480469 51.632812 86.394531 51.71875 86.464844 C 51.425781 86.234375 50.996094 86.644531 51.308594 86.890625 Z M 51.308594 86.890625 " fill-opacity="1" fill-rule="nonzero"/><path fill="#000000" d="M 58.648438 79.761719 C 59.765625 81.625 57.441406 85.378906 54.726562 85.90625 C 52.015625 86.433594 48.457031 83.820312 48.792969 81.675781 C 49.195312 79.125 50.90625 81.410156 53.636719 80.882812 C 56.367188 80.355469 57.324219 77.546875 58.648438 79.761719 Z M 58.648438 79.761719 " fill-opacity="1" fill-rule="nonzero"/><path fill="#f79dac" d="M 72.230469 77.355469 C 72.230469 78.457031 70.550781 79.347656 68.476562 79.347656 C 66.402344 79.347656 64.722656 78.457031 64.722656 77.355469 C 64.722656 76.257812 66.402344 75.363281 68.476562 75.363281 C 70.550781 75.363281 72.230469 76.253906 72.230469 77.355469 Z M 72.230469 77.355469 " fill-opacity="1" fill-rule="nonzero"/><path fill="#f79dac" d="M 43.632812 77.355469 C 43.632812 78.457031 41.949219 79.347656 39.875 79.347656 C 37.800781 79.347656 36.121094 78.457031 36.121094 77.355469 C 36.121094 76.257812 37.804688 75.363281 39.875 75.363281 C 41.945312 75.363281 43.632812 76.253906 43.632812 77.355469 Z M 43.632812 77.355469 " fill-opacity="1" fill-rule="nonzero"/><path fill="#9b1528" d="M 69.214844 91.300781 C 69.78125 92.730469 70.355469 94.160156 70.929688 95.589844 L 70.929688 94.949219 C 70.355469 96.648438 69.785156 98.347656 69.214844 100.046875 C 69.171875 100.199219 69.160156 100.355469 69.183594 100.511719 C 69.203125 100.667969 69.25 100.816406 69.328125 100.953125 C 69.40625 101.09375 69.507812 101.210938 69.632812 101.308594 C 69.757812 101.40625 69.898438 101.476562 70.050781 101.519531 C 70.203125 101.558594 70.359375 101.566406 70.515625 101.546875 C 70.671875 101.527344 70.820312 101.476562 70.957031 101.398438 C 71.097656 101.320312 71.214844 101.21875 71.3125 101.097656 C 71.414062 100.972656 71.484375 100.835938 71.53125 100.683594 L 72.949219 96.46875 C 73.125 95.945312 73.410156 95.394531 73.199219 94.839844 C 72.929688 94.113281 72.625 93.402344 72.335938 92.683594 L 71.53125 90.664062 C 71.300781 90.085938 70.714844 89.613281 70.050781 89.828125 C 69.488281 90.007812 68.960938 90.679688 69.214844 91.300781 Z M 69.214844 91.300781 " fill-opacity="1" fill-rule="nonzero"/><path fill="#9b1528" d="M 68.382812 99.269531 C 68.09375 99.257812 59.800781 99.269531 56.082031 104.410156 C 54.546875 106.535156 54.085938 107.980469 54.070312 108.941406 C 54.066406 109.148438 54.125 109.339844 54.238281 109.511719 C 54.355469 109.683594 54.511719 109.808594 54.703125 109.882812 C 54.898438 109.960938 55.09375 109.976562 55.296875 109.929688 C 55.5 109.882812 55.671875 109.785156 55.8125 109.632812 C 56.664062 108.710938 57.941406 107.734375 58.65625 108.988281 C 59.808594 110.988281 58.085938 117.089844 55.65625 119.039062 C 53.230469 120.984375 62.378906 123.839844 69.242188 116.984375 C 76.109375 110.128906 74.945312 99.554688 68.382812 99.269531 Z M 68.382812 99.269531 " fill-opacity="1" fill-rule="nonzero"/><path fill="#9b1528" d="M 81.375 86.503906 L 85.769531 86.199219 L 92.8125 85.703125 L 94.425781 85.59375 L 93.273438 84.710938 C 93.59375 86.226562 93.910156 87.742188 94.230469 89.257812 L 95.757812 96.5 C 95.875 97.054688 95.988281 97.605469 96.105469 98.15625 C 96.148438 98.3125 96.222656 98.449219 96.320312 98.574219 C 96.417969 98.699219 96.535156 98.800781 96.675781 98.878906 C 96.8125 98.957031 96.960938 99.007812 97.117188 99.027344 C 97.277344 99.046875 97.433594 99.039062 97.585938 98.996094 C 97.738281 98.953125 97.875 98.878906 98 98.78125 C 98.121094 98.683594 98.222656 98.566406 98.300781 98.425781 C 98.378906 98.289062 98.429688 98.144531 98.449219 97.988281 C 98.472656 97.828125 98.460938 97.675781 98.421875 97.523438 C 98.105469 96.003906 97.785156 94.488281 97.464844 92.976562 C 96.957031 90.558594 96.449219 88.144531 95.9375 85.734375 C 95.824219 85.179688 95.707031 84.625 95.589844 84.074219 C 95.519531 83.816406 95.375 83.605469 95.160156 83.441406 C 94.949219 83.277344 94.707031 83.195312 94.4375 83.191406 L 90.042969 83.5 L 83 83.992188 L 81.386719 84.105469 C 80.761719 84.148438 80.152344 84.625 80.183594 85.304688 C 80.203125 85.917969 80.703125 86.550781 81.375 86.503906 Z M 81.375 86.503906 " fill-opacity="1" fill-rule="nonzero"/><path fill="#9b1528" d="M 103.265625 98.515625 C 103.296875 99.972656 101.75 101.1875 99.804688 101.226562 C 97.859375 101.261719 96.28125 100.109375 96.253906 98.648438 C 96.222656 97.1875 97.769531 95.976562 99.710938 95.941406 C 101.65625 95.902344 103.238281 97.0625 103.265625 98.515625 Z M 103.265625 98.515625 " fill-opacity="1" fill-rule="nonzero"/><path fill="#9b1528" d="M 95.960938 77.707031 L 99.785156 77.4375 L 105.921875 77.011719 L 107.332031 76.910156 L 106.175781 76.03125 L 107.011719 80 C 107.453125 82.097656 107.898438 84.195312 108.339844 86.292969 C 108.441406 86.777344 108.546875 87.265625 108.644531 87.75 C 108.6875 87.902344 108.761719 88.042969 108.859375 88.167969 C 108.957031 88.292969 109.074219 88.394531 109.214844 88.472656 C 109.351562 88.550781 109.5 88.597656 109.65625 88.621094 C 109.816406 88.640625 109.96875 88.628906 110.125 88.585938 C 110.277344 88.542969 110.414062 88.472656 110.539062 88.371094 C 110.660156 88.273438 110.761719 88.15625 110.839844 88.019531 C 110.917969 87.882812 110.96875 87.734375 110.988281 87.578125 C 111.007812 87.421875 111 87.265625 110.960938 87.113281 L 110.125 83.140625 C 109.683594 81.046875 109.242188 78.949219 108.800781 76.847656 C 108.695312 76.363281 108.59375 75.878906 108.492188 75.394531 C 108.421875 75.132812 108.277344 74.921875 108.0625 74.761719 C 107.851562 74.597656 107.609375 74.515625 107.339844 74.511719 L 103.515625 74.78125 L 97.378906 75.207031 L 95.96875 75.308594 C 95.34375 75.351562 94.738281 75.828125 94.769531 76.503906 C 94.785156 77.105469 95.289062 77.742188 95.960938 77.707031 Z M 95.960938 77.707031 " fill-opacity="1" fill-rule="nonzero"/><path fill="#9b1528" d="M 115.039062 88.007812 C 115.0625 89.277344 113.714844 90.335938 112.042969 90.367188 C 110.367188 90.402344 108.96875 89.398438 108.941406 88.125 C 108.917969 86.851562 110.265625 85.796875 111.941406 85.765625 C 113.621094 85.734375 115.015625 86.738281 115.039062 88.007812 Z M 115.039062 88.007812 " fill-opacity="1" fill-rule="nonzero"/><path fill="#9b1528" d="M 106.542969 70.175781 L 115.335938 69.558594 L 116.582031 69.472656 L 115.429688 68.59375 C 116.066406 71.609375 116.699219 74.625 117.335938 77.640625 C 117.429688 78.074219 117.519531 78.507812 117.609375 78.941406 C 117.652344 79.09375 117.722656 79.234375 117.824219 79.359375 C 117.921875 79.484375 118.039062 79.585938 118.175781 79.664062 C 118.316406 79.742188 118.464844 79.792969 118.621094 79.8125 C 118.78125 79.832031 118.9375 79.820312 119.089844 79.78125 C 119.242188 79.734375 119.378906 79.664062 119.503906 79.5625 C 119.625 79.464844 119.726562 79.347656 119.804688 79.210938 C 119.882812 79.070312 119.933594 78.925781 119.953125 78.769531 C 119.972656 78.613281 119.964844 78.457031 119.925781 78.304688 C 119.292969 75.289062 118.65625 72.273438 118.019531 69.257812 C 117.929688 68.824219 117.835938 68.386719 117.746094 67.953125 C 117.675781 67.695312 117.53125 67.484375 117.316406 67.320312 C 117.101562 67.15625 116.863281 67.074219 116.59375 67.074219 L 107.796875 67.6875 L 106.554688 67.773438 C 105.925781 67.816406 105.320312 68.296875 105.351562 68.976562 C 105.371094 69.585938 105.871094 70.222656 106.542969 70.175781 Z M 106.542969 70.175781 " fill-opacity="1" fill-rule="nonzero"/><path fill="#9b1528" d="M 123.390625 79.140625 C 123.414062 80.265625 122.222656 81.199219 120.734375 81.226562 C 119.242188 81.253906 118.019531 80.371094 118 79.246094 C 117.980469 78.121094 119.167969 77.191406 120.65625 77.160156 C 122.148438 77.128906 123.371094 78.019531 123.390625 79.140625 Z M 123.390625 79.140625 " fill-opacity="1" fill-rule="nonzero"/></svg>